M48
;Layer_Color=15238730
;FILE_FORMAT=4:4
METRIC,LZ
;TYPE=PLATED
T01F00S00C0.2000
T02F00S00C0.3000
T05F00S00C0.7112
T06F00S00C0.9000
T07F00S00C0.9400
T08F00S00C1.0000
T09F00S00C1.1000
T10F00S00C1.6000
T11F00S00C1.6200
T12F00S00C1.8500
T13F00S00C2.0000
T14F00S00C2.7000
;TYPE=NON_PLATED
T15F00S00C0.6500
T16F00S00C1.0000
T17F00S00C3.3000
%
T01
X005303Y000322
X005441Y000318
X005573Y000321
X005575Y000461
X005443
X00544Y000598
X005574
X005555Y000793
X005347
X005303Y000601
X005301Y000465
X005908Y000552
X006283Y000661
X006784Y000607
X006786Y000743
X006921
X006923Y000606
X007064
X00706Y000744
X007058Y000884
X006922Y000886
X006785Y000885
X006792Y000418
Y000288
X00693Y000289
Y000417
X007062Y00042
X007064Y00029
X00707Y000147
X00693Y000148
X006792Y000148
X007592Y000258
X00785Y000153
X00789165Y00078935
X007776Y000768
X007638Y000765
X007499Y000766
X007361Y000768
X007222Y000767
X006073Y003833
X005997
X007977Y002656
X007972Y00256
X008083Y002267
X008246Y002296
X008314
X008416Y002206
X008468Y002338
X008514Y002391
X008611Y002258
X008899Y002301
X008901Y00252
X008995Y00333
X00895Y003565
X009515Y003554
X009714Y003241
X008488Y002023
X008196Y001888
X007992Y002026
X008505Y001196
X008504Y001098
X008599Y001071
X008714Y00107
X00881Y0011
X00880915Y00119575
X008687Y000881
X008624
Y000616
X00855894Y00061712
X00868892Y00061927
X00875391Y0006205
X009022Y000881
X008272Y00089
X008292Y004233
X008214Y004232
X008136Y004234
X008057
X008373Y004233
X008604Y004292
X00903Y004223
X009118Y004088
X009176Y004402
X008959Y004436
X008956Y004907
X009509Y004891
X009557Y005126
X009511Y004455
X009536Y004225
X009517Y004074
X008226Y004738
X00818212Y00535571
X00813764Y00567236
X008037Y005709
X008238Y005734
X00833446Y00573211
X008357Y005828
X0083545Y00602
X00836Y006123
X00825Y005987
X008153Y006027
X008036Y006015
X008175Y006365
X008142Y006737
X008053Y006733
X008231Y00672
X008604Y006847
X008639Y006238
X008636Y005577
Y005467
X008599Y005125
X008846Y007385
X008957Y007374
X008973Y007471
X008972Y007579
X008952Y007708
X008846Y00767
X008614Y007687
X008658Y007734
X008698Y007773
X009148Y007889
X009149Y007562
Y007502
X00941Y007503
Y007443
Y007563
X009411Y007627
X009145Y00716
X009556Y006904
X007858Y006909
Y006993
X00786Y007077
X00779Y007153
X007707Y007236
X0076277Y00731575
X00749Y007313
X007376Y00731
X007305Y007251
X007229Y007176
X0071485Y0070975
X00707Y007019
X007033Y006929
X007095Y006851
X007123Y006639
X007233Y006638
X007337Y006635
X007444Y006639
X007553Y006602
X007598Y006496
X007599Y006388
X007601Y006291
X007602Y006192
X007515Y006124
X007399Y006125
X007285
X007172Y006126
X007058Y006127
X007012Y006293
X006753Y006328
Y006249
X006754Y006179
X006763Y006111
X006618Y005949
X006371Y005948
X00629075Y00594155
X006153Y006007
X005892Y005963
X00585Y00618
X00591402Y00642496
X005914Y006491
X00591402Y006587
X005917Y006653
X0061375Y006671
X00619925Y00667525
X00627Y006662
X006329Y006647
X006361Y006694
X006358Y006842
X006501Y00695
X006752Y006878
X00675Y006671
X006757Y00652
X006756Y00646
X0064865Y0064855
X00639716Y00650405
X00634496Y00648671
X00624456Y006455
X006473Y006361
X006471Y006598
X006467Y007261
X006536Y0072792
X006641Y0073
X006756Y00742
X006907Y007479
X007114Y007472
X00699674Y0073262
X00695277Y00728223
X006762Y0071202
X006779Y007627
X006515Y007537
X0064275Y0077055
X006316Y007706
X006454Y007901
X007106Y007907
X007207Y007862
X007353Y007716
X007744Y00699
X007786Y006837
X007708Y00676
X007636Y006684
X007823Y00638
X007917Y006382
X00793Y006013
X007807Y006015
X007761Y005759
X007672Y005761
X007744Y005639
X007725Y005566
X007728Y005492
X007725Y005415
X007498Y005888
X007354Y006334
Y006444
X006747Y00572
X00669Y00553
X006777Y005396
X00665Y005329
X006387Y005538
X00630726Y00551409
X00631283Y00574811
X005799Y005735
X005738Y0057503
X00572928Y00550918
X00564Y00551
X005541Y005512
X00582117Y00549317
X0059335Y0055125
X0061139Y0053291
X006352Y004782
X006546Y004608
X006778Y00478
X007025Y00461
X007617Y004524
X007867Y004342
X007861Y004751
X006778Y004067
X006364Y004062
X00607Y004011
X006001Y00401
X006135Y00454
X00572399Y00450501
X005657Y004475
X005661Y004584
X00566196Y00464577
X005673Y00470475
X005772Y00475119
X005562Y004582
X004905Y004524
X004876Y004333
X004588Y005232
X004525Y005169
X0042Y005626
X004201Y005691
X004014Y005685
X004018Y005991
X004203Y005996
Y005935
X0045418Y005961
X005088Y005921
X005289Y005942
X00544094Y00607494
X00543018Y00613397
X005433Y006218
X005432Y006279
X005437Y006528
X005005Y006535
X004965Y0066
X005039Y00664
X005007Y006391
X00509Y006268
X005201Y006914
X005169Y006981
X00519816Y00704284
X0054151Y0069958
X005333Y007316
X005539Y007295
X005814Y0072932
X005785Y0070768
X005825Y007014
X006187Y007166
X006212Y007233
X006182Y007291
X00630714Y0072568
X006398Y007288
X0057Y00771225
X00560407Y00773306
X005346Y007714
X005259Y007566
X005162Y007452
X00525Y007868
X005251Y007928
X004637Y007159
X005351Y005645
X003632Y005575
X003639Y005883
X00377Y007302
X003841Y00758
X005207Y008027
X005788Y008341
X005875Y008342
X006029Y008348
X00623Y008349
X006116Y008037
X006468Y008123
X0066232Y008069
X006686Y008106
X00658554Y00824246
X007106Y007973
X007224Y008056
X005234Y008959
X005172Y009012
X005103Y00896
X005032Y009354
X004955Y009372
X004875Y009374
X004889Y009599
X004952Y009551
X005034Y009562
X009515Y008129
T02
X005914Y000154
X005987Y000156
X00769Y001448
X00777Y001451
X007855Y00145
X007943Y001449
X008033
X008036Y001363
Y001272
X008034Y001183
X008043Y007399
X008128Y007368
X008225Y007369
X007312Y004882
X007228Y004884
X00714Y004882
X007142Y004791
T05
X007Y001
X0065Y002
X009Y003
X0025Y006
X0015
X001Y005
T06
X002202Y003024
X002702
X00353
X00403
X004873Y003234
Y003734
T07
X0008275Y006154
Y0063572
Y0065604
Y0067636
X0010055Y0068652
Y006662
Y0064588
Y0062556
Y0082194
Y0084226
Y0086258
Y008829
X0008275Y0087274
Y0085242
Y008321
Y0081178
X002439Y009021
X0026422
X0028454
X0030486
X002947Y009199
X0027438
X0025406
X0023374
X0042774Y009197
X0044806
X0046838
X004887
X0049886Y009019
X0047854
X0045822
X004379
X006398Y00903
X0066012
X0068044
X0070076
X006906Y009208
X0067028
X0064996
X0062964
X0082532Y009192
X0084564
X0086596
X0088628
X0089644Y009014
X0087612
X008558
X0083548
T08
X00032Y002953
X00057
X00082
X00107
X00132
X00157
X00756764Y00306914
Y00281914
Y00256914
Y00231914
Y00206914
Y00331914
X009225Y002831
X009475
X009725
X00971Y002194
Y001944
Y001694
X009708Y001138
Y000888
Y000638
X004648Y006553
X004398
X004148
X004139Y007176
Y007426
X003898Y006553
X003648
X00257Y006494
Y007254
X002471Y005759
X002721
X002971
X003221
X002221
X001971
X002114Y008093
X002364
X002614
X002864
X003114
X003693Y008097
X003943
X004193
X004443
X004693
T09
X000208Y003735
X000462
X000716
X00097
X00122614Y00373286
X0014903
X0017443
X0019983Y00373032
X002347Y00374
X002601
X002855
X003109
X00336514Y00373786
X0036293
X0038833
X0041373Y00373532
X00563414Y00376714
Y00351314
Y00325914
Y00300514
X005632Y002749
Y00248484
Y00223084
X00562946Y00197684
X00715346
X007156Y00223084
Y00248484
Y002749
X00715814Y00300514
Y00325914
Y00351314
Y00376714
X0041373Y00525932
X0038833Y00526186
X0036293
X00336514
X003109Y005264
X002855
X002601
X002347
X0019983Y00525432
X0017443Y00525686
X0014903
X00122614
X00097Y005259
X000716
X000462
X000208
X00783Y008213
X008084
X008338
X008592
X008846
T10
X00269Y000692
Y001032
X002684Y001805
Y002145
X003676
Y001805
X003682Y001032
Y000692
T11
X0009165Y0056966
Y0073226
Y0076604
Y0092864
X00188Y00911
X003506
X00382Y009108
X005446
X005839Y009119
X007465
X0077958Y009103
X0094218
T12
X004798Y000236
Y000706
Y001176
Y001573
Y002043
Y002513
T13
X00026Y00026
X00974
X00026Y00974
X00974
T14
X0016625Y001343
Y002063
T15
X008368Y0006555
X008946
X009376Y007243
Y007821
T16
X009595Y00552
Y00632
T17
X0005735Y0058746
Y0071446
Y0078384
Y0091084
X002058Y009453
X003328
X003998Y009451
X005268
X006017Y009462
X007287
X0079738Y009446
X0092438
M30
