G04*
G04 #@! TF.GenerationSoftware,Altium Limited,Altium Designer,25.2.1 (25)*
G04*
G04 Layer_Color=65535*
%FSLAX44Y44*%
%MOMM*%
G71*
G04*
G04 #@! TF.SameCoordinates,965F6EC9-4211-4512-97E5-58CA1C1A5C92*
G04*
G04*
G04 #@! TF.FilePolarity,Positive*
G04*
G01*
G75*
%ADD10C,0.2000*%
%ADD11C,0.1000*%
%ADD12C,0.1524*%
%ADD13C,0.2500*%
%ADD14C,0.1270*%
%ADD15C,0.1500*%
%ADD16C,0.1500*%
G36*
X780151Y395920D02*
X780319D01*
Y395584D01*
X780151D01*
Y391885D01*
X780319D01*
Y391549D01*
X780151D01*
Y391381D01*
X779982D01*
Y391212D01*
X758628D01*
Y391044D01*
X758460D01*
Y382301D01*
X758796D01*
Y382133D01*
X780151D01*
Y381796D01*
X780319D01*
Y381628D01*
X780487D01*
Y377593D01*
X780319D01*
Y377425D01*
X780151D01*
Y377257D01*
X757283D01*
Y377425D01*
X756442D01*
Y377593D01*
X756106D01*
Y377761D01*
X755602D01*
Y377929D01*
X755434D01*
Y378097D01*
X755097D01*
Y378265D01*
X754761D01*
Y378434D01*
X754593D01*
Y378602D01*
X754425D01*
Y378770D01*
X754257D01*
Y378938D01*
X754089D01*
Y379274D01*
X753920D01*
Y379611D01*
X753752D01*
Y379779D01*
X753584D01*
Y393735D01*
X753752D01*
Y393903D01*
X753920D01*
Y394071D01*
X754089D01*
Y394407D01*
X754257D01*
Y394575D01*
X754425D01*
Y394743D01*
X754593D01*
Y394911D01*
X754761D01*
Y395080D01*
X754929D01*
Y395248D01*
X755266D01*
Y395416D01*
X755602D01*
Y395584D01*
X755770D01*
Y395752D01*
X756442D01*
Y395920D01*
X756947D01*
Y396088D01*
X757788D01*
Y396257D01*
X758965D01*
Y396088D01*
X759301D01*
Y395920D01*
X779646D01*
Y396088D01*
X779814D01*
Y396257D01*
X780151D01*
Y395920D01*
D02*
G37*
G36*
X810584Y395752D02*
X810752D01*
Y395584D01*
X810920D01*
Y377089D01*
X810752D01*
Y376920D01*
X804195D01*
Y377089D01*
X803690D01*
Y377257D01*
X803018D01*
Y377425D01*
X802513D01*
Y377593D01*
X802345D01*
Y377761D01*
X802009D01*
Y377929D01*
X801673D01*
Y378097D01*
X801504D01*
Y378265D01*
X801336D01*
Y378434D01*
X801168D01*
Y378602D01*
X800832D01*
Y378770D01*
X800664D01*
Y378938D01*
X800496D01*
Y379106D01*
X800327D01*
Y379442D01*
X800159D01*
Y379611D01*
X799991D01*
Y379779D01*
X799823D01*
Y379947D01*
X799655D01*
Y380115D01*
X799487D01*
Y380283D01*
X799319D01*
Y380620D01*
X799150D01*
Y380788D01*
X798982D01*
Y380956D01*
X798814D01*
Y381124D01*
X798646D01*
Y381292D01*
X798478D01*
Y381460D01*
X798310D01*
Y381628D01*
X798142D01*
Y381796D01*
X797973D01*
Y382133D01*
X797805D01*
Y382301D01*
X797637D01*
Y382469D01*
X797469D01*
Y382637D01*
X797301D01*
Y382805D01*
X797133D01*
Y383142D01*
X796965D01*
Y383310D01*
X796796D01*
Y383478D01*
X796628D01*
Y383646D01*
X796460D01*
Y383814D01*
X796292D01*
Y384150D01*
X796124D01*
Y384319D01*
X795956D01*
Y384487D01*
X795788D01*
Y384655D01*
X795620D01*
Y384823D01*
X795451D01*
Y384991D01*
X795283D01*
Y385159D01*
X795115D01*
Y385327D01*
X794947D01*
Y385496D01*
X794779D01*
Y385832D01*
X794611D01*
Y386000D01*
X794443D01*
Y386168D01*
X794274D01*
Y386504D01*
X794106D01*
Y386673D01*
X793938D01*
Y386841D01*
X793770D01*
Y387009D01*
X793602D01*
Y387177D01*
X793434D01*
Y387345D01*
X793266D01*
Y387513D01*
X793097D01*
Y387681D01*
X792929D01*
Y388018D01*
X792761D01*
Y388186D01*
X792593D01*
Y388354D01*
X792425D01*
Y388522D01*
X792257D01*
Y388690D01*
X792088D01*
Y389027D01*
X791752D01*
Y389363D01*
X791584D01*
Y389531D01*
X791416D01*
Y389699D01*
X791248D01*
Y389867D01*
X791080D01*
Y390035D01*
X790911D01*
Y390204D01*
X790743D01*
Y390372D01*
X790407D01*
Y390540D01*
X790239D01*
Y390708D01*
X789734D01*
Y390876D01*
X789062D01*
Y380451D01*
Y380283D01*
Y376920D01*
X784186D01*
Y377257D01*
X784018D01*
Y386000D01*
X783850D01*
Y386168D01*
X782168D01*
Y386000D01*
X782000D01*
Y385832D01*
X782168D01*
Y382469D01*
X782000D01*
Y382301D01*
X781327D01*
Y385832D01*
X781159D01*
Y386000D01*
X780991D01*
Y385832D01*
X780655D01*
Y385664D01*
X780487D01*
Y385496D01*
X780151D01*
Y385327D01*
X779814D01*
Y385159D01*
X779646D01*
Y384991D01*
X779142D01*
Y384823D01*
X778805D01*
Y384655D01*
X778469D01*
Y384487D01*
X777965D01*
Y384319D01*
X777628D01*
Y384150D01*
X777460D01*
Y383982D01*
X777124D01*
Y383814D01*
X776788D01*
Y383646D01*
X776451D01*
Y383478D01*
X775947D01*
Y383310D01*
X775779D01*
Y383142D01*
X775611D01*
Y382974D01*
X775274D01*
Y382805D01*
X774938D01*
Y382637D01*
X774434D01*
Y382469D01*
X774266D01*
Y382301D01*
X774097D01*
Y382469D01*
X773929D01*
Y382637D01*
X773761D01*
Y384319D01*
X773929D01*
Y385664D01*
X774097D01*
Y386000D01*
X773761D01*
Y386168D01*
X773593D01*
Y386000D01*
X773089D01*
Y386168D01*
X771743D01*
Y386000D01*
X771575D01*
Y384991D01*
X771407D01*
Y384823D01*
X759637D01*
Y384991D01*
X759469D01*
Y385159D01*
X759301D01*
Y388354D01*
X759469D01*
Y388522D01*
X771575D01*
Y386841D01*
X773929D01*
Y390372D01*
X774097D01*
Y390540D01*
X774266D01*
Y390708D01*
X774434D01*
Y390540D01*
X774602D01*
Y390372D01*
X774938D01*
Y390204D01*
X775274D01*
Y390035D01*
X775611D01*
Y389867D01*
X775947D01*
Y389699D01*
X776115D01*
Y389531D01*
X776619D01*
Y389363D01*
X776788D01*
Y389195D01*
X777292D01*
Y389027D01*
X777796D01*
Y388858D01*
X777965D01*
Y388690D01*
X778301D01*
Y388522D01*
X778637D01*
Y388354D01*
X778805D01*
Y388186D01*
X779310D01*
Y388018D01*
X779478D01*
Y387850D01*
X779814D01*
Y387681D01*
X780319D01*
Y387513D01*
X780487D01*
Y387345D01*
X780823D01*
Y387177D01*
X780991D01*
Y387009D01*
X781159D01*
Y387177D01*
X781327D01*
Y390540D01*
X782168D01*
Y386841D01*
X784018D01*
Y395584D01*
X784186D01*
Y395752D01*
X788558D01*
Y395920D01*
X788894D01*
Y395752D01*
X791248D01*
Y395584D01*
X791416D01*
Y395416D01*
X792088D01*
Y395248D01*
X792425D01*
Y395080D01*
X792761D01*
Y394911D01*
X793097D01*
Y394743D01*
X793266D01*
Y394575D01*
X793434D01*
Y394407D01*
X793770D01*
Y394239D01*
X793938D01*
Y394071D01*
X794106D01*
Y393903D01*
X794274D01*
Y393735D01*
X794443D01*
Y393566D01*
X794611D01*
Y393398D01*
X794779D01*
Y393230D01*
X794947D01*
Y392894D01*
X795115D01*
Y392726D01*
X795283D01*
Y392557D01*
X795451D01*
Y392389D01*
X795620D01*
Y392221D01*
X795788D01*
Y392053D01*
X795956D01*
Y391885D01*
X796124D01*
Y391549D01*
X796292D01*
Y391381D01*
X796460D01*
Y391212D01*
X796628D01*
Y391044D01*
X796796D01*
Y390876D01*
X796965D01*
Y390708D01*
X797133D01*
Y390372D01*
X797301D01*
Y390204D01*
X797469D01*
Y390035D01*
X797637D01*
Y389867D01*
X797805D01*
Y389699D01*
X797973D01*
Y389531D01*
X798142D01*
Y389363D01*
X798310D01*
Y389027D01*
X798478D01*
Y388858D01*
X798646D01*
Y388690D01*
X798814D01*
Y388522D01*
X798982D01*
Y388354D01*
X799150D01*
Y388186D01*
X799319D01*
Y388018D01*
X799487D01*
Y387681D01*
X799655D01*
Y387513D01*
X799823D01*
Y387345D01*
X799991D01*
Y387177D01*
X800159D01*
Y387009D01*
X800327D01*
Y386841D01*
X800496D01*
Y386504D01*
X800664D01*
Y386336D01*
X800832D01*
Y386168D01*
X801000D01*
Y386000D01*
X801168D01*
Y385832D01*
X801336D01*
Y385664D01*
X801504D01*
Y385496D01*
X801673D01*
Y385159D01*
X801841D01*
Y384991D01*
X802009D01*
Y384823D01*
X802177D01*
Y384655D01*
X802345D01*
Y384487D01*
X802513D01*
Y384319D01*
X802681D01*
Y384150D01*
X802850D01*
Y383814D01*
X803018D01*
Y383646D01*
X803186D01*
Y383478D01*
X803354D01*
Y383310D01*
X803522D01*
Y383142D01*
X803690D01*
Y382974D01*
X803858D01*
Y382805D01*
X804027D01*
Y382637D01*
X804195D01*
Y382469D01*
X804363D01*
Y382301D01*
X804699D01*
Y382133D01*
X804867D01*
Y381965D01*
X805540D01*
Y381796D01*
X805708D01*
Y381965D01*
X805876D01*
Y395752D01*
X806044D01*
Y395920D01*
X807221D01*
Y395752D01*
X809407D01*
Y395920D01*
X810584D01*
Y395752D01*
D02*
G37*
G36*
X826894Y396593D02*
X827230D01*
Y396425D01*
X827566D01*
Y396257D01*
X828071D01*
Y396088D01*
X828239D01*
Y395920D01*
X828575D01*
Y395752D01*
X828743D01*
Y395584D01*
X828912D01*
Y395416D01*
X829248D01*
Y395248D01*
X829416D01*
Y395080D01*
X829584D01*
Y394911D01*
X829752D01*
Y394743D01*
X829920D01*
Y394407D01*
X830089D01*
Y394239D01*
X830257D01*
Y393903D01*
X830425D01*
Y393566D01*
X830593D01*
Y393398D01*
X830761D01*
Y392726D01*
X830929D01*
Y391885D01*
X831097D01*
Y391212D01*
X830929D01*
Y391044D01*
X830761D01*
Y390876D01*
X829584D01*
Y376752D01*
X829416D01*
Y376416D01*
X824540D01*
Y376584D01*
X824372D01*
Y390372D01*
X813779D01*
Y390708D01*
X813611D01*
Y394911D01*
X813779D01*
Y395248D01*
X813947D01*
Y395416D01*
X825549D01*
Y395248D01*
X825717D01*
Y395416D01*
X825885D01*
Y395584D01*
X826053D01*
Y395752D01*
X826221D01*
Y396257D01*
X826389D01*
Y396593D01*
X826557D01*
Y396761D01*
X826894D01*
Y396593D01*
D02*
G37*
G36*
X829752Y401469D02*
X830089D01*
Y401301D01*
X830425D01*
Y401133D01*
X830761D01*
Y400965D01*
X831097D01*
Y400797D01*
X831434D01*
Y400628D01*
X831602D01*
Y400460D01*
X831938D01*
Y400292D01*
X832274D01*
Y400124D01*
X832442D01*
Y399956D01*
X832779D01*
Y399788D01*
X832947D01*
Y399619D01*
X833115D01*
Y399451D01*
X833451D01*
Y399115D01*
X833620D01*
Y398947D01*
X833956D01*
Y398611D01*
X834124D01*
Y398442D01*
X834292D01*
Y398274D01*
X834460D01*
Y398106D01*
X834628D01*
Y397938D01*
X834797D01*
Y397770D01*
X834965D01*
Y397602D01*
X835133D01*
Y397266D01*
X835301D01*
Y397097D01*
X835469D01*
Y396929D01*
Y396761D01*
X835637D01*
Y396593D01*
X835805D01*
Y396088D01*
X835974D01*
Y395752D01*
X836142D01*
Y395584D01*
X836310D01*
Y395080D01*
X836478D01*
Y394743D01*
X836646D01*
Y394071D01*
X836814D01*
Y393566D01*
X836982D01*
Y391717D01*
X837150D01*
Y391212D01*
X836982D01*
Y391044D01*
X835301D01*
Y391212D01*
X834965D01*
Y392389D01*
X834797D01*
Y392557D01*
X834965D01*
Y392726D01*
X834797D01*
Y393398D01*
X834628D01*
Y393903D01*
X834460D01*
Y394407D01*
X834292D01*
Y395080D01*
X834124D01*
Y395248D01*
X833956D01*
Y395584D01*
X833788D01*
Y395752D01*
X833620D01*
Y396088D01*
X833451D01*
Y396257D01*
X833283D01*
Y396593D01*
X833115D01*
Y396761D01*
X832947D01*
Y396929D01*
X832779D01*
Y397097D01*
X832611D01*
Y397434D01*
X832442D01*
Y397602D01*
X832106D01*
Y397938D01*
X831770D01*
Y398106D01*
X831602D01*
Y398274D01*
X831265D01*
Y398442D01*
X831097D01*
Y398611D01*
X830929D01*
Y398779D01*
X830593D01*
Y398947D01*
X830425D01*
Y399115D01*
X830089D01*
Y399283D01*
X829752D01*
Y399451D01*
X829584D01*
Y399619D01*
X828912D01*
Y399788D01*
X828407D01*
Y399956D01*
X828071D01*
Y400292D01*
X827903D01*
Y400628D01*
X828071D01*
Y401469D01*
X828239D01*
Y401637D01*
X829752D01*
Y401469D01*
D02*
G37*
G36*
X828239Y399451D02*
X828743D01*
Y399283D01*
X829080D01*
Y399115D01*
X829416D01*
Y398947D01*
X829752D01*
Y398779D01*
X830089D01*
Y398611D01*
X830257D01*
Y398442D01*
X830593D01*
Y398274D01*
X830761D01*
Y398106D01*
X831097D01*
Y397938D01*
X831265D01*
Y397770D01*
X831434D01*
Y397602D01*
X831770D01*
Y397434D01*
X831938D01*
Y397266D01*
X832106D01*
Y397097D01*
X832274D01*
Y396929D01*
X832442D01*
Y396593D01*
X832611D01*
Y396425D01*
X832779D01*
Y396257D01*
X832947D01*
Y395920D01*
X833115D01*
Y395752D01*
X833283D01*
Y395584D01*
X833451D01*
Y395080D01*
X833620D01*
Y394743D01*
X833788D01*
Y394575D01*
X833956D01*
Y394071D01*
X834124D01*
Y393398D01*
X834292D01*
Y392726D01*
X834460D01*
Y391212D01*
X834124D01*
Y391044D01*
X831770D01*
Y391212D01*
X831434D01*
Y391549D01*
X831602D01*
Y391717D01*
X831434D01*
Y392557D01*
X831265D01*
Y393062D01*
X831097D01*
Y393566D01*
X830929D01*
Y393903D01*
X830761D01*
Y394071D01*
X830593D01*
Y394407D01*
X830425D01*
Y394575D01*
X830257D01*
Y394911D01*
X830089D01*
Y395080D01*
X829920D01*
Y395248D01*
X829752D01*
Y395416D01*
X829584D01*
Y395584D01*
X829416D01*
Y395752D01*
X829248D01*
Y395920D01*
X828912D01*
Y396088D01*
X828743D01*
Y396257D01*
X828407D01*
Y396425D01*
X828239D01*
Y396593D01*
X827735D01*
Y396761D01*
X827398D01*
Y396929D01*
X827062D01*
Y397097D01*
X826894D01*
Y397266D01*
X826726D01*
Y397434D01*
X826894D01*
Y397770D01*
X827062D01*
Y398442D01*
X827230D01*
Y398947D01*
X827398D01*
Y399115D01*
X827566D01*
Y399619D01*
X828239D01*
Y399451D01*
D02*
G37*
G36*
X845894Y395752D02*
X867584D01*
Y391212D01*
X867416D01*
Y391044D01*
X867248D01*
Y390876D01*
X845894D01*
Y390708D01*
X845726D01*
Y382133D01*
X845894D01*
Y381965D01*
X846062D01*
Y381796D01*
X867584D01*
Y376920D01*
X844549D01*
Y377089D01*
X843876D01*
Y377257D01*
X843372D01*
Y377425D01*
X842867D01*
Y377593D01*
X842699D01*
Y377761D01*
X842363D01*
Y377929D01*
X842195D01*
Y378097D01*
X842027D01*
Y378265D01*
X841690D01*
Y378434D01*
X841522D01*
Y378770D01*
X841354D01*
Y378938D01*
X841186D01*
Y379106D01*
X841018D01*
Y379611D01*
X840850D01*
Y379779D01*
X840681D01*
Y380956D01*
X840513D01*
Y391885D01*
X840681D01*
Y392894D01*
X840850D01*
Y393230D01*
X841018D01*
Y393566D01*
X841186D01*
Y393903D01*
X841354D01*
Y394071D01*
X841522D01*
Y394239D01*
X841690D01*
Y394407D01*
X841858D01*
Y394575D01*
X842027D01*
Y394743D01*
X842195D01*
Y394911D01*
X842531D01*
Y395080D01*
X842699D01*
Y395248D01*
X843035D01*
Y395416D01*
X843708D01*
Y395584D01*
X844044D01*
Y395752D01*
X845726D01*
Y395920D01*
X845894D01*
Y395752D01*
D02*
G37*
G36*
X830257Y372885D02*
X830425D01*
Y372549D01*
X830257D01*
Y372380D01*
X830761D01*
Y372549D01*
X833115D01*
Y372380D01*
X833451D01*
Y372549D01*
X833620D01*
Y372717D01*
X833788D01*
Y372549D01*
X836142D01*
Y372380D01*
X836310D01*
Y372212D01*
X836478D01*
Y372044D01*
X836646D01*
Y370363D01*
X836478D01*
Y370195D01*
X836310D01*
Y370027D01*
X835301D01*
Y371372D01*
X834460D01*
Y370027D01*
X833451D01*
Y370195D01*
X833115D01*
Y370027D01*
X830593D01*
Y370195D01*
X830257D01*
Y370027D01*
X829416D01*
Y370195D01*
X828912D01*
Y370027D01*
X828071D01*
Y370195D01*
X827566D01*
Y370027D01*
X825044D01*
Y370195D01*
X824876D01*
Y370027D01*
X822522D01*
Y370195D01*
X822018D01*
Y370027D01*
X820168D01*
Y370195D01*
X820000D01*
Y371372D01*
X819159D01*
Y370195D01*
X818991D01*
Y370027D01*
X818150D01*
Y370195D01*
X817646D01*
Y370027D01*
X815292D01*
Y370195D01*
X814956D01*
Y370027D01*
X814115D01*
Y370195D01*
X813779D01*
Y370363D01*
X813611D01*
Y370027D01*
X812602D01*
Y370195D01*
X812434D01*
Y370363D01*
X812265D01*
Y370195D01*
X812097D01*
Y370027D01*
X811088D01*
Y370195D01*
X810920D01*
Y370027D01*
X810080D01*
Y370195D01*
X809407D01*
Y370027D01*
X808566D01*
Y370195D01*
X808398D01*
Y371372D01*
X808062D01*
Y370531D01*
X808230D01*
Y370195D01*
X808062D01*
Y370027D01*
X807053D01*
Y370195D01*
X806717D01*
Y370027D01*
X804363D01*
Y370195D01*
X804027D01*
Y370027D01*
X801673D01*
Y370195D01*
X801168D01*
Y370027D01*
X798646D01*
Y370195D01*
X798142D01*
Y370027D01*
X797469D01*
Y370195D01*
X797133D01*
Y370027D01*
X794611D01*
Y370195D01*
X794443D01*
Y370363D01*
X794274D01*
Y371876D01*
X794106D01*
Y372044D01*
X793097D01*
Y370027D01*
X792088D01*
Y370195D01*
X791920D01*
Y370363D01*
X791752D01*
Y370699D01*
X791920D01*
Y371876D01*
X791752D01*
Y372044D01*
X790407D01*
Y372212D01*
X790239D01*
Y372885D01*
X790407D01*
Y373221D01*
X794611D01*
Y373053D01*
X794779D01*
Y372717D01*
X794947D01*
Y372549D01*
X797133D01*
Y372380D01*
X797301D01*
Y373053D01*
X797469D01*
Y373221D01*
X798310D01*
Y373053D01*
X798478D01*
Y372549D01*
X801168D01*
Y372380D01*
X801504D01*
Y372549D01*
X803858D01*
Y372380D01*
X804363D01*
Y372549D01*
X806717D01*
Y372380D01*
X807053D01*
Y372549D01*
X810752D01*
Y372380D01*
X810920D01*
Y372212D01*
X811088D01*
Y372549D01*
X814620D01*
Y372380D01*
X816133D01*
Y371372D01*
X816301D01*
Y371204D01*
X816805D01*
Y371035D01*
X816973D01*
Y371204D01*
X816805D01*
Y371540D01*
X816973D01*
Y372044D01*
X816805D01*
Y372212D01*
X816973D01*
Y372380D01*
X818150D01*
Y372549D01*
X820841D01*
Y372380D01*
X821177D01*
Y372717D01*
X821009D01*
Y373053D01*
X821177D01*
Y373221D01*
X822186D01*
Y373053D01*
X822354D01*
Y372549D01*
X822186D01*
Y372380D01*
X822522D01*
Y372549D01*
X827566D01*
Y372380D01*
X827735D01*
Y372885D01*
X828071D01*
Y373221D01*
X828912D01*
Y373053D01*
X829248D01*
Y373221D01*
X830257D01*
Y372885D01*
D02*
G37*
G36*
X775274D02*
X775443D01*
Y372717D01*
X775274D01*
Y372380D01*
X775611D01*
Y372549D01*
X777965D01*
Y372380D01*
X778133D01*
Y372044D01*
X778301D01*
Y371876D01*
X778133D01*
Y371708D01*
X777965D01*
Y371540D01*
X777796D01*
Y371372D01*
X776788D01*
Y371540D01*
X776619D01*
Y371372D01*
X776451D01*
Y371204D01*
X776619D01*
Y371035D01*
X776788D01*
Y371204D01*
X777796D01*
Y371035D01*
X778133D01*
Y370699D01*
X778301D01*
Y370363D01*
X778133D01*
Y370195D01*
X777965D01*
Y370027D01*
X775611D01*
Y370195D01*
X775274D01*
Y370027D01*
X774266D01*
Y370195D01*
X774097D01*
Y370027D01*
X773089D01*
Y370195D01*
X772920D01*
Y371372D01*
X772248D01*
Y370195D01*
X772080D01*
Y370027D01*
X771071D01*
Y370195D01*
X770734D01*
Y370027D01*
X768381D01*
Y370195D01*
X768044D01*
Y370363D01*
X767876D01*
Y371372D01*
X767372D01*
Y371204D01*
X767204D01*
Y370195D01*
X767035D01*
Y370027D01*
X766027D01*
Y370195D01*
X765690D01*
Y370027D01*
X764850D01*
Y370195D01*
X764513D01*
Y370027D01*
X762159D01*
Y370195D01*
X761823D01*
Y370027D01*
X759301D01*
Y370195D01*
X758796D01*
Y370027D01*
X754089D01*
Y370195D01*
X753920D01*
Y370363D01*
X753584D01*
Y372885D01*
X753920D01*
Y373053D01*
X754089D01*
Y373221D01*
X758965D01*
Y373053D01*
X759133D01*
Y372549D01*
X761655D01*
Y372380D01*
X762159D01*
Y372549D01*
X764513D01*
Y372717D01*
X764681D01*
Y372885D01*
X764850D01*
Y373221D01*
X765690D01*
Y373053D01*
X765858D01*
Y372717D01*
X766027D01*
Y372549D01*
X768044D01*
Y372380D01*
X768381D01*
Y372549D01*
X770734D01*
Y372380D01*
X771071D01*
Y372549D01*
X773761D01*
Y372380D01*
X774097D01*
Y373053D01*
X774266D01*
Y373221D01*
X775274D01*
Y372885D01*
D02*
G37*
G36*
X861531Y373053D02*
X861699D01*
Y372717D01*
X861867D01*
Y372549D01*
X864221D01*
Y372380D01*
X864894D01*
Y372549D01*
X867416D01*
Y372380D01*
X867584D01*
Y369690D01*
X864557D01*
Y370027D01*
X863549D01*
Y370195D01*
X863381D01*
Y371372D01*
X862708D01*
Y370195D01*
X862540D01*
Y370027D01*
X860690D01*
Y370195D01*
X860354D01*
Y371372D01*
X859850D01*
Y371204D01*
X859681D01*
Y370867D01*
X859513D01*
Y370027D01*
X855982D01*
Y370195D01*
X855814D01*
Y370363D01*
X855478D01*
Y370027D01*
X852956D01*
Y370195D01*
X852788D01*
Y370027D01*
X851779D01*
Y370195D01*
X851611D01*
Y370363D01*
X851442D01*
Y371372D01*
X850602D01*
Y370027D01*
X848752D01*
Y369858D01*
X848584D01*
Y369690D01*
X845389D01*
Y370027D01*
X844549D01*
Y370195D01*
X844380D01*
Y370363D01*
X844212D01*
Y370531D01*
X844380D01*
Y370867D01*
X844549D01*
Y371204D01*
X844380D01*
Y371372D01*
X843708D01*
Y370363D01*
X843540D01*
Y370195D01*
X843372D01*
Y370027D01*
X838496D01*
Y370195D01*
X838327D01*
Y370363D01*
X838159D01*
Y370531D01*
X837991D01*
Y372717D01*
X838159D01*
Y372885D01*
X838327D01*
Y373053D01*
X838496D01*
Y373221D01*
X842363D01*
Y373053D01*
X842531D01*
Y372717D01*
X842699D01*
Y372549D01*
X845221D01*
Y372380D01*
X845726D01*
Y372549D01*
X848416D01*
Y373053D01*
X848584D01*
Y373221D01*
X849593D01*
Y373053D01*
X849761D01*
Y372717D01*
X849929D01*
Y372549D01*
X852451D01*
Y372380D01*
X852619D01*
Y372212D01*
X852788D01*
Y372380D01*
X852956D01*
Y372549D01*
X855478D01*
Y372380D01*
X855982D01*
Y372549D01*
X858336D01*
Y372380D01*
X858504D01*
Y372212D01*
X858673D01*
Y372380D01*
X858841D01*
Y372549D01*
X860186D01*
Y372717D01*
X860354D01*
Y373053D01*
X860522D01*
Y373221D01*
X861531D01*
Y373053D01*
D02*
G37*
G36*
X788726D02*
X788894D01*
Y372885D01*
X789062D01*
Y370867D01*
X788894D01*
Y370531D01*
X788726D01*
Y370195D01*
X788389D01*
Y370027D01*
X786035D01*
Y370195D01*
X785531D01*
Y370027D01*
X784690D01*
Y370195D01*
X784522D01*
Y370363D01*
X784354D01*
Y370531D01*
Y370699D01*
Y371372D01*
X783681D01*
Y370195D01*
X783513D01*
Y370027D01*
X782673D01*
Y370195D01*
X782336D01*
Y370027D01*
X779814D01*
Y370195D01*
X779646D01*
Y370363D01*
X779478D01*
Y371372D01*
X779646D01*
Y371708D01*
X779478D01*
Y372380D01*
X779646D01*
Y372549D01*
X782336D01*
Y372380D01*
X782504D01*
Y372549D01*
X785195D01*
Y372380D01*
X785531D01*
Y372212D01*
X785867D01*
Y372380D01*
X786035D01*
Y372549D01*
X787381D01*
Y372717D01*
X787549D01*
Y372885D01*
X787717D01*
Y373221D01*
X788726D01*
Y373053D01*
D02*
G37*
G36*
X823287Y363830D02*
X823376Y363820D01*
X823476Y363800D01*
X823596Y363770D01*
X823726Y363730D01*
X823866Y363670D01*
X823287Y362442D01*
X823277D01*
X823247Y362452D01*
X823207Y362472D01*
X823157Y362482D01*
X823087Y362502D01*
X823017Y362512D01*
X822848Y362522D01*
X822778D01*
X822708Y362502D01*
X822608Y362482D01*
X822488Y362452D01*
X822348Y362392D01*
X822209Y362322D01*
X822059Y362223D01*
X822039Y362212D01*
X821989Y362173D01*
X821919Y362103D01*
X821829Y362013D01*
X821730Y361903D01*
X821630Y361763D01*
X821520Y361614D01*
X821430Y361434D01*
Y361424D01*
X821420Y361414D01*
X821410Y361384D01*
X821390Y361344D01*
X821370Y361284D01*
X821350Y361224D01*
X821320Y361144D01*
X821290Y361054D01*
X821250Y360955D01*
X821220Y360835D01*
X821180Y360715D01*
X821141Y360575D01*
X821101Y360416D01*
X821061Y360246D01*
X821021Y360066D01*
X820981Y359877D01*
X820621Y358140D01*
X819124D01*
X820282Y363700D01*
X821690D01*
X821460Y362632D01*
X821470Y362642D01*
X821500Y362682D01*
X821540Y362742D01*
X821600Y362821D01*
X821670Y362911D01*
X821759Y363011D01*
X821859Y363121D01*
X821969Y363241D01*
X822089Y363350D01*
X822219Y363460D01*
X822368Y363560D01*
X822518Y363650D01*
X822668Y363730D01*
X822828Y363790D01*
X822997Y363830D01*
X823167Y363840D01*
X823227D01*
X823287Y363830D01*
D02*
G37*
G36*
X864833D02*
X864922D01*
X865022Y363820D01*
X865142Y363810D01*
X865262Y363790D01*
X865521Y363740D01*
X865791Y363670D01*
X866050Y363570D01*
X866170Y363510D01*
X866280Y363440D01*
X866290D01*
X866300Y363420D01*
X866330Y363400D01*
X866370Y363370D01*
X866460Y363281D01*
X866570Y363161D01*
X866689Y363011D01*
X866809Y362831D01*
X866909Y362622D01*
X866979Y362382D01*
X865591Y362143D01*
Y362153D01*
X865571Y362192D01*
X865541Y362242D01*
X865501Y362312D01*
X865452Y362382D01*
X865392Y362462D01*
X865322Y362532D01*
X865232Y362592D01*
X865222Y362602D01*
X865172Y362622D01*
X865102Y362662D01*
X865012Y362702D01*
X864893Y362732D01*
X864753Y362771D01*
X864603Y362791D01*
X864433Y362801D01*
X864353D01*
X864274Y362791D01*
X864174Y362781D01*
X864064Y362761D01*
X863954Y362732D01*
X863844Y362692D01*
X863755Y362642D01*
X863745Y362632D01*
X863725Y362612D01*
X863695Y362582D01*
X863655Y362532D01*
X863585Y362422D01*
X863565Y362352D01*
X863555Y362272D01*
Y362262D01*
Y362242D01*
X863565Y362202D01*
X863585Y362153D01*
X863605Y362103D01*
X863635Y362043D01*
X863685Y361983D01*
X863755Y361933D01*
X863764D01*
X863784Y361913D01*
X863834Y361893D01*
X863904Y361863D01*
X864014Y361823D01*
X864084Y361793D01*
X864164Y361773D01*
X864254Y361743D01*
X864353Y361703D01*
X864463Y361673D01*
X864593Y361633D01*
X864603D01*
X864643Y361623D01*
X864693Y361604D01*
X864773Y361584D01*
X864863Y361554D01*
X864962Y361514D01*
X865192Y361434D01*
X865432Y361344D01*
X865671Y361234D01*
X865791Y361174D01*
X865891Y361124D01*
X865981Y361064D01*
X866060Y361005D01*
X866070D01*
X866080Y360985D01*
X866140Y360925D01*
X866230Y360835D01*
X866330Y360705D01*
X866420Y360555D01*
X866510Y360376D01*
X866570Y360176D01*
X866580Y360066D01*
X866590Y359957D01*
Y359947D01*
Y359917D01*
Y359877D01*
X866580Y359827D01*
X866570Y359757D01*
X866550Y359677D01*
X866510Y359487D01*
X866430Y359268D01*
X866370Y359158D01*
X866310Y359038D01*
X866230Y358918D01*
X866140Y358809D01*
X866040Y358689D01*
X865921Y358579D01*
X865911Y358569D01*
X865891Y358559D01*
X865851Y358529D01*
X865801Y358489D01*
X865731Y358449D01*
X865651Y358399D01*
X865551Y358339D01*
X865442Y358289D01*
X865312Y358240D01*
X865172Y358180D01*
X865022Y358130D01*
X864853Y358090D01*
X864673Y358050D01*
X864483Y358030D01*
X864274Y358010D01*
X864054Y358000D01*
X863934D01*
X863854Y358010D01*
X863755D01*
X863635Y358020D01*
X863505Y358040D01*
X863365Y358060D01*
X863066Y358110D01*
X862756Y358190D01*
X862457Y358299D01*
X862317Y358359D01*
X862187Y358439D01*
X862177Y358449D01*
X862157Y358459D01*
X862127Y358489D01*
X862087Y358519D01*
X861968Y358619D01*
X861838Y358759D01*
X861688Y358938D01*
X861538Y359148D01*
X861409Y359398D01*
X861309Y359687D01*
X862766Y359917D01*
X862776Y359897D01*
X862796Y359847D01*
X862846Y359757D01*
X862896Y359667D01*
X862966Y359557D01*
X863046Y359447D01*
X863136Y359348D01*
X863235Y359268D01*
X863245Y359258D01*
X863285Y359238D01*
X863355Y359208D01*
X863445Y359178D01*
X863555Y359138D01*
X863685Y359108D01*
X863844Y359088D01*
X864014Y359078D01*
X864094D01*
X864194Y359088D01*
X864304Y359108D01*
X864433Y359138D01*
X864573Y359178D01*
X864713Y359228D01*
X864833Y359308D01*
X864843Y359318D01*
X864863Y359338D01*
X864902Y359368D01*
X864942Y359408D01*
X864982Y359467D01*
X865022Y359527D01*
X865042Y359607D01*
X865052Y359687D01*
Y359697D01*
Y359717D01*
X865042Y359777D01*
X865002Y359867D01*
X864982Y359907D01*
X864942Y359957D01*
X864932Y359967D01*
X864912Y359977D01*
X864883Y360006D01*
X864823Y360036D01*
X864733Y360076D01*
X864623Y360126D01*
X864483Y360186D01*
X864314Y360246D01*
X864304Y360256D01*
X864254Y360266D01*
X864184Y360286D01*
X864094Y360316D01*
X863994Y360356D01*
X863874Y360406D01*
X863735Y360456D01*
X863595Y360505D01*
X863315Y360615D01*
X863176Y360675D01*
X863036Y360735D01*
X862916Y360795D01*
X862806Y360855D01*
X862706Y360905D01*
X862636Y360955D01*
X862626Y360965D01*
X862617Y360975D01*
X862557Y361025D01*
X862477Y361124D01*
X862387Y361244D01*
X862297Y361394D01*
X862217Y361584D01*
X862157Y361793D01*
X862147Y361913D01*
X862137Y362033D01*
Y362043D01*
Y362063D01*
Y362093D01*
X862147Y362143D01*
X862157Y362202D01*
X862167Y362262D01*
X862197Y362422D01*
X862257Y362602D01*
X862347Y362791D01*
X862397Y362891D01*
X862467Y362981D01*
X862537Y363081D01*
X862626Y363171D01*
X862636Y363181D01*
X862656Y363201D01*
X862696Y363231D01*
X862756Y363281D01*
X862826Y363330D01*
X862916Y363380D01*
X863016Y363440D01*
X863136Y363510D01*
X863265Y363570D01*
X863415Y363630D01*
X863585Y363680D01*
X863764Y363740D01*
X863964Y363780D01*
X864184Y363810D01*
X864413Y363830D01*
X864653Y363840D01*
X864753D01*
X864833Y363830D01*
D02*
G37*
G36*
X852534Y360805D02*
X853942Y358140D01*
X852345D01*
X851536Y359687D01*
X850169Y358140D01*
X848322D01*
X850878Y360985D01*
X849470Y363700D01*
X851067D01*
X851876Y362123D01*
X853283Y363700D01*
X855110D01*
X852534Y360805D01*
D02*
G37*
G36*
X841434Y358140D02*
X839967D01*
X837881Y363301D01*
X836803Y358140D01*
X835335D01*
X836932Y365816D01*
X838410D01*
X840496Y360675D01*
X841564Y365816D01*
X843042D01*
X841434Y358140D01*
D02*
G37*
G36*
X805099D02*
X803632D01*
X801545Y363301D01*
X800467Y358140D01*
X799000D01*
X800597Y365816D01*
X802075D01*
X804161Y360675D01*
X805229Y365816D01*
X806706D01*
X805099Y358140D01*
D02*
G37*
G36*
X859712D02*
X858314D01*
X858474Y358878D01*
X858464Y358868D01*
X858434Y358839D01*
X858394Y358799D01*
X858324Y358739D01*
X858244Y358679D01*
X858155Y358599D01*
X858045Y358519D01*
X857925Y358439D01*
X857795Y358359D01*
X857655Y358279D01*
X857496Y358200D01*
X857336Y358140D01*
X857166Y358080D01*
X856997Y358040D01*
X856817Y358010D01*
X856627Y358000D01*
X856567D01*
X856517Y358010D01*
X856408Y358020D01*
X856268Y358050D01*
X856098Y358100D01*
X855938Y358160D01*
X855779Y358260D01*
X855629Y358389D01*
X855609Y358409D01*
X855569Y358459D01*
X855519Y358549D01*
X855449Y358669D01*
X855379Y358819D01*
X855330Y359008D01*
X855290Y359218D01*
X855270Y359447D01*
Y359457D01*
Y359507D01*
X855280Y359587D01*
X855290Y359637D01*
Y359697D01*
X855300Y359777D01*
X855320Y359857D01*
X855330Y359947D01*
X855350Y360056D01*
X855369Y360166D01*
X855399Y360296D01*
X855429Y360446D01*
X855459Y360595D01*
X856158Y363700D01*
X857655D01*
X856917Y360396D01*
Y360386D01*
X856907Y360366D01*
Y360336D01*
X856897Y360306D01*
X856877Y360206D01*
X856847Y360086D01*
X856817Y359957D01*
X856797Y359837D01*
X856787Y359737D01*
X856777Y359687D01*
Y359657D01*
Y359647D01*
Y359617D01*
X856787Y359577D01*
X856797Y359517D01*
X856817Y359447D01*
X856847Y359388D01*
X856887Y359318D01*
X856937Y359248D01*
X856947Y359238D01*
X856967Y359218D01*
X857007Y359198D01*
X857057Y359168D01*
X857116Y359128D01*
X857186Y359108D01*
X857266Y359088D01*
X857356Y359078D01*
X857426D01*
X857466Y359088D01*
X857576Y359108D01*
X857705Y359148D01*
X857715D01*
X857735Y359168D01*
X857775Y359178D01*
X857815Y359208D01*
X857935Y359288D01*
X858065Y359388D01*
X858075Y359398D01*
X858095Y359417D01*
X858135Y359447D01*
X858175Y359497D01*
X858284Y359607D01*
X858394Y359757D01*
X858404Y359767D01*
X858424Y359797D01*
X858444Y359837D01*
X858484Y359907D01*
X858524Y359977D01*
X858574Y360076D01*
X858624Y360176D01*
X858674Y360296D01*
Y360306D01*
X858694Y360346D01*
X858704Y360406D01*
X858734Y360486D01*
X858763Y360585D01*
X858793Y360715D01*
X858833Y360865D01*
X858873Y361045D01*
X859472Y363700D01*
X860969D01*
X859712Y358140D01*
D02*
G37*
G36*
X817417D02*
X816020D01*
X816179Y358878D01*
X816169Y358868D01*
X816139Y358839D01*
X816099Y358799D01*
X816030Y358739D01*
X815950Y358679D01*
X815860Y358599D01*
X815750Y358519D01*
X815630Y358439D01*
X815501Y358359D01*
X815361Y358279D01*
X815201Y358200D01*
X815041Y358140D01*
X814872Y358080D01*
X814702Y358040D01*
X814522Y358010D01*
X814333Y358000D01*
X814273D01*
X814223Y358010D01*
X814113Y358020D01*
X813973Y358050D01*
X813804Y358100D01*
X813644Y358160D01*
X813484Y358260D01*
X813334Y358389D01*
X813315Y358409D01*
X813275Y358459D01*
X813225Y358549D01*
X813155Y358669D01*
X813085Y358819D01*
X813035Y359008D01*
X812995Y359218D01*
X812975Y359447D01*
Y359457D01*
Y359507D01*
X812985Y359587D01*
X812995Y359637D01*
Y359697D01*
X813005Y359777D01*
X813025Y359857D01*
X813035Y359947D01*
X813055Y360056D01*
X813075Y360166D01*
X813105Y360296D01*
X813135Y360446D01*
X813165Y360595D01*
X813864Y363700D01*
X815361D01*
X814622Y360396D01*
Y360386D01*
X814612Y360366D01*
Y360336D01*
X814602Y360306D01*
X814582Y360206D01*
X814552Y360086D01*
X814522Y359957D01*
X814502Y359837D01*
X814492Y359737D01*
X814482Y359687D01*
Y359657D01*
Y359647D01*
Y359617D01*
X814492Y359577D01*
X814502Y359517D01*
X814522Y359447D01*
X814552Y359388D01*
X814592Y359318D01*
X814642Y359248D01*
X814652Y359238D01*
X814672Y359218D01*
X814712Y359198D01*
X814762Y359168D01*
X814822Y359128D01*
X814892Y359108D01*
X814971Y359088D01*
X815061Y359078D01*
X815131D01*
X815171Y359088D01*
X815281Y359108D01*
X815411Y359148D01*
X815421D01*
X815441Y359168D01*
X815481Y359178D01*
X815520Y359208D01*
X815640Y359288D01*
X815770Y359388D01*
X815780Y359398D01*
X815800Y359417D01*
X815840Y359447D01*
X815880Y359497D01*
X815990Y359607D01*
X816099Y359757D01*
X816109Y359767D01*
X816130Y359797D01*
X816149Y359837D01*
X816189Y359907D01*
X816229Y359977D01*
X816279Y360076D01*
X816329Y360176D01*
X816379Y360296D01*
Y360306D01*
X816399Y360346D01*
X816409Y360406D01*
X816439Y360486D01*
X816469Y360585D01*
X816499Y360715D01*
X816539Y360865D01*
X816579Y361045D01*
X817178Y363700D01*
X818675D01*
X817417Y358140D01*
D02*
G37*
G36*
X830823D02*
X829326D01*
X830923Y365816D01*
X832430D01*
X830823Y358140D01*
D02*
G37*
G36*
X826740Y363830D02*
X826830D01*
X826930Y363820D01*
X827040Y363800D01*
X827160Y363790D01*
X827419Y363730D01*
X827689Y363650D01*
X827938Y363550D01*
X828048Y363480D01*
X828148Y363400D01*
X828158D01*
X828168Y363380D01*
X828228Y363321D01*
X828308Y363231D01*
X828408Y363111D01*
X828507Y362951D01*
X828587Y362771D01*
X828647Y362572D01*
X828657Y362462D01*
X828667Y362342D01*
Y362332D01*
Y362302D01*
Y362252D01*
X828657Y362183D01*
Y362103D01*
X828647Y362013D01*
X828617Y361803D01*
Y361793D01*
X828607Y361773D01*
Y361743D01*
X828597Y361703D01*
X828587Y361654D01*
X828577Y361594D01*
X828567Y361514D01*
X828547Y361424D01*
X828527Y361324D01*
X828497Y361204D01*
X828467Y361064D01*
X828438Y360905D01*
X828398Y360735D01*
X828358Y360536D01*
X828308Y360326D01*
Y360316D01*
X828298Y360286D01*
X828288Y360236D01*
X828278Y360166D01*
X828258Y360086D01*
X828238Y359986D01*
X828198Y359777D01*
X828158Y359547D01*
X828118Y359318D01*
X828098Y359108D01*
X828088Y359008D01*
Y358928D01*
Y358908D01*
Y358868D01*
X828098Y358789D01*
X828108Y358699D01*
X828118Y358579D01*
X828138Y358449D01*
X828168Y358299D01*
X828208Y358140D01*
X826750D01*
Y358150D01*
X826740Y358190D01*
X826721Y358250D01*
X826701Y358329D01*
X826681Y358419D01*
X826671Y358529D01*
X826641Y358759D01*
X826621Y358739D01*
X826581Y358699D01*
X826511Y358639D01*
X826421Y358559D01*
X826301Y358469D01*
X826172Y358369D01*
X826032Y358279D01*
X825872Y358200D01*
X825852Y358190D01*
X825802Y358170D01*
X825712Y358140D01*
X825603Y358100D01*
X825473Y358060D01*
X825333Y358030D01*
X825173Y358010D01*
X825014Y358000D01*
X824944D01*
X824904Y358010D01*
X824844D01*
X824774Y358020D01*
X824614Y358060D01*
X824435Y358110D01*
X824245Y358190D01*
X824055Y358299D01*
X823966Y358369D01*
X823876Y358449D01*
Y358459D01*
X823856Y358469D01*
X823836Y358499D01*
X823806Y358529D01*
X823736Y358629D01*
X823656Y358769D01*
X823566Y358938D01*
X823496Y359138D01*
X823446Y359368D01*
X823436Y359487D01*
X823426Y359617D01*
Y359627D01*
Y359657D01*
Y359697D01*
X823436Y359747D01*
X823446Y359817D01*
X823456Y359897D01*
X823486Y360076D01*
X823546Y360276D01*
X823636Y360495D01*
X823686Y360595D01*
X823756Y360705D01*
X823826Y360805D01*
X823916Y360895D01*
X823926Y360905D01*
X823935Y360915D01*
X823966Y360945D01*
X824015Y360975D01*
X824075Y361005D01*
X824145Y361054D01*
X824225Y361095D01*
X824325Y361144D01*
X824435Y361194D01*
X824564Y361244D01*
X824714Y361294D01*
X824874Y361344D01*
X825053Y361384D01*
X825243Y361424D01*
X825453Y361454D01*
X825682Y361474D01*
X825732D01*
X825782Y361484D01*
X825852Y361494D01*
X825942Y361504D01*
X826042Y361514D01*
X826271Y361534D01*
X826511Y361564D01*
X826740Y361604D01*
X826850Y361623D01*
X826960Y361643D01*
X827040Y361673D01*
X827120Y361693D01*
Y361703D01*
X827140Y361743D01*
X827150Y361803D01*
X827170Y361873D01*
X827200Y362033D01*
X827220Y362113D01*
Y362192D01*
Y362202D01*
Y362232D01*
X827210Y362272D01*
X827200Y362332D01*
X827170Y362392D01*
X827140Y362462D01*
X827090Y362532D01*
X827020Y362592D01*
X827010Y362602D01*
X826980Y362622D01*
X826940Y362642D01*
X826880Y362682D01*
X826800Y362712D01*
X826701Y362732D01*
X826581Y362752D01*
X826441Y362761D01*
X826371D01*
X826301Y362752D01*
X826211Y362742D01*
X826112Y362722D01*
X826002Y362692D01*
X825902Y362652D01*
X825802Y362592D01*
X825792Y362582D01*
X825762Y362562D01*
X825722Y362522D01*
X825682Y362472D01*
X825622Y362412D01*
X825573Y362332D01*
X825533Y362242D01*
X825493Y362143D01*
X824025Y362262D01*
Y362272D01*
X824035Y362292D01*
X824055Y362332D01*
X824075Y362382D01*
X824105Y362442D01*
X824135Y362522D01*
X824225Y362682D01*
X824345Y362871D01*
X824494Y363061D01*
X824674Y363251D01*
X824894Y363420D01*
X824904Y363430D01*
X824924Y363440D01*
X824964Y363460D01*
X825014Y363490D01*
X825073Y363520D01*
X825143Y363550D01*
X825233Y363590D01*
X825343Y363630D01*
X825453Y363670D01*
X825573Y363710D01*
X825712Y363740D01*
X825862Y363770D01*
X826022Y363800D01*
X826191Y363820D01*
X826371Y363840D01*
X826661D01*
X826740Y363830D01*
D02*
G37*
G36*
X846485D02*
X846575Y363820D01*
X846665Y363810D01*
X846785Y363790D01*
X846905Y363760D01*
X847154Y363680D01*
X847294Y363630D01*
X847424Y363570D01*
X847563Y363500D01*
X847693Y363410D01*
X847813Y363311D01*
X847933Y363201D01*
X847943Y363191D01*
X847963Y363171D01*
X847993Y363131D01*
X848033Y363081D01*
X848073Y363021D01*
X848122Y362941D01*
X848182Y362851D01*
X848242Y362742D01*
X848292Y362622D01*
X848352Y362492D01*
X848402Y362352D01*
X848452Y362192D01*
X848482Y362023D01*
X848512Y361833D01*
X848532Y361643D01*
X848542Y361434D01*
Y361424D01*
Y361414D01*
Y361384D01*
Y361344D01*
X848532Y361234D01*
Y361105D01*
X848512Y360955D01*
X848492Y360785D01*
X848472Y360625D01*
X848432Y360456D01*
X844669D01*
Y360446D01*
Y360406D01*
X844659Y360356D01*
Y360316D01*
Y360306D01*
Y360296D01*
Y360266D01*
X844669Y360226D01*
X844678Y360126D01*
X844698Y359996D01*
X844738Y359847D01*
X844798Y359697D01*
X844868Y359557D01*
X844978Y359417D01*
X844988Y359408D01*
X845038Y359368D01*
X845108Y359308D01*
X845198Y359248D01*
X845307Y359188D01*
X845437Y359128D01*
X845587Y359088D01*
X845747Y359078D01*
X845777D01*
X845816Y359088D01*
X845866D01*
X845936Y359098D01*
X846006Y359118D01*
X846176Y359178D01*
X846266Y359218D01*
X846366Y359268D01*
X846465Y359328D01*
X846555Y359408D01*
X846655Y359497D01*
X846755Y359597D01*
X846845Y359717D01*
X846925Y359857D01*
X848272Y359627D01*
Y359617D01*
X848252Y359587D01*
X848232Y359547D01*
X848202Y359497D01*
X848162Y359427D01*
X848112Y359348D01*
X847993Y359168D01*
X847843Y358968D01*
X847653Y358769D01*
X847454Y358569D01*
X847214Y358399D01*
X847204D01*
X847184Y358379D01*
X847144Y358359D01*
X847094Y358339D01*
X847034Y358309D01*
X846964Y358270D01*
X846875Y358240D01*
X846785Y358200D01*
X846565Y358130D01*
X846316Y358060D01*
X846046Y358020D01*
X845747Y358000D01*
X845637D01*
X845557Y358010D01*
X845467Y358020D01*
X845357Y358040D01*
X845228Y358060D01*
X845098Y358090D01*
X844958Y358130D01*
X844808Y358170D01*
X844649Y358230D01*
X844499Y358299D01*
X844349Y358379D01*
X844199Y358479D01*
X844060Y358589D01*
X843920Y358709D01*
X843910Y358719D01*
X843890Y358739D01*
X843860Y358779D01*
X843810Y358839D01*
X843760Y358908D01*
X843700Y358998D01*
X843640Y359098D01*
X843570Y359208D01*
X843511Y359338D01*
X843441Y359477D01*
X843381Y359637D01*
X843331Y359797D01*
X843281Y359977D01*
X843251Y360166D01*
X843231Y360376D01*
X843221Y360585D01*
Y360595D01*
Y360635D01*
Y360695D01*
X843231Y360775D01*
X843241Y360875D01*
X843251Y360995D01*
X843271Y361124D01*
X843301Y361274D01*
X843331Y361424D01*
X843371Y361594D01*
X843431Y361763D01*
X843491Y361933D01*
X843560Y362113D01*
X843640Y362282D01*
X843740Y362462D01*
X843850Y362632D01*
X843860Y362642D01*
X843890Y362682D01*
X843940Y362742D01*
X844010Y362821D01*
X844100Y362911D01*
X844209Y363011D01*
X844329Y363121D01*
X844479Y363241D01*
X844649Y363350D01*
X844828Y363460D01*
X845028Y363560D01*
X845257Y363650D01*
X845487Y363730D01*
X845747Y363790D01*
X846026Y363830D01*
X846316Y363840D01*
X846415D01*
X846485Y363830D01*
D02*
G37*
G36*
X810150D02*
X810240Y363820D01*
X810330Y363810D01*
X810450Y363790D01*
X810569Y363760D01*
X810819Y363680D01*
X810959Y363630D01*
X811088Y363570D01*
X811228Y363500D01*
X811358Y363410D01*
X811478Y363311D01*
X811598Y363201D01*
X811608Y363191D01*
X811628Y363171D01*
X811657Y363131D01*
X811697Y363081D01*
X811737Y363021D01*
X811787Y362941D01*
X811847Y362851D01*
X811907Y362742D01*
X811957Y362622D01*
X812017Y362492D01*
X812067Y362352D01*
X812117Y362192D01*
X812147Y362023D01*
X812177Y361833D01*
X812197Y361643D01*
X812206Y361434D01*
Y361424D01*
Y361414D01*
Y361384D01*
Y361344D01*
X812197Y361234D01*
Y361105D01*
X812177Y360955D01*
X812157Y360785D01*
X812137Y360625D01*
X812097Y360456D01*
X808333D01*
Y360446D01*
Y360406D01*
X808323Y360356D01*
Y360316D01*
Y360306D01*
Y360296D01*
Y360266D01*
X808333Y360226D01*
X808343Y360126D01*
X808363Y359996D01*
X808403Y359847D01*
X808463Y359697D01*
X808533Y359557D01*
X808643Y359417D01*
X808653Y359408D01*
X808703Y359368D01*
X808773Y359308D01*
X808862Y359248D01*
X808972Y359188D01*
X809102Y359128D01*
X809252Y359088D01*
X809411Y359078D01*
X809441D01*
X809481Y359088D01*
X809531D01*
X809601Y359098D01*
X809671Y359118D01*
X809841Y359178D01*
X809930Y359218D01*
X810030Y359268D01*
X810130Y359328D01*
X810220Y359408D01*
X810320Y359497D01*
X810420Y359597D01*
X810509Y359717D01*
X810589Y359857D01*
X811937Y359627D01*
Y359617D01*
X811917Y359587D01*
X811897Y359547D01*
X811867Y359497D01*
X811827Y359427D01*
X811777Y359348D01*
X811657Y359168D01*
X811508Y358968D01*
X811318Y358769D01*
X811118Y358569D01*
X810879Y358399D01*
X810869D01*
X810849Y358379D01*
X810809Y358359D01*
X810759Y358339D01*
X810699Y358309D01*
X810629Y358270D01*
X810539Y358240D01*
X810450Y358200D01*
X810230Y358130D01*
X809980Y358060D01*
X809711Y358020D01*
X809411Y358000D01*
X809302D01*
X809222Y358010D01*
X809132Y358020D01*
X809022Y358040D01*
X808892Y358060D01*
X808763Y358090D01*
X808623Y358130D01*
X808473Y358170D01*
X808313Y358230D01*
X808164Y358299D01*
X808014Y358379D01*
X807864Y358479D01*
X807724Y358589D01*
X807585Y358709D01*
X807575Y358719D01*
X807555Y358739D01*
X807525Y358779D01*
X807475Y358839D01*
X807425Y358908D01*
X807365Y358998D01*
X807305Y359098D01*
X807235Y359208D01*
X807175Y359338D01*
X807105Y359477D01*
X807046Y359637D01*
X806996Y359797D01*
X806946Y359977D01*
X806916Y360166D01*
X806896Y360376D01*
X806886Y360585D01*
Y360595D01*
Y360635D01*
Y360695D01*
X806896Y360775D01*
X806906Y360875D01*
X806916Y360995D01*
X806936Y361124D01*
X806966Y361274D01*
X806996Y361424D01*
X807036Y361594D01*
X807096Y361763D01*
X807156Y361933D01*
X807225Y362113D01*
X807305Y362282D01*
X807405Y362462D01*
X807515Y362632D01*
X807525Y362642D01*
X807555Y362682D01*
X807605Y362742D01*
X807674Y362821D01*
X807764Y362911D01*
X807874Y363011D01*
X807994Y363121D01*
X808144Y363241D01*
X808313Y363350D01*
X808493Y363460D01*
X808693Y363560D01*
X808922Y363650D01*
X809152Y363730D01*
X809411Y363790D01*
X809691Y363830D01*
X809980Y363840D01*
X810080D01*
X810150Y363830D01*
D02*
G37*
%LPC*%
G36*
X803690Y371540D02*
X803522D01*
Y371372D01*
X802850D01*
Y371540D01*
X802681D01*
Y371372D01*
X802513D01*
Y371204D01*
X803858D01*
Y371372D01*
X803690D01*
Y371540D01*
D02*
G37*
G36*
X824708Y371372D02*
X823531D01*
Y371204D01*
X824708D01*
Y371372D01*
D02*
G37*
G36*
X831938Y371540D02*
X831770D01*
Y371372D01*
X831602D01*
Y371204D01*
X831770D01*
Y371035D01*
X831938D01*
Y371204D01*
X832106D01*
Y371372D01*
X831938D01*
Y371540D01*
D02*
G37*
G36*
X805540D02*
X805372D01*
Y371372D01*
X805203D01*
Y371204D01*
X805372D01*
Y371035D01*
X805540D01*
Y371204D01*
X805876D01*
Y371372D01*
X805540D01*
Y371540D01*
D02*
G37*
G36*
X812434Y371204D02*
X812265D01*
Y371035D01*
Y370531D01*
X812434D01*
Y371204D01*
D02*
G37*
G36*
X769557Y371540D02*
X769389D01*
Y371372D01*
X769221D01*
Y371204D01*
X769389D01*
Y371035D01*
X769557D01*
Y371204D01*
X769894D01*
Y371372D01*
X769557D01*
Y371540D01*
D02*
G37*
G36*
X763336D02*
X763168D01*
Y371372D01*
X763000D01*
Y371204D01*
X763168D01*
Y371035D01*
X763336D01*
Y371204D01*
X764345D01*
Y371035D01*
X764681D01*
Y371372D01*
X763336D01*
Y371540D01*
D02*
G37*
G36*
X765858Y371204D02*
X765690D01*
Y370867D01*
X765858D01*
Y371204D01*
D02*
G37*
G36*
X787381Y371540D02*
X787044D01*
Y371372D01*
X786876D01*
Y371204D01*
X787044D01*
Y371035D01*
X787212D01*
Y371204D01*
X787381D01*
Y371540D01*
D02*
G37*
G36*
X826920Y360745D02*
X826910D01*
X826900Y360735D01*
X826860D01*
X826820Y360725D01*
X826770Y360715D01*
X826711Y360695D01*
X826561Y360675D01*
X826551D01*
X826511Y360665D01*
X826451D01*
X826381Y360645D01*
X826291Y360635D01*
X826181Y360615D01*
X825952Y360575D01*
X825702Y360516D01*
X825463Y360446D01*
X825353Y360406D01*
X825243Y360366D01*
X825153Y360316D01*
X825083Y360266D01*
X825073Y360256D01*
X825044Y360236D01*
X825004Y360186D01*
X824964Y360136D01*
X824924Y360056D01*
X824884Y359977D01*
X824854Y359867D01*
X824844Y359757D01*
Y359747D01*
Y359717D01*
X824854Y359667D01*
X824864Y359597D01*
X824884Y359527D01*
X824924Y359457D01*
X824964Y359378D01*
X825024Y359308D01*
X825034Y359298D01*
X825053Y359278D01*
X825104Y359248D01*
X825153Y359218D01*
X825233Y359188D01*
X825313Y359158D01*
X825413Y359138D01*
X825523Y359128D01*
X825583D01*
X825642Y359138D01*
X825732Y359148D01*
X825832Y359168D01*
X825932Y359198D01*
X826052Y359238D01*
X826162Y359288D01*
X826172Y359298D01*
X826211Y359318D01*
X826261Y359358D01*
X826331Y359408D01*
X826401Y359467D01*
X826481Y359537D01*
X826551Y359627D01*
X826611Y359717D01*
X826621Y359727D01*
X826641Y359767D01*
X826661Y359827D01*
X826701Y359917D01*
X826740Y360036D01*
X826790Y360176D01*
X826830Y360346D01*
X826880Y360536D01*
X826920Y360745D01*
D02*
G37*
G36*
X846156Y362761D02*
X846136D01*
X846076Y362752D01*
X845986Y362742D01*
X845876Y362722D01*
X845747Y362672D01*
X845607Y362612D01*
X845457Y362522D01*
X845317Y362402D01*
X845297Y362382D01*
X845257Y362342D01*
X845198Y362252D01*
X845118Y362143D01*
X845038Y362003D01*
X844948Y361823D01*
X844878Y361614D01*
X844818Y361374D01*
X847174D01*
Y361394D01*
Y361424D01*
Y361474D01*
Y361524D01*
Y361534D01*
Y361554D01*
Y361584D01*
Y361623D01*
X847164Y361733D01*
X847144Y361873D01*
X847104Y362023D01*
X847054Y362173D01*
X846984Y362322D01*
X846895Y362452D01*
X846885Y362462D01*
X846845Y362502D01*
X846785Y362552D01*
X846695Y362612D01*
X846595Y362662D01*
X846465Y362712D01*
X846316Y362752D01*
X846156Y362761D01*
D02*
G37*
G36*
X809821D02*
X809801D01*
X809741Y362752D01*
X809651Y362742D01*
X809541Y362722D01*
X809411Y362672D01*
X809272Y362612D01*
X809122Y362522D01*
X808982Y362402D01*
X808962Y362382D01*
X808922Y362342D01*
X808862Y362252D01*
X808783Y362143D01*
X808703Y362003D01*
X808613Y361823D01*
X808543Y361614D01*
X808483Y361374D01*
X810839D01*
Y361394D01*
Y361424D01*
Y361474D01*
Y361524D01*
Y361534D01*
Y361554D01*
Y361584D01*
Y361623D01*
X810829Y361733D01*
X810809Y361873D01*
X810769Y362023D01*
X810719Y362173D01*
X810649Y362322D01*
X810559Y362452D01*
X810549Y362462D01*
X810509Y362502D01*
X810450Y362552D01*
X810360Y362612D01*
X810260Y362662D01*
X810130Y362712D01*
X809980Y362752D01*
X809821Y362761D01*
D02*
G37*
%LPD*%
D10*
X600000Y75400D02*
G03*
X600000Y75400I-1000J0D01*
G01*
X816400Y227900D02*
G03*
X816400Y227900I-1000J0D01*
G01*
X915400Y720700D02*
G03*
X915400Y720700I-1000J0D01*
G01*
X834200Y88750D02*
G03*
X834200Y88750I-1000J0D01*
G01*
X733410Y719102D02*
G03*
X733410Y719102I-1000J0D01*
G01*
X175300Y648450D02*
G03*
X175300Y648450I-1000J0D01*
G01*
X449850Y695000D02*
G03*
X449850Y695000I-1000J0D01*
G01*
X805900Y753800D02*
G03*
X805900Y753800I-1000J0D01*
G01*
X866000Y188300D02*
G03*
X866000Y188300I-1000J0D01*
G01*
X355600Y575900D02*
G03*
X355600Y575900I-1000J0D01*
G01*
X190500Y295300D02*
G03*
X190500Y295300I-1000J0D01*
G01*
X757764Y174414D02*
G03*
X757764Y174414I-1000J0D01*
G01*
X774800Y812300D02*
G03*
X774800Y812300I-1000J0D01*
G01*
X428000Y302400D02*
G03*
X428000Y302400I-50000J0D01*
G01*
X537300Y348400D02*
G03*
X537300Y348400I-50000J0D01*
G01*
X295200Y302400D02*
G03*
X295200Y302400I-50000J0D01*
G01*
X947900Y797900D02*
X960400D01*
X947900Y708500D02*
X960400D01*
X987600Y797900D02*
X1000400D01*
X987600Y708500D02*
X1000400D01*
X821000Y2750D02*
Y15550D01*
X910400Y2750D02*
Y15550D01*
X821000Y42750D02*
Y55250D01*
X910400Y42750D02*
Y55250D01*
X854500Y631000D02*
Y659000D01*
X872500Y675250D02*
X940500D01*
X970500D02*
X999500D01*
Y527750D02*
Y675250D01*
X970500Y527750D02*
X999500D01*
X870500D02*
X940500D01*
X746850Y821600D02*
X751850D01*
X749350Y819100D02*
Y824100D01*
X728850Y829100D02*
X733350D01*
X728850Y814100D02*
X733350D01*
X851400Y475750D02*
Y480750D01*
X848900Y478250D02*
X853900D01*
X843900Y457750D02*
Y462250D01*
X858900Y457750D02*
Y462250D01*
X772600Y62050D02*
Y67050D01*
X770100Y64550D02*
X775100D01*
X765100Y44050D02*
Y48550D01*
X780100Y44050D02*
Y48550D01*
X745100Y57550D02*
Y62550D01*
X742600Y60050D02*
X747600D01*
X737600Y39550D02*
Y44050D01*
X752600Y39550D02*
Y44050D01*
X390400Y693100D02*
Y767100D01*
X447900D01*
Y693100D02*
Y767100D01*
X390400Y693100D02*
X447900D01*
X680200Y591200D02*
Y596950D01*
Y727450D02*
Y733200D01*
X538200D02*
X543950D01*
X674450D02*
X680200D01*
X538200Y591200D02*
Y596950D01*
Y727450D02*
Y733200D01*
Y591200D02*
X543950D01*
X674450D02*
X680200D01*
X345500Y730850D02*
X352500D01*
X345500D02*
Y760050D01*
X352500D01*
Y730850D02*
Y760050D01*
X356000Y730400D02*
X366000D01*
X474000Y727650D02*
X481000D01*
X474000D02*
Y756850D01*
X481000D01*
Y727650D02*
Y756850D01*
X484500Y727200D02*
X494500D01*
X769300Y807600D02*
Y835000D01*
Y807600D02*
X898300D01*
Y835000D01*
X769300D02*
X898300D01*
X635600Y496100D02*
Y502100D01*
X677600Y496100D02*
Y502100D01*
X644600Y515100D02*
X668600D01*
X644600Y483100D02*
X668600D01*
X636000Y424300D02*
Y430300D01*
X678000Y424300D02*
Y430300D01*
X645000Y443300D02*
X669000D01*
X645000Y411300D02*
X669000D01*
X913100Y488700D02*
X919100D01*
X913100Y446700D02*
X919100D01*
X932100Y455700D02*
Y479700D01*
X900100Y455700D02*
Y479700D01*
X968800Y488400D02*
X974800D01*
X968800Y446400D02*
X974800D01*
X987800Y455400D02*
Y479400D01*
X955800Y455400D02*
Y479400D01*
X912550Y398850D02*
X918550D01*
X912550Y356850D02*
X918550D01*
X931550Y365850D02*
Y389850D01*
X899550Y365850D02*
Y389850D01*
X968950Y399350D02*
X974950D01*
X968950Y357350D02*
X974950D01*
X987950Y366350D02*
Y390350D01*
X955950Y366350D02*
Y390350D01*
D11*
X837500Y624000D02*
G03*
X836500Y624000I-500J0D01*
G01*
D02*
G03*
X837500Y624000I500J0D01*
G01*
X687600Y488350D02*
G03*
X686600Y488350I-500J0D01*
G01*
D02*
G03*
X687600Y488350I500J0D01*
G01*
X688000Y416550D02*
G03*
X687000Y416550I-500J0D01*
G01*
D02*
G03*
X688000Y416550I500J0D01*
G01*
X905350Y436700D02*
G03*
X905350Y437700I0J500D01*
G01*
D02*
G03*
X905350Y436700I0J-500D01*
G01*
X961050Y436400D02*
G03*
X961050Y437400I0J500D01*
G01*
D02*
G03*
X961050Y436400I0J-500D01*
G01*
X904800Y346850D02*
G03*
X904800Y347850I0J500D01*
G01*
D02*
G03*
X904800Y346850I0J-500D01*
G01*
X961200Y347350D02*
G03*
X961200Y348350I0J500D01*
G01*
D02*
G03*
X961200Y347350I0J-500D01*
G01*
X582734Y815999D02*
Y812667D01*
X583401Y812001D01*
X584734D01*
X585400Y812667D01*
Y815999D01*
X586733Y812001D02*
X588066D01*
X587399D01*
Y815999D01*
X586733Y815333D01*
X658068Y835399D02*
Y832067D01*
X658734Y831401D01*
X660067D01*
X660734Y832067D01*
Y835399D01*
X664732D02*
X662066D01*
Y833400D01*
X663399Y834066D01*
X664066D01*
X664732Y833400D01*
Y832067D01*
X664066Y831401D01*
X662733D01*
X662066Y832067D01*
X615099Y541268D02*
X611101D01*
Y543268D01*
X611767Y543934D01*
X613100D01*
X613766Y543268D01*
Y541268D01*
Y542601D02*
X615099Y543934D01*
X611101Y547933D02*
Y545267D01*
X613100D01*
X612434Y546600D01*
Y547267D01*
X613100Y547933D01*
X614433D01*
X615099Y547267D01*
Y545934D01*
X614433Y545267D01*
X611101Y551932D02*
X611767Y550599D01*
X613100Y549266D01*
X614433D01*
X615099Y549932D01*
Y551265D01*
X614433Y551932D01*
X613766D01*
X613100Y551265D01*
Y549266D01*
X552144Y434416D02*
X549316Y437244D01*
X550730Y438657D01*
X551673D01*
X552615Y437715D01*
X552615Y436772D01*
X551201Y435359D01*
X552144Y436301D02*
X554029Y436301D01*
Y441956D02*
X552144Y440071D01*
X553558Y438657D01*
X554029Y440071D01*
X554500Y440543D01*
X555443D01*
X556385Y439600D01*
Y438657D01*
X555443Y437715D01*
X554500D01*
X556856Y444784D02*
X554971Y442899D01*
X556385Y441485D01*
X556856Y442899D01*
X557327Y443370D01*
X558270D01*
X559212Y442427D01*
Y441485D01*
X558270Y440542D01*
X557327D01*
X624799Y541868D02*
X620801D01*
Y543868D01*
X621467Y544534D01*
X622800D01*
X623466Y543868D01*
Y541868D01*
Y543201D02*
X624799Y544534D01*
X620801Y548533D02*
Y545867D01*
X622800D01*
X622133Y547200D01*
Y547867D01*
X622800Y548533D01*
X624133D01*
X624799Y547867D01*
Y546534D01*
X624133Y545867D01*
X624799Y551865D02*
X620801D01*
X622800Y549866D01*
Y552532D01*
X746468Y744199D02*
X749134Y740201D01*
Y744199D02*
X746468Y740201D01*
X753132D02*
X750467D01*
X753132Y742866D01*
Y743533D01*
X752466Y744199D01*
X751133D01*
X750467Y743533D01*
X716534Y604199D02*
X719200Y600201D01*
Y604199D02*
X716534Y600201D01*
X720533D02*
X721866D01*
X721199D01*
Y604199D01*
X720533Y603533D01*
X843368Y228699D02*
Y225367D01*
X844035Y224701D01*
X845367D01*
X846034Y225367D01*
Y228699D01*
X847367Y224701D02*
X848700D01*
X848033D01*
Y228699D01*
X847367Y228033D01*
X850699Y224701D02*
X852032D01*
X851366D01*
Y228699D01*
X850699Y228033D01*
X526902Y516999D02*
Y513667D01*
X527568Y513001D01*
X528901D01*
X529567Y513667D01*
Y516999D01*
X530900Y513001D02*
X532233D01*
X531567D01*
Y516999D01*
X530900Y516333D01*
X534233D02*
X534899Y516999D01*
X536232D01*
X536898Y516333D01*
Y513667D01*
X536232Y513001D01*
X534899D01*
X534233Y513667D01*
Y516333D01*
X629868Y115899D02*
Y112567D01*
X630534Y111901D01*
X631867D01*
X632534Y112567D01*
Y115899D01*
X633866Y112567D02*
X634533Y111901D01*
X635866D01*
X636532Y112567D01*
Y115233D01*
X635866Y115899D01*
X634533D01*
X633866Y115233D01*
Y114566D01*
X634533Y113900D01*
X636532D01*
X798668Y429999D02*
Y426667D01*
X799334Y426001D01*
X800667D01*
X801333Y426667D01*
Y429999D01*
X802666D02*
X805332D01*
Y429333D01*
X802666Y426667D01*
Y426001D01*
X537501Y375352D02*
X540833D01*
X541499Y376018D01*
Y377351D01*
X540833Y378018D01*
X537501D01*
Y382016D02*
X538167Y380683D01*
X539500Y379350D01*
X540833D01*
X541499Y380017D01*
Y381350D01*
X540833Y382016D01*
X540167D01*
X539500Y381350D01*
Y379350D01*
X10498Y351385D02*
Y348053D01*
X11164Y347387D01*
X12497D01*
X13163Y348053D01*
Y351385D01*
X16496Y347387D02*
Y351385D01*
X14496Y349386D01*
X17162D01*
X440699Y535632D02*
X437367D01*
X436701Y534966D01*
Y533633D01*
X437367Y532966D01*
X440699D01*
X440033Y531634D02*
X440699Y530967D01*
Y529634D01*
X440033Y528968D01*
X439366D01*
X438700Y529634D01*
Y530301D01*
Y529634D01*
X438033Y528968D01*
X437367D01*
X436701Y529634D01*
Y530967D01*
X437367Y531634D01*
X686468Y573899D02*
Y570567D01*
X687134Y569901D01*
X688467D01*
X689134Y570567D01*
Y573899D01*
X693132Y569901D02*
X690466D01*
X693132Y572566D01*
Y573233D01*
X692466Y573899D01*
X691133D01*
X690466Y573233D01*
X429034Y11633D02*
X428368Y12299D01*
X427035D01*
X426368Y11633D01*
Y10967D01*
X427035Y10300D01*
X428368D01*
X429034Y9634D01*
Y8967D01*
X428368Y8301D01*
X427035D01*
X426368Y8967D01*
X430367Y12299D02*
Y8301D01*
X431700Y9634D01*
X433033Y8301D01*
Y12299D01*
X434366Y11633D02*
X435032Y12299D01*
X436365D01*
X437032Y11633D01*
Y10967D01*
X436365Y10300D01*
X437032Y9634D01*
Y8967D01*
X436365Y8301D01*
X435032D01*
X434366Y8967D01*
Y9634D01*
X435032Y10300D01*
X434366Y10967D01*
Y11633D01*
X435032Y10300D02*
X436365D01*
X508934Y277233D02*
X508268Y277899D01*
X506935D01*
X506268Y277233D01*
Y276567D01*
X506935Y275900D01*
X508268D01*
X508934Y275234D01*
Y274567D01*
X508268Y273901D01*
X506935D01*
X506268Y274567D01*
X510267Y277899D02*
Y273901D01*
X511600Y275234D01*
X512933Y273901D01*
Y277899D01*
X514266D02*
X516932D01*
Y277233D01*
X514266Y274567D01*
Y273901D01*
X946667Y331534D02*
X946001Y330868D01*
Y329535D01*
X946667Y328868D01*
X947334D01*
X948000Y329535D01*
Y330868D01*
X948667Y331534D01*
X949333D01*
X949999Y330868D01*
Y329535D01*
X949333Y328868D01*
X946001Y332867D02*
X949999D01*
X948667Y334200D01*
X949999Y335533D01*
X946001D01*
Y339532D02*
X946667Y338199D01*
X948000Y336866D01*
X949333D01*
X949999Y337532D01*
Y338865D01*
X949333Y339532D01*
X948667D01*
X948000Y338865D01*
Y336866D01*
X879534Y345233D02*
X878868Y345899D01*
X877535D01*
X876868Y345233D01*
Y344566D01*
X877535Y343900D01*
X878868D01*
X879534Y343234D01*
Y342567D01*
X878868Y341901D01*
X877535D01*
X876868Y342567D01*
X880867Y345899D02*
Y341901D01*
X882200Y343234D01*
X883533Y341901D01*
Y345899D01*
X887532D02*
X884866D01*
Y343900D01*
X886199Y344566D01*
X886865D01*
X887532Y343900D01*
Y342567D01*
X886865Y341901D01*
X885532D01*
X884866Y342567D01*
X947034Y436433D02*
X946368Y437099D01*
X945035D01*
X944368Y436433D01*
Y435766D01*
X945035Y435100D01*
X946368D01*
X947034Y434434D01*
Y433767D01*
X946368Y433101D01*
X945035D01*
X944368Y433767D01*
X948367Y437099D02*
Y433101D01*
X949700Y434434D01*
X951033Y433101D01*
Y437099D01*
X954365Y433101D02*
Y437099D01*
X952366Y435100D01*
X955032D01*
X893034Y429033D02*
X892368Y429699D01*
X891035D01*
X890368Y429033D01*
Y428367D01*
X891035Y427700D01*
X892368D01*
X893034Y427034D01*
Y426367D01*
X892368Y425701D01*
X891035D01*
X890368Y426367D01*
X894367Y429699D02*
Y425701D01*
X895700Y427034D01*
X897033Y425701D01*
Y429699D01*
X898366Y429033D02*
X899032Y429699D01*
X900365D01*
X901032Y429033D01*
Y428367D01*
X900365Y427700D01*
X899699D01*
X900365D01*
X901032Y427034D01*
Y426367D01*
X900365Y425701D01*
X899032D01*
X898366Y426367D01*
X680934Y461033D02*
X680268Y461699D01*
X678935D01*
X678268Y461033D01*
Y460366D01*
X678935Y459700D01*
X680268D01*
X680934Y459034D01*
Y458367D01*
X680268Y457701D01*
X678935D01*
X678268Y458367D01*
X682267Y461699D02*
Y457701D01*
X683600Y459034D01*
X684933Y457701D01*
Y461699D01*
X688932Y457701D02*
X686266D01*
X688932Y460366D01*
Y461033D01*
X688265Y461699D01*
X686932D01*
X686266Y461033D01*
X624601Y531933D02*
X623934Y532599D01*
X622601D01*
X621935Y531933D01*
Y531267D01*
X622601Y530600D01*
X623934D01*
X624601Y529934D01*
Y529267D01*
X623934Y528601D01*
X622601D01*
X621935Y529267D01*
X625933Y532599D02*
Y528601D01*
X627266Y529934D01*
X628599Y528601D01*
Y532599D01*
X629932Y528601D02*
X631265D01*
X630599D01*
Y532599D01*
X629932Y531933D01*
X883834Y138133D02*
X883168Y138799D01*
X881835D01*
X881168Y138133D01*
Y137466D01*
X881835Y136800D01*
X883168D01*
X883834Y136134D01*
Y135467D01*
X883168Y134801D01*
X881835D01*
X881168Y135467D01*
X885167Y138799D02*
Y134801D01*
X887167D01*
X887833Y135467D01*
Y136134D01*
X887167Y136800D01*
X885167D01*
X887167D01*
X887833Y137466D01*
Y138133D01*
X887167Y138799D01*
X885167D01*
X891832Y134801D02*
X889166D01*
X891832Y137466D01*
Y138133D01*
X891165Y138799D01*
X889832D01*
X889166Y138133D01*
X814067Y772701D02*
X813401Y772034D01*
Y770701D01*
X814067Y770035D01*
X814734D01*
X815400Y770701D01*
Y772034D01*
X816066Y772701D01*
X816733D01*
X817399Y772034D01*
Y770701D01*
X816733Y770035D01*
X813401Y774034D02*
X817399D01*
Y776033D01*
X816733Y776699D01*
X816066D01*
X815400Y776033D01*
Y774034D01*
Y776033D01*
X814734Y776699D01*
X814067D01*
X813401Y776033D01*
Y774034D01*
X817399Y778032D02*
Y779365D01*
Y778699D01*
X813401D01*
X814067Y778032D01*
X890768Y100501D02*
Y104499D01*
X892768D01*
X893434Y103833D01*
Y102500D01*
X892768Y101834D01*
X890768D01*
X892101D02*
X893434Y100501D01*
X897433Y104499D02*
X894767D01*
Y102500D01*
X896100Y103167D01*
X896767D01*
X897433Y102500D01*
Y101167D01*
X896767Y100501D01*
X895434D01*
X894767Y101167D01*
X898766Y103833D02*
X899432Y104499D01*
X900765D01*
X901432Y103833D01*
Y103167D01*
X900765Y102500D01*
X900099D01*
X900765D01*
X901432Y101834D01*
Y101167D01*
X900765Y100501D01*
X899432D01*
X898766Y101167D01*
X831768Y100401D02*
Y104399D01*
X833768D01*
X834434Y103733D01*
Y102400D01*
X833768Y101734D01*
X831768D01*
X833101D02*
X834434Y100401D01*
X838433Y104399D02*
X835767D01*
Y102400D01*
X837100Y103067D01*
X837766D01*
X838433Y102400D01*
Y101067D01*
X837766Y100401D01*
X836434D01*
X835767Y101067D01*
X842432Y100401D02*
X839766D01*
X842432Y103067D01*
Y103733D01*
X841765Y104399D01*
X840432D01*
X839766Y103733D01*
X856735Y217401D02*
Y221399D01*
X858734D01*
X859401Y220733D01*
Y219400D01*
X858734Y218734D01*
X856735D01*
X858068D02*
X859401Y217401D01*
X863399Y221399D02*
X860734D01*
Y219400D01*
X862066Y220067D01*
X862733D01*
X863399Y219400D01*
Y218067D01*
X862733Y217401D01*
X861400D01*
X860734Y218067D01*
X864732Y217401D02*
X866065D01*
X865399D01*
Y221399D01*
X864732Y220733D01*
X857768Y280901D02*
Y284899D01*
X859768D01*
X860434Y284233D01*
Y282900D01*
X859768Y282234D01*
X857768D01*
X859101D02*
X860434Y280901D01*
X864433Y284899D02*
X861767D01*
Y282900D01*
X863100Y283566D01*
X863766D01*
X864433Y282900D01*
Y281567D01*
X863766Y280901D01*
X862434D01*
X861767Y281567D01*
X865766Y284233D02*
X866432Y284899D01*
X867765D01*
X868432Y284233D01*
Y281567D01*
X867765Y280901D01*
X866432D01*
X865766Y281567D01*
Y284233D01*
X872968Y269601D02*
Y273599D01*
X874968D01*
X875634Y272933D01*
Y271600D01*
X874968Y270933D01*
X872968D01*
X874301D02*
X875634Y269601D01*
X878967D02*
Y273599D01*
X876967Y271600D01*
X879633D01*
X880966Y270267D02*
X881632Y269601D01*
X882965D01*
X883632Y270267D01*
Y272933D01*
X882965Y273599D01*
X881632D01*
X880966Y272933D01*
Y272267D01*
X881632Y271600D01*
X883632D01*
X902468Y779801D02*
Y783799D01*
X904468D01*
X905134Y783133D01*
Y781800D01*
X904468Y781134D01*
X902468D01*
X903801D02*
X905134Y779801D01*
X908466D02*
Y783799D01*
X906467Y781800D01*
X909133D01*
X910466Y783133D02*
X911132Y783799D01*
X912465D01*
X913132Y783133D01*
Y782467D01*
X912465Y781800D01*
X913132Y781134D01*
Y780467D01*
X912465Y779801D01*
X911132D01*
X910466Y780467D01*
Y781134D01*
X911132Y781800D01*
X910466Y782467D01*
Y783133D01*
X911132Y781800D02*
X912465D01*
X902868Y725001D02*
Y728999D01*
X904868D01*
X905534Y728333D01*
Y727000D01*
X904868Y726333D01*
X902868D01*
X904201D02*
X905534Y725001D01*
X908867D02*
Y728999D01*
X906867Y727000D01*
X909533D01*
X910866Y728999D02*
X913532D01*
Y728333D01*
X910866Y725667D01*
Y725001D01*
X475719Y453853D02*
X478546Y456681D01*
X479960Y455267D01*
Y454325D01*
X479018Y453382D01*
X478075Y453382D01*
X476661Y454796D01*
X477604Y453853D02*
X477604Y451968D01*
X479960Y449612D02*
X482788Y452440D01*
X479960Y452440D01*
X481845Y450555D01*
X486087Y449141D02*
X484673Y449612D01*
X482788D01*
X481845Y448670D01*
Y447727D01*
X482788Y446785D01*
X483730D01*
X484202Y447256D01*
X484202Y448199D01*
X482788Y449612D01*
X767268Y534101D02*
Y538099D01*
X769268D01*
X769934Y537433D01*
Y536100D01*
X769268Y535434D01*
X767268D01*
X768601D02*
X769934Y534101D01*
X773267D02*
Y538099D01*
X771267Y536100D01*
X773933D01*
X777932Y538099D02*
X775266D01*
Y536100D01*
X776599Y536767D01*
X777265D01*
X777932Y536100D01*
Y534767D01*
X777265Y534101D01*
X775932D01*
X775266Y534767D01*
X779968Y566801D02*
Y570799D01*
X781968D01*
X782634Y570133D01*
Y568800D01*
X781968Y568134D01*
X779968D01*
X781301D02*
X782634Y566801D01*
X785966D02*
Y570799D01*
X783967Y568800D01*
X786633D01*
X789965Y566801D02*
Y570799D01*
X787966Y568800D01*
X790632D01*
X508168Y660901D02*
Y664899D01*
X510168D01*
X510834Y664233D01*
Y662900D01*
X510168Y662234D01*
X508168D01*
X509501D02*
X510834Y660901D01*
X514166D02*
Y664899D01*
X512167Y662900D01*
X514833D01*
X516166Y664233D02*
X516832Y664899D01*
X518165D01*
X518832Y664233D01*
Y663566D01*
X518165Y662900D01*
X517499D01*
X518165D01*
X518832Y662234D01*
Y661567D01*
X518165Y660901D01*
X516832D01*
X516166Y661567D01*
X575799Y534368D02*
X571801D01*
Y536368D01*
X572467Y537034D01*
X573800D01*
X574466Y536368D01*
Y534368D01*
Y535701D02*
X575799Y537034D01*
Y540367D02*
X571801D01*
X573800Y538367D01*
Y541033D01*
X575799Y545032D02*
Y542366D01*
X573134Y545032D01*
X572467D01*
X571801Y544365D01*
Y543032D01*
X572467Y542366D01*
X585999Y535780D02*
X582001D01*
Y537779D01*
X582667Y538446D01*
X584000D01*
X584666Y537779D01*
Y535780D01*
Y537113D02*
X585999Y538446D01*
Y541778D02*
X582001D01*
X584000Y539779D01*
Y542444D01*
X585999Y543777D02*
Y545110D01*
Y544444D01*
X582001D01*
X582667Y543777D01*
X566299Y535968D02*
X562301D01*
Y537968D01*
X562967Y538634D01*
X564300D01*
X564966Y537968D01*
Y535968D01*
Y537301D02*
X566299Y538634D01*
Y541967D02*
X562301D01*
X564300Y539967D01*
Y542633D01*
X562967Y543966D02*
X562301Y544632D01*
Y545965D01*
X562967Y546632D01*
X565633D01*
X566299Y545965D01*
Y544632D01*
X565633Y543966D01*
X562967D01*
X556199Y535968D02*
X552201D01*
Y537968D01*
X552867Y538634D01*
X554200D01*
X554866Y537968D01*
Y535968D01*
Y537301D02*
X556199Y538634D01*
X552867Y539967D02*
X552201Y540634D01*
Y541967D01*
X552867Y542633D01*
X553534D01*
X554200Y541967D01*
Y541300D01*
Y541967D01*
X554866Y542633D01*
X555533D01*
X556199Y541967D01*
Y540634D01*
X555533Y539967D01*
Y543966D02*
X556199Y544632D01*
Y545965D01*
X555533Y546632D01*
X552867D01*
X552201Y545965D01*
Y544632D01*
X552867Y543966D01*
X553534D01*
X554200Y544632D01*
Y546632D01*
X508468Y632901D02*
Y636899D01*
X510468D01*
X511134Y636233D01*
Y634900D01*
X510468Y634234D01*
X508468D01*
X509801D02*
X511134Y632901D01*
X512467Y636233D02*
X513134Y636899D01*
X514467D01*
X515133Y636233D01*
Y635566D01*
X514467Y634900D01*
X513800D01*
X514467D01*
X515133Y634234D01*
Y633567D01*
X514467Y632901D01*
X513134D01*
X512467Y633567D01*
X516466Y636233D02*
X517132Y636899D01*
X518465D01*
X519132Y636233D01*
Y635566D01*
X518465Y634900D01*
X519132Y634234D01*
Y633567D01*
X518465Y632901D01*
X517132D01*
X516466Y633567D01*
Y634234D01*
X517132Y634900D01*
X516466Y635566D01*
Y636233D01*
X517132Y634900D02*
X518465D01*
X766468Y594901D02*
Y598899D01*
X768468D01*
X769134Y598233D01*
Y596900D01*
X768468Y596234D01*
X766468D01*
X767801D02*
X769134Y594901D01*
X770467Y598233D02*
X771133Y598899D01*
X772467D01*
X773133Y598233D01*
Y597566D01*
X772467Y596900D01*
X771800D01*
X772467D01*
X773133Y596234D01*
Y595567D01*
X772467Y594901D01*
X771133D01*
X770467Y595567D01*
X774466Y598899D02*
X777132D01*
Y598233D01*
X774466Y595567D01*
Y594901D01*
X767368Y610101D02*
Y614099D01*
X769368D01*
X770034Y613433D01*
Y612100D01*
X769368Y611433D01*
X767368D01*
X768701D02*
X770034Y610101D01*
X771367Y613433D02*
X772034Y614099D01*
X773366D01*
X774033Y613433D01*
Y612766D01*
X773366Y612100D01*
X772700D01*
X773366D01*
X774033Y611433D01*
Y610767D01*
X773366Y610101D01*
X772034D01*
X771367Y610767D01*
X778032Y614099D02*
X776699Y613433D01*
X775366Y612100D01*
Y610767D01*
X776032Y610101D01*
X777365D01*
X778032Y610767D01*
Y611433D01*
X777365Y612100D01*
X775366D01*
X766668Y625701D02*
Y629699D01*
X768668D01*
X769334Y629033D01*
Y627700D01*
X768668Y627034D01*
X766668D01*
X768001D02*
X769334Y625701D01*
X770667Y629033D02*
X771334Y629699D01*
X772666D01*
X773333Y629033D01*
Y628367D01*
X772666Y627700D01*
X772000D01*
X772666D01*
X773333Y627034D01*
Y626367D01*
X772666Y625701D01*
X771334D01*
X770667Y626367D01*
X777332Y629699D02*
X774666D01*
Y627700D01*
X775999Y628367D01*
X776665D01*
X777332Y627700D01*
Y626367D01*
X776665Y625701D01*
X775332D01*
X774666Y626367D01*
X781468Y23601D02*
Y27599D01*
X783468D01*
X784134Y26933D01*
Y25600D01*
X783468Y24934D01*
X781468D01*
X782801D02*
X784134Y23601D01*
X785467Y26933D02*
X786134Y27599D01*
X787467D01*
X788133Y26933D01*
Y26267D01*
X787467Y25600D01*
X786800D01*
X787467D01*
X788133Y24934D01*
Y24267D01*
X787467Y23601D01*
X786134D01*
X785467Y24267D01*
X791465Y23601D02*
Y27599D01*
X789466Y25600D01*
X792132D01*
X630968Y28701D02*
Y32699D01*
X632968D01*
X633634Y32033D01*
Y30700D01*
X632968Y30034D01*
X630968D01*
X632301D02*
X633634Y28701D01*
X634967Y32033D02*
X635634Y32699D01*
X636967D01*
X637633Y32033D01*
Y31367D01*
X636967Y30700D01*
X636300D01*
X636967D01*
X637633Y30034D01*
Y29367D01*
X636967Y28701D01*
X635634D01*
X634967Y29367D01*
X638966Y32033D02*
X639632Y32699D01*
X640965D01*
X641632Y32033D01*
Y31367D01*
X640965Y30700D01*
X640299D01*
X640965D01*
X641632Y30034D01*
Y29367D01*
X640965Y28701D01*
X639632D01*
X638966Y29367D01*
X559368Y67101D02*
Y71099D01*
X561368D01*
X562034Y70433D01*
Y69100D01*
X561368Y68433D01*
X559368D01*
X560701D02*
X562034Y67101D01*
X563367Y70433D02*
X564034Y71099D01*
X565367D01*
X566033Y70433D01*
Y69767D01*
X565367Y69100D01*
X564700D01*
X565367D01*
X566033Y68433D01*
Y67767D01*
X565367Y67101D01*
X564034D01*
X563367Y67767D01*
X570032Y67101D02*
X567366D01*
X570032Y69767D01*
Y70433D01*
X569365Y71099D01*
X568032D01*
X567366Y70433D01*
X649535Y47901D02*
Y51899D01*
X651534D01*
X652201Y51233D01*
Y49900D01*
X651534Y49234D01*
X649535D01*
X650868D02*
X652201Y47901D01*
X653534Y51233D02*
X654200Y51899D01*
X655533D01*
X656199Y51233D01*
Y50567D01*
X655533Y49900D01*
X654866D01*
X655533D01*
X656199Y49234D01*
Y48567D01*
X655533Y47901D01*
X654200D01*
X653534Y48567D01*
X657532Y47901D02*
X658865D01*
X658199D01*
Y51899D01*
X657532Y51233D01*
X652268Y85701D02*
Y89699D01*
X654268D01*
X654934Y89033D01*
Y87700D01*
X654268Y87034D01*
X652268D01*
X653601D02*
X654934Y85701D01*
X656267Y89033D02*
X656934Y89699D01*
X658267D01*
X658933Y89033D01*
Y88366D01*
X658267Y87700D01*
X657600D01*
X658267D01*
X658933Y87034D01*
Y86367D01*
X658267Y85701D01*
X656934D01*
X656267Y86367D01*
X660266Y89033D02*
X660932Y89699D01*
X662265D01*
X662932Y89033D01*
Y86367D01*
X662265Y85701D01*
X660932D01*
X660266Y86367D01*
Y89033D01*
X589168Y8401D02*
Y12399D01*
X591168D01*
X591834Y11733D01*
Y10400D01*
X591168Y9734D01*
X589168D01*
X590501D02*
X591834Y8401D01*
X595833D02*
X593167D01*
X595833Y11066D01*
Y11733D01*
X595167Y12399D01*
X593834D01*
X593167Y11733D01*
X597166Y9067D02*
X597832Y8401D01*
X599165D01*
X599832Y9067D01*
Y11733D01*
X599165Y12399D01*
X597832D01*
X597166Y11733D01*
Y11066D01*
X597832Y10400D01*
X599832D01*
X572768Y9001D02*
Y12999D01*
X574768D01*
X575434Y12333D01*
Y11000D01*
X574768Y10334D01*
X572768D01*
X574101D02*
X575434Y9001D01*
X579433D02*
X576767D01*
X579433Y11667D01*
Y12333D01*
X578767Y12999D01*
X577434D01*
X576767Y12333D01*
X580766D02*
X581432Y12999D01*
X582765D01*
X583432Y12333D01*
Y11667D01*
X582765Y11000D01*
X583432Y10334D01*
Y9667D01*
X582765Y9001D01*
X581432D01*
X580766Y9667D01*
Y10334D01*
X581432Y11000D01*
X580766Y11667D01*
Y12333D01*
X581432Y11000D02*
X582765D01*
X845668Y415080D02*
Y419078D01*
X847668D01*
X848334Y418412D01*
Y417079D01*
X847668Y416413D01*
X845668D01*
X847001D02*
X848334Y415080D01*
X852333D02*
X849667D01*
X852333Y417746D01*
Y418412D01*
X851666Y419078D01*
X850333D01*
X849667Y418412D01*
X853666Y419078D02*
X856332D01*
Y418412D01*
X853666Y415746D01*
Y415080D01*
X746068Y784401D02*
Y788399D01*
X748068D01*
X748734Y787733D01*
Y786400D01*
X748068Y785734D01*
X746068D01*
X747401D02*
X748734Y784401D01*
X752733D02*
X750067D01*
X752733Y787066D01*
Y787733D01*
X752066Y788399D01*
X750734D01*
X750067Y787733D01*
X756732Y788399D02*
X755399Y787733D01*
X754066Y786400D01*
Y785067D01*
X754732Y784401D01*
X756065D01*
X756732Y785067D01*
Y785734D01*
X756065Y786400D01*
X754066D01*
X749868Y803801D02*
Y807799D01*
X751868D01*
X752534Y807133D01*
Y805800D01*
X751868Y805134D01*
X749868D01*
X751201D02*
X752534Y803801D01*
X756533D02*
X753867D01*
X756533Y806467D01*
Y807133D01*
X755866Y807799D01*
X754533D01*
X753867Y807133D01*
X760532Y807799D02*
X757866D01*
Y805800D01*
X759199Y806467D01*
X759865D01*
X760532Y805800D01*
Y804467D01*
X759865Y803801D01*
X758532D01*
X757866Y804467D01*
X632299Y558068D02*
X628301D01*
Y560068D01*
X628967Y560734D01*
X630300D01*
X630966Y560068D01*
Y558068D01*
Y559401D02*
X632299Y560734D01*
Y564733D02*
Y562067D01*
X629633Y564733D01*
X628967D01*
X628301Y564067D01*
Y562733D01*
X628967Y562067D01*
X632299Y568065D02*
X628301D01*
X630300Y566066D01*
Y568732D01*
X995599Y328968D02*
X991601D01*
Y330968D01*
X992267Y331634D01*
X993600D01*
X994266Y330968D01*
Y328968D01*
Y330301D02*
X995599Y331634D01*
Y335633D02*
Y332967D01*
X992934Y335633D01*
X992267D01*
X991601Y334967D01*
Y333633D01*
X992267Y332967D01*
Y336966D02*
X991601Y337632D01*
Y338965D01*
X992267Y339632D01*
X992934D01*
X993600Y338965D01*
Y338299D01*
Y338965D01*
X994266Y339632D01*
X994933D01*
X995599Y338965D01*
Y337632D01*
X994933Y336966D01*
X938699Y328068D02*
X934701D01*
Y330068D01*
X935367Y330734D01*
X936700D01*
X937366Y330068D01*
Y328068D01*
Y329401D02*
X938699Y330734D01*
Y334733D02*
Y332067D01*
X936033Y334733D01*
X935367D01*
X934701Y334067D01*
Y332733D01*
X935367Y332067D01*
X938699Y338732D02*
Y336066D01*
X936033Y338732D01*
X935367D01*
X934701Y338065D01*
Y336732D01*
X935367Y336066D01*
X998599Y419935D02*
X994601D01*
Y421934D01*
X995267Y422601D01*
X996600D01*
X997266Y421934D01*
Y419935D01*
Y421268D02*
X998599Y422601D01*
Y426599D02*
Y423934D01*
X995934Y426599D01*
X995267D01*
X994601Y425933D01*
Y424600D01*
X995267Y423934D01*
X998599Y427932D02*
Y429265D01*
Y428599D01*
X994601D01*
X995267Y427932D01*
X604799Y540868D02*
X600801D01*
Y542868D01*
X601467Y543534D01*
X602800D01*
X603466Y542868D01*
Y540868D01*
Y542201D02*
X604799Y543534D01*
Y547533D02*
Y544867D01*
X602133Y547533D01*
X601467D01*
X600801Y546866D01*
Y545534D01*
X601467Y544867D01*
Y548866D02*
X600801Y549532D01*
Y550865D01*
X601467Y551532D01*
X604133D01*
X604799Y550865D01*
Y549532D01*
X604133Y548866D01*
X601467D01*
X595899Y537002D02*
X591901D01*
Y539001D01*
X592567Y539667D01*
X593900D01*
X594566Y539001D01*
Y537002D01*
Y538335D02*
X595899Y539667D01*
Y541000D02*
Y542333D01*
Y541667D01*
X591901D01*
X592567Y541000D01*
X595233Y544333D02*
X595899Y544999D01*
Y546332D01*
X595233Y546998D01*
X592567D01*
X591901Y546332D01*
Y544999D01*
X592567Y544333D01*
X593233D01*
X593900Y544999D01*
Y546998D01*
X546499Y536602D02*
X542501D01*
Y538601D01*
X543167Y539268D01*
X544500D01*
X545166Y538601D01*
Y536602D01*
Y537934D02*
X546499Y539268D01*
Y540600D02*
Y541933D01*
Y541267D01*
X542501D01*
X543167Y540600D01*
Y543933D02*
X542501Y544599D01*
Y545932D01*
X543167Y546598D01*
X543834D01*
X544500Y545932D01*
Y545266D01*
Y545932D01*
X545166Y546598D01*
X545833D01*
X546499Y545932D01*
Y544599D01*
X545833Y543933D01*
X626302Y775401D02*
Y779399D01*
X628301D01*
X628967Y778733D01*
Y777400D01*
X628301Y776733D01*
X626302D01*
X627635D02*
X628967Y775401D01*
X630300D02*
X631633D01*
X630967D01*
Y779399D01*
X630300Y778733D01*
X636298Y775401D02*
X633633D01*
X636298Y778066D01*
Y778733D01*
X635632Y779399D01*
X634299D01*
X633633Y778733D01*
X639168Y775501D02*
Y779499D01*
X641168D01*
X641834Y778833D01*
Y777500D01*
X641168Y776833D01*
X639168D01*
X640501D02*
X641834Y775501D01*
X643167D02*
X644500D01*
X643833D01*
Y779499D01*
X643167Y778833D01*
X646499Y775501D02*
X647832D01*
X647166D01*
Y779499D01*
X646499Y778833D01*
X514968Y623601D02*
Y627599D01*
X516967D01*
X517634Y626933D01*
Y625600D01*
X516967Y624934D01*
X514968D01*
X516301D02*
X517634Y623601D01*
X518966Y624267D02*
X519633Y623601D01*
X520966D01*
X521632Y624267D01*
Y626933D01*
X520966Y627599D01*
X519633D01*
X518966Y626933D01*
Y626267D01*
X519633Y625600D01*
X521632D01*
X503368Y753421D02*
Y757419D01*
X505367D01*
X506034Y756753D01*
Y755420D01*
X505367Y754754D01*
X503368D01*
X504701D02*
X506034Y753421D01*
X507366Y756753D02*
X508033Y757419D01*
X509366D01*
X510032Y756753D01*
Y756087D01*
X509366Y755420D01*
X510032Y754754D01*
Y754087D01*
X509366Y753421D01*
X508033D01*
X507366Y754087D01*
Y754754D01*
X508033Y755420D01*
X507366Y756087D01*
Y756753D01*
X508033Y755420D02*
X509366D01*
X373368Y759601D02*
Y763599D01*
X375367D01*
X376034Y762933D01*
Y761600D01*
X375367Y760934D01*
X373368D01*
X374701D02*
X376034Y759601D01*
X377366Y763599D02*
X380032D01*
Y762933D01*
X377366Y760267D01*
Y759601D01*
X617768Y457601D02*
Y461599D01*
X619767D01*
X620434Y460933D01*
Y459600D01*
X619767Y458933D01*
X617768D01*
X619101D02*
X620434Y457601D01*
X624432Y461599D02*
X623099Y460933D01*
X621766Y459600D01*
Y458267D01*
X622433Y457601D01*
X623766D01*
X624432Y458267D01*
Y458933D01*
X623766Y459600D01*
X621766D01*
X606868Y785401D02*
Y789399D01*
X608867D01*
X609534Y788733D01*
Y787400D01*
X608867Y786734D01*
X606868D01*
X608201D02*
X609534Y785401D01*
X613532Y789399D02*
X610866D01*
Y787400D01*
X612199Y788066D01*
X612866D01*
X613532Y787400D01*
Y786067D01*
X612866Y785401D01*
X611533D01*
X610866Y786067D01*
X635348Y812001D02*
Y815999D01*
X637347D01*
X638013Y815333D01*
Y814000D01*
X637347Y813334D01*
X635348D01*
X636681D02*
X638013Y812001D01*
X641346D02*
Y815999D01*
X639346Y814000D01*
X642012D01*
X479068Y715301D02*
Y719299D01*
X481067D01*
X481734Y718633D01*
Y717300D01*
X481067Y716634D01*
X479068D01*
X480401D02*
X481734Y715301D01*
X483066Y718633D02*
X483733Y719299D01*
X485066D01*
X485732Y718633D01*
Y717966D01*
X485066Y717300D01*
X484399D01*
X485066D01*
X485732Y716634D01*
Y715967D01*
X485066Y715301D01*
X483733D01*
X483066Y715967D01*
X346968Y720501D02*
Y724499D01*
X348967D01*
X349634Y723833D01*
Y722500D01*
X348967Y721834D01*
X346968D01*
X348301D02*
X349634Y720501D01*
X353632D02*
X350966D01*
X353632Y723167D01*
Y723833D01*
X352966Y724499D01*
X351633D01*
X350966Y723833D01*
X788334Y649801D02*
Y653799D01*
X790334D01*
X791000Y653133D01*
Y651800D01*
X790334Y651133D01*
X788334D01*
X789667D02*
X791000Y649801D01*
X792333D02*
X793666D01*
X792999D01*
Y653799D01*
X792333Y653133D01*
X463534Y765017D02*
Y767683D01*
X462867Y768349D01*
X461534D01*
X460868Y767683D01*
Y765017D01*
X461534Y764351D01*
X462867D01*
X462201Y765684D02*
X463534Y764351D01*
X462867D02*
X463534Y765017D01*
X467532Y764351D02*
X464866D01*
X467532Y767017D01*
Y767683D01*
X466866Y768349D01*
X465533D01*
X464866Y767683D01*
X363500Y766667D02*
Y769333D01*
X362834Y769999D01*
X361501D01*
X360834Y769333D01*
Y766667D01*
X361501Y766001D01*
X362834D01*
X362167Y767334D02*
X363500Y766001D01*
X362834D02*
X363500Y766667D01*
X364833Y766001D02*
X366166D01*
X365499D01*
Y769999D01*
X364833Y769333D01*
X174835Y624999D02*
Y621001D01*
X177501D01*
X181499Y624333D02*
X180833Y624999D01*
X179500D01*
X178834Y624333D01*
Y623666D01*
X179500Y623000D01*
X180833D01*
X181499Y622334D01*
Y621667D01*
X180833Y621001D01*
X179500D01*
X178834Y621667D01*
X182832Y621001D02*
X184165D01*
X183499D01*
Y624999D01*
X182832Y624333D01*
X389636Y687699D02*
Y683701D01*
X392301D01*
X396300Y687699D02*
X393634D01*
Y683701D01*
X396300D01*
X393634Y685700D02*
X394967D01*
X397633Y687699D02*
Y683701D01*
X399632D01*
X400299Y684367D01*
Y687033D01*
X399632Y687699D01*
X397633D01*
X401632Y683701D02*
X402965D01*
X402298D01*
Y687699D01*
X401632Y687033D01*
X702568Y107599D02*
Y103601D01*
X705234D01*
X709232D02*
X706566D01*
X709232Y106266D01*
Y106933D01*
X708566Y107599D01*
X707233D01*
X706566Y106933D01*
X804434Y10699D02*
X803101D01*
X803768D01*
Y7367D01*
X803101Y6701D01*
X802435D01*
X801768Y7367D01*
X808433Y6701D02*
X805767D01*
X808433Y9366D01*
Y10033D01*
X807766Y10699D01*
X806433D01*
X805767Y10033D01*
X812432Y6701D02*
X809766D01*
X812432Y9366D01*
Y10033D01*
X811765Y10699D01*
X810432D01*
X809766Y10033D01*
X988101Y811899D02*
X986768D01*
X987434D01*
Y808567D01*
X986768Y807901D01*
X986101D01*
X985435Y808567D01*
X992099Y807901D02*
X989434D01*
X992099Y810566D01*
Y811233D01*
X991433Y811899D01*
X990100D01*
X989434Y811233D01*
X993432Y807901D02*
X994765D01*
X994099D01*
Y811899D01*
X993432Y811233D01*
X834334Y701699D02*
X833001D01*
X833668D01*
Y698367D01*
X833001Y697701D01*
X832335D01*
X831668Y698367D01*
X838333Y697701D02*
X835667D01*
X838333Y700367D01*
Y701033D01*
X837666Y701699D01*
X836334D01*
X835667Y701033D01*
X839666D02*
X840332Y701699D01*
X841665D01*
X842332Y701033D01*
Y698367D01*
X841665Y697701D01*
X840332D01*
X839666Y698367D01*
Y701033D01*
X638667Y87299D02*
X637335D01*
X638001D01*
Y83967D01*
X637335Y83301D01*
X636668D01*
X636002Y83967D01*
X640000Y83301D02*
X641333D01*
X640667D01*
Y87299D01*
X640000Y86633D01*
X643333Y83967D02*
X643999Y83301D01*
X645332D01*
X645998Y83967D01*
Y86633D01*
X645332Y87299D01*
X643999D01*
X643333Y86633D01*
Y85967D01*
X643999Y85300D01*
X645998D01*
X22467Y264899D02*
X21135D01*
X21801D01*
Y261567D01*
X21135Y260901D01*
X20468D01*
X19802Y261567D01*
X23800Y260901D02*
X25133D01*
X24467D01*
Y264899D01*
X23800Y264233D01*
X27133D02*
X27799Y264899D01*
X29132D01*
X29798Y264233D01*
Y263566D01*
X29132Y262900D01*
X29798Y262234D01*
Y261567D01*
X29132Y260901D01*
X27799D01*
X27133Y261567D01*
Y262234D01*
X27799Y262900D01*
X27133Y263566D01*
Y264233D01*
X27799Y262900D02*
X29132D01*
X755368Y483299D02*
X754035D01*
X754701D01*
Y479967D01*
X754035Y479301D01*
X753368D01*
X752702Y479967D01*
X756700Y479301D02*
X758033D01*
X757367D01*
Y483299D01*
X756700Y482633D01*
X760033Y483299D02*
X762698D01*
Y482633D01*
X760033Y479967D01*
Y479301D01*
X329167Y770099D02*
X327835D01*
X328501D01*
Y766767D01*
X327835Y766101D01*
X327168D01*
X326502Y766767D01*
X330500Y766101D02*
X331833D01*
X331167D01*
Y770099D01*
X330500Y769433D01*
X336498Y770099D02*
X335165Y769433D01*
X333833Y768100D01*
Y766767D01*
X334499Y766101D01*
X335832D01*
X336498Y766767D01*
Y767433D01*
X335832Y768100D01*
X333833D01*
X154851Y940547D02*
Y939214D01*
Y939881D01*
X158183D01*
X158849Y939214D01*
Y938548D01*
X158183Y937882D01*
X158849Y941880D02*
Y943213D01*
Y942547D01*
X154851D01*
X155517Y941880D01*
X154851Y947878D02*
Y945213D01*
X156850D01*
X156184Y946545D01*
Y947212D01*
X156850Y947878D01*
X158183D01*
X158849Y947212D01*
Y945879D01*
X158183Y945213D01*
X155051Y743527D02*
Y742195D01*
Y742861D01*
X158383D01*
X159049Y742195D01*
Y741528D01*
X158383Y740862D01*
X159049Y744860D02*
Y746193D01*
Y745527D01*
X155051D01*
X155717Y744860D01*
X159049Y750192D02*
X155051D01*
X157050Y748193D01*
Y750858D01*
X924167Y244499D02*
X922834D01*
X923501D01*
Y241167D01*
X922834Y240501D01*
X922168D01*
X921502Y241167D01*
X925500Y240501D02*
X926833D01*
X926167D01*
Y244499D01*
X925500Y243833D01*
X928833D02*
X929499Y244499D01*
X930832D01*
X931498Y243833D01*
Y243167D01*
X930832Y242500D01*
X930165D01*
X930832D01*
X931498Y241834D01*
Y241167D01*
X930832Y240501D01*
X929499D01*
X928833Y241167D01*
X985967Y315699D02*
X984634D01*
X985301D01*
Y312367D01*
X984634Y311701D01*
X983968D01*
X983302Y312367D01*
X987300Y311701D02*
X988633D01*
X987967D01*
Y315699D01*
X987300Y315033D01*
X993298Y311701D02*
X990633D01*
X993298Y314366D01*
Y315033D01*
X992632Y315699D01*
X991299D01*
X990633Y315033D01*
X937034Y33099D02*
X935701D01*
X936367D01*
Y29767D01*
X935701Y29101D01*
X935034D01*
X934368Y29767D01*
X938367Y29101D02*
X939700D01*
X939033D01*
Y33099D01*
X938367Y32433D01*
X941699Y29101D02*
X943032D01*
X942365D01*
Y33099D01*
X941699Y32433D01*
X358867Y996799D02*
X357534D01*
X358201D01*
Y993467D01*
X357534Y992801D01*
X356868D01*
X356202Y993467D01*
X360200Y992801D02*
X361533D01*
X360867D01*
Y996799D01*
X360200Y996133D01*
X363533D02*
X364199Y996799D01*
X365532D01*
X366198Y996133D01*
Y993467D01*
X365532Y992801D01*
X364199D01*
X363533Y993467D01*
Y996133D01*
X753754Y836299D02*
X752421D01*
X753087D01*
Y832967D01*
X752421Y832301D01*
X751754D01*
X751088Y832967D01*
X755086D02*
X755753Y832301D01*
X757086D01*
X757752Y832967D01*
Y835633D01*
X757086Y836299D01*
X755753D01*
X755086Y835633D01*
Y834967D01*
X755753Y834300D01*
X757752D01*
X931473Y834699D02*
X930141D01*
X930807D01*
Y831367D01*
X930141Y830701D01*
X929474D01*
X928808Y831367D01*
X932806Y834033D02*
X933473Y834699D01*
X934806D01*
X935472Y834033D01*
Y833366D01*
X934806Y832700D01*
X935472Y832033D01*
Y831367D01*
X934806Y830701D01*
X933473D01*
X932806Y831367D01*
Y832033D01*
X933473Y832700D01*
X932806Y833366D01*
Y834033D01*
X933473Y832700D02*
X934806D01*
X737434Y176499D02*
X736101D01*
X736767D01*
Y173167D01*
X736101Y172501D01*
X735434D01*
X734768Y173167D01*
X738766Y176499D02*
X741432D01*
Y175833D01*
X738766Y173167D01*
Y172501D01*
X189434Y275899D02*
X188101D01*
X188767D01*
Y272567D01*
X188101Y271901D01*
X187434D01*
X186768Y272567D01*
X193432Y275899D02*
X192099Y275233D01*
X190766Y273900D01*
Y272567D01*
X191433Y271901D01*
X192766D01*
X193432Y272567D01*
Y273234D01*
X192766Y273900D01*
X190766D01*
X356534Y615599D02*
X355201D01*
X355867D01*
Y612267D01*
X355201Y611601D01*
X354534D01*
X353868Y612267D01*
X360532Y615599D02*
X357866D01*
Y613600D01*
X359199Y614267D01*
X359866D01*
X360532Y613600D01*
Y612267D01*
X359866Y611601D01*
X358533D01*
X357866Y612267D01*
X500334Y679049D02*
X499001D01*
X499667D01*
Y675717D01*
X499001Y675051D01*
X498334D01*
X497668Y675717D01*
X503666Y675051D02*
Y679049D01*
X501666Y677050D01*
X504332D01*
X504934Y832299D02*
X503601D01*
X504267D01*
Y828967D01*
X503601Y828301D01*
X502934D01*
X502268Y828967D01*
X506266Y831633D02*
X506933Y832299D01*
X508266D01*
X508932Y831633D01*
Y830966D01*
X508266Y830300D01*
X507599D01*
X508266D01*
X508932Y829633D01*
Y828967D01*
X508266Y828301D01*
X506933D01*
X506266Y828967D01*
X174934Y832999D02*
X173601D01*
X174267D01*
Y829667D01*
X173601Y829001D01*
X172934D01*
X172268Y829667D01*
X178932Y829001D02*
X176266D01*
X178932Y831666D01*
Y832333D01*
X178266Y832999D01*
X176933D01*
X176266Y832333D01*
X907600Y833499D02*
X906267D01*
X906934D01*
Y830167D01*
X906267Y829501D01*
X905601D01*
X904934Y830167D01*
X908933Y829501D02*
X910266D01*
X909599D01*
Y833499D01*
X908933Y832833D01*
X200534Y28499D02*
X197868D01*
Y26500D01*
X199201D01*
X197868D01*
Y24501D01*
X204532D02*
X201866D01*
X204532Y27167D01*
Y27833D01*
X203866Y28499D01*
X202533D01*
X201866Y27833D01*
X435500Y258599D02*
X432834D01*
Y256600D01*
X434167D01*
X432834D01*
Y254601D01*
X436833D02*
X438166D01*
X437499D01*
Y258599D01*
X436833Y257933D01*
X841202Y181499D02*
Y177501D01*
X843201D01*
X843867Y178167D01*
Y180833D01*
X843201Y181499D01*
X841202D01*
X845200Y177501D02*
X846533D01*
X845867D01*
Y181499D01*
X845200Y180833D01*
X848533D02*
X849199Y181499D01*
X850532D01*
X851198Y180833D01*
Y180166D01*
X850532Y179500D01*
X849865D01*
X850532D01*
X851198Y178834D01*
Y178167D01*
X850532Y177501D01*
X849199D01*
X848533Y178167D01*
X794101Y748402D02*
X798099D01*
Y750401D01*
X797433Y751067D01*
X794767D01*
X794101Y750401D01*
Y748402D01*
X798099Y752400D02*
Y753733D01*
Y753067D01*
X794101D01*
X794767Y752400D01*
X798099Y758398D02*
Y755733D01*
X795434Y758398D01*
X794767D01*
X794101Y757732D01*
Y756399D01*
X794767Y755733D01*
X741768Y24999D02*
Y21001D01*
X743767D01*
X744434Y21667D01*
Y24333D01*
X743767Y24999D01*
X741768D01*
X745767Y21001D02*
X747100D01*
X746433D01*
Y24999D01*
X745767Y24333D01*
X749099Y21001D02*
X750432D01*
X749765D01*
Y24999D01*
X749099Y24333D01*
X785002Y59399D02*
Y55401D01*
X787001D01*
X787667Y56067D01*
Y58733D01*
X787001Y59399D01*
X785002D01*
X789000Y55401D02*
X790333D01*
X789667D01*
Y59399D01*
X789000Y58733D01*
X792333D02*
X792999Y59399D01*
X794332D01*
X794998Y58733D01*
Y56067D01*
X794332Y55401D01*
X792999D01*
X792333Y56067D01*
Y58733D01*
X848268Y488799D02*
Y484801D01*
X850267D01*
X850934Y485467D01*
Y488133D01*
X850267Y488799D01*
X848268D01*
X852266Y488133D02*
X852933Y488799D01*
X854266D01*
X854932Y488133D01*
Y487467D01*
X854266Y486800D01*
X854932Y486133D01*
Y485467D01*
X854266Y484801D01*
X852933D01*
X852266Y485467D01*
Y486133D01*
X852933Y486800D01*
X852266Y487467D01*
Y488133D01*
X852933Y486800D02*
X854266D01*
X443418Y555799D02*
Y551801D01*
X445417D01*
X446083Y552467D01*
Y555133D01*
X445417Y555799D01*
X443418D01*
X447416D02*
X450082D01*
Y555133D01*
X447416Y552467D01*
Y551801D01*
X354368Y555599D02*
Y551601D01*
X356367D01*
X357034Y552267D01*
Y554933D01*
X356367Y555599D01*
X354368D01*
X361032D02*
X359699Y554933D01*
X358366Y553600D01*
Y552267D01*
X359033Y551601D01*
X360366D01*
X361032Y552267D01*
Y552934D01*
X360366Y553600D01*
X358366D01*
X442668Y589499D02*
Y585501D01*
X444667D01*
X445334Y586167D01*
Y588833D01*
X444667Y589499D01*
X442668D01*
X449332D02*
X446666D01*
Y587500D01*
X447999Y588167D01*
X448666D01*
X449332Y587500D01*
Y586167D01*
X448666Y585501D01*
X447333D01*
X446666Y586167D01*
X354668Y589099D02*
Y585101D01*
X356667D01*
X357333Y585767D01*
Y588433D01*
X356667Y589099D01*
X354668D01*
X360666Y585101D02*
Y589099D01*
X358666Y587100D01*
X361332D01*
X717568Y836899D02*
Y832901D01*
X719567D01*
X720234Y833567D01*
Y836233D01*
X719567Y836899D01*
X717568D01*
X721566Y836233D02*
X722233Y836899D01*
X723566D01*
X724232Y836233D01*
Y835566D01*
X723566Y834900D01*
X722899D01*
X723566D01*
X724232Y834234D01*
Y833567D01*
X723566Y832901D01*
X722233D01*
X721566Y833567D01*
X457168Y711899D02*
Y707901D01*
X459167D01*
X459833Y708567D01*
Y711233D01*
X459167Y711899D01*
X457168D01*
X463832Y707901D02*
X461166D01*
X463832Y710566D01*
Y711233D01*
X463166Y711899D01*
X461833D01*
X461166Y711233D01*
X167034Y714399D02*
Y710401D01*
X169034D01*
X169700Y711067D01*
Y713733D01*
X169034Y714399D01*
X167034D01*
X171033Y710401D02*
X172366D01*
X171699D01*
Y714399D01*
X171033Y713733D01*
X850568Y129333D02*
X849902Y129999D01*
X848569D01*
X847902Y129333D01*
Y126667D01*
X848569Y126001D01*
X849902D01*
X850568Y126667D01*
X851901Y126001D02*
Y129999D01*
X853900D01*
X854567Y129333D01*
Y128000D01*
X853900Y127334D01*
X851901D01*
X853234D02*
X854567Y126001D01*
X855900D02*
X857233D01*
X856566D01*
Y129999D01*
X855900Y129333D01*
X861898Y129999D02*
X860565Y129333D01*
X859232Y128000D01*
Y126667D01*
X859898Y126001D01*
X861231D01*
X861898Y126667D01*
Y127334D01*
X861231Y128000D01*
X859232D01*
X872268Y129408D02*
X871602Y130074D01*
X870269D01*
X869602Y129408D01*
Y126742D01*
X870269Y126076D01*
X871602D01*
X872268Y126742D01*
X873601Y126076D02*
Y130074D01*
X875600D01*
X876267Y129408D01*
Y128075D01*
X875600Y127409D01*
X873601D01*
X874934D02*
X876267Y126076D01*
X877600D02*
X878933D01*
X878266D01*
Y130074D01*
X877600Y129408D01*
X883598Y130074D02*
X880932D01*
Y128075D01*
X882265Y128742D01*
X882931D01*
X883598Y128075D01*
Y126742D01*
X882931Y126076D01*
X881598D01*
X880932Y126742D01*
X866368Y747333D02*
X865702Y747999D01*
X864369D01*
X863702Y747333D01*
Y744667D01*
X864369Y744001D01*
X865702D01*
X866368Y744667D01*
X867701Y744001D02*
Y747999D01*
X869700D01*
X870367Y747333D01*
Y746000D01*
X869700Y745334D01*
X867701D01*
X869034D02*
X870367Y744001D01*
X871700D02*
X873033D01*
X872366D01*
Y747999D01*
X871700Y747333D01*
X877031Y744001D02*
Y747999D01*
X875032Y746000D01*
X877698D01*
X865868Y760633D02*
X865202Y761299D01*
X863869D01*
X863202Y760633D01*
Y757967D01*
X863869Y757301D01*
X865202D01*
X865868Y757967D01*
X867201Y757301D02*
Y761299D01*
X869200D01*
X869867Y760633D01*
Y759300D01*
X869200Y758634D01*
X867201D01*
X868534D02*
X869867Y757301D01*
X871200D02*
X872533D01*
X871866D01*
Y761299D01*
X871200Y760633D01*
X874532D02*
X875198Y761299D01*
X876531D01*
X877198Y760633D01*
Y759967D01*
X876531Y759300D01*
X875865D01*
X876531D01*
X877198Y758634D01*
Y757967D01*
X876531Y757301D01*
X875198D01*
X874532Y757967D01*
X817868Y569633D02*
X817202Y570299D01*
X815869D01*
X815202Y569633D01*
Y566967D01*
X815869Y566301D01*
X817202D01*
X817868Y566967D01*
X819201Y566301D02*
Y570299D01*
X821200D01*
X821867Y569633D01*
Y568300D01*
X821200Y567634D01*
X819201D01*
X820534D02*
X821867Y566301D01*
X823200D02*
X824533D01*
X823866D01*
Y570299D01*
X823200Y569633D01*
X829198Y566301D02*
X826532D01*
X829198Y568966D01*
Y569633D01*
X828531Y570299D01*
X827198D01*
X826532Y569633D01*
X787635Y576733D02*
X786968Y577399D01*
X785635D01*
X784969Y576733D01*
Y574067D01*
X785635Y573401D01*
X786968D01*
X787635Y574067D01*
X788967Y573401D02*
Y577399D01*
X790967D01*
X791633Y576733D01*
Y575400D01*
X790967Y574734D01*
X788967D01*
X790300D02*
X791633Y573401D01*
X792966D02*
X794299D01*
X793633D01*
Y577399D01*
X792966Y576733D01*
X796298Y573401D02*
X797631D01*
X796965D01*
Y577399D01*
X796298Y576733D01*
X817468Y530633D02*
X816802Y531299D01*
X815469D01*
X814802Y530633D01*
Y527967D01*
X815469Y527301D01*
X816802D01*
X817468Y527967D01*
X818801Y527301D02*
Y531299D01*
X820800D01*
X821467Y530633D01*
Y529300D01*
X820800Y528634D01*
X818801D01*
X820134D02*
X821467Y527301D01*
X822800D02*
X824133D01*
X823466D01*
Y531299D01*
X822800Y530633D01*
X826132D02*
X826798Y531299D01*
X828131D01*
X828798Y530633D01*
Y527967D01*
X828131Y527301D01*
X826798D01*
X826132Y527967D01*
Y530633D01*
X789334Y597733D02*
X788668Y598399D01*
X787335D01*
X786668Y597733D01*
Y595067D01*
X787335Y594401D01*
X788668D01*
X789334Y595067D01*
X790667Y594401D02*
Y598399D01*
X792666D01*
X793333Y597733D01*
Y596400D01*
X792666Y595734D01*
X790667D01*
X792000D02*
X793333Y594401D01*
X794666Y595067D02*
X795332Y594401D01*
X796665D01*
X797332Y595067D01*
Y597733D01*
X796665Y598399D01*
X795332D01*
X794666Y597733D01*
Y597066D01*
X795332Y596400D01*
X797332D01*
X822134Y606033D02*
X821468Y606699D01*
X820135D01*
X819468Y606033D01*
Y603367D01*
X820135Y602701D01*
X821468D01*
X822134Y603367D01*
X823467Y602701D02*
Y606699D01*
X825467D01*
X826133Y606033D01*
Y604700D01*
X825467Y604034D01*
X823467D01*
X824800D02*
X826133Y602701D01*
X827466Y606033D02*
X828132Y606699D01*
X829465D01*
X830132Y606033D01*
Y605367D01*
X829465Y604700D01*
X830132Y604034D01*
Y603367D01*
X829465Y602701D01*
X828132D01*
X827466Y603367D01*
Y604034D01*
X828132Y604700D01*
X827466Y605367D01*
Y606033D01*
X828132Y604700D02*
X829465D01*
X806234Y638133D02*
X805568Y638799D01*
X804235D01*
X803568Y638133D01*
Y635467D01*
X804235Y634801D01*
X805568D01*
X806234Y635467D01*
X807567Y634801D02*
Y638799D01*
X809566D01*
X810233Y638133D01*
Y636800D01*
X809566Y636134D01*
X807567D01*
X808900D02*
X810233Y634801D01*
X811566Y638799D02*
X814232D01*
Y638133D01*
X811566Y635467D01*
Y634801D01*
X954392Y331434D02*
X953726Y330768D01*
Y329435D01*
X954392Y328768D01*
X957058D01*
X957724Y329435D01*
Y330768D01*
X957058Y331434D01*
X957724Y332767D02*
X953726D01*
Y334767D01*
X954392Y335433D01*
X955725D01*
X956392Y334767D01*
Y332767D01*
Y334100D02*
X957724Y335433D01*
X953726Y339432D02*
X954392Y338099D01*
X955725Y336766D01*
X957058D01*
X957724Y337432D01*
Y338765D01*
X957058Y339432D01*
X956392D01*
X955725Y338765D01*
Y336766D01*
X908494Y326813D02*
X907828Y327479D01*
X906495D01*
X905828Y326813D01*
Y324147D01*
X906495Y323481D01*
X907828D01*
X908494Y324147D01*
X909827Y323481D02*
Y327479D01*
X911826D01*
X912493Y326813D01*
Y325480D01*
X911826Y324813D01*
X909827D01*
X911160D02*
X912493Y323481D01*
X916492Y327479D02*
X913826D01*
Y325480D01*
X915159Y326147D01*
X915825D01*
X916492Y325480D01*
Y324147D01*
X915825Y323481D01*
X914492D01*
X913826Y324147D01*
X946167Y420734D02*
X945501Y420068D01*
Y418735D01*
X946167Y418068D01*
X948833D01*
X949499Y418735D01*
Y420068D01*
X948833Y420734D01*
X949499Y422067D02*
X945501D01*
Y424067D01*
X946167Y424733D01*
X947500D01*
X948167Y424067D01*
Y422067D01*
Y423400D02*
X949499Y424733D01*
Y428065D02*
X945501D01*
X947500Y426066D01*
Y428732D01*
X925467Y421034D02*
X924801Y420368D01*
Y419035D01*
X925467Y418368D01*
X928133D01*
X928799Y419035D01*
Y420368D01*
X928133Y421034D01*
X928799Y422367D02*
X924801D01*
Y424366D01*
X925467Y425033D01*
X926800D01*
X927466Y424366D01*
Y422367D01*
Y423700D02*
X928799Y425033D01*
X925467Y426366D02*
X924801Y427032D01*
Y428365D01*
X925467Y429032D01*
X926133D01*
X926800Y428365D01*
Y427699D01*
Y428365D01*
X927466Y429032D01*
X928133D01*
X928799Y428365D01*
Y427032D01*
X928133Y426366D01*
X609534Y427333D02*
X608868Y427999D01*
X607535D01*
X606868Y427333D01*
Y424667D01*
X607535Y424001D01*
X608868D01*
X609534Y424667D01*
X610867Y424001D02*
Y427999D01*
X612867D01*
X613533Y427333D01*
Y426000D01*
X612867Y425334D01*
X610867D01*
X612200D02*
X613533Y424001D01*
X617532D02*
X614866D01*
X617532Y426666D01*
Y427333D01*
X616865Y427999D01*
X615532D01*
X614866Y427333D01*
X688092Y530501D02*
X687426Y529834D01*
Y528501D01*
X688092Y527835D01*
X690758D01*
X691424Y528501D01*
Y529834D01*
X690758Y530501D01*
X691424Y531834D02*
X687426D01*
Y533833D01*
X688092Y534499D01*
X689425D01*
X690091Y533833D01*
Y531834D01*
Y533166D02*
X691424Y534499D01*
Y535832D02*
Y537165D01*
Y536499D01*
X687426D01*
X688092Y535832D01*
X875934Y217733D02*
X875268Y218399D01*
X873935D01*
X873268Y217733D01*
Y215067D01*
X873935Y214401D01*
X875268D01*
X875934Y215067D01*
X877267Y217733D02*
X877934Y218399D01*
X879267D01*
X879933Y217733D01*
Y217066D01*
X879267Y216400D01*
X878600D01*
X879267D01*
X879933Y215734D01*
Y215067D01*
X879267Y214401D01*
X877934D01*
X877267Y215067D01*
X881266D02*
X881932Y214401D01*
X883265D01*
X883932Y215067D01*
Y217733D01*
X883265Y218399D01*
X881932D01*
X881266Y217733D01*
Y217066D01*
X881932Y216400D01*
X883932D01*
X850934Y197633D02*
X850268Y198299D01*
X848935D01*
X848268Y197633D01*
Y194967D01*
X848935Y194301D01*
X850268D01*
X850934Y194967D01*
X852267Y197633D02*
X852934Y198299D01*
X854267D01*
X854933Y197633D01*
Y196966D01*
X854267Y196300D01*
X853600D01*
X854267D01*
X854933Y195634D01*
Y194967D01*
X854267Y194301D01*
X852934D01*
X852267Y194967D01*
X856266Y197633D02*
X856932Y198299D01*
X858265D01*
X858932Y197633D01*
Y196966D01*
X858265Y196300D01*
X858932Y195634D01*
Y194967D01*
X858265Y194301D01*
X856932D01*
X856266Y194967D01*
Y195634D01*
X856932Y196300D01*
X856266Y196966D01*
Y197633D01*
X856932Y196300D02*
X858265D01*
X807934Y221133D02*
X807268Y221799D01*
X805935D01*
X805268Y221133D01*
Y218467D01*
X805935Y217801D01*
X807268D01*
X807934Y218467D01*
X809267Y221133D02*
X809934Y221799D01*
X811266D01*
X811933Y221133D01*
Y220466D01*
X811266Y219800D01*
X810600D01*
X811266D01*
X811933Y219133D01*
Y218467D01*
X811266Y217801D01*
X809934D01*
X809267Y218467D01*
X813266Y221799D02*
X815932D01*
Y221133D01*
X813266Y218467D01*
Y217801D01*
X473372Y526357D02*
X472430D01*
X471488Y525415D01*
Y524473D01*
X473372Y522588D01*
X474315D01*
X475257Y523530D01*
Y524473D01*
X474315Y527300D02*
Y528242D01*
X475257Y529185D01*
X476200D01*
X476671Y528714D01*
Y527771D01*
X476200Y527300D01*
X476671Y527771D01*
X477614Y527771D01*
X478085Y527300D01*
Y526357D01*
X477142Y525415D01*
X476200D01*
X478556Y532484D02*
X478085Y531070D01*
Y529185D01*
X479027Y528242D01*
X479970D01*
X480913Y529185D01*
Y530127D01*
X480441Y530599D01*
X479499Y530599D01*
X478085Y529185D01*
X814367Y584654D02*
X813701Y583988D01*
Y582655D01*
X814367Y581988D01*
X817033D01*
X817699Y582655D01*
Y583988D01*
X817033Y584654D01*
X814367Y585987D02*
X813701Y586654D01*
Y587986D01*
X814367Y588653D01*
X815033D01*
X815700Y587986D01*
Y587320D01*
Y587986D01*
X816366Y588653D01*
X817033D01*
X817699Y587986D01*
Y586654D01*
X817033Y585987D01*
X813701Y592652D02*
Y589986D01*
X815700D01*
X815033Y591319D01*
Y591985D01*
X815700Y592652D01*
X817033D01*
X817699Y591985D01*
Y590652D01*
X817033Y589986D01*
X755834Y571533D02*
X755168Y572199D01*
X753835D01*
X753168Y571533D01*
Y568867D01*
X753835Y568201D01*
X755168D01*
X755834Y568867D01*
X757167Y571533D02*
X757834Y572199D01*
X759166D01*
X759833Y571533D01*
Y570867D01*
X759166Y570200D01*
X758500D01*
X759166D01*
X759833Y569534D01*
Y568867D01*
X759166Y568201D01*
X757834D01*
X757167Y568867D01*
X763165Y568201D02*
Y572199D01*
X761166Y570200D01*
X763832D01*
X602734Y55033D02*
X602068Y55699D01*
X600735D01*
X600068Y55033D01*
Y52367D01*
X600735Y51701D01*
X602068D01*
X602734Y52367D01*
X604067Y55033D02*
X604734Y55699D01*
X606067D01*
X606733Y55033D01*
Y54366D01*
X606067Y53700D01*
X605400D01*
X606067D01*
X606733Y53033D01*
Y52367D01*
X606067Y51701D01*
X604734D01*
X604067Y52367D01*
X608066Y55033D02*
X608732Y55699D01*
X610065D01*
X610732Y55033D01*
Y54366D01*
X610065Y53700D01*
X609399D01*
X610065D01*
X610732Y53033D01*
Y52367D01*
X610065Y51701D01*
X608732D01*
X608066Y52367D01*
X763634Y140633D02*
X762968Y141299D01*
X761635D01*
X760968Y140633D01*
Y137967D01*
X761635Y137301D01*
X762968D01*
X763634Y137967D01*
X764967Y140633D02*
X765633Y141299D01*
X766966D01*
X767633Y140633D01*
Y139966D01*
X766966Y139300D01*
X766300D01*
X766966D01*
X767633Y138634D01*
Y137967D01*
X766966Y137301D01*
X765633D01*
X764967Y137967D01*
X771632Y137301D02*
X768966D01*
X771632Y139966D01*
Y140633D01*
X770965Y141299D01*
X769632D01*
X768966Y140633D01*
X727201Y141333D02*
X726534Y141999D01*
X725201D01*
X724535Y141333D01*
Y138667D01*
X725201Y138001D01*
X726534D01*
X727201Y138667D01*
X728533Y141333D02*
X729200Y141999D01*
X730533D01*
X731199Y141333D01*
Y140667D01*
X730533Y140000D01*
X729866D01*
X730533D01*
X731199Y139334D01*
Y138667D01*
X730533Y138001D01*
X729200D01*
X728533Y138667D01*
X732532Y138001D02*
X733865D01*
X733199D01*
Y141999D01*
X732532Y141333D01*
X573234Y124733D02*
X572568Y125399D01*
X571235D01*
X570568Y124733D01*
Y122067D01*
X571235Y121401D01*
X572568D01*
X573234Y122067D01*
X574567Y124733D02*
X575234Y125399D01*
X576567D01*
X577233Y124733D01*
Y124066D01*
X576567Y123400D01*
X575900D01*
X576567D01*
X577233Y122734D01*
Y122067D01*
X576567Y121401D01*
X575234D01*
X574567Y122067D01*
X578566Y124733D02*
X579232Y125399D01*
X580565D01*
X581232Y124733D01*
Y122067D01*
X580565Y121401D01*
X579232D01*
X578566Y122067D01*
Y124733D01*
X552134Y124533D02*
X551468Y125199D01*
X550135D01*
X549468Y124533D01*
Y121867D01*
X550135Y121201D01*
X551468D01*
X552134Y121867D01*
X556133Y121201D02*
X553467D01*
X556133Y123867D01*
Y124533D01*
X555466Y125199D01*
X554134D01*
X553467Y124533D01*
X557466Y121867D02*
X558132Y121201D01*
X559465D01*
X560132Y121867D01*
Y124533D01*
X559465Y125199D01*
X558132D01*
X557466Y124533D01*
Y123867D01*
X558132Y123200D01*
X560132D01*
X531834Y124333D02*
X531168Y124999D01*
X529835D01*
X529168Y124333D01*
Y121667D01*
X529835Y121001D01*
X531168D01*
X531834Y121667D01*
X535833Y121001D02*
X533167D01*
X535833Y123666D01*
Y124333D01*
X535167Y124999D01*
X533834D01*
X533167Y124333D01*
X537166D02*
X537832Y124999D01*
X539165D01*
X539832Y124333D01*
Y123666D01*
X539165Y123000D01*
X539832Y122334D01*
Y121667D01*
X539165Y121001D01*
X537832D01*
X537166Y121667D01*
Y122334D01*
X537832Y123000D01*
X537166Y123666D01*
Y124333D01*
X537832Y123000D02*
X539165D01*
X619434Y159833D02*
X618768Y160499D01*
X617435D01*
X616768Y159833D01*
Y157167D01*
X617435Y156501D01*
X618768D01*
X619434Y157167D01*
X623433Y156501D02*
X620767D01*
X623433Y159166D01*
Y159833D01*
X622766Y160499D01*
X621434D01*
X620767Y159833D01*
X624766Y160499D02*
X627432D01*
Y159833D01*
X624766Y157167D01*
Y156501D01*
X749534Y427133D02*
X748868Y427799D01*
X747535D01*
X746868Y427133D01*
Y424467D01*
X747535Y423801D01*
X748868D01*
X749534Y424467D01*
X753533Y423801D02*
X750867D01*
X753533Y426466D01*
Y427133D01*
X752866Y427799D01*
X751534D01*
X750867Y427133D01*
X757532Y427799D02*
X756199Y427133D01*
X754866Y425800D01*
Y424467D01*
X755532Y423801D01*
X756865D01*
X757532Y424467D01*
Y425134D01*
X756865Y425800D01*
X754866D01*
X819534Y481533D02*
X818868Y482199D01*
X817535D01*
X816868Y481533D01*
Y478867D01*
X817535Y478201D01*
X818868D01*
X819534Y478867D01*
X823533Y478201D02*
X820867D01*
X823533Y480867D01*
Y481533D01*
X822867Y482199D01*
X821534D01*
X820867Y481533D01*
X827532Y482199D02*
X824866D01*
Y480200D01*
X826199Y480867D01*
X826865D01*
X827532Y480200D01*
Y478867D01*
X826865Y478201D01*
X825532D01*
X824866Y478867D01*
X738434Y488133D02*
X737768Y488799D01*
X736435D01*
X735768Y488133D01*
Y485467D01*
X736435Y484801D01*
X737768D01*
X738434Y485467D01*
X742433Y484801D02*
X739767D01*
X742433Y487467D01*
Y488133D01*
X741767Y488799D01*
X740434D01*
X739767Y488133D01*
X745765Y484801D02*
Y488799D01*
X743766Y486800D01*
X746432D01*
X506134Y815833D02*
X505468Y816499D01*
X504135D01*
X503468Y815833D01*
Y813167D01*
X504135Y812501D01*
X505468D01*
X506134Y813167D01*
X510133Y812501D02*
X507467D01*
X510133Y815166D01*
Y815833D01*
X509467Y816499D01*
X508134D01*
X507467Y815833D01*
X511466D02*
X512132Y816499D01*
X513465D01*
X514132Y815833D01*
Y815166D01*
X513465Y814500D01*
X512799D01*
X513465D01*
X514132Y813834D01*
Y813167D01*
X513465Y812501D01*
X512132D01*
X511466Y813167D01*
X662434Y765533D02*
X661768Y766199D01*
X660435D01*
X659768Y765533D01*
Y762867D01*
X660435Y762201D01*
X661768D01*
X662434Y762867D01*
X666433Y762201D02*
X663767D01*
X666433Y764866D01*
Y765533D01*
X665767Y766199D01*
X664434D01*
X663767Y765533D01*
X670432Y762201D02*
X667766D01*
X670432Y764866D01*
Y765533D01*
X669765Y766199D01*
X668432D01*
X667766Y765533D01*
X668034Y549833D02*
X667368Y550499D01*
X666035D01*
X665368Y549833D01*
Y547167D01*
X666035Y546501D01*
X667368D01*
X668034Y547167D01*
X672033Y546501D02*
X669367D01*
X672033Y549166D01*
Y549833D01*
X671367Y550499D01*
X670034D01*
X669367Y549833D01*
X673366D02*
X674032Y550499D01*
X675365D01*
X676032Y549833D01*
Y547167D01*
X675365Y546501D01*
X674032D01*
X673366Y547167D01*
Y549833D01*
X515567Y593933D02*
X514901Y594599D01*
X513568D01*
X512902Y593933D01*
Y591267D01*
X513568Y590601D01*
X514901D01*
X515567Y591267D01*
X516900Y590601D02*
X518233D01*
X517567D01*
Y594599D01*
X516900Y593933D01*
X520233Y591267D02*
X520899Y590601D01*
X522232D01*
X522898Y591267D01*
Y593933D01*
X522232Y594599D01*
X520899D01*
X520233Y593933D01*
Y593266D01*
X520899Y592600D01*
X522898D01*
X533367Y760013D02*
X532701Y760679D01*
X531368D01*
X530702Y760013D01*
Y757347D01*
X531368Y756681D01*
X532701D01*
X533367Y757347D01*
X534700Y756681D02*
X536033D01*
X535367D01*
Y760679D01*
X534700Y760013D01*
X538033D02*
X538699Y760679D01*
X540032D01*
X540698Y760013D01*
Y759346D01*
X540032Y758680D01*
X540698Y758014D01*
Y757347D01*
X540032Y756681D01*
X538699D01*
X538033Y757347D01*
Y758014D01*
X538699Y758680D01*
X538033Y759346D01*
Y760013D01*
X538699Y758680D02*
X540032D01*
X718567Y793833D02*
X717901Y794499D01*
X716568D01*
X715902Y793833D01*
Y791167D01*
X716568Y790501D01*
X717901D01*
X718567Y791167D01*
X719900Y790501D02*
X721233D01*
X720567D01*
Y794499D01*
X719900Y793833D01*
X723233Y794499D02*
X725898D01*
Y793833D01*
X723233Y791167D01*
Y790501D01*
X733867Y778133D02*
X733201Y778799D01*
X731868D01*
X731202Y778133D01*
Y775467D01*
X731868Y774801D01*
X733201D01*
X733867Y775467D01*
X735200Y774801D02*
X736533D01*
X735867D01*
Y778799D01*
X735200Y778133D01*
X741198Y778799D02*
X739865Y778133D01*
X738533Y776800D01*
Y775467D01*
X739199Y774801D01*
X740532D01*
X741198Y775467D01*
Y776134D01*
X740532Y776800D01*
X738533D01*
X699867Y793933D02*
X699201Y794599D01*
X697868D01*
X697202Y793933D01*
Y791267D01*
X697868Y790601D01*
X699201D01*
X699867Y791267D01*
X701200Y790601D02*
X702533D01*
X701867D01*
Y794599D01*
X701200Y793933D01*
X707198Y794599D02*
X704533D01*
Y792600D01*
X705865Y793267D01*
X706532D01*
X707198Y792600D01*
Y791267D01*
X706532Y790601D01*
X705199D01*
X704533Y791267D01*
X683367Y776253D02*
X682701Y776919D01*
X681368D01*
X680702Y776253D01*
Y773587D01*
X681368Y772921D01*
X682701D01*
X683367Y773587D01*
X684700Y772921D02*
X686033D01*
X685367D01*
Y776919D01*
X684700Y776253D01*
X690032Y772921D02*
Y776919D01*
X688033Y774920D01*
X690698D01*
X546167Y785933D02*
X545501Y786599D01*
X544168D01*
X543502Y785933D01*
Y783267D01*
X544168Y782601D01*
X545501D01*
X546167Y783267D01*
X547500Y782601D02*
X548833D01*
X548167D01*
Y786599D01*
X547500Y785933D01*
X550833D02*
X551499Y786599D01*
X552832D01*
X553498Y785933D01*
Y785266D01*
X552832Y784600D01*
X552165D01*
X552832D01*
X553498Y783933D01*
Y783267D01*
X552832Y782601D01*
X551499D01*
X550833Y783267D01*
X530867Y299533D02*
X530201Y300199D01*
X528868D01*
X528202Y299533D01*
Y296867D01*
X528868Y296201D01*
X530201D01*
X530867Y296867D01*
X532200Y296201D02*
X533533D01*
X532867D01*
Y300199D01*
X532200Y299533D01*
X535533D02*
X536199Y300199D01*
X537532D01*
X538198Y299533D01*
Y296867D01*
X537532Y296201D01*
X536199D01*
X535533Y296867D01*
Y299533D01*
X735034Y655933D02*
X734367Y656599D01*
X733034D01*
X732368Y655933D01*
Y653267D01*
X733034Y652601D01*
X734367D01*
X735034Y653267D01*
X736366D02*
X737033Y652601D01*
X738366D01*
X739032Y653267D01*
Y655933D01*
X738366Y656599D01*
X737033D01*
X736366Y655933D01*
Y655266D01*
X737033Y654600D01*
X739032D01*
X734734Y624133D02*
X734067Y624799D01*
X732734D01*
X732068Y624133D01*
Y621467D01*
X732734Y620801D01*
X734067D01*
X734734Y621467D01*
X736066Y624133D02*
X736733Y624799D01*
X738066D01*
X738732Y624133D01*
Y623466D01*
X738066Y622800D01*
X738732Y622134D01*
Y621467D01*
X738066Y620801D01*
X736733D01*
X736066Y621467D01*
Y622134D01*
X736733Y622800D01*
X736066Y623466D01*
Y624133D01*
X736733Y622800D02*
X738066D01*
X797434Y675033D02*
X796767Y675699D01*
X795434D01*
X794768Y675033D01*
Y672367D01*
X795434Y671701D01*
X796767D01*
X797434Y672367D01*
X798766Y675699D02*
X801432D01*
Y675033D01*
X798766Y672367D01*
Y671701D01*
X299334Y345733D02*
X298667Y346399D01*
X297334D01*
X296668Y345733D01*
Y343067D01*
X297334Y342401D01*
X298667D01*
X299334Y343067D01*
X303332Y346399D02*
X301999Y345733D01*
X300667Y344400D01*
Y343067D01*
X301333Y342401D01*
X302666D01*
X303332Y343067D01*
Y343734D01*
X302666Y344400D01*
X300667D01*
X751886Y675771D02*
X750944D01*
X750001Y674829D01*
Y673886D01*
X751886Y672001D01*
X752829D01*
X753771Y672944D01*
Y673886D01*
X754242Y679070D02*
X752357Y677185D01*
X753771Y675771D01*
X754242Y677185D01*
X754714Y677656D01*
X755656D01*
X756599Y676714D01*
Y675771D01*
X755656Y674829D01*
X754714D01*
X753286Y723471D02*
X752344D01*
X751401Y722529D01*
Y721586D01*
X753286Y719701D01*
X754229D01*
X755171Y720644D01*
Y721586D01*
X757999Y723471D02*
X755171Y726299D01*
X755171Y723471D01*
X757056Y725356D01*
X427034Y346633D02*
X426367Y347299D01*
X425034D01*
X424368Y346633D01*
Y343967D01*
X425034Y343301D01*
X426367D01*
X427034Y343967D01*
X428366Y346633D02*
X429033Y347299D01*
X430366D01*
X431032Y346633D01*
Y345966D01*
X430366Y345300D01*
X429699D01*
X430366D01*
X431032Y344633D01*
Y343967D01*
X430366Y343301D01*
X429033D01*
X428366Y343967D01*
X822634Y647033D02*
X821967Y647699D01*
X820634D01*
X819968Y647033D01*
Y644367D01*
X820634Y643701D01*
X821967D01*
X822634Y644367D01*
X826632Y643701D02*
X823966D01*
X826632Y646367D01*
Y647033D01*
X825966Y647699D01*
X824633D01*
X823966Y647033D01*
X567000Y827833D02*
X566334Y828499D01*
X565001D01*
X564334Y827833D01*
Y825167D01*
X565001Y824501D01*
X566334D01*
X567000Y825167D01*
X568333Y824501D02*
X569666D01*
X568999D01*
Y828499D01*
X568333Y827833D01*
D12*
X671878Y828425D02*
G03*
X671878Y828425I-762J0D01*
G01*
X586330Y804379D02*
G03*
X586330Y804379I-1270J0D01*
G01*
X471602Y484003D02*
X473614Y486014D01*
X547899Y481992D02*
X549910Y484003D01*
X510756Y444849D02*
X512767Y446860D01*
X471602Y484003D02*
X510756Y444849D01*
X508745Y521146D02*
X510756Y523157D01*
X549910Y484003D01*
X709729Y631428D02*
Y644372D01*
X728271Y631428D02*
Y644372D01*
X703755Y825021D02*
Y835410D01*
X687245D02*
X703755D01*
Y802390D02*
Y812779D01*
X687245Y802390D02*
X703755D01*
X687245Y815496D02*
Y822304D01*
X770430Y436130D02*
X802970D01*
X770430Y468670D02*
X802970D01*
X596490Y825842D02*
X606833D01*
X596490Y809332D02*
Y825842D01*
X619167D02*
X629510D01*
Y809332D02*
Y825842D01*
X609667Y809332D02*
X616333D01*
X636082Y43294D02*
X645671D01*
Y56506D01*
X636082D02*
X645671D01*
X617969Y43294D02*
X627558D01*
X617969D02*
Y56506D01*
X627558D01*
D13*
X415150Y686350D02*
G03*
X415150Y686350I-1250J0D01*
G01*
X699450Y602200D02*
G03*
X699450Y602200I-1250J0D01*
G01*
D14*
X326500Y687400D02*
G03*
X326500Y687400I-69500J0D01*
G01*
X445500Y140800D02*
Y267800D01*
X514100Y140800D02*
Y267800D01*
X445500D02*
X462725D01*
X496875D02*
X514100D01*
X445500Y140800D02*
X462725D01*
X496875D02*
X514100D01*
X496875Y7100D02*
X514100D01*
X445500D02*
X462725D01*
X496875Y134100D02*
X514100D01*
X445500D02*
X462725D01*
X514100Y7100D02*
Y134100D01*
X445500Y7100D02*
Y134100D01*
X238000Y163850D02*
Y231150D01*
Y163850D02*
X398000D01*
Y231150D01*
X238000D02*
X398000D01*
X238600Y119850D02*
X398600D01*
Y52550D02*
Y119850D01*
X238600Y52550D02*
X398600D01*
X238600D02*
Y119850D01*
X591500Y82900D02*
X594550D01*
X591500D02*
Y84150D01*
X613450Y112900D02*
X621500D01*
Y111050D02*
Y112900D01*
X591500D02*
X594550D01*
X591500Y112600D02*
Y112900D01*
X618450Y82900D02*
X621500D01*
Y84150D01*
Y93050D02*
Y97150D01*
X591500Y101000D02*
Y102200D01*
X807900Y237650D02*
X810900D01*
X844900D02*
X847900D01*
X807900Y277650D02*
X810900D01*
X844900D02*
X847900D01*
X807900Y237650D02*
Y240650D01*
X847900Y237650D02*
Y240650D01*
X807900Y274650D02*
Y277650D01*
X847900Y274650D02*
Y277650D01*
X748462Y686363D02*
X749593Y687495D01*
X730784Y704041D02*
X731915Y705172D01*
X943430Y841700D02*
Y894950D01*
Y959600D02*
Y999200D01*
X778330Y841700D02*
Y894950D01*
Y959600D02*
Y999200D01*
X943430D01*
X778330Y841700D02*
X943430D01*
X747750Y843300D02*
Y896550D01*
Y961200D02*
Y1000800D01*
X582650Y843300D02*
Y896550D01*
Y961200D02*
Y1000800D01*
X747750D01*
X582650Y843300D02*
X747750D01*
X545850Y842200D02*
Y895450D01*
Y960100D02*
Y999700D01*
X380750Y842200D02*
Y895450D01*
Y960100D02*
Y999700D01*
X545850D01*
X380750Y842200D02*
X545850D01*
X107000Y733510D02*
X160250D01*
X2750D02*
X42350D01*
X107000Y568410D02*
X160250D01*
X2750D02*
X42350D01*
X2750D02*
Y733510D01*
X160250Y568410D02*
Y733510D01*
X107000Y929890D02*
X160250D01*
X2750D02*
X42350D01*
X107000Y764790D02*
X160250D01*
X2750D02*
X42350D01*
X2750D02*
Y929890D01*
X160250Y764790D02*
Y929890D01*
X351850Y842400D02*
Y895650D01*
Y960300D02*
Y999900D01*
X186750Y842400D02*
Y895650D01*
Y960300D02*
Y999900D01*
X351850D01*
X186750Y842400D02*
X351850D01*
X166300Y667000D02*
X167450D01*
X181150D02*
X182300D01*
X166300Y694000D02*
X167450D01*
X181150D02*
X182300D01*
Y667000D02*
Y694000D01*
X166300Y667000D02*
Y694000D01*
X467400Y701850D02*
Y703000D01*
Y687000D02*
Y688150D01*
X494400Y701850D02*
Y703000D01*
Y687000D02*
Y688150D01*
X467400Y687000D02*
X494400D01*
X467400Y703000D02*
X494400D01*
X165750Y256300D02*
Y268300D01*
X159750Y262300D02*
X171750D01*
X2750Y92800D02*
Y247800D01*
X184750D01*
X2750Y92800D02*
X184750D01*
Y149580D02*
Y184020D01*
Y228580D02*
Y247800D01*
Y92800D02*
Y119520D01*
X751300Y107600D02*
Y112800D01*
X724300Y107600D02*
Y112800D01*
X787200Y107490D02*
Y112690D01*
X760200Y107490D02*
Y112690D01*
X820650Y745300D02*
X849150D01*
X820650Y762300D02*
X849150D01*
X856500Y144050D02*
Y172550D01*
X873500Y144050D02*
Y172550D01*
X172600Y609900D02*
X346600D01*
Y552400D02*
Y609900D01*
X172600Y552400D02*
X346600D01*
X172600D02*
Y609900D01*
X7500Y329300D02*
X181500D01*
Y271800D02*
Y329300D01*
X7500Y271800D02*
X181500D01*
X7500D02*
Y329300D01*
X790764Y182414D02*
Y356414D01*
X733264Y182414D02*
X790764D01*
X733264D02*
Y356414D01*
X790764D01*
X186900Y775300D02*
X335900D01*
X186900D02*
Y832800D01*
X335900D01*
Y775300D02*
Y832800D01*
X344800Y775700D02*
X493800D01*
X344800D02*
Y833200D01*
X493800D01*
Y775700D02*
Y833200D01*
X340300Y621300D02*
X489300D01*
X340300D02*
Y678800D01*
X489300D01*
Y621300D02*
Y678800D01*
X936800Y39300D02*
Y138300D01*
X994300D01*
Y39300D02*
Y138300D01*
X936800Y39300D02*
X994300D01*
X898000Y249100D02*
X997000D01*
X898000D02*
Y306600D01*
X997000D01*
Y249100D02*
Y306600D01*
X937000Y144900D02*
Y243900D01*
X994500D01*
Y144900D02*
Y243900D01*
X937000Y144900D02*
X994500D01*
X366990Y580392D02*
X399756D01*
X366990D02*
Y607570D01*
X399756D01*
Y580392D02*
Y607570D01*
X367244Y604014D02*
X370673Y607443D01*
X403940Y580292D02*
X436706D01*
X403940D02*
Y607470D01*
X436706D01*
Y580292D02*
Y607470D01*
X404194Y603914D02*
X407623Y607343D01*
X366890Y549992D02*
X399656D01*
X366890D02*
Y577170D01*
X399656D01*
Y549992D02*
Y577170D01*
X367144Y573614D02*
X370573Y577043D01*
X403640Y549992D02*
X436406D01*
X403640D02*
Y577170D01*
X436406D01*
Y549992D02*
Y577170D01*
X403894Y573614D02*
X407323Y577043D01*
X222000Y386700D02*
Y513700D01*
X428101Y386700D02*
Y513700D01*
Y380350D02*
Y386700D01*
Y367610D02*
Y380350D01*
X222000Y361300D02*
X428101D01*
X222000D02*
Y386700D01*
X428101Y361300D02*
Y367610D01*
Y513700D02*
Y520010D01*
X222000Y513700D02*
Y539100D01*
X428101Y520010D02*
Y532750D01*
X222000Y539100D02*
X428101D01*
Y532750D02*
Y539100D01*
X8100Y386200D02*
Y513200D01*
X214201Y386200D02*
Y513200D01*
Y379850D02*
Y386200D01*
Y367110D02*
Y379850D01*
X8100Y360800D02*
X214201D01*
X8100D02*
Y386200D01*
X214201Y360800D02*
Y367110D01*
Y513200D02*
Y519510D01*
X8100Y513200D02*
Y538600D01*
X214201Y519510D02*
Y532250D01*
X8100Y538600D02*
X214201D01*
Y532250D02*
Y538600D01*
X576114Y389414D02*
X703114D01*
X576114Y183313D02*
X703114D01*
X569764D02*
X576114D01*
X557024D02*
X569764D01*
X550714D02*
Y389414D01*
X576114D01*
X550714Y183313D02*
X557024D01*
X703114D02*
X709424D01*
X703114Y389414D02*
X728514D01*
X709424Y183313D02*
X722164D01*
X728514D02*
Y389414D01*
X722164Y183313D02*
X728514D01*
D15*
X657600Y120842D02*
X699125D01*
X657472Y162758D02*
X699001D01*
D16*
X443497Y302403D02*
X433500D01*
X438499Y297405D02*
Y307402D01*
X487303Y282903D02*
Y292900D01*
X482305Y287901D02*
X492302D01*
X310697Y302403D02*
X300700D01*
X305699Y297405D02*
Y307402D01*
M02*
