G04*
G04 #@! TF.GenerationSoftware,Altium Limited,Altium Designer,25.2.1 (25)*
G04*
G04 Layer_Color=255*
%FSLAX44Y44*%
%MOMM*%
G71*
G04*
G04 #@! TF.SameCoordinates,965F6EC9-4211-4512-97E5-58CA1C1A5C92*
G04*
G04*
G04 #@! TF.FilePolarity,Positive*
G04*
G01*
G75*
G04:AMPARAMS|DCode=17|XSize=0.6mm|YSize=0.25mm|CornerRadius=0.0625mm|HoleSize=0mm|Usage=FLASHONLY|Rotation=90.000|XOffset=0mm|YOffset=0mm|HoleType=Round|Shape=RoundedRectangle|*
%AMROUNDEDRECTD17*
21,1,0.6000,0.1250,0,0,90.0*
21,1,0.4750,0.2500,0,0,90.0*
1,1,0.1250,0.0625,0.2375*
1,1,0.1250,0.0625,-0.2375*
1,1,0.1250,-0.0625,-0.2375*
1,1,0.1250,-0.0625,0.2375*
%
%ADD17ROUNDEDRECTD17*%
G04:AMPARAMS|DCode=18|XSize=0.25mm|YSize=0.6mm|CornerRadius=0.0625mm|HoleSize=0mm|Usage=FLASHONLY|Rotation=90.000|XOffset=0mm|YOffset=0mm|HoleType=Round|Shape=RoundedRectangle|*
%AMROUNDEDRECTD18*
21,1,0.2500,0.4750,0,0,90.0*
21,1,0.1250,0.6000,0,0,90.0*
1,1,0.1250,0.2375,0.0625*
1,1,0.1250,0.2375,-0.0625*
1,1,0.1250,-0.2375,-0.0625*
1,1,0.1250,-0.2375,0.0625*
%
%ADD18ROUNDEDRECTD18*%
G04:AMPARAMS|DCode=20|XSize=0.84mm|YSize=0.26mm|CornerRadius=0.0325mm|HoleSize=0mm|Usage=FLASHONLY|Rotation=90.000|XOffset=0mm|YOffset=0mm|HoleType=Round|Shape=RoundedRectangle|*
%AMROUNDEDRECTD20*
21,1,0.8400,0.1950,0,0,90.0*
21,1,0.7750,0.2600,0,0,90.0*
1,1,0.0650,0.0975,0.3875*
1,1,0.0650,0.0975,-0.3875*
1,1,0.0650,-0.0975,-0.3875*
1,1,0.0650,-0.0975,0.3875*
%
%ADD20ROUNDEDRECTD20*%
G04:AMPARAMS|DCode=21|XSize=0.84mm|YSize=0.26mm|CornerRadius=0.0325mm|HoleSize=0mm|Usage=FLASHONLY|Rotation=180.000|XOffset=0mm|YOffset=0mm|HoleType=Round|Shape=RoundedRectangle|*
%AMROUNDEDRECTD21*
21,1,0.8400,0.1950,0,0,180.0*
21,1,0.7750,0.2600,0,0,180.0*
1,1,0.0650,-0.3875,0.0975*
1,1,0.0650,0.3875,0.0975*
1,1,0.0650,0.3875,-0.0975*
1,1,0.0650,-0.3875,-0.0975*
%
%ADD21ROUNDEDRECTD21*%
%ADD22R,0.5900X0.6000*%
%ADD23R,0.6000X0.5900*%
%ADD24R,1.1500X0.6000*%
%ADD25R,1.1500X0.3000*%
%ADD26R,0.6000X1.1500*%
%ADD27R,0.3000X1.1500*%
G04:AMPARAMS|DCode=28|XSize=0.635mm|YSize=0.635mm|CornerRadius=0.1588mm|HoleSize=0mm|Usage=FLASHONLY|Rotation=270.000|XOffset=0mm|YOffset=0mm|HoleType=Round|Shape=RoundedRectangle|*
%AMROUNDEDRECTD28*
21,1,0.6350,0.3175,0,0,270.0*
21,1,0.3175,0.6350,0,0,270.0*
1,1,0.3175,-0.1588,-0.1588*
1,1,0.3175,-0.1588,0.1588*
1,1,0.3175,0.1588,0.1588*
1,1,0.3175,0.1588,-0.1588*
%
%ADD28ROUNDEDRECTD28*%
G04:AMPARAMS|DCode=29|XSize=0.635mm|YSize=0.635mm|CornerRadius=0.1588mm|HoleSize=0mm|Usage=FLASHONLY|Rotation=180.000|XOffset=0mm|YOffset=0mm|HoleType=Round|Shape=RoundedRectangle|*
%AMROUNDEDRECTD29*
21,1,0.6350,0.3175,0,0,180.0*
21,1,0.3175,0.6350,0,0,180.0*
1,1,0.3175,-0.1588,0.1588*
1,1,0.3175,0.1588,0.1588*
1,1,0.3175,0.1588,-0.1588*
1,1,0.3175,-0.1588,-0.1588*
%
%ADD29ROUNDEDRECTD29*%
G04:AMPARAMS|DCode=30|XSize=0.635mm|YSize=0.635mm|CornerRadius=0.1588mm|HoleSize=0mm|Usage=FLASHONLY|Rotation=315.000|XOffset=0mm|YOffset=0mm|HoleType=Round|Shape=RoundedRectangle|*
%AMROUNDEDRECTD30*
21,1,0.6350,0.3175,0,0,315.0*
21,1,0.3175,0.6350,0,0,315.0*
1,1,0.3175,0.0000,-0.2245*
1,1,0.3175,-0.2245,0.0000*
1,1,0.3175,0.0000,0.2245*
1,1,0.3175,0.2245,0.0000*
%
%ADD30ROUNDEDRECTD30*%
%ADD31R,1.6000X0.7000*%
%ADD32R,1.5000X1.6000*%
%ADD33R,2.2000X1.2000*%
%ADD34R,1.5000X1.2000*%
G04:AMPARAMS|DCode=35|XSize=1.524mm|YSize=0.5334mm|CornerRadius=0mm|HoleSize=0mm|Usage=FLASHONLY|Rotation=135.000|XOffset=0mm|YOffset=0mm|HoleType=Round|Shape=Rectangle|*
%AMROTATEDRECTD35*
4,1,4,0.7274,-0.3502,0.3502,-0.7274,-0.7274,0.3502,-0.3502,0.7274,0.7274,-0.3502,0.0*
%
%ADD35ROTATEDRECTD35*%

%ADD36R,1.6000X3.5000*%
%ADD37R,1.6000X3.5000*%
%ADD38R,1.4700X1.2850*%
%ADD39R,1.3970X0.6096*%
G04:AMPARAMS|DCode=40|XSize=1.2mm|YSize=1.4mm|CornerRadius=0mm|HoleSize=0mm|Usage=FLASHONLY|Rotation=315.000|XOffset=0mm|YOffset=0mm|HoleType=Round|Shape=Rectangle|*
%AMROTATEDRECTD40*
4,1,4,-0.9192,-0.0707,0.0707,0.9192,0.9192,0.0707,-0.0707,-0.9192,-0.9192,-0.0707,0.0*
%
%ADD40ROTATEDRECTD40*%

%ADD41R,0.6000X1.2500*%
%ADD42R,1.2500X0.6000*%
%ADD43R,1.3208X0.5588*%
%ADD44R,0.3000X1.2000*%
%ADD45R,1.2000X0.3000*%
%ADD46R,1.0000X0.6000*%
%ADD47R,0.7300X0.9700*%
%ADD48R,0.9700X0.7300*%
%ADD49R,0.8890X0.8128*%
%ADD50R,2.7200X1.5300*%
%ADD51R,1.4700X1.1500*%
%ADD52R,1.1500X1.4700*%
%ADD53R,1.2100X0.7300*%
%ADD54R,0.7300X1.2100*%
%ADD55R,0.9300X0.8700*%
%ADD56R,0.8700X0.9300*%
G04:AMPARAMS|DCode=57|XSize=1.04mm|YSize=1.02mm|CornerRadius=0mm|HoleSize=0mm|Usage=FLASHONLY|Rotation=135.000|XOffset=0mm|YOffset=0mm|HoleType=Round|Shape=Rectangle|*
%AMROTATEDRECTD57*
4,1,4,0.7283,-0.0071,0.0071,-0.7283,-0.7283,0.0071,-0.0071,0.7283,0.7283,-0.0071,0.0*
%
%ADD57ROTATEDRECTD57*%

%ADD58R,0.9700X0.9000*%
%ADD59R,0.6000X0.5400*%
%ADD60R,0.5400X0.6000*%
%ADD61R,0.8000X0.4000*%
%ADD62R,1.7500X2.5000*%
G04:AMPARAMS|DCode=63|XSize=1.05mm|YSize=1.38mm|CornerRadius=0.1313mm|HoleSize=0mm|Usage=FLASHONLY|Rotation=270.000|XOffset=0mm|YOffset=0mm|HoleType=Round|Shape=RoundedRectangle|*
%AMROUNDEDRECTD63*
21,1,1.0500,1.1175,0,0,270.0*
21,1,0.7875,1.3800,0,0,270.0*
1,1,0.2625,-0.5587,-0.3938*
1,1,0.2625,-0.5587,0.3938*
1,1,0.2625,0.5587,0.3938*
1,1,0.2625,0.5587,-0.3938*
%
%ADD63ROUNDEDRECTD63*%
G04:AMPARAMS|DCode=64|XSize=0.54mm|YSize=0.6mm|CornerRadius=0.0675mm|HoleSize=0mm|Usage=FLASHONLY|Rotation=0.000|XOffset=0mm|YOffset=0mm|HoleType=Round|Shape=RoundedRectangle|*
%AMROUNDEDRECTD64*
21,1,0.5400,0.4650,0,0,0.0*
21,1,0.4050,0.6000,0,0,0.0*
1,1,0.1350,0.2025,-0.2325*
1,1,0.1350,-0.2025,-0.2325*
1,1,0.1350,-0.2025,0.2325*
1,1,0.1350,0.2025,0.2325*
%
%ADD64ROUNDEDRECTD64*%
G04:AMPARAMS|DCode=65|XSize=0.54mm|YSize=0.6mm|CornerRadius=0.0675mm|HoleSize=0mm|Usage=FLASHONLY|Rotation=270.000|XOffset=0mm|YOffset=0mm|HoleType=Round|Shape=RoundedRectangle|*
%AMROUNDEDRECTD65*
21,1,0.5400,0.4650,0,0,270.0*
21,1,0.4050,0.6000,0,0,270.0*
1,1,0.1350,-0.2325,-0.2025*
1,1,0.1350,-0.2325,0.2025*
1,1,0.1350,0.2325,0.2025*
1,1,0.1350,0.2325,-0.2025*
%
%ADD65ROUNDEDRECTD65*%
G04:AMPARAMS|DCode=66|XSize=0.54mm|YSize=0.6mm|CornerRadius=0.0675mm|HoleSize=0mm|Usage=FLASHONLY|Rotation=315.000|XOffset=0mm|YOffset=0mm|HoleType=Round|Shape=RoundedRectangle|*
%AMROUNDEDRECTD66*
21,1,0.5400,0.4650,0,0,315.0*
21,1,0.4050,0.6000,0,0,315.0*
1,1,0.1350,-0.0212,-0.3076*
1,1,0.1350,-0.3076,-0.0212*
1,1,0.1350,0.0212,0.3076*
1,1,0.1350,0.3076,0.0212*
%
%ADD66ROUNDEDRECTD66*%
G04:AMPARAMS|DCode=67|XSize=0.54mm|YSize=0.6mm|CornerRadius=0.0675mm|HoleSize=0mm|Usage=FLASHONLY|Rotation=45.000|XOffset=0mm|YOffset=0mm|HoleType=Round|Shape=RoundedRectangle|*
%AMROUNDEDRECTD67*
21,1,0.5400,0.4650,0,0,45.0*
21,1,0.4050,0.6000,0,0,45.0*
1,1,0.1350,0.3076,-0.0212*
1,1,0.1350,0.0212,-0.3076*
1,1,0.1350,-0.3076,0.0212*
1,1,0.1350,-0.0212,0.3076*
%
%ADD67ROUNDEDRECTD67*%
%ADD68R,0.5680X1.2842*%
%ADD69R,0.7000X0.7000*%
%ADD70R,1.1000X1.0000*%
%ADD71R,0.7000X0.9000*%
%ADD72R,0.9000X0.7000*%
%ADD73R,1.0000X1.1000*%
%ADD74R,0.3048X0.5588*%
%ADD75R,0.5588X0.3048*%
%ADD76R,1.0500X0.6500*%
%ADD77R,0.6500X1.0500*%
%ADD78R,0.8065X0.8640*%
%ADD144R,1.5500X1.5500*%
%ADD145C,1.5500*%
G04:AMPARAMS|DCode=176|XSize=0.25mm|YSize=1.7mm|CornerRadius=0.0625mm|HoleSize=0mm|Usage=FLASHONLY|Rotation=90.000|XOffset=0mm|YOffset=0mm|HoleType=Round|Shape=RoundedRectangle|*
%AMROUNDEDRECTD176*
21,1,0.2500,1.5750,0,0,90.0*
21,1,0.1250,1.7000,0,0,90.0*
1,1,0.1250,0.7875,0.0625*
1,1,0.1250,0.7875,-0.0625*
1,1,0.1250,-0.7875,-0.0625*
1,1,0.1250,-0.7875,0.0625*
%
%ADD176ROUNDEDRECTD176*%
G04:AMPARAMS|DCode=177|XSize=0.4mm|YSize=2.1mm|CornerRadius=0.1mm|HoleSize=0mm|Usage=FLASHONLY|Rotation=90.000|XOffset=0mm|YOffset=0mm|HoleType=Round|Shape=RoundedRectangle|*
%AMROUNDEDRECTD177*
21,1,0.4000,1.9000,0,0,90.0*
21,1,0.2000,2.1000,0,0,90.0*
1,1,0.2000,0.9500,0.1000*
1,1,0.2000,0.9500,-0.1000*
1,1,0.2000,-0.9500,-0.1000*
1,1,0.2000,-0.9500,0.1000*
%
%ADD177ROUNDEDRECTD177*%
%ADD178R,2.4500X2.4500*%
%ADD183C,2.7750*%
%ADD184R,2.7750X2.7750*%
%ADD185C,2.4000*%
%ADD186C,0.6500*%
%ADD187O,2.1000X1.0000*%
%ADD188O,1.8000X1.0000*%
%ADD189O,1.0000X1.8000*%
%ADD190O,1.0000X2.1000*%
%ADD191C,0.5000*%
%ADD192C,3.3000*%
%ADD193C,1.4480*%
%ADD194R,1.4480X1.4480*%
%ADD195C,2.4300*%
%ADD196R,1.4480X1.4480*%
%ADD197C,1.5080*%
%ADD198O,2.4000X1.2000*%
%ADD199R,3.7160X3.7160*%
%ADD200C,3.7160*%
%ADD201R,1.5080X1.5080*%
%ADD202R,1.5080X1.5080*%
%ADD203C,1.6500*%
%ADD204C,1.0000*%
%ADD205C,1.4500*%
%ADD206R,1.4500X1.4500*%
%ADD207R,1.4500X1.4500*%
%ADD208C,1.4000*%
%ADD209R,1.4000X1.4000*%
%ADD210R,1.4000X1.4000*%
D17*
X599000Y83900D02*
D03*
X604000D02*
D03*
X609000D02*
D03*
X614000D02*
D03*
D18*
X620500Y88600D02*
D03*
Y106600D02*
D03*
X592500Y88600D02*
D03*
D20*
X815400Y277000D02*
D03*
X820400D02*
D03*
X825400D02*
D03*
X830400D02*
D03*
X835400D02*
D03*
X840400D02*
D03*
Y238300D02*
D03*
X835400D02*
D03*
X830400D02*
D03*
X825400D02*
D03*
X820400D02*
D03*
X815400D02*
D03*
D21*
X808550Y245150D02*
D03*
Y250150D02*
D03*
Y255150D02*
D03*
Y260150D02*
D03*
Y265150D02*
D03*
Y270150D02*
D03*
X847250D02*
D03*
Y265150D02*
D03*
Y260150D02*
D03*
Y255150D02*
D03*
Y250150D02*
D03*
Y245150D02*
D03*
D22*
X623100Y27700D02*
D03*
X614700D02*
D03*
X912500Y737600D02*
D03*
X904100D02*
D03*
X903600Y770800D02*
D03*
X912000D02*
D03*
D23*
X850500Y92700D02*
D03*
Y101100D02*
D03*
X880500Y100700D02*
D03*
Y92300D02*
D03*
D24*
X926850Y721200D02*
D03*
Y729200D02*
D03*
Y777200D02*
D03*
Y785200D02*
D03*
D25*
Y735700D02*
D03*
Y740700D02*
D03*
Y745700D02*
D03*
Y750700D02*
D03*
Y755700D02*
D03*
Y760700D02*
D03*
Y765700D02*
D03*
Y770700D02*
D03*
D26*
X897700Y76300D02*
D03*
X889700D02*
D03*
X841700D02*
D03*
X833700D02*
D03*
D27*
X883200D02*
D03*
X878200D02*
D03*
X873200D02*
D03*
X868200D02*
D03*
X863200D02*
D03*
X858200D02*
D03*
X853200D02*
D03*
X848200D02*
D03*
D28*
X518200Y617200D02*
D03*
X509310D02*
D03*
X508855Y644300D02*
D03*
X517745D02*
D03*
X508855Y653700D02*
D03*
X517745D02*
D03*
D29*
X642900Y753455D02*
D03*
Y762345D02*
D03*
X631700Y762245D02*
D03*
Y753355D02*
D03*
X544300Y568590D02*
D03*
Y559700D02*
D03*
X593500Y568545D02*
D03*
Y559655D02*
D03*
X603000Y559955D02*
D03*
Y568845D02*
D03*
X554200Y559655D02*
D03*
Y568545D02*
D03*
X564000Y568445D02*
D03*
Y559555D02*
D03*
X584000Y557655D02*
D03*
Y566545D02*
D03*
X573600Y566945D02*
D03*
Y558055D02*
D03*
X622200Y568990D02*
D03*
Y560100D02*
D03*
X612700Y560000D02*
D03*
Y568890D02*
D03*
X571400Y762245D02*
D03*
Y753355D02*
D03*
X561400Y753310D02*
D03*
Y762200D02*
D03*
D30*
X544657Y442757D02*
D03*
X550943Y449043D02*
D03*
D31*
X849500Y536000D02*
D03*
Y547000D02*
D03*
Y558000D02*
D03*
Y569000D02*
D03*
Y580000D02*
D03*
Y591000D02*
D03*
Y602000D02*
D03*
Y613000D02*
D03*
Y624000D02*
D03*
D32*
X859500Y670000D02*
D03*
D33*
X955500Y679000D02*
D03*
Y524000D02*
D03*
D34*
X859500D02*
D03*
D35*
X471513Y496306D02*
D03*
X480493Y505286D02*
D03*
X489473Y514266D02*
D03*
X498453Y523247D02*
D03*
X550000Y471700D02*
D03*
X541020Y462720D02*
D03*
X532039Y453740D02*
D03*
X523059Y444759D02*
D03*
D36*
X694300Y141803D02*
D03*
D37*
X662299D02*
D03*
D38*
X669000Y794200D02*
D03*
Y774740D02*
D03*
D39*
X719000Y649838D02*
D03*
Y625962D02*
D03*
D40*
X741956Y709556D02*
D03*
X726400Y694000D02*
D03*
X738421Y681979D02*
D03*
X753977Y697535D02*
D03*
D41*
X722100Y821600D02*
D03*
X740100D02*
D03*
D42*
X851400Y451000D02*
D03*
Y469000D02*
D03*
X772600Y37300D02*
D03*
Y55300D02*
D03*
X745100Y32800D02*
D03*
Y50800D02*
D03*
D43*
X705660Y818900D02*
D03*
X685340Y809375D02*
D03*
Y828425D02*
D03*
D44*
X669200Y584700D02*
D03*
X664200D02*
D03*
X659200D02*
D03*
X654200D02*
D03*
X649200D02*
D03*
X644200D02*
D03*
X639200D02*
D03*
X634200D02*
D03*
X629200D02*
D03*
X624200D02*
D03*
X619200D02*
D03*
X614200D02*
D03*
X609200D02*
D03*
X604200D02*
D03*
X599200D02*
D03*
X594200D02*
D03*
X589200D02*
D03*
X584200D02*
D03*
X579200D02*
D03*
X574200D02*
D03*
X569200D02*
D03*
X564200D02*
D03*
X559200D02*
D03*
X554200D02*
D03*
X549200D02*
D03*
Y739700D02*
D03*
X554200D02*
D03*
X559200D02*
D03*
X564200D02*
D03*
X569200D02*
D03*
X574200D02*
D03*
X579200D02*
D03*
X584200D02*
D03*
X589200D02*
D03*
X594200D02*
D03*
X599200D02*
D03*
X604200D02*
D03*
X609200D02*
D03*
X614200D02*
D03*
X619200D02*
D03*
X624200D02*
D03*
X629200D02*
D03*
X634200D02*
D03*
X639200D02*
D03*
X644200D02*
D03*
X649200D02*
D03*
X654200D02*
D03*
X659200D02*
D03*
X664200D02*
D03*
X669200D02*
D03*
D45*
X531700Y602200D02*
D03*
Y607200D02*
D03*
Y612200D02*
D03*
Y617200D02*
D03*
Y622200D02*
D03*
Y627200D02*
D03*
Y632200D02*
D03*
Y637200D02*
D03*
Y642200D02*
D03*
Y647200D02*
D03*
Y652200D02*
D03*
Y657200D02*
D03*
Y662200D02*
D03*
Y667200D02*
D03*
Y672200D02*
D03*
Y677200D02*
D03*
Y682200D02*
D03*
Y687200D02*
D03*
Y692200D02*
D03*
Y697200D02*
D03*
Y702200D02*
D03*
Y707200D02*
D03*
Y712200D02*
D03*
Y717200D02*
D03*
Y722200D02*
D03*
X686700D02*
D03*
Y717200D02*
D03*
Y712200D02*
D03*
Y707200D02*
D03*
Y702200D02*
D03*
Y697200D02*
D03*
Y692200D02*
D03*
Y687200D02*
D03*
Y682200D02*
D03*
Y677200D02*
D03*
Y672200D02*
D03*
Y667200D02*
D03*
Y662200D02*
D03*
Y657200D02*
D03*
Y652200D02*
D03*
Y647200D02*
D03*
Y642200D02*
D03*
Y637200D02*
D03*
Y632200D02*
D03*
Y627200D02*
D03*
Y622200D02*
D03*
Y617200D02*
D03*
Y612200D02*
D03*
Y607200D02*
D03*
Y602200D02*
D03*
D46*
X361000Y735900D02*
D03*
Y755000D02*
D03*
X337000Y745450D02*
D03*
X489500Y732700D02*
D03*
Y751800D02*
D03*
X465500Y742250D02*
D03*
D47*
X174300Y663300D02*
D03*
Y697700D02*
D03*
D48*
X463700Y695000D02*
D03*
X498100D02*
D03*
D49*
X508800Y789323D02*
D03*
Y802277D02*
D03*
D50*
X737800Y123610D02*
D03*
Y96790D02*
D03*
X773700Y123500D02*
D03*
Y96680D02*
D03*
D51*
X730300Y475000D02*
D03*
Y457400D02*
D03*
X822200Y443000D02*
D03*
Y460600D02*
D03*
X534300Y108900D02*
D03*
Y91300D02*
D03*
X555400Y108700D02*
D03*
Y91100D02*
D03*
D52*
X836700Y202500D02*
D03*
X819100D02*
D03*
D53*
X818100Y753800D02*
D03*
X851700D02*
D03*
D54*
X865000Y175100D02*
D03*
Y141500D02*
D03*
D55*
X749800Y757900D02*
D03*
Y773500D02*
D03*
X578900Y54700D02*
D03*
Y70300D02*
D03*
X884700Y165000D02*
D03*
Y149400D02*
D03*
D56*
X827700Y774300D02*
D03*
X843300D02*
D03*
D57*
X507500Y431100D02*
D03*
X497106Y441494D02*
D03*
D58*
X578800Y23200D02*
D03*
Y38400D02*
D03*
X862500Y256800D02*
D03*
Y272000D02*
D03*
D59*
X751800Y463180D02*
D03*
Y471820D02*
D03*
X640900Y67580D02*
D03*
Y76220D02*
D03*
X376200Y750920D02*
D03*
Y742280D02*
D03*
X506600Y745340D02*
D03*
Y736700D02*
D03*
X927300Y325480D02*
D03*
Y334120D02*
D03*
X984000Y326480D02*
D03*
Y335120D02*
D03*
X639300Y562080D02*
D03*
Y570720D02*
D03*
X850800Y428960D02*
D03*
Y437600D02*
D03*
X594700Y34040D02*
D03*
Y25400D02*
D03*
X772400Y15480D02*
D03*
Y24120D02*
D03*
X861100Y235160D02*
D03*
Y243800D02*
D03*
D60*
X801580Y652100D02*
D03*
X810220D02*
D03*
X638060Y803100D02*
D03*
X646700D02*
D03*
X645720Y460900D02*
D03*
X637080D02*
D03*
X987940Y423700D02*
D03*
X979300D02*
D03*
X739700Y805400D02*
D03*
X731060D02*
D03*
X876000Y262100D02*
D03*
X884640D02*
D03*
D61*
X772200Y461900D02*
D03*
Y452400D02*
D03*
Y442900D02*
D03*
X801200D02*
D03*
Y452400D02*
D03*
Y461900D02*
D03*
D62*
X786700Y452400D02*
D03*
D63*
X622000Y145080D02*
D03*
Y127320D02*
D03*
X576000Y91520D02*
D03*
Y109280D02*
D03*
D64*
X578680Y825100D02*
D03*
X587320D02*
D03*
X810320Y664700D02*
D03*
X801680D02*
D03*
X509060Y601800D02*
D03*
X517700D02*
D03*
X672920Y754400D02*
D03*
X664280D02*
D03*
X600280Y65600D02*
D03*
X608920D02*
D03*
X824300Y220700D02*
D03*
X832940D02*
D03*
D65*
X823100Y662920D02*
D03*
Y654280D02*
D03*
X746000Y624580D02*
D03*
Y633220D02*
D03*
Y652920D02*
D03*
Y644280D02*
D03*
X687400Y764240D02*
D03*
Y755600D02*
D03*
X735600Y763700D02*
D03*
Y755060D02*
D03*
X535800Y749100D02*
D03*
Y740460D02*
D03*
X669000Y561180D02*
D03*
Y569820D02*
D03*
X751700Y438580D02*
D03*
Y447220D02*
D03*
X758000Y579460D02*
D03*
Y588100D02*
D03*
X824700Y581480D02*
D03*
Y590120D02*
D03*
D66*
X762245Y714555D02*
D03*
X768355Y708445D02*
D03*
D67*
X762500Y683700D02*
D03*
X768609Y689809D02*
D03*
X459045Y510245D02*
D03*
X465155Y516355D02*
D03*
D68*
X613000Y827874D02*
D03*
X622500Y807300D02*
D03*
X603500D02*
D03*
D69*
X374350Y599100D02*
D03*
Y588100D02*
D03*
X392650D02*
D03*
Y599100D02*
D03*
X411300Y599000D02*
D03*
Y588000D02*
D03*
X429600D02*
D03*
Y599000D02*
D03*
X374250Y568700D02*
D03*
Y557700D02*
D03*
X392550D02*
D03*
Y568700D02*
D03*
X411000Y568700D02*
D03*
Y557700D02*
D03*
X429300D02*
D03*
Y568700D02*
D03*
D70*
X787100Y626500D02*
D03*
X804100D02*
D03*
X787000Y612000D02*
D03*
X804000D02*
D03*
X772900Y586400D02*
D03*
X789900D02*
D03*
X803900Y558900D02*
D03*
X786900D02*
D03*
X803900Y544000D02*
D03*
X786900D02*
D03*
D71*
X363800Y720100D02*
D03*
X376800D02*
D03*
X495300Y715800D02*
D03*
X508300D02*
D03*
X622900Y789000D02*
D03*
X635900D02*
D03*
D72*
X657400Y65100D02*
D03*
Y78100D02*
D03*
D73*
X549500Y754900D02*
D03*
Y771900D02*
D03*
X702200Y758220D02*
D03*
Y775220D02*
D03*
X720500Y758000D02*
D03*
Y775000D02*
D03*
X878600Y246800D02*
D03*
Y229800D02*
D03*
D74*
X677575Y532500D02*
D03*
X671225D02*
D03*
X911450Y423000D02*
D03*
X917800D02*
D03*
X961700D02*
D03*
X968050D02*
D03*
X908425Y333300D02*
D03*
X914775D02*
D03*
X971400Y334300D02*
D03*
X965050D02*
D03*
X817750Y626300D02*
D03*
X824100D02*
D03*
X817850Y612400D02*
D03*
X824200D02*
D03*
X803850Y593100D02*
D03*
X810200D02*
D03*
X824450Y545300D02*
D03*
X818100D02*
D03*
X810200Y579800D02*
D03*
X803850D02*
D03*
X824475Y558900D02*
D03*
X818125D02*
D03*
X891100Y757900D02*
D03*
X884750D02*
D03*
X891000Y747300D02*
D03*
X884650D02*
D03*
D75*
X613300Y445075D02*
D03*
Y438725D02*
D03*
X871400Y113200D02*
D03*
Y119550D02*
D03*
X860100Y113225D02*
D03*
Y119575D02*
D03*
D76*
X635850Y509850D02*
D03*
X677350D02*
D03*
X635850Y488350D02*
D03*
X677350D02*
D03*
X636250Y438050D02*
D03*
X677750D02*
D03*
X636250Y416550D02*
D03*
X677750D02*
D03*
D77*
X926850Y488450D02*
D03*
Y446950D02*
D03*
X905350Y488450D02*
D03*
Y446950D02*
D03*
X982550Y488150D02*
D03*
Y446650D02*
D03*
X961050Y488150D02*
D03*
Y446650D02*
D03*
X926300Y398600D02*
D03*
Y357100D02*
D03*
X904800Y398600D02*
D03*
Y357100D02*
D03*
X982700Y399100D02*
D03*
Y357600D02*
D03*
X961200Y399100D02*
D03*
Y357600D02*
D03*
D78*
X639352Y49900D02*
D03*
X624288D02*
D03*
D144*
X413900Y717600D02*
D03*
D145*
Y742600D02*
D03*
D176*
X615000Y101600D02*
D03*
D177*
X600000Y95800D02*
D03*
Y107400D02*
D03*
D178*
X827900Y257650D02*
D03*
D183*
X479800Y157300D02*
D03*
Y204300D02*
D03*
Y70600D02*
D03*
Y23600D02*
D03*
D184*
Y251300D02*
D03*
Y117600D02*
D03*
D185*
X367600Y180500D02*
D03*
Y214500D02*
D03*
X268400Y180500D02*
D03*
Y214500D02*
D03*
X269000Y103200D02*
D03*
Y69200D02*
D03*
X368200Y103200D02*
D03*
Y69200D02*
D03*
D186*
X937600Y724300D02*
D03*
Y782100D02*
D03*
X894600Y65550D02*
D03*
X836800D02*
D03*
D187*
X932600Y796400D02*
D03*
Y710000D02*
D03*
D188*
X974400Y796400D02*
D03*
Y710000D02*
D03*
D189*
X822500Y28750D02*
D03*
X908900D02*
D03*
D190*
X822500Y70550D02*
D03*
X908900D02*
D03*
D191*
X959500Y552000D02*
D03*
Y632000D02*
D03*
D192*
X924380Y944600D02*
D03*
X797380D02*
D03*
X728700Y946200D02*
D03*
X601700D02*
D03*
X526800Y945100D02*
D03*
X399800D02*
D03*
X57350Y714460D02*
D03*
Y587460D02*
D03*
Y910840D02*
D03*
Y783840D02*
D03*
X332800Y945300D02*
D03*
X205800D02*
D03*
D193*
X896440Y901400D02*
D03*
X886280Y919200D02*
D03*
X876120Y901400D02*
D03*
X865960Y919200D02*
D03*
X855800Y901400D02*
D03*
X845640Y919200D02*
D03*
X835480Y901400D02*
D03*
X700760Y903000D02*
D03*
X690600Y920800D02*
D03*
X680440Y903000D02*
D03*
X670280Y920800D02*
D03*
X660120Y903000D02*
D03*
X649960Y920800D02*
D03*
X639800Y903000D02*
D03*
X498860Y901900D02*
D03*
X488700Y919700D02*
D03*
X478540Y901900D02*
D03*
X468380Y919700D02*
D03*
X458220Y901900D02*
D03*
X448060Y919700D02*
D03*
X437900Y901900D02*
D03*
X100550Y686520D02*
D03*
X82750Y676360D02*
D03*
X100550Y666200D02*
D03*
X82750Y656040D02*
D03*
X100550Y645880D02*
D03*
X82750Y635720D02*
D03*
X100550Y625560D02*
D03*
Y882900D02*
D03*
X82750Y872740D02*
D03*
X100550Y862580D02*
D03*
X82750Y852420D02*
D03*
X100550Y842260D02*
D03*
X82750Y832100D02*
D03*
X100550Y821940D02*
D03*
X304860Y902100D02*
D03*
X294700Y919900D02*
D03*
X284540Y902100D02*
D03*
X274380Y919900D02*
D03*
X264220Y902100D02*
D03*
X254060Y919900D02*
D03*
X243900Y902100D02*
D03*
D194*
X825320Y919200D02*
D03*
X629640Y920800D02*
D03*
X427740Y919700D02*
D03*
X233740Y919900D02*
D03*
D195*
X942180Y910300D02*
D03*
X779580D02*
D03*
X746500Y911900D02*
D03*
X583900D02*
D03*
X544600Y910800D02*
D03*
X382000D02*
D03*
X91650Y732260D02*
D03*
Y569660D02*
D03*
Y928640D02*
D03*
Y766040D02*
D03*
X350600Y911000D02*
D03*
X188000D02*
D03*
D196*
X82750Y615400D02*
D03*
Y811780D02*
D03*
D197*
X257000Y649400D02*
D03*
Y725400D02*
D03*
X272100Y575900D02*
D03*
X247100D02*
D03*
X297100D02*
D03*
X222100D02*
D03*
X197100D02*
D03*
X107000Y295300D02*
D03*
X82000D02*
D03*
X132000D02*
D03*
X57000D02*
D03*
X32000D02*
D03*
X756764Y256914D02*
D03*
Y281914D02*
D03*
Y231914D02*
D03*
Y306914D02*
D03*
Y331914D02*
D03*
X261400Y809300D02*
D03*
X286400D02*
D03*
X236400D02*
D03*
X311400D02*
D03*
X419300Y809700D02*
D03*
X444300D02*
D03*
X394300D02*
D03*
X469300D02*
D03*
X414800Y655300D02*
D03*
X439800D02*
D03*
X389800D02*
D03*
X464800D02*
D03*
X970800Y63800D02*
D03*
Y88800D02*
D03*
X972500Y283100D02*
D03*
X947500D02*
D03*
X971000Y169400D02*
D03*
Y194400D02*
D03*
D198*
X106250Y237800D02*
D03*
Y102800D02*
D03*
D199*
X166250Y206300D02*
D03*
D200*
Y134300D02*
D03*
D201*
X322100Y575900D02*
D03*
X157000Y295300D02*
D03*
X211400Y809300D02*
D03*
X369300Y809700D02*
D03*
X364800Y655300D02*
D03*
X922500Y283100D02*
D03*
D202*
X756764Y206914D02*
D03*
X970800Y113800D02*
D03*
X971000Y219400D02*
D03*
D203*
X833800Y821300D02*
D03*
X884600D02*
D03*
X859200D02*
D03*
X808400D02*
D03*
X783000D02*
D03*
D204*
X26000Y26000D02*
D03*
Y974000D02*
D03*
X974000D02*
D03*
Y26000D02*
D03*
D205*
X310900Y374000D02*
D03*
X285500D02*
D03*
X260100D02*
D03*
X362930Y373786D02*
D03*
X388330D02*
D03*
X336514D02*
D03*
X413730Y373532D02*
D03*
Y525932D02*
D03*
X336514Y526186D02*
D03*
X388330D02*
D03*
X362930D02*
D03*
X260100Y526400D02*
D03*
X285500D02*
D03*
X310900D02*
D03*
X234700Y374000D02*
D03*
X97000Y373500D02*
D03*
X71600D02*
D03*
X46200D02*
D03*
X149030Y373286D02*
D03*
X174430D02*
D03*
X122614D02*
D03*
X199830Y373032D02*
D03*
Y525432D02*
D03*
X122614Y525686D02*
D03*
X174430D02*
D03*
X149030D02*
D03*
X46200Y525900D02*
D03*
X71600D02*
D03*
X97000D02*
D03*
X20800Y373500D02*
D03*
X563414Y300514D02*
D03*
Y325914D02*
D03*
Y351314D02*
D03*
X563200Y248484D02*
D03*
Y223084D02*
D03*
Y274900D02*
D03*
X562946Y197684D02*
D03*
X715346D02*
D03*
X715600Y274900D02*
D03*
Y223084D02*
D03*
Y248484D02*
D03*
X715814Y351314D02*
D03*
Y325914D02*
D03*
Y300514D02*
D03*
X563414Y376714D02*
D03*
D206*
X234700Y526400D02*
D03*
X20800Y525900D02*
D03*
D207*
X715814Y376714D02*
D03*
D208*
X353000Y302400D02*
D03*
X487300Y373400D02*
D03*
X220200Y302400D02*
D03*
D209*
X403000D02*
D03*
X270200D02*
D03*
D210*
X487300Y323400D02*
D03*
M02*
