G04*
G04 #@! TF.GenerationSoftware,Altium Limited,Altium Designer,25.2.1 (25)*
G04*
G04 Layer_Color=32896*
%FSLAX44Y44*%
%MOMM*%
G71*
G04*
G04 #@! TF.SameCoordinates,965F6EC9-4211-4512-97E5-58CA1C1A5C92*
G04*
G04*
G04 #@! TF.FilePolarity,Positive*
G04*
G01*
G75*
%ADD11C,0.1000*%
%ADD220C,0.0500*%
D11*
X831500Y508000D02*
X1009500D01*
Y695000D01*
X831500D02*
X1009500D01*
X831500Y508000D02*
Y695000D01*
X692600Y473100D02*
Y525100D01*
X620600D02*
X692600D01*
X620600Y473100D02*
Y525100D01*
Y473100D02*
X692600D01*
X693000Y401300D02*
Y453300D01*
X621000D02*
X693000D01*
X621000Y401300D02*
Y453300D01*
Y401300D02*
X693000D01*
X890100Y431700D02*
X942100D01*
Y503700D01*
X890100D02*
X942100D01*
X890100Y431700D02*
Y503700D01*
X945800Y431400D02*
X997800D01*
Y503400D01*
X945800D02*
X997800D01*
X945800Y431400D02*
Y503400D01*
X889550Y341850D02*
X941550D01*
Y413850D01*
X889550D02*
X941550D01*
X889550Y341850D02*
Y413850D01*
X945950Y342350D02*
X997950D01*
Y414350D01*
X945950D02*
X997950D01*
X945950Y342350D02*
Y414350D01*
D220*
X329500Y727750D02*
X368500D01*
X329500D02*
Y763150D01*
X368500D01*
Y727750D02*
Y763150D01*
X458000Y724550D02*
X497000D01*
X458000D02*
Y759950D01*
X497000D01*
Y724550D02*
Y759950D01*
M02*
