G04*
G04 #@! TF.GenerationSoftware,Altium Limited,Altium Designer,25.2.1 (25)*
G04*
G04 Layer_Physical_Order=4*
G04 Layer_Color=16711680*
%FSLAX44Y44*%
%MOMM*%
G71*
G04*
G04 #@! TF.SameCoordinates,965F6EC9-4211-4512-97E5-58CA1C1A5C92*
G04*
G04*
G04 #@! TF.FilePolarity,Positive*
G04*
G01*
G75*
%ADD10C,0.2000*%
G04:AMPARAMS|DCode=28|XSize=0.635mm|YSize=0.635mm|CornerRadius=0.1588mm|HoleSize=0mm|Usage=FLASHONLY|Rotation=270.000|XOffset=0mm|YOffset=0mm|HoleType=Round|Shape=RoundedRectangle|*
%AMROUNDEDRECTD28*
21,1,0.6350,0.3175,0,0,270.0*
21,1,0.3175,0.6350,0,0,270.0*
1,1,0.3175,-0.1588,-0.1588*
1,1,0.3175,-0.1588,0.1588*
1,1,0.3175,0.1588,0.1588*
1,1,0.3175,0.1588,-0.1588*
%
%ADD28ROUNDEDRECTD28*%
G04:AMPARAMS|DCode=64|XSize=0.54mm|YSize=0.6mm|CornerRadius=0.0675mm|HoleSize=0mm|Usage=FLASHONLY|Rotation=0.000|XOffset=0mm|YOffset=0mm|HoleType=Round|Shape=RoundedRectangle|*
%AMROUNDEDRECTD64*
21,1,0.5400,0.4650,0,0,0.0*
21,1,0.4050,0.6000,0,0,0.0*
1,1,0.1350,0.2025,-0.2325*
1,1,0.1350,-0.2025,-0.2325*
1,1,0.1350,-0.2025,0.2325*
1,1,0.1350,0.2025,0.2325*
%
%ADD64ROUNDEDRECTD64*%
%ADD70R,1.1000X1.0000*%
%ADD144R,1.5500X1.5500*%
%ADD145C,1.5500*%
%ADD169C,0.4500*%
%ADD175C,0.2540*%
%ADD179C,0.1600*%
%ADD183C,2.7750*%
%ADD184R,2.7750X2.7750*%
%ADD185C,2.4000*%
%ADD186C,0.6500*%
%ADD187O,2.1000X1.0000*%
%ADD188O,1.8000X1.0000*%
%ADD189O,1.0000X1.8000*%
%ADD190O,1.0000X2.1000*%
%ADD191C,0.5000*%
%ADD192C,3.3000*%
%ADD193C,1.4480*%
%ADD194R,1.4480X1.4480*%
%ADD195C,2.4300*%
%ADD196R,1.4480X1.4480*%
%ADD197C,1.5080*%
%ADD198O,2.4000X1.2000*%
%ADD199R,3.7160X3.7160*%
%ADD200C,3.7160*%
%ADD201R,1.5080X1.5080*%
%ADD202R,1.5080X1.5080*%
%ADD203C,1.6500*%
%ADD204C,1.0000*%
%ADD205C,1.4500*%
%ADD206R,1.4500X1.4500*%
%ADD207R,1.4500X1.4500*%
%ADD208C,1.4000*%
%ADD209R,1.4000X1.4000*%
%ADD210R,1.4000X1.4000*%
%ADD211C,1.2700*%
%ADD212C,0.3500*%
%ADD213C,0.6000*%
%ADD215C,0.2540*%
G36*
X375676Y986069D02*
Y962482D01*
X375673D01*
X375900Y960764D01*
X376562Y959164D01*
X377617Y957789D01*
X378992Y956734D01*
X380592Y956071D01*
X382310Y955845D01*
X383948Y956061D01*
X384161Y955880D01*
X384769Y955004D01*
X383849Y953626D01*
X382492Y950350D01*
X381800Y946873D01*
Y943327D01*
X382492Y939850D01*
X383849Y936574D01*
X385818Y933626D01*
X388326Y931118D01*
X391274Y929149D01*
X394550Y927792D01*
X398027Y927100D01*
X401573D01*
X405050Y927792D01*
X408326Y929149D01*
X411274Y931118D01*
X413782Y933626D01*
X415751Y936574D01*
X417108Y939850D01*
X417800Y943327D01*
Y946873D01*
X417381Y948981D01*
X418551Y949607D01*
X423954Y944203D01*
Y940982D01*
X423954Y940981D01*
X424169Y939901D01*
X424781Y938984D01*
X434152Y929613D01*
X433666Y928440D01*
X419000D01*
Y922404D01*
X418212Y922301D01*
X416612Y921638D01*
X415237Y920583D01*
X414182Y919208D01*
X413519Y917608D01*
X413293Y915890D01*
X413296D01*
Y876669D01*
X412310Y876073D01*
X411324Y876669D01*
Y917780D01*
X411327D01*
X411101Y919498D01*
X410438Y921098D01*
X409383Y922473D01*
X408008Y923528D01*
X406408Y924191D01*
X404690Y924417D01*
X402972Y924191D01*
X401371Y923528D01*
X399997Y922473D01*
X398942Y921098D01*
X398279Y919498D01*
X398053Y917780D01*
X398056D01*
Y876669D01*
X397070Y876073D01*
X396084Y876669D01*
Y892070D01*
X396087D01*
X395860Y893788D01*
X395197Y895388D01*
X394143Y896763D01*
X392768Y897818D01*
X391168Y898481D01*
X389450Y898707D01*
X387732Y898481D01*
X386132Y897818D01*
X384757Y896763D01*
X383702Y895388D01*
X383039Y893788D01*
X382813Y892070D01*
X382816D01*
Y876669D01*
X381830Y876073D01*
X380844Y876669D01*
Y888280D01*
X380847D01*
X380620Y889998D01*
X379958Y891598D01*
X378903Y892973D01*
X377528Y894028D01*
X375928Y894691D01*
X374210Y894917D01*
Y894914D01*
X271190D01*
X270665Y896184D01*
X271214Y896733D01*
X272364Y898727D01*
X272960Y900949D01*
Y903251D01*
X272364Y905473D01*
X271214Y907467D01*
X269587Y909094D01*
X267593Y910244D01*
X265371Y910840D01*
X263069D01*
X260847Y910244D01*
X258853Y909094D01*
X257226Y907467D01*
X256076Y905473D01*
X255480Y903251D01*
Y900949D01*
X256076Y898727D01*
X257226Y896733D01*
X257775Y896184D01*
X257249Y894914D01*
X240924D01*
X236564Y899274D01*
Y911160D01*
X242480D01*
Y925690D01*
X243750Y926216D01*
X246200Y923766D01*
X245916Y923273D01*
X245320Y921051D01*
Y918749D01*
X245916Y916526D01*
X247066Y914533D01*
X248694Y912906D01*
X250686Y911756D01*
X252909Y911160D01*
X255211D01*
X257433Y911756D01*
X259426Y912906D01*
X261054Y914533D01*
X262204Y916526D01*
X262800Y918749D01*
Y921051D01*
X262204Y923273D01*
X261920Y923766D01*
X299900Y961746D01*
X322728D01*
X323113Y960476D01*
X321326Y959281D01*
X318818Y956774D01*
X316849Y953826D01*
X315492Y950550D01*
X314800Y947073D01*
Y943527D01*
X315492Y940050D01*
X316849Y936774D01*
X318818Y933826D01*
X321326Y931319D01*
X324274Y929349D01*
X327550Y927992D01*
X331027Y927300D01*
X334573D01*
X338050Y927992D01*
X341326Y929349D01*
X344274Y931319D01*
X346782Y933826D01*
X348751Y936774D01*
X350108Y940050D01*
X350800Y943527D01*
Y947073D01*
X350108Y950550D01*
X348751Y953826D01*
X346782Y956774D01*
X344274Y959281D01*
X341326Y961251D01*
X338050Y962608D01*
X336476Y962921D01*
X335950Y964321D01*
X336518Y965062D01*
X337181Y966662D01*
X337407Y968380D01*
X337404D01*
Y976126D01*
X338390Y976721D01*
X339376Y976126D01*
Y968380D01*
X339373D01*
X339599Y966662D01*
X340262Y965062D01*
X341317Y963687D01*
X342692Y962632D01*
X344292Y961969D01*
X346010Y961743D01*
Y961746D01*
X367070D01*
Y961743D01*
X368788Y961969D01*
X370388Y962632D01*
X371763Y963687D01*
X372818Y965062D01*
X373481Y966662D01*
X373707Y968380D01*
X373704D01*
Y986069D01*
X374690Y986665D01*
X375676Y986069D01*
D02*
G37*
G36*
X684156Y926716D02*
X683606Y926167D01*
X682456Y924174D01*
X681860Y921951D01*
Y919649D01*
X682456Y917427D01*
X683606Y915434D01*
X685234Y913806D01*
X687226Y912656D01*
X689449Y912060D01*
X691751D01*
X693973Y912656D01*
X695966Y913806D01*
X697594Y915434D01*
X698744Y917427D01*
X699340Y919649D01*
Y921951D01*
X699089Y922888D01*
X700019Y923981D01*
X700107Y923996D01*
X789378D01*
X793059Y922879D01*
X797380Y922453D01*
X801643Y922873D01*
Y922873D01*
X801680Y922928D01*
X807395Y924048D01*
X807656Y924156D01*
X807933Y924211D01*
X808161Y924363D01*
X808415Y924467D01*
X808615Y924666D01*
X808849Y924823D01*
X809593Y925567D01*
X809593Y925567D01*
X810412Y926386D01*
X816580D01*
Y922024D01*
X809580D01*
X809580Y922024D01*
X808499Y921809D01*
X807583Y921197D01*
X780200Y893814D01*
X664230D01*
X663889Y895084D01*
X665487Y896006D01*
X667114Y897634D01*
X668264Y899626D01*
X668860Y901849D01*
Y904151D01*
X668264Y906374D01*
X667114Y908366D01*
X665487Y909994D01*
X663493Y911144D01*
X661271Y911740D01*
X658969D01*
X656747Y911144D01*
X654753Y909994D01*
X653126Y908366D01*
X651976Y906374D01*
X651380Y904151D01*
Y901849D01*
X651976Y899626D01*
X653126Y897634D01*
X654753Y896006D01*
X656350Y895084D01*
X656010Y893814D01*
X636864D01*
X632504Y898174D01*
Y912060D01*
X638380D01*
Y924766D01*
X639553Y925253D01*
X641566Y923240D01*
X641220Y921951D01*
Y919649D01*
X641816Y917427D01*
X642966Y915434D01*
X644594Y913806D01*
X646587Y912656D01*
X648809Y912060D01*
X651111D01*
X653334Y912656D01*
X655327Y913806D01*
X656954Y915434D01*
X658104Y917427D01*
X658700Y919649D01*
Y921951D01*
X658371Y923177D01*
X663170Y927976D01*
X666124D01*
X666124Y927976D01*
X666174Y927986D01*
X683629D01*
X684156Y926716D01*
D02*
G37*
G36*
X139476Y976730D02*
Y904330D01*
X139473D01*
X139652Y902976D01*
X138941Y902243D01*
X138555Y902056D01*
X137941Y902310D01*
X136223Y902536D01*
X134506Y902310D01*
X132905Y901647D01*
X131531Y900592D01*
X131531Y900592D01*
X130476Y899218D01*
X129813Y897617D01*
X129587Y895900D01*
X129813Y894182D01*
X130476Y892581D01*
X131531Y891207D01*
X131532Y891208D01*
X131532Y891208D01*
X165419Y857322D01*
X165265Y856757D01*
X164890Y856103D01*
X163952Y856001D01*
X130138Y889814D01*
X130140Y889816D01*
X128765Y890871D01*
X127165Y891534D01*
X125447Y891760D01*
X123729Y891534D01*
X122129Y890871D01*
X120754Y889816D01*
X120754Y889816D01*
X119699Y888442D01*
X119037Y886841D01*
X118810Y885123D01*
X119037Y883405D01*
X119699Y881805D01*
X120754Y880430D01*
X120756Y880432D01*
X120756Y880432D01*
X154748Y846440D01*
X154748Y846440D01*
X154751Y846438D01*
X154814Y846285D01*
X154748Y845046D01*
X153505Y844981D01*
X153356Y845043D01*
X153354Y845046D01*
X119362Y879038D01*
X119364Y879040D01*
X117989Y880095D01*
X116389Y880758D01*
X114671Y880984D01*
X112953Y880758D01*
X111352Y880095D01*
X109978Y879040D01*
X109978Y879040D01*
X108923Y877665D01*
X108260Y876065D01*
X108034Y874347D01*
X108260Y872629D01*
X108923Y871029D01*
X109978Y869654D01*
X109980Y869656D01*
X109980Y869656D01*
X143971Y835664D01*
X143971Y835664D01*
X143975Y835662D01*
X144038Y835509D01*
X143971Y834270D01*
X143274Y834233D01*
X142577Y834270D01*
X141743Y835105D01*
X117181Y859667D01*
X117183Y859668D01*
X115808Y860723D01*
X114207Y861386D01*
X112490Y861612D01*
X110772Y861386D01*
X109171Y860723D01*
X107797Y859668D01*
X107797Y859668D01*
X106742Y858294D01*
X106079Y856693D01*
X105853Y854975D01*
X106079Y853258D01*
X106742Y851657D01*
X107797Y850282D01*
X107799Y850284D01*
X107799Y850284D01*
X125397Y832685D01*
X125397Y832685D01*
X125434Y831988D01*
X125397Y831291D01*
X125397Y831291D01*
X124499Y830393D01*
X124499Y830393D01*
X108860Y814754D01*
X91490D01*
Y820520D01*
X74010D01*
Y803040D01*
X87496D01*
X107736Y782800D01*
Y756100D01*
Y740850D01*
X107733D01*
X107959Y739132D01*
X108622Y737532D01*
X109677Y736157D01*
X111052Y735102D01*
X112652Y734439D01*
X114370Y734213D01*
Y734216D01*
X127404D01*
X128000Y733230D01*
X127404Y732244D01*
X110380D01*
Y732247D01*
X108662Y732021D01*
X107062Y731358D01*
X105687Y730303D01*
X104632Y728929D01*
X103969Y727328D01*
X103743Y725610D01*
X103969Y723892D01*
X104632Y722292D01*
X105687Y720917D01*
X107062Y719863D01*
X108662Y719200D01*
X110380Y718973D01*
Y718976D01*
X132059D01*
X132655Y717990D01*
X132059Y717004D01*
X88970D01*
Y717007D01*
X87252Y716781D01*
X85652Y716118D01*
X84277Y715063D01*
X83222Y713689D01*
X82559Y712088D01*
X82333Y710370D01*
X82559Y708652D01*
X83222Y707052D01*
X84277Y705677D01*
X85652Y704622D01*
X87252Y703960D01*
X88970Y703733D01*
Y703736D01*
X132059D01*
X132655Y702750D01*
X132059Y701764D01*
X113716D01*
Y701767D01*
X111998Y701541D01*
X110398Y700878D01*
X109023Y699823D01*
X107969Y698448D01*
X107305Y696848D01*
X107079Y695130D01*
X107305Y693412D01*
X107969Y691812D01*
X109023Y690437D01*
X110398Y689382D01*
X111998Y688719D01*
X113716Y688493D01*
Y688496D01*
X132059D01*
X132655Y687510D01*
X132059Y686524D01*
X114370D01*
Y686527D01*
X112652Y686301D01*
X111052Y685638D01*
X109677Y684583D01*
X108622Y683208D01*
X107959Y681608D01*
X107733Y679890D01*
X107736D01*
Y671000D01*
Y652850D01*
X106466Y652325D01*
X105917Y652874D01*
X103924Y654024D01*
X101701Y654620D01*
X99399D01*
X97177Y654024D01*
X95183Y652874D01*
X93556Y651246D01*
X92406Y649253D01*
X91810Y647031D01*
Y644729D01*
X92406Y642506D01*
X93556Y640514D01*
X95183Y638886D01*
X97177Y637736D01*
X99399Y637140D01*
X101701D01*
X103924Y637736D01*
X105917Y638886D01*
X106466Y639436D01*
X107736Y638909D01*
Y622584D01*
X103526Y618374D01*
X91490D01*
Y624140D01*
X74010D01*
Y606660D01*
X91490D01*
Y612726D01*
X104696D01*
X104696Y612726D01*
X105777Y612941D01*
X106693Y613553D01*
X112557Y619417D01*
X112557Y619417D01*
X113169Y620333D01*
X113384Y621414D01*
X113384Y621414D01*
Y671000D01*
Y679890D01*
X113384Y679894D01*
X113671Y680589D01*
X114366Y680877D01*
X114370Y680876D01*
X132150D01*
Y680873D01*
X133868Y681099D01*
X135468Y681762D01*
X136843Y682817D01*
X137898Y684192D01*
X138561Y685792D01*
X138787Y687510D01*
X138561Y689228D01*
X137898Y690828D01*
X136843Y692203D01*
X135468Y693258D01*
X133868Y693921D01*
X132150Y694147D01*
Y694144D01*
X113807D01*
X113211Y695130D01*
X113807Y696116D01*
X132150D01*
Y696113D01*
X133868Y696339D01*
X135468Y697002D01*
X136843Y698057D01*
X137898Y699432D01*
X138561Y701032D01*
X138787Y702750D01*
X138561Y704468D01*
X137898Y706068D01*
X136843Y707443D01*
X135468Y708498D01*
X133868Y709161D01*
X132150Y709387D01*
Y709384D01*
X89061D01*
X88465Y710370D01*
X89061Y711356D01*
X132150D01*
Y711353D01*
X133868Y711580D01*
X135468Y712243D01*
X136843Y713297D01*
X137898Y714672D01*
X138561Y716272D01*
X138787Y717990D01*
X138561Y719708D01*
X137898Y721309D01*
X136843Y722683D01*
X135468Y723738D01*
X133868Y724401D01*
X132150Y724627D01*
Y724624D01*
X110471D01*
X109875Y725610D01*
X110471Y726596D01*
X127495D01*
Y726593D01*
X129213Y726820D01*
X130814Y727483D01*
X132188Y728537D01*
X133243Y729912D01*
X133906Y731512D01*
X134132Y733230D01*
X133906Y734948D01*
X133243Y736548D01*
X132188Y737923D01*
X130814Y738978D01*
X129213Y739641D01*
X127495Y739867D01*
Y739864D01*
X114370D01*
X114366Y739864D01*
X113671Y740151D01*
X113384Y740846D01*
X113384Y740850D01*
Y756100D01*
Y783970D01*
X113384Y783970D01*
X113169Y785051D01*
X112557Y785967D01*
X91490Y807034D01*
Y809106D01*
X110030D01*
X110030Y809106D01*
X111111Y809321D01*
X112027Y809933D01*
X128493Y826399D01*
X128493Y826399D01*
X129393Y827296D01*
X129393Y827296D01*
X130448Y828670D01*
X131111Y830271D01*
X131337Y831988D01*
X131111Y833706D01*
X130448Y835307D01*
X129393Y836681D01*
X129393Y836681D01*
X128493Y837578D01*
X111971Y854100D01*
X112073Y855039D01*
X112727Y855414D01*
X113292Y855567D01*
X137685Y831174D01*
X138582Y830274D01*
X138582Y830274D01*
X139956Y829219D01*
X141557Y828556D01*
X143274Y828330D01*
X144992Y828556D01*
X146593Y829219D01*
X147967Y830274D01*
X147967Y830274D01*
X149022Y831648D01*
X149685Y833249D01*
X149911Y834967D01*
X149685Y836685D01*
X149022Y838285D01*
X147967Y839660D01*
X147966Y839658D01*
X114152Y873472D01*
X114254Y874410D01*
X114908Y874785D01*
X115473Y874939D01*
X148462Y841950D01*
X149358Y841050D01*
X149358Y841050D01*
X150732Y839996D01*
X152333Y839333D01*
X154051Y839107D01*
X155768Y839333D01*
X157369Y839996D01*
X158744Y841050D01*
X158744Y841050D01*
X159798Y842425D01*
X160461Y844025D01*
X160688Y845743D01*
X160461Y847461D01*
X159798Y849062D01*
X158744Y850436D01*
X158742Y850434D01*
X124928Y884248D01*
X125030Y885186D01*
X125684Y885561D01*
X126250Y885715D01*
X159238Y852726D01*
X160134Y851827D01*
X160134Y851827D01*
X161509Y850772D01*
X163109Y850109D01*
X164827Y849883D01*
X166545Y850109D01*
X168146Y850772D01*
X169520Y851827D01*
X169520Y851827D01*
X170575Y853201D01*
X171238Y854802D01*
X171464Y856519D01*
X171238Y858237D01*
X170575Y859838D01*
X169520Y861212D01*
X169518Y861211D01*
X135705Y895024D01*
X135807Y895963D01*
X136461Y896338D01*
X137026Y896491D01*
X170014Y863503D01*
X170910Y862603D01*
X170910Y862603D01*
X172285Y861548D01*
X173886Y860885D01*
X175603Y860659D01*
X177321Y860885D01*
X178922Y861548D01*
X180296Y862603D01*
X180296Y862603D01*
X181351Y863977D01*
X182014Y865578D01*
X182240Y867296D01*
X182014Y869014D01*
X181351Y870614D01*
X180296Y871989D01*
X180294Y871987D01*
X180294Y871987D01*
X172261Y880020D01*
X172344Y880782D01*
X173222Y881267D01*
X173638Y881343D01*
X173889Y881177D01*
X173889Y881177D01*
X175264Y880122D01*
X176864Y879459D01*
X178582Y879233D01*
X180300Y879459D01*
X181900Y880122D01*
X183275Y881177D01*
X183273Y881179D01*
X189247Y887153D01*
X189247Y887153D01*
X219170Y917076D01*
X225000D01*
Y911160D01*
X230916D01*
Y898104D01*
X230916Y898104D01*
X231131Y897023D01*
X231743Y896107D01*
X237757Y890093D01*
X237757Y890093D01*
X238673Y889481D01*
X239754Y889266D01*
X239754Y889266D01*
X374210D01*
X374214Y889267D01*
X374909Y888979D01*
X375196Y888284D01*
X375196Y888280D01*
Y876578D01*
X375193D01*
X375419Y874860D01*
X376082Y873260D01*
X377137Y871885D01*
X378512Y870830D01*
X380112Y870167D01*
X381830Y869941D01*
X383548Y870167D01*
X385148Y870830D01*
X386523Y871885D01*
X387578Y873260D01*
X388241Y874860D01*
X388467Y876578D01*
X388464D01*
Y891979D01*
X389450Y892575D01*
X390436Y891979D01*
Y876578D01*
X390433D01*
X390659Y874860D01*
X391322Y873260D01*
X392377Y871885D01*
X393751Y870830D01*
X395352Y870167D01*
X397070Y869941D01*
X398788Y870167D01*
X400388Y870830D01*
X401763Y871885D01*
X402817Y873260D01*
X403480Y874860D01*
X403707Y876578D01*
X403704D01*
Y917689D01*
X404690Y918285D01*
X405676Y917689D01*
Y876578D01*
X405673D01*
X405899Y874860D01*
X406562Y873260D01*
X407617Y871885D01*
X408992Y870830D01*
X410592Y870167D01*
X412310Y869941D01*
X414028Y870167D01*
X415628Y870830D01*
X417003Y871885D01*
X418058Y873260D01*
X418721Y874860D01*
X418947Y876578D01*
X418944D01*
Y909713D01*
X419000Y910960D01*
X424916D01*
Y897904D01*
X424916Y897904D01*
X425131Y896823D01*
X425743Y895907D01*
X431757Y889893D01*
X431757Y889893D01*
X432673Y889281D01*
X433754Y889066D01*
X433754Y889066D01*
X503441D01*
X503624Y888883D01*
X503624Y888883D01*
X504540Y888271D01*
X505621Y888056D01*
X586020D01*
X586020Y888056D01*
X587101Y888271D01*
X588017Y888883D01*
X615110Y915976D01*
X620900D01*
Y912060D01*
X626856D01*
Y897004D01*
X626856Y897004D01*
X627071Y895923D01*
X627683Y895007D01*
X633697Y888993D01*
X633697Y888993D01*
X634613Y888381D01*
X635694Y888166D01*
X635694Y888166D01*
X781370D01*
X781370Y888166D01*
X782451Y888381D01*
X783367Y888993D01*
X810750Y916376D01*
X816580D01*
Y914454D01*
X717963Y815837D01*
X702049Y799923D01*
X695659Y806312D01*
X694797Y807246D01*
X694797Y807246D01*
X693040Y808419D01*
X690968Y808831D01*
X688896Y808419D01*
X687140Y807246D01*
X685966Y805489D01*
X685625Y803774D01*
X684400Y803203D01*
X678901Y808702D01*
X678936Y808737D01*
X677180Y809911D01*
X675108Y810323D01*
X673620Y810027D01*
X672471Y810784D01*
X672350Y810971D01*
Y811346D01*
X671779Y812724D01*
X670724Y813779D01*
X669346Y814350D01*
X667854D01*
X667168Y814066D01*
X665898Y814861D01*
Y826118D01*
X665683Y827199D01*
X665071Y828115D01*
X656289Y836897D01*
X655373Y837509D01*
X654292Y837724D01*
X654292Y837724D01*
X624674D01*
X623647Y838150D01*
X622354D01*
X621159Y837655D01*
X620245Y836741D01*
X619750Y835546D01*
Y834254D01*
X620245Y833059D01*
X621159Y832145D01*
X622354Y831650D01*
X623647D01*
X624674Y832076D01*
X653122D01*
X656959Y828239D01*
X656713Y827001D01*
X655799Y826087D01*
X655304Y824893D01*
Y824798D01*
X645987Y815481D01*
X644959Y815055D01*
X644045Y814141D01*
X643550Y812946D01*
Y811654D01*
X644045Y810459D01*
X644959Y809545D01*
X646153Y809050D01*
X647447D01*
X648641Y809545D01*
X649555Y810459D01*
X649981Y811487D01*
X658980Y820486D01*
X660250Y819959D01*
Y810101D01*
X660196Y810079D01*
X659141Y809024D01*
X658570Y807646D01*
Y806154D01*
X659141Y804776D01*
X660196Y803721D01*
X661574Y803150D01*
X663066D01*
X664444Y803721D01*
X665499Y804776D01*
X666070Y806154D01*
Y806214D01*
X667340Y807063D01*
X667854Y806850D01*
X668785D01*
X669748Y805917D01*
X669848Y805683D01*
X669694Y804909D01*
X669865Y804048D01*
X668785Y802968D01*
X667924Y803139D01*
X665852Y802727D01*
X664096Y801553D01*
X664096Y801553D01*
X662922Y799797D01*
X662510Y797725D01*
X662922Y795653D01*
X664096Y793897D01*
X664131Y793932D01*
X664131Y793932D01*
X680711Y777352D01*
X680139Y776127D01*
X678424Y775786D01*
X676668Y774613D01*
X676668Y774612D01*
X675819Y773694D01*
X672213Y770087D01*
X672213Y770087D01*
X656020Y753894D01*
X654750Y754346D01*
X654255Y755541D01*
X653341Y756455D01*
X652146Y756950D01*
X650854D01*
X649659Y756455D01*
X648745Y755541D01*
X648319Y754513D01*
X644661Y750855D01*
X644049Y749939D01*
X643834Y748858D01*
X643834Y748858D01*
Y746228D01*
X640830Y743224D01*
X629500D01*
X628419Y743009D01*
X627503Y742397D01*
X617774Y732668D01*
X616504Y733195D01*
Y777042D01*
X617678Y777528D01*
X618103Y777103D01*
X618103Y777103D01*
X619019Y776491D01*
X620100Y776276D01*
X620100Y776276D01*
X633130D01*
X639000Y770406D01*
Y769804D01*
X637942Y769098D01*
X637164Y769030D01*
X635350Y770844D01*
Y771346D01*
X634779Y772724D01*
X633724Y773779D01*
X632346Y774350D01*
X630854D01*
X629476Y773779D01*
X628421Y772724D01*
X627850Y771346D01*
Y769854D01*
X628421Y768476D01*
X629476Y767421D01*
X630854Y766850D01*
X631356D01*
X634673Y763533D01*
X634673Y763533D01*
X635589Y762921D01*
X636670Y762706D01*
X636670Y762706D01*
X647330D01*
X647330Y762706D01*
X648411Y762921D01*
X649327Y763533D01*
X652045Y766251D01*
X652045Y766251D01*
X652657Y767167D01*
X652872Y768248D01*
X652872Y768248D01*
Y770352D01*
X652872Y770352D01*
X652657Y771433D01*
X652045Y772349D01*
X639257Y785137D01*
X638341Y785749D01*
X637260Y785964D01*
X637260Y785964D01*
X624230D01*
X548597Y861597D01*
X547681Y862209D01*
X546600Y862424D01*
X546600Y862424D01*
X254200D01*
X253119Y862209D01*
X252203Y861597D01*
X252203Y861597D01*
X219663Y829057D01*
X219051Y828141D01*
X218836Y827060D01*
X218836Y827060D01*
Y818340D01*
X202360D01*
Y800260D01*
X220440D01*
X220440Y800260D01*
Y800260D01*
X221564Y799848D01*
X292711Y728701D01*
X292711Y728701D01*
X293627Y728089D01*
X294708Y727873D01*
X294708Y727874D01*
X313232D01*
X381720Y659386D01*
X381376Y658789D01*
X380760Y656490D01*
Y654110D01*
X381376Y651811D01*
X382566Y649749D01*
X384249Y648066D01*
X386311Y646876D01*
X388610Y646260D01*
X390990D01*
X393289Y646876D01*
X395351Y648066D01*
X397034Y649749D01*
X398224Y651811D01*
X398840Y654110D01*
Y656490D01*
X398224Y658789D01*
X397034Y660851D01*
X395351Y662534D01*
X393289Y663724D01*
X390990Y664340D01*
X388610D01*
X386311Y663724D01*
X385714Y663380D01*
X316399Y732695D01*
X315483Y733307D01*
X314402Y733522D01*
X314402Y733522D01*
X295878D01*
X238448Y790952D01*
X238934Y792126D01*
X379550D01*
X379550Y792126D01*
X380631Y792341D01*
X381547Y792953D01*
X390214Y801620D01*
X390811Y801276D01*
X393110Y800660D01*
X395490D01*
X397789Y801276D01*
X399851Y802466D01*
X401534Y804149D01*
X402724Y806211D01*
X403340Y808510D01*
Y810890D01*
X402724Y813189D01*
X401534Y815251D01*
X401007Y815777D01*
X401544Y817037D01*
X408106Y816900D01*
X411220Y813785D01*
X410876Y813189D01*
X410260Y810890D01*
Y808510D01*
X410876Y806211D01*
X412066Y804149D01*
X413749Y802466D01*
X415811Y801276D01*
X418110Y800660D01*
X420490D01*
X422789Y801276D01*
X424851Y802466D01*
X426534Y804149D01*
X427724Y806211D01*
X428340Y808510D01*
Y810890D01*
X427724Y813189D01*
X426534Y815251D01*
X424851Y816934D01*
X422789Y818124D01*
X420490Y818740D01*
X418110D01*
X415811Y818124D01*
X415214Y817780D01*
X412041Y820953D01*
X412041Y820953D01*
X411297Y821697D01*
X410714Y822086D01*
X410504Y822233D01*
X410428Y822286D01*
X410404Y822294D01*
X410381Y822309D01*
X409353Y822623D01*
X408121Y822549D01*
X395560Y822811D01*
X394626Y822830D01*
X394604Y822853D01*
X394300Y822893D01*
Y822834D01*
X393345Y822834D01*
X360613D01*
X359532Y822619D01*
X359390Y822524D01*
X305278D01*
X304792Y823698D01*
X314570Y833476D01*
X451822D01*
X452308Y832302D01*
X442303Y822297D01*
X441691Y821381D01*
X441476Y820300D01*
X441476Y820300D01*
Y818302D01*
X440811Y818124D01*
X438749Y816934D01*
X437066Y815251D01*
X435876Y813189D01*
X435260Y810890D01*
Y808510D01*
X435876Y806211D01*
X437066Y804149D01*
X438749Y802466D01*
X440811Y801276D01*
X443110Y800660D01*
X445490D01*
X447789Y801276D01*
X449851Y802466D01*
X451534Y804149D01*
X452724Y806211D01*
X453340Y808510D01*
Y810890D01*
X452724Y813189D01*
X451534Y815251D01*
X449851Y816934D01*
X447789Y818124D01*
X447772Y818129D01*
X447508Y819514D01*
X457170Y829176D01*
X536930D01*
X575708Y790398D01*
X575222Y789224D01*
X542501D01*
X542501Y789224D01*
X541420Y789009D01*
X540504Y788397D01*
X468220Y716114D01*
X466950Y716546D01*
X466455Y717741D01*
X465541Y718655D01*
X464513Y719081D01*
X451397Y732197D01*
X450481Y732809D01*
X449400Y733024D01*
X449400Y733024D01*
X418354D01*
X418014Y734294D01*
X419580Y735198D01*
X421302Y736920D01*
X422520Y739030D01*
X423150Y741382D01*
Y743818D01*
X422520Y746170D01*
X421302Y748280D01*
X419580Y750002D01*
X417470Y751220D01*
X415118Y751850D01*
X412682D01*
X410330Y751220D01*
X408220Y750002D01*
X406498Y748280D01*
X405280Y746170D01*
X404650Y743818D01*
Y741382D01*
X405280Y739030D01*
X406498Y736920D01*
X408220Y735198D01*
X409786Y734294D01*
X409446Y733024D01*
X378674D01*
X377646Y733450D01*
X376354D01*
X375159Y732955D01*
X374245Y732041D01*
X373750Y730846D01*
Y729554D01*
X374245Y728359D01*
X375159Y727445D01*
X376354Y726950D01*
X377646D01*
X378674Y727376D01*
X403598D01*
X404650Y726850D01*
X404650Y726106D01*
Y708350D01*
X423150D01*
Y726106D01*
X423150Y726850D01*
X424202Y727376D01*
X448230D01*
X460519Y715087D01*
X460945Y714059D01*
X461859Y713145D01*
X463054Y712650D01*
X463487Y711380D01*
X455016Y702909D01*
X454403Y701993D01*
X454188Y700912D01*
X454188Y700912D01*
Y663171D01*
X454177Y663165D01*
X454086Y662947D01*
X454123Y662872D01*
X453375Y661897D01*
X452057Y658715D01*
X451607Y655300D01*
X452057Y651885D01*
X453375Y648704D01*
X455471Y645971D01*
X458204Y643875D01*
X461005Y642714D01*
X461470Y641383D01*
X457203Y637117D01*
X456591Y636200D01*
X456376Y635120D01*
X456376Y635119D01*
Y600624D01*
X455106Y599776D01*
X454926Y599850D01*
X453434D01*
X452056Y599279D01*
X451001Y598224D01*
X450430Y596846D01*
Y595354D01*
X451001Y593976D01*
X451356Y593621D01*
Y583355D01*
X451356Y583355D01*
X451571Y582274D01*
X452183Y581358D01*
X452336Y581205D01*
Y571330D01*
X432570Y551564D01*
X277870D01*
X274857Y554577D01*
X273941Y555189D01*
X272860Y555404D01*
X272860Y555404D01*
X249256D01*
X249256Y555404D01*
X248175Y555189D01*
X247259Y554577D01*
X247259Y554577D01*
X244246Y551564D01*
X223138D01*
X222057Y551349D01*
X221141Y550737D01*
X203703Y533299D01*
X203207Y533586D01*
X200982Y534182D01*
X198678D01*
X196453Y533586D01*
X194457Y532434D01*
X193616Y531592D01*
X193477Y531555D01*
X192050Y531823D01*
X191807Y532187D01*
X191807Y532187D01*
X177597Y546397D01*
X176681Y547009D01*
X175600Y547224D01*
X175600Y547224D01*
X20400D01*
X20400Y547224D01*
X19319Y547009D01*
X18403Y546397D01*
X18403Y546397D01*
X9003Y536997D01*
X8391Y536081D01*
X8285Y535549D01*
X8171Y535378D01*
X7956Y534297D01*
X7956Y534297D01*
Y517503D01*
X7956Y517503D01*
X8171Y516422D01*
X8783Y515505D01*
X13585Y510703D01*
X13586Y510703D01*
X14502Y510091D01*
X15583Y509876D01*
X15583Y509876D01*
X26017D01*
X26017Y509876D01*
X27098Y510091D01*
X28014Y510703D01*
X37771Y520460D01*
X38919Y520514D01*
X39063Y520488D01*
X39366Y520359D01*
X40827Y518898D01*
X42823Y517746D01*
X45048Y517150D01*
X47352D01*
X49577Y517746D01*
X50073Y518033D01*
X159932Y408173D01*
X159446Y407000D01*
X5000D01*
Y785740D01*
X5632Y786160D01*
X6270Y786248D01*
X34924Y760865D01*
X34910Y760850D01*
X34969Y760826D01*
X35257Y760131D01*
X35256Y760127D01*
Y748700D01*
Y741730D01*
X35253D01*
X35479Y740012D01*
X36142Y738412D01*
X37197Y737037D01*
X38572Y735983D01*
X40172Y735320D01*
X41890Y735093D01*
Y735093D01*
X41952Y735061D01*
X42375Y733637D01*
X42050Y733124D01*
X16490D01*
Y733127D01*
X14772Y732901D01*
X13172Y732238D01*
X11797Y731183D01*
X10742Y729809D01*
X10079Y728208D01*
X9853Y726490D01*
X10079Y724772D01*
X10742Y723172D01*
X11797Y721797D01*
X13172Y720742D01*
X14772Y720079D01*
X16490Y719853D01*
Y719856D01*
X34270D01*
X34274Y719857D01*
X34969Y719569D01*
X35257Y718874D01*
X35256Y718870D01*
Y717600D01*
Y680390D01*
X35256Y680390D01*
X35471Y679309D01*
X36083Y678393D01*
X74890Y639586D01*
X74606Y639094D01*
X74010Y636871D01*
Y634569D01*
X74606Y632346D01*
X75756Y630354D01*
X77383Y628726D01*
X79377Y627576D01*
X81599Y626980D01*
X83901D01*
X86124Y627576D01*
X88117Y628726D01*
X89744Y630354D01*
X90894Y632346D01*
X91490Y634569D01*
Y636871D01*
X90894Y639094D01*
X89744Y641087D01*
X88117Y642714D01*
X86124Y643864D01*
X83901Y644460D01*
X81599D01*
X79377Y643864D01*
X78884Y643580D01*
X40904Y681560D01*
Y704388D01*
X42174Y704773D01*
X43369Y702986D01*
X45876Y700479D01*
X48824Y698509D01*
X52100Y697152D01*
X55577Y696460D01*
X59123D01*
X62600Y697152D01*
X65876Y698509D01*
X68824Y700479D01*
X71332Y702986D01*
X73301Y705934D01*
X74658Y709210D01*
X75350Y712687D01*
Y716233D01*
X74658Y719710D01*
X73301Y722986D01*
X71332Y725934D01*
X68824Y728441D01*
X65876Y730411D01*
X62600Y731768D01*
X59123Y732460D01*
X55577D01*
X52100Y731768D01*
X49149Y730546D01*
X48351Y731169D01*
X48159Y731476D01*
X48539Y732392D01*
X48765Y734110D01*
X48539Y735828D01*
X47876Y737429D01*
X46821Y738803D01*
X45447Y739858D01*
X43846Y740521D01*
X42128Y740747D01*
Y740747D01*
X41084Y741291D01*
X40903Y741726D01*
X40904Y741730D01*
Y748700D01*
Y760127D01*
X40907D01*
X40681Y761845D01*
X40018Y763445D01*
X38963Y764820D01*
X38756Y764979D01*
X38669Y765093D01*
X9927Y790555D01*
X9940Y790570D01*
D01*
X10277Y791438D01*
X11678Y791637D01*
X28303Y776910D01*
X28563Y776758D01*
X29383Y776129D01*
X30984Y775466D01*
X32702Y775239D01*
X34419Y775466D01*
X36020Y776129D01*
X37395Y777183D01*
X37508Y777324D01*
X37551Y777353D01*
X37646Y777496D01*
X37646Y777496D01*
X37726Y777616D01*
X38449Y778558D01*
X38655Y779053D01*
X39975Y778923D01*
X40042Y778590D01*
X41399Y775314D01*
X43369Y772366D01*
X45876Y769858D01*
X48824Y767889D01*
X52100Y766532D01*
X55577Y765840D01*
X59123D01*
X62600Y766532D01*
X65876Y767889D01*
X68824Y769858D01*
X71332Y772366D01*
X73301Y775314D01*
X74658Y778590D01*
X75350Y782067D01*
Y785613D01*
X74658Y789090D01*
X73301Y792366D01*
X71332Y795314D01*
X68824Y797822D01*
X65876Y799791D01*
X62600Y801148D01*
X59123Y801840D01*
X55577D01*
X53504Y801428D01*
X53354Y801580D01*
X53470Y803269D01*
X53708Y803452D01*
X53706Y803454D01*
X61005Y810753D01*
X76371Y826119D01*
X77383Y825106D01*
X79377Y823956D01*
X81599Y823360D01*
X83901D01*
X86124Y823956D01*
X88117Y825106D01*
X89744Y826733D01*
X90894Y828727D01*
X91490Y830949D01*
Y833251D01*
X90894Y835473D01*
X89744Y837467D01*
X88117Y839094D01*
X86124Y840244D01*
X83901Y840840D01*
X81599D01*
X79377Y840244D01*
X78884Y839960D01*
X75564Y843280D01*
Y865770D01*
X76834Y866295D01*
X77383Y865746D01*
X79377Y864596D01*
X81599Y864000D01*
X83901D01*
X86124Y864596D01*
X88117Y865746D01*
X89744Y867374D01*
X90894Y869367D01*
X91490Y871589D01*
Y873891D01*
X90894Y876114D01*
X89744Y878107D01*
X88117Y879734D01*
X86124Y880884D01*
X83901Y881480D01*
X83124D01*
X82598Y882750D01*
X122944Y923096D01*
X130870D01*
Y923093D01*
X132588Y923319D01*
X134188Y923982D01*
X135563Y925037D01*
X136618Y926412D01*
X137281Y928012D01*
X137507Y929730D01*
X137504D01*
Y976730D01*
X138490Y977326D01*
X139476Y976730D01*
D02*
G37*
G36*
X590168Y924538D02*
X590179Y924527D01*
X590163Y924482D01*
X591891Y923327D01*
X593963Y922915D01*
X594004Y922923D01*
X594004Y922924D01*
X594019Y922964D01*
X601272Y923320D01*
X609546Y924547D01*
X617659Y926580D01*
X619862Y927368D01*
X620900Y926637D01*
Y921624D01*
X613940D01*
X613940Y921624D01*
X612859Y921409D01*
X611943Y920797D01*
X611943Y920797D01*
X584850Y893704D01*
X527924D01*
X527076Y894974D01*
X527150Y895154D01*
Y896646D01*
X526579Y898024D01*
X526224Y898379D01*
Y903545D01*
X526497Y903818D01*
X526497Y903818D01*
X527109Y904734D01*
X527324Y905815D01*
Y914100D01*
X527324Y914100D01*
X527109Y915181D01*
X526497Y916097D01*
X519699Y922895D01*
X520372Y924018D01*
X522479Y923379D01*
X526800Y922953D01*
X531121Y923379D01*
X534410Y924377D01*
X535275Y924639D01*
X535585Y924805D01*
X535577Y924824D01*
X538610Y926137D01*
X540643Y926337D01*
X543899Y927325D01*
X545678Y928276D01*
X586430D01*
X590168Y924538D01*
D02*
G37*
G36*
X154716Y976730D02*
Y904330D01*
X154713D01*
X154939Y902612D01*
X155603Y901012D01*
X156657Y899637D01*
X158032Y898582D01*
X159632Y897919D01*
X161350Y897693D01*
X163068Y897919D01*
X164669Y898582D01*
X166043Y899637D01*
X167098Y901012D01*
X167761Y902612D01*
X167987Y904330D01*
X167984D01*
Y943428D01*
X168970Y944023D01*
X169956Y943428D01*
Y929730D01*
X169953D01*
X170180Y928012D01*
X170842Y926412D01*
X171897Y925037D01*
X173272Y923982D01*
X174872Y923319D01*
X176590Y923093D01*
Y923096D01*
X213672D01*
X213672Y923096D01*
X214753Y923311D01*
X215669Y923923D01*
X218832Y927086D01*
X225000D01*
Y922724D01*
X218000D01*
X218000Y922724D01*
X216919Y922509D01*
X216003Y921897D01*
X216003Y921897D01*
X185253Y891147D01*
X185253Y891147D01*
X179279Y885173D01*
X179277Y885170D01*
X178582Y884882D01*
X178470Y884928D01*
X177473Y885588D01*
X177473Y885588D01*
X176099Y886643D01*
X174498Y887306D01*
X172780Y887532D01*
X171063Y887306D01*
X169462Y886643D01*
X168087Y885588D01*
X168087Y885588D01*
X167033Y884214D01*
X166370Y882613D01*
X166143Y880895D01*
X166370Y879178D01*
X167033Y877577D01*
X168087Y876202D01*
X168089Y876204D01*
X168089Y876204D01*
X176195Y868098D01*
X176042Y867533D01*
X175667Y866879D01*
X174728Y866777D01*
X144939Y896566D01*
X145532Y897769D01*
X146110Y897693D01*
X147828Y897919D01*
X149429Y898582D01*
X150803Y899637D01*
X151858Y901012D01*
X152521Y902612D01*
X152747Y904330D01*
X152744D01*
Y976730D01*
X153730Y977326D01*
X154716Y976730D01*
D02*
G37*
G36*
X483825Y938326D02*
X483750Y938146D01*
Y936654D01*
X484321Y935276D01*
X485376Y934221D01*
X486754Y933650D01*
X487256D01*
X489051Y931855D01*
Y930681D01*
X489051Y930681D01*
X489244Y929710D01*
X489222Y929533D01*
X488514Y928440D01*
X487549D01*
X485326Y927844D01*
X483334Y926694D01*
X481706Y925067D01*
X480556Y923074D01*
X479960Y920851D01*
Y918549D01*
X480556Y916327D01*
X481706Y914333D01*
X483334Y912706D01*
X485326Y911556D01*
X487549Y910960D01*
X489851D01*
X492074Y911556D01*
X494067Y912706D01*
X495694Y914333D01*
X496844Y916327D01*
X497440Y918549D01*
Y919326D01*
X498710Y919852D01*
X507476Y911086D01*
Y898479D01*
X507121Y898124D01*
X506550Y896746D01*
Y895453D01*
X506113Y894968D01*
X506107Y894963D01*
X505470Y894543D01*
X504611Y894714D01*
X504610Y894714D01*
X465191D01*
X464664Y895984D01*
X465214Y896534D01*
X466364Y898527D01*
X466960Y900749D01*
Y903051D01*
X466364Y905274D01*
X465214Y907266D01*
X463587Y908894D01*
X461594Y910044D01*
X459371Y910640D01*
X457069D01*
X454846Y910044D01*
X452854Y908894D01*
X451226Y907266D01*
X450076Y905274D01*
X449480Y903051D01*
Y900749D01*
X450076Y898527D01*
X451226Y896534D01*
X451776Y895984D01*
X451249Y894714D01*
X434924D01*
X430564Y899074D01*
Y910960D01*
X436480D01*
Y925627D01*
X437653Y926113D01*
X440200Y923566D01*
X439916Y923074D01*
X439320Y920851D01*
Y918549D01*
X439916Y916327D01*
X441066Y914333D01*
X442693Y912706D01*
X444687Y911556D01*
X446909Y910960D01*
X449211D01*
X451433Y911556D01*
X453427Y912706D01*
X455054Y914333D01*
X456204Y916327D01*
X456800Y918549D01*
Y920851D01*
X456204Y923074D01*
X455054Y925067D01*
X453427Y926694D01*
X451433Y927844D01*
X450884Y927991D01*
Y935790D01*
X454690Y939596D01*
X482976D01*
X483825Y938326D01*
D02*
G37*
G36*
X879836Y925116D02*
X879286Y924566D01*
X878136Y922573D01*
X877540Y920351D01*
Y918049D01*
X878136Y915826D01*
X879286Y913833D01*
X880913Y912206D01*
X882906Y911056D01*
X883306Y910949D01*
Y905535D01*
Y896035D01*
X877362Y890091D01*
X850144D01*
X849658Y891264D01*
X851934Y893540D01*
X852427Y893256D01*
X854649Y892660D01*
X856951D01*
X859174Y893256D01*
X861167Y894406D01*
X862794Y896033D01*
X863944Y898027D01*
X864540Y900249D01*
Y902551D01*
X863944Y904773D01*
X862794Y906767D01*
X861167Y908394D01*
X859174Y909544D01*
X856951Y910140D01*
X854649D01*
X852427Y909544D01*
X850434Y908394D01*
X848806Y906767D01*
X847656Y904773D01*
X847060Y902551D01*
Y900249D01*
X847656Y898027D01*
X847940Y897534D01*
X844537Y894131D01*
X819341D01*
X818813Y894026D01*
X818281Y893924D01*
X818272Y893918D01*
X818260Y893916D01*
X817811Y893616D01*
X817360Y893319D01*
X786906Y863348D01*
X786906Y863348D01*
X786001Y862458D01*
X772140Y848816D01*
X772111Y848845D01*
X772074Y848821D01*
X770900Y847064D01*
X770567Y845387D01*
X769322Y844842D01*
X764875Y849360D01*
X764904Y849389D01*
X764880Y849426D01*
X763123Y850599D01*
X762435Y850736D01*
X762066Y851952D01*
X820574Y910460D01*
X834060D01*
Y924990D01*
X835330Y925516D01*
X837780Y923066D01*
X837496Y922573D01*
X836900Y920351D01*
Y918049D01*
X837496Y915826D01*
X838646Y913833D01*
X840274Y912206D01*
X842266Y911056D01*
X844489Y910460D01*
X846791D01*
X849014Y911056D01*
X851006Y912206D01*
X852634Y913833D01*
X853784Y915826D01*
X854380Y918049D01*
Y920351D01*
X853784Y922573D01*
X853500Y923066D01*
X856820Y926386D01*
X879309D01*
X879836Y925116D01*
D02*
G37*
G36*
X903626Y912016D02*
Y898424D01*
X891253Y886051D01*
X882970D01*
X882484Y887224D01*
X888127Y892868D01*
X888739Y893784D01*
X888954Y894865D01*
Y905535D01*
Y910868D01*
X889653Y911056D01*
X891646Y912206D01*
X893274Y913833D01*
X894424Y915826D01*
X895020Y918049D01*
Y918826D01*
X896290Y919352D01*
X903626Y912016D01*
D02*
G37*
G36*
X741463Y807158D02*
X741434Y807129D01*
X741458Y807092D01*
X743215Y805919D01*
X743904Y805782D01*
X744272Y804566D01*
X724210Y784504D01*
X723193D01*
X722112Y784289D01*
X721196Y783677D01*
X703605Y766087D01*
X699671D01*
X699670Y766087D01*
X698590Y765872D01*
X697673Y765260D01*
X697673Y765260D01*
X678623Y746209D01*
X678011Y745293D01*
X677796Y744212D01*
X677796Y744212D01*
Y740591D01*
X668469Y731264D01*
X666971Y731562D01*
X666855Y731841D01*
X665941Y732755D01*
X664746Y733250D01*
X664576D01*
X664056Y734520D01*
X735369Y804703D01*
X736274Y805593D01*
X736274Y805593D01*
X736303Y805564D01*
X736340Y805588D01*
X737513Y807345D01*
X737847Y809022D01*
X739092Y809567D01*
X741463Y807158D01*
D02*
G37*
G36*
X727175Y815477D02*
X727312Y814788D01*
X728461Y813068D01*
X728461D01*
X728520Y813068D01*
X731582Y809956D01*
X731529Y809586D01*
X731204Y808529D01*
X726649Y804046D01*
X725574Y804770D01*
X725650Y804954D01*
Y806246D01*
X725155Y807441D01*
X724241Y808355D01*
X723046Y808850D01*
X721753D01*
X720559Y808355D01*
X719645Y807441D01*
X719150Y806246D01*
Y804954D01*
X719645Y803759D01*
X720559Y802845D01*
X721753Y802350D01*
X723046D01*
X723165Y802399D01*
X723879Y801320D01*
X708420Y786106D01*
X707206Y786480D01*
X707060Y787215D01*
X705887Y788971D01*
X705852Y788936D01*
X705851Y788936D01*
X701834Y792953D01*
X702406Y794178D01*
X704121Y794519D01*
X705877Y795693D01*
X705877Y795693D01*
X706725Y796611D01*
X721957Y811843D01*
X725960Y815845D01*
X727175Y815477D01*
D02*
G37*
G36*
X387731Y815916D02*
X387066Y815251D01*
X385876Y813189D01*
X385260Y810890D01*
Y808510D01*
X385876Y806211D01*
X386220Y805614D01*
X378380Y797774D01*
X294952D01*
X294521Y799044D01*
X295729Y799971D01*
X297825Y802704D01*
X299143Y805885D01*
X299593Y809300D01*
X299187Y812380D01*
X303683Y816876D01*
X360260D01*
Y800660D01*
X378340D01*
Y817186D01*
X387205D01*
X387731Y815916D01*
D02*
G37*
G36*
X773680Y824190D02*
X773250Y822584D01*
Y820016D01*
X773914Y817537D01*
X775198Y815313D01*
X777013Y813498D01*
X779237Y812215D01*
X779508Y812142D01*
X779531Y812098D01*
X779681Y810781D01*
X779295Y810519D01*
X779108Y810328D01*
X778886Y810180D01*
X718037Y749331D01*
X717425Y748415D01*
X717219Y747381D01*
X715765Y745927D01*
X714802Y746468D01*
X714650Y746608D01*
Y747847D01*
X714155Y749041D01*
X713241Y749955D01*
X712047Y750450D01*
X710753D01*
X709653Y749994D01*
X704570D01*
X704570Y749994D01*
X703489Y749779D01*
X702573Y749167D01*
X699703Y746297D01*
X699091Y745381D01*
X698979Y744819D01*
X698295Y744655D01*
X697657Y744685D01*
X697151Y745443D01*
X693881Y748713D01*
X693455Y749741D01*
X692541Y750655D01*
X692295Y751893D01*
X700840Y760438D01*
X704775D01*
X704775Y760438D01*
X705856Y760653D01*
X706772Y761266D01*
X724362Y778856D01*
X725380D01*
X725380Y778856D01*
X726461Y779071D01*
X727377Y779683D01*
X772542Y824848D01*
X773680Y824190D01*
D02*
G37*
G36*
X946603Y804703D02*
X946603Y804703D01*
X947976Y803330D01*
Y769288D01*
X946706Y768762D01*
X946166Y769302D01*
X944284Y770388D01*
X942186Y770950D01*
X940014D01*
X937916Y770388D01*
X936034Y769302D01*
X934498Y767766D01*
X933412Y765884D01*
X932850Y763786D01*
Y761614D01*
X933386Y759613D01*
X933312Y759484D01*
X933250Y759252D01*
X931257Y757260D01*
X930135Y755798D01*
X929430Y754095D01*
X929190Y752268D01*
Y748333D01*
X929430Y746505D01*
X930135Y744802D01*
X931257Y743340D01*
X933250Y741348D01*
X933312Y741116D01*
X934398Y739234D01*
X935934Y737698D01*
X937816Y736612D01*
X939914Y736050D01*
X942086D01*
X944184Y736612D01*
X946066Y737698D01*
X946706Y738338D01*
X947976Y737812D01*
Y700470D01*
X945630Y698124D01*
X830869D01*
X830383Y699298D01*
X875474Y744390D01*
X889485D01*
X889612Y743916D01*
X890698Y742034D01*
X892234Y740498D01*
X894116Y739412D01*
X896214Y738850D01*
X898386D01*
X900484Y739412D01*
X902366Y740498D01*
X903902Y742034D01*
X904988Y743916D01*
X905115Y744390D01*
X909043D01*
X909834Y743598D01*
X911716Y742512D01*
X913814Y741950D01*
X915986D01*
X918084Y742512D01*
X919966Y743598D01*
X921502Y745134D01*
X922588Y747016D01*
X923150Y749114D01*
Y751286D01*
X922637Y753200D01*
X923150Y755114D01*
Y757286D01*
X922588Y759384D01*
X921502Y761266D01*
X919966Y762802D01*
X918084Y763888D01*
X915986Y764450D01*
X913814D01*
X911716Y763888D01*
X909834Y762802D01*
X909043Y762010D01*
X904353D01*
X903802Y762966D01*
X902266Y764502D01*
X900384Y765588D01*
X898286Y766150D01*
X896114D01*
X894016Y765588D01*
X892134Y764502D01*
X890598Y762966D01*
X890047Y762010D01*
X871100D01*
X869273Y761770D01*
X867570Y761065D01*
X866108Y759942D01*
X765807Y659642D01*
X764686Y658180D01*
X763980Y656477D01*
X763740Y654650D01*
Y619774D01*
X755451Y611485D01*
X680050D01*
Y611846D01*
X679479Y613224D01*
X678583Y614120D01*
X678424Y614279D01*
X678447Y615644D01*
X678579Y615776D01*
X679150Y617154D01*
Y618646D01*
X678579Y620024D01*
X677983Y620620D01*
X677620Y621335D01*
X677972Y622268D01*
X678479Y622776D01*
X679050Y624154D01*
Y625646D01*
X678479Y627024D01*
X677424Y628079D01*
X677222Y628163D01*
Y629537D01*
X677424Y629621D01*
X678479Y630676D01*
X679050Y632054D01*
Y633546D01*
X678479Y634924D01*
X677424Y635979D01*
X676046Y636550D01*
X675014D01*
X673497Y638067D01*
X672580Y638679D01*
X671500Y638894D01*
X670843Y639866D01*
Y640125D01*
X670674Y640974D01*
X670193Y641693D01*
X669474Y642174D01*
X668625Y642343D01*
X664575D01*
X663726Y642174D01*
X662303Y642443D01*
X661239Y643154D01*
X659985Y643403D01*
X659710D01*
Y637800D01*
X657960D01*
Y636050D01*
X652657D01*
Y635475D01*
X652906Y634221D01*
X653617Y633157D01*
X653667Y632153D01*
X652659Y631024D01*
X629883D01*
X616324Y644583D01*
Y664258D01*
X617437Y665114D01*
X617796Y665057D01*
X618084Y664770D01*
X619278Y664275D01*
X620571D01*
X621766Y664770D01*
X622500Y665504D01*
X622938Y665521D01*
X623284Y665465D01*
X623875Y665251D01*
X624245Y664359D01*
X625159Y663445D01*
X626353Y662950D01*
X627646D01*
X628573Y663334D01*
X628652Y663342D01*
X629438Y663021D01*
X629892Y662700D01*
Y661031D01*
X629793Y660883D01*
X629578Y659802D01*
X629578Y659802D01*
Y657698D01*
X629578Y657698D01*
X629793Y656617D01*
X630405Y655701D01*
X633115Y652991D01*
X632817Y651493D01*
X632655Y651426D01*
X632349Y651120D01*
X628496D01*
X628496Y651120D01*
X627415Y650905D01*
X626499Y650293D01*
X626499Y650293D01*
X625382Y649176D01*
X625202Y649250D01*
X623710D01*
X622332Y648679D01*
X621277Y647624D01*
X620706Y646246D01*
Y644754D01*
X621277Y643376D01*
X622332Y642321D01*
X623710Y641750D01*
X625202D01*
X626580Y642321D01*
X627635Y643376D01*
X627756Y643667D01*
X628072Y643878D01*
X629666Y645472D01*
X633727D01*
X633850Y645421D01*
X635143D01*
X636337Y645916D01*
X637251Y646830D01*
X638806Y647264D01*
X639069Y647155D01*
X640362D01*
X641557Y647650D01*
X642471Y648564D01*
X642966Y649759D01*
Y651052D01*
X642471Y652246D01*
X641557Y653160D01*
X640778Y653483D01*
X638573Y655688D01*
X638070Y656024D01*
X635227Y658868D01*
Y658887D01*
X635326Y659035D01*
X635541Y660116D01*
Y662744D01*
X635655Y662859D01*
X636005Y663704D01*
X637029Y664076D01*
X637420Y664086D01*
X643519Y657987D01*
X644436Y657374D01*
X645052Y657252D01*
X645259Y657045D01*
X646453Y656550D01*
X647747D01*
X648941Y657045D01*
X649855Y657959D01*
X650350Y659154D01*
Y660446D01*
X649855Y661641D01*
X648941Y662555D01*
X647747Y663050D01*
X646453D01*
X646447Y663047D01*
X639281Y670213D01*
X638855Y671241D01*
X637941Y672155D01*
X637760Y673066D01*
X643325Y678631D01*
X663385D01*
X663871Y677457D01*
X658603Y672189D01*
X658166Y671535D01*
X656068D01*
X654863Y671296D01*
X653841Y670613D01*
X653159Y669592D01*
X652919Y668388D01*
Y665212D01*
X653159Y664008D01*
X653841Y662987D01*
X654863Y662304D01*
X656068Y662065D01*
X659242D01*
X660447Y662304D01*
X661468Y662987D01*
X662732D01*
X663753Y662304D01*
X664958Y662065D01*
X668132D01*
X669337Y662304D01*
X670359Y662987D01*
X671041Y664008D01*
X671074Y664176D01*
X673567D01*
X674353Y663850D01*
X675647D01*
X676674Y664276D01*
X681700D01*
X681700Y664276D01*
X682781Y664491D01*
X683697Y665103D01*
X693597Y675003D01*
X694209Y675919D01*
X694424Y677000D01*
Y693690D01*
X734770Y734036D01*
X779453D01*
X779819Y733791D01*
X780900Y733576D01*
X792640D01*
X792640Y733576D01*
X793721Y733791D01*
X794637Y734403D01*
X798664Y738429D01*
X800162Y738131D01*
X800485Y737351D01*
X801751Y736085D01*
X803405Y735400D01*
X805195D01*
X806849Y736085D01*
X807030Y736266D01*
X807795Y736049D01*
X808348Y735788D01*
X808985Y734251D01*
X810251Y732985D01*
X811905Y732300D01*
X813695D01*
X815349Y732985D01*
X816615Y734251D01*
X816983Y735141D01*
X818358D01*
X818685Y734351D01*
X819951Y733085D01*
X821605Y732400D01*
X823395D01*
X825049Y733085D01*
X826315Y734351D01*
X827000Y736005D01*
Y737795D01*
X826315Y739449D01*
X825049Y740715D01*
X823395Y741400D01*
X821605D01*
X819951Y740715D01*
X818685Y739449D01*
X818317Y738559D01*
X816942D01*
X816615Y739349D01*
X815349Y740615D01*
X813695Y741300D01*
X811905D01*
X810251Y740615D01*
X810070Y740434D01*
X809305Y740651D01*
X808752Y740912D01*
X808115Y742449D01*
X806849Y743715D01*
X806068Y744038D01*
X805770Y745536D01*
X866310Y806076D01*
X945230D01*
X946603Y804703D01*
D02*
G37*
G36*
X584276Y762730D02*
Y732837D01*
X583849Y732523D01*
X583006Y732173D01*
X582047Y732570D01*
X580754D01*
X579559Y732075D01*
X578645Y731161D01*
X578150Y729967D01*
Y728673D01*
X578576Y727646D01*
Y712010D01*
X577243Y710677D01*
X576659Y710435D01*
X575745Y709521D01*
X575250Y708326D01*
Y707033D01*
X575745Y705839D01*
X576090Y705494D01*
X575564Y704224D01*
X548070D01*
X546013Y706281D01*
X545097Y706893D01*
X544016Y707108D01*
X544016Y707108D01*
X521491D01*
X520463Y707534D01*
X519170D01*
X517975Y707039D01*
X517061Y706125D01*
X516566Y704930D01*
Y703637D01*
X516988Y702620D01*
X516702Y701885D01*
X516358Y701350D01*
X516254D01*
X515059Y700855D01*
X514145Y699941D01*
X514094Y699819D01*
X512540Y698264D01*
X511496D01*
X511496Y698264D01*
X510415Y698049D01*
X509499Y697437D01*
X486818Y674756D01*
X485644Y675242D01*
Y687450D01*
X528431Y730237D01*
X529929Y729939D01*
X530121Y729476D01*
X531176Y728421D01*
X532554Y727850D01*
X534046D01*
X535424Y728421D01*
X536479Y729476D01*
X537050Y730854D01*
Y732346D01*
X536479Y733724D01*
X535424Y734779D01*
X534961Y734971D01*
X534663Y736469D01*
X566352Y768158D01*
X567764D01*
X567876Y768046D01*
X569254Y767475D01*
X570746D01*
X572124Y768046D01*
X573179Y769101D01*
X573750Y770479D01*
Y771460D01*
X575009Y771997D01*
X584276Y762730D01*
D02*
G37*
G36*
X682884Y767994D02*
X683747Y767061D01*
X683747Y767061D01*
X685503Y765888D01*
X686146Y765760D01*
X686509Y764543D01*
X657594Y736086D01*
X657091Y736153D01*
X656324Y736614D01*
Y746210D01*
X676207Y766093D01*
X676207Y766093D01*
X680496Y770382D01*
X682884Y767994D01*
D02*
G37*
G36*
X539950Y652556D02*
Y652054D01*
X540306Y651194D01*
X539613Y649924D01*
X536810D01*
X535730Y649709D01*
X534813Y649097D01*
X534813Y649097D01*
X515160Y629444D01*
X511659D01*
X511124Y629979D01*
X509746Y630550D01*
X508254D01*
X506876Y629979D01*
X505821Y628924D01*
X505250Y627546D01*
Y626054D01*
X505821Y624676D01*
X506876Y623621D01*
X508254Y623050D01*
X509746D01*
X511124Y623621D01*
X511299Y623795D01*
X516330D01*
X516330Y623795D01*
X517411Y624010D01*
X518327Y624623D01*
X525562Y631858D01*
X526736Y631372D01*
Y603440D01*
X526736Y603440D01*
X526876Y602736D01*
Y601973D01*
X526876Y601973D01*
X527091Y600892D01*
X527703Y599976D01*
X528459Y599220D01*
X528299Y598554D01*
X527998Y597885D01*
X526776Y597379D01*
X525721Y596324D01*
X525510Y595814D01*
X524874Y594949D01*
X523887Y594962D01*
X523052Y595129D01*
X521347Y594789D01*
X519901Y593824D01*
X519901Y593824D01*
X519032Y592897D01*
X508976Y582841D01*
X506383Y585434D01*
X506383Y585434D01*
X503045Y588771D01*
Y636142D01*
X503879Y636976D01*
X504450Y638354D01*
Y639846D01*
X503879Y641224D01*
X502824Y642279D01*
X501446Y642850D01*
X499954D01*
X499715Y642751D01*
X498445Y643600D01*
Y648129D01*
X500066Y649750D01*
X501246D01*
X502624Y650321D01*
X503679Y651376D01*
X504250Y652754D01*
Y654246D01*
X503679Y655624D01*
X502624Y656679D01*
X501246Y657250D01*
X500713D01*
X499946Y658520D01*
X500250Y659254D01*
Y660551D01*
X500779Y660939D01*
X501423Y661173D01*
X501776Y660821D01*
X503154Y660250D01*
X504646D01*
X506024Y660821D01*
X506379Y661176D01*
X531330D01*
X539950Y652556D01*
D02*
G37*
G36*
X557795Y783318D02*
X557804Y781797D01*
X472283Y696276D01*
X471671Y695360D01*
X471456Y694279D01*
X471456Y694279D01*
Y660401D01*
X471456Y660400D01*
X471671Y659320D01*
X472283Y658403D01*
X472286Y658401D01*
Y646486D01*
X469667Y643867D01*
X468289Y644286D01*
X468206Y644702D01*
X467708Y645447D01*
X467594Y645618D01*
X467337Y645900D01*
X466886Y646397D01*
X466885Y646397D01*
X466885Y646397D01*
X466208Y647004D01*
X465925Y647193D01*
X465292Y647616D01*
X464371Y647799D01*
X464375Y647879D01*
X462865Y648078D01*
X461062Y648825D01*
X459513Y650013D01*
X458325Y651562D01*
X457578Y653365D01*
X457323Y655300D01*
X457578Y657235D01*
X458195Y658724D01*
X458430Y659176D01*
X458844Y659716D01*
X458753Y659794D01*
X459475Y660875D01*
X459887Y662947D01*
X459887Y662947D01*
X459837Y664217D01*
Y699742D01*
X543671Y783576D01*
X557580D01*
X557795Y783318D01*
D02*
G37*
G36*
X959806Y797945D02*
Y687509D01*
X959806Y687508D01*
X960021Y686428D01*
X960633Y685511D01*
X964446Y681699D01*
Y637885D01*
X963176Y637383D01*
X962009Y638057D01*
X960356Y638500D01*
X958644D01*
X956991Y638057D01*
X955509Y637201D01*
X954299Y635991D01*
X953443Y634509D01*
X953000Y632856D01*
Y631144D01*
X953443Y629491D01*
X954299Y628009D01*
X955509Y626799D01*
X956991Y625943D01*
X958644Y625500D01*
X960356D01*
X962009Y625943D01*
X963176Y626617D01*
X964446Y626115D01*
Y571928D01*
X946198Y553680D01*
X945024Y554166D01*
Y682222D01*
X957597Y694795D01*
X958209Y695711D01*
X958424Y696792D01*
Y798550D01*
X958536Y798624D01*
X959806Y797945D01*
D02*
G37*
G36*
X984476Y817125D02*
Y324070D01*
X951585Y291180D01*
X950989Y291524D01*
X948690Y292140D01*
X946310D01*
X944011Y291524D01*
X941949Y290334D01*
X941284Y289669D01*
X940014Y290195D01*
Y539509D01*
X951842Y551336D01*
X953094Y550793D01*
X953443Y549491D01*
X954299Y548009D01*
X955509Y546799D01*
X956991Y545943D01*
X958644Y545500D01*
X960356D01*
X962009Y545943D01*
X963491Y546799D01*
X964701Y548009D01*
X965557Y549491D01*
X966000Y551144D01*
Y552856D01*
X965557Y554509D01*
X964701Y555991D01*
X963491Y557201D01*
X962009Y558057D01*
X960707Y558406D01*
X960164Y559658D01*
X969267Y568761D01*
X969267Y568761D01*
X969879Y569678D01*
X970094Y570758D01*
X970094Y570759D01*
Y682868D01*
X970094Y682868D01*
X969879Y683949D01*
X969267Y684865D01*
X969267Y684866D01*
X965454Y688678D01*
Y799899D01*
X983206Y817651D01*
X984476Y817125D01*
D02*
G37*
G36*
X168195Y531826D02*
X167428Y531059D01*
X166276Y529063D01*
X165680Y526838D01*
Y524534D01*
X166276Y522309D01*
X167428Y520313D01*
X169057Y518684D01*
X171053Y517532D01*
X173278Y516936D01*
X175582D01*
X177807Y517532D01*
X178017Y517653D01*
X192148Y503523D01*
X192148Y503523D01*
X193064Y502911D01*
X194145Y502696D01*
X232237D01*
X232237Y502696D01*
X233318Y502911D01*
X234234Y503523D01*
X240227Y509516D01*
X244771D01*
X244771Y509516D01*
X245852Y509731D01*
X246768Y510343D01*
X252077Y515652D01*
X252689Y516568D01*
X252904Y517649D01*
X252904Y517649D01*
Y519425D01*
X254174Y519951D01*
X254727Y519398D01*
X256723Y518246D01*
X257276Y518098D01*
Y469955D01*
X257276Y469954D01*
X257491Y468874D01*
X258103Y467957D01*
X280557Y445503D01*
X280557Y445503D01*
X281474Y444891D01*
X282554Y444676D01*
X282555Y444676D01*
X564026D01*
X565054Y444250D01*
X566347D01*
X567541Y444745D01*
X568455Y445659D01*
X568506Y445781D01*
X569776Y445528D01*
Y417070D01*
X562930Y410224D01*
X165870D01*
X54067Y522027D01*
X54354Y522523D01*
X54627Y523543D01*
X56154Y524333D01*
X56183Y524323D01*
X56398Y523242D01*
X57010Y522326D01*
X65666Y513669D01*
X65666Y513669D01*
X66583Y513057D01*
X67664Y512842D01*
X67664Y512842D01*
X127119D01*
X127119Y512842D01*
X128199Y513057D01*
X129116Y513669D01*
X138308Y522862D01*
X140728D01*
X140876Y522309D01*
X142028Y520313D01*
X143657Y518684D01*
X145653Y517532D01*
X147878Y516936D01*
X150182D01*
X152407Y517532D01*
X154403Y518684D01*
X156032Y520313D01*
X157184Y522309D01*
X157780Y524534D01*
Y526838D01*
X157184Y529063D01*
X156032Y531059D01*
X155265Y531826D01*
X155791Y533096D01*
X167669D01*
X168195Y531826D01*
D02*
G37*
G36*
X476326Y640878D02*
Y626530D01*
X476323Y626527D01*
X475711Y625611D01*
X475496Y624530D01*
X475496Y624530D01*
Y573180D01*
X475496Y573180D01*
X475711Y572099D01*
X476323Y571183D01*
X520854Y526652D01*
Y522949D01*
X520854Y522949D01*
X521069Y521868D01*
X521681Y520951D01*
X563140Y479493D01*
X562654Y478319D01*
X427188D01*
X389221Y516287D01*
X389786Y517518D01*
X391707Y518032D01*
X393703Y519184D01*
X395332Y520813D01*
X396484Y522809D01*
X396621Y523321D01*
X397848Y523650D01*
X407583Y513915D01*
X408499Y513303D01*
X409580Y513088D01*
X409580Y513088D01*
X417880D01*
X417880Y513088D01*
X418961Y513303D01*
X419878Y513915D01*
X468997Y563035D01*
X469609Y563951D01*
X469824Y565032D01*
X469824Y565032D01*
Y636036D01*
X475152Y641364D01*
X476326Y640878D01*
D02*
G37*
G36*
X267296Y519425D02*
Y472080D01*
X267296Y472080D01*
X267511Y470999D01*
X268123Y470083D01*
X276983Y461223D01*
X276983Y461223D01*
X277899Y460611D01*
X278980Y460396D01*
X278980Y460396D01*
X557602D01*
X561220Y456778D01*
X562136Y456166D01*
X563217Y455951D01*
X563217Y455951D01*
X563953D01*
X564259Y455645D01*
X565454Y455150D01*
X566746D01*
X567941Y455645D01*
X568855Y456559D01*
X569350Y457753D01*
Y459047D01*
X568855Y460241D01*
X568469Y460627D01*
X568135Y461552D01*
X568485Y462271D01*
X568951Y462737D01*
X569446Y463931D01*
Y465224D01*
X569005Y466289D01*
X568945Y466736D01*
X569141Y467720D01*
X570055Y468634D01*
X570550Y469829D01*
Y471121D01*
X570501Y471239D01*
X571207Y472295D01*
X575526D01*
X576553Y471869D01*
X577846D01*
X579041Y472364D01*
X579606Y472929D01*
X580876Y472434D01*
Y407000D01*
X569353D01*
X568867Y408173D01*
X574597Y413903D01*
X575209Y414819D01*
X575424Y415900D01*
X575424Y415900D01*
Y449311D01*
X575649Y449854D01*
Y451147D01*
X575155Y452342D01*
X574240Y453256D01*
X573046Y453751D01*
X571753D01*
X570558Y453256D01*
X569644Y452342D01*
X569149Y451147D01*
Y450443D01*
X567879Y449917D01*
X567541Y450255D01*
X566347Y450750D01*
X565054D01*
X564026Y450324D01*
X494533D01*
X493684Y451594D01*
X493750Y451754D01*
Y453046D01*
X493255Y454241D01*
X492341Y455155D01*
X491147Y455650D01*
X489854D01*
X488659Y455155D01*
X487745Y454241D01*
X487250Y453046D01*
Y451754D01*
X487316Y451594D01*
X486467Y450324D01*
X283724D01*
X262924Y471124D01*
Y518098D01*
X263477Y518246D01*
X265473Y519398D01*
X266026Y519951D01*
X267296Y519425D01*
D02*
G37*
G36*
X997000Y975000D02*
Y28000D01*
X972000Y3000D01*
X521659D01*
X521173Y4173D01*
X602000Y85000D01*
Y230280D01*
X708625D01*
X709151Y229010D01*
X708598Y228457D01*
X707446Y226461D01*
X706850Y224236D01*
Y221932D01*
X707446Y219707D01*
X708598Y217711D01*
X710227Y216082D01*
X712223Y214930D01*
X714448Y214334D01*
X716752D01*
X718977Y214930D01*
X720973Y216082D01*
X722602Y217711D01*
X723754Y219707D01*
X724350Y221932D01*
Y224236D01*
X723754Y226461D01*
X722602Y228457D01*
X722049Y229010D01*
X722575Y230280D01*
X747843D01*
X748340Y228425D01*
X749530Y226363D01*
X751213Y224680D01*
X753275Y223490D01*
X755574Y222874D01*
X757954D01*
X760253Y223490D01*
X762315Y224680D01*
X763998Y226363D01*
X765188Y228425D01*
X765804Y230724D01*
Y233104D01*
X765188Y235403D01*
X763998Y237465D01*
X762315Y239148D01*
X760253Y240338D01*
X757954Y240954D01*
X755574D01*
X753275Y240338D01*
X751213Y239148D01*
X749530Y237465D01*
X748643Y235928D01*
X602000D01*
Y255680D01*
X708625D01*
X709151Y254410D01*
X708598Y253857D01*
X707446Y251861D01*
X706850Y249636D01*
Y247332D01*
X707446Y245107D01*
X708598Y243111D01*
X710227Y241482D01*
X712223Y240330D01*
X714448Y239734D01*
X716752D01*
X718977Y240330D01*
X720973Y241482D01*
X722602Y243111D01*
X723754Y245107D01*
X724350Y247332D01*
Y249636D01*
X723754Y251861D01*
X722602Y253857D01*
X722049Y254410D01*
X722575Y255680D01*
X747736D01*
X748340Y253425D01*
X749530Y251363D01*
X751213Y249680D01*
X753275Y248490D01*
X755574Y247874D01*
X757954D01*
X760253Y248490D01*
X762315Y249680D01*
X763998Y251363D01*
X765188Y253425D01*
X765804Y255724D01*
Y258104D01*
X765188Y260403D01*
X763998Y262465D01*
X762315Y264148D01*
X760253Y265338D01*
X757954Y265954D01*
X755574D01*
X753275Y265338D01*
X751213Y264148D01*
X749530Y262465D01*
X748874Y261328D01*
X602000D01*
Y284076D01*
X711453D01*
X711793Y282806D01*
X710227Y281902D01*
X708598Y280273D01*
X707446Y278277D01*
X706850Y276052D01*
Y273748D01*
X707446Y271523D01*
X708598Y269527D01*
X710227Y267898D01*
X712223Y266746D01*
X714448Y266150D01*
X716752D01*
X718977Y266746D01*
X720973Y267898D01*
X722602Y269527D01*
X723754Y271523D01*
X724350Y273748D01*
Y276052D01*
X723754Y278277D01*
X722602Y280273D01*
X720973Y281902D01*
X719407Y282806D01*
X719747Y284076D01*
X746670D01*
X747724Y283104D01*
Y280724D01*
X748340Y278425D01*
X749530Y276363D01*
X751213Y274680D01*
X753275Y273490D01*
X755574Y272874D01*
X757954D01*
X760253Y273490D01*
X762315Y274680D01*
X763998Y276363D01*
X765188Y278425D01*
X765804Y280724D01*
Y283104D01*
X765188Y285403D01*
X763998Y287465D01*
X762315Y289148D01*
X760253Y290338D01*
X757954Y290954D01*
X755574D01*
X753275Y290338D01*
X751213Y289148D01*
X750979Y288913D01*
X750087Y289509D01*
X749006Y289724D01*
X749006Y289724D01*
X602000D01*
Y307710D01*
X708839D01*
X709365Y306440D01*
X708812Y305887D01*
X707660Y303891D01*
X707064Y301666D01*
Y299362D01*
X707660Y297137D01*
X708812Y295141D01*
X710441Y293512D01*
X712437Y292360D01*
X714662Y291764D01*
X716966D01*
X719191Y292360D01*
X721187Y293512D01*
X722816Y295141D01*
X723968Y297137D01*
X724564Y299362D01*
Y301666D01*
X723968Y303891D01*
X722816Y305887D01*
X722263Y306440D01*
X722789Y307710D01*
X747724D01*
Y305724D01*
X748340Y303425D01*
X749530Y301363D01*
X751213Y299680D01*
X753275Y298490D01*
X755574Y297874D01*
X757954D01*
X760253Y298490D01*
X762315Y299680D01*
X763998Y301363D01*
X765188Y303425D01*
X765804Y305724D01*
Y308104D01*
X765188Y310403D01*
X763998Y312465D01*
X762315Y314148D01*
X760253Y315338D01*
X757954Y315954D01*
X755574D01*
X753275Y315338D01*
X751213Y314148D01*
X750312Y313247D01*
X749751Y313358D01*
X749751Y313358D01*
X602000D01*
Y380297D01*
X602785Y381082D01*
X603500Y381132D01*
X604215Y381082D01*
X605176Y380121D01*
X606554Y379550D01*
X608046D01*
X609424Y380121D01*
X610479Y381176D01*
X611050Y382554D01*
Y384046D01*
X610801Y384648D01*
X611645Y385918D01*
X705982D01*
X707064Y385464D01*
X707064Y384648D01*
Y367964D01*
X724564D01*
Y384648D01*
X724564Y385464D01*
X725646Y385918D01*
X767361D01*
X798384Y354895D01*
Y277377D01*
X790683Y269676D01*
X790071Y268760D01*
X789856Y267679D01*
X789856Y267679D01*
Y261050D01*
X789856Y261050D01*
X790071Y259970D01*
X790683Y259053D01*
X793450Y256286D01*
Y255254D01*
X794021Y253876D01*
X795076Y252821D01*
X796454Y252250D01*
X797946D01*
X799324Y252821D01*
X800379Y253876D01*
X800950Y255254D01*
Y256746D01*
X800379Y258124D01*
X799324Y259179D01*
X797995Y259730D01*
X797144Y260580D01*
X797671Y261850D01*
X798446D01*
X799824Y262421D01*
X800879Y263476D01*
X801450Y264854D01*
Y266346D01*
X801334Y266626D01*
X807245Y272537D01*
X807857Y273453D01*
X808072Y274534D01*
X808072Y274534D01*
Y357739D01*
X808072Y357739D01*
X807857Y358820D01*
X807245Y359736D01*
X807245Y359736D01*
X772201Y394779D01*
X771285Y395392D01*
X770204Y395607D01*
X770204Y395606D01*
X602000D01*
Y398304D01*
X602855Y399159D01*
X602883Y399227D01*
X604245Y399259D01*
X605159Y398345D01*
X606353Y397850D01*
X607646D01*
X608841Y398345D01*
X609755Y399259D01*
X610250Y400454D01*
Y401746D01*
X609824Y402774D01*
Y471991D01*
X609609Y473072D01*
X608997Y473988D01*
X608997Y473988D01*
X597486Y485499D01*
X597972Y486672D01*
X660617D01*
X660617Y486672D01*
X661515Y486851D01*
X662276Y487359D01*
X668471Y493555D01*
X673885D01*
Y487769D01*
X673844D01*
X674183Y486064D01*
X675149Y484619D01*
X676595Y483653D01*
X678300Y483314D01*
X680005Y483653D01*
X680895Y484248D01*
X682165Y483576D01*
Y480580D01*
X681296Y480246D01*
X680895Y480208D01*
X679924Y481179D01*
X678546Y481750D01*
X677054D01*
X675676Y481179D01*
X674621Y480124D01*
X674050Y478746D01*
Y477254D01*
X674621Y475876D01*
X675676Y474821D01*
X677054Y474250D01*
X678546D01*
X679924Y474821D01*
X680895Y475792D01*
X681296Y475754D01*
X682165Y475420D01*
Y470030D01*
X682124D01*
X682463Y468325D01*
X683429Y466879D01*
X684875Y465914D01*
X686580Y465574D01*
X688285Y465914D01*
X689731Y466879D01*
X689956Y467217D01*
X691484D01*
X691709Y466879D01*
X693155Y465914D01*
X694860Y465574D01*
X696565Y465914D01*
X698010Y466879D01*
X698976Y468325D01*
X699315Y470030D01*
X699275D01*
Y493555D01*
X711850D01*
X712103Y492285D01*
X711451Y492015D01*
X710185Y490749D01*
X709500Y489095D01*
Y487305D01*
X710185Y485651D01*
X711451Y484385D01*
X711666Y484296D01*
Y482921D01*
X711651Y482915D01*
X710385Y481649D01*
X709700Y479995D01*
Y478205D01*
X710385Y476551D01*
X711651Y475285D01*
X713305Y474600D01*
X715095D01*
X716749Y475285D01*
X718015Y476551D01*
X718700Y478205D01*
Y479995D01*
X718015Y481649D01*
X716749Y482915D01*
X716534Y483004D01*
Y484379D01*
X716549Y484385D01*
X717729Y485565D01*
X718104Y485650D01*
X719188Y485648D01*
X720251Y484585D01*
X721905Y483900D01*
X723695D01*
X725349Y484585D01*
X726129Y485365D01*
X727139Y485595D01*
X727730Y485306D01*
X728651Y484385D01*
X730305Y483700D01*
X732095D01*
X733749Y484385D01*
X735015Y485651D01*
X735700Y487305D01*
Y489095D01*
X735015Y490749D01*
X733749Y492015D01*
X733097Y492285D01*
X733350Y493555D01*
X788652D01*
X788652Y493555D01*
X789549Y493733D01*
X790310Y494242D01*
X819045Y522976D01*
X897490D01*
X897490Y522976D01*
X898388Y523155D01*
X899149Y523663D01*
X913688Y538203D01*
X913688Y538203D01*
X914196Y538963D01*
X914375Y539861D01*
Y543754D01*
X914196Y544652D01*
X913688Y545412D01*
X913688Y545412D01*
X899742Y559358D01*
X898981Y559866D01*
X898084Y560045D01*
X898084Y560045D01*
X876083D01*
X875557Y561315D01*
X890684Y576442D01*
X902358Y588116D01*
X902358Y588116D01*
X902867Y588877D01*
X903045Y589775D01*
Y611300D01*
Y613500D01*
X902867Y614397D01*
X902358Y615158D01*
X902358Y615158D01*
X891395Y626121D01*
X890635Y626629D01*
X889737Y626808D01*
X889737Y626808D01*
X877542D01*
X877542Y626808D01*
X876645Y626629D01*
X875920Y626145D01*
X866858D01*
X866024Y626979D01*
X864646Y627550D01*
X863154D01*
X861776Y626979D01*
X860721Y625924D01*
X860150Y624546D01*
Y623054D01*
X860721Y621676D01*
X861776Y620621D01*
X863154Y620050D01*
X864646D01*
X866024Y620621D01*
X866858Y621455D01*
X876880D01*
X876880Y621455D01*
X877777Y621633D01*
X878502Y622118D01*
X888766D01*
X897504Y613380D01*
X897476Y613237D01*
X896097Y612819D01*
X894758Y614158D01*
X893997Y614666D01*
X893100Y614845D01*
X893100Y614845D01*
X838758D01*
X838124Y615479D01*
X836746Y616050D01*
X835254D01*
X833876Y615479D01*
X832821Y614424D01*
X832250Y613046D01*
Y611554D01*
X832821Y610176D01*
X833876Y609121D01*
X835254Y608550D01*
X836746D01*
X838124Y609121D01*
X839158Y610155D01*
X892129D01*
X894492Y607791D01*
Y592409D01*
X889392Y587308D01*
X889392Y587308D01*
X884114Y582031D01*
X868600Y597545D01*
X868629Y597573D01*
X867183Y598539D01*
X865478Y598878D01*
X863773Y598539D01*
X862328Y597573D01*
X862328Y597573D01*
X862328Y597573D01*
X862328Y597573D01*
X861362Y596128D01*
X861023Y594423D01*
X861362Y592718D01*
X862328Y591272D01*
X862356Y591301D01*
X862356Y591301D01*
X871614Y582043D01*
X871190Y580671D01*
X870141Y580462D01*
X868695Y579496D01*
X868695Y579496D01*
X868695Y579496D01*
X868695Y579496D01*
X867729Y578050D01*
X867390Y576345D01*
X867729Y574640D01*
X868695Y573195D01*
X868724Y573223D01*
X868724Y573223D01*
X872016Y569932D01*
X869779Y567695D01*
X863475D01*
X863211Y567805D01*
X855421Y575594D01*
X855450Y575623D01*
X854004Y576589D01*
X852299Y576928D01*
X850594Y576589D01*
X849149Y575623D01*
X849149Y575623D01*
X849149Y575623D01*
X849149Y575623D01*
X848183Y574178D01*
X847974Y573128D01*
X846601Y572705D01*
X843711Y575594D01*
X843740Y575623D01*
X842295Y576589D01*
X840590Y576928D01*
X838885Y576589D01*
X837439Y575623D01*
X837439Y575623D01*
X837439Y575623D01*
X837439Y575623D01*
X836473Y574178D01*
X836134Y572473D01*
X836199Y572144D01*
X835119Y571064D01*
X834651Y571157D01*
X832946Y570818D01*
X831501Y569852D01*
X831501Y569852D01*
X831500Y569852D01*
X831501Y569852D01*
X830535Y568406D01*
X830196Y566701D01*
X830275Y566303D01*
X829195Y565223D01*
X828796Y565302D01*
X827091Y564963D01*
X826760Y564741D01*
X825650Y564967D01*
X825293Y565289D01*
X825316Y565573D01*
X829614Y569871D01*
X830123Y570631D01*
X830301Y571529D01*
Y573184D01*
X833220Y576102D01*
X833220Y576102D01*
X833728Y576863D01*
X833889Y577673D01*
X835266Y579050D01*
X836446D01*
X837824Y579621D01*
X838879Y580676D01*
X839450Y582054D01*
Y583546D01*
X838879Y584924D01*
X837824Y585979D01*
X836446Y586550D01*
X834954D01*
X833576Y585979D01*
X832521Y584924D01*
X831950Y583546D01*
Y582366D01*
X829903Y580320D01*
X829395Y579559D01*
X829234Y578749D01*
X826298Y575813D01*
X825790Y575053D01*
X825611Y574155D01*
X825611Y574155D01*
Y572500D01*
X820492Y567381D01*
X819984Y566620D01*
X819805Y565723D01*
X819805Y565722D01*
Y564321D01*
X816391Y560907D01*
X815217Y562081D01*
X815246Y562109D01*
X813800Y563075D01*
X812095Y563414D01*
X810390Y563075D01*
X808945Y562109D01*
X808945Y562109D01*
X808945Y562109D01*
X808945Y562109D01*
X807979Y560664D01*
X807731Y559420D01*
X806655Y558813D01*
X806407Y558777D01*
X806352Y558814D01*
X804996Y559084D01*
X804535Y560061D01*
X804496Y560379D01*
X837108Y592992D01*
X837617Y593753D01*
X837795Y594650D01*
Y599042D01*
X838629Y599876D01*
X839200Y601254D01*
Y602746D01*
X838629Y604124D01*
X837574Y605179D01*
X836196Y605750D01*
X834704D01*
X833326Y605179D01*
X832271Y604124D01*
X831700Y602746D01*
Y601254D01*
X832271Y599876D01*
X833105Y599042D01*
Y595621D01*
X753829Y516345D01*
X730795D01*
Y539870D01*
X730836D01*
X730497Y541575D01*
X729531Y543021D01*
X728085Y543986D01*
X726380Y544326D01*
X724675Y543986D01*
X723230Y543021D01*
X723004Y542683D01*
X721476D01*
X721251Y543021D01*
X719805Y543986D01*
X718100Y544326D01*
X716395Y543986D01*
X714949Y543021D01*
X714724Y542683D01*
X713196D01*
X712971Y543021D01*
X711525Y543986D01*
X709820Y544326D01*
X708115Y543986D01*
X706669Y543021D01*
X706444Y542683D01*
X704916D01*
X704691Y543021D01*
X703245Y543986D01*
X701540Y544326D01*
X699835Y543986D01*
X698390Y543021D01*
X697424Y541575D01*
X697085Y539870D01*
X697125D01*
Y518451D01*
X695952Y517965D01*
X684658Y529258D01*
X683897Y529767D01*
X683000Y529945D01*
X683000Y529945D01*
X668437D01*
X668079Y530530D01*
X667820Y531215D01*
X668250Y532253D01*
Y533546D01*
X667824Y534574D01*
Y539900D01*
X667824Y539900D01*
X667609Y540981D01*
X666997Y541897D01*
X638711Y570183D01*
Y570207D01*
X638496Y571287D01*
X637884Y572204D01*
X637883Y572204D01*
X634463Y575624D01*
X634038Y576651D01*
X633123Y577566D01*
X631929Y578060D01*
X630636D01*
X629441Y577566D01*
X628527Y576651D01*
X628032Y575457D01*
Y574164D01*
X628527Y572970D01*
X629441Y572055D01*
X630469Y571630D01*
X633062Y569037D01*
Y569014D01*
X633062Y569013D01*
X633277Y567933D01*
X633889Y567016D01*
X662176Y538730D01*
Y534574D01*
X661750Y533546D01*
Y532253D01*
X662180Y531215D01*
X661921Y530530D01*
X661563Y529945D01*
X639815D01*
Y546464D01*
X639856D01*
X639517Y548169D01*
X638551Y549615D01*
X637105Y550581D01*
X635400Y550920D01*
X635246Y550889D01*
X633976Y551931D01*
Y552056D01*
X633481Y553250D01*
X632567Y554165D01*
X631539Y554590D01*
X620185Y565944D01*
Y566239D01*
X620185Y566239D01*
X619970Y567320D01*
X619358Y568236D01*
X606177Y581417D01*
X605261Y582029D01*
X604180Y582244D01*
X604180Y582244D01*
X577328D01*
X577328Y582244D01*
X576247Y582029D01*
X575331Y581417D01*
X572683Y578769D01*
X572071Y577853D01*
X572066Y577829D01*
X571959Y577785D01*
X571045Y576871D01*
X570550Y575676D01*
Y574383D01*
X571045Y573189D01*
X570083Y572445D01*
X552605Y589924D01*
X552119Y590650D01*
X552119Y590650D01*
X547867Y594902D01*
X548353Y596076D01*
X576900D01*
X576900Y596076D01*
X577981Y596291D01*
X578897Y596903D01*
X586615Y604621D01*
X589862D01*
X589863Y604621D01*
X590519Y604081D01*
Y602759D01*
X589549Y601788D01*
X588937Y600872D01*
X588860Y600484D01*
X588405Y600030D01*
X587076Y599479D01*
X586021Y598424D01*
X585450Y597046D01*
Y595554D01*
X586021Y594176D01*
X587076Y593121D01*
X588454Y592550D01*
X589946D01*
X591324Y593121D01*
X592379Y594176D01*
X592950Y595554D01*
Y596586D01*
X593543Y597179D01*
X594155Y598096D01*
X594232Y598483D01*
X594514Y598764D01*
X596842D01*
X598047Y599004D01*
X599068Y599687D01*
X600332D01*
X601353Y599004D01*
X602557Y598764D01*
X605732D01*
X606937Y599004D01*
X607958Y599687D01*
X608641Y600708D01*
X608881Y601912D01*
Y605088D01*
X608641Y606292D01*
X607958Y607313D01*
X606937Y607996D01*
X605732Y608236D01*
X603634D01*
X603197Y608890D01*
X603197Y608890D01*
X600644Y611442D01*
X599728Y612054D01*
X598647Y612269D01*
X598647Y612269D01*
X591863D01*
X591863Y612269D01*
X590782Y612054D01*
X589865Y611442D01*
X589865Y611442D01*
X588693Y610269D01*
X585445D01*
X584364Y610054D01*
X583448Y609442D01*
X583448Y609442D01*
X581913Y607907D01*
X580740Y608394D01*
Y610450D01*
X574450D01*
Y604660D01*
X577006D01*
X577492Y603487D01*
X575730Y601724D01*
X546758D01*
X542267Y606216D01*
X542081Y606340D01*
X540574Y607847D01*
X540654Y609148D01*
X541734Y609870D01*
X542272Y609647D01*
X543764D01*
X544851Y610097D01*
X545309Y609791D01*
X546390Y609576D01*
X546390Y609576D01*
X548700D01*
Y605700D01*
X562700D01*
Y616060D01*
X564660D01*
Y613950D01*
X580740D01*
Y615297D01*
X581116Y615498D01*
X582010Y615687D01*
X582876Y614821D01*
X584254Y614250D01*
X585746D01*
X587124Y614821D01*
X587479Y615176D01*
X610045D01*
X620323Y604898D01*
X619837Y603724D01*
X617579D01*
X617424Y603879D01*
X616046Y604450D01*
X614554D01*
X613176Y603879D01*
X612121Y602824D01*
X611550Y601446D01*
Y599954D01*
X612121Y598576D01*
X613176Y597521D01*
X614554Y596950D01*
X616046D01*
X617424Y597521D01*
X617979Y598076D01*
X621151D01*
X625901Y593326D01*
X626320Y592314D01*
X627234Y591400D01*
X628428Y590905D01*
X629721D01*
X630916Y591400D01*
X631830Y592314D01*
X632130Y593038D01*
X632507Y593581D01*
X633595Y594010D01*
X633642Y594004D01*
X634103Y593543D01*
X634345Y592959D01*
X635259Y592045D01*
X636454Y591550D01*
X637747D01*
X638941Y592045D01*
X639855Y592959D01*
X640230Y593865D01*
X759825D01*
X761652Y594105D01*
X763355Y594810D01*
X764817Y595933D01*
X779292Y610407D01*
X780414Y611870D01*
X781120Y613573D01*
X781360Y615400D01*
Y634554D01*
X781654Y634750D01*
X782946D01*
X784141Y635245D01*
X785055Y636159D01*
X785550Y637354D01*
Y638646D01*
X785055Y639841D01*
X784141Y640755D01*
X782946Y641250D01*
X781654D01*
X781360Y641446D01*
Y650275D01*
X802544Y671459D01*
X802545Y671459D01*
X803459Y670545D01*
X804653Y670050D01*
X805946D01*
X807141Y670545D01*
X808055Y671459D01*
X808481Y672487D01*
X828470Y692476D01*
X938322D01*
X938808Y691302D01*
X936163Y688657D01*
X935551Y687741D01*
X935336Y686660D01*
X935336Y686660D01*
Y554470D01*
X925403Y544537D01*
X924791Y543621D01*
X924576Y542540D01*
X924576Y542540D01*
Y451170D01*
X917356Y443950D01*
X916854D01*
X915476Y443379D01*
X914421Y442324D01*
X913850Y440946D01*
Y439454D01*
X914421Y438076D01*
X915476Y437021D01*
X916854Y436450D01*
X918346D01*
X919724Y437021D01*
X920779Y438076D01*
X921350Y439454D01*
Y439956D01*
X929056Y447662D01*
X930326Y447179D01*
Y292140D01*
X913460D01*
Y274060D01*
X930326D01*
Y111870D01*
X930326Y111869D01*
X930541Y110789D01*
X931153Y109872D01*
X964532Y76493D01*
X965449Y75881D01*
X966529Y75666D01*
X966530Y75666D01*
X975070D01*
X975070Y75666D01*
X976151Y75881D01*
X977068Y76493D01*
X983307Y82732D01*
X983919Y83649D01*
X984134Y84729D01*
Y173670D01*
X984134Y173671D01*
X983919Y174751D01*
X983307Y175668D01*
X983307Y175668D01*
X974755Y184220D01*
Y186129D01*
X976551Y187166D01*
X978234Y188849D01*
X979424Y190911D01*
X980040Y193210D01*
Y195590D01*
X979424Y197889D01*
X978234Y199951D01*
X976551Y201634D01*
X974489Y202824D01*
X972190Y203440D01*
X969810D01*
X967511Y202824D01*
X965449Y201634D01*
X963766Y199951D01*
X962576Y197889D01*
X961960Y195590D01*
Y193210D01*
X962576Y190911D01*
X963766Y188849D01*
X965449Y187166D01*
X967511Y185976D01*
X969106Y185548D01*
Y183050D01*
X969106Y183050D01*
X969321Y181969D01*
X969933Y181053D01*
X978486Y172501D01*
Y122840D01*
X961760D01*
Y104760D01*
X978486D01*
Y95695D01*
X977216Y95169D01*
X976351Y96034D01*
X974289Y97224D01*
X971990Y97840D01*
X969610D01*
X967311Y97224D01*
X966714Y96880D01*
X940014Y123580D01*
Y276005D01*
X941284Y276531D01*
X941949Y275866D01*
X944011Y274676D01*
X946310Y274060D01*
X948690D01*
X950989Y274676D01*
X953051Y275866D01*
X954734Y277549D01*
X955924Y279611D01*
X956540Y281910D01*
Y284290D01*
X955924Y286589D01*
X955580Y287185D01*
X989297Y320903D01*
X989297Y320903D01*
X989909Y321819D01*
X990124Y322900D01*
Y935900D01*
X989909Y936981D01*
X989297Y937897D01*
X938097Y989097D01*
X937181Y989709D01*
X936100Y989924D01*
X936100Y989924D01*
X516100D01*
X515019Y989709D01*
X514103Y989097D01*
X514103Y989097D01*
X488656Y963650D01*
X488154D01*
X486776Y963079D01*
X485721Y962024D01*
X485150Y960646D01*
Y959154D01*
X485721Y957776D01*
X486776Y956721D01*
X488154Y956150D01*
X489646D01*
X490316Y956428D01*
X490711Y956225D01*
X491450Y955523D01*
Y954354D01*
X492021Y952976D01*
X493076Y951921D01*
X494454Y951350D01*
X495946D01*
X497324Y951921D01*
X498379Y952976D01*
X498840Y954090D01*
X499806Y954257D01*
X500163Y954216D01*
X500221Y954076D01*
X501276Y953021D01*
X502654Y952450D01*
X504146D01*
X505524Y953021D01*
X506579Y954076D01*
X507150Y955454D01*
Y956156D01*
X524870Y973876D01*
X931830D01*
X973876Y931830D01*
Y823070D01*
X954798Y803992D01*
X954091Y804285D01*
X953605Y804595D01*
X953409Y805581D01*
X952797Y806497D01*
X952797Y806497D01*
X951424Y807870D01*
Y808570D01*
X952757Y809903D01*
X953341Y810145D01*
X954255Y811059D01*
X954750Y812253D01*
Y813547D01*
X954255Y814741D01*
X953341Y815655D01*
X952147Y816150D01*
X950854D01*
X949659Y815655D01*
X948745Y814741D01*
X948250Y813547D01*
Y813384D01*
X946603Y811737D01*
X946572Y811690D01*
X946400Y811724D01*
X946400Y811724D01*
X865140D01*
X865140Y811724D01*
X864399Y811577D01*
X863946Y812782D01*
X865187Y813498D01*
X867002Y815313D01*
X868286Y817537D01*
X868950Y820016D01*
Y822584D01*
X868286Y825063D01*
X867002Y827287D01*
X865187Y829102D01*
X862963Y830386D01*
X860484Y831050D01*
X857916D01*
X855437Y830386D01*
X853213Y829102D01*
X851398Y827287D01*
X850115Y825063D01*
X849450Y822584D01*
Y820016D01*
X850115Y817537D01*
X850601Y816695D01*
X837594Y803688D01*
X836324Y804214D01*
Y811882D01*
X837563Y812215D01*
X839787Y813498D01*
X841602Y815313D01*
X842886Y817537D01*
X843550Y820016D01*
Y822584D01*
X842886Y825063D01*
X841602Y827287D01*
X839787Y829102D01*
X837563Y830386D01*
X835084Y831050D01*
X832516D01*
X830037Y830386D01*
X827813Y829102D01*
X825998Y827287D01*
X824715Y825063D01*
X824050Y822584D01*
Y820016D01*
X824715Y817537D01*
X825998Y815313D01*
X827813Y813498D01*
X830037Y812215D01*
X830676Y812043D01*
Y804470D01*
X773970Y747764D01*
X771618D01*
X771132Y748938D01*
X813745Y791551D01*
X814357Y792467D01*
X814572Y793548D01*
X814572Y793548D01*
Y803861D01*
X814357Y804942D01*
X813745Y805858D01*
X813745Y805858D01*
X811224Y808379D01*
Y811963D01*
X812163Y812215D01*
X814387Y813498D01*
X816202Y815313D01*
X817486Y817537D01*
X818150Y820016D01*
Y822584D01*
X817486Y825063D01*
X816202Y827287D01*
X814387Y829102D01*
X812163Y830386D01*
X809684Y831050D01*
X807840D01*
X807314Y832320D01*
X855396Y880402D01*
X892423D01*
X892423Y880402D01*
X893504Y880617D01*
X894420Y881229D01*
X908447Y895257D01*
X908447Y895257D01*
X909059Y896173D01*
X909274Y897254D01*
Y913186D01*
X909059Y914267D01*
X908447Y915183D01*
X892423Y931207D01*
X891507Y931819D01*
X890426Y932034D01*
X890426Y932034D01*
X855650D01*
X854569Y931819D01*
X853653Y931207D01*
X853653Y931207D01*
X849506Y927060D01*
X849014Y927344D01*
X846791Y927940D01*
X844489D01*
X842266Y927344D01*
X841774Y927060D01*
X837627Y931207D01*
X836711Y931819D01*
X835630Y932034D01*
X835630Y932034D01*
X811840D01*
X811481Y933304D01*
X813331Y936074D01*
X814688Y939350D01*
X815380Y942827D01*
Y946373D01*
X814688Y949850D01*
X813331Y953126D01*
X811361Y956074D01*
X808854Y958581D01*
X805906Y960551D01*
X802630Y961908D01*
X799153Y962600D01*
X795607D01*
X792130Y961908D01*
X788854Y960551D01*
X785906Y958581D01*
X783399Y956074D01*
X781429Y953126D01*
X780072Y949850D01*
X779380Y946373D01*
Y942827D01*
X780072Y939350D01*
X781429Y936074D01*
X783399Y933126D01*
X785610Y930914D01*
X785191Y929644D01*
X738608D01*
X738222Y930914D01*
X740174Y932218D01*
X742682Y934726D01*
X744651Y937674D01*
X746008Y940950D01*
X746700Y944427D01*
Y947973D01*
X746008Y951450D01*
X744651Y954726D01*
X742682Y957674D01*
X740174Y960182D01*
X737226Y962151D01*
X733950Y963508D01*
X730473Y964200D01*
X726927D01*
X723450Y963508D01*
X720174Y962151D01*
X717226Y960182D01*
X714718Y957674D01*
X712749Y954726D01*
X711392Y951450D01*
X710700Y947973D01*
Y944427D01*
X711392Y940950D01*
X712749Y937674D01*
X714718Y934726D01*
X717226Y932218D01*
X719178Y930914D01*
X718792Y929644D01*
X701201D01*
X698048Y932797D01*
X697132Y933409D01*
X696051Y933624D01*
X696051Y933624D01*
X694797D01*
X694746Y933634D01*
X694746Y933634D01*
X666134D01*
X666134Y933634D01*
X666083Y933624D01*
X662000D01*
X660919Y933409D01*
X660003Y932797D01*
X660003Y932797D01*
X655119Y927913D01*
X653334Y928944D01*
X651111Y929540D01*
X648809D01*
X646587Y928944D01*
X644852Y927943D01*
X642086Y930708D01*
X642090Y930824D01*
X642090Y930824D01*
X642089Y930825D01*
X641662Y931172D01*
X641647Y931184D01*
X641164Y931667D01*
X640024Y932807D01*
X639108Y933419D01*
X638027Y933634D01*
X638027Y933634D01*
X621700D01*
X621700Y933634D01*
X621699Y933634D01*
X621252Y933634D01*
X620660Y933516D01*
X620288Y933442D01*
X620280Y933466D01*
X619204Y933020D01*
X614384Y931632D01*
X613717Y932761D01*
X615681Y934726D01*
X617651Y937674D01*
X619008Y940950D01*
X619700Y944427D01*
Y947973D01*
X619008Y951450D01*
X617651Y954726D01*
X615681Y957674D01*
X613174Y960182D01*
X610226Y962151D01*
X606950Y963508D01*
X603473Y964200D01*
X599927D01*
X596450Y963508D01*
X593174Y962151D01*
X590226Y960182D01*
X587719Y957674D01*
X585749Y954726D01*
X584392Y951450D01*
X583700Y947973D01*
Y944427D01*
X584392Y940950D01*
X585749Y937674D01*
X587405Y935194D01*
X586823Y933961D01*
X586780Y933924D01*
X545005D01*
X543924Y933709D01*
X543483Y933508D01*
X542393Y932925D01*
X541512Y932561D01*
X540782Y933626D01*
X542751Y936574D01*
X544108Y939850D01*
X544800Y943327D01*
Y946873D01*
X544108Y950350D01*
X542751Y953626D01*
X540782Y956574D01*
X538274Y959081D01*
X535326Y961051D01*
X532050Y962408D01*
X528573Y963100D01*
X525027D01*
X521550Y962408D01*
X518274Y961051D01*
X515326Y959081D01*
X512818Y956574D01*
X510849Y953626D01*
X509492Y950350D01*
X508800Y946873D01*
Y943940D01*
X507530Y943413D01*
X506526Y944417D01*
X505610Y945029D01*
X504529Y945244D01*
X504529Y945244D01*
X453520D01*
X453520Y945244D01*
X452439Y945029D01*
X451523Y944417D01*
X451523Y944417D01*
X446063Y938957D01*
X445451Y938041D01*
X445236Y936960D01*
X445236Y936960D01*
Y928111D01*
X444109Y927645D01*
X429603Y942151D01*
Y945373D01*
X429603Y945373D01*
X429388Y946454D01*
X428776Y947370D01*
X428776Y947370D01*
X428103Y948043D01*
X412093Y964053D01*
X412090Y964055D01*
X411804Y964746D01*
X411804Y964750D01*
Y986160D01*
X411807D01*
X411581Y987878D01*
X410918Y989478D01*
X409863Y990853D01*
X408489Y991908D01*
X406888Y992571D01*
X405170Y992797D01*
X403452Y992571D01*
X401852Y991908D01*
X400477Y990853D01*
X399422Y989478D01*
X398759Y987878D01*
X398533Y986160D01*
X398536D01*
Y968271D01*
X397550Y967675D01*
X396564Y968271D01*
Y986160D01*
X396567D01*
X396341Y987878D01*
X395678Y989478D01*
X394623Y990853D01*
X393248Y991908D01*
X391648Y992571D01*
X389930Y992797D01*
X388212Y992571D01*
X386612Y991908D01*
X385237Y990853D01*
X384183Y989478D01*
X383520Y987878D01*
X383293Y986160D01*
X383296D01*
Y962573D01*
X382310Y961977D01*
X381324Y962573D01*
Y986160D01*
X381327D01*
X381101Y987878D01*
X380438Y989478D01*
X379383Y990853D01*
X378008Y991908D01*
X376408Y992571D01*
X374690Y992797D01*
X372972Y992571D01*
X371372Y991908D01*
X369997Y990853D01*
X368942Y989478D01*
X368279Y987878D01*
X368053Y986160D01*
X368056D01*
Y968380D01*
X368057Y968376D01*
X367769Y967681D01*
X367074Y967393D01*
X367070Y967394D01*
X346010D01*
X346006Y967393D01*
X345311Y967681D01*
X345024Y968376D01*
X345024Y968380D01*
Y976217D01*
X345027D01*
X344801Y977934D01*
X344138Y979535D01*
X343083Y980909D01*
X341708Y981964D01*
X340108Y982627D01*
X338390Y982853D01*
X336672Y982627D01*
X335072Y981964D01*
X333697Y980909D01*
X332643Y979535D01*
X331979Y977934D01*
X331753Y976217D01*
X331756D01*
Y968380D01*
X331757Y968376D01*
X331469Y967681D01*
X330774Y967393D01*
X330770Y967394D01*
X298730D01*
X298730Y967394D01*
X297649Y967179D01*
X296733Y966567D01*
X296733Y966567D01*
X257926Y927760D01*
X257433Y928044D01*
X255211Y928640D01*
X252909D01*
X250686Y928044D01*
X250194Y927760D01*
X246047Y931907D01*
X245131Y932519D01*
X244050Y932734D01*
X244050Y932734D01*
X220260D01*
X219901Y934004D01*
X221751Y936774D01*
X223108Y940050D01*
X223800Y943527D01*
Y947073D01*
X223108Y950550D01*
X221751Y953826D01*
X219781Y956774D01*
X217274Y959281D01*
X214326Y961251D01*
X211050Y962608D01*
X207573Y963300D01*
X204027D01*
X200550Y962608D01*
X197274Y961251D01*
X194326Y959281D01*
X191819Y956774D01*
X189849Y953826D01*
X188492Y950550D01*
X187800Y947073D01*
Y943527D01*
X188492Y940050D01*
X189849Y936774D01*
X191819Y933826D01*
X194326Y931319D01*
X196278Y930014D01*
X195892Y928744D01*
X176590D01*
X176586Y928744D01*
X175891Y929031D01*
X175604Y929726D01*
X175604Y929730D01*
Y943518D01*
X175607D01*
X175381Y945236D01*
X174718Y946837D01*
X173663Y948211D01*
X172288Y949266D01*
X170688Y949929D01*
X168970Y950155D01*
X167252Y949929D01*
X165652Y949266D01*
X164277Y948211D01*
X163223Y946837D01*
X162560Y945236D01*
X162333Y943518D01*
X162336D01*
Y904421D01*
X161350Y903825D01*
X160364Y904421D01*
Y976821D01*
X160367D01*
X160141Y978539D01*
X159478Y980140D01*
X158423Y981514D01*
X157049Y982569D01*
X155448Y983232D01*
X153730Y983458D01*
X152012Y983232D01*
X150412Y982569D01*
X149037Y981514D01*
X147983Y980140D01*
X147319Y978539D01*
X147093Y976821D01*
X147096D01*
Y904421D01*
X146110Y903825D01*
X145124Y904421D01*
Y976821D01*
X145127D01*
X144901Y978539D01*
X144238Y980140D01*
X143183Y981514D01*
X141809Y982569D01*
X140208Y983232D01*
X138490Y983458D01*
X136772Y983232D01*
X135172Y982569D01*
X133797Y981514D01*
X132743Y980140D01*
X132079Y978539D01*
X131853Y976821D01*
X131856D01*
Y929730D01*
X131857Y929726D01*
X131569Y929031D01*
X130874Y928744D01*
X130870Y928744D01*
X121774D01*
X120693Y928529D01*
X119777Y927917D01*
X70743Y878883D01*
X70131Y877967D01*
X69916Y876886D01*
X69916Y876886D01*
Y842110D01*
X69916Y842110D01*
X70131Y841029D01*
X70743Y840113D01*
X74890Y835966D01*
X74606Y835473D01*
X74010Y833251D01*
Y831746D01*
X57011Y814747D01*
X49712Y807448D01*
X49710Y807444D01*
X49015Y807157D01*
X48374Y807422D01*
X48361Y807407D01*
X35192Y819074D01*
X34931Y819226D01*
X34111Y819855D01*
X32510Y820518D01*
X30792Y820744D01*
X29074Y820518D01*
X27474Y819855D01*
X26099Y818801D01*
X25997Y818667D01*
X25943Y818631D01*
X25887Y818547D01*
X25807Y818484D01*
X25662Y818231D01*
X25045Y817426D01*
X24382Y815825D01*
X24155Y814108D01*
X24382Y812390D01*
X25045Y810789D01*
X26099Y809415D01*
X26233Y809312D01*
X26269Y809259D01*
X26341Y809211D01*
X26393Y809142D01*
X37754Y799077D01*
X38342Y798540D01*
X38267Y797126D01*
X37571Y796708D01*
X37411Y796774D01*
X37398Y796759D01*
X25086Y807666D01*
X24825Y807818D01*
X24005Y808448D01*
X22404Y809111D01*
X20687Y809337D01*
X18969Y809111D01*
X17368Y808448D01*
X15994Y807393D01*
X15891Y807259D01*
X15838Y807224D01*
X15662Y806961D01*
X14939Y806019D01*
X14276Y804418D01*
X14050Y802700D01*
X14276Y800982D01*
X14939Y799382D01*
X15994Y798007D01*
X16127Y797905D01*
X16163Y797851D01*
X16235Y797803D01*
X16287Y797734D01*
X33355Y782614D01*
X33342Y782599D01*
D01*
X33005Y781731D01*
X31604Y781531D01*
X14980Y796258D01*
X14720Y796411D01*
X13899Y797040D01*
X12299Y797703D01*
X10581Y797929D01*
X8863Y797703D01*
X7262Y797040D01*
X6270Y796279D01*
X5062Y796769D01*
X5016Y796812D01*
X5000Y796833D01*
Y977000D01*
X26000Y998000D01*
Y998000D01*
X974000D01*
X997000Y975000D01*
D02*
G37*
%LPC*%
G36*
X295851Y928640D02*
X293549D01*
X291327Y928044D01*
X289333Y926894D01*
X287706Y925266D01*
X286556Y923273D01*
X285960Y921051D01*
Y918749D01*
X286556Y916526D01*
X287706Y914533D01*
X289333Y912906D01*
X291327Y911756D01*
X293549Y911160D01*
X295851D01*
X298074Y911756D01*
X300067Y912906D01*
X301694Y914533D01*
X302844Y916526D01*
X303440Y918749D01*
Y921051D01*
X302844Y923273D01*
X301694Y925266D01*
X300067Y926894D01*
X298074Y928044D01*
X295851Y928640D01*
D02*
G37*
G36*
X101701Y851000D02*
X99399D01*
X97177Y850404D01*
X95183Y849254D01*
X93556Y847626D01*
X92406Y845633D01*
X91810Y843411D01*
Y841109D01*
X92406Y838886D01*
X93556Y836893D01*
X95183Y835266D01*
X97177Y834116D01*
X99399Y833520D01*
X101701D01*
X103924Y834116D01*
X105917Y835266D01*
X107544Y836893D01*
X108694Y838886D01*
X109290Y841109D01*
Y843411D01*
X108694Y845633D01*
X107544Y847626D01*
X105917Y849254D01*
X103924Y850404D01*
X101701Y851000D01*
D02*
G37*
G36*
X603546Y838050D02*
X602253D01*
X601059Y837555D01*
X600145Y836641D01*
X599650Y835446D01*
Y834154D01*
X600145Y832959D01*
X601059Y832045D01*
X602253Y831550D01*
X603546D01*
X604741Y832045D01*
X605655Y832959D01*
X606150Y834154D01*
Y835446D01*
X605655Y836641D01*
X604741Y837555D01*
X603546Y838050D01*
D02*
G37*
G36*
X588146Y837450D02*
X586853D01*
X585659Y836955D01*
X584745Y836041D01*
X584250Y834846D01*
Y833554D01*
X584745Y832359D01*
X585659Y831445D01*
X586853Y830950D01*
X588146D01*
X589341Y831445D01*
X590255Y832359D01*
X590750Y833554D01*
Y834846D01*
X590255Y836041D01*
X589341Y836955D01*
X588146Y837450D01*
D02*
G37*
G36*
X525846Y796550D02*
X524354D01*
X522976Y795979D01*
X521921Y794924D01*
X521350Y793546D01*
Y792054D01*
X521921Y790676D01*
X522747Y789850D01*
X521821Y788924D01*
X521250Y787546D01*
Y786054D01*
X521821Y784676D01*
X522876Y783621D01*
X524254Y783050D01*
X525746D01*
X527124Y783621D01*
X528179Y784676D01*
X528750Y786054D01*
Y787546D01*
X528179Y788924D01*
X527353Y789750D01*
X528279Y790676D01*
X528850Y792054D01*
Y793546D01*
X528279Y794924D01*
X527224Y795979D01*
X525846Y796550D01*
D02*
G37*
G36*
X258190Y734440D02*
X255810D01*
X253511Y733824D01*
X251449Y732634D01*
X249766Y730951D01*
X248576Y728889D01*
X247960Y726590D01*
Y724210D01*
X248576Y721911D01*
X249766Y719849D01*
X251449Y718166D01*
X253511Y716976D01*
X255810Y716360D01*
X258190D01*
X260489Y716976D01*
X262551Y718166D01*
X264234Y719849D01*
X265424Y721911D01*
X266040Y724210D01*
Y726590D01*
X265424Y728889D01*
X264234Y730951D01*
X262551Y732634D01*
X260489Y733824D01*
X258190Y734440D01*
D02*
G37*
G36*
X83901Y685100D02*
X81599D01*
X79377Y684504D01*
X77383Y683354D01*
X75756Y681727D01*
X74606Y679734D01*
X74010Y677511D01*
Y675209D01*
X74606Y672987D01*
X75756Y670993D01*
X77383Y669366D01*
X79377Y668216D01*
X81599Y667620D01*
X83901D01*
X86124Y668216D01*
X88117Y669366D01*
X89744Y670993D01*
X90894Y672987D01*
X91490Y675209D01*
Y677511D01*
X90894Y679734D01*
X89744Y681727D01*
X88117Y683354D01*
X86124Y684504D01*
X83901Y685100D01*
D02*
G37*
G36*
X440990Y664340D02*
X438610D01*
X436311Y663724D01*
X434249Y662534D01*
X432566Y660851D01*
X431376Y658789D01*
X430760Y656490D01*
Y654110D01*
X431376Y651811D01*
X432566Y649749D01*
X434249Y648066D01*
X436311Y646876D01*
X438610Y646260D01*
X440990D01*
X443289Y646876D01*
X445351Y648066D01*
X447034Y649749D01*
X448224Y651811D01*
X448840Y654110D01*
Y656490D01*
X448224Y658789D01*
X447034Y660851D01*
X445351Y662534D01*
X443289Y663724D01*
X440990Y664340D01*
D02*
G37*
G36*
X415990D02*
X413610D01*
X411311Y663724D01*
X409249Y662534D01*
X407566Y660851D01*
X406376Y658789D01*
X405760Y656490D01*
Y654110D01*
X406376Y651811D01*
X407566Y649749D01*
X409249Y648066D01*
X411311Y646876D01*
X413610Y646260D01*
X415990D01*
X418289Y646876D01*
X420351Y648066D01*
X422034Y649749D01*
X423224Y651811D01*
X423840Y654110D01*
Y656490D01*
X423224Y658789D01*
X422034Y660851D01*
X420351Y662534D01*
X418289Y663724D01*
X415990Y664340D01*
D02*
G37*
G36*
X373840D02*
X355760D01*
Y646260D01*
X373840D01*
Y664340D01*
D02*
G37*
G36*
X258190Y658440D02*
X255810D01*
X253511Y657824D01*
X251449Y656634D01*
X249766Y654951D01*
X248576Y652889D01*
X247960Y650590D01*
Y648210D01*
X248576Y645911D01*
X249766Y643849D01*
X251449Y642166D01*
X253511Y640976D01*
X255810Y640360D01*
X258190D01*
X260489Y640976D01*
X262551Y642166D01*
X264234Y643849D01*
X265424Y645911D01*
X266040Y648210D01*
Y650590D01*
X265424Y652889D01*
X264234Y654951D01*
X262551Y656634D01*
X260489Y657824D01*
X258190Y658440D01*
D02*
G37*
G36*
X421046Y603350D02*
X419554D01*
X418176Y602779D01*
X417121Y601724D01*
X416550Y600346D01*
Y598854D01*
X417121Y597476D01*
X418176Y596421D01*
X419554Y595850D01*
X421046D01*
X422424Y596421D01*
X423479Y597476D01*
X424050Y598854D01*
Y600346D01*
X423479Y601724D01*
X422424Y602779D01*
X421046Y603350D01*
D02*
G37*
G36*
X402546Y602850D02*
X401054D01*
X399676Y602279D01*
X398621Y601224D01*
X398050Y599846D01*
Y598354D01*
X398621Y596976D01*
X399676Y595921D01*
X401054Y595350D01*
X402546D01*
X403924Y595921D01*
X404979Y596976D01*
X405550Y598354D01*
Y599846D01*
X404979Y601224D01*
X403924Y602279D01*
X402546Y602850D01*
D02*
G37*
G36*
X59123Y605460D02*
X55577D01*
X52100Y604768D01*
X48824Y603411D01*
X45876Y601441D01*
X43369Y598934D01*
X41399Y595986D01*
X40042Y592710D01*
X39350Y589233D01*
Y585687D01*
X40042Y582210D01*
X41399Y578934D01*
X43369Y575986D01*
X45876Y573479D01*
X48824Y571509D01*
X52100Y570152D01*
X55577Y569460D01*
X59123D01*
X62600Y570152D01*
X65876Y571509D01*
X68824Y573479D01*
X71332Y575986D01*
X73301Y578934D01*
X74658Y582210D01*
X75350Y585687D01*
Y589233D01*
X74658Y592710D01*
X73301Y595986D01*
X71332Y598934D01*
X68824Y601441D01*
X65876Y603411D01*
X62600Y604768D01*
X59123Y605460D01*
D02*
G37*
G36*
X331140Y584940D02*
X313060D01*
Y566860D01*
X331140D01*
Y584940D01*
D02*
G37*
G36*
X298290D02*
X295910D01*
X293611Y584324D01*
X291549Y583134D01*
X289866Y581451D01*
X288676Y579389D01*
X288060Y577090D01*
Y574710D01*
X288676Y572411D01*
X289866Y570349D01*
X291549Y568666D01*
X293611Y567476D01*
X295910Y566860D01*
X298290D01*
X300589Y567476D01*
X302651Y568666D01*
X304334Y570349D01*
X305524Y572411D01*
X306140Y574710D01*
Y577090D01*
X305524Y579389D01*
X304334Y581451D01*
X302651Y583134D01*
X300589Y584324D01*
X298290Y584940D01*
D02*
G37*
G36*
X273290D02*
X270910D01*
X268611Y584324D01*
X266549Y583134D01*
X264866Y581451D01*
X263676Y579389D01*
X263060Y577090D01*
Y574710D01*
X263676Y572411D01*
X264866Y570349D01*
X266549Y568666D01*
X268611Y567476D01*
X270910Y566860D01*
X273290D01*
X275589Y567476D01*
X277651Y568666D01*
X279334Y570349D01*
X280524Y572411D01*
X281140Y574710D01*
Y577090D01*
X280524Y579389D01*
X279334Y581451D01*
X277651Y583134D01*
X275589Y584324D01*
X273290Y584940D01*
D02*
G37*
G36*
X248290D02*
X245910D01*
X243611Y584324D01*
X241549Y583134D01*
X239866Y581451D01*
X238676Y579389D01*
X238060Y577090D01*
Y574710D01*
X238676Y572411D01*
X239866Y570349D01*
X241549Y568666D01*
X243611Y567476D01*
X245910Y566860D01*
X248290D01*
X250589Y567476D01*
X252651Y568666D01*
X254334Y570349D01*
X255524Y572411D01*
X256140Y574710D01*
Y577090D01*
X255524Y579389D01*
X254334Y581451D01*
X252651Y583134D01*
X250589Y584324D01*
X248290Y584940D01*
D02*
G37*
G36*
X223290D02*
X220910D01*
X218611Y584324D01*
X216549Y583134D01*
X214866Y581451D01*
X213676Y579389D01*
X213060Y577090D01*
Y574710D01*
X213676Y572411D01*
X214866Y570349D01*
X216549Y568666D01*
X218611Y567476D01*
X220910Y566860D01*
X223290D01*
X225589Y567476D01*
X227651Y568666D01*
X229334Y570349D01*
X230524Y572411D01*
X231140Y574710D01*
Y577090D01*
X230524Y579389D01*
X229334Y581451D01*
X227651Y583134D01*
X225589Y584324D01*
X223290Y584940D01*
D02*
G37*
G36*
X420846Y572850D02*
X419354D01*
X417976Y572279D01*
X416921Y571224D01*
X416350Y569846D01*
Y568354D01*
X416921Y566976D01*
X417976Y565921D01*
X419354Y565350D01*
X420846D01*
X422224Y565921D01*
X423279Y566976D01*
X423850Y568354D01*
Y569846D01*
X423279Y571224D01*
X422224Y572279D01*
X420846Y572850D01*
D02*
G37*
G36*
X402146Y572250D02*
X400654D01*
X399276Y571679D01*
X398221Y570624D01*
X397650Y569246D01*
Y567754D01*
X398221Y566376D01*
X399276Y565321D01*
X400654Y564750D01*
X402146D01*
X403524Y565321D01*
X404579Y566376D01*
X405150Y567754D01*
Y569246D01*
X404579Y570624D01*
X403524Y571679D01*
X402146Y572250D01*
D02*
G37*
G36*
X938545Y786850D02*
X936655D01*
X934909Y786127D01*
X933573Y784791D01*
X932850Y783045D01*
Y781155D01*
X933573Y779409D01*
X934909Y778073D01*
X936655Y777350D01*
X938545D01*
X940291Y778073D01*
X941627Y779409D01*
X942350Y781155D01*
Y783045D01*
X941627Y784791D01*
X940291Y786127D01*
X938545Y786850D01*
D02*
G37*
G36*
X870546Y781050D02*
X869054D01*
X867676Y780479D01*
X866621Y779424D01*
X866050Y778046D01*
Y777150D01*
X865054D01*
X863676Y776579D01*
X862621Y775524D01*
X862050Y774146D01*
Y772654D01*
X861914Y772450D01*
X860654D01*
X859276Y771879D01*
X858221Y770824D01*
X857650Y769446D01*
Y767954D01*
X858221Y766576D01*
X859276Y765521D01*
X860654Y764950D01*
X862146D01*
X863524Y765521D01*
X864579Y766576D01*
X865150Y767954D01*
Y769446D01*
X865286Y769650D01*
X866546D01*
X867924Y770221D01*
X868979Y771276D01*
X869550Y772654D01*
Y773550D01*
X870546D01*
X871924Y774121D01*
X872979Y775176D01*
X873550Y776554D01*
Y778046D01*
X872979Y779424D01*
X871924Y780479D01*
X870546Y781050D01*
D02*
G37*
G36*
X938545Y729050D02*
X936655D01*
X934909Y728327D01*
X933573Y726991D01*
X932850Y725245D01*
Y723355D01*
X933573Y721609D01*
X934909Y720273D01*
X936655Y719550D01*
X938545D01*
X940291Y720273D01*
X941627Y721609D01*
X942350Y723355D01*
Y725245D01*
X941627Y726991D01*
X940291Y728327D01*
X938545Y729050D01*
D02*
G37*
G36*
X656230Y658003D02*
X655955D01*
X654701Y657753D01*
X653637Y657043D01*
X652926Y655979D01*
X652677Y654725D01*
Y654150D01*
X656230D01*
Y658003D01*
D02*
G37*
G36*
X660005D02*
X659730D01*
Y652400D01*
Y646797D01*
X660005D01*
X661259Y647047D01*
X662323Y647757D01*
X663746Y648026D01*
X664595Y647857D01*
X668645D01*
X669494Y648026D01*
X670213Y648507D01*
X670694Y649226D01*
X670723Y649376D01*
X673021D01*
X673576Y648821D01*
X674954Y648250D01*
X676446D01*
X677824Y648821D01*
X678879Y649876D01*
X679450Y651254D01*
Y652746D01*
X678879Y654124D01*
X677824Y655179D01*
X676446Y655750D01*
X674954D01*
X673576Y655179D01*
X673421Y655024D01*
X670803D01*
X670694Y655574D01*
X670213Y656293D01*
X669494Y656774D01*
X668645Y656943D01*
X664595D01*
X663746Y656774D01*
X662323Y657043D01*
X661259Y657753D01*
X660005Y658003D01*
D02*
G37*
G36*
X656230Y650650D02*
X652677D01*
Y650075D01*
X652926Y648821D01*
X653637Y647757D01*
X654701Y647047D01*
X655955Y646797D01*
X656230D01*
Y650650D01*
D02*
G37*
G36*
X656210Y643403D02*
X655935D01*
X654681Y643154D01*
X653617Y642443D01*
X652906Y641379D01*
X652657Y640125D01*
Y639550D01*
X656210D01*
Y643403D01*
D02*
G37*
G36*
X951646Y492850D02*
X950154D01*
X948776Y492279D01*
X947721Y491224D01*
X947150Y489846D01*
Y488354D01*
X947721Y486976D01*
X948776Y485921D01*
X950154Y485350D01*
X951646D01*
X953024Y485921D01*
X954079Y486976D01*
X954650Y488354D01*
Y489846D01*
X954079Y491224D01*
X953024Y492279D01*
X951646Y492850D01*
D02*
G37*
G36*
X951846Y449250D02*
X950354D01*
X948976Y448679D01*
X947921Y447624D01*
X947350Y446246D01*
Y444754D01*
X947921Y443376D01*
X948976Y442321D01*
X950354Y441750D01*
X951846D01*
X953224Y442321D01*
X954279Y443376D01*
X954850Y444754D01*
Y446246D01*
X954279Y447624D01*
X953224Y448679D01*
X951846Y449250D01*
D02*
G37*
G36*
X952446Y411150D02*
X950954D01*
X949576Y410579D01*
X948521Y409524D01*
X947950Y408146D01*
Y406654D01*
X948521Y405276D01*
X949576Y404221D01*
X950954Y403650D01*
X952446D01*
X953824Y404221D01*
X954879Y405276D01*
X955450Y406654D01*
Y408146D01*
X954879Y409524D01*
X953824Y410579D01*
X952446Y411150D01*
D02*
G37*
G36*
X952246Y359150D02*
X950754D01*
X949376Y358579D01*
X948321Y357524D01*
X947750Y356146D01*
Y354654D01*
X948321Y353276D01*
X949376Y352221D01*
X950754Y351650D01*
X952246D01*
X953624Y352221D01*
X954679Y353276D01*
X955250Y354654D01*
Y356146D01*
X954679Y357524D01*
X953624Y358579D01*
X952246Y359150D01*
D02*
G37*
G36*
X488246Y436550D02*
X486954D01*
X485759Y436055D01*
X484845Y435141D01*
X484350Y433946D01*
Y432654D01*
X484845Y431459D01*
X485759Y430545D01*
X486954Y430050D01*
X488246D01*
X489441Y430545D01*
X490355Y431459D01*
X490850Y432654D01*
Y433946D01*
X490355Y435141D01*
X489441Y436055D01*
X488246Y436550D01*
D02*
G37*
G36*
X975514Y985500D02*
X972486D01*
X969561Y984716D01*
X966939Y983202D01*
X964798Y981061D01*
X963284Y978439D01*
X962500Y975514D01*
Y972486D01*
X963284Y969561D01*
X964798Y966939D01*
X966939Y964798D01*
X969561Y963284D01*
X972486Y962500D01*
X975514D01*
X978439Y963284D01*
X981061Y964798D01*
X983202Y966939D01*
X984716Y969561D01*
X985500Y972486D01*
Y975514D01*
X984716Y978439D01*
X983202Y981061D01*
X981061Y983202D01*
X978439Y984716D01*
X975514Y985500D01*
D02*
G37*
G36*
X27514D02*
X24486D01*
X21561Y984716D01*
X18939Y983202D01*
X16798Y981061D01*
X15284Y978439D01*
X14500Y975514D01*
Y972486D01*
X15284Y969561D01*
X16798Y966939D01*
X18939Y964798D01*
X21561Y963284D01*
X24486Y962500D01*
X27514D01*
X30439Y963284D01*
X33061Y964798D01*
X35202Y966939D01*
X36716Y969561D01*
X37500Y972486D01*
Y975514D01*
X36716Y978439D01*
X35202Y981061D01*
X33061Y983202D01*
X30439Y984716D01*
X27514Y985500D01*
D02*
G37*
G36*
X926153Y962600D02*
X922607D01*
X919130Y961908D01*
X915854Y960551D01*
X912906Y958581D01*
X910398Y956074D01*
X908429Y953126D01*
X907072Y949850D01*
X906380Y946373D01*
Y942827D01*
X907072Y939350D01*
X908429Y936074D01*
X910398Y933126D01*
X912906Y930619D01*
X915854Y928649D01*
X919130Y927292D01*
X922607Y926600D01*
X926153D01*
X929630Y927292D01*
X932906Y928649D01*
X935854Y930619D01*
X938362Y933126D01*
X940331Y936074D01*
X941688Y939350D01*
X942380Y942827D01*
Y946373D01*
X941688Y949850D01*
X940331Y953126D01*
X938362Y956074D01*
X935854Y958581D01*
X932906Y960551D01*
X929630Y961908D01*
X926153Y962600D01*
D02*
G37*
G36*
X59123Y928840D02*
X55577D01*
X52100Y928148D01*
X48824Y926791D01*
X45876Y924821D01*
X43369Y922314D01*
X41399Y919366D01*
X40042Y916090D01*
X39350Y912613D01*
Y909067D01*
X40042Y905590D01*
X41399Y902314D01*
X43369Y899366D01*
X45876Y896859D01*
X48824Y894889D01*
X52100Y893532D01*
X55577Y892840D01*
X59123D01*
X62600Y893532D01*
X65876Y894889D01*
X68824Y896859D01*
X71332Y899366D01*
X73301Y902314D01*
X74658Y905590D01*
X75350Y909067D01*
Y912613D01*
X74658Y916090D01*
X73301Y919366D01*
X71332Y922314D01*
X68824Y924821D01*
X65876Y926791D01*
X62600Y928148D01*
X59123Y928840D01*
D02*
G37*
G36*
X792346Y641450D02*
X791053D01*
X789859Y640955D01*
X788945Y640041D01*
X788450Y638846D01*
Y637553D01*
X788945Y636359D01*
X789859Y635445D01*
X791053Y634950D01*
X792346D01*
X793541Y635445D01*
X794455Y636359D01*
X794950Y637553D01*
Y638846D01*
X794455Y640041D01*
X793541Y640955D01*
X792346Y641450D01*
D02*
G37*
G36*
X570950Y610450D02*
X564660D01*
Y604660D01*
X570950D01*
Y610450D01*
D02*
G37*
G36*
X781346Y604750D02*
X780053D01*
X778859Y604255D01*
X777945Y603341D01*
X777450Y602146D01*
Y600854D01*
X777945Y599659D01*
X778859Y598745D01*
X780053Y598250D01*
X781346D01*
X782541Y598745D01*
X783455Y599659D01*
X783950Y600854D01*
Y602146D01*
X783455Y603341D01*
X782541Y604255D01*
X781346Y604750D01*
D02*
G37*
G36*
X793646Y604550D02*
X792354D01*
X791159Y604055D01*
X790245Y603141D01*
X789750Y601946D01*
Y600653D01*
X790245Y599459D01*
X791159Y598545D01*
X792354Y598050D01*
X793646D01*
X794841Y598545D01*
X795755Y599459D01*
X796250Y600653D01*
Y601946D01*
X795755Y603141D01*
X794841Y604055D01*
X793646Y604550D01*
D02*
G37*
G36*
X825746Y602450D02*
X824254D01*
X822876Y601879D01*
X821821Y600824D01*
X821250Y599446D01*
Y597954D01*
X821821Y596576D01*
X822876Y595521D01*
X824254Y594950D01*
X825746D01*
X827124Y595521D01*
X828179Y596576D01*
X828750Y597954D01*
Y599446D01*
X828179Y600824D01*
X827124Y601879D01*
X825746Y602450D01*
D02*
G37*
G36*
X750446Y592050D02*
X749154D01*
X747959Y591555D01*
X747045Y590641D01*
X746550Y589446D01*
Y588153D01*
X747045Y586959D01*
X747959Y586045D01*
X749154Y585550D01*
X750446D01*
X751641Y586045D01*
X752555Y586959D01*
X753050Y588153D01*
Y589446D01*
X752555Y590641D01*
X751641Y591555D01*
X750446Y592050D01*
D02*
G37*
G36*
X776747Y579150D02*
X775453D01*
X774259Y578655D01*
X773345Y577741D01*
X772850Y576546D01*
Y575253D01*
X773345Y574059D01*
X774259Y573145D01*
X775453Y572650D01*
X776747D01*
X777941Y573145D01*
X778855Y574059D01*
X779350Y575253D01*
Y576546D01*
X778855Y577741D01*
X777941Y578655D01*
X776747Y579150D01*
D02*
G37*
G36*
X675446Y575750D02*
X673954D01*
X672576Y575179D01*
X671521Y574124D01*
X670950Y572746D01*
Y571254D01*
X671521Y569876D01*
X672576Y568821D01*
X673954Y568250D01*
X675446D01*
X676824Y568821D01*
X677879Y569876D01*
X678450Y571254D01*
Y572746D01*
X677879Y574124D01*
X676824Y575179D01*
X675446Y575750D01*
D02*
G37*
G36*
X775046Y567150D02*
X773754D01*
X772559Y566655D01*
X771645Y565741D01*
X771150Y564546D01*
Y563254D01*
X771645Y562059D01*
X772559Y561145D01*
X772619Y561120D01*
X772366Y559850D01*
X771853D01*
X770659Y559355D01*
X769745Y558441D01*
X769250Y557247D01*
Y555953D01*
X769745Y554759D01*
X770659Y553845D01*
X771431Y553525D01*
X771494Y552177D01*
X770959Y551955D01*
X770045Y551041D01*
X769550Y549846D01*
Y548554D01*
X770045Y547359D01*
X770959Y546445D01*
X772039Y545997D01*
X772153Y545950D01*
X771985Y544750D01*
X771935Y544750D01*
X771853D01*
X770659Y544255D01*
X769745Y543341D01*
X769250Y542146D01*
Y540854D01*
X769745Y539659D01*
X770659Y538745D01*
X771853Y538250D01*
X773147D01*
X774341Y538745D01*
X775255Y539659D01*
X775750Y540854D01*
Y542146D01*
X775255Y543341D01*
X774341Y544255D01*
X773260Y544703D01*
X773147Y544750D01*
X773315Y545950D01*
X773365Y545950D01*
X773447D01*
X774641Y546445D01*
X775555Y547359D01*
X776050Y548554D01*
Y549846D01*
X775555Y551041D01*
X774641Y551955D01*
X773869Y552275D01*
X773806Y553623D01*
X774341Y553845D01*
X775255Y554759D01*
X775750Y555953D01*
Y557247D01*
X775255Y558441D01*
X774341Y559355D01*
X774281Y559380D01*
X774534Y560650D01*
X775046D01*
X776241Y561145D01*
X777155Y562059D01*
X777650Y563254D01*
Y564546D01*
X777155Y565741D01*
X776241Y566655D01*
X775046Y567150D01*
D02*
G37*
G36*
X635946Y481950D02*
X634454D01*
X633076Y481379D01*
X632021Y480324D01*
X631450Y478946D01*
Y477454D01*
X632021Y476076D01*
X633076Y475021D01*
X634454Y474450D01*
X635946D01*
X637324Y475021D01*
X638379Y476076D01*
X638950Y477454D01*
Y478946D01*
X638379Y480324D01*
X637324Y481379D01*
X635946Y481950D01*
D02*
G37*
G36*
X703146Y464250D02*
X701853D01*
X700659Y463755D01*
X700353Y463449D01*
X656547D01*
X656441Y463555D01*
X655247Y464050D01*
X653954D01*
X652759Y463555D01*
X651845Y462641D01*
X651350Y461446D01*
Y460154D01*
X651845Y458959D01*
X652759Y458045D01*
X653954Y457550D01*
X655247D01*
X656441Y458045D01*
X656747Y458351D01*
X700553D01*
X700659Y458245D01*
X701853Y457750D01*
X703146D01*
X704341Y458245D01*
X705255Y459159D01*
X705750Y460354D01*
Y461646D01*
X705255Y462841D01*
X704341Y463755D01*
X703146Y464250D01*
D02*
G37*
G36*
X814346Y427150D02*
X812854D01*
X811476Y426579D01*
X810421Y425524D01*
X810337Y425322D01*
X808963D01*
X808879Y425524D01*
X807824Y426579D01*
X806446Y427150D01*
X804954D01*
X803576Y426579D01*
X802521Y425524D01*
X801950Y424146D01*
Y422654D01*
X802521Y421276D01*
X803576Y420221D01*
X804954Y419650D01*
X806446D01*
X807824Y420221D01*
X808879Y421276D01*
X808963Y421478D01*
X810337D01*
X810421Y421276D01*
X811476Y420221D01*
X812854Y419650D01*
X814346D01*
X815724Y420221D01*
X816779Y421276D01*
X818146Y421257D01*
X818221Y421076D01*
X819276Y420021D01*
X820654Y419450D01*
X822146D01*
X823524Y420021D01*
X824579Y421076D01*
X824633Y421207D01*
X826008D01*
X826021Y421176D01*
X827076Y420121D01*
X828454Y419550D01*
X829946D01*
X831324Y420121D01*
X832379Y421176D01*
X832563Y421619D01*
X833937D01*
X834121Y421176D01*
X835176Y420121D01*
X836554Y419550D01*
X838046D01*
X839424Y420121D01*
X840479Y421176D01*
X841050Y422554D01*
Y424046D01*
X840479Y425424D01*
X839424Y426479D01*
X838046Y427050D01*
X836554D01*
X835176Y426479D01*
X834121Y425424D01*
X833937Y424981D01*
X832563D01*
X832379Y425424D01*
X831324Y426479D01*
X829946Y427050D01*
X828454D01*
X827076Y426479D01*
X826021Y425424D01*
X825967Y425293D01*
X824592D01*
X824579Y425324D01*
X823524Y426379D01*
X822146Y426950D01*
X820654D01*
X819276Y426379D01*
X818221Y425324D01*
X816854Y425343D01*
X816779Y425524D01*
X815724Y426579D01*
X814346Y427150D01*
D02*
G37*
G36*
X912546Y412550D02*
X911054D01*
X909676Y411979D01*
X908621Y410924D01*
X908050Y409546D01*
Y408054D01*
X908621Y406676D01*
X909676Y405621D01*
X911054Y405050D01*
X912546D01*
X913924Y405621D01*
X914979Y406676D01*
X915550Y408054D01*
Y409546D01*
X914979Y410924D01*
X913924Y411979D01*
X912546Y412550D01*
D02*
G37*
G36*
X678546Y410450D02*
X677054D01*
X675676Y409879D01*
X674621Y408824D01*
X674050Y407446D01*
Y405954D01*
X674621Y404576D01*
X675676Y403521D01*
X677054Y402950D01*
X678546D01*
X679924Y403521D01*
X680979Y404576D01*
X681550Y405954D01*
Y407446D01*
X680979Y408824D01*
X679924Y409879D01*
X678546Y410450D01*
D02*
G37*
G36*
X637146Y409950D02*
X635654D01*
X634276Y409379D01*
X633221Y408324D01*
X632650Y406946D01*
Y405454D01*
X633221Y404076D01*
X634276Y403021D01*
X635654Y402450D01*
X637146D01*
X638524Y403021D01*
X639579Y404076D01*
X640150Y405454D01*
Y406946D01*
X639579Y408324D01*
X638524Y409379D01*
X637146Y409950D01*
D02*
G37*
G36*
X895746Y360250D02*
X894254D01*
X892876Y359679D01*
X891821Y358624D01*
X891250Y357246D01*
Y355754D01*
X891821Y354376D01*
X892876Y353321D01*
X894254Y352750D01*
X895746D01*
X897124Y353321D01*
X898179Y354376D01*
X898750Y355754D01*
Y357246D01*
X898179Y358624D01*
X897124Y359679D01*
X895746Y360250D01*
D02*
G37*
G36*
X716966Y360064D02*
X714662D01*
X712437Y359468D01*
X710441Y358316D01*
X708812Y356687D01*
X707660Y354691D01*
X707064Y352466D01*
Y350162D01*
X707660Y347937D01*
X708812Y345941D01*
X710441Y344312D01*
X712437Y343160D01*
X714662Y342564D01*
X716966D01*
X719191Y343160D01*
X721187Y344312D01*
X722816Y345941D01*
X723968Y347937D01*
X724564Y350162D01*
Y352466D01*
X723968Y354691D01*
X722816Y356687D01*
X721187Y358316D01*
X719191Y359468D01*
X716966Y360064D01*
D02*
G37*
G36*
Y334664D02*
X714662D01*
X712437Y334068D01*
X710441Y332916D01*
X708812Y331287D01*
X707660Y329291D01*
X707064Y327066D01*
Y324762D01*
X707660Y322537D01*
X708812Y320541D01*
X710441Y318912D01*
X712437Y317760D01*
X714662Y317164D01*
X716966D01*
X719191Y317760D01*
X721187Y318912D01*
X722816Y320541D01*
X723968Y322537D01*
X724564Y324762D01*
Y327066D01*
X723968Y329291D01*
X722816Y331287D01*
X721187Y332916D01*
X719191Y334068D01*
X716966Y334664D01*
D02*
G37*
G36*
X890846Y255750D02*
X889354D01*
X887976Y255179D01*
X886921Y254124D01*
X886350Y252746D01*
Y251254D01*
X886921Y249876D01*
X887976Y248821D01*
X889354Y248250D01*
X890846D01*
X892224Y248821D01*
X893279Y249876D01*
X893850Y251254D01*
Y252746D01*
X893279Y254124D01*
X892224Y255179D01*
X890846Y255750D01*
D02*
G37*
G36*
X832486Y237850D02*
X830314D01*
X828216Y237288D01*
X828000Y237163D01*
X827784Y237288D01*
X825686Y237850D01*
X823514D01*
X821416Y237288D01*
X819534Y236202D01*
X817998Y234666D01*
X816912Y232784D01*
X816588Y231572D01*
X802408Y217393D01*
X801285Y215930D01*
X800580Y214227D01*
X800340Y212400D01*
Y179200D01*
X800580Y177373D01*
X801285Y175670D01*
X802408Y174208D01*
X856740Y119875D01*
Y114794D01*
X856716Y114788D01*
X854834Y113702D01*
X853298Y112166D01*
X852212Y110284D01*
X851650Y108186D01*
Y106014D01*
X852212Y103916D01*
X853298Y102034D01*
X854834Y100498D01*
X856716Y99412D01*
X856740Y99406D01*
Y94107D01*
X855798Y93166D01*
X854712Y91284D01*
X854150Y89186D01*
Y87014D01*
X854712Y84916D01*
X855798Y83034D01*
X857334Y81498D01*
X859216Y80412D01*
X861314Y79850D01*
X863486D01*
X865550Y80403D01*
X867614Y79850D01*
X869786D01*
X871884Y80412D01*
X873766Y81498D01*
X875302Y83034D01*
X876388Y84916D01*
X876950Y87014D01*
Y89186D01*
X876388Y91284D01*
X875302Y93166D01*
X874360Y94107D01*
Y99252D01*
X874584Y99312D01*
X876466Y100398D01*
X878002Y101934D01*
X879088Y103816D01*
X879650Y105914D01*
Y108086D01*
X879088Y110184D01*
X878002Y112066D01*
X876466Y113602D01*
X874584Y114688D01*
X874360Y114748D01*
Y124250D01*
X874120Y126077D01*
X873415Y127780D01*
X872292Y129242D01*
X817960Y183574D01*
Y205499D01*
X834296Y221835D01*
X834584Y221912D01*
X836466Y222998D01*
X838002Y224534D01*
X839088Y226416D01*
X839650Y228514D01*
Y230686D01*
X839088Y232784D01*
X838002Y234666D01*
X836466Y236202D01*
X834584Y237288D01*
X832486Y237850D01*
D02*
G37*
G36*
X852047Y242350D02*
X850753D01*
X849559Y241855D01*
X848645Y240941D01*
X848150Y239746D01*
Y238454D01*
X848310Y238067D01*
X847446Y237050D01*
X846154D01*
X844959Y236555D01*
X844045Y235641D01*
X843550Y234446D01*
Y233153D01*
X844045Y231959D01*
X844959Y231045D01*
X846154Y230550D01*
X847447D01*
X848641Y231045D01*
X849555Y231959D01*
X850050Y233153D01*
Y234446D01*
X849890Y234833D01*
X850754Y235850D01*
X852047D01*
X853241Y236345D01*
X854155Y237259D01*
X854650Y238454D01*
Y239746D01*
X854155Y240941D01*
X853241Y241855D01*
X852047Y242350D01*
D02*
G37*
G36*
X842246Y223850D02*
X840954D01*
X839759Y223355D01*
X838845Y222441D01*
X838350Y221246D01*
Y219953D01*
X838845Y218759D01*
X839759Y217845D01*
X840954Y217350D01*
X842246D01*
X843441Y217845D01*
X844355Y218759D01*
X844850Y219953D01*
Y221246D01*
X844355Y222441D01*
X843441Y223355D01*
X842246Y223850D01*
D02*
G37*
G36*
X980040Y228440D02*
X961960D01*
Y210360D01*
X980040D01*
Y228440D01*
D02*
G37*
G36*
X849446Y205550D02*
X848154D01*
X846959Y205055D01*
X846045Y204141D01*
X845550Y202946D01*
Y201653D01*
X846045Y200459D01*
X846959Y199545D01*
X848154Y199050D01*
X849446D01*
X850641Y199545D01*
X851555Y200459D01*
X852050Y201653D01*
Y202946D01*
X851555Y204141D01*
X850641Y205055D01*
X849446Y205550D01*
D02*
G37*
G36*
X765804Y215954D02*
X747724D01*
Y197874D01*
X765804D01*
Y215954D01*
D02*
G37*
G36*
X716498Y206434D02*
X714194D01*
X711969Y205838D01*
X709973Y204686D01*
X708344Y203057D01*
X707192Y201061D01*
X706596Y198836D01*
Y196532D01*
X707192Y194307D01*
X708344Y192311D01*
X709973Y190682D01*
X711969Y189530D01*
X714194Y188934D01*
X716498D01*
X718723Y189530D01*
X720719Y190682D01*
X722348Y192311D01*
X723500Y194307D01*
X724096Y196532D01*
Y198836D01*
X723500Y201061D01*
X722348Y203057D01*
X720719Y204686D01*
X718723Y205838D01*
X716498Y206434D01*
D02*
G37*
G36*
X777895Y149600D02*
X776105D01*
X774451Y148915D01*
X773680Y148144D01*
X773155Y147662D01*
X772020Y148144D01*
X771549Y148615D01*
X769895Y149300D01*
X768105D01*
X766451Y148615D01*
X765185Y147349D01*
X764500Y145695D01*
Y143905D01*
X765185Y142251D01*
X766451Y140985D01*
X768105Y140300D01*
X769895D01*
X771549Y140985D01*
X772320Y141756D01*
X772845Y142238D01*
X773980Y141756D01*
X774451Y141285D01*
X776105Y140600D01*
X777895D01*
X779549Y141285D01*
X780429Y142165D01*
X781325Y142369D01*
X782012Y142123D01*
X782951Y141185D01*
X784605Y140500D01*
X786395D01*
X788049Y141185D01*
X789141Y142277D01*
X790054Y142327D01*
X790600Y142236D01*
X791751Y141085D01*
X793405Y140400D01*
X795195D01*
X796849Y141085D01*
X798115Y142351D01*
X798165Y142472D01*
X799435D01*
X799485Y142351D01*
X800556Y141280D01*
X800738Y140852D01*
X800677Y139741D01*
X799785Y138849D01*
X799100Y137195D01*
Y135405D01*
X799785Y133751D01*
X801051Y132485D01*
X801166Y132437D01*
Y131063D01*
X801051Y131015D01*
X799785Y129749D01*
X799100Y128095D01*
Y126305D01*
X799785Y124651D01*
X800919Y123518D01*
X800951Y122156D01*
X800851Y122115D01*
X799585Y120849D01*
X798900Y119195D01*
Y117405D01*
X799585Y115751D01*
X800851Y114485D01*
X802505Y113800D01*
X804295D01*
X805949Y114485D01*
X807215Y115751D01*
X807900Y117405D01*
Y119195D01*
X807215Y120849D01*
X806081Y121982D01*
X806049Y123344D01*
X806149Y123385D01*
X807415Y124651D01*
X808100Y126305D01*
Y128095D01*
X807415Y129749D01*
X806149Y131015D01*
X806034Y131063D01*
Y132437D01*
X806149Y132485D01*
X807415Y133751D01*
X808100Y135405D01*
Y137195D01*
X807415Y138849D01*
X806344Y139920D01*
X806162Y140348D01*
X806223Y141459D01*
X807115Y142351D01*
X807800Y144005D01*
Y145795D01*
X807115Y147449D01*
X805849Y148715D01*
X804195Y149400D01*
X802405D01*
X800751Y148715D01*
X799485Y147449D01*
X799435Y147328D01*
X798165D01*
X798115Y147449D01*
X796849Y148715D01*
X795195Y149400D01*
X793405D01*
X791751Y148715D01*
X790659Y147623D01*
X789746Y147573D01*
X789200Y147664D01*
X788049Y148815D01*
X786395Y149500D01*
X784605D01*
X782951Y148815D01*
X782071Y147935D01*
X781175Y147731D01*
X780488Y147976D01*
X779549Y148915D01*
X777895Y149600D01*
D02*
G37*
G36*
X895545Y70300D02*
X893655D01*
X891909Y69577D01*
X890573Y68241D01*
X889850Y66495D01*
Y64605D01*
X890573Y62859D01*
X891909Y61523D01*
X893655Y60800D01*
X895545D01*
X897291Y61523D01*
X898627Y62859D01*
X899350Y64605D01*
Y66495D01*
X898627Y68241D01*
X897291Y69577D01*
X895545Y70300D01*
D02*
G37*
G36*
X837745D02*
X835855D01*
X834109Y69577D01*
X832773Y68241D01*
X832050Y66495D01*
Y64605D01*
X832773Y62859D01*
X834109Y61523D01*
X835855Y60800D01*
X837745D01*
X839491Y61523D01*
X840827Y62859D01*
X841550Y64605D01*
Y66495D01*
X840827Y68241D01*
X839491Y69577D01*
X837745Y70300D01*
D02*
G37*
G36*
X864575Y73910D02*
X860225D01*
X858398Y73670D01*
X856695Y72965D01*
X855233Y71842D01*
X852819Y69429D01*
X852709Y69399D01*
X850828Y68313D01*
X849292Y66777D01*
X848206Y64896D01*
X847644Y62798D01*
Y60626D01*
X848206Y58527D01*
X849292Y56646D01*
X850828Y55110D01*
X852709Y54024D01*
X854808Y53462D01*
X856980D01*
X859040Y54014D01*
X859216Y53912D01*
X859600Y53809D01*
X861725Y51684D01*
X863187Y50562D01*
X864890Y49857D01*
X866717Y49616D01*
X871066D01*
X872894Y49857D01*
X874597Y50562D01*
X876059Y51684D01*
X878959Y54584D01*
X880456Y55449D01*
X881992Y56985D01*
X883078Y58866D01*
X883641Y60964D01*
Y63136D01*
X883078Y65235D01*
X881992Y67116D01*
X880456Y68652D01*
X878575Y69738D01*
X876477Y70300D01*
X874304D01*
X872206Y69738D01*
X872019Y69630D01*
X871692Y69717D01*
X869567Y71842D01*
X868105Y72965D01*
X866402Y73670D01*
X864575Y73910D01*
D02*
G37*
G36*
X599595Y20100D02*
X597805D01*
X596151Y19415D01*
X594950Y18214D01*
X593949Y19215D01*
X592295Y19900D01*
X590505D01*
X588851Y19215D01*
X587585Y17949D01*
X586900Y16295D01*
Y14505D01*
X587585Y12851D01*
X588851Y11585D01*
X590505Y10900D01*
X592295D01*
X593949Y11585D01*
X595150Y12786D01*
X596151Y11785D01*
X597805Y11100D01*
X599595D01*
X601249Y11785D01*
X602515Y13051D01*
X603200Y14705D01*
Y16495D01*
X602515Y18149D01*
X601249Y19415D01*
X599595Y20100D01*
D02*
G37*
G36*
X975514Y37500D02*
X972486D01*
X969561Y36716D01*
X966939Y35202D01*
X964798Y33061D01*
X963284Y30439D01*
X962500Y27514D01*
Y24486D01*
X963284Y21561D01*
X964798Y18939D01*
X966939Y16798D01*
X969561Y15284D01*
X972486Y14500D01*
X975514D01*
X978439Y15284D01*
X981061Y16798D01*
X983202Y18939D01*
X984716Y21561D01*
X985500Y24486D01*
Y27514D01*
X984716Y30439D01*
X983202Y33061D01*
X981061Y35202D01*
X978439Y36716D01*
X975514Y37500D01*
D02*
G37*
%LPD*%
D10*
X807400Y179200D02*
Y212400D01*
X824600Y229600D01*
X810900Y208424D02*
X831400Y228923D01*
X810900Y180650D02*
Y208424D01*
X831400Y228923D02*
Y229600D01*
X807400Y179200D02*
X863800Y122800D01*
X633720Y606435D02*
X634034D01*
X634034Y606435D01*
X634086D02*
X634191Y606330D01*
X632741Y602830D02*
X632794D01*
X634699Y600925D01*
X759825D02*
X774300Y615400D01*
X632584Y602935D02*
X632637D01*
X758375Y604425D02*
X770800Y616850D01*
X632584Y602935D02*
X632584Y602935D01*
X612085Y623121D02*
X632271Y602935D01*
X634699Y600925D02*
X759825D01*
X634191Y606330D02*
X634244D01*
X632271Y602935D02*
X632584D01*
X632637Y602935D02*
X632741Y602830D01*
X634034Y606435D02*
X634086D01*
X636148Y604425D02*
X758375D01*
X634244Y606330D02*
X636148Y604425D01*
X702400Y460900D02*
X702500Y461000D01*
X654700Y460900D02*
X702400D01*
X654600Y460800D02*
X654700Y460900D01*
X613534Y626621D02*
X633720Y606435D01*
X543200Y627900D02*
X543876D01*
X543977Y621800D02*
X545297Y623121D01*
X543876Y627900D02*
X545156Y626621D01*
X543300Y621800D02*
X543977D01*
X545156Y626621D02*
X613534D01*
X545297Y623121D02*
X612085D01*
X774300Y615400D02*
Y653200D01*
X770800Y616850D02*
Y654650D01*
X871100Y754950D01*
X774300Y653200D02*
X872550Y751450D01*
X896722Y755021D02*
Y757422D01*
X896650Y754950D02*
X896722Y755021D01*
Y757422D02*
X897200Y757900D01*
X896650Y754950D02*
X912973D01*
X896650Y751450D02*
X896822Y751279D01*
Y747578D02*
X897300Y747100D01*
X896822Y747578D02*
Y751279D01*
X896650Y751450D02*
X912973D01*
X914223Y750200D01*
X872550Y751450D02*
X896650D01*
X914223Y750200D02*
X914900D01*
X914223Y756200D02*
X914900D01*
X912973Y754950D02*
X914223Y756200D01*
X871100Y754950D02*
X896650D01*
X936250Y752268D02*
X939804Y755822D01*
X940522D01*
X941000Y756300D01*
X936250Y748333D02*
Y752268D01*
Y748333D02*
X939033Y745550D01*
X939073D01*
X940323Y744300D01*
X941000D01*
Y750300D02*
X941478Y750778D01*
X942196D01*
X945750Y754333D01*
Y758268D01*
X941318Y762700D02*
X945750Y758268D01*
X941100Y762700D02*
X941318D01*
X863800Y107500D02*
Y122800D01*
X810900Y180650D02*
X867300Y124250D01*
Y107500D02*
Y124250D01*
X870922Y107478D02*
X871400Y107000D01*
X867322Y107478D02*
X870922D01*
X867300Y107500D02*
X867322Y107478D01*
X859900Y107100D02*
X860300Y107500D01*
X863800D01*
X867300Y90176D02*
Y107500D01*
X868700Y88100D02*
Y88777D01*
X867300Y90176D02*
X868700Y88777D01*
X863800Y90176D02*
Y107500D01*
X862400Y88777D02*
X863800Y90176D01*
X862400Y88100D02*
Y88777D01*
X864575Y66850D02*
X868892Y62533D01*
Y61927D02*
Y62533D01*
X871066Y56677D02*
X874142Y59752D01*
X866717Y56677D02*
X871066D01*
X862400Y60994D02*
X866717Y56677D01*
X875391Y61374D02*
Y62050D01*
X874142Y60125D02*
X875391Y61374D01*
X855894Y61712D02*
Y62388D01*
X857150Y63645D02*
Y63775D01*
X874142Y59752D02*
Y60125D01*
X860225Y66850D02*
X864575D01*
X855894Y62388D02*
X857150Y63645D01*
Y63775D02*
X860225Y66850D01*
X862400Y60994D02*
Y61600D01*
D28*
X604145Y603500D02*
D03*
X595255D02*
D03*
X657155Y688000D02*
D03*
X666045D02*
D03*
X658110Y610100D02*
D03*
X667000D02*
D03*
X666745Y619200D02*
D03*
X657855D02*
D03*
X657800Y628200D02*
D03*
X666690D02*
D03*
X666545Y666800D02*
D03*
X657655D02*
D03*
D64*
X657960Y637800D02*
D03*
X666600D02*
D03*
X657980Y652400D02*
D03*
X666620D02*
D03*
D70*
X555700Y612200D02*
D03*
X572700D02*
D03*
D144*
X413900Y717600D02*
D03*
D145*
Y742600D02*
D03*
D169*
X786100Y475100D02*
D03*
X911800Y408800D02*
D03*
X653600Y727920D02*
D03*
X675300Y632800D02*
D03*
X646700Y726100D02*
D03*
X639800Y728800D02*
D03*
X675400Y617900D02*
D03*
X675300Y624900D02*
D03*
X824600Y229600D02*
D03*
X831400D02*
D03*
X808300Y226700D02*
D03*
X500700Y639100D02*
D03*
X582117Y549317D02*
D03*
X500500Y653500D02*
D03*
X509000Y626800D02*
D03*
X615300Y600700D02*
D03*
X630714Y725680D02*
D03*
X618700Y716600D02*
D03*
X650100Y695000D02*
D03*
X503900Y664000D02*
D03*
X797200Y256000D02*
D03*
X589200Y596300D02*
D03*
X535100Y564500D02*
D03*
X836000Y612300D02*
D03*
X675200Y687800D02*
D03*
X863900Y623800D02*
D03*
X676300Y611100D02*
D03*
X971400Y324100D02*
D03*
X890100Y252000D02*
D03*
X889900Y230100D02*
D03*
X496500Y660000D02*
D03*
X495200Y955100D02*
D03*
X503400Y956200D02*
D03*
X488900Y959900D02*
D03*
X495500Y937200D02*
D03*
X487500Y937400D02*
D03*
X523400Y895900D02*
D03*
X517200Y901200D02*
D03*
X510300Y896000D02*
D03*
X825000Y598700D02*
D03*
X835700Y582800D02*
D03*
X528900Y594200D02*
D03*
X508800Y592100D02*
D03*
X572928Y550918D02*
D03*
X833446Y573211D02*
D03*
X668600Y810600D02*
D03*
X533300Y731600D02*
D03*
X624456Y645500D02*
D03*
X647300Y636100D02*
D03*
X869800Y777300D02*
D03*
X865800Y773400D02*
D03*
X861400Y768700D02*
D03*
X525100Y792800D02*
D03*
X525000Y786800D02*
D03*
X458800Y523200D02*
D03*
X452500Y516900D02*
D03*
X835450Y602000D02*
D03*
X560407Y773306D02*
D03*
X863600Y557700D02*
D03*
Y546700D02*
D03*
X635200Y478200D02*
D03*
X677800Y478000D02*
D03*
X899500Y333000D02*
D03*
X951100Y445500D02*
D03*
X950900Y489100D02*
D03*
X951500Y355400D02*
D03*
X951700Y407400D02*
D03*
X895000Y356500D02*
D03*
X636400Y406200D02*
D03*
X613500Y454000D02*
D03*
X677800Y406700D02*
D03*
X516200Y745200D02*
D03*
X799200Y202600D02*
D03*
X861100Y225800D02*
D03*
X635800Y684200D02*
D03*
X914500Y716000D02*
D03*
X914800Y788900D02*
D03*
X645400Y790100D02*
D03*
X611600Y803700D02*
D03*
X662320Y806900D02*
D03*
X710600Y797300D02*
D03*
X420100Y569100D02*
D03*
X420300Y599600D02*
D03*
X401400Y568500D02*
D03*
X401800Y599100D02*
D03*
X611390Y532910D02*
D03*
X648650Y648550D02*
D03*
X675600Y742000D02*
D03*
X525900Y756600D02*
D03*
X534600Y771400D02*
D03*
X454180Y596100D02*
D03*
X570000Y771225D02*
D03*
X814200Y673700D02*
D03*
X917600Y440200D02*
D03*
X674700Y572000D02*
D03*
X503200Y935400D02*
D03*
X543700Y652800D02*
D03*
X585000Y618000D02*
D03*
X895900Y443600D02*
D03*
X895600Y490700D02*
D03*
X607300Y383300D02*
D03*
X599700D02*
D03*
X543200Y627900D02*
D03*
X543300Y621800D02*
D03*
X544094Y607494D02*
D03*
X543018Y613397D02*
D03*
X642750Y770550D02*
D03*
X384100Y758000D02*
D03*
X631600Y770600D02*
D03*
X593350Y551250D02*
D03*
X363200Y557500D02*
D03*
X363900Y588300D02*
D03*
X420300Y593500D02*
D03*
X420000Y562600D02*
D03*
X805700Y423400D02*
D03*
X813600D02*
D03*
X837300Y423300D02*
D03*
X829200D02*
D03*
X821400Y423200D02*
D03*
X797700Y265600D02*
D03*
X822600Y473800D02*
D03*
X786700Y434200D02*
D03*
X675700Y652000D02*
D03*
X564000Y551000D02*
D03*
X554100Y551200D02*
D03*
X914900Y750200D02*
D03*
Y756200D02*
D03*
X897300Y747100D02*
D03*
X897200Y757900D02*
D03*
X941000Y756300D02*
D03*
Y744300D02*
D03*
Y750300D02*
D03*
X941100Y762700D02*
D03*
X859900Y107100D02*
D03*
X868700Y88100D02*
D03*
X862400D02*
D03*
X871400Y107000D02*
D03*
X868892Y61927D02*
D03*
X862400Y61600D02*
D03*
X875391Y62050D02*
D03*
X855894Y61712D02*
D03*
D175*
X592178Y926522D02*
G03*
X593982Y925789I1785J1807D01*
G01*
D02*
G03*
X621253Y930810I-1065J82352D01*
G01*
X639884Y928917D02*
G03*
X639889Y928911I1921J1662D01*
G01*
X789950Y926820D02*
G03*
X801090Y925691I7430J17780D01*
G01*
X700253Y797725D02*
G03*
X703845Y797725I1796J1796D01*
G01*
X692764Y805213D02*
G03*
X689172Y805213I-1796J-1796D01*
G01*
X689172Y805213D02*
G03*
X689172Y801621I1796J-1796D01*
G01*
X703854Y783347D02*
G03*
X703854Y786939I-1796J1796D01*
G01*
X700262Y783347D02*
G03*
X703854Y783347I1796J1796D01*
G01*
X676904Y806705D02*
G03*
X673312Y806705I-1796J-1796D01*
G01*
X673312Y806705D02*
G03*
X673312Y803113I1796J-1796D01*
G01*
X696613Y776220D02*
G03*
X696613Y779812I-1796J1796D01*
G01*
X693021Y776220D02*
G03*
X696613Y776220I1796J1796D01*
G01*
X669720Y799521D02*
G03*
X666128Y799521I-1796J-1796D01*
G01*
D02*
G03*
X666128Y795929I1796J-1796D01*
G01*
X689371Y769093D02*
G03*
X689371Y772685I-1796J1796D01*
G01*
X685779Y769093D02*
G03*
X689371Y769093I1796J1796D01*
G01*
X682292Y772580D02*
G03*
X678700Y772580I-1796J-1796D01*
G01*
X456518Y661440D02*
G03*
X464211Y645007I8282J-6140D01*
G01*
X456518Y661440D02*
G03*
X457013Y662947I-2045J1506D01*
G01*
X510200Y935313D02*
G03*
X534455Y927416I16600J9787D01*
G01*
X537809Y928868D02*
G03*
X545005Y931100I-552J14492D01*
G01*
X787375Y811186D02*
G03*
X790083Y812858I-4375J10114D01*
G01*
X394539Y820007D02*
G03*
X394300Y820010I-239J-10307D01*
G01*
X409293Y819700D02*
G03*
X409300Y819700I53J2539D01*
G01*
X276971Y805130D02*
G03*
X296317Y812118I9429J4170D01*
G01*
X254110Y816590D02*
G03*
X270829Y805130I7290J-7290D01*
G01*
X276655Y805446D02*
X276654Y805447D01*
X46488Y805293D02*
G03*
X51709Y805451I2526J2852D01*
G01*
X33319Y816960D02*
G03*
X27940Y816634I-2526J-2852D01*
G01*
X27940Y816634D02*
G03*
X28266Y811256I2852J-2526D01*
G01*
X40903Y794971D02*
G03*
X40578Y800349I-2852J2526D01*
G01*
X35525Y794645D02*
G03*
X40903Y794971I2526J2852D01*
G01*
X23213Y805552D02*
G03*
X17835Y805227I-2526J-2852D01*
G01*
Y805227D02*
G03*
X18160Y799848I2852J-2526D01*
G01*
X35554Y779350D02*
G03*
X35228Y784728I-2852J2526D01*
G01*
X30175Y779024D02*
G03*
X35554Y779350I2526J2852D01*
G01*
X13107Y794144D02*
G03*
X7729Y793819I-2526J-2852D01*
G01*
X7729Y793819D02*
G03*
X8055Y788441I2852J-2526D01*
G01*
X38080Y760127D02*
G03*
X36796Y762979I-3810J0D01*
G01*
X110560Y740850D02*
G03*
X114370Y737040I3810J0D01*
G01*
X127495Y729420D02*
G03*
X127495Y737040I0J3810D01*
G01*
X110380Y729420D02*
G03*
X110380Y721800I0J-3810D01*
G01*
X132150Y714180D02*
G03*
X132150Y721800I0J3810D01*
G01*
X88970Y714180D02*
G03*
X88970Y706560I0J-3810D01*
G01*
X132150Y698940D02*
G03*
X132150Y706560I0J3810D01*
G01*
X113716Y698940D02*
G03*
X113716Y691320I0J-3810D01*
G01*
X132150Y683700D02*
G03*
X132150Y691320I0J3810D01*
G01*
X114370Y683700D02*
G03*
X110560Y679890I0J-3810D01*
G01*
X38080Y741730D02*
G03*
X41890Y737920I3810J0D01*
G01*
X42128Y730300D02*
G03*
X42128Y737920I0J3810D01*
G01*
X16490Y730300D02*
G03*
X16490Y722680I0J-3810D01*
G01*
X38080Y718870D02*
G03*
X34270Y722680I-3810J0D01*
G01*
X175888Y883176D02*
G03*
X181276Y883176I2694J2694D01*
G01*
X175474Y883589D02*
G03*
X170086Y883589I-2694J-2694D01*
G01*
D02*
G03*
X170086Y878201I2694J-2694D01*
G01*
X178298Y864602D02*
G03*
X178297Y869990I-2694J2694D01*
G01*
X172909Y864602D02*
G03*
X178298Y864602I2694J2694D01*
G01*
X138918Y898594D02*
G03*
X133529Y898594I-2694J-2694D01*
G01*
D02*
G03*
X133529Y893205I2694J-2694D01*
G01*
X167521Y853826D02*
G03*
X167521Y859214I-2694J2694D01*
G01*
X162133Y853826D02*
G03*
X167521Y853826I2694J2694D01*
G01*
X128141Y887817D02*
G03*
X122753Y887817I-2694J-2694D01*
G01*
D02*
G03*
X122753Y882429I2694J-2694D01*
G01*
X156745Y843049D02*
G03*
X156745Y848437I-2694J2694D01*
G01*
X151357Y843049D02*
G03*
X156745Y843049I2694J2694D01*
G01*
X117365Y877041D02*
G03*
X111977Y877041I-2694J-2694D01*
G01*
D02*
G03*
X111977Y871653I2694J-2694D01*
G01*
X145969Y832273D02*
G03*
X145969Y837661I-2694J2694D01*
G01*
X140580Y832273D02*
G03*
X145969Y832273I2694J2694D01*
G01*
X115184Y857669D02*
G03*
X109796Y857669I-2694J-2694D01*
G01*
D02*
G03*
X109796Y852281I2694J-2694D01*
G01*
X127394Y829294D02*
G03*
X127394Y834682I-2694J2694D01*
G01*
X172780Y929730D02*
G03*
X176590Y925920I3810J0D01*
G01*
X172780Y943518D02*
G03*
X165160Y943518I-3810J0D01*
G01*
X157540Y904330D02*
G03*
X165160Y904330I3810J0D01*
G01*
X157540Y976821D02*
G03*
X149920Y976821I-3810J0D01*
G01*
X142300Y904330D02*
G03*
X149920Y904330I3810J0D01*
G01*
X142300Y976821D02*
G03*
X134680Y976821I-3810J0D01*
G01*
X130870Y925920D02*
G03*
X134680Y929730I0J3810D01*
G01*
X378020Y888280D02*
G03*
X374210Y892090I-3810J0D01*
G01*
X378020Y876578D02*
G03*
X385640Y876578I3810J0D01*
G01*
X393260Y892070D02*
G03*
X385640Y892070I-3810J0D01*
G01*
X393260Y876578D02*
G03*
X400880Y876578I3810J0D01*
G01*
X408500Y917780D02*
G03*
X400880Y917780I-3810J0D01*
G01*
X408500Y876578D02*
G03*
X416120Y876578I3810J0D01*
G01*
X419930Y919700D02*
G03*
X416120Y915890I0J-3810D01*
G01*
X342200Y968380D02*
G03*
X346010Y964570I3810J0D01*
G01*
X342200Y976217D02*
G03*
X334580Y976217I-3810J0D01*
G01*
X330770Y964570D02*
G03*
X334580Y968380I0J3810D01*
G01*
X408980Y964750D02*
G03*
X410096Y962056I3810J0D01*
G01*
X408980Y986160D02*
G03*
X401360Y986160I-3810J0D01*
G01*
X393740Y968180D02*
G03*
X401360Y968180I3810J0D01*
G01*
X393740Y986160D02*
G03*
X386120Y986160I-3810J0D01*
G01*
X378500Y962482D02*
G03*
X386120Y962482I3810J0D01*
G01*
X378500Y986160D02*
G03*
X370880Y986160I-3810J0D01*
G01*
X367070Y964570D02*
G03*
X370880Y968380I0J3810D01*
G01*
X806309Y866201D02*
G03*
X809901Y866201I1796J1796D01*
G01*
X804772Y867737D02*
G03*
X801180Y867737I-1796J-1796D01*
G01*
X801180Y867737D02*
G03*
X801180Y864145I1796J-1796D01*
G01*
X813510Y848223D02*
G03*
X813510Y851815I-1796J1796D01*
G01*
X809918Y848223D02*
G03*
X813510Y848223I1796J1796D01*
G01*
X797531Y860610D02*
G03*
X793939Y860610I-1796J-1796D01*
G01*
D02*
G03*
X793939Y857018I1796J-1796D01*
G01*
X806326Y841039D02*
G03*
X806326Y844631I-1796J1796D01*
G01*
X802734Y841039D02*
G03*
X806326Y841039I1796J1796D01*
G01*
X790289Y853483D02*
G03*
X786697Y853483I-1796J-1796D01*
G01*
X786697Y853483D02*
G03*
X786697Y849891I1796J-1796D01*
G01*
X788348Y844648D02*
G03*
X788348Y848240I-1796J1796D01*
G01*
X774121Y846803D02*
G03*
X774092Y843211I1782J-1810D01*
G01*
X775665Y837991D02*
G03*
X775694Y841583I-1782J1810D01*
G01*
X772073Y838019D02*
G03*
X775665Y837991I1810J1782D01*
G01*
X762862Y847379D02*
G03*
X759270Y847408I-1810J-1782D01*
G01*
X759270Y847408D02*
G03*
X759241Y843816I1782J-1810D01*
G01*
X768621Y830664D02*
G03*
X768650Y834256I-1782J1810D01*
G01*
X765029Y830692D02*
G03*
X768621Y830664I1810J1782D01*
G01*
X755677Y840195D02*
G03*
X752085Y840223I-1810J-1782D01*
G01*
Y840223D02*
G03*
X752057Y836631I1782J-1810D01*
G01*
X761437Y823479D02*
G03*
X761466Y827071I-1782J1810D01*
G01*
X757845Y823508D02*
G03*
X761437Y823479I1810J1782D01*
G01*
X748493Y833010D02*
G03*
X744901Y833039I-1810J-1782D01*
G01*
X744901D02*
G03*
X744872Y829447I1782J-1810D01*
G01*
X754252Y816295D02*
G03*
X754281Y819887I-1782J1810D01*
G01*
X750661Y816323D02*
G03*
X754252Y816295I1810J1782D01*
G01*
X741309Y825826D02*
G03*
X737717Y825854I-1810J-1782D01*
G01*
X737717Y825854D02*
G03*
X737688Y822263I1782J-1810D01*
G01*
X747068Y809110D02*
G03*
X747097Y812702I-1782J1810D01*
G01*
X743476Y809139D02*
G03*
X747068Y809110I1810J1782D01*
G01*
X734124Y818641D02*
G03*
X730532Y818670I-1810J-1782D01*
G01*
D02*
G03*
X730503Y815078I1782J-1810D01*
G01*
X734293Y807606D02*
G03*
X734322Y811198I-1782J1810D01*
G01*
X797709Y824184D02*
G03*
X797714Y824541I-13178J357D01*
G01*
X797650Y823725D02*
G03*
X797393Y821827I10750J-2425D01*
G01*
X797323Y821355D02*
G03*
X797393Y821827I-2467J604D01*
G01*
X797650Y823725D02*
G03*
X797709Y824184I-2480J550D01*
G01*
X11000Y535000D02*
X20400Y544400D01*
X10780Y517503D02*
Y534297D01*
X11000Y534517D02*
Y535000D01*
X10780Y517503D02*
X15583Y512700D01*
X10780Y534297D02*
X11000Y534517D01*
X629066Y594155D02*
X629075D01*
X622321Y600900D02*
X629066Y594155D01*
X632468Y597155D02*
X634485D01*
X611563Y618000D02*
X630763Y598800D01*
X615500Y600900D02*
X622321D01*
X630763Y598800D02*
X630822D01*
X632468Y597155D01*
X636840Y594800D02*
X637100D01*
X634485Y597155D02*
X636840Y594800D01*
X653500Y728020D02*
Y747380D01*
Y728020D02*
X653600Y727920D01*
X649900Y722900D02*
X657211D01*
X646700Y726100D02*
X649900Y722900D01*
X661733Y714820D02*
X663453Y716540D01*
X680620Y739421D02*
Y744212D01*
X637901Y718860D02*
X660059D01*
X690372Y716540D02*
X720034Y746201D01*
X634161Y714820D02*
X661733D01*
X680620Y744212D02*
X699670Y763263D01*
X704775D01*
X674546Y695000D02*
X728526Y748980D01*
X625785Y717214D02*
X632219Y710780D01*
X660059Y718860D02*
X680620Y739421D01*
X625720Y723261D02*
X634161Y714820D01*
X658699Y724388D02*
Y733199D01*
X657211Y722900D02*
X658699Y724388D01*
X650100Y695000D02*
X674546D01*
X723193Y781680D02*
X725380D01*
X631081Y725680D02*
X637901Y718860D01*
X704775Y763263D02*
X723193Y781680D01*
X664646Y712020D02*
X676200D01*
X663406Y710780D02*
X664646Y712020D01*
X663453Y716540D02*
X690372D01*
X632219Y710780D02*
X663406D01*
X671500Y636070D02*
X674770Y632800D01*
X675300D01*
X668030Y636070D02*
X671500D01*
X639425Y729175D02*
X639800Y728800D01*
X634319Y729175D02*
X639425D01*
X632794Y730700D02*
X634319Y729175D01*
X627208Y730700D02*
X632794D01*
X668399Y626491D02*
X673179D01*
X674770Y624900D01*
X675300D01*
X595571Y557829D02*
X596271D01*
X579900Y573500D02*
X595571Y557829D01*
X550122Y588412D02*
Y588653D01*
Y588412D02*
X587284Y551250D01*
X593350D01*
X538597Y600179D02*
X550122Y588653D01*
X596271Y557829D02*
X611500Y542600D01*
X509180Y626620D02*
X516330D01*
X536810Y647100D01*
X509000Y626800D02*
X509180Y626620D01*
X631283Y574811D02*
X635886Y570207D01*
Y569013D02*
Y570207D01*
Y569013D02*
X665000Y539900D01*
Y532900D02*
Y539900D01*
X615300Y600700D02*
X615500Y600900D01*
X621384Y721884D02*
X625785Y717482D01*
X621384Y721884D02*
Y723116D01*
X625694Y729186D02*
X627208Y730700D01*
X625694Y725198D02*
Y729186D01*
X621200Y723300D02*
X621384Y723116D01*
X625694Y725198D02*
X625720Y725172D01*
X630714Y725680D02*
X631081D01*
X625720Y723261D02*
Y725172D01*
X625785Y717214D02*
Y717482D01*
X629500Y740400D02*
X642000D01*
X618200Y729100D02*
X629500Y740400D01*
X613680Y696020D02*
X620480Y689220D01*
X613680Y696020D02*
Y779660D01*
X543280Y850060D02*
X613680Y779660D01*
X577300Y786400D02*
X592203Y771497D01*
X539200Y637000D02*
X594812D01*
X596422Y638610D01*
X539900Y836300D02*
X600650Y775550D01*
X596485Y632960D02*
X600650Y637124D01*
X539933Y841980D02*
X604690Y777223D01*
X608730Y642470D02*
Y778897D01*
X541607Y846020D02*
X608730Y778897D01*
X604690Y640797D02*
X635387Y610100D01*
X600650Y637124D02*
Y775550D01*
X591386Y665246D02*
X592203Y666063D01*
X596422Y638610D02*
Y773678D01*
X604690Y640797D02*
Y777223D01*
X592203Y666063D02*
Y771497D01*
X538100Y832000D02*
X596422Y773678D01*
X578500Y707680D02*
Y707940D01*
X581400Y710840D02*
Y729320D01*
X578500Y707940D02*
X581400Y710840D01*
X511496Y695440D02*
X513710D01*
X487230Y671174D02*
X511496Y695440D01*
X516370Y698100D02*
X516900D01*
X513710Y695440D02*
X516370Y698100D01*
X544016Y704284D02*
X546900Y701400D01*
X519816Y704284D02*
X544016D01*
X503900Y664000D02*
X532500D01*
X653500Y747380D02*
X674210Y768090D01*
X659459Y733959D02*
X733388Y806715D01*
X659443Y733943D02*
X659459Y733959D01*
X658699Y733199D02*
X659443Y733943D01*
X792680Y261050D02*
X797200Y256530D01*
X792680Y261050D02*
Y267679D01*
X797200Y256000D02*
Y256530D01*
X589200Y596300D02*
Y596830D01*
X591546Y599176D01*
Y599791D01*
X591863Y609445D02*
X598647D01*
X604145Y603500D02*
Y603672D01*
X598647Y609445D02*
X601200Y606892D01*
Y606617D02*
Y606892D01*
X585445Y607445D02*
X589863D01*
X591863Y609445D01*
X601200Y606617D02*
X604145Y603672D01*
X591546Y599791D02*
X593255Y601500D01*
X546082Y575482D02*
Y586980D01*
X535100Y564500D02*
X546082Y575482D01*
X667245Y687900D02*
X675100D01*
X667145Y688000D02*
X667245Y687900D01*
X675100D02*
X675200Y687800D01*
X681200Y685601D02*
Y695941D01*
X686700Y685387D02*
Y695727D01*
X677054Y681455D02*
X681200Y685601D01*
X667823Y677415D02*
X678728D01*
X686700Y685387D01*
X642155Y681455D02*
X677054D01*
X681200Y695941D02*
X730199Y744940D01*
X675925Y611475D02*
X676300Y611100D01*
X670369Y612000D02*
X672945D01*
X673470Y611475D02*
X675925D01*
X672945Y612000D02*
X673470Y611475D01*
X667000Y610100D02*
X668709Y611809D01*
X670178D01*
X670369Y612000D01*
X667670Y618275D02*
X675025D01*
X666745Y619200D02*
X667670Y618275D01*
X675025D02*
X675400Y617900D01*
X496500Y660000D02*
X496875Y660375D01*
Y665474D02*
X500421Y669020D01*
X496875Y660375D02*
Y665474D01*
X495200Y955100D02*
X507687Y967588D01*
Y969887D02*
X519800Y982000D01*
X507687Y967588D02*
Y969887D01*
X503400Y956200D02*
Y956400D01*
X523700Y976700D01*
X933000D01*
X519800Y982000D02*
X934000D01*
X488900Y959900D02*
X516100Y987100D01*
X936100D01*
X498400Y929870D02*
Y933770D01*
Y929870D02*
X517400Y910870D01*
X495500Y936670D02*
X498400Y933770D01*
X495500Y936670D02*
Y937200D01*
X491875Y930681D02*
Y933025D01*
X487500Y937400D02*
X491875Y933025D01*
X504529Y942420D02*
X508137Y938812D01*
X448060Y936960D02*
X453520Y942420D01*
X504529D01*
X491875Y930681D02*
X510300Y912256D01*
X524500Y905815D02*
Y914100D01*
X523400Y904715D02*
X524500Y905815D01*
X523400Y895900D02*
Y904715D01*
X517400Y901400D02*
Y910870D01*
X517200Y901200D02*
X517400Y901400D01*
X510300Y896000D02*
Y912256D01*
X503200Y935400D02*
X524500Y914100D01*
X704570Y747170D02*
X711370D01*
X711400Y747200D01*
X701700Y744300D02*
X704570Y747170D01*
X695154Y728346D02*
Y743446D01*
X690700Y747900D02*
X695154Y743446D01*
X699674Y732620D02*
X699857Y732804D01*
Y737608D02*
X701700Y739450D01*
X699857Y732804D02*
Y737608D01*
X574680Y576170D02*
Y576772D01*
X573800Y575290D02*
X574680Y576170D01*
X573800Y575030D02*
Y575290D01*
X621700Y930810D02*
X638027D01*
X587600Y931100D02*
X592167Y926533D01*
X592178Y926522D01*
X621253Y930810D02*
X621700Y930810D01*
X545005Y931100D02*
X587600D01*
X638027Y930810D02*
X639650Y929187D01*
X639890Y928910D02*
X650000Y918800D01*
X639889Y928911D02*
X639890Y928910D01*
X639650Y929187D02*
X639884Y928917D01*
X696051Y930800D02*
X700031Y926820D01*
X789950D01*
X806852Y926820D02*
X807596Y927564D01*
X809242Y929210D01*
X801090Y925691D02*
X806852Y926820D01*
X666134Y930810D02*
X694746D01*
X694756Y930800D01*
X662000D02*
X666124D01*
X666134Y930810D01*
X694756Y930800D02*
X696051D01*
X650000Y918800D02*
X662000Y930800D01*
X586020Y890880D02*
X613940Y918800D01*
X504611Y891890D02*
X505621Y890880D01*
X586020D01*
X632402Y659802D02*
X632716Y660116D01*
Y664516D02*
X632900Y664700D01*
X632716Y660116D02*
Y664516D01*
X632402Y657698D02*
Y659802D01*
Y657698D02*
X636409Y653691D01*
X619925Y667525D02*
Y667925D01*
X635800Y683800D01*
X613500Y643413D02*
Y666850D01*
X613750Y667100D01*
X613500Y643413D02*
X628713Y628200D01*
X624831Y645875D02*
X626075D01*
X624456Y645500D02*
X624831Y645875D01*
X626075D02*
X628496Y648296D01*
X581082Y669020D02*
X591402Y658700D01*
X628496Y648296D02*
X634121D01*
X634496Y648671D01*
X656635Y636475D02*
X657960Y637800D01*
X647675Y636475D02*
X656635D01*
X647300Y636100D02*
X647675Y636475D01*
X725380Y781680D02*
X787450Y843750D01*
X695154Y728346D02*
X695277Y728223D01*
X608730Y642470D02*
X632000Y619200D01*
X587100Y696088D02*
Y763900D01*
X585612Y694600D02*
X587100Y696088D01*
X571200Y779800D02*
X587100Y763900D01*
X549040Y694600D02*
X585612D01*
X703845Y797725D02*
X719960Y813840D01*
X700253Y797725D02*
X700253Y797725D01*
X692764Y805213D02*
X700253Y797725D01*
X689172Y805213D02*
X689172Y805213D01*
X689172Y801621D02*
X703854Y786939D01*
X703854Y786939D02*
X703854Y786939D01*
X700262Y783347D02*
X700262Y783347D01*
X676904Y806705D02*
X700262Y783347D01*
X676904Y806705D02*
X676904Y806705D01*
X673312D02*
X673312Y806705D01*
X673312Y803113D02*
X673312Y803113D01*
X696613Y779812D01*
X696613Y779812D02*
X696613Y779812D01*
Y776220D02*
X696613Y776220D01*
X693021Y776220D02*
X693021Y776220D01*
X669720Y799521D02*
X693021Y776220D01*
X669720Y799521D02*
X669720Y799521D01*
X666128Y795929D02*
X666128Y795929D01*
X689371Y772685D01*
X689371Y772685D02*
X689371Y772685D01*
Y769093D02*
X689371Y769093D01*
X685779Y769093D02*
X685779Y769093D01*
X682292Y772580D02*
X685779Y769093D01*
X674210Y768090D02*
X678700Y772580D01*
X662320Y806900D02*
Y807430D01*
X663074Y808184D01*
Y826118D01*
X654292Y834900D02*
X663074Y826118D01*
X623000Y834900D02*
X654292D01*
X646800Y812300D02*
X658554Y824054D01*
X646658Y748858D02*
X651500Y753700D01*
X646658Y745058D02*
Y748858D01*
X555837Y767510D02*
Y768736D01*
X560407Y773306D01*
X482820Y663287D02*
Y688620D01*
X474280Y694279D02*
X559801Y779800D01*
X478320Y689993D02*
X555837Y767510D01*
X474280Y660400D02*
Y694279D01*
X559801Y779800D02*
X571200D01*
X565425Y771225D02*
X570000D01*
X482820Y688620D02*
X565425Y771225D01*
X628713Y628200D02*
X657800D01*
X500421Y669020D02*
X581082D01*
X639716Y650405D02*
Y650551D01*
X636576Y653691D02*
X639716Y650551D01*
X636409Y653691D02*
X636576D01*
X627000Y666200D02*
Y666692D01*
X634228Y673920D02*
X634620D01*
X627000Y666692D02*
X634228Y673920D01*
X635800Y683800D02*
Y684200D01*
X638622Y689220D02*
X640442Y687400D01*
X658755D01*
X620480Y689220D02*
X638622D01*
X514512Y691400D02*
X520100D01*
X491270Y668158D02*
X514512Y691400D01*
X491270Y620340D02*
Y668158D01*
X487230Y622014D02*
Y671174D01*
X658554Y824054D02*
Y824246D01*
X569379Y475495D02*
X569756Y475119D01*
X577200D01*
X426018Y475495D02*
X569379D01*
X566925Y470850D02*
X567300Y470475D01*
X381030Y508086D02*
X421701Y467415D01*
X562828D01*
X270120Y472080D02*
X278980Y463220D01*
X383674Y512126D02*
X424345Y471455D01*
X562828Y467415D02*
X565665Y464577D01*
X424345Y471455D02*
X564501D01*
X565106Y470850D02*
X566925D01*
X564501Y471455D02*
X565106Y470850D01*
X565665Y464577D02*
X566196D01*
X278980Y463220D02*
X558772D01*
X385347Y516166D02*
X426018Y475495D01*
X558772Y463220D02*
X563217Y458775D01*
X382506Y512126D02*
X383674D01*
X565725Y458775D02*
X566100Y458400D01*
X563217Y458775D02*
X565725D01*
X572600Y415900D02*
Y450300D01*
X572399Y450501D02*
X572600Y450300D01*
X604180Y579420D02*
X617361Y566239D01*
Y564774D02*
X630726Y551409D01*
X611500Y533020D02*
Y542600D01*
X617361Y564774D02*
Y566239D01*
X611390Y532910D02*
X611500Y533020D01*
X531758Y526295D02*
Y531168D01*
X535798Y527969D02*
Y532842D01*
Y527969D02*
X572008Y491759D01*
X531758Y526295D02*
X570335Y487719D01*
X568661Y483679D02*
X583885D01*
X527718Y524622D02*
X568661Y483679D01*
X570335Y487719D02*
X585559D01*
X523678Y522949D02*
Y527822D01*
Y522949D02*
X566988Y479639D01*
X527718Y524622D02*
Y529495D01*
X572008Y491759D02*
X587232D01*
X566988Y479639D02*
X582212D01*
X482820Y574393D02*
Y623317D01*
X486860Y576067D02*
Y621643D01*
X587232Y491759D02*
X607000Y471991D01*
X583700Y396501D02*
Y478151D01*
X490900Y577740D02*
Y619970D01*
X583885Y483679D02*
X589600Y477964D01*
X585559Y487719D02*
X600100Y473178D01*
X582212Y479639D02*
X583700Y478151D01*
X600100Y401000D02*
Y473178D01*
X583700Y396501D02*
X591459Y388742D01*
X607000Y401100D02*
Y471991D01*
X589600Y396315D02*
Y477964D01*
Y396315D02*
X593132Y392782D01*
X384180Y516166D02*
X385347D01*
X378310Y522036D02*
X384180Y516166D01*
X378310Y522036D02*
Y530690D01*
X368540Y540460D02*
X378310Y530690D01*
X273553Y540460D02*
X368540D01*
X269513Y544500D02*
X273553Y540460D01*
X252603Y544500D02*
X269513D01*
X240680Y532577D02*
X252603Y544500D01*
X240680Y532380D02*
Y532577D01*
X234700Y526400D02*
X240680Y532380D01*
X366866Y536420D02*
X372950Y530336D01*
X271880Y536420D02*
X366866D01*
X370230Y518689D02*
X380833Y508086D01*
X370230Y518689D02*
Y518886D01*
X362930Y526186D02*
X370230Y518886D01*
X362930Y526186D02*
Y526186D01*
X374270Y520362D02*
Y521417D01*
Y520362D02*
X382506Y512126D01*
X372950Y522737D02*
Y530336D01*
Y522737D02*
X374270Y521417D01*
X272860Y552580D02*
X276700Y548740D01*
X249256Y552580D02*
X272860D01*
X245416Y548740D02*
X249256Y552580D01*
X276700Y548740D02*
X433740D01*
X247089Y544700D02*
X250929Y548540D01*
X271187D01*
X275027Y544700D01*
X234583D02*
X247089D01*
X275027D02*
X383986D01*
X223138Y548740D02*
X245416D01*
X380833Y508086D02*
X381030D01*
X244720Y518003D02*
Y530904D01*
X398350Y527142D02*
X409580Y515912D01*
X398350Y527142D02*
Y530336D01*
X383986Y544700D02*
X398350Y530336D01*
X417880Y515912D02*
X467000Y565032D01*
X267840Y540460D02*
X271880Y536420D01*
X244720Y530904D02*
X254276Y540460D01*
X250080Y517649D02*
Y530550D01*
X255950Y536420D01*
X577328Y579420D02*
X604180D01*
X574680Y576772D02*
X577328Y579420D01*
X564100Y407400D02*
X572600Y415900D01*
X648650Y648550D02*
X652500Y652400D01*
X642000Y740400D02*
X646658Y745058D01*
X686700Y695727D02*
X731873Y740900D01*
X665145Y666900D02*
X665245Y667000D01*
X681700Y667100D02*
X691600Y677000D01*
Y694860D01*
X733600Y736860D01*
X720034Y747334D02*
X780883Y808183D01*
X730199Y744940D02*
X775140D01*
X731873Y740900D02*
X778800D01*
X720034Y746201D02*
Y747334D01*
X728526Y748980D02*
X767180D01*
X701700Y739450D02*
Y744300D01*
X780883Y808183D02*
X781670Y808718D01*
X787375Y811186D01*
X449400Y730200D02*
X463700Y715900D01*
X377000Y730200D02*
X449400D01*
X646916Y659984D02*
X647100Y659800D01*
X645516Y659984D02*
X646916D01*
X636100Y669400D02*
X645516Y659984D01*
X634620Y673920D02*
X642155Y681455D01*
X572200Y612200D02*
X572700D01*
X564430Y604430D02*
X572200Y612200D01*
X547688Y604430D02*
X564430D01*
X544624Y607494D02*
X547688Y604430D01*
X544094Y607494D02*
X544624D01*
X546900Y701400D02*
X582500D01*
X545324Y696025D02*
X547615D01*
X541770Y699580D02*
X545324Y696025D01*
X547615D02*
X549040Y694600D01*
X541510Y699580D02*
X541770D01*
X482820Y623317D02*
X483190Y623687D01*
X490900Y619970D02*
X491270Y620340D01*
X486860Y621643D02*
X487230Y622014D01*
X478320Y573180D02*
Y624530D01*
X479150Y625360D01*
X475110Y645316D02*
Y659570D01*
X479150Y625360D02*
Y661244D01*
X483190Y623687D02*
Y662917D01*
X467000Y637206D02*
X475110Y645316D01*
X478320Y662074D02*
Y689993D01*
X474280Y660400D02*
X475110Y659570D01*
X467000Y565032D02*
Y637206D01*
X409580Y515912D02*
X417880D01*
X218701Y528819D02*
X234583Y544700D01*
X218701Y526701D02*
Y528819D01*
X205600Y513600D02*
X218701Y526701D01*
X197492Y513600D02*
X205600D01*
X189810Y521282D02*
X197492Y513600D01*
X189810Y521282D02*
Y530190D01*
X175600Y544400D02*
X189810Y530190D01*
X20400Y544400D02*
X175600D01*
X15583Y512700D02*
X26017D01*
X36180Y522863D01*
Y530050D01*
X42050Y535920D01*
X50350D01*
X59007Y527263D01*
Y524323D02*
Y527263D01*
Y524323D02*
X67664Y515666D01*
X127119D01*
X137139Y525686D01*
X149030D01*
X478320Y662074D02*
X479150Y661244D01*
X457013Y662947D02*
X457013Y662947D01*
X457013Y662947D02*
Y700912D01*
X459200Y567500D02*
Y635120D01*
X465597Y641517D02*
Y642569D01*
X459200Y635120D02*
X465597Y641517D01*
Y642569D02*
Y643621D01*
X464211Y645007D02*
X464853Y644365D01*
X464853Y644365D02*
X465597Y643621D01*
X207960Y509560D02*
X215100Y516700D01*
X226303Y516380D02*
X243097D01*
X244720Y518003D01*
X254276Y540460D02*
X267840D01*
X225983Y516700D02*
X226303Y516380D01*
X215100Y516700D02*
X225983D01*
X199830Y525432D02*
X223138Y548740D01*
X433740D02*
X455160Y570160D01*
X264250Y536420D02*
X270120Y530550D01*
X255950Y536420D02*
X264250D01*
X185770Y519608D02*
Y528516D01*
X178366Y535920D02*
X185770Y528516D01*
X232237Y505520D02*
X239057Y512340D01*
X185770Y519608D02*
X195818Y509560D01*
X207960D01*
X194145Y505520D02*
X232237D01*
X174430Y525235D02*
Y525686D01*
Y525235D02*
X194145Y505520D01*
X56064Y535920D02*
X178366D01*
X46200Y525900D02*
X164700Y407400D01*
X32140Y531724D02*
X40376Y539960D01*
X20800Y525900D02*
X30652D01*
X32140Y527388D01*
Y531724D01*
X52024Y539960D02*
X56064Y535920D01*
X40376Y539960D02*
X52024D01*
X244771Y512340D02*
X250080Y517649D01*
X239057Y512340D02*
X244771D01*
X270120Y472080D02*
Y530550D01*
X260100Y469954D02*
Y526400D01*
X282554Y447500D02*
X565700D01*
X260100Y469954D02*
X282554Y447500D01*
X542501Y786400D02*
X577300D01*
X457013Y700912D02*
X542501Y786400D01*
X455160Y570160D02*
Y582375D01*
X420962Y529262D02*
X459200Y567500D01*
X454180Y583355D02*
X455160Y582375D01*
X454180Y583355D02*
Y596100D01*
X482820Y663287D02*
X483190Y662917D01*
X490900Y577740D02*
X535798Y532842D01*
X486860Y576067D02*
X531758Y531168D01*
X416966Y525932D02*
X420296Y529262D01*
X413730Y525932D02*
X416966D01*
X420296Y529262D02*
X420962D01*
X456000Y832000D02*
X538100D01*
X290380Y841980D02*
X539933D01*
X527607Y846020D02*
X541607D01*
X313400Y836300D02*
X539900D01*
X277160Y850060D02*
X543280D01*
X284320Y846020D02*
X527607D01*
X620100Y779100D02*
X634300D01*
X256500Y854100D02*
X545100D01*
X620100Y779100D01*
X623060Y783140D02*
X637260D01*
X546600Y859600D02*
X623060Y783140D01*
X254200Y859600D02*
X546600D01*
X948600Y806700D02*
Y809740D01*
X951500Y812640D01*
Y812900D01*
X948600Y806700D02*
X950800Y804500D01*
X675000Y667100D02*
X681700D01*
X674900Y667000D02*
X675000Y667100D01*
X478320Y573180D02*
X523678Y527822D01*
X482820Y574393D02*
X527718Y529495D01*
X827300Y695300D02*
X946800D01*
X805300Y673300D02*
X827300Y695300D01*
X946800D02*
X950800Y699300D01*
X917600Y440200D02*
X927400Y450000D01*
Y542540D01*
X938160Y553300D01*
Y686660D01*
X946800Y695300D01*
X950800Y699300D02*
Y804500D01*
X946400Y808900D02*
X948600Y806700D01*
X865140Y808900D02*
X946400D01*
X792640Y736400D02*
X865140Y808900D01*
X780900Y736400D02*
X792640D01*
X780440Y736860D02*
X780900Y736400D01*
X733600Y736860D02*
X780440D01*
X942200Y683392D02*
X955600Y696792D01*
X942200Y551402D02*
Y683392D01*
X933150Y542352D02*
X942200Y551402D01*
X955600Y800800D02*
X976700Y821900D01*
X955600Y696792D02*
Y800800D01*
X778800Y740900D02*
X859200Y821300D01*
X775140Y744940D02*
X833500Y803300D01*
X164700Y407400D02*
X564100D01*
X971000Y194400D02*
X971931Y193470D01*
Y183050D02*
Y193470D01*
Y183050D02*
X981310Y173671D01*
Y84729D02*
Y173671D01*
X975070Y78490D02*
X981310Y84729D01*
X966529Y78490D02*
X975070D01*
X933150Y111869D02*
X966529Y78490D01*
X933150Y111869D02*
Y542352D01*
X937190Y122410D02*
X970800Y88800D01*
X937190Y122410D02*
Y540678D01*
X967270Y570758D01*
X962630Y687508D02*
Y801069D01*
Y687508D02*
X967270Y682868D01*
Y570758D02*
Y682868D01*
X976700Y821900D02*
Y933000D01*
X933000Y976700D02*
X976700Y933000D01*
X962630Y801069D02*
X982000Y820439D01*
Y934000D01*
X934000Y982000D02*
X982000Y934000D01*
X987300Y322900D02*
Y935900D01*
X947500Y283100D02*
X987300Y322900D01*
X936100Y987100D02*
X987300Y935900D01*
X508137Y938812D02*
X510200Y935313D01*
X534455Y927416D02*
X537809Y928868D01*
X433754Y891890D02*
X504611D01*
X767180Y748980D02*
X811748Y793548D01*
X790083Y812858D02*
X791491D01*
X793853Y815219D01*
X585000Y618000D02*
X611563D01*
X532500Y664000D02*
X543700Y652800D01*
X797323Y818690D02*
Y821355D01*
X793853Y815219D02*
X797323Y818690D01*
X753371Y306914D02*
X756764D01*
X578794Y310534D02*
X749751D01*
X753371Y306914D01*
X563414Y325914D02*
X578794Y310534D01*
X578580Y233104D02*
X755574D01*
X563200Y248484D02*
X578580Y233104D01*
X755574D02*
X756764Y231914D01*
X749006Y286900D02*
X753992Y281914D01*
X577028Y286900D02*
X749006D01*
X563414Y300514D02*
X577028Y286900D01*
X753992Y281914D02*
X756764D01*
X755174Y258504D02*
X756764Y256914D01*
X579596Y258504D02*
X755174D01*
X563200Y274900D02*
X579596Y258504D01*
X394539Y820007D02*
X409293Y819700D01*
X409300Y819700D02*
X410044Y818956D01*
X409300Y819700D02*
X409300Y819700D01*
X360613Y820010D02*
X394300D01*
X296317Y812452D02*
X296317Y812118D01*
Y812118D02*
Y812118D01*
X296317Y812452D02*
X296317Y813504D01*
X254110Y816590D02*
X261556Y824036D01*
X276655Y805446D02*
X276971Y805130D01*
X276971Y805130D01*
X270829Y805130D02*
X271889Y806191D01*
X536810Y647100D02*
X588932D01*
X590932Y649100D02*
X591400D01*
X588932Y647100D02*
X590932Y649100D01*
X808400Y807209D02*
Y821300D01*
Y807209D02*
X811748Y803861D01*
Y793548D02*
Y803861D01*
X538987Y642500D02*
X591398D01*
X591402Y642496D01*
X529700Y601973D02*
Y603300D01*
X529560Y603440D02*
X529700Y603300D01*
X529560Y633073D02*
X538987Y642500D01*
X529700Y601973D02*
X535535Y596139D01*
X529560Y603440D02*
Y633073D01*
X536923Y596139D02*
X546082Y586980D01*
X660600Y669917D02*
Y670192D01*
X667823Y677415D01*
X540873Y632960D02*
X596485D01*
X533600Y605113D02*
Y631400D01*
X537640Y629727D02*
X540873Y632960D01*
X533600Y631400D02*
X539200Y637000D01*
X537640Y606787D02*
Y629727D01*
X652500Y652400D02*
X657980D01*
X833500Y821000D02*
X833800Y821300D01*
X833500Y803300D02*
Y821000D01*
X535535Y596139D02*
X536923D01*
X533600Y605113D02*
X533740Y604973D01*
Y603647D02*
Y604973D01*
X537640Y606787D02*
X540208Y604219D01*
X546390Y612400D02*
X555500D01*
X543393Y613022D02*
X545768D01*
X543018Y613397D02*
X543393Y613022D01*
X540208Y604219D02*
X540270D01*
X537208Y600179D02*
X538597D01*
X540270Y604219D02*
X545589Y598900D01*
X576900D01*
X545768Y613022D02*
X546390Y612400D01*
X533740Y603647D02*
X537208Y600179D01*
X635387Y610100D02*
X658110D01*
X632000Y619200D02*
X657855D01*
X555500Y612400D02*
X555700Y612200D01*
X657655Y666972D02*
X660600Y669917D01*
X657655Y666800D02*
Y666972D01*
X798075Y265975D02*
Y267361D01*
X792680Y267679D02*
X801208Y276207D01*
X768531Y388742D02*
X801208Y356065D01*
X797700Y265600D02*
X798075Y265975D01*
Y267361D02*
X805248Y274534D01*
X801208Y276207D02*
Y356065D01*
X591459Y388742D02*
X768531D01*
X805248Y274534D02*
Y357739D01*
X770204Y392782D02*
X805248Y357739D01*
X593132Y392782D02*
X770204D01*
X631600Y770600D02*
X636670Y765530D01*
X647330D01*
X650048Y768248D01*
Y770352D01*
X637260Y783140D02*
X650048Y770352D01*
X221660Y827060D02*
X254200Y859600D01*
X221660Y818037D02*
Y827060D01*
Y818037D02*
X221710Y817987D01*
Y803696D02*
Y817987D01*
Y803696D02*
X294708Y730698D01*
X314402D01*
X389800Y655300D01*
X642750Y770550D02*
Y770650D01*
X634300Y779100D02*
X642750Y770650D01*
X225700Y819711D02*
Y823300D01*
X256500Y854100D01*
X225750Y805369D02*
Y819661D01*
X225700Y819711D02*
X225750Y819661D01*
Y805369D02*
X236169Y794950D01*
X261400Y809300D02*
Y812693D01*
X265036Y816636D02*
X290380Y841980D01*
X261400Y812693D02*
X265036Y816329D01*
Y816636D01*
X302513Y819700D02*
X360303D01*
X236169Y794950D02*
X379550D01*
X296317Y813504D02*
X302513Y819700D01*
X360303D02*
X360613Y820010D01*
X379550Y794950D02*
X394300Y809700D01*
X236400Y809300D02*
X277160Y850060D01*
X277185Y838885D02*
X284320Y846020D01*
X271889Y806191D02*
X274858D01*
X274858D02*
X275911D01*
X410044Y818956D02*
X419300Y809700D01*
X275911Y806191D02*
X276654Y805447D01*
X261556Y824036D02*
X276405Y838885D01*
X444300Y809700D02*
Y820300D01*
X456000Y832000D01*
X59008Y812750D02*
X76073Y829815D01*
X51709Y805451D02*
X59008Y812750D01*
X46488Y805293D02*
X46488Y805293D01*
X33319Y816960D02*
X46488Y805293D01*
X33319Y816960D02*
X33319Y816960D01*
X27940Y816634D02*
X27940Y816634D01*
X28266Y811256D02*
X28266Y811256D01*
X40578Y800349D01*
X40578Y800349D02*
X40578Y800349D01*
X40903Y794971D02*
Y794971D01*
X40903D02*
X40903D01*
X35525Y794645D02*
X35525Y794645D01*
X23213Y805552D02*
X35525Y794645D01*
X23213Y805552D02*
X23213Y805552D01*
X17835Y805227D02*
X17835D01*
X17835Y805227D02*
X17835Y805227D01*
X18160Y799848D02*
X18160Y799848D01*
X35228Y784728D01*
X35228Y784728D02*
X35228Y784728D01*
X30175Y779024D02*
X30175Y779024D01*
X13107Y794144D02*
X30175Y779024D01*
X13107Y794144D02*
X13107Y794144D01*
X7729Y793819D02*
X7729D01*
X7729Y793819D02*
X7729Y793819D01*
X8054Y788441D02*
X8055Y788441D01*
X36796Y762979D01*
X38080Y755055D02*
Y760127D01*
Y748700D02*
Y755055D01*
X110560Y740850D02*
Y756100D01*
X114370Y737040D02*
X127495D01*
X110380Y729420D02*
X127495D01*
X110380Y721800D02*
X132150D01*
X88970Y714180D02*
X132150D01*
X88970Y706560D02*
X132150D01*
X113716Y698940D02*
X132150D01*
X113716Y691320D02*
X132150D01*
X114370Y683700D02*
X132150D01*
X110560Y671000D02*
Y679890D01*
Y756100D02*
Y783970D01*
Y621414D02*
Y671000D01*
X38080Y741730D02*
Y748700D01*
X41890Y737920D02*
X42128D01*
X16490Y730300D02*
X42128D01*
X16490Y722680D02*
X34270D01*
X38080Y717600D02*
Y718870D01*
Y680390D02*
Y717600D01*
X76073Y829815D02*
X80465D01*
X82750Y832100D01*
X38080Y680390D02*
X82750Y635720D01*
Y615400D02*
X82900Y615550D01*
X104696D01*
X110560Y621414D01*
X82750Y811780D02*
X110560Y783970D01*
X181276Y883176D02*
X187250Y889150D01*
X175888Y883176D02*
X175888Y883176D01*
X175474Y883589D02*
X175888Y883176D01*
X170086Y878201D02*
X178298Y869990D01*
X178297Y869990D02*
X178298Y869990D01*
X172909Y864602D02*
X172909Y864602D01*
X138918Y898594D02*
X172909Y864602D01*
X138918Y898594D02*
X138918Y898594D01*
X133529Y893205D02*
X133529Y893205D01*
X167521Y859214D01*
X167521Y859214D02*
X167521Y859214D01*
X162133Y853825D02*
X162133Y853826D01*
X128141Y887817D02*
X162133Y853826D01*
X128141Y887817D02*
X128141Y887817D01*
X122753Y882429D02*
X122753Y882429D01*
X156745Y848437D01*
X156745Y848437D02*
X156745Y848437D01*
X151357Y843049D02*
X151357Y843049D01*
X117365Y877041D02*
X151357Y843049D01*
X117365Y877041D02*
X117365Y877041D01*
X111977Y871653D02*
X111977Y871653D01*
X145969Y837661D01*
X145969Y837661D02*
X145969Y837661D01*
X140580Y832273D02*
X140580Y832273D01*
X115184Y857669D02*
X140580Y832273D01*
X115184Y857669D02*
X115184Y857669D01*
X109796Y852281D02*
X109796Y852281D01*
X127394Y834682D01*
X126496Y828396D02*
X127394Y829294D01*
X110030Y811930D02*
X126496Y828396D01*
X187250Y889150D02*
X218000Y919900D01*
X176590Y925920D02*
X201700D01*
X172780Y929730D02*
Y943518D01*
X165160Y904330D02*
Y943518D01*
X157540Y904330D02*
Y976821D01*
X149920Y904330D02*
Y976821D01*
X142300Y904330D02*
Y976821D01*
X134680Y929730D02*
Y976821D01*
X129600Y925920D02*
X130870D01*
X201700D02*
X213672D01*
X121774D02*
X129600D01*
X82750Y811780D02*
X82900Y811930D01*
X110030D01*
X218000Y919900D02*
X233740D01*
X72740Y876886D02*
X121774Y925920D01*
X72740Y842110D02*
Y876886D01*
Y842110D02*
X82750Y832100D01*
X213672Y925920D02*
X217662Y929910D01*
X244050D01*
X254060Y919900D01*
X286400Y809300D02*
X313400Y836300D01*
X239754Y892090D02*
X323500D01*
X374210D01*
X378020Y876578D02*
Y888280D01*
X385640Y876578D02*
Y892070D01*
X393260Y876578D02*
Y892070D01*
X400880Y876578D02*
Y917780D01*
X408500Y876578D02*
Y917780D01*
X416120Y876578D02*
Y915890D01*
X419930Y919700D02*
X421200D01*
X427740D01*
X233740Y898104D02*
X239754Y892090D01*
X233740Y898104D02*
Y919900D01*
X298730Y964570D02*
X315100D01*
X254060Y919900D02*
X298730Y964570D01*
X346010D02*
X365800D01*
X342200Y968380D02*
Y976217D01*
X334580Y968380D02*
Y976217D01*
X329500Y964570D02*
X330770D01*
X410096Y962056D02*
X426106Y946046D01*
X410096Y962056D02*
X410096Y962056D01*
X408980Y964750D02*
Y986160D01*
X401360Y968180D02*
Y986160D01*
X393740Y968180D02*
Y986160D01*
X386120Y962482D02*
Y986160D01*
X378500Y962482D02*
Y986160D01*
X370880Y968380D02*
Y986160D01*
X365800Y964570D02*
X367070D01*
X426106Y946046D02*
X426779Y945373D01*
X315100Y964570D02*
X315500D01*
X319700D01*
X329500D01*
X426779Y940981D02*
Y945373D01*
Y940981D02*
X448060Y919700D01*
X276405Y838885D02*
X277185D01*
X576900Y598900D02*
X585445Y607445D01*
X666690Y628200D02*
X668399Y626491D01*
X448060Y919700D02*
Y936960D01*
X427740Y897904D02*
Y919700D01*
Y897904D02*
X433754Y891890D01*
X613940Y918800D02*
X629680D01*
X835630Y929210D02*
X845640Y919200D01*
X809242Y929210D02*
X835630D01*
X845640Y919200D02*
X855650Y929210D01*
X890426D01*
X719960Y813840D02*
X825320Y919200D01*
X635694Y890990D02*
X781370D01*
X809580Y919200D01*
X629680Y897004D02*
Y918800D01*
X809580Y919200D02*
X825320D01*
X629680Y897004D02*
X635694Y890990D01*
X809901Y866201D02*
X814350Y870650D01*
X806309Y866201D02*
X806309Y866201D01*
X804772Y867737D02*
X806309Y866201D01*
X804772Y867737D02*
X804772Y867737D01*
X801180D02*
X801180Y867737D01*
X801180Y864145D02*
X801180Y864145D01*
X813510Y851815D01*
X813510Y851815D02*
X813510Y851815D01*
Y848223D02*
X813510Y848223D01*
X809918Y848223D02*
X809918Y848223D01*
X797531Y860610D02*
X809918Y848223D01*
X797531Y860610D02*
X797531Y860610D01*
X793939Y857018D02*
X793939Y857018D01*
X806326Y844631D01*
X806326Y844631D02*
X806326Y844631D01*
Y841039D02*
X806326Y841039D01*
X802734Y841039D02*
X802734Y841039D01*
X790289Y853483D02*
X802734Y841039D01*
X790289Y853483D02*
X790289Y853483D01*
X786697D02*
X786697Y853483D01*
X786697Y849891D02*
X786697Y849891D01*
X788348Y848240D01*
X787450Y843750D02*
X788348Y844648D01*
X814350Y870650D02*
X830967Y887267D01*
X787982Y860444D02*
X788887Y861335D01*
X774121Y846803D02*
X787982Y860444D01*
X774092Y843211D02*
X775694Y841583D01*
X775665Y837991D02*
X775665D01*
X762862Y847379D02*
X772073Y838019D01*
X762862Y847379D02*
X762862Y847379D01*
X759270Y847408D02*
Y847408D01*
X759270Y847408D02*
X759270D01*
X759241Y843816D02*
X759241Y843816D01*
X768650Y834256D01*
X768650Y834255D02*
X768650Y834256D01*
X768621Y830664D02*
X768621D01*
X768621Y830664D01*
X765029Y830692D02*
X765029Y830692D01*
X755678Y840195D02*
X765029Y830692D01*
X755677Y840195D02*
X755678Y840195D01*
X752085Y840223D02*
Y840223D01*
X752057Y836631D02*
X752057Y836631D01*
X761466Y827071D01*
X761466Y827071D02*
X761466Y827071D01*
X761437Y823479D02*
X761437D01*
X757845Y823508D02*
X757845Y823508D01*
X748493Y833010D02*
X757845Y823508D01*
X748493Y833010D02*
X748493Y833010D01*
X744901Y833039D02*
X744901D01*
X744872Y829447D02*
X744872Y829447D01*
X754281Y819887D01*
X754281Y819887D02*
X754281Y819887D01*
X750660Y816323D02*
X750661Y816323D01*
X741309Y825826D02*
X750661Y816323D01*
X741309Y825826D02*
X741309Y825826D01*
X737717Y825854D02*
X737717Y825854D01*
X737688Y822262D02*
X737688Y822263D01*
X747097Y812702D01*
X747097Y812702D02*
X747097Y812702D01*
X747068Y809110D02*
X747068D01*
X743476Y809139D02*
X743476Y809139D01*
X734124Y818641D02*
X743476Y809139D01*
X734124Y818641D02*
X734124Y818641D01*
X730503Y815078D02*
X730503Y815078D01*
X734322Y811198D01*
X734322Y811198D02*
X734322Y811198D01*
X734293Y807606D02*
X734293Y807606D01*
X733388Y806715D02*
X734293Y807606D01*
X788887Y861335D02*
X819341Y891307D01*
X845707D01*
X830967Y887267D02*
X878532D01*
X797714Y826714D02*
X798420Y827420D01*
X797714Y824541D02*
X797714Y826714D01*
X798420Y827420D02*
X854227Y883227D01*
X797709Y824184D02*
X797709D01*
X854227Y883227D02*
X892423D01*
X878532Y887267D02*
X886130Y894865D01*
X892423Y883227D02*
X906450Y897254D01*
X845707Y891307D02*
X855800Y901400D01*
X886130Y894865D02*
Y905535D01*
X886130Y919146D02*
X886280Y919200D01*
X886130Y919146D02*
X886130Y905535D01*
X890426Y929210D02*
X906450Y913186D01*
Y897254D02*
Y913186D01*
X665245Y667000D02*
X674900D01*
X666600Y637500D02*
X668030Y636070D01*
X666600Y637500D02*
Y637800D01*
X666620Y652400D02*
X666820Y652200D01*
X675500D01*
X675700Y652000D01*
D179*
X882651Y580178D02*
G03*
X885578Y580178I1464J1464D01*
G01*
X866942Y595886D02*
G03*
X864015Y595886I-1464J-1464D01*
G01*
X864015Y595886D02*
G03*
X864015Y592959I1464J-1464D01*
G01*
X880294Y573752D02*
G03*
X880294Y576680I-1464J1464D01*
G01*
X877366Y573752D02*
G03*
X880294Y573752I1464J1464D01*
G01*
X873310Y577809D02*
G03*
X870382Y577809I-1464J-1464D01*
G01*
X870382Y577809D02*
G03*
X870382Y574882I1464J-1464D01*
G01*
X873868Y568468D02*
G03*
X873868Y571396I-1464J1464D01*
G01*
X861743Y565956D02*
G03*
X863207Y565350I1464J1464D01*
G01*
X853763Y573936D02*
G03*
X850836Y573936I-1464J-1464D01*
G01*
X850835Y573936D02*
G03*
X850835Y571009I1464J-1464D01*
G01*
X853466Y565451D02*
G03*
X853466Y568378I-1464J1464D01*
G01*
X850539Y565451D02*
G03*
X853466Y565451I1464J1464D01*
G01*
X842053Y573936D02*
G03*
X839126Y573936I-1464J-1464D01*
G01*
X839126Y573936D02*
G03*
X839126Y571009I1464J-1464D01*
G01*
X847612Y559596D02*
G03*
X847612Y562523I-1464J1464D01*
G01*
X844684Y559596D02*
G03*
X847612Y559596I1464J1464D01*
G01*
X836115Y568165D02*
G03*
X833187Y568165I-1464J-1464D01*
G01*
X833187Y568165D02*
G03*
X833187Y565238I1464J-1464D01*
G01*
X841757Y553741D02*
G03*
X841757Y556668I-1464J1464D01*
G01*
X838829Y553741D02*
G03*
X841757Y553741I1464J1464D01*
G01*
X830260Y562310D02*
G03*
X827333Y562310I-1464J-1464D01*
G01*
X827333Y562310D02*
G03*
X827333Y559383I1464J-1464D01*
G01*
X835902Y547886D02*
G03*
X835902Y550813I-1464J1464D01*
G01*
X832975Y547886D02*
G03*
X835902Y547886I1464J1464D01*
G01*
X824405Y556455D02*
G03*
X821478Y556455I-1464J-1464D01*
G01*
X821478Y556455D02*
G03*
X821478Y553528I1464J-1464D01*
G01*
X830047Y542031D02*
G03*
X830047Y544958I-1464J1464D01*
G01*
X827120Y542031D02*
G03*
X830047Y542031I1464J1464D01*
G01*
X818550Y550600D02*
G03*
X815623Y550600I-1464J-1464D01*
G01*
X815623Y550600D02*
G03*
X815623Y547673I1464J-1464D01*
G01*
X819284Y541085D02*
G03*
X819284Y544012I-1464J1464D01*
G01*
X816356Y541085D02*
G03*
X819284Y541085I1464J1464D01*
G01*
X812696Y544746D02*
G03*
X809768Y544746I-1464J-1464D01*
G01*
X809768Y544746D02*
G03*
X809768Y541818I1464J-1464D01*
G01*
X812786Y535873D02*
G03*
X812786Y538801I-1464J1464D01*
G01*
X809858Y535873D02*
G03*
X812786Y535873I1464J1464D01*
G01*
X806841Y538891D02*
G03*
X803913Y538891I-1464J-1464D01*
G01*
X803913Y538891D02*
G03*
X803913Y535963I1464J-1464D01*
G01*
X808033Y528917D02*
G03*
X808033Y531844I-1464J1464D01*
G01*
X805105Y528917D02*
G03*
X808033Y528917I1464J1464D01*
G01*
X800986Y533036D02*
G03*
X798058Y533036I-1464J-1464D01*
G01*
X798058Y533036D02*
G03*
X798058Y530108I1464J-1464D01*
G01*
X802178Y523062D02*
G03*
X802178Y525989I-1464J1464D01*
G01*
X799250Y523062D02*
G03*
X802178Y523062I1464J1464D01*
G01*
X795131Y527181D02*
G03*
X792204Y527181I-1464J-1464D01*
G01*
X792204Y527181D02*
G03*
X792204Y524254I1464J-1464D01*
G01*
X796323Y517207D02*
G03*
X796323Y520134I-1464J1464D01*
G01*
X793395Y517207D02*
G03*
X796323Y517207I1464J1464D01*
G01*
X789276Y521326D02*
G03*
X786349Y521326I-1464J-1464D01*
G01*
X786349Y521326D02*
G03*
X786349Y518399I1464J-1464D01*
G01*
X788310Y513510D02*
G03*
X788310Y516437I-1464J1464D01*
G01*
X814927Y559054D02*
G03*
X817855Y559054I1464J1464D01*
G01*
X813559Y560423D02*
G03*
X810632Y560423I-1464J-1464D01*
G01*
X810632Y560423D02*
G03*
X810632Y557495I1464J-1464D01*
G01*
X812000Y553200D02*
G03*
X812000Y556127I-1464J1464D01*
G01*
X809072Y553200D02*
G03*
X812000Y553200I1464J1464D01*
G01*
X806111Y556161D02*
G03*
X803184Y556161I-1464J-1464D01*
G01*
X803184Y556161D02*
G03*
X803184Y553233I1464J-1464D01*
G01*
X806145Y547345D02*
G03*
X806145Y550272I-1464J1464D01*
G01*
X803217Y547345D02*
G03*
X806145Y547345I1464J1464D01*
G01*
X800256Y550306D02*
G03*
X797329Y550306I-1464J-1464D01*
G01*
X797329Y550306D02*
G03*
X797329Y547379I1464J-1464D01*
G01*
X800290Y541490D02*
G03*
X800290Y544417I-1464J1464D01*
G01*
X797363Y541490D02*
G03*
X800290Y541490I1464J1464D01*
G01*
X794401Y544451D02*
G03*
X791474Y544451I-1464J-1464D01*
G01*
X791474Y544451D02*
G03*
X791474Y541524I1464J-1464D01*
G01*
X794435Y535635D02*
G03*
X794435Y538563I-1464J1464D01*
G01*
X791508Y535635D02*
G03*
X794435Y535635I1464J1464D01*
G01*
X788546Y538596D02*
G03*
X785619Y538596I-1464J-1464D01*
G01*
X785619Y538596D02*
G03*
X785619Y535669I1464J-1464D01*
G01*
X788580Y529780D02*
G03*
X788580Y532708I-1464J1464D01*
G01*
X785653Y529780D02*
G03*
X788580Y529780I1464J1464D01*
G01*
X782691Y532742D02*
G03*
X779764Y532742I-1464J-1464D01*
G01*
X779764Y532742D02*
G03*
X779764Y529814I1464J-1464D01*
G01*
X782725Y523925D02*
G03*
X782725Y526853I-1464J1464D01*
G01*
X779798Y523925D02*
G03*
X782725Y523925I1464J1464D01*
G01*
X776837Y526887D02*
G03*
X773909Y526887I-1464J-1464D01*
G01*
X773909Y526887D02*
G03*
X773909Y523959I1464J-1464D01*
G01*
X781759Y513182D02*
G03*
X781759Y516109I-1464J1464D01*
G01*
X778832Y513182D02*
G03*
X781759Y513182I1464J1464D01*
G01*
X770982Y521032D02*
G03*
X768055Y521032I-1464J-1464D01*
G01*
X768054Y521032D02*
G03*
X768054Y518105I1464J-1464D01*
G01*
X771016Y512216D02*
G03*
X771016Y515143I-1464J1464D01*
G01*
X610867Y514133D02*
G03*
X607940Y514133I-1464J-1464D01*
G01*
X601944Y511064D02*
G03*
X604871Y511064I1464J1464D01*
G01*
X601944Y513991D02*
G03*
X601944Y511064I1464J-1464D01*
G01*
X607001Y519049D02*
G03*
X607001Y521976I-1464J1464D01*
G01*
X607001Y521976D02*
G03*
X604074Y521976I-1464J-1464D01*
G01*
X591996Y512826D02*
G03*
X594924Y512826I1464J1464D01*
G01*
X591996Y515754D02*
G03*
X591996Y512826I1464J-1464D01*
G01*
X601146Y524904D02*
G03*
X601146Y527831I-1464J1464D01*
G01*
X601146Y527831D02*
G03*
X598219Y527831I-1464J-1464D01*
G01*
X586142Y518681D02*
G03*
X589069Y518681I1464J1464D01*
G01*
X586142Y521608D02*
G03*
X586142Y518681I1464J-1464D01*
G01*
X595292Y530758D02*
G03*
X595292Y533686I-1464J1464D01*
G01*
X595292Y533686D02*
G03*
X592364Y533686I-1464J-1464D01*
G01*
X580287Y524536D02*
G03*
X583214Y524536I1464J1464D01*
G01*
X580287Y527463D02*
G03*
X580287Y524536I1464J-1464D01*
G01*
X589437Y536613D02*
G03*
X589437Y539541I-1464J1464D01*
G01*
X589437Y539541D02*
G03*
X586509Y539541I-1464J-1464D01*
G01*
X574432Y530391D02*
G03*
X577359Y530391I1464J1464D01*
G01*
X574432Y533318D02*
G03*
X574432Y530391I1464J-1464D01*
G01*
X581593Y540479D02*
G03*
X581593Y543407I-1464J1464D01*
G01*
X507512Y580988D02*
G03*
X510439Y580988I1464J1464D01*
G01*
X524515Y592137D02*
G03*
X521588Y592137I-1464J-1464D01*
G01*
X524515Y589209D02*
G03*
X524515Y592137I-1464J1464D01*
G01*
X513259Y577953D02*
G03*
X513259Y575025I1464J-1464D01*
G01*
X513259Y575025D02*
G03*
X516186Y575025I1464J1464D01*
G01*
X536051Y591962D02*
G03*
X533123Y591962I-1464J-1464D01*
G01*
X536051Y589035D02*
G03*
X536051Y591962I-1464J1464D01*
G01*
X519114Y572098D02*
G03*
X519114Y569170I1464J-1464D01*
G01*
X519114Y569170D02*
G03*
X522041Y569170I1464J1464D01*
G01*
X541906Y586107D02*
G03*
X538978Y586107I-1464J-1464D01*
G01*
X541906Y583180D02*
G03*
X541906Y586107I-1464J1464D01*
G01*
X525076Y566351D02*
G03*
X525076Y563424I1464J-1464D01*
G01*
X553694Y541856D02*
G03*
X554300Y543320I-1464J1464D01*
G01*
X546175Y534337D02*
G03*
X546175Y531409I1464J-1464D01*
G01*
X546175Y531409D02*
G03*
X549102Y531409I1464J1464D01*
G01*
X559436Y538816D02*
G03*
X556509Y538816I-1464J-1464D01*
G01*
X559436Y535889D02*
G03*
X559436Y538816I-1464J1464D01*
G01*
X552029Y528482D02*
G03*
X552029Y525555I1464J-1464D01*
G01*
X552029Y525555D02*
G03*
X554957Y525555I1464J1464D01*
G01*
X563273Y530943D02*
G03*
X560345Y530943I-1464J-1464D01*
G01*
X563273Y528016D02*
G03*
X563273Y530943I-1464J1464D01*
G01*
X557884Y522627D02*
G03*
X557884Y519700I1464J-1464D01*
G01*
X557884Y519700D02*
G03*
X560812Y519700I1464J1464D01*
G01*
X569128Y525088D02*
G03*
X566200Y525088I-1464J-1464D01*
G01*
X569128Y522161D02*
G03*
X569128Y525088I-1464J1464D01*
G01*
X563739Y516772D02*
G03*
X563739Y513845I1464J-1464D01*
G01*
X563739Y513845D02*
G03*
X566667Y513845I1464J1464D01*
G01*
X574982Y519233D02*
G03*
X572055Y519233I-1464J-1464D01*
G01*
X574982Y516306D02*
G03*
X574982Y519233I-1464J1464D01*
G01*
X569594Y510917D02*
G03*
X569594Y507990I1464J-1464D01*
G01*
X569594Y507990D02*
G03*
X572521Y507990I1464J1464D01*
G01*
X580837Y513379D02*
G03*
X577910Y513379I-1464J-1464D01*
G01*
X580837Y510451D02*
G03*
X580837Y513379I-1464J1464D01*
G01*
X575449Y505063D02*
G03*
X575449Y502135I1464J-1464D01*
G01*
X575449Y502135D02*
G03*
X578376Y502135I1464J1464D01*
G01*
X586634Y507466D02*
G03*
X583707Y507466I-1464J-1464D01*
G01*
X686210Y511670D02*
G03*
X688280Y509600I2070J0D01*
G01*
X686210Y515145D02*
G03*
X682070Y515145I-2070J0D01*
G01*
X677930Y511670D02*
G03*
X682070Y511670I2070J0D01*
G01*
X677930Y521130D02*
G03*
X673790Y521130I-2070J0D01*
G01*
X669650Y511670D02*
G03*
X673790Y511670I2070J0D01*
G01*
X669650Y521130D02*
G03*
X665510Y521130I-2070J0D01*
G01*
X661370Y511670D02*
G03*
X665510Y511670I2070J0D01*
G01*
X661370Y521130D02*
G03*
X657230Y521130I-2070J0D01*
G01*
X653090Y511670D02*
G03*
X657230Y511670I2070J0D01*
G01*
X653090Y521130D02*
G03*
X648950Y521130I-2070J0D01*
G01*
X644810Y511670D02*
G03*
X648950Y511670I2070J0D01*
G01*
X644810Y521130D02*
G03*
X640670Y521130I-2070J0D01*
G01*
X638600Y509600D02*
G03*
X640670Y511670I0J2070D01*
G01*
X637470Y529670D02*
G03*
X639540Y527600I2070J0D01*
G01*
X637470Y546464D02*
G03*
X633330Y546464I-2070J0D01*
G01*
X629190Y516070D02*
G03*
X633330Y516070I2070J0D01*
G01*
X629190Y546464D02*
G03*
X625050Y546464I-2070J0D01*
G01*
X620910Y516070D02*
G03*
X625050Y516070I2070J0D01*
G01*
X620910Y546464D02*
G03*
X616770Y546464I-2070J0D01*
G01*
X614700Y527600D02*
G03*
X616770Y529670I0J2070D01*
G01*
X676230Y493830D02*
G03*
X674160Y495900I-2070J0D01*
G01*
X676230Y487769D02*
G03*
X680370Y487769I2070J0D01*
G01*
X684510Y493830D02*
G03*
X680370Y493830I-2070J0D01*
G01*
X684510Y470030D02*
G03*
X688650Y470030I2070J0D01*
G01*
X692790Y493830D02*
G03*
X688650Y493830I-2070J0D01*
G01*
X692790Y470030D02*
G03*
X696930Y470030I2070J0D01*
G01*
X699000Y495900D02*
G03*
X696930Y493830I0J-2070D01*
G01*
X728450Y516070D02*
G03*
X730520Y514000I2070J0D01*
G01*
X728450Y539870D02*
G03*
X724310Y539870I-2070J0D01*
G01*
X720170Y516070D02*
G03*
X724310Y516070I2070J0D01*
G01*
X720170Y539870D02*
G03*
X716030Y539870I-2070J0D01*
G01*
X711890Y516070D02*
G03*
X716030Y516070I2070J0D01*
G01*
X711890Y539870D02*
G03*
X707750Y539870I-2070J0D01*
G01*
X703610Y516070D02*
G03*
X707750Y516070I2070J0D01*
G01*
X703610Y539870D02*
G03*
X699470Y539870I-2070J0D01*
G01*
X697400Y514000D02*
G03*
X699470Y516070I0J2070D01*
G01*
X500700Y587800D02*
X504725Y583775D01*
X500700Y587800D02*
Y639100D01*
X496100Y649100D02*
X500500Y653500D01*
X496100Y577589D02*
X539368Y534321D01*
X496100Y577589D02*
Y649100D01*
X582117Y549301D02*
Y549317D01*
Y549301D02*
X585397Y546021D01*
Y544890D02*
X587040Y543247D01*
X585397Y544890D02*
Y546021D01*
X836000Y612300D02*
X836200Y612500D01*
X893100D01*
X876880Y623800D02*
X877542Y624463D01*
X889737D01*
X863900Y623800D02*
X876880D01*
X831562Y577761D02*
Y578662D01*
X835700Y582800D01*
X827956Y574155D02*
X831562Y577761D01*
X827956Y571529D02*
Y574155D01*
X822150Y565723D02*
X827956Y571529D01*
X900700Y589775D02*
Y611300D01*
X889025Y578100D02*
X900700Y589775D01*
X873176Y562250D02*
X889025Y578100D01*
X835450Y594650D02*
Y602000D01*
X754800Y514000D02*
X835450Y594650D01*
X885578Y580178D02*
X891050Y585650D01*
X866942Y595886D02*
X882651Y580178D01*
X866942Y595886D02*
X866942Y595886D01*
X864015Y595886D02*
X864015Y595886D01*
X864015Y592959D02*
X864015Y592959D01*
X880294Y576680D01*
X880294Y576680D02*
X880294Y576680D01*
X880294Y573752D02*
X880294Y573752D01*
X877366Y573752D02*
X877366Y573752D01*
X873310Y577809D02*
X877366Y573752D01*
X873310Y577809D02*
X873310Y577809D01*
X870382Y577809D02*
X870382Y577809D01*
X870382Y574882D02*
X870382Y574882D01*
X873868Y571396D01*
X873868Y571396D02*
X873868Y571396D01*
X870750Y565350D02*
X873868Y568468D01*
X863207Y565350D02*
X870750D01*
X853763Y573936D02*
X861743Y565956D01*
X853763Y573936D02*
X853763Y573936D01*
X850835Y573936D02*
X850836Y573936D01*
X850835Y571009D02*
X850835Y571009D01*
X853466Y568378D01*
X853466Y568378D02*
X853466Y568378D01*
X850539Y565451D02*
X850539Y565451D01*
X842053Y573936D02*
X850539Y565451D01*
X842053Y573936D02*
X842053Y573936D01*
X839126Y573936D02*
X839126Y573936D01*
X839126Y571009D02*
X839126Y571009D01*
X847612Y562523D01*
X847612Y562523D02*
X847612Y562523D01*
X847612Y559596D02*
X847612Y559596D01*
X844684Y559596D02*
X844684Y559596D01*
X836115Y568165D02*
X844684Y559596D01*
X836115Y568165D02*
X836115Y568165D01*
X833187Y568165D02*
X833187Y568165D01*
X833187Y565238D02*
X833187Y565238D01*
X841757Y556668D01*
X841757Y556668D02*
X841757Y556668D01*
X838829Y553741D02*
X838829Y553741D01*
X830260Y562310D02*
X838829Y553741D01*
X830260Y562310D02*
X830260Y562310D01*
X827333Y562310D02*
X827333Y562310D01*
X827333Y559383D02*
X827333Y559383D01*
X835902Y550813D01*
X835902Y550813D02*
X835902Y550813D01*
X835902Y547886D02*
X835902Y547886D01*
X832974Y547886D02*
X832975Y547886D01*
X824405Y556455D02*
X832975Y547886D01*
X824405Y556455D02*
X824405Y556455D01*
X821478Y556455D02*
X821478Y556455D01*
X821478Y553528D02*
X821478Y553528D01*
X830047Y544958D01*
X830047Y544958D02*
X830047Y544958D01*
X827120Y542031D02*
X827120Y542031D01*
X818550Y550600D02*
X827120Y542031D01*
X818550Y550600D02*
X818550Y550600D01*
X815623Y550600D02*
X815623Y550600D01*
X815623Y547673D02*
X815623Y547673D01*
X819284Y544012D01*
X819284Y544012D02*
X819284Y544012D01*
X819284Y541085D02*
X819284Y541085D01*
X816356Y541085D02*
X816356Y541085D01*
X812696Y544746D02*
X816356Y541085D01*
X812696Y544746D02*
X812696Y544746D01*
X809768Y544746D02*
X809768Y544746D01*
X809768Y541818D02*
X809768Y541818D01*
X812786Y538801D01*
X812786Y538801D02*
X812786Y538801D01*
X809858Y535873D02*
X809858Y535873D01*
X806841Y538891D02*
X809858Y535873D01*
X806841Y538891D02*
X806841Y538891D01*
X803913Y538891D02*
X803913Y538891D01*
X803913Y535963D02*
X803913Y535963D01*
X808033Y531844D01*
X808033Y531844D02*
X808033Y531844D01*
X808033Y528917D02*
X808033Y528917D01*
X805105Y528917D02*
X805105Y528917D01*
X800986Y533036D02*
X805105Y528917D01*
X800986Y533036D02*
X800986Y533036D01*
X798058Y533036D02*
X798058Y533036D01*
X798058Y530108D02*
X798058Y530108D01*
X802178Y525989D01*
X802178Y525989D02*
X802178Y525989D01*
X799250Y523062D02*
X799250Y523062D01*
X795131Y527181D02*
X799250Y523062D01*
X795131Y527181D02*
X795131Y527181D01*
X792204Y527181D02*
X792204Y527181D01*
X792204Y524254D02*
X792204Y524254D01*
X796323Y520134D01*
X796323Y520134D02*
X796323Y520134D01*
X796323Y517207D02*
X796323Y517207D01*
X793395Y517207D02*
X793395Y517207D01*
X789276Y521326D02*
X793395Y517207D01*
X789276Y521326D02*
X789276Y521326D01*
X786349Y521326D02*
X786349Y521326D01*
X786349Y518399D02*
X786349Y518399D01*
X788310Y516437D01*
X788310Y516437D02*
X788310Y516437D01*
X787744Y512944D02*
X788310Y513510D01*
X891050Y585650D02*
X896837Y591437D01*
X780000Y505200D02*
X787744Y512944D01*
X898084Y557700D02*
X912030Y543754D01*
X818073Y525321D02*
X897490D01*
X912030Y539861D01*
Y543754D01*
X823921Y531521D02*
X854650Y562250D01*
X815021Y531521D02*
X823921D01*
X863600Y557700D02*
X898084D01*
X788652Y495900D02*
X818073Y525321D01*
X854650Y562250D02*
X873176D01*
X863600Y546700D02*
X904700D01*
X822150Y563350D02*
Y565723D01*
X893100Y612500D02*
X896837Y608763D01*
X817855Y559054D02*
X822150Y563350D01*
X813559Y560423D02*
X814927Y559054D01*
X813559Y560423D02*
X813559Y560423D01*
X810632Y560423D02*
X810632Y560423D01*
X810632Y557495D02*
X810632Y557495D01*
X812000Y556127D01*
X812000Y556127D02*
X812000Y556127D01*
X812000Y553200D02*
X812000Y553200D01*
X809072Y553200D02*
X809072Y553200D01*
X806111Y556161D02*
X809072Y553200D01*
X806111Y556161D02*
X806111Y556161D01*
X803184Y556161D02*
X803184Y556161D01*
X803184Y553233D02*
X803184Y553233D01*
X806145Y550272D01*
X806145Y550272D02*
X806145Y550272D01*
X803217Y547345D02*
X803217Y547345D01*
X800256Y550306D02*
X803217Y547345D01*
X800256Y550306D02*
X800256Y550306D01*
X797329Y550306D02*
X797329Y550306D01*
X797329Y547379D02*
X797329Y547379D01*
X800290Y544417D01*
X800290Y544417D02*
X800290Y544417D01*
X800290Y541490D02*
X800290Y541490D01*
X797363Y541490D02*
X797363Y541490D01*
X794401Y544451D02*
X797363Y541490D01*
X794401Y544451D02*
X794401Y544451D01*
X791474Y544451D02*
X791474Y544451D01*
X791474Y541524D02*
X791474Y541524D01*
X794435Y538563D01*
X794435Y538563D02*
X794435Y538563D01*
X791508Y535635D02*
X791508Y535635D01*
X788546Y538596D02*
X791508Y535635D01*
X788546Y538596D02*
X788546Y538596D01*
X785619Y538596D02*
X785619Y538596D01*
X785619Y535669D02*
X785619Y535669D01*
X788580Y532708D01*
X788580Y532708D02*
X788580Y532708D01*
X788580Y529780D02*
X788580Y529780D01*
X785653Y529780D02*
X785653Y529780D01*
X782692Y532742D02*
X785653Y529780D01*
X782691Y532742D02*
X782692Y532742D01*
X779764Y532742D02*
X779764Y532742D01*
X779764Y529814D02*
X779764Y529814D01*
X782725Y526853D01*
X782725Y526853D02*
X782725Y526853D01*
X779798Y523925D02*
X779798Y523925D01*
X776837Y526887D02*
X779798Y523925D01*
X776837Y526887D02*
X776837Y526887D01*
X773909Y526887D02*
X773909Y526887D01*
X773909Y523959D02*
X773909Y523959D01*
X781759Y516109D01*
X781759Y516109D02*
X781759Y516109D01*
X781759Y513182D02*
X781759Y513182D01*
X778832Y513182D02*
X778832Y513182D01*
X770982Y521032D02*
X778832Y513182D01*
X770982Y521032D02*
X770982Y521032D01*
X768054Y521032D02*
X768055Y521032D01*
X768054Y518105D02*
X768054Y518105D01*
X771016Y515143D01*
X771016Y515143D02*
X771016Y515143D01*
X770450Y511650D02*
X771016Y512216D01*
X542468Y530732D02*
X574771Y498429D01*
X573487Y495329D02*
X588711D01*
X539368Y529448D02*
X573487Y495329D01*
X574771Y498429D02*
X593444D01*
X539368Y529448D02*
Y534321D01*
X542468Y530732D02*
Y546032D01*
X659333Y492117D02*
X666216Y499000D01*
X593444Y498429D02*
X599756Y492117D01*
X591319Y509120D02*
X591521D01*
X588711Y495329D02*
X595023Y489017D01*
X594728Y501529D02*
X601040Y495217D01*
X564000Y536438D02*
Y551000D01*
X592571Y501529D02*
X594728D01*
X587200Y506900D02*
X592571Y501529D01*
X564000Y536438D02*
X591319Y509120D01*
X595023Y489017D02*
X660617D01*
X667500Y495900D01*
X599756Y492117D02*
X659333D01*
X591521Y509120D02*
X602324Y498317D01*
X601040Y495217D02*
X605462D01*
X787368Y499000D02*
X816789Y528421D01*
X602324Y498317D02*
X604178D01*
X576945Y546900D02*
X578100D01*
X591953Y543247D02*
X607600Y527600D01*
X572928Y550918D02*
X576945Y546900D01*
X587040Y543247D02*
X591953D01*
X607600Y527600D02*
X613900D01*
X528570Y559930D02*
X542468Y546032D01*
X908737Y541337D02*
Y542663D01*
X904700Y546700D02*
X908737Y542663D01*
X895822Y528421D02*
X908737Y541337D01*
X610867Y514133D02*
X613134Y511866D01*
X610867Y514133D02*
X610867Y514133D01*
X604871Y511064D02*
X607940Y514133D01*
X601944Y511064D02*
X601944Y511064D01*
X601944Y511064D02*
X601944Y511064D01*
X601944D02*
X601944Y511064D01*
Y513991D02*
Y513991D01*
X607001Y519049D01*
X607001Y521976D02*
X607001Y521976D01*
X604074D02*
Y521976D01*
X594924Y512826D02*
X604074Y521976D01*
X591996Y515754D02*
Y515754D01*
X601146Y524904D01*
X601146Y527831D02*
X601146Y527831D01*
X598219D02*
Y527831D01*
X589069Y518681D02*
X598219Y527831D01*
X586142Y518681D02*
X586142Y518681D01*
X586142Y518681D02*
X586142Y518681D01*
X586142D02*
X586142Y518681D01*
Y521608D02*
Y521608D01*
X595292Y530758D01*
X595292Y533686D02*
X595292Y533686D01*
X592364D02*
Y533686D01*
X583214Y524536D02*
X592364Y533686D01*
X580287Y527463D02*
Y527463D01*
X589437Y536613D01*
X589437Y539541D02*
X589437Y539541D01*
X586509D02*
Y539541D01*
X577359Y530391D02*
X586509Y539541D01*
X574432Y530391D02*
X574432Y530391D01*
X574432Y530391D02*
X574432Y530391D01*
X574432D02*
X574432Y530391D01*
Y533318D02*
Y533318D01*
X581593Y540479D01*
X581593Y543407D02*
X581593Y543407D01*
X578100Y546900D02*
X581593Y543407D01*
X615400Y509600D02*
X637800D01*
X613134Y511866D02*
X615400Y509600D01*
X656798Y498350D02*
X663648Y505200D01*
X604178Y498317D02*
X604210Y498350D01*
X658082Y495250D02*
X664932Y502100D01*
X605494Y495250D02*
X658082D01*
X604210Y498350D02*
X656798D01*
X605462Y495217D02*
X605494Y495250D01*
X504725Y583775D02*
X507512Y580988D01*
X510439D02*
X521588Y592137D01*
X524515Y592137D02*
X524515Y592137D01*
X513259Y577953D02*
X524515Y589209D01*
X513259Y577953D02*
Y577953D01*
X513259Y575025D02*
X513259Y575025D01*
X513259Y575025D01*
X513259Y575025D02*
X513259Y575025D01*
X516186D02*
X533123Y591962D01*
Y591962D02*
Y591962D01*
X519114Y572098D02*
X536051Y589035D01*
X519114Y572098D02*
Y572098D01*
X519114Y569170D02*
X519114Y569170D01*
X519114Y569170D01*
X519114Y569170D02*
X519114Y569170D01*
X522041D02*
X538978Y586107D01*
Y586107D02*
Y586107D01*
X541906D02*
X541906Y586107D01*
X525076Y566351D02*
X541906Y583180D01*
X525076Y563424D02*
X528570Y559930D01*
X663648Y505200D02*
X780000D01*
X664932Y502100D02*
X785600D01*
X666216Y499000D02*
X787368D01*
X785600Y502100D02*
X815021Y531521D01*
X768400Y509600D02*
X770450Y511650D01*
X699800Y495900D02*
X788652D01*
X694500Y509600D02*
X768400D01*
X740100Y514000D02*
X754800D01*
X900700Y611300D02*
Y613500D01*
X554300Y543320D02*
Y550785D01*
X546175Y534337D02*
X553694Y541856D01*
X546175Y534337D02*
Y534337D01*
X546175Y531409D02*
X546175Y531409D01*
X546175Y531409D01*
X546175Y531409D02*
X546175Y531409D01*
X549102D02*
X556509Y538816D01*
Y538816D02*
Y538816D01*
X559436D02*
X559436Y538816D01*
X552029Y528482D02*
X559436Y535889D01*
X552029Y528482D02*
Y528482D01*
X552029Y525555D02*
X552029Y525555D01*
X552029Y525555D01*
X552029Y525555D02*
X552029Y525555D01*
X554957D02*
X560345Y530943D01*
Y530943D02*
Y530943D01*
X557884Y522627D02*
X563273Y528016D01*
X557884Y522627D02*
Y522627D01*
X557884Y519700D02*
X557884Y519700D01*
X557884Y519700D01*
X557884Y519700D02*
X557884Y519700D01*
X560812D02*
X566200Y525088D01*
Y525088D02*
Y525088D01*
X569128D02*
X569128Y525088D01*
X563739Y516772D02*
X569128Y522161D01*
X563739Y516772D02*
Y516772D01*
X563739Y513845D02*
X563739Y513845D01*
X563739Y513845D01*
X563739Y513845D02*
X563739Y513845D01*
X566667D02*
X572055Y519233D01*
Y519233D02*
Y519233D01*
X569594Y510918D02*
X574982Y516306D01*
X569594Y510917D02*
Y510918D01*
X569594Y507990D02*
X569594Y507990D01*
X569594Y507990D01*
X569594Y507990D02*
X569594Y507990D01*
X572521D02*
X577910Y513379D01*
Y513379D02*
Y513379D01*
X580837D02*
X580837Y513379D01*
X575449Y505063D02*
X580837Y510451D01*
X575449Y505063D02*
Y505063D01*
X575449Y502135D02*
X575449Y502135D01*
X575449Y502135D01*
X575449Y502135D02*
X575449Y502135D01*
X578376D02*
X583707Y507466D01*
X586634Y507466D02*
X586634Y507466D01*
X587200Y506900D01*
X554300Y550785D02*
Y551200D01*
X643620Y527600D02*
X683000D01*
X688280Y509600D02*
X694500D01*
X686210Y511670D02*
Y515145D01*
X682070Y511670D02*
Y515145D01*
X677930Y511670D02*
Y521130D01*
X673790Y511670D02*
Y521130D01*
X669650Y511670D02*
Y521130D01*
X665510Y511670D02*
Y521130D01*
X661370Y511670D02*
Y521130D01*
X657230Y511670D02*
Y521130D01*
X653090Y511670D02*
Y521130D01*
X648950Y511670D02*
Y521130D01*
X644810Y511670D02*
Y521130D01*
X640670Y511670D02*
Y521130D01*
X637800Y509600D02*
X638600D01*
X639540Y527600D02*
X643620D01*
X637470Y529670D02*
Y546464D01*
X633330Y516070D02*
Y546464D01*
X629190Y516070D02*
Y546464D01*
X625050Y516070D02*
Y546464D01*
X620910Y516070D02*
Y546464D01*
X616770Y529670D02*
Y546464D01*
X613900Y527600D02*
X614700D01*
X683000D02*
X696600Y514000D01*
X667500Y495900D02*
X674160D01*
X676230Y487769D02*
Y493830D01*
X680370Y487769D02*
Y493830D01*
X684510Y470030D02*
Y493830D01*
X688650Y470030D02*
Y493830D01*
X692790Y470030D02*
Y493830D01*
X696930Y470030D02*
Y493830D01*
X699000Y495900D02*
X699800D01*
X730520Y514000D02*
X740100D01*
X728450Y516070D02*
Y539870D01*
X724310Y516070D02*
Y539870D01*
X720170Y516070D02*
Y539870D01*
X716030Y516070D02*
Y539870D01*
X711890Y516070D02*
Y539870D01*
X707750Y516070D02*
Y539870D01*
X703610Y516070D02*
Y539870D01*
X699470Y516070D02*
Y539870D01*
X696600Y514000D02*
X697400D01*
X816789Y528421D02*
X895822D01*
X889737Y624463D02*
X900700Y613500D01*
X896837Y591437D02*
Y608763D01*
D183*
X479800Y157300D02*
D03*
Y204300D02*
D03*
Y70600D02*
D03*
Y23600D02*
D03*
D184*
Y251300D02*
D03*
Y117600D02*
D03*
D185*
X367600Y180500D02*
D03*
Y214500D02*
D03*
X268400Y180500D02*
D03*
Y214500D02*
D03*
X269000Y103200D02*
D03*
Y69200D02*
D03*
X368200Y103200D02*
D03*
Y69200D02*
D03*
D186*
X937600Y724300D02*
D03*
Y782100D02*
D03*
X894600Y65550D02*
D03*
X836800D02*
D03*
D187*
X932600Y796400D02*
D03*
Y710000D02*
D03*
D188*
X974400Y796400D02*
D03*
Y710000D02*
D03*
D189*
X822500Y28750D02*
D03*
X908900D02*
D03*
D190*
X822500Y70550D02*
D03*
X908900D02*
D03*
D191*
X959500Y552000D02*
D03*
Y632000D02*
D03*
D192*
X924380Y944600D02*
D03*
X797380D02*
D03*
X728700Y946200D02*
D03*
X601700D02*
D03*
X526800Y945100D02*
D03*
X399800D02*
D03*
X57350Y714460D02*
D03*
Y587460D02*
D03*
Y910840D02*
D03*
Y783840D02*
D03*
X332800Y945300D02*
D03*
X205800D02*
D03*
D193*
X896440Y901400D02*
D03*
X886280Y919200D02*
D03*
X876120Y901400D02*
D03*
X865960Y919200D02*
D03*
X855800Y901400D02*
D03*
X845640Y919200D02*
D03*
X835480Y901400D02*
D03*
X700760Y903000D02*
D03*
X690600Y920800D02*
D03*
X680440Y903000D02*
D03*
X670280Y920800D02*
D03*
X660120Y903000D02*
D03*
X649960Y920800D02*
D03*
X639800Y903000D02*
D03*
X498860Y901900D02*
D03*
X488700Y919700D02*
D03*
X478540Y901900D02*
D03*
X468380Y919700D02*
D03*
X458220Y901900D02*
D03*
X448060Y919700D02*
D03*
X437900Y901900D02*
D03*
X100550Y686520D02*
D03*
X82750Y676360D02*
D03*
X100550Y666200D02*
D03*
X82750Y656040D02*
D03*
X100550Y645880D02*
D03*
X82750Y635720D02*
D03*
X100550Y625560D02*
D03*
Y882900D02*
D03*
X82750Y872740D02*
D03*
X100550Y862580D02*
D03*
X82750Y852420D02*
D03*
X100550Y842260D02*
D03*
X82750Y832100D02*
D03*
X100550Y821940D02*
D03*
X304860Y902100D02*
D03*
X294700Y919900D02*
D03*
X284540Y902100D02*
D03*
X274380Y919900D02*
D03*
X264220Y902100D02*
D03*
X254060Y919900D02*
D03*
X243900Y902100D02*
D03*
D194*
X825320Y919200D02*
D03*
X629640Y920800D02*
D03*
X427740Y919700D02*
D03*
X233740Y919900D02*
D03*
D195*
X942180Y910300D02*
D03*
X779580D02*
D03*
X746500Y911900D02*
D03*
X583900D02*
D03*
X544600Y910800D02*
D03*
X382000D02*
D03*
X91650Y732260D02*
D03*
Y569660D02*
D03*
Y928640D02*
D03*
Y766040D02*
D03*
X350600Y911000D02*
D03*
X188000D02*
D03*
D196*
X82750Y615400D02*
D03*
Y811780D02*
D03*
D197*
X257000Y649400D02*
D03*
Y725400D02*
D03*
X272100Y575900D02*
D03*
X247100D02*
D03*
X297100D02*
D03*
X222100D02*
D03*
X197100D02*
D03*
X107000Y295300D02*
D03*
X82000D02*
D03*
X132000D02*
D03*
X57000D02*
D03*
X32000D02*
D03*
X756764Y256914D02*
D03*
Y281914D02*
D03*
Y231914D02*
D03*
Y306914D02*
D03*
Y331914D02*
D03*
X261400Y809300D02*
D03*
X286400D02*
D03*
X236400D02*
D03*
X311400D02*
D03*
X419300Y809700D02*
D03*
X444300D02*
D03*
X394300D02*
D03*
X469300D02*
D03*
X414800Y655300D02*
D03*
X439800D02*
D03*
X389800D02*
D03*
X464800D02*
D03*
X970800Y63800D02*
D03*
Y88800D02*
D03*
X972500Y283100D02*
D03*
X947500D02*
D03*
X971000Y169400D02*
D03*
Y194400D02*
D03*
D198*
X106250Y237800D02*
D03*
Y102800D02*
D03*
D199*
X166250Y206300D02*
D03*
D200*
Y134300D02*
D03*
D201*
X322100Y575900D02*
D03*
X157000Y295300D02*
D03*
X211400Y809300D02*
D03*
X369300Y809700D02*
D03*
X364800Y655300D02*
D03*
X922500Y283100D02*
D03*
D202*
X756764Y206914D02*
D03*
X970800Y113800D02*
D03*
X971000Y219400D02*
D03*
D203*
X833800Y821300D02*
D03*
X884600D02*
D03*
X859200D02*
D03*
X808400D02*
D03*
X783000D02*
D03*
D204*
X26000Y26000D02*
D03*
Y974000D02*
D03*
X974000D02*
D03*
Y26000D02*
D03*
D205*
X310900Y374000D02*
D03*
X285500D02*
D03*
X260100D02*
D03*
X362930Y373786D02*
D03*
X388330D02*
D03*
X336514D02*
D03*
X413730Y373532D02*
D03*
Y525932D02*
D03*
X336514Y526186D02*
D03*
X388330D02*
D03*
X362930D02*
D03*
X260100Y526400D02*
D03*
X285500D02*
D03*
X310900D02*
D03*
X234700Y374000D02*
D03*
X97000Y373500D02*
D03*
X71600D02*
D03*
X46200D02*
D03*
X149030Y373286D02*
D03*
X174430D02*
D03*
X122614D02*
D03*
X199830Y373032D02*
D03*
Y525432D02*
D03*
X122614Y525686D02*
D03*
X174430D02*
D03*
X149030D02*
D03*
X46200Y525900D02*
D03*
X71600D02*
D03*
X97000D02*
D03*
X20800Y373500D02*
D03*
X563414Y300514D02*
D03*
Y325914D02*
D03*
Y351314D02*
D03*
X563200Y248484D02*
D03*
Y223084D02*
D03*
Y274900D02*
D03*
X562946Y197684D02*
D03*
X715346D02*
D03*
X715600Y274900D02*
D03*
Y223084D02*
D03*
Y248484D02*
D03*
X715814Y351314D02*
D03*
Y325914D02*
D03*
Y300514D02*
D03*
X563414Y376714D02*
D03*
D206*
X234700Y526400D02*
D03*
X20800Y525900D02*
D03*
D207*
X715814Y376714D02*
D03*
D208*
X353000Y302400D02*
D03*
X487300Y373400D02*
D03*
X220200Y302400D02*
D03*
D209*
X403000D02*
D03*
X270200D02*
D03*
D210*
X487300Y323400D02*
D03*
D211*
X900000Y300000D02*
D03*
X700000Y100000D02*
D03*
X650000Y200000D02*
D03*
X250000Y600000D02*
D03*
X150000D02*
D03*
X100000Y500000D02*
D03*
D212*
X629075Y594155D02*
D03*
X637100Y594800D02*
D03*
X516900Y698100D02*
D03*
X661800Y594900D02*
D03*
X772500Y541500D02*
D03*
X772800Y549200D02*
D03*
X772500Y556600D02*
D03*
X774400Y563900D02*
D03*
X793000Y601300D02*
D03*
X780700Y601500D02*
D03*
X791700Y638200D02*
D03*
X782300Y638000D02*
D03*
X579900Y573500D02*
D03*
X631283Y574811D02*
D03*
X638700Y553800D02*
D03*
X621200Y723300D02*
D03*
X618200Y729100D02*
D03*
X578500Y707680D02*
D03*
X519816Y704284D02*
D03*
X846800Y233800D02*
D03*
X851400Y239100D02*
D03*
X677900Y762700D02*
D03*
X749800Y588800D02*
D03*
X702500Y461000D02*
D03*
X669000Y553000D02*
D03*
X827200Y89000D02*
D03*
X902200Y88100D02*
D03*
X823800Y573400D02*
D03*
X711400Y747200D02*
D03*
X690700Y747900D02*
D03*
X699674Y732620D02*
D03*
X573800Y575030D02*
D03*
X581400Y729320D02*
D03*
X619925Y667525D02*
D03*
X632900Y664700D02*
D03*
X613750Y667100D02*
D03*
X591402Y658700D02*
D03*
X639716Y650405D02*
D03*
X710600Y790700D02*
D03*
X953600Y422500D02*
D03*
X903000Y422300D02*
D03*
X664100Y730000D02*
D03*
X646800Y812300D02*
D03*
X789165Y78935D02*
D03*
X651500Y753700D02*
D03*
X815300Y602700D02*
D03*
X813764Y567236D02*
D03*
X817500Y636500D02*
D03*
X591700Y665300D02*
D03*
X634496Y648671D02*
D03*
X627000Y666200D02*
D03*
X520100Y691400D02*
D03*
X658554Y824246D02*
D03*
X776100Y575900D02*
D03*
X767200Y576100D02*
D03*
X490500Y452400D02*
D03*
X487600Y433300D02*
D03*
X841600Y220600D02*
D03*
X819600Y188800D02*
D03*
X848800Y202300D02*
D03*
X665000Y532900D02*
D03*
X677700Y539600D02*
D03*
X577200Y475119D02*
D03*
X567300Y470475D02*
D03*
X566196Y464577D02*
D03*
X556200Y458200D02*
D03*
X572399Y450501D02*
D03*
X566100Y458400D02*
D03*
X630726Y551409D02*
D03*
X722400Y805600D02*
D03*
X676200Y712020D02*
D03*
X654600Y460800D02*
D03*
X695277Y728223D02*
D03*
X749000Y731300D02*
D03*
X762770Y731575D02*
D03*
X737600Y731000D02*
D03*
X520700Y802700D02*
D03*
X553900Y729500D02*
D03*
X377000Y730200D02*
D03*
X463700Y715900D02*
D03*
X720700Y786200D02*
D03*
X675600Y646000D02*
D03*
X647100Y659800D02*
D03*
X636100Y669400D02*
D03*
X735300Y771600D02*
D03*
X578800Y834100D02*
D03*
X623000Y834900D02*
D03*
X602900Y834800D02*
D03*
X587500Y834200D02*
D03*
X541510Y699580D02*
D03*
X582500Y701400D02*
D03*
X951500Y812900D02*
D03*
X860400Y429200D02*
D03*
X565700Y447500D02*
D03*
X955700Y512600D02*
D03*
X751500Y612400D02*
D03*
X760100Y629100D02*
D03*
X759800Y649600D02*
D03*
X739900Y612500D02*
D03*
X591400Y649100D02*
D03*
X600100Y401000D02*
D03*
X607000Y401100D02*
D03*
X730500Y725100D02*
D03*
X714850Y709750D02*
D03*
X722900Y717600D02*
D03*
X707000Y701900D02*
D03*
X591402Y642496D02*
D03*
X675000Y667100D02*
D03*
X803700Y570900D02*
D03*
X818212Y535571D02*
D03*
X728500Y612500D02*
D03*
X717200Y612600D02*
D03*
X705800Y612700D02*
D03*
X880915Y119575D02*
D03*
X805300Y673300D02*
D03*
X884600Y738500D02*
D03*
X823100Y672000D02*
D03*
X895700Y737400D02*
D03*
X803600Y601500D02*
D03*
X850400Y109800D02*
D03*
X850500Y119600D02*
D03*
X712300Y663900D02*
D03*
X785800Y699300D02*
D03*
X628300Y66100D02*
D03*
X705800Y88400D02*
D03*
X692200Y88600D02*
D03*
X678500Y88500D02*
D03*
X777600Y76800D02*
D03*
X763800Y76500D02*
D03*
X749900Y76600D02*
D03*
X736100Y76800D02*
D03*
X722200Y76700D02*
D03*
X707000Y14700D02*
D03*
X693000Y14800D02*
D03*
X679200Y14800D02*
D03*
X706400Y29000D02*
D03*
X693000Y28900D02*
D03*
X679200Y28800D02*
D03*
X678600Y74300D02*
D03*
X692100D02*
D03*
X706000Y74400D02*
D03*
X678400Y60700D02*
D03*
X692300Y60600D02*
D03*
X706400D02*
D03*
X679200Y41800D02*
D03*
X693000Y41700D02*
D03*
X706200Y42000D02*
D03*
X557300Y32100D02*
D03*
X544100Y31800D02*
D03*
X530300Y32200D02*
D03*
X557500Y46100D02*
D03*
X544300D02*
D03*
X530100Y46500D02*
D03*
X557400Y59800D02*
D03*
X544000D02*
D03*
X530300Y60100D02*
D03*
X785000Y15300D02*
D03*
X759200Y25800D02*
D03*
X555500Y79300D02*
D03*
X534700D02*
D03*
X590800Y55200D02*
D03*
X761700Y452400D02*
D03*
X884600Y767000D02*
D03*
X895200Y770800D02*
D03*
X881000Y110000D02*
D03*
X859900Y512500D02*
D03*
X955600Y690400D02*
D03*
X860400Y684700D02*
D03*
X778600Y683700D02*
D03*
X709500Y685100D02*
D03*
X770800Y676000D02*
D03*
X774400Y699000D02*
D03*
X703300Y692900D02*
D03*
X735400Y633400D02*
D03*
Y644400D02*
D03*
X760200Y619200D02*
D03*
X701200Y629300D02*
D03*
X759900Y638800D02*
D03*
X779000Y715300D02*
D03*
X770700Y723600D02*
D03*
X763600Y668400D02*
D03*
X733700Y663500D02*
D03*
X723300Y663800D02*
D03*
X744400Y663900D02*
D03*
X755300Y660200D02*
D03*
X785800Y690900D02*
D03*
X786000Y707700D02*
D03*
D213*
X598700Y15600D02*
D03*
X591400Y15400D02*
D03*
X804300Y739900D02*
D03*
X731200Y488200D02*
D03*
X722800Y488400D02*
D03*
X812800Y736800D02*
D03*
X822500Y736900D02*
D03*
X803400Y118300D02*
D03*
X803600Y127200D02*
D03*
Y136300D02*
D03*
X803300Y144900D02*
D03*
X794300D02*
D03*
X785500Y145000D02*
D03*
X769000Y144800D02*
D03*
X777000Y145100D02*
D03*
X714200Y479100D02*
D03*
X714000Y488200D02*
D03*
D215*
X464853Y644365D02*
D03*
X465597Y642569D02*
D03*
X296317Y812452D02*
D03*
X274858Y806191D02*
D03*
M02*
