G04*
G04 #@! TF.GenerationSoftware,Altium Limited,Altium Designer,25.2.1 (25)*
G04*
G04 Layer_Color=32768*
%FSLAX44Y44*%
%MOMM*%
G71*
G04*
G04 #@! TF.SameCoordinates,965F6EC9-4211-4512-97E5-58CA1C1A5C92*
G04*
G04*
G04 #@! TF.FilePolarity,Positive*
G04*
G01*
G75*
%ADD10C,0.2000*%
%ADD11C,0.1000*%
%ADD12C,0.1524*%
%ADD220C,0.0500*%
%ADD221C,0.0508*%
G36*
X682147Y537834D02*
Y527166D01*
Y526658D01*
X666653D01*
Y527166D01*
Y537834D01*
Y538342D01*
X682147D01*
Y537834D01*
D02*
G37*
G36*
X619142Y434153D02*
X607458D01*
Y449647D01*
X619142D01*
Y434153D01*
D02*
G37*
G36*
X507434Y521630D02*
X510756Y524953D01*
X551706Y484003D01*
X548384Y480680D01*
X560866Y468198D01*
X526562Y433893D01*
X514079Y446376D01*
X510756Y443053D01*
X469806Y484003D01*
X473129Y487326D01*
X460647Y499808D01*
X494951Y534113D01*
X507434Y521630D01*
D02*
G37*
G36*
X786910Y469940D02*
X804240D01*
Y466440D01*
X807740D01*
Y438360D01*
X804240D01*
Y434860D01*
X786910D01*
Y431360D01*
X786490D01*
Y434860D01*
X769160D01*
Y438360D01*
X765660D01*
Y466440D01*
X769160D01*
Y469940D01*
X786490D01*
Y473440D01*
X786910D01*
Y469940D01*
D02*
G37*
G36*
X698300Y121804D02*
X658300D01*
Y161804D01*
X698300D01*
Y121804D01*
D02*
G37*
G36*
X639820Y45900D02*
X623820D01*
Y53900D01*
X639820D01*
Y45900D01*
D02*
G37*
G36*
X865942Y124122D02*
X877242D01*
Y108628D01*
X865558D01*
Y108653D01*
X854258D01*
Y124147D01*
X865942D01*
Y124122D01*
D02*
G37*
G36*
X903853Y327966D02*
D01*
Y338634D01*
D01*
Y339142D01*
X919347D01*
Y338634D01*
D01*
Y327966D01*
D01*
Y327458D01*
X903853D01*
Y327966D01*
D02*
G37*
G36*
X975972Y339634D02*
D01*
Y328966D01*
D01*
Y328458D01*
X960478D01*
Y328966D01*
D01*
Y339634D01*
D01*
Y340142D01*
X975972D01*
Y339634D01*
D02*
G37*
G36*
X906878Y417666D02*
D01*
Y428334D01*
D01*
Y428842D01*
X922372D01*
Y428334D01*
D01*
Y417666D01*
D01*
Y417158D01*
X906878D01*
Y417666D01*
D02*
G37*
G36*
X829022Y550634D02*
D01*
Y539966D01*
D01*
Y539458D01*
X813528D01*
Y539966D01*
D01*
Y550634D01*
D01*
Y551142D01*
X829022D01*
Y550634D01*
D02*
G37*
G36*
X957128Y417666D02*
D01*
Y428334D01*
D01*
Y428842D01*
X972622D01*
Y428334D01*
D01*
Y417666D01*
D01*
Y417158D01*
X957128D01*
Y417666D01*
D02*
G37*
G36*
X900300Y805600D02*
X767300D01*
Y837000D01*
X900300D01*
Y805600D01*
D02*
G37*
G36*
X705025Y823980D02*
X714804D01*
Y813820D01*
X705025D01*
Y801120D01*
X685975D01*
Y804295D01*
X676196D01*
Y833505D01*
X685975D01*
Y836680D01*
X705025D01*
Y823980D01*
D02*
G37*
G36*
X618380Y827112D02*
X630780D01*
Y808062D01*
X627880D01*
Y798339D01*
X598120D01*
Y808062D01*
X595220D01*
Y827112D01*
X607620D01*
Y836835D01*
X618380D01*
Y827112D01*
D02*
G37*
G36*
X515785Y782719D02*
X501815D01*
Y808881D01*
X515785D01*
Y782719D01*
D02*
G37*
G36*
X895672Y763234D02*
Y752566D01*
Y752058D01*
X895572D01*
Y741966D01*
Y741458D01*
X880078D01*
Y741966D01*
Y752634D01*
Y753142D01*
X880178D01*
Y763234D01*
Y763742D01*
X895672D01*
Y763234D01*
D02*
G37*
G36*
X828672Y631634D02*
Y620966D01*
Y620458D01*
X813178D01*
Y620966D01*
Y631634D01*
Y632142D01*
X828672D01*
Y631634D01*
D02*
G37*
G36*
X729541Y618850D02*
X708459D01*
Y656950D01*
X729541D01*
Y618850D01*
D02*
G37*
G36*
X828772Y617734D02*
Y607066D01*
Y606558D01*
X813278D01*
Y607066D01*
Y617734D01*
Y618242D01*
X828772D01*
Y617734D01*
D02*
G37*
G36*
X814772Y598434D02*
Y587766D01*
Y587258D01*
X799278D01*
Y587766D01*
Y598434D01*
Y598942D01*
X814772D01*
Y598434D01*
D02*
G37*
G36*
X814772Y585134D02*
Y574466D01*
Y573958D01*
X799278D01*
Y574466D01*
Y585134D01*
Y585642D01*
X814772D01*
Y585134D01*
D02*
G37*
G36*
X829047Y564234D02*
Y553566D01*
Y553058D01*
X813553D01*
Y553566D01*
Y564234D01*
Y564742D01*
X829047D01*
Y564234D01*
D02*
G37*
D10*
X744100Y813100D02*
Y830100D01*
X718100D02*
X744100D01*
X718100Y813100D02*
Y830100D01*
Y813100D02*
X744100D01*
X842900Y473000D02*
X859900D01*
X842900Y447000D02*
Y473000D01*
Y447000D02*
X859900D01*
Y473000D01*
X764100Y59300D02*
X781100D01*
X764100Y33300D02*
Y59300D01*
Y33300D02*
X781100D01*
Y59300D01*
X736600Y54800D02*
X753600D01*
X736600Y28800D02*
Y54800D01*
Y28800D02*
X753600D01*
Y54800D01*
X389400Y692100D02*
Y768100D01*
X448900D01*
Y692100D02*
Y768100D01*
X389400Y692100D02*
X448900D01*
X693700Y577700D02*
Y746700D01*
X524700D02*
X693700D01*
X524700Y577700D02*
Y746700D01*
Y577700D02*
X693700D01*
X372500Y583600D02*
X394500D01*
X372500D02*
Y603600D01*
X394500D01*
Y583600D02*
Y603600D01*
X409450Y583500D02*
X431450D01*
X409450D02*
Y603500D01*
X431450D01*
Y583500D02*
Y603500D01*
X372400Y553200D02*
X394400D01*
X372400D02*
Y573200D01*
X394400D01*
Y553200D02*
Y573200D01*
X409150Y553200D02*
X431150D01*
X409150D02*
Y573200D01*
X431150D01*
Y553200D02*
Y573200D01*
D11*
X854500Y527750D02*
X999500D01*
Y675250D01*
X854500D02*
X999500D01*
X854500Y527750D02*
Y675250D01*
X342500Y730850D02*
X355500D01*
X342500D02*
Y760050D01*
X355500D01*
Y730850D02*
Y760050D01*
X345950Y730850D02*
X355500Y740400D01*
X471000Y727650D02*
X484000D01*
X471000D02*
Y756850D01*
X484000D01*
Y727650D02*
Y756850D01*
X474450Y727650D02*
X484000Y737200D01*
X677600Y483100D02*
Y515100D01*
X635600D02*
X677600D01*
X635600Y483100D02*
Y515100D01*
Y483100D02*
X677600D01*
X678000Y411300D02*
Y443300D01*
X636000D02*
X678000D01*
X636000Y411300D02*
Y443300D01*
Y411300D02*
X678000D01*
X900100Y446700D02*
X932100D01*
Y488700D01*
X900100D02*
X932100D01*
X900100Y446700D02*
Y488700D01*
X955800Y446400D02*
X987800D01*
Y488400D01*
X955800D02*
X987800D01*
X955800Y446400D02*
Y488400D01*
X899550Y356850D02*
X931550D01*
Y398850D01*
X899550D02*
X931550D01*
X899550Y356850D02*
Y398850D01*
X955950Y357350D02*
X987950D01*
Y399350D01*
X955950D02*
X987950D01*
X955950Y357350D02*
Y399350D01*
X373000Y302400D02*
X383000D01*
X378000Y297400D02*
Y307400D01*
X487300Y343400D02*
Y353400D01*
X482300Y348400D02*
X492300D01*
X245200Y297400D02*
Y307400D01*
X240200Y302400D02*
X250200D01*
D12*
X548384Y480680D02*
X560866Y468198D01*
X548384Y480680D02*
X551706Y484003D01*
X510756Y524953D02*
X551706Y484003D01*
X507434Y521630D02*
X510756Y524953D01*
X494951Y534113D02*
X507434Y521630D01*
X460647Y499808D02*
X494951Y534113D01*
X460647Y499808D02*
X473129Y487326D01*
X469806Y484003D02*
X473129Y487326D01*
X469806Y484003D02*
X510756Y443053D01*
X514079Y446376D01*
X526562Y433893D01*
X560866Y468198D01*
X709475Y656950D02*
X728525D01*
X709475Y618850D02*
X728525D01*
X708459Y656950D02*
X709475D01*
X728525D02*
X729541D01*
Y618850D02*
Y656950D01*
X728525Y618850D02*
X729541D01*
X708459D02*
X709475D01*
X708459D02*
Y656950D01*
X676196Y804295D02*
Y833505D01*
X685975D01*
X676196Y804295D02*
X685975D01*
Y833505D02*
Y836680D01*
Y801120D02*
Y804295D01*
Y801120D02*
X705025D01*
Y813820D01*
X714804D01*
Y823980D01*
X705025D02*
X714804D01*
X705025D02*
Y836680D01*
X685975D02*
X705025D01*
X501815Y782719D02*
Y808881D01*
Y782719D02*
X515785D01*
Y808881D01*
X501815D02*
X515785D01*
X769160Y434860D02*
Y438360D01*
X765660D02*
X769160D01*
X765660D02*
Y466440D01*
X769160D01*
Y469940D01*
X786910D01*
Y473440D01*
X786490D02*
X786910D01*
X786490Y469940D02*
Y473440D01*
Y469940D02*
X804240D01*
Y466440D02*
Y469940D01*
Y466440D02*
X807740D01*
Y438360D02*
Y466440D01*
X804240Y438360D02*
X807740D01*
X804240Y434860D02*
Y438360D01*
X786490Y434860D02*
X804240D01*
X786490Y431360D02*
Y434860D01*
Y431360D02*
X786910D01*
Y434860D01*
X769160D02*
X786910D01*
X598120Y798339D02*
X627880D01*
X598120D02*
Y808062D01*
X627880Y798339D02*
Y808062D01*
X595220D02*
X598120D01*
X627880D02*
X630780D01*
Y827112D01*
X618380D02*
X630780D01*
X618380D02*
Y836835D01*
X607620D02*
X618380D01*
X607620Y827112D02*
Y836835D01*
X595220Y827112D02*
X607620D01*
X595220Y808062D02*
Y827112D01*
X682147Y527166D02*
Y537834D01*
X666653Y527166D02*
Y537834D01*
X682147D02*
Y538342D01*
Y526658D02*
Y527166D01*
X666653Y526658D02*
X682147D01*
X666653D02*
Y527166D01*
Y537834D02*
Y538342D01*
X682147D01*
X607966Y449647D02*
X618634D01*
X607966Y434153D02*
X618634D01*
X607458Y449647D02*
X607966D01*
X618634D02*
X619142D01*
Y434153D02*
Y449647D01*
X618634Y434153D02*
X619142D01*
X607458D02*
X607966D01*
X607458D02*
Y449647D01*
X906878Y417666D02*
Y428334D01*
X922372Y417666D02*
Y428334D01*
X906878Y417158D02*
Y417666D01*
Y428334D02*
Y428842D01*
X922372D01*
Y428334D02*
Y428842D01*
Y417158D02*
Y417666D01*
X906878Y417158D02*
X922372D01*
X957128Y417666D02*
Y428334D01*
X972622Y417666D02*
Y428334D01*
X957128Y417158D02*
Y417666D01*
Y428334D02*
Y428842D01*
X972622D01*
Y428334D02*
Y428842D01*
Y417158D02*
Y417666D01*
X957128Y417158D02*
X972622D01*
X903853Y327966D02*
Y338634D01*
X919347Y327966D02*
Y338634D01*
X903853Y327458D02*
Y327966D01*
Y338634D02*
Y339142D01*
X919347D01*
Y338634D02*
Y339142D01*
Y327458D02*
Y327966D01*
X903853Y327458D02*
X919347D01*
X975972Y328966D02*
Y339634D01*
X960478Y328966D02*
Y339634D01*
X975972D02*
Y340142D01*
Y328458D02*
Y328966D01*
X960478Y328458D02*
X975972D01*
X960478D02*
Y328966D01*
Y339634D02*
Y340142D01*
X975972D01*
X813178Y620966D02*
Y631634D01*
X828672Y620966D02*
Y631634D01*
X813178Y620458D02*
Y620966D01*
Y631634D02*
Y632142D01*
X828672D01*
Y631634D02*
Y632142D01*
Y620458D02*
Y620966D01*
X813178Y620458D02*
X828672D01*
X813278Y607066D02*
Y617734D01*
X828772Y607066D02*
Y617734D01*
X813278Y606558D02*
Y607066D01*
Y617734D02*
Y618242D01*
X828772D01*
Y617734D02*
Y618242D01*
Y606558D02*
Y607066D01*
X813278Y606558D02*
X828772D01*
X799278Y587766D02*
Y598434D01*
X814772Y587766D02*
Y598434D01*
X799278Y587258D02*
Y587766D01*
Y598434D02*
Y598942D01*
X814772D01*
Y598434D02*
Y598942D01*
Y587258D02*
Y587766D01*
X799278Y587258D02*
X814772D01*
X829022Y539966D02*
Y550634D01*
X813528Y539966D02*
Y550634D01*
X829022D02*
Y551142D01*
Y539458D02*
Y539966D01*
X813528Y539458D02*
X829022D01*
X813528D02*
Y539966D01*
Y550634D02*
Y551142D01*
X829022D01*
X814772Y574466D02*
Y585134D01*
X799278Y574466D02*
Y585134D01*
X814772D02*
Y585642D01*
Y573958D02*
Y574466D01*
X799278Y573958D02*
X814772D01*
X799278D02*
Y574466D01*
Y585134D02*
Y585642D01*
X814772D01*
X829047Y553566D02*
Y564234D01*
X813553Y553566D02*
Y564234D01*
X829047D02*
Y564742D01*
Y553058D02*
Y553566D01*
X813553Y553058D02*
X829047D01*
X813553D02*
Y553566D01*
Y564234D02*
Y564742D01*
X829047D01*
X895672Y752566D02*
Y763234D01*
X880178Y752566D02*
Y763234D01*
X895672D02*
Y763742D01*
Y752058D02*
Y752566D01*
X880178Y752058D02*
X895672D01*
X880178D02*
Y752566D01*
Y763234D02*
Y763742D01*
X895672D01*
X895572Y741966D02*
Y752634D01*
X880078Y741966D02*
Y752634D01*
X895572D02*
Y753142D01*
Y741458D02*
Y741966D01*
X880078Y741458D02*
X895572D01*
X880078D02*
Y741966D01*
Y752634D02*
Y753142D01*
X895572D01*
X866066Y108628D02*
X876734D01*
X866066Y124122D02*
X876734D01*
Y108628D02*
X877242D01*
X865558D02*
X866066D01*
X865558D02*
Y124122D01*
X866066D01*
X876734D02*
X877242D01*
Y108628D02*
Y124122D01*
X854766Y108653D02*
X865434D01*
X854766Y124147D02*
X865434D01*
Y108653D02*
X865942D01*
X854258D02*
X854766D01*
X854258D02*
Y124147D01*
X854766D01*
X865434D02*
X865942D01*
Y108653D02*
Y124147D01*
D220*
X329000Y687400D02*
G03*
X329000Y687400I-72000J0D01*
G01*
X429000Y302400D02*
G03*
X429000Y302400I-51000J0D01*
G01*
X538300Y348400D02*
G03*
X538300Y348400I-51000J0D01*
G01*
X296200Y302400D02*
G03*
X296200Y302400I-51000J0D01*
G01*
X516600Y138300D02*
Y270300D01*
X443000Y138300D02*
X516600D01*
X443000D02*
Y270300D01*
X516600D01*
X443000Y136600D02*
X516600D01*
X443000Y4600D02*
Y136600D01*
Y4600D02*
X516600D01*
Y136600D01*
X235500Y161350D02*
Y233650D01*
Y161350D02*
X400500D01*
Y233650D01*
X235500D02*
X400500D01*
X236100Y122350D02*
X401100D01*
Y50050D02*
Y122350D01*
X236100Y50050D02*
X401100D01*
X236100D02*
Y122350D01*
X587000Y78400D02*
X626000D01*
Y117500D01*
X587000D02*
X626000D01*
X587000Y78400D02*
Y117500D01*
X801850Y283700D02*
X853950D01*
X801850Y231600D02*
X853950D01*
X801850D02*
Y283700D01*
X853950Y231600D02*
Y283700D01*
X628550Y22200D02*
Y33200D01*
X609250Y22200D02*
Y33200D01*
X628550D01*
X609250Y22200D02*
X628550D01*
X898650Y743100D02*
X917950D01*
X898650Y732100D02*
X917950D01*
Y743100D01*
X898650Y732100D02*
Y743100D01*
X898150Y765300D02*
Y776300D01*
X917450Y765300D02*
Y776300D01*
X898150Y765300D02*
X917450D01*
X898150Y776300D02*
X917450D01*
X856000Y87250D02*
Y106550D01*
X845000Y87250D02*
Y106550D01*
Y87250D02*
X856000D01*
X845000Y106550D02*
X856000D01*
X875000Y106150D02*
X886000D01*
X875000Y86850D02*
X886000D01*
X875000D02*
Y106150D01*
X886000Y86850D02*
Y106150D01*
X918600Y702500D02*
Y803900D01*
X1002900D01*
Y702500D02*
Y803900D01*
X918600Y702500D02*
X1002900D01*
X815000Y250D02*
Y84550D01*
Y250D02*
X916400D01*
Y84550D01*
X815000D02*
X916400D01*
X659150Y765820D02*
Y803120D01*
X678850D01*
Y765820D02*
Y803120D01*
X659150Y765820D02*
X678850D01*
X742663Y722284D02*
X766705Y698243D01*
X713672Y693293D02*
X742663Y722284D01*
X737714Y669251D02*
X766705Y698243D01*
X713672Y693293D02*
X737714Y669251D01*
X956830Y839200D02*
Y1001700D01*
X764930D02*
X956830D01*
X764930Y839200D02*
Y1001700D01*
Y839200D02*
X956830D01*
X761150Y840800D02*
Y1003300D01*
X569250D02*
X761150D01*
X569250Y840800D02*
Y1003300D01*
Y840800D02*
X761150D01*
X559250Y839700D02*
Y1002200D01*
X367350D02*
X559250D01*
X367350Y839700D02*
Y1002200D01*
Y839700D02*
X559250D01*
X250Y746910D02*
X162750D01*
X250Y555010D02*
Y746910D01*
Y555010D02*
X162750D01*
Y746910D01*
X250Y943290D02*
X162750D01*
X250Y751390D02*
Y943290D01*
Y751390D02*
X162750D01*
Y943290D01*
X365250Y839900D02*
Y1002400D01*
X173350D02*
X365250D01*
X173350Y839900D02*
Y1002400D01*
Y839900D02*
X365250D01*
X163800Y655950D02*
X184800D01*
Y705050D01*
X163800D02*
X184800D01*
X163800Y655950D02*
Y705050D01*
X456350Y684500D02*
Y705500D01*
Y684500D02*
X505450D01*
Y705500D01*
X456350D02*
X505450D01*
X250Y90300D02*
Y250300D01*
X187350D01*
Y90300D02*
Y250300D01*
X250Y90300D02*
X187350D01*
X721720Y133750D02*
X753880D01*
X721720Y86650D02*
X753880D01*
X721720D02*
Y133750D01*
X753880Y86650D02*
Y133750D01*
X757620Y133640D02*
X789780D01*
X757620Y86540D02*
X789780D01*
X757620D02*
Y133640D01*
X789780Y86540D02*
Y133640D01*
X720470Y483280D02*
X740130D01*
X720470Y449120D02*
X740130D01*
X720470D02*
Y483280D01*
X740130Y449120D02*
Y483280D01*
X812370Y434720D02*
X832030D01*
X812370Y468880D02*
X832030D01*
Y434720D02*
Y468880D01*
X812370Y434720D02*
Y468880D01*
X524470Y117180D02*
X544130D01*
X524470Y83020D02*
X544130D01*
X524470D02*
Y117180D01*
X544130Y83020D02*
Y117180D01*
X545570Y116980D02*
X565230D01*
X545570Y82820D02*
X565230D01*
X545570D02*
Y116980D01*
X565230Y82820D02*
Y116980D01*
X844980Y192670D02*
Y212330D01*
X810820Y192670D02*
Y212330D01*
X844980D01*
X810820Y192670D02*
X844980D01*
X809550Y764800D02*
X860250D01*
Y742800D02*
Y764800D01*
X809550Y742800D02*
X860250D01*
X809550D02*
Y764800D01*
X876000Y132950D02*
Y183650D01*
X854000Y132950D02*
X876000D01*
X854000D02*
Y183650D01*
X876000D01*
X756950Y751050D02*
Y780350D01*
X742650Y751050D02*
Y780350D01*
Y751050D02*
X756950D01*
X742650Y780350D02*
X756950D01*
X586050Y47850D02*
Y77150D01*
X571750Y47850D02*
Y77150D01*
Y47850D02*
X586050D01*
X571750Y77150D02*
X586050D01*
X820850Y767150D02*
X850150D01*
X820850Y781450D02*
X850150D01*
X820850Y767150D02*
Y781450D01*
X850150Y767150D02*
Y781450D01*
X877550Y142550D02*
Y171850D01*
X891850Y142550D02*
Y171850D01*
X877550D02*
X891850D01*
X877550Y142550D02*
X891850D01*
X497021Y452341D02*
X518347Y431015D01*
X486259Y441579D02*
X507585Y420253D01*
X518347Y431015D01*
X486259Y441579D02*
X497021Y452341D01*
X571450Y16200D02*
X586150D01*
X571450Y45400D02*
X586150D01*
Y16200D02*
Y45400D01*
X571450Y16200D02*
Y45400D01*
X855150Y249800D02*
X869850D01*
X855150Y279000D02*
X869850D01*
Y249800D02*
Y279000D01*
X855150Y249800D02*
Y279000D01*
X757300Y458000D02*
Y477000D01*
X746300Y458000D02*
Y477000D01*
Y458000D02*
X757300D01*
X746300Y477000D02*
X757300D01*
X646400Y62400D02*
Y81400D01*
X635400Y62400D02*
Y81400D01*
Y62400D02*
X646400D01*
X635400Y81400D02*
X646400D01*
X796400Y646600D02*
X815400D01*
X796400Y657600D02*
X815400D01*
X796400Y646600D02*
Y657600D01*
X815400Y646600D02*
Y657600D01*
X632880Y797600D02*
X651880D01*
X632880Y808600D02*
X651880D01*
X632880Y797600D02*
Y808600D01*
X651880Y797600D02*
Y808600D01*
X631900Y466400D02*
X650900D01*
X631900Y455400D02*
X650900D01*
Y466400D01*
X631900Y455400D02*
Y466400D01*
X370700Y737100D02*
Y756100D01*
X381700Y737100D02*
Y756100D01*
X370700D02*
X381700D01*
X370700Y737100D02*
X381700D01*
X501100Y731520D02*
Y750520D01*
X512100Y731520D02*
Y750520D01*
X501100D02*
X512100D01*
X501100Y731520D02*
X512100D01*
X974120Y429200D02*
X993120D01*
X974120Y418200D02*
X993120D01*
Y429200D01*
X974120Y418200D02*
Y429200D01*
X932800Y320300D02*
Y339300D01*
X921800Y320300D02*
Y339300D01*
Y320300D02*
X932800D01*
X921800Y339300D02*
X932800D01*
X989500Y321300D02*
Y340300D01*
X978500Y321300D02*
Y340300D01*
Y321300D02*
X989500D01*
X978500Y340300D02*
X989500D01*
X644800Y556900D02*
Y575900D01*
X633800Y556900D02*
Y575900D01*
Y556900D02*
X644800D01*
X633800Y575900D02*
X644800D01*
X725880Y810900D02*
X744880D01*
X725880Y799900D02*
X744880D01*
Y810900D01*
X725880Y799900D02*
Y810900D01*
X856300Y423780D02*
Y442780D01*
X845300Y423780D02*
Y442780D01*
Y423780D02*
X856300D01*
X845300Y442780D02*
X856300D01*
X589200Y20220D02*
Y39220D01*
X600200Y20220D02*
Y39220D01*
X589200D02*
X600200D01*
X589200Y20220D02*
X600200D01*
X777900Y10300D02*
Y29300D01*
X766900Y10300D02*
Y29300D01*
Y10300D02*
X777900D01*
X766900Y29300D02*
X777900D01*
X870820Y256600D02*
X889820D01*
X870820Y267600D02*
X889820D01*
X870820Y256600D02*
Y267600D01*
X889820Y256600D02*
Y267600D01*
X866600Y229980D02*
Y248980D01*
X855600Y229980D02*
Y248980D01*
Y229980D02*
X866600D01*
X855600Y248980D02*
X866600D01*
X170100Y612400D02*
X349100D01*
Y549900D02*
Y612400D01*
X170100Y549900D02*
X349100D01*
X170100D02*
Y612400D01*
X5000Y331800D02*
X184000D01*
Y269300D02*
Y331800D01*
X5000Y269300D02*
X184000D01*
X5000D02*
Y331800D01*
X793264Y179914D02*
Y358914D01*
X730764Y179914D02*
X793264D01*
X730764D02*
Y358914D01*
X793264D01*
X184400Y772800D02*
X338400D01*
X184400D02*
Y835300D01*
X338400D01*
Y772800D02*
Y835300D01*
X342300Y773200D02*
X496300D01*
X342300D02*
Y835700D01*
X496300D01*
Y773200D02*
Y835700D01*
X337800Y618800D02*
X491800D01*
X337800D02*
Y681300D01*
X491800D01*
Y618800D02*
Y681300D01*
X934300Y36800D02*
Y140800D01*
X996800D01*
Y36800D02*
Y140800D01*
X934300Y36800D02*
X996800D01*
X895500Y246600D02*
X999500D01*
X895500D02*
Y309100D01*
X999500D01*
Y246600D02*
Y309100D01*
X934500Y142400D02*
Y246400D01*
X997000D01*
Y142400D02*
Y246400D01*
X934500Y142400D02*
X997000D01*
X612600Y119570D02*
Y152830D01*
X631400Y119570D02*
Y152830D01*
X612600D02*
X631400D01*
X612600Y119570D02*
X631400D01*
X585400Y83770D02*
Y117030D01*
X566600Y83770D02*
Y117030D01*
Y83770D02*
X585400D01*
X566600Y117030D02*
X585400D01*
X573480Y819600D02*
X592520D01*
X573480Y830600D02*
X592520D01*
X573480Y819600D02*
Y830600D01*
X592520Y819600D02*
Y830600D01*
X817600Y649080D02*
Y668120D01*
X828600Y649080D02*
Y668120D01*
X817600D02*
X828600D01*
X817600Y649080D02*
X828600D01*
X754679Y714343D02*
X768143Y700879D01*
X762457Y722121D02*
X775921Y708657D01*
X754679Y714343D02*
X762457Y722121D01*
X768143Y700879D02*
X775921Y708657D01*
X762712Y676134D02*
X776175Y689597D01*
X754934Y683912D02*
X768397Y697375D01*
X754934Y683912D02*
X762712Y676134D01*
X768397Y697375D02*
X776175Y689597D01*
X796480Y670200D02*
X815520D01*
X796480Y659200D02*
X815520D01*
Y670200D01*
X796480Y659200D02*
Y670200D01*
X751500Y619380D02*
Y638420D01*
X740500Y619380D02*
Y638420D01*
Y619380D02*
X751500D01*
X740500Y638420D02*
X751500D01*
X740500Y639080D02*
Y658120D01*
X751500Y639080D02*
Y658120D01*
X740500D02*
X751500D01*
X740500Y639080D02*
X751500D01*
X681900Y750400D02*
Y769440D01*
X692900Y750400D02*
Y769440D01*
X681900D02*
X692900D01*
X681900Y750400D02*
X692900D01*
X730100Y749860D02*
Y768900D01*
X741100Y749860D02*
Y768900D01*
X730100D02*
X741100D01*
X730100Y749860D02*
X741100D01*
X530300Y735260D02*
Y754300D01*
X541300Y735260D02*
Y754300D01*
X530300D02*
X541300D01*
X530300Y735260D02*
X541300D01*
X503860Y596300D02*
X522900D01*
X503860Y607300D02*
X522900D01*
X503860Y596300D02*
Y607300D01*
X522900Y596300D02*
Y607300D01*
X674500Y555980D02*
Y575020D01*
X663500Y555980D02*
Y575020D01*
Y555980D02*
X674500D01*
X663500Y575020D02*
X674500D01*
X659080Y759900D02*
X678120D01*
X659080Y748900D02*
X678120D01*
Y759900D01*
X659080Y748900D02*
Y759900D01*
X757200Y433380D02*
Y452420D01*
X746200Y433380D02*
Y452420D01*
Y433380D02*
X757200D01*
X746200Y452420D02*
X757200D01*
X595080Y60100D02*
X614120D01*
X595080Y71100D02*
X614120D01*
X595080Y60100D02*
Y71100D01*
X614120Y60100D02*
Y71100D01*
X763500Y574260D02*
Y593300D01*
X752500Y574260D02*
Y593300D01*
Y574260D02*
X763500D01*
X752500Y593300D02*
X763500D01*
X830200Y576280D02*
Y595320D01*
X819200Y576280D02*
Y595320D01*
Y576280D02*
X830200D01*
X819200Y595320D02*
X830200D01*
X459257Y502679D02*
X472721Y516143D01*
X451479Y510457D02*
X464943Y523921D01*
X451479Y510457D02*
X459257Y502679D01*
X464943Y523921D02*
X472721Y516143D01*
X819100Y215200D02*
X838140D01*
X819100Y226200D02*
X838140D01*
X819100Y215200D02*
Y226200D01*
X838140Y215200D02*
Y226200D01*
X219500Y358800D02*
X430641D01*
Y389200D01*
X219500D02*
X430641D01*
X219500Y358800D02*
Y389200D01*
Y511200D02*
Y541600D01*
X430641D01*
Y511200D02*
Y541600D01*
X219500Y511200D02*
X430641D01*
X5600Y358300D02*
X216741D01*
Y388700D01*
X5600D02*
X216741D01*
X5600Y358300D02*
Y388700D01*
Y510700D02*
Y541100D01*
X216741D01*
Y510700D02*
Y541100D01*
X5600Y510700D02*
X216741D01*
X548214Y180773D02*
Y391914D01*
Y180773D02*
X578614D01*
Y391914D01*
X548214D02*
X578614D01*
X700614D02*
X731014D01*
Y180773D02*
Y391914D01*
X700614Y180773D02*
X731014D01*
X700614D02*
Y391914D01*
D221*
X811330Y619670D02*
Y633330D01*
X779870D02*
X811330D01*
X779870Y619670D02*
Y633330D01*
Y619670D02*
X811330D01*
X811230Y605170D02*
Y618830D01*
X779770D02*
X811230D01*
X779770Y605170D02*
Y618830D01*
Y605170D02*
X811230D01*
X797130Y579570D02*
Y593230D01*
X765670D02*
X797130D01*
X765670Y579570D02*
Y593230D01*
Y579570D02*
X797130D01*
X779670Y552070D02*
Y565730D01*
Y552070D02*
X811130D01*
Y565730D01*
X779670D02*
X811130D01*
X779670Y537170D02*
Y550830D01*
Y537170D02*
X811130D01*
Y550830D01*
X779670D02*
X811130D01*
X382030Y713770D02*
Y726430D01*
X358570D02*
X382030D01*
X358570Y713770D02*
Y726430D01*
Y713770D02*
X382030D01*
X513530Y709470D02*
Y722130D01*
X490070D02*
X513530D01*
X490070Y709470D02*
Y722130D01*
Y709470D02*
X513530D01*
X641130Y782670D02*
Y795330D01*
X617670D02*
X641130D01*
X617670Y782670D02*
Y795330D01*
Y782670D02*
X641130D01*
X651070Y83330D02*
X663730D01*
X651070Y59870D02*
Y83330D01*
Y59870D02*
X663730D01*
Y83330D01*
X541670Y746670D02*
Y780130D01*
X557330D01*
Y746670D02*
Y780130D01*
X541670Y746670D02*
X557330D01*
X694370Y749990D02*
Y783450D01*
X710030D01*
Y749990D02*
Y783450D01*
X694370Y749990D02*
X710030D01*
X712670Y749770D02*
Y783230D01*
X728330D01*
Y749770D02*
Y783230D01*
X712670Y749770D02*
X728330D01*
X886430Y221570D02*
Y255030D01*
X870770Y221570D02*
X886430D01*
X870770D02*
Y255030D01*
X886430D01*
M02*
