G04*
G04 #@! TF.GenerationSoftware,Altium Limited,Altium Designer,25.2.1 (25)*
G04*
G04 Layer_Color=255*
%FSLAX44Y44*%
%MOMM*%
G71*
G04*
G04 #@! TF.SameCoordinates,965F6EC9-4211-4512-97E5-58CA1C1A5C92*
G04*
G04*
G04 #@! TF.FilePolarity,Positive*
G04*
G01*
G75*
G04:AMPARAMS|DCode=28|XSize=0.635mm|YSize=0.635mm|CornerRadius=0.1588mm|HoleSize=0mm|Usage=FLASHONLY|Rotation=270.000|XOffset=0mm|YOffset=0mm|HoleType=Round|Shape=RoundedRectangle|*
%AMROUNDEDRECTD28*
21,1,0.6350,0.3175,0,0,270.0*
21,1,0.3175,0.6350,0,0,270.0*
1,1,0.3175,-0.1588,-0.1588*
1,1,0.3175,-0.1588,0.1588*
1,1,0.3175,0.1588,0.1588*
1,1,0.3175,0.1588,-0.1588*
%
%ADD28ROUNDEDRECTD28*%
G04:AMPARAMS|DCode=64|XSize=0.54mm|YSize=0.6mm|CornerRadius=0.0675mm|HoleSize=0mm|Usage=FLASHONLY|Rotation=0.000|XOffset=0mm|YOffset=0mm|HoleType=Round|Shape=RoundedRectangle|*
%AMROUNDEDRECTD64*
21,1,0.5400,0.4650,0,0,0.0*
21,1,0.4050,0.6000,0,0,0.0*
1,1,0.1350,0.2025,-0.2325*
1,1,0.1350,-0.2025,-0.2325*
1,1,0.1350,-0.2025,0.2325*
1,1,0.1350,0.2025,0.2325*
%
%ADD64ROUNDEDRECTD64*%
%ADD70R,1.1000X1.0000*%
%ADD144R,1.5500X1.5500*%
%ADD145C,1.5500*%
%ADD183C,2.7750*%
%ADD184R,2.7750X2.7750*%
%ADD185C,2.4000*%
%ADD186C,0.6500*%
%ADD187O,2.1000X1.0000*%
%ADD188O,1.8000X1.0000*%
%ADD189O,1.0000X1.8000*%
%ADD190O,1.0000X2.1000*%
%ADD191C,0.5000*%
%ADD192C,3.3000*%
%ADD193C,1.4480*%
%ADD194R,1.4480X1.4480*%
%ADD195C,2.4300*%
%ADD196R,1.4480X1.4480*%
%ADD197C,1.5080*%
%ADD198O,2.4000X1.2000*%
%ADD199R,3.7160X3.7160*%
%ADD200C,3.7160*%
%ADD201R,1.5080X1.5080*%
%ADD202R,1.5080X1.5080*%
%ADD203C,1.6500*%
%ADD204C,1.0000*%
%ADD205C,1.4500*%
%ADD206R,1.4500X1.4500*%
%ADD207R,1.4500X1.4500*%
%ADD208C,1.4000*%
%ADD209R,1.4000X1.4000*%
%ADD210R,1.4000X1.4000*%
D28*
X604145Y603500D02*
D03*
X595255D02*
D03*
X657155Y688000D02*
D03*
X666045D02*
D03*
X658110Y610100D02*
D03*
X667000D02*
D03*
X666745Y619200D02*
D03*
X657855D02*
D03*
X657800Y628200D02*
D03*
X666690D02*
D03*
X666545Y666800D02*
D03*
X657655D02*
D03*
D64*
X657960Y637800D02*
D03*
X666600D02*
D03*
X657980Y652400D02*
D03*
X666620D02*
D03*
D70*
X555700Y612200D02*
D03*
X572700D02*
D03*
D144*
X413900Y717600D02*
D03*
D145*
Y742600D02*
D03*
D183*
X479800Y157300D02*
D03*
Y204300D02*
D03*
Y70600D02*
D03*
Y23600D02*
D03*
D184*
Y251300D02*
D03*
Y117600D02*
D03*
D185*
X367600Y180500D02*
D03*
Y214500D02*
D03*
X268400Y180500D02*
D03*
Y214500D02*
D03*
X269000Y103200D02*
D03*
Y69200D02*
D03*
X368200Y103200D02*
D03*
Y69200D02*
D03*
D186*
X937600Y724300D02*
D03*
Y782100D02*
D03*
X894600Y65550D02*
D03*
X836800D02*
D03*
D187*
X932600Y796400D02*
D03*
Y710000D02*
D03*
D188*
X974400Y796400D02*
D03*
Y710000D02*
D03*
D189*
X822500Y28750D02*
D03*
X908900D02*
D03*
D190*
X822500Y70550D02*
D03*
X908900D02*
D03*
D191*
X959500Y552000D02*
D03*
Y632000D02*
D03*
D192*
X924380Y944600D02*
D03*
X797380D02*
D03*
X728700Y946200D02*
D03*
X601700D02*
D03*
X526800Y945100D02*
D03*
X399800D02*
D03*
X57350Y714460D02*
D03*
Y587460D02*
D03*
Y910840D02*
D03*
Y783840D02*
D03*
X332800Y945300D02*
D03*
X205800D02*
D03*
D193*
X896440Y901400D02*
D03*
X886280Y919200D02*
D03*
X876120Y901400D02*
D03*
X865960Y919200D02*
D03*
X855800Y901400D02*
D03*
X845640Y919200D02*
D03*
X835480Y901400D02*
D03*
X700760Y903000D02*
D03*
X690600Y920800D02*
D03*
X680440Y903000D02*
D03*
X670280Y920800D02*
D03*
X660120Y903000D02*
D03*
X649960Y920800D02*
D03*
X639800Y903000D02*
D03*
X498860Y901900D02*
D03*
X488700Y919700D02*
D03*
X478540Y901900D02*
D03*
X468380Y919700D02*
D03*
X458220Y901900D02*
D03*
X448060Y919700D02*
D03*
X437900Y901900D02*
D03*
X100550Y686520D02*
D03*
X82750Y676360D02*
D03*
X100550Y666200D02*
D03*
X82750Y656040D02*
D03*
X100550Y645880D02*
D03*
X82750Y635720D02*
D03*
X100550Y625560D02*
D03*
Y882900D02*
D03*
X82750Y872740D02*
D03*
X100550Y862580D02*
D03*
X82750Y852420D02*
D03*
X100550Y842260D02*
D03*
X82750Y832100D02*
D03*
X100550Y821940D02*
D03*
X304860Y902100D02*
D03*
X294700Y919900D02*
D03*
X284540Y902100D02*
D03*
X274380Y919900D02*
D03*
X264220Y902100D02*
D03*
X254060Y919900D02*
D03*
X243900Y902100D02*
D03*
D194*
X825320Y919200D02*
D03*
X629640Y920800D02*
D03*
X427740Y919700D02*
D03*
X233740Y919900D02*
D03*
D195*
X942180Y910300D02*
D03*
X779580D02*
D03*
X746500Y911900D02*
D03*
X583900D02*
D03*
X544600Y910800D02*
D03*
X382000D02*
D03*
X91650Y732260D02*
D03*
Y569660D02*
D03*
Y928640D02*
D03*
Y766040D02*
D03*
X350600Y911000D02*
D03*
X188000D02*
D03*
D196*
X82750Y615400D02*
D03*
Y811780D02*
D03*
D197*
X257000Y649400D02*
D03*
Y725400D02*
D03*
X272100Y575900D02*
D03*
X247100D02*
D03*
X297100D02*
D03*
X222100D02*
D03*
X197100D02*
D03*
X107000Y295300D02*
D03*
X82000D02*
D03*
X132000D02*
D03*
X57000D02*
D03*
X32000D02*
D03*
X756764Y256914D02*
D03*
Y281914D02*
D03*
Y231914D02*
D03*
Y306914D02*
D03*
Y331914D02*
D03*
X261400Y809300D02*
D03*
X286400D02*
D03*
X236400D02*
D03*
X311400D02*
D03*
X419300Y809700D02*
D03*
X444300D02*
D03*
X394300D02*
D03*
X469300D02*
D03*
X414800Y655300D02*
D03*
X439800D02*
D03*
X389800D02*
D03*
X464800D02*
D03*
X970800Y63800D02*
D03*
Y88800D02*
D03*
X972500Y283100D02*
D03*
X947500D02*
D03*
X971000Y169400D02*
D03*
Y194400D02*
D03*
D198*
X106250Y237800D02*
D03*
Y102800D02*
D03*
D199*
X166250Y206300D02*
D03*
D200*
Y134300D02*
D03*
D201*
X322100Y575900D02*
D03*
X157000Y295300D02*
D03*
X211400Y809300D02*
D03*
X369300Y809700D02*
D03*
X364800Y655300D02*
D03*
X922500Y283100D02*
D03*
D202*
X756764Y206914D02*
D03*
X970800Y113800D02*
D03*
X971000Y219400D02*
D03*
D203*
X833800Y821300D02*
D03*
X884600D02*
D03*
X859200D02*
D03*
X808400D02*
D03*
X783000D02*
D03*
D204*
X26000Y26000D02*
D03*
Y974000D02*
D03*
X974000D02*
D03*
Y26000D02*
D03*
D205*
X310900Y374000D02*
D03*
X285500D02*
D03*
X260100D02*
D03*
X362930Y373786D02*
D03*
X388330D02*
D03*
X336514D02*
D03*
X413730Y373532D02*
D03*
Y525932D02*
D03*
X336514Y526186D02*
D03*
X388330D02*
D03*
X362930D02*
D03*
X260100Y526400D02*
D03*
X285500D02*
D03*
X310900D02*
D03*
X234700Y374000D02*
D03*
X97000Y373500D02*
D03*
X71600D02*
D03*
X46200D02*
D03*
X149030Y373286D02*
D03*
X174430D02*
D03*
X122614D02*
D03*
X199830Y373032D02*
D03*
Y525432D02*
D03*
X122614Y525686D02*
D03*
X174430D02*
D03*
X149030D02*
D03*
X46200Y525900D02*
D03*
X71600D02*
D03*
X97000D02*
D03*
X20800Y373500D02*
D03*
X563414Y300514D02*
D03*
Y325914D02*
D03*
Y351314D02*
D03*
X563200Y248484D02*
D03*
Y223084D02*
D03*
Y274900D02*
D03*
X562946Y197684D02*
D03*
X715346D02*
D03*
X715600Y274900D02*
D03*
Y223084D02*
D03*
Y248484D02*
D03*
X715814Y351314D02*
D03*
Y325914D02*
D03*
Y300514D02*
D03*
X563414Y376714D02*
D03*
D206*
X234700Y526400D02*
D03*
X20800Y525900D02*
D03*
D207*
X715814Y376714D02*
D03*
D208*
X353000Y302400D02*
D03*
X487300Y373400D02*
D03*
X220200Y302400D02*
D03*
D209*
X403000D02*
D03*
X270200D02*
D03*
D210*
X487300Y323400D02*
D03*
M02*
