G04*
G04 #@! TF.GenerationSoftware,Altium Limited,Altium Designer,25.2.1 (25)*
G04*
G04 Layer_Physical_Order=3*
G04 Layer_Color=65280*
%FSLAX44Y44*%
%MOMM*%
G71*
G04*
G04 #@! TF.SameCoordinates,965F6EC9-4211-4512-97E5-58CA1C1A5C92*
G04*
G04*
G04 #@! TF.FilePolarity,Positive*
G04*
G01*
G75*
%ADD144R,1.5500X1.5500*%
%ADD145C,1.5500*%
%ADD169C,0.4500*%
%ADD175C,0.2540*%
%ADD183C,2.7750*%
%ADD185C,2.4000*%
%ADD186C,0.6500*%
%ADD187O,2.1000X1.0000*%
%ADD188O,1.8000X1.0000*%
%ADD189O,1.0000X1.8000*%
%ADD190O,1.0000X2.1000*%
%ADD191C,0.5000*%
%ADD192C,3.3000*%
%ADD193C,1.4480*%
%ADD195C,2.4300*%
%ADD197C,1.5080*%
%ADD198O,2.4000X1.2000*%
%ADD200C,3.7160*%
%ADD203C,1.6500*%
%ADD204C,1.0000*%
%ADD205C,1.4500*%
%ADD208C,1.4000*%
%ADD209R,1.4000X1.4000*%
%ADD210R,1.4000X1.4000*%
%ADD211C,1.2700*%
%ADD212C,0.3500*%
%ADD213C,0.6000*%
%ADD214C,2.1500*%
G36*
X530200Y794000D02*
X529700Y793500D01*
Y782900D01*
X515400D01*
X514100Y781600D01*
Y761100D01*
X529900Y745300D01*
Y739800D01*
X531200D01*
X534332Y736668D01*
X534207Y735900D01*
X538900D01*
X550300Y724500D01*
X555200Y719600D01*
X620400D01*
X621500Y718500D01*
Y713400D01*
X550300D01*
Y628800D01*
X615000D01*
X634600Y609200D01*
X669900D01*
Y654200D01*
X671200Y655500D01*
X671300Y655400D01*
X678600D01*
X678900Y655200D01*
Y649092D01*
X677630Y648566D01*
X677441Y648755D01*
X676246Y649250D01*
X674954D01*
X673759Y648755D01*
X672845Y647841D01*
X672350Y646646D01*
Y645353D01*
X672845Y644159D01*
X673759Y643245D01*
X674954Y642750D01*
X676246D01*
X677441Y643245D01*
X677630Y643434D01*
X678900Y642908D01*
Y628399D01*
X677630Y627873D01*
X677424Y628079D01*
X676046Y628650D01*
X674554D01*
X673176Y628079D01*
X672121Y627024D01*
X671550Y625646D01*
Y624154D01*
X672121Y622776D01*
X672717Y622180D01*
X673080Y621465D01*
X672728Y620532D01*
X672221Y620024D01*
X671650Y618646D01*
Y617154D01*
X672221Y615776D01*
X673117Y614880D01*
X673276Y614721D01*
X673253Y613356D01*
X673121Y613224D01*
X672550Y611846D01*
Y610354D01*
X673121Y608976D01*
X674176Y607921D01*
X675554Y607350D01*
X677046D01*
X677570Y607567D01*
X678424Y607921D01*
X679479Y608976D01*
X679572Y609200D01*
X684920D01*
X685736Y608227D01*
X685660Y607800D01*
X756795D01*
X765700Y619254D01*
Y661200D01*
X863800Y759300D01*
X856400Y766700D01*
Y771700D01*
X866700Y782000D01*
X873200D01*
X876500Y778700D01*
Y759300D01*
X893013D01*
X893450Y758646D01*
Y757154D01*
X894021Y755776D01*
X895076Y754721D01*
X896454Y754150D01*
X897946D01*
X899324Y754721D01*
X900379Y755776D01*
X900950Y757154D01*
Y758646D01*
X901387Y759300D01*
X911037D01*
X911599Y758030D01*
X911150Y756946D01*
Y755454D01*
X911721Y754076D01*
X912597Y753200D01*
X911721Y752324D01*
X911150Y750946D01*
Y749454D01*
X911721Y748076D01*
X912327Y747470D01*
X911801Y746200D01*
X901153D01*
X901050Y746354D01*
Y747846D01*
X900479Y749224D01*
X899424Y750279D01*
X898046Y750850D01*
X896554D01*
X895176Y750279D01*
X894121Y749224D01*
X893550Y747846D01*
Y746354D01*
X893447Y746200D01*
X874000D01*
X873600Y746600D01*
X779400Y652400D01*
Y639200D01*
X780416Y638184D01*
X781206Y639200D01*
X794000D01*
X794700Y638500D01*
Y606400D01*
X812674D01*
X813134Y605130D01*
X812545Y604541D01*
X812050Y603346D01*
Y602053D01*
X812545Y600859D01*
X813459Y599945D01*
X814653Y599450D01*
X815947D01*
X817141Y599945D01*
X818055Y600859D01*
X818550Y602053D01*
Y603346D01*
X818055Y604541D01*
X817466Y605130D01*
X817926Y606400D01*
X832300D01*
Y608901D01*
X833570Y609427D01*
X833876Y609121D01*
X835254Y608550D01*
X836746D01*
X838124Y609121D01*
X839179Y610176D01*
X839750Y611554D01*
Y613046D01*
X839179Y614424D01*
X838124Y615479D01*
X836746Y616050D01*
X835254D01*
X833876Y615479D01*
X833570Y615173D01*
X832300Y615699D01*
Y630800D01*
X864400D01*
X869500Y625700D01*
X902400D01*
Y607800D01*
X908900Y601300D01*
X932500D01*
Y584800D01*
X932900Y584400D01*
X930000Y581500D01*
X918000D01*
Y540000D01*
X907500Y529500D01*
Y509300D01*
X902700Y504500D01*
X995741D01*
X996227Y503327D01*
X994300Y501400D01*
Y310600D01*
X893900D01*
X891200Y307900D01*
Y234220D01*
X890646Y233850D01*
X889154D01*
X887776Y233279D01*
X886721Y232224D01*
X886150Y230846D01*
Y229354D01*
X886721Y227976D01*
X887776Y226921D01*
X889154Y226350D01*
X890646D01*
X891200Y225980D01*
Y188900D01*
X825500D01*
X823800Y190600D01*
X824700Y191500D01*
Y211900D01*
X837300Y224500D01*
Y236500D01*
X786100D01*
X784900Y235300D01*
X783600Y236600D01*
Y416200D01*
X830300Y462900D01*
Y499000D01*
X794800D01*
X790200Y494400D01*
X751096D01*
X750648Y494848D01*
X749500Y495324D01*
X706676D01*
X705400Y496600D01*
X703800Y495000D01*
Y494909D01*
X703652Y494848D01*
X703176Y493700D01*
Y476300D01*
Y466000D01*
X685500D01*
Y400800D01*
X683700Y399000D01*
X670500D01*
X670300Y398800D01*
X644900D01*
X587900Y341800D01*
X550700D01*
Y343269D01*
X549627Y342873D01*
X541800Y350700D01*
Y394200D01*
X533200Y402800D01*
X283000D01*
Y400800D01*
X268600Y386400D01*
Y365600D01*
X251600D01*
Y386200D01*
X259200Y393800D01*
Y400200D01*
X258800Y400600D01*
X64000D01*
X54100Y390700D01*
Y364600D01*
X40146D01*
X39000Y364900D01*
X39000Y365946D01*
Y395000D01*
X59600Y415600D01*
X259200D01*
Y415800D01*
X535100D01*
X551500Y399400D01*
X551500Y358900D01*
X552000Y358400D01*
X580100D01*
Y364300D01*
X596748Y380948D01*
X597576Y380121D01*
X598954Y379550D01*
X600446D01*
X601824Y380121D01*
X602785Y381082D01*
X603500Y381132D01*
X604215Y381082D01*
X605176Y380121D01*
X606554Y379550D01*
X608046D01*
X609424Y380121D01*
X610479Y381176D01*
X611050Y382554D01*
Y384046D01*
X610479Y385424D01*
X609424Y386479D01*
X608046Y387050D01*
X606554D01*
X605176Y386479D01*
X604266Y385569D01*
X603002Y385656D01*
X602440Y386640D01*
X628400Y412600D01*
X670500D01*
Y466700D01*
D01*
X662900Y474300D01*
Y486400D01*
X639979D01*
X660565Y475533D01*
X660259Y474300D01*
X626100D01*
X585900Y434100D01*
X526200D01*
X524300Y436000D01*
X508000Y419700D01*
X489900D01*
X480300Y429300D01*
Y449600D01*
X490000Y459300D01*
X513800D01*
X514200Y459350D01*
Y480600D01*
X475000Y519800D01*
X509050Y553850D01*
X493600Y569300D01*
Y655872D01*
X493695Y655988D01*
X494870Y656616D01*
X495754Y656250D01*
X496287D01*
X497054Y654980D01*
X496750Y654246D01*
Y652754D01*
X497321Y651376D01*
X498376Y650321D01*
X499754Y649750D01*
X501246D01*
X502624Y650321D01*
X503679Y651376D01*
X504250Y652754D01*
Y654246D01*
X503679Y655624D01*
X502624Y656679D01*
X502612Y656684D01*
X502920Y657931D01*
X523900Y656000D01*
Y655100D01*
X537346D01*
Y654297D01*
X540205Y651438D01*
X540521Y650676D01*
X541576Y649621D01*
X542046Y649426D01*
X542954Y649050D01*
X544446D01*
X545824Y649621D01*
X546879Y650676D01*
X547450Y652054D01*
Y653546D01*
X546879Y654924D01*
X545824Y655979D01*
X544446Y656550D01*
X542954D01*
X541576Y655979D01*
X540870Y655273D01*
X539600Y655767D01*
Y695479D01*
X540864Y696330D01*
X542156D01*
X543351Y696825D01*
X544265Y697739D01*
X544760Y698933D01*
Y700226D01*
X544265Y701421D01*
X543351Y702335D01*
X542156Y702830D01*
X540864D01*
X539600Y703681D01*
Y723800D01*
X534800Y728600D01*
X528300D01*
Y732500D01*
X520800Y740000D01*
Y746100D01*
X503200Y763700D01*
Y795700D01*
X528500D01*
X530200Y794000D01*
D02*
G37*
G36*
X938227Y765130D02*
X937921Y764824D01*
X937350Y763446D01*
Y761954D01*
X937921Y760576D01*
X938117Y760380D01*
X938876Y759479D01*
X937821Y758424D01*
X937250Y757046D01*
Y755554D01*
X937821Y754176D01*
X938697Y753300D01*
X937821Y752424D01*
X937250Y751046D01*
Y749554D01*
X937821Y748176D01*
X938697Y747300D01*
X937821Y746424D01*
X937250Y745046D01*
Y743554D01*
X937821Y742176D01*
X938727Y741270D01*
X938610Y740568D01*
X938337Y740000D01*
X919500D01*
X914320Y745180D01*
X914846Y746450D01*
X915646D01*
X917024Y747021D01*
X918079Y748076D01*
X918650Y749454D01*
Y750946D01*
X918079Y752324D01*
X917203Y753200D01*
X918079Y754076D01*
X918650Y755454D01*
Y756946D01*
X918079Y758324D01*
X917024Y759379D01*
X915787Y759891D01*
X915500Y760520D01*
X915320Y761220D01*
X920500Y766400D01*
X937701D01*
X938227Y765130D01*
D02*
G37*
G36*
X923500Y909000D02*
X876900Y862400D01*
X841000D01*
X809650Y831050D01*
X807116D01*
X804637Y830386D01*
X802413Y829102D01*
X800598Y827287D01*
X799314Y825063D01*
X798650Y822584D01*
Y820050D01*
X767050Y788450D01*
X812400Y743100D01*
X830400D01*
Y733400D01*
X819600Y722600D01*
X808100D01*
X754650Y776050D01*
X692400Y713800D01*
X691700Y714500D01*
X678316D01*
X678041Y714775D01*
X676846Y715270D01*
X675554D01*
X674359Y714775D01*
X674084Y714500D01*
X628800D01*
X622994Y720306D01*
X623041Y720545D01*
X623955Y721459D01*
X624450Y722654D01*
Y723947D01*
X623955Y725141D01*
X623041Y726055D01*
X621847Y726550D01*
X621400D01*
Y728333D01*
X621450Y728454D01*
Y729554D01*
Y729746D01*
D01*
Y729746D01*
X621100Y730591D01*
Y732500D01*
X617000D01*
Y746700D01*
X616500Y747200D01*
Y763300D01*
X544900Y834900D01*
X544100D01*
Y873200D01*
X534000Y883300D01*
X423100D01*
X421600Y884800D01*
Y867900D01*
X365273D01*
X364900Y868800D01*
Y881600D01*
X332900D01*
X330300Y884200D01*
X329200Y883100D01*
X200300D01*
Y869700D01*
X191000D01*
X146300Y825000D01*
Y723400D01*
X168100Y701600D01*
X379598D01*
X379993Y700893D01*
X386900Y707800D01*
Y745900D01*
X333900Y798900D01*
X194300D01*
Y827727D01*
X195200Y828100D01*
X379200D01*
Y805700D01*
X402400Y782500D01*
X418700D01*
Y758900D01*
X431700Y745900D01*
Y711900D01*
X433700Y709900D01*
X441500D01*
X462100Y689300D01*
X488500D01*
X493700Y684100D01*
Y682700D01*
X517300D01*
X525100Y674900D01*
Y670700D01*
X537300D01*
X537976Y670024D01*
Y669376D01*
X537346Y668746D01*
Y656724D01*
X525246D01*
X525149Y657038D01*
X525078Y657075D01*
X525048Y657148D01*
X524538Y657359D01*
X524049Y657617D01*
X517320Y658236D01*
X508356Y667200D01*
X505974D01*
X504646Y667750D01*
X503154D01*
X501826Y667200D01*
X378000D01*
X377700Y667500D01*
Y649500D01*
X382816D01*
X384249Y648066D01*
X386311Y646876D01*
X388610Y646260D01*
X390240D01*
X396700Y639800D01*
X409500D01*
X439100Y610200D01*
X439000Y610100D01*
Y550400D01*
X387000D01*
X385900Y551096D01*
Y592700D01*
X364071Y614529D01*
X364136Y615798D01*
X364136D01*
X364136D01*
X364136Y621464D01*
X347300Y638300D01*
X334500D01*
Y567000D01*
X331600Y564100D01*
X311600D01*
Y638300D01*
X301300D01*
X281900Y618900D01*
X219000D01*
X195200Y642700D01*
X136800D01*
X83950Y589850D01*
X85200Y588600D01*
X73409Y576809D01*
X72423Y577619D01*
X73301Y578934D01*
X74658Y582210D01*
X75350Y585687D01*
Y589233D01*
X74658Y592710D01*
X73301Y595986D01*
X71332Y598934D01*
X68824Y601441D01*
X65876Y603411D01*
X62600Y604768D01*
X59123Y605460D01*
X55577D01*
X52100Y604768D01*
X48824Y603411D01*
X45876Y601441D01*
X43369Y598934D01*
X41399Y595986D01*
X40042Y592710D01*
X39350Y589233D01*
Y585687D01*
X40042Y582210D01*
X41399Y578934D01*
X43369Y575986D01*
X45876Y573479D01*
X48824Y571509D01*
X52100Y570152D01*
X55577Y569460D01*
X59123D01*
X61185Y569870D01*
D01*
X62600Y570152D01*
X65876Y571509D01*
X67191Y572387D01*
X68001Y571401D01*
X39000Y542400D01*
Y530929D01*
X38046Y529277D01*
X37450Y527052D01*
Y524748D01*
X38046Y522523D01*
X39000Y520871D01*
Y397296D01*
X37852Y396148D01*
X37376Y395000D01*
Y365946D01*
X37376Y364900D01*
X37540Y364504D01*
X37599Y364080D01*
X37770Y363950D01*
X37852Y363752D01*
X38247Y363588D01*
X38589Y363329D01*
X39000Y363222D01*
Y302744D01*
X37827Y302258D01*
X37551Y302534D01*
X35489Y303724D01*
X33190Y304340D01*
X30810D01*
X28511Y303724D01*
X26449Y302534D01*
X24766Y300851D01*
X23576Y298789D01*
X22960Y296490D01*
Y294110D01*
X23576Y291811D01*
X24766Y289749D01*
X26449Y288066D01*
X28511Y286876D01*
X30810Y286260D01*
X33190D01*
X35489Y286876D01*
X37551Y288066D01*
X37827Y288342D01*
X39000Y287856D01*
Y282900D01*
X49000Y272900D01*
X51400Y275300D01*
X140200D01*
Y291423D01*
X140424Y291811D01*
X141040Y294110D01*
Y296490D01*
X140882Y297082D01*
X151900Y308100D01*
X154200Y305800D01*
X176200D01*
Y266300D01*
X153500Y243600D01*
X117011D01*
X116032Y244351D01*
X114208Y245107D01*
X112250Y245365D01*
X100250D01*
X98292Y245107D01*
X96468Y244351D01*
X95489Y243600D01*
X50600D01*
Y65600D01*
X78900Y37300D01*
X470343D01*
X470729Y36030D01*
X469999Y35543D01*
X467858Y33401D01*
X466175Y30883D01*
X465016Y28085D01*
X464425Y25114D01*
Y22086D01*
X465016Y19115D01*
X466175Y16317D01*
X467858Y13799D01*
X469999Y11657D01*
X472517Y9975D01*
X475315Y8816D01*
X478286Y8225D01*
X481314D01*
X484285Y8816D01*
X487083Y9975D01*
X489601Y11657D01*
X491743Y13799D01*
X493425Y16317D01*
X494584Y19115D01*
X495175Y22086D01*
Y25114D01*
X494584Y28085D01*
X493425Y30883D01*
X491743Y33401D01*
X489601Y35543D01*
X488871Y36030D01*
X489257Y37300D01*
X763600D01*
Y49700D01*
X758831D01*
X757600Y50000D01*
X757500Y51170D01*
Y134500D01*
X757700Y134700D01*
X748200Y144200D01*
X739700D01*
Y391500D01*
X732700Y398500D01*
X704800D01*
Y458704D01*
X705255Y459159D01*
X705750Y460354D01*
Y461646D01*
X705255Y462841D01*
X704800Y463296D01*
Y476300D01*
Y493700D01*
X749500D01*
X759200Y484000D01*
Y467600D01*
X744300D01*
X744100Y467800D01*
X742900Y466600D01*
X720100D01*
X718800Y465300D01*
X719000Y465100D01*
Y447200D01*
X736000D01*
X739700Y443500D01*
X738900Y442700D01*
Y421600D01*
X773700D01*
X774200Y422100D01*
X781300Y415000D01*
Y233300D01*
X821201D01*
X821727Y232030D01*
X821421Y231724D01*
X820850Y230346D01*
Y228854D01*
X821421Y227476D01*
X822476Y226421D01*
X823854Y225850D01*
X825346D01*
X826724Y226421D01*
X827170Y226867D01*
X828000Y227348D01*
X828830Y226867D01*
X829276Y226421D01*
X830654Y225850D01*
X831954D01*
X832336Y225332D01*
X832577Y224677D01*
X814100Y206200D01*
Y182000D01*
X814400D01*
X868900Y127500D01*
X870300Y128900D01*
X939900D01*
Y243900D01*
X940200Y244200D01*
X910700Y273700D01*
X908800D01*
Y301100D01*
X910100Y302400D01*
X910200Y302300D01*
X990000D01*
Y32900D01*
X986211Y29111D01*
X984984Y29439D01*
X984716Y30439D01*
X983202Y33061D01*
X981061Y35202D01*
X978439Y36716D01*
X975514Y37500D01*
X972486D01*
X969561Y36716D01*
X966939Y35202D01*
X964798Y33061D01*
X963284Y30439D01*
X962500Y27514D01*
Y24486D01*
X963284Y21561D01*
X964798Y18939D01*
X966939Y16798D01*
X969561Y15284D01*
X970561Y15016D01*
X970889Y13789D01*
X960300Y3200D01*
X782700D01*
X782500Y3000D01*
X587800D01*
Y3400D01*
X57100Y3400D01*
X37186Y23314D01*
X37500Y24486D01*
Y27514D01*
X36716Y30439D01*
X35202Y33061D01*
X33061Y35202D01*
X30439Y36716D01*
X27514Y37500D01*
X24486D01*
X23314Y37186D01*
X5000Y55500D01*
Y534000D01*
X4700D01*
Y662600D01*
X5500Y663400D01*
X3600Y665300D01*
X7000Y668700D01*
Y807400D01*
X33800Y834200D01*
X52300D01*
Y867300D01*
X114100Y929100D01*
X115600D01*
Y980200D01*
X127300Y991900D01*
X840600D01*
X923500Y909000D01*
D02*
G37*
G36*
X502000Y223000D02*
Y182000D01*
X469000D01*
X459000Y192000D01*
X394000D01*
X390000Y188000D01*
Y158000D01*
X346000D01*
X342766Y161234D01*
X342766Y229000D01*
X496000D01*
X502000Y223000D01*
D02*
G37*
G36*
X212000Y388900D02*
X218200Y382700D01*
Y363781D01*
X220195Y361900D01*
X246800D01*
X261700Y347000D01*
X353000D01*
X378360Y372360D01*
X379760Y371964D01*
X380176Y370409D01*
X381328Y368413D01*
X382957Y366784D01*
X384953Y365632D01*
X387178Y365036D01*
X389482D01*
X391707Y365632D01*
X393703Y366784D01*
X395332Y368413D01*
X396484Y370409D01*
X397080Y372634D01*
Y374938D01*
X396484Y377163D01*
X395332Y379159D01*
X393703Y380788D01*
X391707Y381940D01*
X389482Y382536D01*
X387178D01*
X386008Y382222D01*
X385000Y382995D01*
Y387000D01*
X446000D01*
X491000Y342000D01*
X512000D01*
X517500Y336500D01*
X518500D01*
X547100Y307900D01*
Y306900D01*
X554674Y299326D01*
X555260Y297137D01*
X556412Y295141D01*
X558041Y293512D01*
X560037Y292360D01*
X562226Y291773D01*
X596000Y258000D01*
Y179000D01*
X537000D01*
X509000Y207000D01*
Y231200D01*
X431200D01*
X430000Y232400D01*
Y252000D01*
X419000Y263000D01*
X218000D01*
X190600Y290400D01*
Y316000D01*
X170000D01*
X158000Y328000D01*
Y389000D01*
X189800D01*
X190600Y389800D01*
X212000D01*
Y388900D01*
D02*
G37*
G36*
X386000Y90000D02*
X489000D01*
X499000Y80000D01*
Y59000D01*
X498000D01*
X488000Y49000D01*
X356000D01*
X349000Y56000D01*
Y123000D01*
X386000D01*
Y90000D01*
D02*
G37*
G36*
X287000Y220000D02*
Y43000D01*
X192400D01*
Y171500D01*
X187800Y176100D01*
X149400D01*
X140500Y185000D01*
Y239000D01*
X268000D01*
X287000Y220000D01*
D02*
G37*
%LPC*%
G36*
X539600Y644400D02*
X523900D01*
Y639400D01*
X506200D01*
X505700Y639900D01*
X505623Y639823D01*
X504274Y640270D01*
X503879Y641224D01*
X502824Y642279D01*
X501446Y642850D01*
X499954D01*
X498576Y642279D01*
X497521Y641224D01*
X496950Y639846D01*
Y638354D01*
X497521Y636976D01*
X498576Y635921D01*
X499954Y635350D01*
X501446D01*
X502824Y635921D01*
X502830Y635927D01*
X504100Y635401D01*
Y613100D01*
X515000D01*
X517900Y610200D01*
X522200D01*
Y597800D01*
X522800Y598400D01*
X533500D01*
X544800Y587100D01*
Y576800D01*
X547200Y574400D01*
X570550D01*
Y574383D01*
X571045Y573189D01*
X571959Y572275D01*
X573153Y571780D01*
X574446D01*
X575641Y572275D01*
X577050Y571888D01*
X577145Y571659D01*
X578059Y570745D01*
X579254Y570250D01*
X580546D01*
X581741Y570745D01*
X582655Y571659D01*
X583150Y572854D01*
Y574146D01*
X583319Y574400D01*
X587000D01*
Y572700D01*
X609100Y550600D01*
X627543D01*
X627970Y549568D01*
X628885Y548654D01*
X630079Y548159D01*
X631372D01*
X632567Y548654D01*
X633481Y549568D01*
X633908Y550600D01*
X637933D01*
X638054Y550550D01*
X639346D01*
X640100Y549574D01*
Y533100D01*
X643200Y530000D01*
X663509D01*
X664353Y529650D01*
X665646D01*
X666491Y530000D01*
X682600D01*
X696600Y544000D01*
X731000D01*
Y518700D01*
X731700Y518000D01*
X753700D01*
X770300Y534600D01*
Y572200D01*
X769556D01*
X769248Y572885D01*
X769166Y573470D01*
X769955Y574259D01*
X770450Y575453D01*
Y576746D01*
X769955Y577941D01*
X769041Y578855D01*
X767846Y579350D01*
X766553D01*
X765359Y578855D01*
X764445Y577941D01*
X763950Y576746D01*
Y575453D01*
X764445Y574259D01*
X765234Y573470D01*
X765152Y572885D01*
X764845Y572200D01*
X744900D01*
Y592500D01*
X745211Y592900D01*
X681900D01*
Y566300D01*
X681000Y565400D01*
X680900Y565500D01*
X667900D01*
Y593600D01*
Y593600D01*
X664200Y597300D01*
X663996D01*
X663641Y597655D01*
X662447Y598150D01*
X661153D01*
X659959Y597655D01*
X659604Y597300D01*
X639196D01*
X638941Y597555D01*
X637747Y598050D01*
X636454D01*
X635259Y597555D01*
X635004Y597300D01*
X629976D01*
X629721Y597405D01*
X628428D01*
X627234Y596911D01*
X626320Y595996D01*
X625825Y594802D01*
Y593509D01*
X626320Y592314D01*
X626800Y591834D01*
Y576941D01*
X626700Y576900D01*
X623100D01*
X621600Y578400D01*
Y596400D01*
X626500Y601300D01*
X629500D01*
X611300Y619500D01*
X588438D01*
X588179Y620124D01*
X587124Y621179D01*
X585746Y621750D01*
X584254D01*
X582876Y621179D01*
X581821Y620124D01*
X581562Y619500D01*
X547781D01*
X546932Y620770D01*
X547050Y621054D01*
Y622546D01*
X546479Y623924D01*
X545503Y624900D01*
X546379Y625776D01*
X546950Y627154D01*
Y628646D01*
D01*
Y628646D01*
X546379Y630024D01*
X545324Y631079D01*
X543946Y631650D01*
X542454D01*
X541076Y631079D01*
X540870Y630873D01*
X539600Y631399D01*
Y644400D01*
D02*
G37*
G36*
X864646Y627550D02*
X863154D01*
X861776Y626979D01*
X860721Y625924D01*
X860150Y624546D01*
Y623054D01*
X860721Y621676D01*
X861776Y620621D01*
X863154Y620050D01*
X864646D01*
X866024Y620621D01*
X867079Y621676D01*
X867650Y623054D01*
Y624546D01*
X867079Y625924D01*
X866024Y626979D01*
X864646Y627550D01*
D02*
G37*
G36*
X836196Y605750D02*
X834704D01*
X833570Y605280D01*
X833255Y605412D01*
X833263Y605387D01*
X833277Y605130D01*
X832271Y604124D01*
X831700Y602746D01*
Y601254D01*
X832271Y599876D01*
X833326Y598821D01*
X834704Y598250D01*
X836196D01*
X837574Y598821D01*
X838629Y599876D01*
X839200Y601254D01*
Y602746D01*
X838629Y604124D01*
X837623Y605130D01*
X837574Y605179D01*
X836196Y605750D01*
D02*
G37*
G36*
X804246Y604750D02*
X802953D01*
X801759Y604255D01*
X800845Y603341D01*
X800350Y602146D01*
Y600854D01*
X800845Y599659D01*
X801759Y598745D01*
X802953Y598250D01*
X804246D01*
X805441Y598745D01*
X806355Y599659D01*
X806850Y600854D01*
Y602146D01*
X806355Y603341D01*
X805441Y604255D01*
X804246Y604750D01*
D02*
G37*
G36*
X509546Y595850D02*
X508054D01*
X506676Y595279D01*
X505621Y594224D01*
X505050Y592846D01*
Y591354D01*
X505621Y589976D01*
X506676Y588921D01*
X508054Y588350D01*
X509546D01*
X510924Y588921D01*
X511979Y589976D01*
X512550Y591354D01*
Y592846D01*
X511979Y594224D01*
X510924Y595279D01*
X509546Y595850D01*
D02*
G37*
G36*
X836446Y586550D02*
X834954D01*
X833576Y585979D01*
X832521Y584924D01*
X831950Y583546D01*
Y582054D01*
X832521Y580676D01*
X833576Y579621D01*
X834954Y579050D01*
X836446D01*
X837824Y579621D01*
X838879Y580676D01*
X839450Y582054D01*
Y583546D01*
X838879Y584924D01*
X837824Y585979D01*
X836446Y586550D01*
D02*
G37*
G36*
X824446Y576650D02*
X823154D01*
X821959Y576155D01*
X821045Y575241D01*
X820550Y574047D01*
Y572753D01*
X821045Y571559D01*
X821959Y570645D01*
X823154Y570150D01*
X824446D01*
X825641Y570645D01*
X826555Y571559D01*
X827050Y572753D01*
Y574047D01*
X826555Y575241D01*
X825641Y576155D01*
X824446Y576650D01*
D02*
G37*
G36*
X834192Y576961D02*
X832700D01*
X831322Y576390D01*
X830267Y575335D01*
X829696Y573957D01*
Y572465D01*
X830267Y571087D01*
X831322Y570032D01*
X832700Y569461D01*
X834192D01*
X835571Y570032D01*
X836625Y571087D01*
X837196Y572465D01*
Y573957D01*
X836625Y575335D01*
X835571Y576390D01*
X834192Y576961D01*
D02*
G37*
G36*
X804346Y574150D02*
X803054D01*
X801859Y573655D01*
X800945Y572741D01*
X800450Y571547D01*
Y570253D01*
X800945Y569059D01*
X801859Y568145D01*
X803054Y567650D01*
X804346D01*
X805541Y568145D01*
X806455Y569059D01*
X806950Y570253D01*
Y571250D01*
Y571547D01*
X806455Y572741D01*
X805541Y573655D01*
X804346Y574150D01*
D02*
G37*
G36*
X814410Y570486D02*
X813117D01*
X811923Y569991D01*
X811009Y569077D01*
X810514Y567883D01*
Y566590D01*
X811009Y565395D01*
X811923Y564481D01*
X813117Y563986D01*
X814410D01*
X815605Y564481D01*
X816519Y565395D01*
X817014Y566590D01*
Y567883D01*
X816519Y569077D01*
X815605Y569991D01*
X814410Y570486D01*
D02*
G37*
G36*
X535846Y568250D02*
X534354D01*
X532976Y567679D01*
X531921Y566624D01*
X531350Y565246D01*
Y563754D01*
X531921Y562376D01*
X532976Y561321D01*
X534354Y560750D01*
X535846D01*
X537224Y561321D01*
X538279Y562376D01*
X538850Y563754D01*
Y565246D01*
X538279Y566624D01*
X537224Y567679D01*
X535846Y568250D01*
D02*
G37*
G36*
X864346Y561450D02*
X862854D01*
X861476Y560879D01*
X860421Y559824D01*
X859850Y558446D01*
Y556954D01*
X860421Y555576D01*
X861476Y554521D01*
X862854Y553950D01*
X864346D01*
X865724Y554521D01*
X866779Y555576D01*
X867350Y556954D01*
Y558446D01*
X866779Y559824D01*
X865724Y560879D01*
X864346Y561450D01*
D02*
G37*
G36*
X594096Y555000D02*
X592604D01*
X591226Y554429D01*
X590171Y553374D01*
X589600Y551996D01*
Y550504D01*
X590171Y549126D01*
X591226Y548071D01*
X592604Y547500D01*
X594096D01*
X595475Y548071D01*
X596529Y549126D01*
X597100Y550504D01*
Y551996D01*
X596529Y553374D01*
X595475Y554429D01*
X594096Y555000D01*
D02*
G37*
G36*
X554846Y554950D02*
X553354D01*
X551976Y554379D01*
X550921Y553324D01*
X550350Y551946D01*
Y550454D01*
X550921Y549076D01*
X551976Y548021D01*
X553354Y547450D01*
X554846D01*
X556224Y548021D01*
X557279Y549076D01*
X557850Y550454D01*
Y551946D01*
X557279Y553324D01*
X556224Y554379D01*
X554846Y554950D01*
D02*
G37*
G36*
X564746Y554750D02*
X563254D01*
X561876Y554179D01*
X560821Y553124D01*
X560250Y551746D01*
Y550254D01*
X560821Y548876D01*
X561876Y547821D01*
X563254Y547250D01*
X564746D01*
X566124Y547821D01*
X567179Y548876D01*
X567750Y550254D01*
Y551746D01*
X567179Y553124D01*
X566124Y554179D01*
X564746Y554750D01*
D02*
G37*
G36*
X573674Y554668D02*
X572182D01*
X570803Y554097D01*
X569748Y553042D01*
X569178Y551664D01*
Y550172D01*
X569748Y548793D01*
X570803Y547738D01*
X572182Y547168D01*
X573674D01*
X575052Y547738D01*
X576107Y548793D01*
X576678Y550172D01*
Y551664D01*
X576107Y553042D01*
X575052Y554097D01*
X573674Y554668D01*
D02*
G37*
G36*
X582863Y553067D02*
X581371D01*
X579993Y552496D01*
X578938Y551441D01*
X578367Y550063D01*
Y548571D01*
X578938Y547193D01*
X579993Y546138D01*
X581371Y545567D01*
X582863D01*
X584241Y546138D01*
X585296Y547193D01*
X585867Y548571D01*
Y550063D01*
X585296Y551441D01*
X584241Y552496D01*
X582863Y553067D01*
D02*
G37*
G36*
X864346Y550450D02*
X862854D01*
X861476Y549879D01*
X860421Y548824D01*
X859850Y547446D01*
Y545954D01*
X860421Y544576D01*
X861476Y543521D01*
X862854Y542950D01*
X864346D01*
X865724Y543521D01*
X866779Y544576D01*
X867350Y545954D01*
Y547446D01*
X866779Y548824D01*
X865724Y549879D01*
X864346Y550450D01*
D02*
G37*
G36*
X818858Y538821D02*
X817565D01*
X816371Y538327D01*
X815456Y537412D01*
X814962Y536218D01*
Y534925D01*
X815456Y533731D01*
X816371Y532816D01*
X817565Y532321D01*
X818858D01*
X820053Y532816D01*
X820967Y533731D01*
X821462Y534925D01*
Y536218D01*
X820967Y537412D01*
X820053Y538327D01*
X818858Y538821D01*
D02*
G37*
G36*
X612136Y536660D02*
X610644D01*
X609266Y536089D01*
X608211Y535034D01*
X607640Y533656D01*
Y532164D01*
X608211Y530786D01*
X609266Y529731D01*
X610644Y529160D01*
X612136D01*
X613514Y529731D01*
X614569Y530786D01*
X615140Y532164D01*
Y533656D01*
X614569Y535034D01*
X613514Y536089D01*
X612136Y536660D01*
D02*
G37*
G36*
X860546Y515750D02*
X859254D01*
X858059Y515255D01*
X857145Y514341D01*
X856650Y513146D01*
Y511853D01*
X857145Y510659D01*
X858059Y509745D01*
X859254Y509250D01*
X860546D01*
X861741Y509745D01*
X862655Y510659D01*
X863150Y511853D01*
Y513146D01*
X862655Y514341D01*
X861741Y515255D01*
X860546Y515750D01*
D02*
G37*
G36*
X896346Y494450D02*
X894854D01*
X893476Y493879D01*
X892421Y492824D01*
X891850Y491446D01*
Y489954D01*
X892421Y488576D01*
X893476Y487521D01*
X894854Y486950D01*
X896346D01*
X897724Y487521D01*
X898779Y488576D01*
X899350Y489954D01*
Y491446D01*
X898779Y492824D01*
X897724Y493879D01*
X896346Y494450D01*
D02*
G37*
G36*
X577846Y478369D02*
X576553D01*
X575359Y477874D01*
X574445Y476960D01*
X573950Y475765D01*
Y474473D01*
X574445Y473278D01*
X575359Y472364D01*
X576553Y471869D01*
X577846D01*
X579041Y472364D01*
X579955Y473278D01*
X580450Y474473D01*
Y475765D01*
X579955Y476960D01*
X579041Y477874D01*
X577846Y478369D01*
D02*
G37*
G36*
X567947Y473725D02*
X566654D01*
X565459Y473230D01*
X564545Y472316D01*
X564050Y471121D01*
Y469829D01*
X564491Y468764D01*
X564550Y468316D01*
X564355Y467333D01*
X563441Y466418D01*
X562946Y465224D01*
Y463931D01*
X563441Y462737D01*
X563826Y462351D01*
X564161Y461425D01*
X563811Y460707D01*
X563345Y460241D01*
X562850Y459047D01*
Y457753D01*
X563345Y456559D01*
X564259Y455645D01*
X565454Y455150D01*
X566746D01*
X567941Y455645D01*
X568855Y456559D01*
X569350Y457753D01*
Y459047D01*
X568855Y460241D01*
X568469Y460627D01*
X568135Y461552D01*
X568485Y462271D01*
X568951Y462737D01*
X569446Y463931D01*
Y465224D01*
X569005Y466289D01*
X568945Y466736D01*
X569141Y467720D01*
X570055Y468634D01*
X570550Y469829D01*
Y471121D01*
X570055Y472316D01*
X569141Y473230D01*
X567947Y473725D01*
D02*
G37*
G36*
X556847Y461450D02*
X555554D01*
X554359Y460955D01*
X553445Y460041D01*
X552950Y458847D01*
Y457553D01*
X553445Y456359D01*
X554359Y455445D01*
X555554Y454950D01*
X556847D01*
X558041Y455445D01*
X558955Y456359D01*
X559450Y457553D01*
Y458847D01*
X558955Y460041D01*
X558041Y460955D01*
X556847Y461450D01*
D02*
G37*
G36*
X573046Y453751D02*
X571753D01*
X570558Y453256D01*
X569644Y452342D01*
X569149Y451147D01*
Y450443D01*
X567879Y449917D01*
X567541Y450255D01*
X566347Y450750D01*
X565054D01*
X563859Y450255D01*
X562945Y449341D01*
X562450Y448146D01*
Y446853D01*
X562945Y445659D01*
X563859Y444745D01*
X565054Y444250D01*
X566347D01*
X567541Y444745D01*
X568455Y445659D01*
X568950Y446853D01*
Y447558D01*
X570220Y448084D01*
X570558Y447745D01*
X571753Y447251D01*
X573046D01*
X574240Y447745D01*
X575155Y448660D01*
X575649Y449854D01*
Y451147D01*
X575155Y452342D01*
X574240Y453256D01*
X573046Y453751D01*
D02*
G37*
G36*
X896646Y447350D02*
X895154D01*
X893776Y446779D01*
X892721Y445724D01*
X892150Y444346D01*
Y442854D01*
X892721Y441476D01*
X893776Y440421D01*
X895154Y439850D01*
X896646D01*
X898024Y440421D01*
X899079Y441476D01*
X899650Y442854D01*
Y444346D01*
X899079Y445724D01*
X898024Y446779D01*
X896646Y447350D01*
D02*
G37*
G36*
X918346Y443950D02*
X916854D01*
X915476Y443379D01*
X914421Y442324D01*
X913850Y440946D01*
Y439454D01*
X914421Y438076D01*
X915476Y437021D01*
X916854Y436450D01*
X918346D01*
X919724Y437021D01*
X920779Y438076D01*
X921350Y439454D01*
Y440946D01*
X920779Y442324D01*
X919724Y443379D01*
X918346Y443950D01*
D02*
G37*
G36*
X861047Y432450D02*
X859754D01*
X858559Y431955D01*
X857645Y431041D01*
X857150Y429846D01*
Y428554D01*
X857645Y427359D01*
X858559Y426445D01*
X859754Y425950D01*
X861047D01*
X862241Y426445D01*
X863155Y427359D01*
X863650Y428554D01*
Y429846D01*
X863155Y431041D01*
X862241Y431955D01*
X861047Y432450D01*
D02*
G37*
G36*
X954247Y425750D02*
X952953D01*
X951759Y425255D01*
X950845Y424341D01*
X950350Y423146D01*
Y421853D01*
X950845Y420659D01*
X951759Y419745D01*
X952953Y419250D01*
X954247D01*
X955441Y419745D01*
X956355Y420659D01*
X956850Y421853D01*
Y423146D01*
X956355Y424341D01*
X955441Y425255D01*
X954247Y425750D01*
D02*
G37*
G36*
X903646Y425550D02*
X902354D01*
X901159Y425055D01*
X900245Y424141D01*
X899750Y422946D01*
Y421654D01*
X900245Y420459D01*
X901159Y419545D01*
X902354Y419050D01*
X903646D01*
X904841Y419545D01*
X905755Y420459D01*
X906250Y421654D01*
Y422946D01*
X905755Y424141D01*
X904841Y425055D01*
X903646Y425550D01*
D02*
G37*
G36*
X900246Y336750D02*
X898754D01*
X897376Y336179D01*
X896321Y335124D01*
X895750Y333746D01*
Y332254D01*
X896321Y330876D01*
X897376Y329821D01*
X898754Y329250D01*
X900246D01*
X901624Y329821D01*
X902679Y330876D01*
X903250Y332254D01*
Y333746D01*
X902679Y335124D01*
X901624Y336179D01*
X900246Y336750D01*
D02*
G37*
G36*
X972146Y327850D02*
X970654D01*
X969276Y327279D01*
X968221Y326224D01*
X967650Y324846D01*
Y323354D01*
X968221Y321976D01*
X969276Y320921D01*
X970654Y320350D01*
X972146D01*
X973524Y320921D01*
X974579Y321976D01*
X975150Y323354D01*
Y324846D01*
X974579Y326224D01*
X973524Y327279D01*
X972146Y327850D01*
D02*
G37*
G36*
X798446Y269350D02*
X796954D01*
X795576Y268779D01*
X794521Y267724D01*
X793950Y266346D01*
Y264854D01*
X794521Y263476D01*
X795576Y262421D01*
X796954Y261850D01*
X798446D01*
X799824Y262421D01*
X800879Y263476D01*
X801450Y264854D01*
Y266346D01*
X800879Y267724D01*
X799824Y268779D01*
X798446Y269350D01*
D02*
G37*
G36*
X797946Y259750D02*
X796454D01*
X795076Y259179D01*
X794021Y258124D01*
X793450Y256746D01*
Y255254D01*
X794021Y253876D01*
X795076Y252821D01*
X796454Y252250D01*
X797946D01*
X799324Y252821D01*
X800379Y253876D01*
X800950Y255254D01*
Y256746D01*
X800379Y258124D01*
X799324Y259179D01*
X797946Y259750D01*
D02*
G37*
G36*
X861846Y229550D02*
X860354D01*
X858976Y228979D01*
X857921Y227924D01*
X857350Y226546D01*
Y225054D01*
X857921Y223676D01*
X858976Y222621D01*
X860354Y222050D01*
X861846D01*
X863224Y222621D01*
X864279Y223676D01*
X864850Y225054D01*
Y226546D01*
X864279Y227924D01*
X863224Y228979D01*
X861846Y229550D01*
D02*
G37*
G36*
X489646Y963650D02*
X488154D01*
X486776Y963079D01*
X485721Y962024D01*
X485150Y960646D01*
Y959154D01*
X485721Y957776D01*
X486776Y956721D01*
X488154Y956150D01*
X489646D01*
X490316Y956428D01*
X490711Y956225D01*
X491450Y955523D01*
Y954354D01*
X492021Y952976D01*
X493076Y951921D01*
X494454Y951350D01*
X495946D01*
X497324Y951921D01*
X498379Y952976D01*
X498840Y954090D01*
X499806Y954257D01*
X500163Y954216D01*
X500221Y954076D01*
X501276Y953021D01*
X502654Y952450D01*
X504146D01*
X505524Y953021D01*
X506579Y954076D01*
X507150Y955454D01*
Y956946D01*
X506579Y958324D01*
X505524Y959379D01*
X504146Y959950D01*
X502654D01*
X501276Y959379D01*
X500221Y958324D01*
X499759Y957210D01*
X498794Y957043D01*
X498437Y957084D01*
X498379Y957224D01*
X497324Y958279D01*
X495946Y958850D01*
X494454D01*
X493784Y958572D01*
X493389Y958775D01*
X492650Y959477D01*
Y960646D01*
X492079Y962024D01*
X491024Y963079D01*
X489646Y963650D01*
D02*
G37*
G36*
X488246Y941150D02*
X486754D01*
X485376Y940579D01*
X484321Y939524D01*
X483750Y938146D01*
Y936654D01*
X484321Y935276D01*
X485376Y934221D01*
X486754Y933650D01*
X488246D01*
X489624Y934221D01*
X490679Y935276D01*
X490771Y935498D01*
X492146D01*
X492321Y935076D01*
X493376Y934021D01*
X494754Y933450D01*
X496246D01*
X497624Y934021D01*
X498203Y934599D01*
X498478Y934612D01*
X499612Y934263D01*
X500021Y933276D01*
X501076Y932221D01*
X502454Y931650D01*
X503946D01*
X505324Y932221D01*
X506379Y933276D01*
X506950Y934654D01*
Y936146D01*
X506379Y937524D01*
X505324Y938579D01*
X503946Y939150D01*
X502454D01*
X501076Y938579D01*
X500497Y938001D01*
X500222Y937989D01*
X499088Y938337D01*
X498679Y939324D01*
X497624Y940379D01*
X496246Y940950D01*
X494754D01*
X493376Y940379D01*
X492321Y939324D01*
X492229Y939102D01*
X490854D01*
X490679Y939524D01*
X489624Y940579D01*
X488246Y941150D01*
D02*
G37*
G36*
X730473Y964200D02*
X726927D01*
X723450Y963508D01*
X720174Y962151D01*
X717226Y960182D01*
X714718Y957674D01*
X712749Y954726D01*
X711392Y951450D01*
X710700Y947973D01*
Y944427D01*
X711392Y940950D01*
X712749Y937674D01*
X714718Y934726D01*
X717226Y932218D01*
X720174Y930249D01*
X723450Y928892D01*
X726927Y928200D01*
X730473D01*
X733950Y928892D01*
X737226Y930249D01*
X740174Y932218D01*
X742682Y934726D01*
X744651Y937674D01*
X746008Y940950D01*
X746700Y944427D01*
Y947973D01*
X746008Y951450D01*
X744651Y954726D01*
X742682Y957674D01*
X740174Y960182D01*
X737226Y962151D01*
X733950Y963508D01*
X730473Y964200D01*
D02*
G37*
G36*
X603473D02*
X599927D01*
X596450Y963508D01*
X593174Y962151D01*
X590226Y960182D01*
X587719Y957674D01*
X585749Y954726D01*
X584392Y951450D01*
X583700Y947973D01*
Y944427D01*
X584392Y940950D01*
X585749Y937674D01*
X587719Y934726D01*
X590226Y932218D01*
X593174Y930249D01*
X596450Y928892D01*
X599927Y928200D01*
X603473D01*
X606950Y928892D01*
X610226Y930249D01*
X613174Y932218D01*
X615681Y934726D01*
X617651Y937674D01*
X619008Y940950D01*
X619700Y944427D01*
Y947973D01*
X619008Y951450D01*
X617651Y954726D01*
X615681Y957674D01*
X613174Y960182D01*
X610226Y962151D01*
X606950Y963508D01*
X603473Y964200D01*
D02*
G37*
G36*
X334573Y963300D02*
X331027D01*
X327550Y962608D01*
X324274Y961251D01*
X321326Y959281D01*
X318818Y956774D01*
X316849Y953826D01*
X315492Y950550D01*
X314800Y947073D01*
Y943527D01*
X315492Y940050D01*
X316849Y936774D01*
X318818Y933826D01*
X321326Y931319D01*
X324274Y929349D01*
X327550Y927992D01*
X331027Y927300D01*
X334573D01*
X338050Y927992D01*
X341326Y929349D01*
X344274Y931319D01*
X346782Y933826D01*
X348751Y936774D01*
X350108Y940050D01*
X350800Y943527D01*
Y947073D01*
X350108Y950550D01*
X348751Y953826D01*
X346782Y956774D01*
X344274Y959281D01*
X341326Y961251D01*
X338050Y962608D01*
X334573Y963300D01*
D02*
G37*
G36*
X207573D02*
X204027D01*
X200550Y962608D01*
X200067Y962408D01*
X197274Y961251D01*
X194326Y959281D01*
X191819Y956774D01*
X189849Y953826D01*
X188492Y950550D01*
X187800Y947073D01*
Y943527D01*
X188492Y940050D01*
X189849Y936774D01*
X191819Y933826D01*
X194326Y931319D01*
X197133Y929442D01*
D01*
X197274Y929349D01*
X200550Y927992D01*
X204027Y927300D01*
X207573D01*
X211050Y927992D01*
X214326Y929349D01*
X217274Y931319D01*
X219781Y933826D01*
X221751Y936774D01*
X223108Y940050D01*
X223800Y943527D01*
Y947073D01*
X223108Y950550D01*
X221751Y953826D01*
X219781Y956774D01*
X217274Y959281D01*
X214326Y961251D01*
X211050Y962608D01*
X207573Y963300D01*
D02*
G37*
G36*
X528573Y963100D02*
X525027D01*
X521550Y962408D01*
X518274Y961051D01*
X515326Y959081D01*
X512818Y956574D01*
X510849Y953626D01*
X509492Y950350D01*
X508800Y946873D01*
Y943327D01*
X509492Y939850D01*
X510849Y936574D01*
X512818Y933626D01*
X515326Y931118D01*
X518274Y929149D01*
X521550Y927792D01*
X525027Y927100D01*
X528573D01*
X532050Y927792D01*
X535326Y929149D01*
X538274Y931118D01*
X540782Y933626D01*
X542751Y936574D01*
X544108Y939850D01*
X544800Y943327D01*
Y946873D01*
X544108Y950350D01*
X542751Y953626D01*
X540782Y956574D01*
X538274Y959081D01*
X535326Y961051D01*
X532050Y962408D01*
X528573Y963100D01*
D02*
G37*
G36*
X401573D02*
X398027D01*
X394550Y962408D01*
X391274Y961051D01*
X388326Y959081D01*
X385818Y956574D01*
X383849Y953626D01*
X382492Y950350D01*
X381800Y946873D01*
Y943327D01*
X382492Y939850D01*
X383849Y936574D01*
X385818Y933626D01*
X388326Y931118D01*
X391274Y929149D01*
X394550Y927792D01*
X398027Y927100D01*
X401573D01*
X405050Y927792D01*
X408326Y929149D01*
X411274Y931118D01*
X413782Y933626D01*
X415751Y936574D01*
X417108Y939850D01*
X417800Y943327D01*
Y946873D01*
X417108Y950350D01*
X415751Y953626D01*
X413782Y956574D01*
X411274Y959081D01*
X408326Y961051D01*
X405050Y962408D01*
X401573Y963100D01*
D02*
G37*
G36*
X799153Y962600D02*
X795607D01*
X792130Y961908D01*
X788854Y960551D01*
X785906Y958581D01*
X783399Y956074D01*
X781429Y953126D01*
X780072Y949850D01*
X779380Y946373D01*
Y942827D01*
X780072Y939350D01*
X781429Y936074D01*
X783399Y933126D01*
X785906Y930619D01*
X788854Y928649D01*
X792130Y927292D01*
X795607Y926600D01*
X799153D01*
X802630Y927292D01*
X805906Y928649D01*
X808854Y930619D01*
X811361Y933126D01*
X813331Y936074D01*
X814688Y939350D01*
X815380Y942827D01*
Y946373D01*
X814688Y949850D01*
X813331Y953126D01*
X811361Y956074D01*
X808854Y958581D01*
X805906Y960551D01*
X802630Y961908D01*
X799153Y962600D01*
D02*
G37*
G36*
X691751Y929540D02*
X689449D01*
X687226Y928944D01*
X685234Y927794D01*
X683606Y926167D01*
X682456Y924174D01*
X681860Y921951D01*
Y919649D01*
X682456Y917427D01*
X683606Y915434D01*
X685234Y913806D01*
X687226Y912656D01*
X689449Y912060D01*
X691751D01*
X693973Y912656D01*
X695966Y913806D01*
X697594Y915434D01*
X698744Y917427D01*
X699340Y919649D01*
Y921951D01*
X698744Y924174D01*
X697594Y926167D01*
X695966Y927794D01*
X693973Y928944D01*
X691751Y929540D01*
D02*
G37*
G36*
X671431D02*
X669129D01*
X666907Y928944D01*
X664913Y927794D01*
X663286Y926167D01*
X662136Y924174D01*
X661540Y921951D01*
Y919649D01*
X662136Y917427D01*
X663286Y915434D01*
X664913Y913806D01*
X666907Y912656D01*
X669129Y912060D01*
X671431D01*
X673653Y912656D01*
X675647Y913806D01*
X677274Y915434D01*
X678424Y917427D01*
X679020Y919649D01*
Y921951D01*
X678424Y924174D01*
X677274Y926167D01*
X675647Y927794D01*
X673653Y928944D01*
X671431Y929540D01*
D02*
G37*
G36*
X651111D02*
X648809D01*
X646587Y928944D01*
X644594Y927794D01*
X642966Y926167D01*
X641816Y924174D01*
X641220Y921951D01*
Y919649D01*
X641816Y917427D01*
X642966Y915434D01*
X644594Y913806D01*
X646587Y912656D01*
X648809Y912060D01*
X651111D01*
X653334Y912656D01*
X655327Y913806D01*
X656954Y915434D01*
X658104Y917427D01*
X658700Y919649D01*
Y921951D01*
X658104Y924174D01*
X656954Y926167D01*
X655327Y927794D01*
X653334Y928944D01*
X651111Y929540D01*
D02*
G37*
G36*
X630791D02*
X628489D01*
X626267Y928944D01*
X624273Y927794D01*
X622646Y926167D01*
X621496Y924174D01*
X620900Y921951D01*
Y919649D01*
X621496Y917427D01*
X622646Y915434D01*
X624273Y913806D01*
X626267Y912656D01*
X628489Y912060D01*
X630791D01*
X633013Y912656D01*
X635006Y913806D01*
X636634Y915434D01*
X637784Y917427D01*
X638380Y919649D01*
Y921951D01*
X637784Y924174D01*
X636634Y926167D01*
X635006Y927794D01*
X633013Y928944D01*
X630791Y929540D01*
D02*
G37*
G36*
X295851Y928640D02*
X293549D01*
X291327Y928044D01*
X289333Y926894D01*
X287706Y925266D01*
X286556Y923273D01*
X285960Y921051D01*
Y918749D01*
X286556Y916526D01*
X287706Y914533D01*
X289333Y912906D01*
X291327Y911756D01*
X293549Y911160D01*
X295851D01*
X298074Y911756D01*
X300067Y912906D01*
X301694Y914533D01*
X302844Y916526D01*
X303440Y918749D01*
Y921051D01*
X302844Y923273D01*
X301694Y925266D01*
X300067Y926894D01*
X298074Y928044D01*
X295851Y928640D01*
D02*
G37*
G36*
X275531D02*
X273229D01*
X271007Y928044D01*
X269014Y926894D01*
X267386Y925266D01*
X266236Y923273D01*
X265640Y921051D01*
Y918749D01*
X266236Y916526D01*
X267386Y914533D01*
X269014Y912906D01*
X271007Y911756D01*
X273229Y911160D01*
X275531D01*
X277754Y911756D01*
X279746Y912906D01*
X281374Y914533D01*
X282524Y916526D01*
X283120Y918749D01*
Y921051D01*
X282524Y923273D01*
X281374Y925266D01*
X279746Y926894D01*
X277754Y928044D01*
X275531Y928640D01*
D02*
G37*
G36*
X255211D02*
X252909D01*
X250686Y928044D01*
X248694Y926894D01*
X247066Y925266D01*
X245916Y923273D01*
X245320Y921051D01*
Y918749D01*
X245916Y916526D01*
X247066Y914533D01*
X248694Y912906D01*
X250686Y911756D01*
X252909Y911160D01*
X255211D01*
X257433Y911756D01*
X259426Y912906D01*
X261054Y914533D01*
X262204Y916526D01*
X262800Y918749D01*
Y921051D01*
X262204Y923273D01*
X261054Y925266D01*
X259426Y926894D01*
X257433Y928044D01*
X255211Y928640D01*
D02*
G37*
G36*
X234891D02*
X232589D01*
X230366Y928044D01*
X228374Y926894D01*
X226746Y925266D01*
X225596Y923273D01*
X225000Y921051D01*
Y918749D01*
X225596Y916526D01*
X226746Y914533D01*
X228374Y912906D01*
X230366Y911756D01*
X232589Y911160D01*
X234891D01*
X237113Y911756D01*
X239107Y912906D01*
X240734Y914533D01*
X241884Y916526D01*
X242480Y918749D01*
Y921051D01*
X241884Y923273D01*
X240734Y925266D01*
X239107Y926894D01*
X237113Y928044D01*
X234891Y928640D01*
D02*
G37*
G36*
X489851Y928440D02*
X487549D01*
X485326Y927844D01*
X483334Y926694D01*
X481706Y925067D01*
X480556Y923074D01*
X479960Y920851D01*
Y918549D01*
X480556Y916327D01*
X481706Y914333D01*
X483334Y912706D01*
X485326Y911556D01*
X487549Y910960D01*
X489851D01*
X492074Y911556D01*
X494067Y912706D01*
X495694Y914333D01*
X496844Y916327D01*
X497440Y918549D01*
Y920851D01*
X496844Y923074D01*
X495694Y925067D01*
X494067Y926694D01*
X492074Y927844D01*
X489851Y928440D01*
D02*
G37*
G36*
X469531D02*
X467229D01*
X465006Y927844D01*
X463013Y926694D01*
X461386Y925067D01*
X460236Y923074D01*
X459640Y920851D01*
Y918549D01*
X460236Y916327D01*
X461386Y914333D01*
X463013Y912706D01*
X465006Y911556D01*
X467229Y910960D01*
X469531D01*
X471754Y911556D01*
X473746Y912706D01*
X475374Y914333D01*
X476524Y916327D01*
X477120Y918549D01*
Y920851D01*
X476524Y923074D01*
X475374Y925067D01*
X473746Y926694D01*
X471754Y927844D01*
X469531Y928440D01*
D02*
G37*
G36*
X449211D02*
X446909D01*
X444687Y927844D01*
X442693Y926694D01*
X441066Y925067D01*
X439916Y923074D01*
X439320Y920851D01*
Y918549D01*
X439916Y916327D01*
X441066Y914333D01*
X442693Y912706D01*
X444687Y911556D01*
X446909Y910960D01*
X449211D01*
X451433Y911556D01*
X453427Y912706D01*
X455054Y914333D01*
X456204Y916327D01*
X456800Y918549D01*
Y920851D01*
X456204Y923074D01*
X455054Y925067D01*
X453427Y926694D01*
X451433Y927844D01*
X449211Y928440D01*
D02*
G37*
G36*
X428891D02*
X426589D01*
X424366Y927844D01*
X422374Y926694D01*
X420746Y925067D01*
X419596Y923074D01*
X419000Y920851D01*
Y918549D01*
X419596Y916327D01*
X420746Y914333D01*
X422374Y912706D01*
X424366Y911556D01*
X426589Y910960D01*
X428891D01*
X431114Y911556D01*
X433106Y912706D01*
X434734Y914333D01*
X435884Y916327D01*
X436480Y918549D01*
Y920851D01*
X435884Y923074D01*
X434734Y925067D01*
X433106Y926694D01*
X431114Y927844D01*
X428891Y928440D01*
D02*
G37*
G36*
X887431Y927940D02*
X885129D01*
X882906Y927344D01*
X880913Y926194D01*
X879286Y924566D01*
X878136Y922573D01*
X877540Y920351D01*
Y918049D01*
X878136Y915826D01*
X879286Y913833D01*
X880913Y912206D01*
X882906Y911056D01*
X885129Y910460D01*
X887431D01*
X889653Y911056D01*
X891646Y912206D01*
X893274Y913833D01*
X894424Y915826D01*
X895020Y918049D01*
Y920351D01*
X894424Y922573D01*
X893274Y924566D01*
X891646Y926194D01*
X889653Y927344D01*
X887431Y927940D01*
D02*
G37*
G36*
X867111D02*
X864809D01*
X862587Y927344D01*
X860593Y926194D01*
X858966Y924566D01*
X857816Y922573D01*
X857220Y920351D01*
Y918049D01*
X857816Y915826D01*
X858966Y913833D01*
X860593Y912206D01*
X862587Y911056D01*
X864809Y910460D01*
X867111D01*
X869333Y911056D01*
X871327Y912206D01*
X872954Y913833D01*
X874104Y915826D01*
X874700Y918049D01*
Y920351D01*
X874104Y922573D01*
X872954Y924566D01*
X871327Y926194D01*
X869333Y927344D01*
X867111Y927940D01*
D02*
G37*
G36*
X846791D02*
X844489D01*
X842266Y927344D01*
X840274Y926194D01*
X838646Y924566D01*
X837496Y922573D01*
X836900Y920351D01*
Y918049D01*
X837496Y915826D01*
X838646Y913833D01*
X840274Y912206D01*
X842266Y911056D01*
X844489Y910460D01*
X846791D01*
X849014Y911056D01*
X851006Y912206D01*
X852634Y913833D01*
X853784Y915826D01*
X854380Y918049D01*
Y920351D01*
X853784Y922573D01*
X852634Y924566D01*
X851006Y926194D01*
X849014Y927344D01*
X846791Y927940D01*
D02*
G37*
G36*
X826471D02*
X824169D01*
X821946Y927344D01*
X819954Y926194D01*
X818326Y924566D01*
X817176Y922573D01*
X816580Y920351D01*
Y918049D01*
X817176Y915826D01*
X818326Y913833D01*
D01*
X819954Y912206D01*
D01*
X819954Y912206D01*
X821946Y911056D01*
X824169Y910460D01*
X826471D01*
X828693Y911056D01*
X830686Y912206D01*
X832314Y913833D01*
X833464Y915826D01*
X834060Y918049D01*
Y920351D01*
X833464Y922573D01*
X832314Y924566D01*
X830686Y926194D01*
X828693Y927344D01*
X826471Y927940D01*
D02*
G37*
G36*
X748297Y925550D02*
X744703D01*
X741231Y924620D01*
X738119Y922823D01*
X735577Y920281D01*
X733780Y917169D01*
X732850Y913697D01*
Y910103D01*
X733780Y906631D01*
X735577Y903519D01*
X738119Y900977D01*
X741231Y899180D01*
X744703Y898250D01*
X748297D01*
X751769Y899180D01*
X754881Y900977D01*
X757423Y903519D01*
X759220Y906631D01*
X760150Y910103D01*
Y913697D01*
X759220Y917169D01*
X757423Y920281D01*
X754881Y922823D01*
X751769Y924620D01*
X748297Y925550D01*
D02*
G37*
G36*
X585697D02*
X582103D01*
X578631Y924620D01*
X575519Y922823D01*
X572977Y920281D01*
X571180Y917169D01*
X570250Y913697D01*
Y910103D01*
X571180Y906631D01*
X572977Y903519D01*
X575519Y900977D01*
X578631Y899180D01*
X582103Y898250D01*
X585697D01*
X589169Y899180D01*
X592281Y900977D01*
X594823Y903519D01*
X596620Y906631D01*
X597550Y910103D01*
Y913697D01*
X596620Y917169D01*
X594823Y920281D01*
X592281Y922823D01*
X589169Y924620D01*
X585697Y925550D01*
D02*
G37*
G36*
X352397Y924650D02*
X348803D01*
X345331Y923720D01*
X342219Y921923D01*
X339677Y919381D01*
X337880Y916269D01*
X336950Y912797D01*
Y909203D01*
X337880Y905731D01*
X339677Y902619D01*
X342219Y900077D01*
X345331Y898280D01*
X348803Y897350D01*
X352397D01*
X355869Y898280D01*
X358981Y900077D01*
X361523Y902619D01*
X363320Y905731D01*
X364250Y909203D01*
Y912797D01*
X363320Y916269D01*
X361523Y919381D01*
X358981Y921923D01*
X355869Y923720D01*
X352397Y924650D01*
D02*
G37*
G36*
X189797D02*
X186203D01*
X182731Y923720D01*
X179619Y921923D01*
X177077Y919381D01*
X175280Y916269D01*
X174350Y912797D01*
Y909203D01*
X175280Y905731D01*
X177077Y902619D01*
X179619Y900077D01*
X182731Y898280D01*
X186203Y897350D01*
X189797D01*
X193269Y898280D01*
X194430Y898951D01*
X196381Y900077D01*
X198923Y902619D01*
X199073Y902879D01*
D01*
X200720Y905731D01*
X201650Y909203D01*
Y912797D01*
X200720Y916269D01*
X198923Y919381D01*
X196381Y921923D01*
X195656Y922342D01*
X193269Y923720D01*
X189797Y924650D01*
D02*
G37*
G36*
X546397Y924450D02*
X542803D01*
X539331Y923520D01*
X536219Y921723D01*
X533677Y919181D01*
X531880Y916069D01*
X530950Y912597D01*
Y909003D01*
X531880Y905531D01*
X533677Y902419D01*
X536219Y899877D01*
X539331Y898080D01*
X542803Y897150D01*
X546397D01*
X549869Y898080D01*
X552981Y899877D01*
X555523Y902419D01*
X557320Y905531D01*
X558250Y909003D01*
Y912597D01*
X557320Y916069D01*
X555523Y919181D01*
X552981Y921723D01*
X549869Y923520D01*
X546397Y924450D01*
D02*
G37*
G36*
X383797D02*
X380203D01*
X376731Y923520D01*
X373619Y921723D01*
X371077Y919181D01*
X369280Y916069D01*
X368350Y912597D01*
Y909003D01*
X369280Y905531D01*
X371077Y902419D01*
X373619Y899877D01*
X376731Y898080D01*
X380203Y897150D01*
X383797D01*
X387269Y898080D01*
X390381Y899877D01*
X392923Y902419D01*
X394720Y905531D01*
X395650Y909003D01*
Y912597D01*
X394720Y916069D01*
X392923Y919181D01*
X390381Y921723D01*
X387269Y923520D01*
X383797Y924450D01*
D02*
G37*
G36*
X781377Y923950D02*
X777783D01*
X774311Y923020D01*
X771199Y921223D01*
X768657Y918681D01*
X766860Y915569D01*
X765930Y912097D01*
Y908503D01*
X766860Y905031D01*
X768657Y901919D01*
X771199Y899377D01*
X774311Y897580D01*
X777783Y896650D01*
X781377D01*
X784849Y897580D01*
X787961Y899377D01*
X790503Y901919D01*
X792300Y905031D01*
X793230Y908503D01*
Y912097D01*
X792300Y915569D01*
X790503Y918681D01*
X787961Y921223D01*
X784849Y923020D01*
X781377Y923950D01*
D02*
G37*
G36*
X701911Y911740D02*
X699609D01*
X697386Y911144D01*
X695394Y909994D01*
X693766Y908366D01*
X692616Y906374D01*
X692020Y904151D01*
Y901849D01*
X692616Y899626D01*
X693766Y897634D01*
X695394Y896006D01*
X697386Y894856D01*
X699609Y894260D01*
X701911D01*
X704134Y894856D01*
X706126Y896006D01*
X707754Y897634D01*
X708904Y899626D01*
X709500Y901849D01*
Y904151D01*
X708904Y906374D01*
X707754Y908366D01*
X706126Y909994D01*
X704134Y911144D01*
X701911Y911740D01*
D02*
G37*
G36*
X681591D02*
X679289D01*
X677066Y911144D01*
X675073Y909994D01*
X673446Y908366D01*
X672296Y906374D01*
X671700Y904151D01*
Y901849D01*
X672296Y899626D01*
X673446Y897634D01*
X675073Y896006D01*
X677066Y894856D01*
X679289Y894260D01*
X681591D01*
X683813Y894856D01*
X685807Y896006D01*
X687434Y897634D01*
X688584Y899626D01*
X689180Y901849D01*
Y904151D01*
X688584Y906374D01*
X687434Y908366D01*
X685807Y909994D01*
X683813Y911144D01*
X681591Y911740D01*
D02*
G37*
G36*
X661271D02*
X658969D01*
X656747Y911144D01*
X654753Y909994D01*
X653126Y908366D01*
X651976Y906374D01*
X651380Y904151D01*
Y901849D01*
X651976Y899626D01*
X653126Y897634D01*
X654753Y896006D01*
X656747Y894856D01*
X658969Y894260D01*
X661271D01*
X663493Y894856D01*
X665487Y896006D01*
X667114Y897634D01*
X668264Y899626D01*
X668860Y901849D01*
Y904151D01*
X668264Y906374D01*
X667114Y908366D01*
X665487Y909994D01*
X663493Y911144D01*
X661271Y911740D01*
D02*
G37*
G36*
X640951D02*
X638649D01*
X636427Y911144D01*
X634434Y909994D01*
X632806Y908366D01*
X631656Y906374D01*
X631060Y904151D01*
Y901849D01*
X631656Y899626D01*
X632806Y897634D01*
X634434Y896006D01*
X636427Y894856D01*
X638649Y894260D01*
X640951D01*
X643174Y894856D01*
X645166Y896006D01*
X646794Y897634D01*
X647944Y899626D01*
X648540Y901849D01*
Y904151D01*
X647944Y906374D01*
X646794Y908366D01*
X645166Y909994D01*
X643174Y911144D01*
X640951Y911740D01*
D02*
G37*
G36*
X306011Y910840D02*
X303709D01*
X301486Y910244D01*
X299494Y909094D01*
X297866Y907467D01*
X296716Y905473D01*
X296120Y903251D01*
Y900949D01*
X296716Y898727D01*
X297866Y896733D01*
X299494Y895106D01*
X301486Y893956D01*
X303709Y893360D01*
X306011D01*
X308234Y893956D01*
X310226Y895106D01*
X311854Y896733D01*
X313004Y898727D01*
X313600Y900949D01*
Y903251D01*
X313004Y905473D01*
X311854Y907467D01*
X310226Y909094D01*
X308234Y910244D01*
X306011Y910840D01*
D02*
G37*
G36*
X285691D02*
X283389D01*
X281166Y910244D01*
X279174Y909094D01*
X277546Y907467D01*
X276396Y905473D01*
X275800Y903251D01*
Y900949D01*
X276396Y898727D01*
X277546Y896733D01*
X279174Y895106D01*
X281166Y893956D01*
X283389Y893360D01*
X285691D01*
X287913Y893956D01*
X289907Y895106D01*
X291534Y896733D01*
X292684Y898727D01*
X293280Y900949D01*
Y903251D01*
X292684Y905473D01*
X291534Y907467D01*
X289907Y909094D01*
X287913Y910244D01*
X285691Y910840D01*
D02*
G37*
G36*
X265371D02*
X263069D01*
X260847Y910244D01*
X258853Y909094D01*
X257226Y907467D01*
X256076Y905473D01*
X255480Y903251D01*
Y900949D01*
X256076Y898727D01*
X257226Y896733D01*
X258853Y895106D01*
X260847Y893956D01*
X263069Y893360D01*
X265371D01*
X267593Y893956D01*
X269587Y895106D01*
X271214Y896733D01*
X272364Y898727D01*
X272960Y900949D01*
Y903251D01*
X272364Y905473D01*
X271214Y907467D01*
X269587Y909094D01*
X267593Y910244D01*
X265371Y910840D01*
D02*
G37*
G36*
X245051D02*
X242749D01*
X240527Y910244D01*
X238533Y909094D01*
X236906Y907467D01*
X235756Y905473D01*
X235160Y903251D01*
Y900949D01*
X235756Y898727D01*
X236906Y896733D01*
X238533Y895106D01*
X240527Y893956D01*
X242749Y893360D01*
X245051D01*
X247274Y893956D01*
X249266Y895106D01*
X250894Y896733D01*
X252044Y898727D01*
X252640Y900949D01*
Y903251D01*
X252044Y905473D01*
X250894Y907467D01*
X249266Y909094D01*
X247274Y910244D01*
X245051Y910840D01*
D02*
G37*
G36*
X479691Y910640D02*
X477389D01*
X475167Y910044D01*
X473173Y908894D01*
X471546Y907266D01*
X470396Y905274D01*
X469800Y903051D01*
Y900749D01*
X470396Y898527D01*
X471546Y896534D01*
X473173Y894906D01*
X475167Y893756D01*
X477389Y893160D01*
X479691D01*
X481913Y893756D01*
X483907Y894906D01*
X485534Y896534D01*
X486684Y898527D01*
X487280Y900749D01*
Y903051D01*
X486684Y905274D01*
X485534Y907266D01*
X483907Y908894D01*
X481913Y910044D01*
X479691Y910640D01*
D02*
G37*
G36*
X459371D02*
X457069D01*
X454846Y910044D01*
X452854Y908894D01*
X451226Y907266D01*
X450076Y905274D01*
X449480Y903051D01*
Y900749D01*
X450076Y898527D01*
X451226Y896534D01*
X452854Y894906D01*
X454846Y893756D01*
X457069Y893160D01*
X459371D01*
X461594Y893756D01*
X463587Y894906D01*
X465214Y896534D01*
X466364Y898527D01*
X466960Y900749D01*
Y903051D01*
X466364Y905274D01*
X465214Y907266D01*
X463587Y908894D01*
X461594Y910044D01*
X459371Y910640D01*
D02*
G37*
G36*
X439051D02*
X436749D01*
X434526Y910044D01*
X432533Y908894D01*
X430906Y907266D01*
X429756Y905274D01*
X429160Y903051D01*
Y900749D01*
X429756Y898527D01*
X430906Y896534D01*
X432533Y894906D01*
X434526Y893756D01*
X436749Y893160D01*
X439051D01*
X441273Y893756D01*
X443266Y894906D01*
X444894Y896534D01*
X446044Y898527D01*
X446640Y900749D01*
Y903051D01*
X446044Y905274D01*
X444894Y907266D01*
X443266Y908894D01*
X441273Y910044D01*
X439051Y910640D01*
D02*
G37*
G36*
X897591Y910140D02*
X895289D01*
X893066Y909544D01*
X891074Y908394D01*
X889446Y906767D01*
X888296Y904773D01*
X887700Y902551D01*
Y900249D01*
X888296Y898027D01*
X889446Y896033D01*
X891074Y894406D01*
X893066Y893256D01*
X895289Y892660D01*
X897591D01*
X899814Y893256D01*
X901806Y894406D01*
X903434Y896033D01*
X904584Y898027D01*
X905180Y900249D01*
Y902551D01*
X904584Y904773D01*
X903434Y906767D01*
X901806Y908394D01*
X899814Y909544D01*
X897591Y910140D01*
D02*
G37*
G36*
X877271D02*
X874969D01*
X872747Y909544D01*
X870753Y908394D01*
X869126Y906767D01*
X867976Y904773D01*
X867380Y902551D01*
Y900249D01*
X867976Y898027D01*
X869126Y896033D01*
X870753Y894406D01*
X872747Y893256D01*
X874969Y892660D01*
X877271D01*
X879493Y893256D01*
X881487Y894406D01*
X883114Y896033D01*
X884264Y898027D01*
X884860Y900249D01*
Y902551D01*
X884264Y904773D01*
X883114Y906767D01*
X881487Y908394D01*
X879493Y909544D01*
X877271Y910140D01*
D02*
G37*
G36*
X856951D02*
X854649D01*
X852427Y909544D01*
X850434Y908394D01*
X848806Y906767D01*
X847656Y904773D01*
X847060Y902551D01*
Y900249D01*
X847656Y898027D01*
X848806Y896033D01*
X850434Y894406D01*
X852427Y893256D01*
X854649Y892660D01*
X856951D01*
X859174Y893256D01*
X861167Y894406D01*
X862794Y896033D01*
X863944Y898027D01*
X864540Y900249D01*
Y902551D01*
X863944Y904773D01*
X862794Y906767D01*
X861167Y908394D01*
X859174Y909544D01*
X856951Y910140D01*
D02*
G37*
G36*
X836631D02*
X834329D01*
X832106Y909544D01*
X830114Y908394D01*
X828486Y906767D01*
X827336Y904773D01*
X826740Y902551D01*
Y900249D01*
X827336Y898027D01*
X828486Y896033D01*
X830114Y894406D01*
X832106Y893256D01*
X834329Y892660D01*
X836631D01*
X838854Y893256D01*
X840846Y894406D01*
X842474Y896033D01*
X843624Y898027D01*
X844220Y900249D01*
Y902551D01*
X843624Y904773D01*
X842474Y906767D01*
X840846Y908394D01*
X838854Y909544D01*
X836631Y910140D01*
D02*
G37*
G36*
X500011Y910640D02*
X497709D01*
X495486Y910044D01*
X493493Y908894D01*
X491866Y907266D01*
X490716Y905274D01*
X490120Y903051D01*
Y900749D01*
X490716Y898527D01*
X491866Y896534D01*
X493493Y894906D01*
X495486Y893756D01*
X497709Y893160D01*
X500011D01*
X502234Y893756D01*
X504226Y894906D01*
X505280Y895960D01*
X506550Y895434D01*
Y895254D01*
X507121Y893876D01*
X508176Y892821D01*
X509554Y892250D01*
X511046D01*
X512424Y892821D01*
X513479Y893876D01*
X514050Y895254D01*
Y896746D01*
X513693Y897608D01*
X514770Y898327D01*
X515076Y898021D01*
X516454Y897450D01*
X517946D01*
X518746Y897781D01*
X519718Y896809D01*
X519650Y896646D01*
Y895154D01*
X520221Y893776D01*
X521276Y892721D01*
X522654Y892150D01*
X524146D01*
X525524Y892721D01*
X526579Y893776D01*
X527150Y895154D01*
Y896646D01*
X526579Y898024D01*
X525524Y899079D01*
X524146Y899650D01*
X522654D01*
X521854Y899319D01*
X520882Y900291D01*
X520950Y900454D01*
Y901946D01*
X520379Y903324D01*
X519324Y904379D01*
X517946Y904950D01*
X516454D01*
X515076Y904379D01*
X514021Y903324D01*
X513450Y901946D01*
Y900454D01*
X513807Y899592D01*
X512730Y898873D01*
X512424Y899179D01*
X511046Y899750D01*
X509554D01*
X508534Y899327D01*
X507549Y899998D01*
X507438Y900143D01*
X507600Y900749D01*
Y903051D01*
X507004Y905274D01*
X505854Y907266D01*
X504226Y908894D01*
X502234Y910044D01*
X500011Y910640D01*
D02*
G37*
G36*
X101701Y891640D02*
X99399D01*
X97177Y891044D01*
X95183Y889894D01*
X93556Y888267D01*
X92406Y886273D01*
X91810Y884051D01*
Y881749D01*
X92406Y879527D01*
X93556Y877533D01*
X95183Y875906D01*
X97177Y874756D01*
X99399Y874160D01*
X101701D01*
X103924Y874756D01*
X105917Y875906D01*
X107544Y877533D01*
X108694Y879527D01*
X109290Y881749D01*
Y884051D01*
X108694Y886273D01*
X107544Y888267D01*
X105917Y889894D01*
X103924Y891044D01*
X101701Y891640D01*
D02*
G37*
G36*
X83901Y881480D02*
X81599D01*
X79377Y880884D01*
X77383Y879734D01*
X75756Y878107D01*
X74606Y876114D01*
X74010Y873891D01*
Y871589D01*
X74606Y869367D01*
X75756Y867374D01*
X77383Y865746D01*
X79377Y864596D01*
X81599Y864000D01*
X83901D01*
X86124Y864596D01*
X88117Y865746D01*
X89744Y867374D01*
X90894Y869367D01*
X91490Y871589D01*
Y873891D01*
X90894Y876114D01*
X89744Y878107D01*
X88117Y879734D01*
X86124Y880884D01*
X83901Y881480D01*
D02*
G37*
G36*
X101701Y871320D02*
X99399D01*
X97177Y870724D01*
X95183Y869574D01*
X93556Y867946D01*
X92406Y865954D01*
X91810Y863731D01*
Y861429D01*
X92406Y859206D01*
X93556Y857214D01*
X95183Y855586D01*
X97177Y854436D01*
X99399Y853840D01*
X101701D01*
X103924Y854436D01*
X105917Y855586D01*
X107544Y857214D01*
X108694Y859206D01*
X109290Y861429D01*
Y863731D01*
X108694Y865954D01*
X107544Y867946D01*
X105917Y869574D01*
X103924Y870724D01*
X101701Y871320D01*
D02*
G37*
G36*
X83901Y861160D02*
X81599D01*
X79377Y860564D01*
X77383Y859414D01*
X75756Y857786D01*
X74606Y855794D01*
X74010Y853571D01*
Y851269D01*
X74606Y849046D01*
X75756Y847054D01*
X77383Y845426D01*
X79377Y844276D01*
X81599Y843680D01*
X83901D01*
X86124Y844276D01*
X88117Y845426D01*
X89744Y847054D01*
X90894Y849046D01*
X91490Y851269D01*
Y853571D01*
X90894Y855794D01*
X89744Y857786D01*
X88117Y859414D01*
X86124Y860564D01*
X83901Y861160D01*
D02*
G37*
G36*
X101701Y851000D02*
X99399D01*
X97177Y850404D01*
X95183Y849254D01*
X93556Y847626D01*
X92406Y845633D01*
X91810Y843411D01*
Y841109D01*
X92406Y838886D01*
X93556Y836893D01*
X95183Y835266D01*
X97177Y834116D01*
X99399Y833520D01*
X101701D01*
X103924Y834116D01*
X105917Y835266D01*
X107544Y836893D01*
X108694Y838886D01*
X109290Y841109D01*
Y843411D01*
X108694Y845633D01*
X107544Y847626D01*
X105917Y849254D01*
X103924Y850404D01*
X101701Y851000D01*
D02*
G37*
G36*
X83901Y840840D02*
X81599D01*
X79377Y840244D01*
X77383Y839094D01*
X75756Y837467D01*
X74606Y835473D01*
X74010Y833251D01*
Y830949D01*
X74606Y828727D01*
X75756Y826733D01*
X77383Y825106D01*
X79377Y823956D01*
X81599Y823360D01*
X83901D01*
X86124Y823956D01*
X88117Y825106D01*
X89744Y826733D01*
X90894Y828727D01*
X91490Y830949D01*
Y833251D01*
X90894Y835473D01*
X89744Y837467D01*
X88117Y839094D01*
X86124Y840244D01*
X83901Y840840D01*
D02*
G37*
G36*
X101701Y830680D02*
X99399D01*
X97177Y830084D01*
X95183Y828934D01*
X93556Y827307D01*
X92406Y825313D01*
X91810Y823091D01*
Y820789D01*
X92406Y818567D01*
X93556Y816573D01*
X95183Y814946D01*
X97177Y813796D01*
X99399Y813200D01*
X101701D01*
X103924Y813796D01*
X105917Y814946D01*
X107544Y816573D01*
X108694Y818567D01*
X109290Y820789D01*
Y823091D01*
X108694Y825313D01*
X107544Y827307D01*
X105917Y828934D01*
X103924Y830084D01*
X101701Y830680D01*
D02*
G37*
G36*
X784284Y831050D02*
X781716D01*
X779237Y830386D01*
X777013Y829102D01*
X775198Y827287D01*
X773914Y825063D01*
X773250Y822584D01*
Y820016D01*
X773914Y817537D01*
X775198Y815313D01*
X777013Y813498D01*
X779237Y812215D01*
X781716Y811550D01*
X784284D01*
X786763Y812215D01*
X788987Y813498D01*
X790802Y815313D01*
X792085Y817537D01*
X792750Y820016D01*
Y822584D01*
X792085Y825063D01*
X790802Y827287D01*
X788987Y829102D01*
X786763Y830386D01*
X784284Y831050D01*
D02*
G37*
G36*
X83901Y820520D02*
X81599D01*
X79377Y819924D01*
X77383Y818774D01*
X75756Y817147D01*
X74606Y815154D01*
X74010Y812931D01*
Y810629D01*
X74606Y808407D01*
X75756Y806413D01*
X77383Y804786D01*
X79377Y803636D01*
X81599Y803040D01*
X83901D01*
X86124Y803636D01*
X88117Y804786D01*
X89744Y806413D01*
X90894Y808407D01*
X91490Y810629D01*
Y812931D01*
X90894Y815154D01*
X89744Y817147D01*
X88117Y818774D01*
X86124Y819924D01*
X83901Y820520D01*
D02*
G37*
G36*
X723046Y808850D02*
X721753D01*
X720559Y808355D01*
X719645Y807441D01*
X719150Y806246D01*
Y806246D01*
Y804954D01*
X719645Y803759D01*
X720559Y802845D01*
X721753Y802350D01*
X723046D01*
X724241Y802845D01*
X724798Y803402D01*
X725155Y803759D01*
X725650Y804954D01*
Y806246D01*
X725155Y807441D01*
X724358Y808238D01*
X724241Y808355D01*
X723046Y808850D01*
D02*
G37*
G36*
X784700Y883300D02*
X693100D01*
Y877100D01*
X693200Y877000D01*
X655800Y839600D01*
Y826088D01*
X655799Y826087D01*
X655304Y824893D01*
Y823600D01*
X655799Y822405D01*
X655800Y822404D01*
Y789200D01*
X651900Y785300D01*
X651500D01*
Y782900D01*
X645900Y777300D01*
Y776900D01*
X628500D01*
X627100Y775500D01*
Y747100D01*
X630800D01*
X631500Y746400D01*
Y735300D01*
X641200D01*
Y745800D01*
X642400Y747000D01*
X642600Y746800D01*
X650200D01*
Y748400D01*
X652323Y750523D01*
X653341Y750945D01*
X654255Y751859D01*
X654677Y752877D01*
X678800Y777000D01*
X669100Y786700D01*
Y806850D01*
X669346D01*
X670724Y807421D01*
X671779Y808476D01*
X671969Y808935D01*
X673467Y809233D01*
X674100Y808600D01*
X680400D01*
X684600Y804400D01*
X688800Y808600D01*
X693700Y808600D01*
X701100Y801200D01*
X711800Y811675D01*
Y813400D01*
X713562D01*
X772392Y870992D01*
X784700Y883300D01*
D02*
G37*
G36*
X312590Y818340D02*
X310210D01*
X307911Y817724D01*
X305849Y816534D01*
X304166Y814851D01*
X302976Y812789D01*
X302360Y810490D01*
Y808110D01*
X302976Y805811D01*
X304166Y803749D01*
X305849Y802066D01*
X307911Y800876D01*
X310210Y800260D01*
X312590D01*
X314889Y800876D01*
X316951Y802066D01*
X318634Y803749D01*
X319824Y805811D01*
X320440Y808110D01*
Y810490D01*
X319824Y812789D01*
X318634Y814851D01*
X316951Y816534D01*
X314889Y817724D01*
X312590Y818340D01*
D02*
G37*
G36*
X287590D02*
X285210D01*
X282911Y817724D01*
X280849Y816534D01*
X279166Y814851D01*
X277976Y812789D01*
X277360Y810490D01*
Y808110D01*
X277976Y805811D01*
X279166Y803749D01*
X280849Y802066D01*
X282911Y800876D01*
X285210Y800260D01*
X287590D01*
X289889Y800876D01*
X291951Y802066D01*
X293634Y803749D01*
X294824Y805811D01*
X295440Y808110D01*
Y810490D01*
X294824Y812789D01*
X293634Y814851D01*
X291951Y816534D01*
X289889Y817724D01*
X287590Y818340D01*
D02*
G37*
G36*
X262590D02*
X260210D01*
X257911Y817724D01*
X255849Y816534D01*
X254166Y814851D01*
X252976Y812789D01*
X252360Y810490D01*
Y808110D01*
X252976Y805811D01*
X254166Y803749D01*
X255849Y802066D01*
X257911Y800876D01*
X260210Y800260D01*
X262590D01*
X264889Y800876D01*
X266951Y802066D01*
X268634Y803749D01*
X269824Y805811D01*
X270440Y808110D01*
Y810490D01*
X269824Y812789D01*
X268634Y814851D01*
X266951Y816534D01*
X264889Y817724D01*
X262590Y818340D01*
D02*
G37*
G36*
X237590D02*
X235210D01*
X232911Y817724D01*
X230849Y816534D01*
X229166Y814851D01*
X227976Y812789D01*
X227360Y810490D01*
Y808110D01*
X227976Y805811D01*
X229166Y803749D01*
X230849Y802066D01*
X232911Y800876D01*
X235210Y800260D01*
X237590D01*
X239889Y800876D01*
X241951Y802066D01*
X243634Y803749D01*
X244824Y805811D01*
X245440Y808110D01*
Y810490D01*
X244824Y812789D01*
X243634Y814851D01*
X241951Y816534D01*
X239889Y817724D01*
X237590Y818340D01*
D02*
G37*
G36*
X711346Y801050D02*
X709854D01*
X708476Y800479D01*
X707421Y799424D01*
X706850Y798046D01*
Y796554D01*
X707421Y795176D01*
X708121Y794476D01*
X708439Y793967D01*
X708175Y792871D01*
X707845Y792541D01*
X707350Y791346D01*
Y790053D01*
X707845Y788859D01*
X708759Y787945D01*
X709954Y787450D01*
X711246D01*
X712441Y787945D01*
X713355Y788859D01*
X713850Y790053D01*
Y791346D01*
X713355Y792541D01*
X713025Y792871D01*
D01*
D01*
X712761Y793967D01*
D01*
D01*
X713079Y794476D01*
X713779Y795176D01*
X714350Y796554D01*
Y797208D01*
Y798046D01*
X713779Y799424D01*
X712724Y800479D01*
X711800Y800862D01*
D01*
X711346Y801050D01*
D02*
G37*
G36*
X721347Y789450D02*
X720054D01*
X718859Y788955D01*
X717945Y788041D01*
X717450Y786846D01*
Y785554D01*
X717945Y784359D01*
X718859Y783445D01*
X720054Y782950D01*
X721347D01*
X722541Y783445D01*
X723455Y784359D01*
X723950Y785554D01*
Y786846D01*
X723455Y788041D01*
X722541Y788955D01*
X721347Y789450D01*
D02*
G37*
G36*
X735947Y774850D02*
X734653D01*
X733459Y774355D01*
X732545Y773441D01*
X732050Y772246D01*
Y770954D01*
X732545Y769759D01*
X733459Y768845D01*
X734653Y768350D01*
X735947D01*
X737141Y768845D01*
X738055Y769759D01*
X738550Y770954D01*
Y772246D01*
X738055Y773441D01*
X737141Y774355D01*
X735947Y774850D01*
D02*
G37*
G36*
X59123Y801840D02*
X55577D01*
X52100Y801148D01*
X48824Y799791D01*
X45876Y797822D01*
X43369Y795314D01*
X41399Y792366D01*
X40042Y789090D01*
X39350Y785613D01*
Y782067D01*
X40042Y778590D01*
X41399Y775314D01*
X43369Y772366D01*
X45876Y769858D01*
X48824Y767889D01*
X52100Y766532D01*
X55577Y765840D01*
X59123D01*
X62600Y766532D01*
X65876Y767889D01*
X68824Y769858D01*
X71332Y772366D01*
X73301Y775314D01*
X74658Y778590D01*
X75350Y782067D01*
Y785613D01*
X74658Y789090D01*
X73301Y792366D01*
X71332Y795314D01*
X68824Y797822D01*
X65876Y799791D01*
X62600Y801148D01*
X59123Y801840D01*
D02*
G37*
G36*
X686600Y883300D02*
X541200D01*
X550000Y874500D01*
X549700Y874200D01*
Y836400D01*
X621100Y765000D01*
Y779200D01*
X625800Y783900D01*
X645900D01*
Y785200D01*
X650200Y789500D01*
Y841400D01*
X650000Y841600D01*
X686600Y878200D01*
Y883300D01*
D02*
G37*
G36*
X678546Y765950D02*
X677253D01*
X676059Y765455D01*
X675145Y764541D01*
X674650Y763346D01*
Y762054D01*
X675145Y760859D01*
X676059Y759945D01*
X677253Y759450D01*
X678546D01*
X679741Y759945D01*
X680655Y760859D01*
X681150Y762054D01*
Y763346D01*
X680655Y764541D01*
X679741Y765455D01*
X678546Y765950D01*
D02*
G37*
G36*
X384846Y761750D02*
X383354D01*
X381976Y761179D01*
X380921Y760124D01*
X380350Y758746D01*
Y757254D01*
X380921Y755876D01*
X381976Y754821D01*
X383354Y754250D01*
X384846D01*
X386224Y754821D01*
X387279Y755876D01*
X387850Y757254D01*
Y758746D01*
X387279Y760124D01*
X386224Y761179D01*
X384846Y761750D01*
D02*
G37*
G36*
X93447Y779690D02*
X89853D01*
X86381Y778760D01*
X83269Y776963D01*
X80727Y774421D01*
X78930Y771309D01*
X78000Y767837D01*
Y764243D01*
X78930Y760771D01*
X80727Y757659D01*
X83269Y755117D01*
X86381Y753320D01*
X89853Y752390D01*
X93447D01*
X96919Y753320D01*
X100031Y755117D01*
X102573Y757659D01*
X104370Y760771D01*
X105300Y764243D01*
Y767837D01*
X104370Y771309D01*
X102573Y774421D01*
X100031Y776963D01*
X96919Y778760D01*
X93447Y779690D01*
D02*
G37*
G36*
X691346Y751150D02*
X690053D01*
X688859Y750655D01*
X687945Y749741D01*
X687450Y748547D01*
Y747253D01*
X687945Y746059D01*
X688859Y745145D01*
X690053Y744650D01*
X691346D01*
X692541Y745145D01*
X693455Y746059D01*
X693950Y747253D01*
Y748547D01*
X693455Y749741D01*
X692541Y750655D01*
X691346Y751150D01*
D02*
G37*
G36*
X712047Y750450D02*
X710753D01*
X709559Y749955D01*
X708645Y749041D01*
X708150Y747847D01*
Y746553D01*
X708645Y745359D01*
X709559Y744445D01*
X710753Y743950D01*
X712047D01*
X713241Y744445D01*
X714155Y745359D01*
X714650Y746553D01*
Y747847D01*
X714155Y749041D01*
X713241Y749955D01*
X712047Y750450D01*
D02*
G37*
G36*
X676346Y745750D02*
X674854D01*
X673476Y745179D01*
X672421Y744124D01*
X671850Y742746D01*
Y741254D01*
X672421Y739876D01*
X673476Y738821D01*
X674854Y738250D01*
X676346D01*
X677724Y738821D01*
X678779Y739876D01*
X679350Y741254D01*
Y742746D01*
X678779Y744124D01*
X677724Y745179D01*
X676346Y745750D01*
D02*
G37*
G36*
X663900Y739718D02*
X659892Y735300D01*
X663900D01*
Y739718D01*
D02*
G37*
G36*
X415118Y751850D02*
X412682D01*
X410330Y751220D01*
X408220Y750002D01*
X406498Y748280D01*
X405280Y746170D01*
X404650Y743818D01*
Y741382D01*
X405280Y739030D01*
X406498Y736920D01*
X408220Y735198D01*
X410330Y733980D01*
X412682Y733350D01*
X415118D01*
X417470Y733980D01*
X419580Y735198D01*
X421302Y736920D01*
X422520Y739030D01*
X423150Y741382D01*
Y743818D01*
X422520Y746170D01*
X421302Y748280D01*
X419580Y750002D01*
X417470Y751220D01*
X415118Y751850D01*
D02*
G37*
G36*
X664746Y733250D02*
X663454D01*
X662259Y732755D01*
X661345Y731841D01*
X660850Y730646D01*
Y729353D01*
X661345Y728159D01*
X662259Y727245D01*
X663454Y726750D01*
X664746D01*
X665941Y727245D01*
X666855Y728159D01*
X667350Y729353D01*
Y730646D01*
X666855Y731841D01*
X665941Y732755D01*
X664746Y733250D01*
D02*
G37*
G36*
X700320Y735870D02*
X699027D01*
X697833Y735375D01*
X696919Y734461D01*
X696424Y733267D01*
Y732640D01*
X696074Y731823D01*
X695257Y731473D01*
X694631D01*
X693436Y730978D01*
X692522Y730064D01*
X692027Y728869D01*
Y727577D01*
X692522Y726382D01*
X693436Y725468D01*
X694631Y724973D01*
X695923D01*
X697118Y725468D01*
X698032Y726382D01*
X698527Y727577D01*
Y728203D01*
X698877Y729020D01*
X699694Y729370D01*
X700320D01*
X701515Y729865D01*
X702429Y730779D01*
X702924Y731973D01*
Y733267D01*
X702429Y734461D01*
X701515Y735375D01*
X700320Y735870D01*
D02*
G37*
G36*
X640546Y732550D02*
X639054D01*
X637676Y731979D01*
X636621Y730924D01*
X636050Y729546D01*
Y728054D01*
X636621Y726676D01*
X637676Y725621D01*
X639054Y725050D01*
X640546D01*
X641680Y725520D01*
X642256Y725445D01*
X643098Y724998D01*
X643521Y723976D01*
X644576Y722921D01*
X645954Y722350D01*
X647446D01*
X648824Y722921D01*
X649879Y723976D01*
X650045Y724376D01*
X651476Y724741D01*
X652854Y724170D01*
X654346D01*
X655724Y724741D01*
X656779Y725796D01*
X657350Y727174D01*
Y728666D01*
X656779Y730044D01*
X655724Y731099D01*
X655724D01*
D01*
X654346Y731670D01*
X652854D01*
X651476Y731099D01*
X650421Y730044D01*
X650255Y729644D01*
X648824Y729279D01*
X647446Y729850D01*
X645954D01*
X644820Y729380D01*
X644244Y729455D01*
X643402Y729902D01*
X642979Y730924D01*
X641924Y731979D01*
X640546Y732550D01*
D02*
G37*
G36*
X631460Y729430D02*
X629968D01*
X628590Y728859D01*
X627535Y727804D01*
X626964Y726426D01*
Y724934D01*
X627535Y723556D01*
X628590Y722501D01*
X629968Y721930D01*
X631460D01*
X632838Y722501D01*
X633893Y723556D01*
X634464Y724934D01*
Y726426D01*
X633893Y727804D01*
X632838Y728859D01*
X631460Y729430D01*
D02*
G37*
G36*
X93447Y745910D02*
X89853D01*
X86381Y744980D01*
X83269Y743183D01*
X80727Y740641D01*
X78930Y737529D01*
X78000Y734057D01*
Y730463D01*
X78930Y726991D01*
X80727Y723879D01*
X83269Y721337D01*
X86381Y719540D01*
X89853Y718610D01*
X93447D01*
X96919Y719540D01*
X100031Y721337D01*
X102573Y723879D01*
X104370Y726991D01*
X105300Y730463D01*
Y734057D01*
X104370Y737529D01*
X102573Y740641D01*
X100031Y743183D01*
X96919Y744980D01*
X93447Y745910D01*
D02*
G37*
G36*
X59123Y732460D02*
X55577D01*
X52100Y731768D01*
X48824Y730411D01*
X45876Y728441D01*
X43369Y725934D01*
X41399Y722986D01*
X40042Y719710D01*
X39350Y716233D01*
Y712687D01*
X40042Y709210D01*
X41399Y705934D01*
X43369Y702986D01*
X45876Y700479D01*
X48824Y698509D01*
X52100Y697152D01*
X55577Y696460D01*
X59123D01*
X62600Y697152D01*
X65876Y698509D01*
X68824Y700479D01*
X71332Y702986D01*
X73301Y705934D01*
X74658Y709210D01*
X75350Y712687D01*
Y716233D01*
X74658Y719710D01*
X73301Y722986D01*
X71332Y725934D01*
X68824Y728441D01*
X65876Y730411D01*
X62600Y731768D01*
X59123Y732460D01*
D02*
G37*
G36*
X101701Y695260D02*
X99399D01*
X97177Y694664D01*
X95183Y693514D01*
X93556Y691887D01*
X92406Y689893D01*
X91810Y687671D01*
Y685369D01*
X92406Y683147D01*
X93556Y681153D01*
X95183Y679526D01*
X97177Y678376D01*
X99399Y677780D01*
X101701D01*
X103924Y678376D01*
X105917Y679526D01*
X107544Y681153D01*
X108694Y683147D01*
X109290Y685369D01*
Y687671D01*
X108694Y689893D01*
X107544Y691887D01*
X105917Y693514D01*
X103924Y694664D01*
X101701Y695260D01*
D02*
G37*
G36*
X83901Y685100D02*
X81599D01*
X79377Y684504D01*
X77383Y683354D01*
X75756Y681727D01*
X74606Y679734D01*
X74010Y677511D01*
Y675209D01*
X74606Y672987D01*
X75756Y670993D01*
X77383Y669366D01*
X79377Y668216D01*
X81599Y667620D01*
X83901D01*
X86124Y668216D01*
X88117Y669366D01*
X89744Y670993D01*
X90894Y672987D01*
X91490Y675209D01*
Y677511D01*
X90894Y679734D01*
X89744Y681727D01*
X88117Y683354D01*
X86124Y684504D01*
X83901Y685100D01*
D02*
G37*
G36*
X101701Y674940D02*
X99399D01*
X97177Y674344D01*
X95183Y673194D01*
X93556Y671566D01*
X92406Y669574D01*
X91810Y667351D01*
Y665049D01*
X92406Y662827D01*
X93556Y660834D01*
X95183Y659206D01*
X97177Y658056D01*
X99399Y657460D01*
X101701D01*
X103924Y658056D01*
X105917Y659206D01*
X107544Y660834D01*
X108694Y662827D01*
X109290Y665049D01*
Y667351D01*
X108694Y669574D01*
X107544Y671566D01*
X105917Y673194D01*
X103924Y674344D01*
X101701Y674940D01*
D02*
G37*
G36*
X83901Y664780D02*
X81599D01*
X79377Y664184D01*
X77383Y663034D01*
X75756Y661406D01*
X74606Y659414D01*
X74010Y657191D01*
Y654889D01*
X74606Y652666D01*
X75756Y650674D01*
X77383Y649046D01*
X79377Y647896D01*
X81599Y647300D01*
X83901D01*
X86124Y647896D01*
X88117Y649046D01*
X89744Y650674D01*
X90894Y652666D01*
X91490Y654889D01*
Y657191D01*
X90894Y659414D01*
X89744Y661406D01*
X88117Y663034D01*
X86124Y664184D01*
X83901Y664780D01*
D02*
G37*
G36*
X101701Y654620D02*
X99399D01*
X97177Y654024D01*
X95183Y652874D01*
X93556Y651246D01*
X92406Y649253D01*
X91810Y647031D01*
Y644729D01*
X92406Y642506D01*
X93556Y640514D01*
X95183Y638886D01*
X95756Y638556D01*
D01*
X97177Y637736D01*
X99399Y637140D01*
X101701D01*
X103924Y637736D01*
X105917Y638886D01*
X107544Y640514D01*
X108694Y642506D01*
X109290Y644729D01*
Y647031D01*
X108694Y649253D01*
X107874Y650674D01*
X107544Y651246D01*
X105917Y652874D01*
X103924Y654024D01*
X101701Y654620D01*
D02*
G37*
G36*
X83901Y644460D02*
X81599D01*
X79377Y643864D01*
X77383Y642714D01*
X75756Y641087D01*
X74606Y639094D01*
X74010Y636871D01*
Y634569D01*
X74606Y632346D01*
X75756Y630354D01*
X77383Y628726D01*
X79377Y627576D01*
X81599Y626980D01*
X83901D01*
X84282Y627082D01*
D01*
X86124Y627576D01*
X88117Y628726D01*
X89744Y630354D01*
X90894Y632346D01*
X91388Y634188D01*
X91490Y634569D01*
Y636871D01*
X90894Y639094D01*
X89744Y641087D01*
X88117Y642714D01*
X86124Y643864D01*
X83901Y644460D01*
D02*
G37*
G36*
X101701Y634300D02*
X99399D01*
X97177Y633704D01*
X95183Y632554D01*
X93556Y630927D01*
X92406Y628933D01*
X91810Y626711D01*
Y624409D01*
X92406Y622187D01*
X93556Y620193D01*
X95183Y618566D01*
X97177Y617416D01*
X99399Y616820D01*
X101701D01*
X103924Y617416D01*
X105917Y618566D01*
X107544Y620193D01*
X108694Y622187D01*
X109290Y624409D01*
Y626711D01*
X108694Y628933D01*
X107544Y630927D01*
X105917Y632554D01*
X103924Y633704D01*
X101701Y634300D01*
D02*
G37*
G36*
X83901Y624140D02*
X81599D01*
X79377Y623544D01*
X77383Y622394D01*
X75756Y620766D01*
X74606Y618773D01*
X74010Y616551D01*
Y614249D01*
X74606Y612026D01*
X75756Y610033D01*
X77383Y608406D01*
X79377Y607256D01*
X81599Y606660D01*
X83901D01*
X86124Y607256D01*
X88117Y608406D01*
X89744Y610033D01*
X90894Y612026D01*
X91490Y614249D01*
Y616551D01*
X90894Y618773D01*
X89744Y620766D01*
X88117Y622394D01*
X86124Y623544D01*
X83901Y624140D01*
D02*
G37*
G36*
X421046Y597250D02*
X419554D01*
X418176Y596679D01*
X417121Y595624D01*
X416550Y594246D01*
Y592754D01*
X417121Y591376D01*
X418176Y590321D01*
X419554Y589750D01*
X421046D01*
X422424Y590321D01*
X423479Y591376D01*
X424050Y592754D01*
Y594246D01*
X423479Y595624D01*
X422424Y596679D01*
X421046Y597250D01*
D02*
G37*
G36*
X420746Y566350D02*
X419254D01*
X417876Y565779D01*
X416821Y564724D01*
X416250Y563346D01*
Y561854D01*
X416821Y560476D01*
X417876Y559421D01*
X419254Y558850D01*
X420746D01*
X422124Y559421D01*
X423179Y560476D01*
X423750Y561854D01*
Y563346D01*
X423179Y564724D01*
X422124Y565779D01*
X420746Y566350D01*
D02*
G37*
G36*
X21952Y534650D02*
X19648D01*
X17423Y534054D01*
X15427Y532902D01*
X13798Y531273D01*
X12646Y529277D01*
X12050Y527052D01*
Y524748D01*
X12646Y522523D01*
X13798Y520527D01*
X15427Y518898D01*
X17423Y517746D01*
X19648Y517150D01*
X21952D01*
X24177Y517746D01*
X26173Y518898D01*
X27802Y520527D01*
X28954Y522523D01*
X29550Y524748D01*
Y527052D01*
X28954Y529277D01*
X27802Y531273D01*
X26173Y532902D01*
X24177Y534054D01*
X21952Y534650D01*
D02*
G37*
G36*
Y382250D02*
X19648D01*
X17423Y381654D01*
X15427Y380502D01*
X13798Y378873D01*
X12646Y376877D01*
X12050Y374652D01*
Y372348D01*
X12646Y370123D01*
X13798Y368127D01*
X15427Y366498D01*
X17423Y365346D01*
X19648Y364750D01*
X21952D01*
X24177Y365346D01*
X26173Y366498D01*
X27802Y368127D01*
X28954Y370123D01*
X29550Y372348D01*
Y374652D01*
X28954Y376877D01*
X27802Y378873D01*
X26173Y380502D01*
X24177Y381654D01*
X21952Y382250D01*
D02*
G37*
G36*
X757954Y340954D02*
X755574D01*
X753275Y340338D01*
X751213Y339148D01*
X749530Y337465D01*
X748340Y335403D01*
X747724Y333104D01*
Y330724D01*
X748340Y328425D01*
X749530Y326363D01*
X751213Y324680D01*
X753275Y323490D01*
X755574Y322874D01*
X757954D01*
X760253Y323490D01*
X762315Y324680D01*
X763998Y326363D01*
X765188Y328425D01*
X765804Y330724D01*
Y333104D01*
X765188Y335403D01*
X763998Y337465D01*
X762315Y339148D01*
X760253Y340338D01*
X757954Y340954D01*
D02*
G37*
G36*
Y315954D02*
X755574D01*
X753275Y315338D01*
X751213Y314148D01*
X749530Y312465D01*
X748340Y310403D01*
X747724Y308104D01*
Y305724D01*
X748340Y303425D01*
X749530Y301363D01*
X751213Y299680D01*
X753275Y298490D01*
X755574Y297874D01*
X757954D01*
X760253Y298490D01*
X762315Y299680D01*
X763998Y301363D01*
X765188Y303425D01*
X765804Y305724D01*
Y308104D01*
X765188Y310403D01*
X763998Y312465D01*
X762315Y314148D01*
X760253Y315338D01*
X757954Y315954D01*
D02*
G37*
G36*
X973690Y292140D02*
X971310D01*
X969011Y291524D01*
X966949Y290334D01*
X965266Y288651D01*
X964076Y286589D01*
X963460Y284290D01*
Y281910D01*
X964076Y279611D01*
X965266Y277549D01*
X966949Y275866D01*
X969011Y274676D01*
X971310Y274060D01*
X973690D01*
X975989Y274676D01*
X978051Y275866D01*
X979734Y277549D01*
X980924Y279611D01*
X981540Y281910D01*
Y284290D01*
X980924Y286589D01*
X979734Y288651D01*
X978051Y290334D01*
X975989Y291524D01*
X973690Y292140D01*
D02*
G37*
G36*
X948690D02*
X946310D01*
X944011Y291524D01*
X941949Y290334D01*
X940266Y288651D01*
X939076Y286589D01*
X938460Y284290D01*
Y281910D01*
X939076Y279611D01*
X940266Y277549D01*
X941949Y275866D01*
X944011Y274676D01*
X946310Y274060D01*
X948690D01*
X950989Y274676D01*
X953051Y275866D01*
X954734Y277549D01*
X955924Y279611D01*
X956540Y281910D01*
Y284290D01*
X955924Y286589D01*
X954734Y288651D01*
X953051Y290334D01*
X950989Y291524D01*
X948690Y292140D01*
D02*
G37*
G36*
X757954Y290954D02*
X755574D01*
X753275Y290338D01*
X751213Y289148D01*
X749530Y287465D01*
X748340Y285403D01*
X747724Y283104D01*
Y280724D01*
X748340Y278425D01*
X749530Y276363D01*
X751213Y274680D01*
X753275Y273490D01*
X755574Y272874D01*
X757954D01*
X760253Y273490D01*
X762315Y274680D01*
X763998Y276363D01*
X765188Y278425D01*
X765804Y280724D01*
Y283104D01*
X765188Y285403D01*
X763998Y287465D01*
X762315Y289148D01*
X760253Y290338D01*
X757954Y290954D01*
D02*
G37*
G36*
Y265954D02*
X755574D01*
X753275Y265338D01*
X751213Y264148D01*
X749530Y262465D01*
X748340Y260403D01*
X747724Y258104D01*
Y255724D01*
X748340Y253425D01*
X749530Y251363D01*
X751213Y249680D01*
X753275Y248490D01*
X755574Y247874D01*
X757954D01*
X760253Y248490D01*
X762315Y249680D01*
X763998Y251363D01*
X765188Y253425D01*
X765804Y255724D01*
Y258104D01*
X765188Y260403D01*
X763998Y262465D01*
X762315Y264148D01*
X760253Y265338D01*
X757954Y265954D01*
D02*
G37*
G36*
X809046Y230450D02*
X807554D01*
X806176Y229879D01*
X805121Y228824D01*
X804550Y227446D01*
Y225954D01*
X805121Y224576D01*
X806176Y223521D01*
X807554Y222950D01*
X809046D01*
X810424Y223521D01*
X811479Y224576D01*
X812050Y225954D01*
Y227446D01*
X811479Y228824D01*
X810424Y229879D01*
X809046Y230450D01*
D02*
G37*
G36*
X757954Y240954D02*
X755574D01*
X753275Y240338D01*
X751213Y239148D01*
X749530Y237465D01*
X748340Y235403D01*
X747724Y233104D01*
Y230724D01*
X748340Y228425D01*
X749530Y226363D01*
X751213Y224680D01*
X753275Y223490D01*
X755574Y222874D01*
X757954D01*
X760253Y223490D01*
X762315Y224680D01*
X763998Y226363D01*
X765188Y228425D01*
X765804Y230724D01*
Y233104D01*
X765188Y235403D01*
X763998Y237465D01*
X762315Y239148D01*
X760253Y240338D01*
X757954Y240954D01*
D02*
G37*
G36*
X799946Y206350D02*
X798454D01*
X797076Y205779D01*
X796021Y204724D01*
X795450Y203346D01*
Y201854D01*
X796021Y200476D01*
X797076Y199421D01*
X798454Y198850D01*
X799946D01*
X801324Y199421D01*
X802379Y200476D01*
X802950Y201854D01*
Y203346D01*
X802379Y204724D01*
X801324Y205779D01*
X799946Y206350D01*
D02*
G37*
G36*
X972190Y203440D02*
X969810D01*
X967511Y202824D01*
X965449Y201634D01*
X963766Y199951D01*
X962576Y197889D01*
X961960Y195590D01*
Y193210D01*
X962576Y190911D01*
X963766Y188849D01*
X965449Y187166D01*
X967511Y185976D01*
X969810Y185360D01*
X972190D01*
X974489Y185976D01*
X976551Y187166D01*
X978234Y188849D01*
X979424Y190911D01*
X980040Y193210D01*
Y195590D01*
X979424Y197889D01*
X978234Y199951D01*
X976551Y201634D01*
X974489Y202824D01*
X972190Y203440D01*
D02*
G37*
G36*
Y178440D02*
X969810D01*
X967511Y177824D01*
X965449Y176634D01*
X963766Y174951D01*
X962576Y172889D01*
X961960Y170590D01*
Y168210D01*
X962576Y165911D01*
X963766Y163849D01*
X965449Y162166D01*
X967511Y160976D01*
X969810Y160360D01*
X972190D01*
X974489Y160976D01*
X976551Y162166D01*
X978234Y163849D01*
X979424Y165911D01*
X980040Y168210D01*
Y170590D01*
X979424Y172889D01*
X978234Y174951D01*
X976551Y176634D01*
X974489Y177824D01*
X972190Y178440D01*
D02*
G37*
G36*
X851146Y122850D02*
X849854D01*
X848659Y122355D01*
X847745Y121441D01*
X847250Y120246D01*
Y118954D01*
X847745Y117759D01*
X848659Y116845D01*
X849854Y116350D01*
X851146D01*
X852341Y116845D01*
X853255Y117759D01*
X853750Y118954D01*
Y120246D01*
X853255Y121441D01*
X852341Y122355D01*
X851146Y122850D01*
D02*
G37*
G36*
X881561Y122825D02*
X880268D01*
X879074Y122330D01*
X878159Y121416D01*
X877665Y120222D01*
Y118928D01*
X878159Y117734D01*
X879074Y116820D01*
X880268Y116325D01*
X881561D01*
X882756Y116820D01*
X883670Y117734D01*
X884165Y118928D01*
Y120222D01*
X883670Y121416D01*
X882756Y122330D01*
X881561Y122825D01*
D02*
G37*
G36*
X881646Y113250D02*
X880353D01*
X879159Y112755D01*
X878245Y111841D01*
X877750Y110646D01*
Y109354D01*
X878245Y108159D01*
X879159Y107245D01*
X880353Y106750D01*
X881646D01*
X882841Y107245D01*
X883755Y108159D01*
X884250Y109354D01*
Y110646D01*
X883755Y111841D01*
X882841Y112755D01*
X881646Y113250D01*
D02*
G37*
G36*
X851047Y113050D02*
X849753D01*
X848559Y112555D01*
X847645Y111641D01*
X847150Y110447D01*
Y109154D01*
X847645Y107959D01*
X848559Y107045D01*
X849753Y106550D01*
X851047D01*
X852241Y107045D01*
X853155Y107959D01*
X853650Y109154D01*
Y110447D01*
X853155Y111641D01*
X852241Y112555D01*
X851047Y113050D01*
D02*
G37*
G36*
X860646Y110850D02*
X859154D01*
X857776Y110279D01*
X856721Y109224D01*
X856150Y107846D01*
Y106354D01*
X856721Y104976D01*
X857776Y103921D01*
X859154Y103350D01*
X860646D01*
X862024Y103921D01*
X863079Y104976D01*
X863650Y106354D01*
Y107846D01*
X863079Y109224D01*
X862024Y110279D01*
X860646Y110850D01*
D02*
G37*
G36*
X872146Y110750D02*
X870654D01*
X869276Y110179D01*
X868221Y109124D01*
X867650Y107746D01*
Y106254D01*
X868221Y104876D01*
X869276Y103821D01*
X870654Y103250D01*
X872146D01*
X873524Y103821D01*
X874579Y104876D01*
X875150Y106254D01*
Y107746D01*
X874579Y109124D01*
X873524Y110179D01*
X872146Y110750D01*
D02*
G37*
G36*
X869446Y91850D02*
X867954D01*
X866576Y91279D01*
X865550Y90253D01*
X864524Y91279D01*
X863146Y91850D01*
X861654D01*
X860276Y91279D01*
X859221Y90224D01*
X858650Y88846D01*
Y87354D01*
X859221Y85976D01*
X860276Y84921D01*
X861654Y84350D01*
X863146D01*
X864524Y84921D01*
X865550Y85947D01*
X866576Y84921D01*
X867954Y84350D01*
X869446D01*
X870824Y84921D01*
X871879Y85976D01*
X872450Y87354D01*
Y88846D01*
X871879Y90224D01*
X870824Y91279D01*
X869446Y91850D01*
D02*
G37*
G36*
X827847Y92250D02*
X826553D01*
X825359Y91755D01*
X824445Y90841D01*
X823950Y89647D01*
Y88354D01*
X824445Y87159D01*
X825359Y86245D01*
X826553Y85750D01*
X827847D01*
X829041Y86245D01*
X829955Y87159D01*
X830450Y88354D01*
Y89647D01*
X829955Y90841D01*
X829041Y91755D01*
X827847Y92250D01*
D02*
G37*
G36*
X902847Y91350D02*
X901553D01*
X900359Y90855D01*
X899445Y89941D01*
X898950Y88747D01*
Y87453D01*
X899445Y86259D01*
X900359Y85345D01*
X901553Y84850D01*
X902847D01*
X904041Y85345D01*
X904955Y86259D01*
X905450Y87453D01*
Y88747D01*
X904955Y89941D01*
X904041Y90855D01*
X902847Y91350D01*
D02*
G37*
G36*
X971990Y97840D02*
X969610D01*
X967311Y97224D01*
X965249Y96034D01*
X963566Y94351D01*
X962376Y92289D01*
X961760Y89990D01*
Y87610D01*
X962376Y85311D01*
X963566Y83249D01*
X965249Y81566D01*
X967311Y80376D01*
X969610Y79760D01*
X971990D01*
X974289Y80376D01*
X976351Y81566D01*
X978034Y83249D01*
X979224Y85311D01*
X979840Y87610D01*
Y89990D01*
X979224Y92289D01*
X978034Y94351D01*
X976351Y96034D01*
X974289Y97224D01*
X971990Y97840D01*
D02*
G37*
G36*
X789811Y82185D02*
X788518D01*
X787324Y81691D01*
X786409Y80777D01*
X785915Y79582D01*
Y78289D01*
X786409Y77094D01*
X787324Y76180D01*
X788518Y75686D01*
X789811D01*
X791005Y76180D01*
X791920Y77094D01*
X792414Y78289D01*
Y79582D01*
X791920Y80777D01*
X791005Y81691D01*
X789811Y82185D01*
D02*
G37*
G36*
X778246Y80050D02*
X776954D01*
X775759Y79555D01*
X774845Y78641D01*
X774350Y77446D01*
Y76153D01*
X774845Y74959D01*
X775759Y74045D01*
X776954Y73550D01*
X778246D01*
X779441Y74045D01*
X780355Y74959D01*
X780850Y76153D01*
Y77446D01*
X780355Y78641D01*
X779441Y79555D01*
X778246Y80050D01*
D02*
G37*
G36*
X764446Y79750D02*
X763154D01*
X761959Y79255D01*
X761045Y78341D01*
X760550Y77147D01*
Y75854D01*
X761045Y74659D01*
X761959Y73745D01*
X763154Y73250D01*
X764446D01*
X765641Y73745D01*
X766555Y74659D01*
X767050Y75854D01*
Y77147D01*
X766555Y78341D01*
X765641Y79255D01*
X764446Y79750D01*
D02*
G37*
G36*
X876136Y65800D02*
X874645D01*
X873266Y65229D01*
X872909Y64872D01*
X872203Y64180D01*
X871250Y64872D01*
X871016Y65106D01*
X869638Y65677D01*
X868146D01*
X866768Y65106D01*
X866381Y64719D01*
X864680Y64623D01*
X864524Y64779D01*
X863146Y65350D01*
X861654D01*
X860276Y64779D01*
X860032Y64535D01*
X859091Y63849D01*
X858373Y64535D01*
X858018Y64891D01*
X856639Y65462D01*
X855148D01*
X853769Y64891D01*
X852714Y63836D01*
X852144Y62458D01*
Y60966D01*
X852714Y59587D01*
X853769Y58533D01*
X855148Y57962D01*
X856639D01*
X858018Y58533D01*
X858261Y58776D01*
X859203Y59463D01*
X859921Y58776D01*
X860276Y58421D01*
X861654Y57850D01*
X863146D01*
X864524Y58421D01*
X864911Y58808D01*
X866612Y58903D01*
X866768Y58748D01*
X868146Y58177D01*
X869638D01*
X871016Y58748D01*
X871373Y59105D01*
X872079Y59796D01*
X873033Y59105D01*
X873266Y58871D01*
X874645Y58300D01*
X876136D01*
X877515Y58871D01*
X878570Y59926D01*
X879141Y61304D01*
Y62796D01*
X878570Y64174D01*
X877515Y65229D01*
X876136Y65800D01*
D02*
G37*
G36*
X895545Y70300D02*
X893655D01*
X891909Y69577D01*
X890573Y68241D01*
X889850Y66495D01*
Y64605D01*
X890573Y62859D01*
X891909Y61523D01*
X893655Y60800D01*
X895545D01*
X897291Y61523D01*
X898627Y62859D01*
X899350Y64605D01*
Y66495D01*
X898627Y68241D01*
X897291Y69577D01*
X895545Y70300D01*
D02*
G37*
G36*
X837745D02*
X835855D01*
X834109Y69577D01*
X832773Y68241D01*
X832050Y66495D01*
Y64605D01*
X832773Y62859D01*
X834109Y61523D01*
X835855Y60800D01*
X837745D01*
X839491Y61523D01*
X840827Y62859D01*
X841550Y64605D01*
Y66495D01*
X840827Y68241D01*
X839491Y69577D01*
X837745Y70300D01*
D02*
G37*
G36*
X908900Y82606D02*
X907203Y82383D01*
X905622Y81728D01*
X904264Y80686D01*
X903222Y79328D01*
X902567Y77747D01*
X902344Y76050D01*
Y65050D01*
X902567Y63353D01*
X903222Y61772D01*
X904264Y60414D01*
X905622Y59372D01*
X907203Y58717D01*
X908900Y58494D01*
X910597Y58717D01*
X912178Y59372D01*
X913536Y60414D01*
X914578Y61772D01*
X915233Y63353D01*
X915456Y65050D01*
Y76050D01*
X915233Y77747D01*
X914578Y79328D01*
X913536Y80686D01*
X912178Y81728D01*
X910597Y82383D01*
X908900Y82606D01*
D02*
G37*
G36*
X822500D02*
X820803Y82383D01*
X819222Y81728D01*
X817864Y80686D01*
X816822Y79328D01*
X816167Y77747D01*
X815944Y76050D01*
Y65050D01*
X816167Y63353D01*
X816822Y61772D01*
X817864Y60414D01*
X819222Y59372D01*
X820803Y58717D01*
X822500Y58494D01*
X824197Y58717D01*
X825778Y59372D01*
X827136Y60414D01*
X828178Y61772D01*
X828833Y63353D01*
X829056Y65050D01*
Y76050D01*
X828833Y77747D01*
X828178Y79328D01*
X827136Y80686D01*
X825778Y81728D01*
X824197Y82383D01*
X822500Y82606D01*
D02*
G37*
G36*
X971990Y72840D02*
X969610D01*
X967311Y72224D01*
X965249Y71034D01*
X963566Y69351D01*
X962376Y67289D01*
X961760Y64990D01*
Y62610D01*
X962376Y60311D01*
X963566Y58249D01*
X965249Y56566D01*
X967311Y55376D01*
X969610Y54760D01*
X971990D01*
X974289Y55376D01*
X976351Y56566D01*
X978034Y58249D01*
X979224Y60311D01*
X979840Y62610D01*
Y64990D01*
X979224Y67289D01*
X978034Y69351D01*
X976351Y71034D01*
X974289Y72224D01*
X971990Y72840D01*
D02*
G37*
G36*
X530947Y35450D02*
X529654D01*
X528459Y34955D01*
X527545Y34041D01*
X527050Y32847D01*
Y31554D01*
X527545Y30359D01*
X528459Y29445D01*
X529654Y28950D01*
X530947D01*
X532141Y29445D01*
X533055Y30359D01*
X533550Y31554D01*
Y32847D01*
X533055Y34041D01*
X532141Y34955D01*
X530947Y35450D01*
D02*
G37*
G36*
X557947Y35350D02*
X556654D01*
X555459Y34855D01*
X554545Y33941D01*
X554050Y32747D01*
Y31454D01*
X554545Y30259D01*
X555459Y29345D01*
X556654Y28850D01*
X557947D01*
X559141Y29345D01*
X560055Y30259D01*
X560550Y31454D01*
Y32747D01*
X560055Y33941D01*
X559141Y34855D01*
X557947Y35350D01*
D02*
G37*
G36*
X544747Y35050D02*
X543454D01*
X542259Y34555D01*
X541345Y33641D01*
X540850Y32446D01*
Y31154D01*
X541345Y29959D01*
X542259Y29045D01*
X543454Y28550D01*
X544747D01*
X545941Y29045D01*
X546855Y29959D01*
X547350Y31154D01*
Y32446D01*
X546855Y33641D01*
X545941Y34555D01*
X544747Y35050D01*
D02*
G37*
G36*
X707047Y32250D02*
X705754D01*
X704559Y31755D01*
X703645Y30841D01*
X703150Y29646D01*
Y28354D01*
X703645Y27159D01*
X704559Y26245D01*
X705754Y25750D01*
X707047D01*
X708241Y26245D01*
X709155Y27159D01*
X709650Y28354D01*
Y29646D01*
X709155Y30841D01*
X708241Y31755D01*
X707047Y32250D01*
D02*
G37*
G36*
X693646Y32150D02*
X692354D01*
X691159Y31655D01*
X690245Y30741D01*
X689750Y29546D01*
Y28254D01*
X690245Y27059D01*
X691159Y26145D01*
X692354Y25650D01*
X693646D01*
X694841Y26145D01*
X695755Y27059D01*
X696250Y28254D01*
Y29546D01*
X695755Y30741D01*
X694841Y31655D01*
X693646Y32150D01*
D02*
G37*
G36*
X679846Y32050D02*
X678553D01*
X677359Y31555D01*
X676445Y30641D01*
X675950Y29446D01*
Y28154D01*
X676445Y26959D01*
X677359Y26045D01*
X678553Y25550D01*
X679846D01*
X681041Y26045D01*
X681955Y26959D01*
X682450Y28154D01*
Y29446D01*
X681955Y30641D01*
X681041Y31555D01*
X679846Y32050D01*
D02*
G37*
G36*
X759846Y29050D02*
X758554D01*
X757359Y28555D01*
X756445Y27641D01*
X755950Y26446D01*
Y25154D01*
X756445Y23959D01*
X757359Y23045D01*
X758554Y22550D01*
X759846D01*
X761041Y23045D01*
X761955Y23959D01*
X762450Y25154D01*
Y26446D01*
X761955Y27641D01*
X761041Y28555D01*
X759846Y29050D01*
D02*
G37*
G36*
X908900Y39306D02*
X907203Y39083D01*
X905622Y38428D01*
X904264Y37386D01*
X903324Y36161D01*
D01*
X903224Y36030D01*
X903222Y36028D01*
X902567Y34447D01*
X902344Y32750D01*
Y24750D01*
X902567Y23053D01*
X903222Y21472D01*
X904264Y20114D01*
X905622Y19072D01*
X907203Y18417D01*
X908900Y18194D01*
X910597Y18417D01*
X912178Y19072D01*
X913536Y20114D01*
X914578Y21472D01*
X915233Y23053D01*
X915456Y24750D01*
Y32750D01*
X915233Y34447D01*
X914578Y36028D01*
X913536Y37386D01*
X912178Y38428D01*
X910597Y39083D01*
X908900Y39306D01*
D02*
G37*
G36*
X822500D02*
X820803Y39083D01*
X819222Y38428D01*
X817864Y37386D01*
X816822Y36028D01*
X816167Y34447D01*
X815944Y32750D01*
Y24750D01*
X816167Y23053D01*
X816822Y21472D01*
X817864Y20114D01*
X819222Y19072D01*
X820803Y18417D01*
X822500Y18194D01*
X824197Y18417D01*
X825778Y19072D01*
X827136Y20114D01*
X828178Y21472D01*
X828833Y23053D01*
X829056Y24750D01*
Y32750D01*
X828833Y34447D01*
X828178Y36028D01*
X828076Y36161D01*
D01*
X827136Y37386D01*
X825778Y38428D01*
X824197Y39083D01*
X822500Y39306D01*
D02*
G37*
G36*
X785647Y18550D02*
X784353D01*
X783159Y18055D01*
X782245Y17141D01*
X781750Y15947D01*
Y14654D01*
X782245Y13459D01*
X783159Y12545D01*
X784353Y12050D01*
X785647D01*
X786841Y12545D01*
X787755Y13459D01*
X788250Y14654D01*
Y15947D01*
X787755Y17141D01*
X786841Y18055D01*
X785647Y18550D01*
D02*
G37*
G36*
X693646Y18050D02*
X692354D01*
X691159Y17555D01*
X690245Y16641D01*
X689750Y15446D01*
Y14153D01*
X690245Y12959D01*
X690904Y12300D01*
X691159Y12045D01*
X692354Y11550D01*
X693646D01*
X694841Y12045D01*
X695096Y12300D01*
X695755Y12959D01*
X696250Y14153D01*
Y15446D01*
X695755Y16641D01*
X694841Y17555D01*
X693646Y18050D01*
D02*
G37*
G36*
X679846Y18050D02*
X678553D01*
X677359Y17555D01*
X676445Y16641D01*
X675950Y15446D01*
Y14153D01*
X676445Y12959D01*
X677104Y12300D01*
X677359Y12045D01*
X678553Y11550D01*
X679846D01*
X681041Y12045D01*
X681296Y12300D01*
X681955Y12959D01*
X682450Y14153D01*
Y15446D01*
X681955Y16641D01*
X681041Y17555D01*
X679846Y18050D01*
D02*
G37*
G36*
X707646Y17950D02*
X706354D01*
X705159Y17455D01*
X704245Y16541D01*
X703750Y15346D01*
Y14053D01*
X704245Y12859D01*
X704804Y12300D01*
X705159Y11945D01*
X706354Y11450D01*
X707646D01*
X708841Y11945D01*
X709196Y12300D01*
X709755Y12859D01*
X710250Y14053D01*
Y15346D01*
X709755Y16541D01*
X708841Y17455D01*
X707646Y17950D01*
D02*
G37*
G36*
X175582Y382036D02*
X173278D01*
X171053Y381440D01*
X169057Y380288D01*
X167428Y378659D01*
X166276Y376663D01*
X165680Y374438D01*
Y372134D01*
X166276Y369909D01*
X167428Y367913D01*
X169057Y366284D01*
X171053Y365132D01*
X173278Y364536D01*
X175582D01*
X177807Y365132D01*
X179803Y366284D01*
X181432Y367913D01*
X182584Y369909D01*
X183180Y372134D01*
Y374438D01*
X182584Y376663D01*
X181432Y378659D01*
X179803Y380288D01*
X177807Y381440D01*
X175582Y382036D01*
D02*
G37*
G36*
X354119Y310900D02*
X351881D01*
X349719Y310321D01*
X347781Y309202D01*
X346198Y307619D01*
X345079Y305681D01*
X344500Y303519D01*
Y301281D01*
X345079Y299119D01*
X346198Y297181D01*
X347781Y295598D01*
X349719Y294479D01*
X351881Y293900D01*
X354119D01*
X356281Y294479D01*
X358219Y295598D01*
X359802Y297181D01*
X360921Y299119D01*
X361500Y301281D01*
Y303519D01*
X360921Y305681D01*
X359802Y307619D01*
X358219Y309202D01*
X356281Y310321D01*
X354119Y310900D01*
D02*
G37*
G36*
X221319D02*
X219081D01*
X216919Y310321D01*
X214981Y309202D01*
X213398Y307619D01*
X212279Y305681D01*
X211700Y303519D01*
Y301281D01*
X212279Y299119D01*
X213398Y297181D01*
X214981Y295598D01*
X216919Y294479D01*
X219081Y293900D01*
X221319D01*
X223481Y294479D01*
X225419Y295598D01*
X227002Y297181D01*
X228121Y299119D01*
X228700Y301281D01*
Y303519D01*
X228121Y305681D01*
X227002Y307619D01*
X225419Y309202D01*
X223481Y310321D01*
X221319Y310900D01*
D02*
G37*
G36*
X564352Y283650D02*
X562048D01*
X559823Y283054D01*
X557827Y281902D01*
X556198Y280273D01*
X555046Y278277D01*
X554450Y276052D01*
Y273748D01*
X555046Y271523D01*
X556198Y269527D01*
X557827Y267898D01*
X559823Y266746D01*
X562048Y266150D01*
X564352D01*
X566577Y266746D01*
X568573Y267898D01*
X570202Y269527D01*
X571354Y271523D01*
X571950Y273748D01*
Y276052D01*
X571354Y278277D01*
X570202Y280273D01*
X568573Y281902D01*
X566577Y283054D01*
X564352Y283650D01*
D02*
G37*
G36*
Y257234D02*
X562048D01*
X559823Y256638D01*
X557827Y255486D01*
X556198Y253857D01*
X555046Y251861D01*
X554450Y249636D01*
Y247332D01*
X555046Y245107D01*
X556198Y243111D01*
X557827Y241482D01*
X559823Y240330D01*
X562048Y239734D01*
X564352D01*
X566577Y240330D01*
X568573Y241482D01*
X570202Y243111D01*
X571354Y245107D01*
X571950Y247332D01*
Y249636D01*
X571354Y251861D01*
X570202Y253857D01*
X568573Y255486D01*
X566577Y256638D01*
X564352Y257234D01*
D02*
G37*
G36*
Y231834D02*
X562048D01*
X559823Y231238D01*
X557827Y230086D01*
X556198Y228457D01*
X555046Y226461D01*
X554450Y224236D01*
Y221932D01*
X555046Y219707D01*
X556198Y217711D01*
X557827Y216082D01*
X559823Y214930D01*
X562048Y214334D01*
X564352D01*
X566577Y214930D01*
X568573Y216082D01*
X570202Y217711D01*
X571354Y219707D01*
X571950Y221932D01*
Y224236D01*
X571354Y226461D01*
X570202Y228457D01*
X568573Y230086D01*
X566577Y231238D01*
X564352Y231834D01*
D02*
G37*
%LPD*%
D144*
X413900Y717600D02*
D03*
D145*
Y742600D02*
D03*
D169*
X786100Y475100D02*
D03*
X911800Y408800D02*
D03*
X653600Y727920D02*
D03*
X675300Y632800D02*
D03*
X646700Y726100D02*
D03*
X639800Y728800D02*
D03*
X675400Y617900D02*
D03*
X675300Y624900D02*
D03*
X824600Y229600D02*
D03*
X831400D02*
D03*
X808300Y226700D02*
D03*
X500700Y639100D02*
D03*
X582117Y549317D02*
D03*
X500500Y653500D02*
D03*
X509000Y626800D02*
D03*
X615300Y600700D02*
D03*
X630714Y725680D02*
D03*
X618700Y716600D02*
D03*
X650100Y695000D02*
D03*
X503900Y664000D02*
D03*
X797200Y256000D02*
D03*
X589200Y596300D02*
D03*
X535100Y564500D02*
D03*
X836000Y612300D02*
D03*
X675200Y687800D02*
D03*
X863900Y623800D02*
D03*
X676300Y611100D02*
D03*
X971400Y324100D02*
D03*
X890100Y252000D02*
D03*
X889900Y230100D02*
D03*
X496500Y660000D02*
D03*
X495200Y955100D02*
D03*
X503400Y956200D02*
D03*
X488900Y959900D02*
D03*
X495500Y937200D02*
D03*
X487500Y937400D02*
D03*
X523400Y895900D02*
D03*
X517200Y901200D02*
D03*
X510300Y896000D02*
D03*
X825000Y598700D02*
D03*
X835700Y582800D02*
D03*
X528900Y594200D02*
D03*
X508800Y592100D02*
D03*
X572928Y550918D02*
D03*
X833446Y573211D02*
D03*
X668600Y810600D02*
D03*
X533300Y731600D02*
D03*
X624456Y645500D02*
D03*
X647300Y636100D02*
D03*
X869800Y777300D02*
D03*
X865800Y773400D02*
D03*
X861400Y768700D02*
D03*
X525100Y792800D02*
D03*
X525000Y786800D02*
D03*
X458800Y523200D02*
D03*
X452500Y516900D02*
D03*
X835450Y602000D02*
D03*
X560407Y773306D02*
D03*
X863600Y557700D02*
D03*
Y546700D02*
D03*
X635200Y478200D02*
D03*
X677800Y478000D02*
D03*
X899500Y333000D02*
D03*
X951100Y445500D02*
D03*
X950900Y489100D02*
D03*
X951500Y355400D02*
D03*
X951700Y407400D02*
D03*
X895000Y356500D02*
D03*
X636400Y406200D02*
D03*
X613500Y454000D02*
D03*
X677800Y406700D02*
D03*
X516200Y745200D02*
D03*
X799200Y202600D02*
D03*
X861100Y225800D02*
D03*
X635800Y684200D02*
D03*
X914500Y716000D02*
D03*
X914800Y788900D02*
D03*
X645400Y790100D02*
D03*
X611600Y803700D02*
D03*
X662320Y806900D02*
D03*
X710600Y797300D02*
D03*
X420100Y569100D02*
D03*
X420300Y599600D02*
D03*
X401400Y568500D02*
D03*
X401800Y599100D02*
D03*
X611390Y532910D02*
D03*
X648650Y648550D02*
D03*
X675600Y742000D02*
D03*
X525900Y756600D02*
D03*
X534600Y771400D02*
D03*
X454180Y596100D02*
D03*
X570000Y771225D02*
D03*
X814200Y673700D02*
D03*
X917600Y440200D02*
D03*
X674700Y572000D02*
D03*
X503200Y935400D02*
D03*
X543700Y652800D02*
D03*
X585000Y618000D02*
D03*
X895900Y443600D02*
D03*
X895600Y490700D02*
D03*
X607300Y383300D02*
D03*
X599700D02*
D03*
X543200Y627900D02*
D03*
X543300Y621800D02*
D03*
X544094Y607494D02*
D03*
X543018Y613397D02*
D03*
X642750Y770550D02*
D03*
X384100Y758000D02*
D03*
X631600Y770600D02*
D03*
X593350Y551250D02*
D03*
X363200Y557500D02*
D03*
X363900Y588300D02*
D03*
X420300Y593500D02*
D03*
X420000Y562600D02*
D03*
X805700Y423400D02*
D03*
X813600D02*
D03*
X837300Y423300D02*
D03*
X829200D02*
D03*
X821400Y423200D02*
D03*
X797700Y265600D02*
D03*
X822600Y473800D02*
D03*
X786700Y434200D02*
D03*
X675700Y652000D02*
D03*
X564000Y551000D02*
D03*
X554100Y551200D02*
D03*
X914900Y750200D02*
D03*
Y756200D02*
D03*
X897300Y747100D02*
D03*
X897200Y757900D02*
D03*
X941000Y756300D02*
D03*
Y744300D02*
D03*
Y750300D02*
D03*
X941100Y762700D02*
D03*
X859900Y107100D02*
D03*
X868700Y88100D02*
D03*
X862400D02*
D03*
X871400Y107000D02*
D03*
X868892Y61927D02*
D03*
X862400Y61600D02*
D03*
X875391Y62050D02*
D03*
X855894Y61712D02*
D03*
D175*
X869900Y755100D02*
X870600Y755800D01*
X866300Y752900D02*
Y755400D01*
X865800Y755900D02*
X866300Y755400D01*
X677550Y406450D02*
X677800Y406700D01*
X636650Y406450D02*
X677550D01*
X636400Y406200D02*
X636650Y406450D01*
X636025Y405825D02*
X636400Y406200D01*
X636025Y404926D02*
Y405825D01*
X582413Y351314D02*
X636025Y404926D01*
X563414Y351314D02*
X582413D01*
D183*
X479800Y157300D02*
D03*
Y204300D02*
D03*
Y251300D02*
D03*
Y117600D02*
D03*
Y70600D02*
D03*
Y23600D02*
D03*
D185*
X367600Y180500D02*
D03*
Y214500D02*
D03*
X268400Y180500D02*
D03*
Y214500D02*
D03*
X269000Y103200D02*
D03*
Y69200D02*
D03*
X368200Y103200D02*
D03*
Y69200D02*
D03*
D186*
X937600Y724300D02*
D03*
Y782100D02*
D03*
X894600Y65550D02*
D03*
X836800D02*
D03*
D187*
X932600Y796400D02*
D03*
Y710000D02*
D03*
D188*
X974400Y796400D02*
D03*
Y710000D02*
D03*
D189*
X822500Y28750D02*
D03*
X908900D02*
D03*
D190*
X822500Y70550D02*
D03*
X908900D02*
D03*
D191*
X959500Y552000D02*
D03*
Y632000D02*
D03*
D192*
X924380Y944600D02*
D03*
X797380D02*
D03*
X728700Y946200D02*
D03*
X601700D02*
D03*
X526800Y945100D02*
D03*
X399800D02*
D03*
X57350Y714460D02*
D03*
Y587460D02*
D03*
Y910840D02*
D03*
Y783840D02*
D03*
X332800Y945300D02*
D03*
X205800D02*
D03*
D193*
X896440Y901400D02*
D03*
X886280Y919200D02*
D03*
X876120Y901400D02*
D03*
X865960Y919200D02*
D03*
X855800Y901400D02*
D03*
X845640Y919200D02*
D03*
X835480Y901400D02*
D03*
X825320Y919200D02*
D03*
X700760Y903000D02*
D03*
X690600Y920800D02*
D03*
X680440Y903000D02*
D03*
X670280Y920800D02*
D03*
X660120Y903000D02*
D03*
X649960Y920800D02*
D03*
X639800Y903000D02*
D03*
X629640Y920800D02*
D03*
X498860Y901900D02*
D03*
X488700Y919700D02*
D03*
X478540Y901900D02*
D03*
X468380Y919700D02*
D03*
X458220Y901900D02*
D03*
X448060Y919700D02*
D03*
X437900Y901900D02*
D03*
X427740Y919700D02*
D03*
X100550Y686520D02*
D03*
X82750Y676360D02*
D03*
X100550Y666200D02*
D03*
X82750Y656040D02*
D03*
X100550Y645880D02*
D03*
X82750Y635720D02*
D03*
X100550Y625560D02*
D03*
X82750Y615400D02*
D03*
X100550Y882900D02*
D03*
X82750Y872740D02*
D03*
X100550Y862580D02*
D03*
X82750Y852420D02*
D03*
X100550Y842260D02*
D03*
X82750Y832100D02*
D03*
X100550Y821940D02*
D03*
X82750Y811780D02*
D03*
X304860Y902100D02*
D03*
X294700Y919900D02*
D03*
X284540Y902100D02*
D03*
X274380Y919900D02*
D03*
X264220Y902100D02*
D03*
X254060Y919900D02*
D03*
X243900Y902100D02*
D03*
X233740Y919900D02*
D03*
D195*
X942180Y910300D02*
D03*
X779580D02*
D03*
X746500Y911900D02*
D03*
X583900D02*
D03*
X544600Y910800D02*
D03*
X382000D02*
D03*
X91650Y732260D02*
D03*
Y569660D02*
D03*
Y928640D02*
D03*
Y766040D02*
D03*
X350600Y911000D02*
D03*
X188000D02*
D03*
D197*
X257000Y649400D02*
D03*
Y725400D02*
D03*
X272100Y575900D02*
D03*
X247100D02*
D03*
X297100D02*
D03*
X322100D02*
D03*
X222100D02*
D03*
X197100D02*
D03*
X107000Y295300D02*
D03*
X82000D02*
D03*
X132000D02*
D03*
X157000D02*
D03*
X57000D02*
D03*
X32000D02*
D03*
X756764Y256914D02*
D03*
Y281914D02*
D03*
Y231914D02*
D03*
Y206914D02*
D03*
Y306914D02*
D03*
Y331914D02*
D03*
X261400Y809300D02*
D03*
X286400D02*
D03*
X236400D02*
D03*
X211400D02*
D03*
X311400D02*
D03*
X419300Y809700D02*
D03*
X444300D02*
D03*
X394300D02*
D03*
X369300D02*
D03*
X469300D02*
D03*
X414800Y655300D02*
D03*
X439800D02*
D03*
X389800D02*
D03*
X364800D02*
D03*
X464800D02*
D03*
X970800Y63800D02*
D03*
Y88800D02*
D03*
Y113800D02*
D03*
X972500Y283100D02*
D03*
X947500D02*
D03*
X922500D02*
D03*
X971000Y169400D02*
D03*
Y194400D02*
D03*
Y219400D02*
D03*
D198*
X106250Y237800D02*
D03*
Y102800D02*
D03*
D200*
X166250Y206300D02*
D03*
Y134300D02*
D03*
D203*
X833800Y821300D02*
D03*
X884600D02*
D03*
X859200D02*
D03*
X808400D02*
D03*
X783000D02*
D03*
D204*
X26000Y26000D02*
D03*
Y974000D02*
D03*
X974000D02*
D03*
Y26000D02*
D03*
D205*
X310900Y374000D02*
D03*
X285500D02*
D03*
X260100D02*
D03*
X362930Y373786D02*
D03*
X388330D02*
D03*
X336514D02*
D03*
X413730Y373532D02*
D03*
Y525932D02*
D03*
X336514Y526186D02*
D03*
X388330D02*
D03*
X362930D02*
D03*
X234700Y526400D02*
D03*
X260100D02*
D03*
X285500D02*
D03*
X310900D02*
D03*
X234700Y374000D02*
D03*
X97000Y373500D02*
D03*
X71600D02*
D03*
X46200D02*
D03*
X149030Y373286D02*
D03*
X174430D02*
D03*
X122614D02*
D03*
X199830Y373032D02*
D03*
Y525432D02*
D03*
X122614Y525686D02*
D03*
X174430D02*
D03*
X149030D02*
D03*
X20800Y525900D02*
D03*
X46200D02*
D03*
X71600D02*
D03*
X97000D02*
D03*
X20800Y373500D02*
D03*
X563414Y300514D02*
D03*
Y325914D02*
D03*
Y351314D02*
D03*
X563200Y248484D02*
D03*
Y223084D02*
D03*
Y274900D02*
D03*
X562946Y197684D02*
D03*
X715346D02*
D03*
X715600Y274900D02*
D03*
Y223084D02*
D03*
Y248484D02*
D03*
X715814Y376714D02*
D03*
Y351314D02*
D03*
Y325914D02*
D03*
Y300514D02*
D03*
X563414Y376714D02*
D03*
D208*
X353000Y302400D02*
D03*
X487300Y373400D02*
D03*
X220200Y302400D02*
D03*
D209*
X403000D02*
D03*
X270200D02*
D03*
D210*
X487300Y323400D02*
D03*
D211*
X900000Y300000D02*
D03*
X700000Y100000D02*
D03*
X650000Y200000D02*
D03*
X250000Y600000D02*
D03*
X150000D02*
D03*
X100000Y500000D02*
D03*
D212*
X629075Y594155D02*
D03*
X637100Y594800D02*
D03*
X516900Y698100D02*
D03*
X661800Y594900D02*
D03*
X772500Y541500D02*
D03*
X772800Y549200D02*
D03*
X772500Y556600D02*
D03*
X774400Y563900D02*
D03*
X793000Y601300D02*
D03*
X780700Y601500D02*
D03*
X791700Y638200D02*
D03*
X782300Y638000D02*
D03*
X579900Y573500D02*
D03*
X631283Y574811D02*
D03*
X638700Y553800D02*
D03*
X621200Y723300D02*
D03*
X618200Y729100D02*
D03*
X578500Y707680D02*
D03*
X519816Y704284D02*
D03*
X846800Y233800D02*
D03*
X851400Y239100D02*
D03*
X677900Y762700D02*
D03*
X749800Y588800D02*
D03*
X702500Y461000D02*
D03*
X669000Y553000D02*
D03*
X827200Y89000D02*
D03*
X902200Y88100D02*
D03*
X823800Y573400D02*
D03*
X711400Y747200D02*
D03*
X690700Y747900D02*
D03*
X699674Y732620D02*
D03*
X573800Y575030D02*
D03*
X581400Y729320D02*
D03*
X619925Y667525D02*
D03*
X632900Y664700D02*
D03*
X613750Y667100D02*
D03*
X591402Y658700D02*
D03*
X639716Y650405D02*
D03*
X710600Y790700D02*
D03*
X953600Y422500D02*
D03*
X903000Y422300D02*
D03*
X664100Y730000D02*
D03*
X646800Y812300D02*
D03*
X789165Y78935D02*
D03*
X651500Y753700D02*
D03*
X815300Y602700D02*
D03*
X813764Y567236D02*
D03*
X817500Y636500D02*
D03*
X591700Y665300D02*
D03*
X634496Y648671D02*
D03*
X627000Y666200D02*
D03*
X520100Y691400D02*
D03*
X658554Y824246D02*
D03*
X776100Y575900D02*
D03*
X767200Y576100D02*
D03*
X490500Y452400D02*
D03*
X487600Y433300D02*
D03*
X841600Y220600D02*
D03*
X819600Y188800D02*
D03*
X848800Y202300D02*
D03*
X665000Y532900D02*
D03*
X677700Y539600D02*
D03*
X577200Y475119D02*
D03*
X567300Y470475D02*
D03*
X566196Y464577D02*
D03*
X556200Y458200D02*
D03*
X572399Y450501D02*
D03*
X566100Y458400D02*
D03*
X630726Y551409D02*
D03*
X722400Y805600D02*
D03*
X676200Y712020D02*
D03*
X654600Y460800D02*
D03*
X695277Y728223D02*
D03*
X749000Y731300D02*
D03*
X762770Y731575D02*
D03*
X737600Y731000D02*
D03*
X520700Y802700D02*
D03*
X553900Y729500D02*
D03*
X377000Y730200D02*
D03*
X463700Y715900D02*
D03*
X720700Y786200D02*
D03*
X675600Y646000D02*
D03*
X647100Y659800D02*
D03*
X636100Y669400D02*
D03*
X735300Y771600D02*
D03*
X578800Y834100D02*
D03*
X623000Y834900D02*
D03*
X602900Y834800D02*
D03*
X587500Y834200D02*
D03*
X541510Y699580D02*
D03*
X582500Y701400D02*
D03*
X951500Y812900D02*
D03*
X860400Y429200D02*
D03*
X565700Y447500D02*
D03*
X955700Y512600D02*
D03*
X751500Y612400D02*
D03*
X760100Y629100D02*
D03*
X759800Y649600D02*
D03*
X739900Y612500D02*
D03*
X591400Y649100D02*
D03*
X600100Y401000D02*
D03*
X607000Y401100D02*
D03*
X730500Y725100D02*
D03*
X714850Y709750D02*
D03*
X722900Y717600D02*
D03*
X707000Y701900D02*
D03*
X591402Y642496D02*
D03*
X675000Y667100D02*
D03*
X803700Y570900D02*
D03*
X818212Y535571D02*
D03*
X728500Y612500D02*
D03*
X717200Y612600D02*
D03*
X705800Y612700D02*
D03*
X880915Y119575D02*
D03*
X805300Y673300D02*
D03*
X884600Y738500D02*
D03*
X823100Y672000D02*
D03*
X895700Y737400D02*
D03*
X803600Y601500D02*
D03*
X850400Y109800D02*
D03*
X850500Y119600D02*
D03*
X712300Y663900D02*
D03*
X785800Y699300D02*
D03*
X628300Y66100D02*
D03*
X705800Y88400D02*
D03*
X692200Y88600D02*
D03*
X678500Y88500D02*
D03*
X777600Y76800D02*
D03*
X763800Y76500D02*
D03*
X749900Y76600D02*
D03*
X736100Y76800D02*
D03*
X722200Y76700D02*
D03*
X707000Y14700D02*
D03*
X693000Y14800D02*
D03*
X679200Y14800D02*
D03*
X706400Y29000D02*
D03*
X693000Y28900D02*
D03*
X679200Y28800D02*
D03*
X678600Y74300D02*
D03*
X692100D02*
D03*
X706000Y74400D02*
D03*
X678400Y60700D02*
D03*
X692300Y60600D02*
D03*
X706400D02*
D03*
X679200Y41800D02*
D03*
X693000Y41700D02*
D03*
X706200Y42000D02*
D03*
X557300Y32100D02*
D03*
X544100Y31800D02*
D03*
X530300Y32200D02*
D03*
X557500Y46100D02*
D03*
X544300D02*
D03*
X530100Y46500D02*
D03*
X557400Y59800D02*
D03*
X544000D02*
D03*
X530300Y60100D02*
D03*
X785000Y15300D02*
D03*
X759200Y25800D02*
D03*
X555500Y79300D02*
D03*
X534700D02*
D03*
X590800Y55200D02*
D03*
X761700Y452400D02*
D03*
X884600Y767000D02*
D03*
X895200Y770800D02*
D03*
X881000Y110000D02*
D03*
X859900Y512500D02*
D03*
X955600Y690400D02*
D03*
X860400Y684700D02*
D03*
X778600Y683700D02*
D03*
X709500Y685100D02*
D03*
X770800Y676000D02*
D03*
X774400Y699000D02*
D03*
X703300Y692900D02*
D03*
X735400Y633400D02*
D03*
Y644400D02*
D03*
X760200Y619200D02*
D03*
X701200Y629300D02*
D03*
X759900Y638800D02*
D03*
X779000Y715300D02*
D03*
X770700Y723600D02*
D03*
X763600Y668400D02*
D03*
X733700Y663500D02*
D03*
X723300Y663800D02*
D03*
X744400Y663900D02*
D03*
X755300Y660200D02*
D03*
X785800Y690900D02*
D03*
X786000Y707700D02*
D03*
D213*
X598700Y15600D02*
D03*
X591400Y15400D02*
D03*
X804300Y739900D02*
D03*
X731200Y488200D02*
D03*
X722800Y488400D02*
D03*
X812800Y736800D02*
D03*
X822500Y736900D02*
D03*
X803400Y118300D02*
D03*
X803600Y127200D02*
D03*
Y136300D02*
D03*
X803300Y144900D02*
D03*
X794300D02*
D03*
X785500Y145000D02*
D03*
X769000Y144800D02*
D03*
X777000Y145100D02*
D03*
X714200Y479100D02*
D03*
X714000Y488200D02*
D03*
D214*
X478109Y70600D02*
X479800D01*
X478109Y204300D02*
X479800D01*
X166250Y206300D02*
X170488D01*
X208609Y197691D02*
X208800Y197500D01*
M02*
