G04*
G04 #@! TF.GenerationSoftware,Altium Limited,Altium Designer,25.2.1 (25)*
G04*
G04 Layer_Color=8388736*
%FSLAX44Y44*%
%MOMM*%
G71*
G04*
G04 #@! TF.SameCoordinates,965F6EC9-4211-4512-97E5-58CA1C1A5C92*
G04*
G04*
G04 #@! TF.FilePolarity,Negative*
G04*
G01*
G75*
G04:AMPARAMS|DCode=35|XSize=1.524mm|YSize=0.5334mm|CornerRadius=0mm|HoleSize=0mm|Usage=FLASHONLY|Rotation=135.000|XOffset=0mm|YOffset=0mm|HoleType=Round|Shape=Rectangle|*
%AMROTATEDRECTD35*
4,1,4,0.7274,-0.3502,0.3502,-0.7274,-0.7274,0.3502,-0.3502,0.7274,0.7274,-0.3502,0.0*
%
%ADD35ROTATEDRECTD35*%

%ADD39R,1.3970X0.6096*%
%ADD41R,0.6000X1.2500*%
%ADD42R,1.2500X0.6000*%
%ADD43R,1.3208X0.5588*%
%ADD44R,0.3000X1.2000*%
%ADD45R,1.2000X0.3000*%
%ADD49R,0.8890X0.8128*%
%ADD61R,0.8000X0.4000*%
%ADD62R,1.7500X2.5000*%
%ADD68R,0.5680X1.2842*%
G04:AMPARAMS|DCode=79|XSize=0.8032mm|YSize=0.4532mm|CornerRadius=0.1641mm|HoleSize=0mm|Usage=FLASHONLY|Rotation=90.000|XOffset=0mm|YOffset=0mm|HoleType=Round|Shape=RoundedRectangle|*
%AMROUNDEDRECTD79*
21,1,0.8032,0.1250,0,0,90.0*
21,1,0.4750,0.4532,0,0,90.0*
1,1,0.3282,0.0625,0.2375*
1,1,0.3282,0.0625,-0.2375*
1,1,0.3282,-0.0625,-0.2375*
1,1,0.3282,-0.0625,0.2375*
%
%ADD79ROUNDEDRECTD79*%
G04:AMPARAMS|DCode=80|XSize=0.4532mm|YSize=0.8032mm|CornerRadius=0.1641mm|HoleSize=0mm|Usage=FLASHONLY|Rotation=90.000|XOffset=0mm|YOffset=0mm|HoleType=Round|Shape=RoundedRectangle|*
%AMROUNDEDRECTD80*
21,1,0.4532,0.4750,0,0,90.0*
21,1,0.1250,0.8032,0,0,90.0*
1,1,0.3282,0.2375,0.0625*
1,1,0.3282,0.2375,-0.0625*
1,1,0.3282,-0.2375,-0.0625*
1,1,0.3282,-0.2375,0.0625*
%
%ADD80ROUNDEDRECTD80*%
G04:AMPARAMS|DCode=81|XSize=0.4532mm|YSize=1.9032mm|CornerRadius=0.1641mm|HoleSize=0mm|Usage=FLASHONLY|Rotation=90.000|XOffset=0mm|YOffset=0mm|HoleType=Round|Shape=RoundedRectangle|*
%AMROUNDEDRECTD81*
21,1,0.4532,1.5750,0,0,90.0*
21,1,0.1250,1.9032,0,0,90.0*
1,1,0.3282,0.7875,0.0625*
1,1,0.3282,0.7875,-0.0625*
1,1,0.3282,-0.7875,-0.0625*
1,1,0.3282,-0.7875,0.0625*
%
%ADD81ROUNDEDRECTD81*%
G04:AMPARAMS|DCode=82|XSize=0.6032mm|YSize=2.3032mm|CornerRadius=0.2016mm|HoleSize=0mm|Usage=FLASHONLY|Rotation=90.000|XOffset=0mm|YOffset=0mm|HoleType=Round|Shape=RoundedRectangle|*
%AMROUNDEDRECTD82*
21,1,0.6032,1.9000,0,0,90.0*
21,1,0.2000,2.3032,0,0,90.0*
1,1,0.4032,0.9500,0.1000*
1,1,0.4032,0.9500,-0.1000*
1,1,0.4032,-0.9500,-0.1000*
1,1,0.4032,-0.9500,0.1000*
%
%ADD82ROUNDEDRECTD82*%
%ADD83R,2.6100X2.6100*%
G04:AMPARAMS|DCode=84|XSize=0.94mm|YSize=0.36mm|CornerRadius=0.0825mm|HoleSize=0mm|Usage=FLASHONLY|Rotation=90.000|XOffset=0mm|YOffset=0mm|HoleType=Round|Shape=RoundedRectangle|*
%AMROUNDEDRECTD84*
21,1,0.9400,0.1950,0,0,90.0*
21,1,0.7750,0.3600,0,0,90.0*
1,1,0.1650,0.0975,0.3875*
1,1,0.1650,0.0975,-0.3875*
1,1,0.1650,-0.0975,-0.3875*
1,1,0.1650,-0.0975,0.3875*
%
%ADD84ROUNDEDRECTD84*%
G04:AMPARAMS|DCode=85|XSize=0.94mm|YSize=0.36mm|CornerRadius=0.0825mm|HoleSize=0mm|Usage=FLASHONLY|Rotation=180.000|XOffset=0mm|YOffset=0mm|HoleType=Round|Shape=RoundedRectangle|*
%AMROUNDEDRECTD85*
21,1,0.9400,0.1950,0,0,180.0*
21,1,0.7750,0.3600,0,0,180.0*
1,1,0.1650,-0.3875,0.0975*
1,1,0.1650,0.3875,0.0975*
1,1,0.1650,0.3875,-0.0975*
1,1,0.1650,-0.3875,-0.0975*
%
%ADD85ROUNDEDRECTD85*%
%ADD86R,0.7300X0.7400*%
%ADD87R,0.7400X0.7300*%
%ADD88R,1.2300X0.6800*%
%ADD89R,1.2500X0.7000*%
%ADD90R,1.2500X0.4000*%
%ADD91R,0.6800X1.2300*%
%ADD92R,0.7000X1.2500*%
%ADD93R,0.4000X1.2500*%
G04:AMPARAMS|DCode=94|XSize=0.785mm|YSize=0.785mm|CornerRadius=0.2338mm|HoleSize=0mm|Usage=FLASHONLY|Rotation=270.000|XOffset=0mm|YOffset=0mm|HoleType=Round|Shape=RoundedRectangle|*
%AMROUNDEDRECTD94*
21,1,0.7850,0.3175,0,0,270.0*
21,1,0.3175,0.7850,0,0,270.0*
1,1,0.4675,-0.1588,-0.1588*
1,1,0.4675,-0.1588,0.1588*
1,1,0.4675,0.1588,0.1588*
1,1,0.4675,0.1588,-0.1588*
%
%ADD94ROUNDEDRECTD94*%
G04:AMPARAMS|DCode=95|XSize=0.785mm|YSize=0.785mm|CornerRadius=0.2338mm|HoleSize=0mm|Usage=FLASHONLY|Rotation=180.000|XOffset=0mm|YOffset=0mm|HoleType=Round|Shape=RoundedRectangle|*
%AMROUNDEDRECTD95*
21,1,0.7850,0.3175,0,0,180.0*
21,1,0.3175,0.7850,0,0,180.0*
1,1,0.4675,-0.1588,0.1588*
1,1,0.4675,0.1588,0.1588*
1,1,0.4675,0.1588,-0.1588*
1,1,0.4675,-0.1588,-0.1588*
%
%ADD95ROUNDEDRECTD95*%
G04:AMPARAMS|DCode=96|XSize=0.785mm|YSize=0.785mm|CornerRadius=0.2338mm|HoleSize=0mm|Usage=FLASHONLY|Rotation=315.000|XOffset=0mm|YOffset=0mm|HoleType=Round|Shape=RoundedRectangle|*
%AMROUNDEDRECTD96*
21,1,0.7850,0.3175,0,0,315.0*
21,1,0.3175,0.7850,0,0,315.0*
1,1,0.4675,0.0000,-0.2245*
1,1,0.4675,-0.2245,0.0000*
1,1,0.4675,0.0000,0.2245*
1,1,0.4675,0.2245,0.0000*
%
%ADD96ROUNDEDRECTD96*%
%ADD97R,1.7600X0.8600*%
%ADD98R,1.7032X1.8032*%
%ADD99R,2.4032X1.4032*%
%ADD100R,1.6000X1.3000*%
%ADD101R,1.8032X0.9032*%
%ADD102R,1.8032X3.7032*%
%ADD103R,1.8032X3.7032*%
%ADD104R,1.6732X1.4882*%
G04:AMPARAMS|DCode=105|XSize=1.4032mm|YSize=1.6032mm|CornerRadius=0mm|HoleSize=0mm|Usage=FLASHONLY|Rotation=315.000|XOffset=0mm|YOffset=0mm|HoleType=Round|Shape=Rectangle|*
%AMROTATEDRECTD105*
4,1,4,-1.0629,-0.0707,0.0707,1.0629,1.0629,0.0707,-0.0707,-1.0629,-1.0629,-0.0707,0.0*
%
%ADD105ROTATEDRECTD105*%

%ADD106R,1.2032X0.8032*%
%ADD107R,0.9340X1.1740*%
%ADD108R,1.1740X0.9340*%
%ADD109R,2.9232X1.7332*%
%ADD110R,1.6732X1.3532*%
%ADD111R,1.3532X1.6732*%
%ADD112R,1.4132X0.9332*%
%ADD113R,0.9332X1.4132*%
%ADD114R,1.1332X1.0732*%
%ADD115R,1.0732X1.1332*%
G04:AMPARAMS|DCode=116|XSize=1.2432mm|YSize=1.2232mm|CornerRadius=0mm|HoleSize=0mm|Usage=FLASHONLY|Rotation=135.000|XOffset=0mm|YOffset=0mm|HoleType=Round|Shape=Rectangle|*
%AMROTATEDRECTD116*
4,1,4,0.8720,-0.0071,0.0071,-0.8720,-0.8720,0.0071,-0.0071,0.8720,0.8720,-0.0071,0.0*
%
%ADD116ROTATEDRECTD116*%

%ADD117R,1.1732X1.1032*%
%ADD118R,0.8032X0.7432*%
%ADD119R,0.7432X0.8032*%
G04:AMPARAMS|DCode=120|XSize=1.2532mm|YSize=1.5832mm|CornerRadius=0.2329mm|HoleSize=0mm|Usage=FLASHONLY|Rotation=270.000|XOffset=0mm|YOffset=0mm|HoleType=Round|Shape=RoundedRectangle|*
%AMROUNDEDRECTD120*
21,1,1.2532,1.1175,0,0,270.0*
21,1,0.7875,1.5832,0,0,270.0*
1,1,0.4657,-0.5587,-0.3938*
1,1,0.4657,-0.5587,0.3938*
1,1,0.4657,0.5587,0.3938*
1,1,0.4657,0.5587,-0.3938*
%
%ADD120ROUNDEDRECTD120*%
G04:AMPARAMS|DCode=121|XSize=0.7432mm|YSize=0.8032mm|CornerRadius=0.1691mm|HoleSize=0mm|Usage=FLASHONLY|Rotation=0.000|XOffset=0mm|YOffset=0mm|HoleType=Round|Shape=RoundedRectangle|*
%AMROUNDEDRECTD121*
21,1,0.7432,0.4650,0,0,0.0*
21,1,0.4050,0.8032,0,0,0.0*
1,1,0.3382,0.2025,-0.2325*
1,1,0.3382,-0.2025,-0.2325*
1,1,0.3382,-0.2025,0.2325*
1,1,0.3382,0.2025,0.2325*
%
%ADD121ROUNDEDRECTD121*%
G04:AMPARAMS|DCode=122|XSize=0.7432mm|YSize=0.8032mm|CornerRadius=0.1691mm|HoleSize=0mm|Usage=FLASHONLY|Rotation=270.000|XOffset=0mm|YOffset=0mm|HoleType=Round|Shape=RoundedRectangle|*
%AMROUNDEDRECTD122*
21,1,0.7432,0.4650,0,0,270.0*
21,1,0.4050,0.8032,0,0,270.0*
1,1,0.3382,-0.2325,-0.2025*
1,1,0.3382,-0.2325,0.2025*
1,1,0.3382,0.2325,0.2025*
1,1,0.3382,0.2325,-0.2025*
%
%ADD122ROUNDEDRECTD122*%
G04:AMPARAMS|DCode=123|XSize=0.7432mm|YSize=0.8032mm|CornerRadius=0.1691mm|HoleSize=0mm|Usage=FLASHONLY|Rotation=315.000|XOffset=0mm|YOffset=0mm|HoleType=Round|Shape=RoundedRectangle|*
%AMROUNDEDRECTD123*
21,1,0.7432,0.4650,0,0,315.0*
21,1,0.4050,0.8032,0,0,315.0*
1,1,0.3382,-0.0212,-0.3076*
1,1,0.3382,-0.3076,-0.0212*
1,1,0.3382,0.0212,0.3076*
1,1,0.3382,0.3076,0.0212*
%
%ADD123ROUNDEDRECTD123*%
G04:AMPARAMS|DCode=124|XSize=0.7432mm|YSize=0.8032mm|CornerRadius=0.1691mm|HoleSize=0mm|Usage=FLASHONLY|Rotation=45.000|XOffset=0mm|YOffset=0mm|HoleType=Round|Shape=RoundedRectangle|*
%AMROUNDEDRECTD124*
21,1,0.7432,0.4650,0,0,45.0*
21,1,0.4050,0.8032,0,0,45.0*
1,1,0.3382,0.3076,-0.0212*
1,1,0.3382,0.0212,-0.3076*
1,1,0.3382,-0.3076,0.0212*
1,1,0.3382,-0.0212,0.3076*
%
%ADD124ROUNDEDRECTD124*%
%ADD125R,0.9032X0.9032*%
%ADD126R,1.3032X1.2032*%
%ADD127R,0.9032X1.1032*%
%ADD128R,1.1032X0.9032*%
%ADD129R,1.2032X1.3032*%
%ADD130R,0.2540X0.5080*%
%ADD131R,0.5080X0.2540*%
%ADD132R,1.2532X0.8532*%
%ADD133R,0.8532X1.2532*%
%ADD134R,1.0097X1.0672*%
%ADD135C,2.9790*%
%ADD136R,2.9790X2.9790*%
%ADD137C,2.6032*%
%ADD138C,0.7100*%
%ADD139O,2.3032X1.2032*%
%ADD140O,2.0032X1.2032*%
%ADD141O,1.2032X2.0032*%
%ADD142O,1.2032X2.3032*%
%ADD143C,0.7032*%
%ADD144R,1.5500X1.5500*%
%ADD145C,1.5500*%
%ADD146C,3.5032*%
%ADD147C,1.6512*%
%ADD148R,1.6512X1.6512*%
%ADD149C,2.6332*%
%ADD150R,1.6512X1.6512*%
%ADD151C,1.7112*%
%ADD152O,2.6040X1.4040*%
%ADD153R,3.9200X3.9200*%
%ADD154C,3.9200*%
%ADD155R,1.7112X1.7112*%
%ADD156R,1.7112X1.7112*%
%ADD157C,1.7120*%
%ADD158R,1.7120X1.7120*%
%ADD159R,1.7120X1.7120*%
%ADD160C,1.8532*%
%ADD161C,1.2032*%
%ADD162C,1.6532*%
%ADD163R,1.6532X1.6532*%
%ADD164R,1.6532X1.6532*%
%ADD165C,1.6032*%
%ADD166R,1.6032X1.6032*%
%ADD167R,1.6032X1.6032*%
%ADD168C,1.4732*%
%ADD169C,0.4500*%
%ADD170C,0.6532*%
%ADD171C,0.5500*%
%ADD172C,0.5532*%
%ADD173C,0.8032*%
%ADD174C,0.7000*%
G36*
X588510Y109060D02*
X588520Y109130D01*
X588530Y109210D01*
X588550Y109290D01*
X588570Y109360D01*
X588600Y109440D01*
X588630Y109510D01*
X588660Y109580D01*
X588700Y109650D01*
X588740Y109720D01*
X588790Y109780D01*
X588830Y109840D01*
X588890Y109900D01*
X588940Y109960D01*
X589000Y110010D01*
X589060Y110070D01*
X589120Y110110D01*
X589180Y110160D01*
X589250Y110200D01*
X589320Y110240D01*
X589390Y110270D01*
X589460Y110300D01*
X589540Y110330D01*
X589610Y110350D01*
X589690Y110370D01*
X589770Y110380D01*
X589840Y110390D01*
X589920Y110400D01*
X590000D01*
X596750D01*
Y114580D01*
X596760Y114660D01*
X596770Y114730D01*
X596780Y114810D01*
X596800Y114890D01*
X596820Y114960D01*
X596850Y115040D01*
X596880Y115110D01*
X596910Y115180D01*
X596950Y115250D01*
X596990Y115320D01*
X597040Y115380D01*
X597080Y115440D01*
X597140Y115500D01*
X597190Y115560D01*
X597250Y115610D01*
X597310Y115670D01*
X597370Y115710D01*
X597430Y115760D01*
X597500Y115800D01*
X597570Y115840D01*
X597640Y115870D01*
X597710Y115900D01*
X597790Y115930D01*
X597860Y115950D01*
X597940Y115970D01*
X598020Y115980D01*
X598090Y115990D01*
X598170Y116000D01*
X598250D01*
X599750D01*
X599830D01*
X599910Y115990D01*
X599980Y115980D01*
X600060Y115970D01*
X600140Y115950D01*
X600210Y115930D01*
X600290Y115900D01*
X600360Y115870D01*
X600430Y115840D01*
X600500Y115800D01*
X600570Y115760D01*
X600630Y115710D01*
X600690Y115670D01*
X600750Y115610D01*
X600810Y115560D01*
X600860Y115500D01*
X600920Y115440D01*
X600960Y115380D01*
X601010Y115320D01*
X601050Y115250D01*
X601090Y115180D01*
X601120Y115110D01*
X601150Y115040D01*
X601180Y114960D01*
X601200Y114890D01*
X601220Y114810D01*
X601230Y114730D01*
X601240Y114660D01*
X601250Y114580D01*
Y110400D01*
X601750D01*
Y114580D01*
X601760Y114660D01*
X601770Y114730D01*
X601780Y114810D01*
X601800Y114890D01*
X601820Y114960D01*
X601850Y115040D01*
X601880Y115110D01*
X601910Y115180D01*
X601950Y115250D01*
X601990Y115320D01*
X602040Y115380D01*
X602080Y115440D01*
X602140Y115500D01*
X602190Y115560D01*
X602250Y115610D01*
X602310Y115670D01*
X602370Y115710D01*
X602430Y115760D01*
X602500Y115800D01*
X602570Y115840D01*
X602640Y115870D01*
X602710Y115900D01*
X602790Y115930D01*
X602860Y115950D01*
X602940Y115970D01*
X603020Y115980D01*
X603090Y115990D01*
X603170Y116000D01*
X603250D01*
X604750D01*
X604830D01*
X604910Y115990D01*
X604980Y115980D01*
X605060Y115970D01*
X605140Y115950D01*
X605210Y115930D01*
X605290Y115900D01*
X605360Y115870D01*
X605430Y115840D01*
X605500Y115800D01*
X605570Y115760D01*
X605630Y115710D01*
X605690Y115670D01*
X605750Y115610D01*
X605810Y115560D01*
X605860Y115500D01*
X605920Y115440D01*
X605960Y115380D01*
X606010Y115320D01*
X606050Y115250D01*
X606090Y115180D01*
X606120Y115110D01*
X606150Y115040D01*
X606180Y114960D01*
X606200Y114890D01*
X606220Y114810D01*
X606230Y114730D01*
X606240Y114660D01*
X606250Y114580D01*
Y110400D01*
X606750D01*
Y114500D01*
X606760Y114570D01*
X606770Y114660D01*
X606790Y114740D01*
X606810Y114820D01*
X606830Y114910D01*
X606860Y114990D01*
X606900Y115060D01*
X606940Y115140D01*
X606980Y115210D01*
X607020Y115290D01*
X607070Y115360D01*
X607130Y115420D01*
X607180Y115490D01*
X607240Y115550D01*
X607310Y115610D01*
X607370Y115660D01*
X607440Y115710D01*
X607510Y115760D01*
X607580Y115800D01*
X607660Y115840D01*
X607740Y115880D01*
X607820Y115910D01*
X607900Y115930D01*
X607980Y115960D01*
X608060Y115970D01*
X608150Y115990D01*
X608230Y116000D01*
X608320D01*
X608400D01*
X608500D01*
X609500D01*
X609600D01*
X609680D01*
X609770D01*
X609850Y115990D01*
X609940Y115970D01*
X610020Y115960D01*
X610100Y115930D01*
X610180Y115910D01*
X610260Y115880D01*
X610340Y115840D01*
X610420Y115800D01*
X610490Y115760D01*
X610560Y115710D01*
X610630Y115660D01*
X610690Y115610D01*
X610760Y115550D01*
X610820Y115490D01*
X610870Y115420D01*
X610930Y115360D01*
X610980Y115290D01*
X611020Y115210D01*
X611060Y115140D01*
X611100Y115060D01*
X611140Y114990D01*
X611170Y114910D01*
X611190Y114820D01*
X611210Y114740D01*
X611230Y114660D01*
X611240Y114570D01*
X611250Y114500D01*
Y110400D01*
X611500D01*
Y105820D01*
X611490Y105740D01*
X611480Y105670D01*
X611470Y105590D01*
X611450Y105510D01*
X611430Y105440D01*
X611400Y105360D01*
X611370Y105290D01*
X611340Y105220D01*
X611300Y105150D01*
X611260Y105080D01*
X611210Y105020D01*
X611170Y104960D01*
X611110Y104900D01*
X611060Y104840D01*
X611000Y104790D01*
X610940Y104730D01*
X610880Y104690D01*
X610820Y104640D01*
X610750Y104600D01*
X610680Y104560D01*
X610610Y104530D01*
X610540Y104500D01*
X610460Y104470D01*
X610390Y104450D01*
X610310Y104430D01*
X610230Y104420D01*
X610160Y104410D01*
X610080Y104400D01*
X610000D01*
X590000D01*
X589920D01*
X589840Y104410D01*
X589770Y104420D01*
X589690Y104430D01*
X589610Y104450D01*
X589540Y104470D01*
X589460Y104500D01*
X589390Y104530D01*
X589320Y104560D01*
X589250Y104600D01*
X589180Y104640D01*
X589120Y104690D01*
X589060Y104730D01*
X589000Y104790D01*
X588940Y104840D01*
X588890Y104900D01*
X588830Y104960D01*
X588790Y105020D01*
X588740Y105080D01*
X588700Y105150D01*
X588660Y105220D01*
X588630Y105290D01*
X588600Y105360D01*
X588570Y105440D01*
X588550Y105510D01*
X588530Y105590D01*
X588520Y105670D01*
X588510Y105740D01*
X588500Y105820D01*
Y108980D01*
X588510Y109060D01*
D02*
G37*
D35*
X471513Y496306D02*
D03*
X480493Y505286D02*
D03*
X489473Y514266D02*
D03*
X498453Y523247D02*
D03*
X550000Y471700D02*
D03*
X541020Y462720D02*
D03*
X532039Y453740D02*
D03*
X523059Y444759D02*
D03*
D39*
X719000Y649838D02*
D03*
Y625962D02*
D03*
D41*
X722100Y821600D02*
D03*
X740100D02*
D03*
D42*
X851400Y451000D02*
D03*
Y469000D02*
D03*
X772600Y37300D02*
D03*
Y55300D02*
D03*
X745100Y32800D02*
D03*
Y50800D02*
D03*
D43*
X705660Y818900D02*
D03*
X685340Y809375D02*
D03*
Y828425D02*
D03*
D44*
X669200Y584700D02*
D03*
X664200D02*
D03*
X659200D02*
D03*
X654200D02*
D03*
X649200D02*
D03*
X644200D02*
D03*
X639200D02*
D03*
X634200D02*
D03*
X629200D02*
D03*
X624200D02*
D03*
X619200D02*
D03*
X614200D02*
D03*
X609200D02*
D03*
X604200D02*
D03*
X599200D02*
D03*
X594200D02*
D03*
X589200D02*
D03*
X584200D02*
D03*
X579200D02*
D03*
X574200D02*
D03*
X569200D02*
D03*
X564200D02*
D03*
X559200D02*
D03*
X554200D02*
D03*
X549200D02*
D03*
Y739700D02*
D03*
X554200D02*
D03*
X559200D02*
D03*
X564200D02*
D03*
X569200D02*
D03*
X574200D02*
D03*
X579200D02*
D03*
X584200D02*
D03*
X589200D02*
D03*
X594200D02*
D03*
X599200D02*
D03*
X604200D02*
D03*
X609200D02*
D03*
X614200D02*
D03*
X619200D02*
D03*
X624200D02*
D03*
X629200D02*
D03*
X634200D02*
D03*
X639200D02*
D03*
X644200D02*
D03*
X649200D02*
D03*
X654200D02*
D03*
X659200D02*
D03*
X664200D02*
D03*
X669200D02*
D03*
D45*
X531700Y602200D02*
D03*
Y607200D02*
D03*
Y612200D02*
D03*
Y617200D02*
D03*
Y622200D02*
D03*
Y627200D02*
D03*
Y632200D02*
D03*
Y637200D02*
D03*
Y642200D02*
D03*
Y647200D02*
D03*
Y652200D02*
D03*
Y657200D02*
D03*
Y662200D02*
D03*
Y667200D02*
D03*
Y672200D02*
D03*
Y677200D02*
D03*
Y682200D02*
D03*
Y687200D02*
D03*
Y692200D02*
D03*
Y697200D02*
D03*
Y702200D02*
D03*
Y707200D02*
D03*
Y712200D02*
D03*
Y717200D02*
D03*
Y722200D02*
D03*
X686700D02*
D03*
Y717200D02*
D03*
Y712200D02*
D03*
Y707200D02*
D03*
Y702200D02*
D03*
Y697200D02*
D03*
Y692200D02*
D03*
Y687200D02*
D03*
Y682200D02*
D03*
Y677200D02*
D03*
Y672200D02*
D03*
Y667200D02*
D03*
Y662200D02*
D03*
Y657200D02*
D03*
Y652200D02*
D03*
Y647200D02*
D03*
Y642200D02*
D03*
Y637200D02*
D03*
Y632200D02*
D03*
Y627200D02*
D03*
Y622200D02*
D03*
Y617200D02*
D03*
Y612200D02*
D03*
Y607200D02*
D03*
Y602200D02*
D03*
D49*
X508800Y789323D02*
D03*
Y802277D02*
D03*
D61*
X772200Y461900D02*
D03*
Y452400D02*
D03*
Y442900D02*
D03*
X801200D02*
D03*
Y452400D02*
D03*
Y461900D02*
D03*
D62*
X786700Y452400D02*
D03*
D68*
X613000Y827874D02*
D03*
X622500Y807300D02*
D03*
X603500D02*
D03*
D79*
X599000Y83900D02*
D03*
X604000D02*
D03*
X609000D02*
D03*
X614000D02*
D03*
D80*
X620500Y88600D02*
D03*
Y106600D02*
D03*
X592500Y88600D02*
D03*
D81*
X615000Y101600D02*
D03*
D82*
X600000Y95800D02*
D03*
D83*
X827900Y257650D02*
D03*
D84*
X815400Y277000D02*
D03*
X820400D02*
D03*
X825400D02*
D03*
X830400D02*
D03*
X835400D02*
D03*
X840400D02*
D03*
Y238300D02*
D03*
X835400D02*
D03*
X830400D02*
D03*
X825400D02*
D03*
X820400D02*
D03*
X815400D02*
D03*
D85*
X808550Y245150D02*
D03*
Y250150D02*
D03*
Y255150D02*
D03*
Y260150D02*
D03*
Y265150D02*
D03*
Y270150D02*
D03*
X847250D02*
D03*
Y265150D02*
D03*
Y260150D02*
D03*
Y255150D02*
D03*
Y250150D02*
D03*
Y245150D02*
D03*
D86*
X623100Y27700D02*
D03*
X614700D02*
D03*
X912500Y737600D02*
D03*
X904100D02*
D03*
X903600Y770800D02*
D03*
X912000D02*
D03*
D87*
X850500Y92700D02*
D03*
Y101100D02*
D03*
X880500Y100700D02*
D03*
Y92300D02*
D03*
D88*
X926850Y721200D02*
D03*
Y785200D02*
D03*
D89*
Y729200D02*
D03*
Y777200D02*
D03*
D90*
Y735700D02*
D03*
Y740700D02*
D03*
Y745700D02*
D03*
Y750700D02*
D03*
Y755700D02*
D03*
Y760700D02*
D03*
Y765700D02*
D03*
Y770700D02*
D03*
D91*
X897700Y76300D02*
D03*
X833700D02*
D03*
D92*
X889700D02*
D03*
X841700D02*
D03*
D93*
X883200D02*
D03*
X878200D02*
D03*
X873200D02*
D03*
X868200D02*
D03*
X863200D02*
D03*
X858200D02*
D03*
X853200D02*
D03*
X848200D02*
D03*
D94*
X518200Y617200D02*
D03*
X509310D02*
D03*
X508855Y644300D02*
D03*
X517745D02*
D03*
X508855Y653700D02*
D03*
X517745D02*
D03*
D95*
X642900Y753455D02*
D03*
Y762345D02*
D03*
X631700Y762245D02*
D03*
Y753355D02*
D03*
X544300Y568590D02*
D03*
Y559700D02*
D03*
X593500Y568545D02*
D03*
Y559655D02*
D03*
X603000Y559955D02*
D03*
Y568845D02*
D03*
X554200Y559655D02*
D03*
Y568545D02*
D03*
X564000Y568445D02*
D03*
Y559555D02*
D03*
X584000Y557655D02*
D03*
Y566545D02*
D03*
X573600Y566945D02*
D03*
Y558055D02*
D03*
X622200Y568990D02*
D03*
Y560100D02*
D03*
X612700Y560000D02*
D03*
Y568890D02*
D03*
X571400Y762245D02*
D03*
Y753355D02*
D03*
X561400Y753310D02*
D03*
Y762200D02*
D03*
D96*
X544657Y442757D02*
D03*
X550943Y449043D02*
D03*
D97*
X849500Y536000D02*
D03*
D98*
X859500Y670000D02*
D03*
D99*
X955500Y679000D02*
D03*
Y524000D02*
D03*
D100*
X859500D02*
D03*
D101*
X849500Y547000D02*
D03*
Y558000D02*
D03*
Y569000D02*
D03*
Y580000D02*
D03*
Y591000D02*
D03*
Y602000D02*
D03*
Y613000D02*
D03*
Y624000D02*
D03*
D102*
X694300Y141803D02*
D03*
D103*
X662299D02*
D03*
D104*
X669000Y794200D02*
D03*
Y774740D02*
D03*
D105*
X741956Y709556D02*
D03*
X726400Y694000D02*
D03*
X738421Y681979D02*
D03*
X753977Y697535D02*
D03*
D106*
X361000Y735900D02*
D03*
Y755000D02*
D03*
X337000Y745450D02*
D03*
X489500Y732700D02*
D03*
Y751800D02*
D03*
X465500Y742250D02*
D03*
D107*
X174300Y663300D02*
D03*
Y697700D02*
D03*
D108*
X463700Y695000D02*
D03*
X498100D02*
D03*
D109*
X737800Y123610D02*
D03*
Y96790D02*
D03*
X773700Y123500D02*
D03*
Y96680D02*
D03*
D110*
X730300Y475000D02*
D03*
Y457400D02*
D03*
X822200Y443000D02*
D03*
Y460600D02*
D03*
X534300Y108900D02*
D03*
Y91300D02*
D03*
X555400Y108700D02*
D03*
Y91100D02*
D03*
D111*
X836700Y202500D02*
D03*
X819100D02*
D03*
D112*
X818100Y753800D02*
D03*
X851700D02*
D03*
D113*
X865000Y175100D02*
D03*
Y141500D02*
D03*
D114*
X749800Y757900D02*
D03*
Y773500D02*
D03*
X578900Y54700D02*
D03*
Y70300D02*
D03*
X884700Y165000D02*
D03*
Y149400D02*
D03*
D115*
X827700Y774300D02*
D03*
X843300D02*
D03*
D116*
X507500Y431100D02*
D03*
X497106Y441494D02*
D03*
D117*
X578800Y23200D02*
D03*
Y38400D02*
D03*
X862500Y256800D02*
D03*
Y272000D02*
D03*
D118*
X751800Y463180D02*
D03*
Y471820D02*
D03*
X640900Y67580D02*
D03*
Y76220D02*
D03*
X376200Y750920D02*
D03*
Y742280D02*
D03*
X506600Y745340D02*
D03*
Y736700D02*
D03*
X927300Y325480D02*
D03*
Y334120D02*
D03*
X984000Y326480D02*
D03*
Y335120D02*
D03*
X639300Y562080D02*
D03*
Y570720D02*
D03*
X850800Y428960D02*
D03*
Y437600D02*
D03*
X594700Y34040D02*
D03*
Y25400D02*
D03*
X772400Y15480D02*
D03*
Y24120D02*
D03*
X861100Y235160D02*
D03*
Y243800D02*
D03*
D119*
X801580Y652100D02*
D03*
X810220D02*
D03*
X638060Y803100D02*
D03*
X646700D02*
D03*
X645720Y460900D02*
D03*
X637080D02*
D03*
X987940Y423700D02*
D03*
X979300D02*
D03*
X739700Y805400D02*
D03*
X731060D02*
D03*
X876000Y262100D02*
D03*
X884640D02*
D03*
D120*
X622000Y145080D02*
D03*
Y127320D02*
D03*
X576000Y91520D02*
D03*
Y109280D02*
D03*
D121*
X578680Y825100D02*
D03*
X587320D02*
D03*
X810320Y664700D02*
D03*
X801680D02*
D03*
X509060Y601800D02*
D03*
X517700D02*
D03*
X672920Y754400D02*
D03*
X664280D02*
D03*
X600280Y65600D02*
D03*
X608920D02*
D03*
X824300Y220700D02*
D03*
X832940D02*
D03*
D122*
X823100Y662920D02*
D03*
Y654280D02*
D03*
X746000Y624580D02*
D03*
Y633220D02*
D03*
Y652920D02*
D03*
Y644280D02*
D03*
X687400Y764240D02*
D03*
Y755600D02*
D03*
X735600Y763700D02*
D03*
Y755060D02*
D03*
X535800Y749100D02*
D03*
Y740460D02*
D03*
X669000Y561180D02*
D03*
Y569820D02*
D03*
X751700Y438580D02*
D03*
Y447220D02*
D03*
X758000Y579460D02*
D03*
Y588100D02*
D03*
X824700Y581480D02*
D03*
Y590120D02*
D03*
D123*
X762245Y714555D02*
D03*
X768355Y708445D02*
D03*
D124*
X762500Y683700D02*
D03*
X768609Y689809D02*
D03*
X459045Y510245D02*
D03*
X465155Y516355D02*
D03*
D125*
X374350Y599100D02*
D03*
Y588100D02*
D03*
X392650D02*
D03*
Y599100D02*
D03*
X411300Y599000D02*
D03*
Y588000D02*
D03*
X429600D02*
D03*
Y599000D02*
D03*
X374250Y568700D02*
D03*
Y557700D02*
D03*
X392550D02*
D03*
Y568700D02*
D03*
X411000Y568700D02*
D03*
Y557700D02*
D03*
X429300D02*
D03*
Y568700D02*
D03*
D126*
X787100Y626500D02*
D03*
X804100D02*
D03*
X787000Y612000D02*
D03*
X804000D02*
D03*
X772900Y586400D02*
D03*
X789900D02*
D03*
X803900Y558900D02*
D03*
X786900D02*
D03*
X803900Y544000D02*
D03*
X786900D02*
D03*
D127*
X363800Y720100D02*
D03*
X376800D02*
D03*
X495300Y715800D02*
D03*
X508300D02*
D03*
X622900Y789000D02*
D03*
X635900D02*
D03*
D128*
X657400Y65100D02*
D03*
Y78100D02*
D03*
D129*
X549500Y754900D02*
D03*
Y771900D02*
D03*
X702200Y758220D02*
D03*
Y775220D02*
D03*
X720500Y758000D02*
D03*
Y775000D02*
D03*
X878600Y246800D02*
D03*
Y229800D02*
D03*
D130*
X677575Y532500D02*
D03*
X671225D02*
D03*
X911450Y423000D02*
D03*
X917800D02*
D03*
X961700D02*
D03*
X968050D02*
D03*
X908425Y333300D02*
D03*
X914775D02*
D03*
X971400Y334300D02*
D03*
X965050D02*
D03*
X817750Y626300D02*
D03*
X824100D02*
D03*
X817850Y612400D02*
D03*
X824200D02*
D03*
X803850Y593100D02*
D03*
X810200D02*
D03*
X824450Y545300D02*
D03*
X818100D02*
D03*
X810200Y579800D02*
D03*
X803850D02*
D03*
X824475Y558900D02*
D03*
X818125D02*
D03*
X891100Y757900D02*
D03*
X884750D02*
D03*
X891000Y747300D02*
D03*
X884650D02*
D03*
D131*
X613300Y445075D02*
D03*
Y438725D02*
D03*
X871400Y113200D02*
D03*
Y119550D02*
D03*
X860100Y113225D02*
D03*
Y119575D02*
D03*
D132*
X635850Y509850D02*
D03*
X677350D02*
D03*
X635850Y488350D02*
D03*
X677350D02*
D03*
X636250Y438050D02*
D03*
X677750D02*
D03*
X636250Y416550D02*
D03*
X677750D02*
D03*
D133*
X926850Y488450D02*
D03*
Y446950D02*
D03*
X905350Y488450D02*
D03*
Y446950D02*
D03*
X982550Y488150D02*
D03*
Y446650D02*
D03*
X961050Y488150D02*
D03*
Y446650D02*
D03*
X926300Y398600D02*
D03*
Y357100D02*
D03*
X904800Y398600D02*
D03*
Y357100D02*
D03*
X982700Y399100D02*
D03*
Y357600D02*
D03*
X961200Y399100D02*
D03*
Y357600D02*
D03*
D134*
X639352Y49900D02*
D03*
X624288D02*
D03*
D135*
X479800Y157300D02*
D03*
Y204300D02*
D03*
Y70600D02*
D03*
Y23600D02*
D03*
D136*
Y251300D02*
D03*
Y117600D02*
D03*
D137*
X367600Y180500D02*
D03*
Y214500D02*
D03*
X268400Y180500D02*
D03*
Y214500D02*
D03*
X269000Y103200D02*
D03*
Y69200D02*
D03*
X368200Y103200D02*
D03*
Y69200D02*
D03*
D138*
X937600Y724300D02*
D03*
Y782100D02*
D03*
X894600Y65550D02*
D03*
X836800D02*
D03*
D139*
X932600Y796400D02*
D03*
Y710000D02*
D03*
D140*
X974400Y796400D02*
D03*
Y710000D02*
D03*
D141*
X822500Y28750D02*
D03*
X908900D02*
D03*
D142*
X822500Y70550D02*
D03*
X908900D02*
D03*
D143*
X959500Y552000D02*
D03*
Y632000D02*
D03*
D144*
X413900Y717600D02*
D03*
D145*
Y742600D02*
D03*
D146*
X924380Y944600D02*
D03*
X797380D02*
D03*
X728700Y946200D02*
D03*
X601700D02*
D03*
X526800Y945100D02*
D03*
X399800D02*
D03*
X57350Y714460D02*
D03*
Y587460D02*
D03*
Y910840D02*
D03*
Y783840D02*
D03*
X332800Y945300D02*
D03*
X205800D02*
D03*
D147*
X896440Y901400D02*
D03*
X886280Y919200D02*
D03*
X876120Y901400D02*
D03*
X865960Y919200D02*
D03*
X855800Y901400D02*
D03*
X845640Y919200D02*
D03*
X835480Y901400D02*
D03*
X700760Y903000D02*
D03*
X690600Y920800D02*
D03*
X680440Y903000D02*
D03*
X670280Y920800D02*
D03*
X660120Y903000D02*
D03*
X649960Y920800D02*
D03*
X639800Y903000D02*
D03*
X498860Y901900D02*
D03*
X488700Y919700D02*
D03*
X478540Y901900D02*
D03*
X468380Y919700D02*
D03*
X458220Y901900D02*
D03*
X448060Y919700D02*
D03*
X437900Y901900D02*
D03*
X100550Y686520D02*
D03*
X82750Y676360D02*
D03*
X100550Y666200D02*
D03*
X82750Y656040D02*
D03*
X100550Y645880D02*
D03*
X82750Y635720D02*
D03*
X100550Y625560D02*
D03*
Y882900D02*
D03*
X82750Y872740D02*
D03*
X100550Y862580D02*
D03*
X82750Y852420D02*
D03*
X100550Y842260D02*
D03*
X82750Y832100D02*
D03*
X100550Y821940D02*
D03*
X304860Y902100D02*
D03*
X294700Y919900D02*
D03*
X284540Y902100D02*
D03*
X274380Y919900D02*
D03*
X264220Y902100D02*
D03*
X254060Y919900D02*
D03*
X243900Y902100D02*
D03*
D148*
X825320Y919200D02*
D03*
X629640Y920800D02*
D03*
X427740Y919700D02*
D03*
X233740Y919900D02*
D03*
D149*
X942180Y910300D02*
D03*
X779580D02*
D03*
X746500Y911900D02*
D03*
X583900D02*
D03*
X544600Y910800D02*
D03*
X382000D02*
D03*
X91650Y732260D02*
D03*
Y569660D02*
D03*
Y928640D02*
D03*
Y766040D02*
D03*
X350600Y911000D02*
D03*
X188000D02*
D03*
D150*
X82750Y615400D02*
D03*
Y811780D02*
D03*
D151*
X257000Y649400D02*
D03*
Y725400D02*
D03*
X272100Y575900D02*
D03*
X247100D02*
D03*
X297100D02*
D03*
X222100D02*
D03*
X197100D02*
D03*
X107000Y295300D02*
D03*
X82000D02*
D03*
X132000D02*
D03*
X57000D02*
D03*
X32000D02*
D03*
X756764Y256914D02*
D03*
Y281914D02*
D03*
Y231914D02*
D03*
Y306914D02*
D03*
Y331914D02*
D03*
X261400Y809300D02*
D03*
X286400D02*
D03*
X236400D02*
D03*
X311400D02*
D03*
X419300Y809700D02*
D03*
X444300D02*
D03*
X394300D02*
D03*
X469300D02*
D03*
X414800Y655300D02*
D03*
X439800D02*
D03*
X389800D02*
D03*
X464800D02*
D03*
D152*
X106250Y237800D02*
D03*
Y102800D02*
D03*
D153*
X166250Y206300D02*
D03*
D154*
Y134300D02*
D03*
D155*
X322100Y575900D02*
D03*
X157000Y295300D02*
D03*
X211400Y809300D02*
D03*
X369300Y809700D02*
D03*
X364800Y655300D02*
D03*
D156*
X756764Y206914D02*
D03*
D157*
X970800Y63800D02*
D03*
Y88800D02*
D03*
X972500Y283100D02*
D03*
X947500D02*
D03*
X971000Y169400D02*
D03*
Y194400D02*
D03*
D158*
X970800Y113800D02*
D03*
X971000Y219400D02*
D03*
D159*
X922500Y283100D02*
D03*
D160*
X833800Y821300D02*
D03*
X884600D02*
D03*
X859200D02*
D03*
X808400D02*
D03*
X783000D02*
D03*
D161*
X26000Y26000D02*
D03*
Y974000D02*
D03*
X974000D02*
D03*
Y26000D02*
D03*
D162*
X310900Y374000D02*
D03*
X285500D02*
D03*
X260100D02*
D03*
X362930Y373786D02*
D03*
X388330D02*
D03*
X336514D02*
D03*
X413730Y373532D02*
D03*
Y525932D02*
D03*
X336514Y526186D02*
D03*
X388330D02*
D03*
X362930D02*
D03*
X260100Y526400D02*
D03*
X285500D02*
D03*
X310900D02*
D03*
X234700Y374000D02*
D03*
X97000Y373500D02*
D03*
X71600D02*
D03*
X46200D02*
D03*
X149030Y373286D02*
D03*
X174430D02*
D03*
X122614D02*
D03*
X199830Y373032D02*
D03*
Y525432D02*
D03*
X122614Y525686D02*
D03*
X174430D02*
D03*
X149030D02*
D03*
X46200Y525900D02*
D03*
X71600D02*
D03*
X97000D02*
D03*
X20800Y373500D02*
D03*
X563414Y300514D02*
D03*
Y325914D02*
D03*
Y351314D02*
D03*
X563200Y248484D02*
D03*
Y223084D02*
D03*
Y274900D02*
D03*
X562946Y197684D02*
D03*
X715346D02*
D03*
X715600Y274900D02*
D03*
Y223084D02*
D03*
Y248484D02*
D03*
X715814Y351314D02*
D03*
Y325914D02*
D03*
Y300514D02*
D03*
X563414Y376714D02*
D03*
D163*
X234700Y526400D02*
D03*
X20800Y525900D02*
D03*
D164*
X715814Y376714D02*
D03*
D165*
X353000Y302400D02*
D03*
X487300Y373400D02*
D03*
X220200Y302400D02*
D03*
D166*
X403000D02*
D03*
X270200D02*
D03*
D167*
X487300Y323400D02*
D03*
D168*
X900000Y300000D02*
D03*
X700000Y100000D02*
D03*
X650000Y200000D02*
D03*
X250000Y600000D02*
D03*
X150000D02*
D03*
X100000Y500000D02*
D03*
D169*
X629075Y594155D02*
D03*
X637100Y594800D02*
D03*
X516900Y698100D02*
D03*
X661800Y594900D02*
D03*
X579900Y573500D02*
D03*
X621200Y723300D02*
D03*
X618200Y729100D02*
D03*
X519816Y704284D02*
D03*
X699674Y732620D02*
D03*
X573800Y575030D02*
D03*
X619925Y667525D02*
D03*
X632900Y664700D02*
D03*
X613750Y667100D02*
D03*
X591402Y658700D02*
D03*
X639716Y650405D02*
D03*
X710600Y790700D02*
D03*
X664100Y730000D02*
D03*
X591700Y665300D02*
D03*
X634496Y648671D02*
D03*
X627000Y666200D02*
D03*
X520100Y691400D02*
D03*
X567300Y470475D02*
D03*
X566196Y464577D02*
D03*
X572399Y450501D02*
D03*
X566100Y458400D02*
D03*
X695277Y728223D02*
D03*
X636100Y669400D02*
D03*
X565700Y447500D02*
D03*
X591400Y649100D02*
D03*
X600100Y401000D02*
D03*
X607000Y401100D02*
D03*
X591402Y642496D02*
D03*
D170*
X786100Y475100D02*
D03*
X911800Y408800D02*
D03*
X639800Y728800D02*
D03*
X808300Y226700D02*
D03*
X500700Y639100D02*
D03*
X582117Y549317D02*
D03*
X500500Y653500D02*
D03*
X509000Y626800D02*
D03*
X615300Y600700D02*
D03*
X630714Y725680D02*
D03*
X618700Y716600D02*
D03*
X650100Y695000D02*
D03*
X503900Y664000D02*
D03*
X797200Y256000D02*
D03*
X589200Y596300D02*
D03*
X535100Y564500D02*
D03*
X836000Y612300D02*
D03*
X675200Y687800D02*
D03*
X863900Y623800D02*
D03*
X971400Y324100D02*
D03*
X890100Y252000D02*
D03*
X889900Y230100D02*
D03*
X496500Y660000D02*
D03*
X495200Y955100D02*
D03*
X503400Y956200D02*
D03*
X488900Y959900D02*
D03*
X495500Y937200D02*
D03*
X487500Y937400D02*
D03*
X523400Y895900D02*
D03*
X517200Y901200D02*
D03*
X510300Y896000D02*
D03*
X825000Y598700D02*
D03*
X835700Y582800D02*
D03*
X528900Y594200D02*
D03*
X508800Y592100D02*
D03*
X572928Y550918D02*
D03*
X833446Y573211D02*
D03*
X533300Y731600D02*
D03*
X624456Y645500D02*
D03*
X647300Y636100D02*
D03*
X869800Y777300D02*
D03*
X865800Y773400D02*
D03*
X861400Y768700D02*
D03*
X525100Y792800D02*
D03*
X525000Y786800D02*
D03*
X458800Y523200D02*
D03*
X452500Y516900D02*
D03*
X835450Y602000D02*
D03*
X560407Y773306D02*
D03*
X863600Y557700D02*
D03*
Y546700D02*
D03*
X635200Y478200D02*
D03*
X677800Y478000D02*
D03*
X899500Y333000D02*
D03*
X951100Y445500D02*
D03*
X950900Y489100D02*
D03*
X951500Y355400D02*
D03*
X951700Y407400D02*
D03*
X895000Y356500D02*
D03*
X636400Y406200D02*
D03*
X613500Y454000D02*
D03*
X677800Y406700D02*
D03*
X516200Y745200D02*
D03*
X799200Y202600D02*
D03*
X861100Y225800D02*
D03*
X635800Y684200D02*
D03*
X914500Y716000D02*
D03*
X914800Y788900D02*
D03*
X645400Y790100D02*
D03*
X611600Y803700D02*
D03*
X420100Y569100D02*
D03*
X420300Y599600D02*
D03*
X401400Y568500D02*
D03*
X401800Y599100D02*
D03*
X611390Y532910D02*
D03*
X648650Y648550D02*
D03*
X675600Y742000D02*
D03*
X525900Y756600D02*
D03*
X534600Y771400D02*
D03*
X454180Y596100D02*
D03*
X570000Y771225D02*
D03*
X814200Y673700D02*
D03*
X917600Y440200D02*
D03*
X674700Y572000D02*
D03*
X503200Y935400D02*
D03*
X543700Y652800D02*
D03*
X585000Y618000D02*
D03*
X895900Y443600D02*
D03*
X895600Y490700D02*
D03*
X607300Y383300D02*
D03*
X599700D02*
D03*
X543200Y627900D02*
D03*
X543300Y621800D02*
D03*
X544094Y607494D02*
D03*
X543018Y613397D02*
D03*
X642750Y770550D02*
D03*
X384100Y758000D02*
D03*
X631600Y770600D02*
D03*
X593350Y551250D02*
D03*
X363200Y557500D02*
D03*
X363900Y588300D02*
D03*
X420300Y593500D02*
D03*
X420000Y562600D02*
D03*
X805700Y423400D02*
D03*
X813600D02*
D03*
X837300Y423300D02*
D03*
X829200D02*
D03*
X821400Y423200D02*
D03*
X797700Y265600D02*
D03*
X822600Y473800D02*
D03*
X786700Y434200D02*
D03*
X675700Y652000D02*
D03*
X564000Y551000D02*
D03*
X554100Y551200D02*
D03*
X914900Y750200D02*
D03*
Y756200D02*
D03*
X897300Y747100D02*
D03*
X897200Y757900D02*
D03*
X941000Y756300D02*
D03*
Y744300D02*
D03*
Y750300D02*
D03*
X941100Y762700D02*
D03*
X859900Y107100D02*
D03*
X868700Y88100D02*
D03*
X862400D02*
D03*
X871400Y107000D02*
D03*
X868892Y61927D02*
D03*
X862400Y61600D02*
D03*
X875391Y62050D02*
D03*
X855894Y61712D02*
D03*
D171*
X653600Y727920D02*
D03*
X675300Y632800D02*
D03*
X646700Y726100D02*
D03*
X675400Y617900D02*
D03*
X675300Y624900D02*
D03*
X824600Y229600D02*
D03*
X831400D02*
D03*
X676300Y611100D02*
D03*
X668600Y810600D02*
D03*
X662320Y806900D02*
D03*
X710600Y797300D02*
D03*
D172*
X772500Y541500D02*
D03*
X772800Y549200D02*
D03*
X772500Y556600D02*
D03*
X774400Y563900D02*
D03*
X793000Y601300D02*
D03*
X780700Y601500D02*
D03*
X791700Y638200D02*
D03*
X782300Y638000D02*
D03*
X631283Y574811D02*
D03*
X638700Y553800D02*
D03*
X578500Y707680D02*
D03*
X846800Y233800D02*
D03*
X851400Y239100D02*
D03*
X677900Y762700D02*
D03*
X749800Y588800D02*
D03*
X702500Y461000D02*
D03*
X669000Y553000D02*
D03*
X827200Y89000D02*
D03*
X902200Y88100D02*
D03*
X823800Y573400D02*
D03*
X711400Y747200D02*
D03*
X690700Y747900D02*
D03*
X581400Y729320D02*
D03*
X953600Y422500D02*
D03*
X903000Y422300D02*
D03*
X646800Y812300D02*
D03*
X789165Y78935D02*
D03*
X651500Y753700D02*
D03*
X815300Y602700D02*
D03*
X813764Y567236D02*
D03*
X817500Y636500D02*
D03*
X658554Y824246D02*
D03*
X776100Y575900D02*
D03*
X767200Y576100D02*
D03*
X490500Y452400D02*
D03*
X487600Y433300D02*
D03*
X841600Y220600D02*
D03*
X819600Y188800D02*
D03*
X848800Y202300D02*
D03*
X665000Y532900D02*
D03*
X677700Y539600D02*
D03*
X577200Y475119D02*
D03*
X556200Y458200D02*
D03*
X630726Y551409D02*
D03*
X722400Y805600D02*
D03*
X676200Y712020D02*
D03*
X654600Y460800D02*
D03*
X749000Y731300D02*
D03*
X762770Y731575D02*
D03*
X737600Y731000D02*
D03*
X520700Y802700D02*
D03*
X553900Y729500D02*
D03*
X377000Y730200D02*
D03*
X463700Y715900D02*
D03*
X720700Y786200D02*
D03*
X675600Y646000D02*
D03*
X647100Y659800D02*
D03*
X735300Y771600D02*
D03*
X578800Y834100D02*
D03*
X623000Y834900D02*
D03*
X602900Y834800D02*
D03*
X587500Y834200D02*
D03*
X541510Y699580D02*
D03*
X582500Y701400D02*
D03*
X951500Y812900D02*
D03*
X860400Y429200D02*
D03*
X955700Y512600D02*
D03*
X751500Y612400D02*
D03*
X760100Y629100D02*
D03*
X759800Y649600D02*
D03*
X739900Y612500D02*
D03*
X730500Y725100D02*
D03*
X714850Y709750D02*
D03*
X722900Y717600D02*
D03*
X707000Y701900D02*
D03*
X675000Y667100D02*
D03*
X803700Y570900D02*
D03*
X818212Y535571D02*
D03*
X728500Y612500D02*
D03*
X717200Y612600D02*
D03*
X705800Y612700D02*
D03*
X880915Y119575D02*
D03*
X805300Y673300D02*
D03*
X884600Y738500D02*
D03*
X823100Y672000D02*
D03*
X895700Y737400D02*
D03*
X803600Y601500D02*
D03*
X850400Y109800D02*
D03*
X850500Y119600D02*
D03*
X712300Y663900D02*
D03*
X785800Y699300D02*
D03*
X628300Y66100D02*
D03*
X705800Y88400D02*
D03*
X692200Y88600D02*
D03*
X678500Y88500D02*
D03*
X777600Y76800D02*
D03*
X763800Y76500D02*
D03*
X749900Y76600D02*
D03*
X736100Y76800D02*
D03*
X722200Y76700D02*
D03*
X707000Y14700D02*
D03*
X693000Y14800D02*
D03*
X679200Y14800D02*
D03*
X706400Y29000D02*
D03*
X693000Y28900D02*
D03*
X679200Y28800D02*
D03*
X678600Y74300D02*
D03*
X692100D02*
D03*
X706000Y74400D02*
D03*
X678400Y60700D02*
D03*
X692300Y60600D02*
D03*
X706400D02*
D03*
X679200Y41800D02*
D03*
X693000Y41700D02*
D03*
X706200Y42000D02*
D03*
X557300Y32100D02*
D03*
X544100Y31800D02*
D03*
X530300Y32200D02*
D03*
X557500Y46100D02*
D03*
X544300D02*
D03*
X530100Y46500D02*
D03*
X557400Y59800D02*
D03*
X544000D02*
D03*
X530300Y60100D02*
D03*
X785000Y15300D02*
D03*
X759200Y25800D02*
D03*
X555500Y79300D02*
D03*
X534700D02*
D03*
X590800Y55200D02*
D03*
X761700Y452400D02*
D03*
X884600Y767000D02*
D03*
X895200Y770800D02*
D03*
X881000Y110000D02*
D03*
X859900Y512500D02*
D03*
X955600Y690400D02*
D03*
X860400Y684700D02*
D03*
X778600Y683700D02*
D03*
X709500Y685100D02*
D03*
X770800Y676000D02*
D03*
X774400Y699000D02*
D03*
X703300Y692900D02*
D03*
X735400Y633400D02*
D03*
Y644400D02*
D03*
X760200Y619200D02*
D03*
X701200Y629300D02*
D03*
X759900Y638800D02*
D03*
X779000Y715300D02*
D03*
X770700Y723600D02*
D03*
X763600Y668400D02*
D03*
X733700Y663500D02*
D03*
X723300Y663800D02*
D03*
X744400Y663900D02*
D03*
X755300Y660200D02*
D03*
X785800Y690900D02*
D03*
X786000Y707700D02*
D03*
D173*
X598700Y15600D02*
D03*
X591400Y15400D02*
D03*
X804300Y739900D02*
D03*
X812800Y736800D02*
D03*
X822500Y736900D02*
D03*
D174*
X731200Y488200D02*
D03*
X722800Y488400D02*
D03*
X803400Y118300D02*
D03*
X803600Y127200D02*
D03*
Y136300D02*
D03*
X803300Y144900D02*
D03*
X794300D02*
D03*
X785500Y145000D02*
D03*
X769000Y144800D02*
D03*
X777000Y145100D02*
D03*
X714200Y479100D02*
D03*
X714000Y488200D02*
D03*
M02*
