G04*
G04 #@! TF.GenerationSoftware,Altium Limited,Altium Designer,25.2.1 (25)*
G04*
G04 Layer_Color=16711935*
%FSLAX44Y44*%
%MOMM*%
G71*
G04*
G04 #@! TF.SameCoordinates,965F6EC9-4211-4512-97E5-58CA1C1A5C92*
G04*
G04*
G04 #@! TF.FilePolarity,Negative*
G04*
G01*
G75*
G04:AMPARAMS|DCode=94|XSize=0.785mm|YSize=0.785mm|CornerRadius=0.2338mm|HoleSize=0mm|Usage=FLASHONLY|Rotation=270.000|XOffset=0mm|YOffset=0mm|HoleType=Round|Shape=RoundedRectangle|*
%AMROUNDEDRECTD94*
21,1,0.7850,0.3175,0,0,270.0*
21,1,0.3175,0.7850,0,0,270.0*
1,1,0.4675,-0.1588,-0.1588*
1,1,0.4675,-0.1588,0.1588*
1,1,0.4675,0.1588,0.1588*
1,1,0.4675,0.1588,-0.1588*
%
%ADD94ROUNDEDRECTD94*%
G04:AMPARAMS|DCode=121|XSize=0.7432mm|YSize=0.8032mm|CornerRadius=0.1691mm|HoleSize=0mm|Usage=FLASHONLY|Rotation=0.000|XOffset=0mm|YOffset=0mm|HoleType=Round|Shape=RoundedRectangle|*
%AMROUNDEDRECTD121*
21,1,0.7432,0.4650,0,0,0.0*
21,1,0.4050,0.8032,0,0,0.0*
1,1,0.3382,0.2025,-0.2325*
1,1,0.3382,-0.2025,-0.2325*
1,1,0.3382,-0.2025,0.2325*
1,1,0.3382,0.2025,0.2325*
%
%ADD121ROUNDEDRECTD121*%
%ADD126R,1.3032X1.2032*%
%ADD135C,2.9790*%
%ADD136R,2.9790X2.9790*%
%ADD137C,2.6032*%
%ADD138C,0.7100*%
%ADD139O,2.3032X1.2032*%
%ADD140O,2.0032X1.2032*%
%ADD141O,1.2032X2.0032*%
%ADD142O,1.2032X2.3032*%
%ADD143C,0.7032*%
%ADD144R,1.5500X1.5500*%
%ADD145C,1.5500*%
%ADD146C,3.5032*%
%ADD147C,1.6512*%
%ADD148R,1.6512X1.6512*%
%ADD149C,2.6332*%
%ADD150R,1.6512X1.6512*%
%ADD151C,1.7112*%
%ADD152O,2.6040X1.4040*%
%ADD153R,3.9200X3.9200*%
%ADD154C,3.9200*%
%ADD155R,1.7112X1.7112*%
%ADD156R,1.7112X1.7112*%
%ADD157C,1.7120*%
%ADD158R,1.7120X1.7120*%
%ADD159R,1.7120X1.7120*%
%ADD160C,1.8532*%
%ADD161C,1.2032*%
%ADD162C,1.6532*%
%ADD163R,1.6532X1.6532*%
%ADD164R,1.6532X1.6532*%
%ADD165C,1.6032*%
%ADD166R,1.6032X1.6032*%
%ADD167R,1.6032X1.6032*%
%ADD168C,1.4732*%
%ADD169C,0.4500*%
%ADD170C,0.6532*%
%ADD171C,0.5500*%
%ADD172C,0.5532*%
%ADD173C,0.8032*%
%ADD174C,0.7000*%
D94*
X604145Y603500D02*
D03*
X595255D02*
D03*
X657155Y688000D02*
D03*
X666045D02*
D03*
X658110Y610100D02*
D03*
X667000D02*
D03*
X666745Y619200D02*
D03*
X657855D02*
D03*
X657800Y628200D02*
D03*
X666690D02*
D03*
X666545Y666800D02*
D03*
X657655D02*
D03*
D121*
X657960Y637800D02*
D03*
X666600D02*
D03*
X657980Y652400D02*
D03*
X666620D02*
D03*
D126*
X555700Y612200D02*
D03*
X572700D02*
D03*
D135*
X479800Y157300D02*
D03*
Y204300D02*
D03*
Y70600D02*
D03*
Y23600D02*
D03*
D136*
Y251300D02*
D03*
Y117600D02*
D03*
D137*
X367600Y180500D02*
D03*
Y214500D02*
D03*
X268400Y180500D02*
D03*
Y214500D02*
D03*
X269000Y103200D02*
D03*
Y69200D02*
D03*
X368200Y103200D02*
D03*
Y69200D02*
D03*
D138*
X937600Y724300D02*
D03*
Y782100D02*
D03*
X894600Y65550D02*
D03*
X836800D02*
D03*
D139*
X932600Y796400D02*
D03*
Y710000D02*
D03*
D140*
X974400Y796400D02*
D03*
Y710000D02*
D03*
D141*
X822500Y28750D02*
D03*
X908900D02*
D03*
D142*
X822500Y70550D02*
D03*
X908900D02*
D03*
D143*
X959500Y552000D02*
D03*
Y632000D02*
D03*
D144*
X413900Y717600D02*
D03*
D145*
Y742600D02*
D03*
D146*
X924380Y944600D02*
D03*
X797380D02*
D03*
X728700Y946200D02*
D03*
X601700D02*
D03*
X526800Y945100D02*
D03*
X399800D02*
D03*
X57350Y714460D02*
D03*
Y587460D02*
D03*
Y910840D02*
D03*
Y783840D02*
D03*
X332800Y945300D02*
D03*
X205800D02*
D03*
D147*
X896440Y901400D02*
D03*
X886280Y919200D02*
D03*
X876120Y901400D02*
D03*
X865960Y919200D02*
D03*
X855800Y901400D02*
D03*
X845640Y919200D02*
D03*
X835480Y901400D02*
D03*
X700760Y903000D02*
D03*
X690600Y920800D02*
D03*
X680440Y903000D02*
D03*
X670280Y920800D02*
D03*
X660120Y903000D02*
D03*
X649960Y920800D02*
D03*
X639800Y903000D02*
D03*
X498860Y901900D02*
D03*
X488700Y919700D02*
D03*
X478540Y901900D02*
D03*
X468380Y919700D02*
D03*
X458220Y901900D02*
D03*
X448060Y919700D02*
D03*
X437900Y901900D02*
D03*
X100550Y686520D02*
D03*
X82750Y676360D02*
D03*
X100550Y666200D02*
D03*
X82750Y656040D02*
D03*
X100550Y645880D02*
D03*
X82750Y635720D02*
D03*
X100550Y625560D02*
D03*
Y882900D02*
D03*
X82750Y872740D02*
D03*
X100550Y862580D02*
D03*
X82750Y852420D02*
D03*
X100550Y842260D02*
D03*
X82750Y832100D02*
D03*
X100550Y821940D02*
D03*
X304860Y902100D02*
D03*
X294700Y919900D02*
D03*
X284540Y902100D02*
D03*
X274380Y919900D02*
D03*
X264220Y902100D02*
D03*
X254060Y919900D02*
D03*
X243900Y902100D02*
D03*
D148*
X825320Y919200D02*
D03*
X629640Y920800D02*
D03*
X427740Y919700D02*
D03*
X233740Y919900D02*
D03*
D149*
X942180Y910300D02*
D03*
X779580D02*
D03*
X746500Y911900D02*
D03*
X583900D02*
D03*
X544600Y910800D02*
D03*
X382000D02*
D03*
X91650Y732260D02*
D03*
Y569660D02*
D03*
Y928640D02*
D03*
Y766040D02*
D03*
X350600Y911000D02*
D03*
X188000D02*
D03*
D150*
X82750Y615400D02*
D03*
Y811780D02*
D03*
D151*
X257000Y649400D02*
D03*
Y725400D02*
D03*
X272100Y575900D02*
D03*
X247100D02*
D03*
X297100D02*
D03*
X222100D02*
D03*
X197100D02*
D03*
X107000Y295300D02*
D03*
X82000D02*
D03*
X132000D02*
D03*
X57000D02*
D03*
X32000D02*
D03*
X756764Y256914D02*
D03*
Y281914D02*
D03*
Y231914D02*
D03*
Y306914D02*
D03*
Y331914D02*
D03*
X261400Y809300D02*
D03*
X286400D02*
D03*
X236400D02*
D03*
X311400D02*
D03*
X419300Y809700D02*
D03*
X444300D02*
D03*
X394300D02*
D03*
X469300D02*
D03*
X414800Y655300D02*
D03*
X439800D02*
D03*
X389800D02*
D03*
X464800D02*
D03*
D152*
X106250Y237800D02*
D03*
Y102800D02*
D03*
D153*
X166250Y206300D02*
D03*
D154*
Y134300D02*
D03*
D155*
X322100Y575900D02*
D03*
X157000Y295300D02*
D03*
X211400Y809300D02*
D03*
X369300Y809700D02*
D03*
X364800Y655300D02*
D03*
D156*
X756764Y206914D02*
D03*
D157*
X970800Y63800D02*
D03*
Y88800D02*
D03*
X972500Y283100D02*
D03*
X947500D02*
D03*
X971000Y169400D02*
D03*
Y194400D02*
D03*
D158*
X970800Y113800D02*
D03*
X971000Y219400D02*
D03*
D159*
X922500Y283100D02*
D03*
D160*
X833800Y821300D02*
D03*
X884600D02*
D03*
X859200D02*
D03*
X808400D02*
D03*
X783000D02*
D03*
D161*
X26000Y26000D02*
D03*
Y974000D02*
D03*
X974000D02*
D03*
Y26000D02*
D03*
D162*
X310900Y374000D02*
D03*
X285500D02*
D03*
X260100D02*
D03*
X362930Y373786D02*
D03*
X388330D02*
D03*
X336514D02*
D03*
X413730Y373532D02*
D03*
Y525932D02*
D03*
X336514Y526186D02*
D03*
X388330D02*
D03*
X362930D02*
D03*
X260100Y526400D02*
D03*
X285500D02*
D03*
X310900D02*
D03*
X234700Y374000D02*
D03*
X97000Y373500D02*
D03*
X71600D02*
D03*
X46200D02*
D03*
X149030Y373286D02*
D03*
X174430D02*
D03*
X122614D02*
D03*
X199830Y373032D02*
D03*
Y525432D02*
D03*
X122614Y525686D02*
D03*
X174430D02*
D03*
X149030D02*
D03*
X46200Y525900D02*
D03*
X71600D02*
D03*
X97000D02*
D03*
X20800Y373500D02*
D03*
X563414Y300514D02*
D03*
Y325914D02*
D03*
Y351314D02*
D03*
X563200Y248484D02*
D03*
Y223084D02*
D03*
Y274900D02*
D03*
X562946Y197684D02*
D03*
X715346D02*
D03*
X715600Y274900D02*
D03*
Y223084D02*
D03*
Y248484D02*
D03*
X715814Y351314D02*
D03*
Y325914D02*
D03*
Y300514D02*
D03*
X563414Y376714D02*
D03*
D163*
X234700Y526400D02*
D03*
X20800Y525900D02*
D03*
D164*
X715814Y376714D02*
D03*
D165*
X353000Y302400D02*
D03*
X487300Y373400D02*
D03*
X220200Y302400D02*
D03*
D166*
X403000D02*
D03*
X270200D02*
D03*
D167*
X487300Y323400D02*
D03*
D168*
X900000Y300000D02*
D03*
X700000Y100000D02*
D03*
X650000Y200000D02*
D03*
X250000Y600000D02*
D03*
X150000D02*
D03*
X100000Y500000D02*
D03*
D169*
X629075Y594155D02*
D03*
X637100Y594800D02*
D03*
X516900Y698100D02*
D03*
X661800Y594900D02*
D03*
X579900Y573500D02*
D03*
X621200Y723300D02*
D03*
X618200Y729100D02*
D03*
X519816Y704284D02*
D03*
X699674Y732620D02*
D03*
X573800Y575030D02*
D03*
X619925Y667525D02*
D03*
X632900Y664700D02*
D03*
X613750Y667100D02*
D03*
X591402Y658700D02*
D03*
X639716Y650405D02*
D03*
X710600Y790700D02*
D03*
X664100Y730000D02*
D03*
X591700Y665300D02*
D03*
X634496Y648671D02*
D03*
X627000Y666200D02*
D03*
X520100Y691400D02*
D03*
X567300Y470475D02*
D03*
X566196Y464577D02*
D03*
X572399Y450501D02*
D03*
X566100Y458400D02*
D03*
X695277Y728223D02*
D03*
X636100Y669400D02*
D03*
X565700Y447500D02*
D03*
X591400Y649100D02*
D03*
X600100Y401000D02*
D03*
X607000Y401100D02*
D03*
X591402Y642496D02*
D03*
D170*
X786100Y475100D02*
D03*
X911800Y408800D02*
D03*
X639800Y728800D02*
D03*
X808300Y226700D02*
D03*
X500700Y639100D02*
D03*
X582117Y549317D02*
D03*
X500500Y653500D02*
D03*
X509000Y626800D02*
D03*
X615300Y600700D02*
D03*
X630714Y725680D02*
D03*
X618700Y716600D02*
D03*
X650100Y695000D02*
D03*
X503900Y664000D02*
D03*
X797200Y256000D02*
D03*
X589200Y596300D02*
D03*
X535100Y564500D02*
D03*
X836000Y612300D02*
D03*
X675200Y687800D02*
D03*
X863900Y623800D02*
D03*
X971400Y324100D02*
D03*
X890100Y252000D02*
D03*
X889900Y230100D02*
D03*
X496500Y660000D02*
D03*
X495200Y955100D02*
D03*
X503400Y956200D02*
D03*
X488900Y959900D02*
D03*
X495500Y937200D02*
D03*
X487500Y937400D02*
D03*
X523400Y895900D02*
D03*
X517200Y901200D02*
D03*
X510300Y896000D02*
D03*
X825000Y598700D02*
D03*
X835700Y582800D02*
D03*
X528900Y594200D02*
D03*
X508800Y592100D02*
D03*
X572928Y550918D02*
D03*
X833446Y573211D02*
D03*
X533300Y731600D02*
D03*
X624456Y645500D02*
D03*
X647300Y636100D02*
D03*
X869800Y777300D02*
D03*
X865800Y773400D02*
D03*
X861400Y768700D02*
D03*
X525100Y792800D02*
D03*
X525000Y786800D02*
D03*
X458800Y523200D02*
D03*
X452500Y516900D02*
D03*
X835450Y602000D02*
D03*
X560407Y773306D02*
D03*
X863600Y557700D02*
D03*
Y546700D02*
D03*
X635200Y478200D02*
D03*
X677800Y478000D02*
D03*
X899500Y333000D02*
D03*
X951100Y445500D02*
D03*
X950900Y489100D02*
D03*
X951500Y355400D02*
D03*
X951700Y407400D02*
D03*
X895000Y356500D02*
D03*
X636400Y406200D02*
D03*
X613500Y454000D02*
D03*
X677800Y406700D02*
D03*
X516200Y745200D02*
D03*
X799200Y202600D02*
D03*
X861100Y225800D02*
D03*
X635800Y684200D02*
D03*
X914500Y716000D02*
D03*
X914800Y788900D02*
D03*
X645400Y790100D02*
D03*
X611600Y803700D02*
D03*
X420100Y569100D02*
D03*
X420300Y599600D02*
D03*
X401400Y568500D02*
D03*
X401800Y599100D02*
D03*
X611390Y532910D02*
D03*
X648650Y648550D02*
D03*
X675600Y742000D02*
D03*
X525900Y756600D02*
D03*
X534600Y771400D02*
D03*
X454180Y596100D02*
D03*
X570000Y771225D02*
D03*
X814200Y673700D02*
D03*
X917600Y440200D02*
D03*
X674700Y572000D02*
D03*
X503200Y935400D02*
D03*
X543700Y652800D02*
D03*
X585000Y618000D02*
D03*
X895900Y443600D02*
D03*
X895600Y490700D02*
D03*
X607300Y383300D02*
D03*
X599700D02*
D03*
X543200Y627900D02*
D03*
X543300Y621800D02*
D03*
X544094Y607494D02*
D03*
X543018Y613397D02*
D03*
X642750Y770550D02*
D03*
X384100Y758000D02*
D03*
X631600Y770600D02*
D03*
X593350Y551250D02*
D03*
X363200Y557500D02*
D03*
X363900Y588300D02*
D03*
X420300Y593500D02*
D03*
X420000Y562600D02*
D03*
X805700Y423400D02*
D03*
X813600D02*
D03*
X837300Y423300D02*
D03*
X829200D02*
D03*
X821400Y423200D02*
D03*
X797700Y265600D02*
D03*
X822600Y473800D02*
D03*
X786700Y434200D02*
D03*
X675700Y652000D02*
D03*
X564000Y551000D02*
D03*
X554100Y551200D02*
D03*
X914900Y750200D02*
D03*
Y756200D02*
D03*
X897300Y747100D02*
D03*
X897200Y757900D02*
D03*
X941000Y756300D02*
D03*
Y744300D02*
D03*
Y750300D02*
D03*
X941100Y762700D02*
D03*
X859900Y107100D02*
D03*
X868700Y88100D02*
D03*
X862400D02*
D03*
X871400Y107000D02*
D03*
X868892Y61927D02*
D03*
X862400Y61600D02*
D03*
X875391Y62050D02*
D03*
X855894Y61712D02*
D03*
D171*
X653600Y727920D02*
D03*
X675300Y632800D02*
D03*
X646700Y726100D02*
D03*
X675400Y617900D02*
D03*
X675300Y624900D02*
D03*
X824600Y229600D02*
D03*
X831400D02*
D03*
X676300Y611100D02*
D03*
X668600Y810600D02*
D03*
X662320Y806900D02*
D03*
X710600Y797300D02*
D03*
D172*
X772500Y541500D02*
D03*
X772800Y549200D02*
D03*
X772500Y556600D02*
D03*
X774400Y563900D02*
D03*
X793000Y601300D02*
D03*
X780700Y601500D02*
D03*
X791700Y638200D02*
D03*
X782300Y638000D02*
D03*
X631283Y574811D02*
D03*
X638700Y553800D02*
D03*
X578500Y707680D02*
D03*
X846800Y233800D02*
D03*
X851400Y239100D02*
D03*
X677900Y762700D02*
D03*
X749800Y588800D02*
D03*
X702500Y461000D02*
D03*
X669000Y553000D02*
D03*
X827200Y89000D02*
D03*
X902200Y88100D02*
D03*
X823800Y573400D02*
D03*
X711400Y747200D02*
D03*
X690700Y747900D02*
D03*
X581400Y729320D02*
D03*
X953600Y422500D02*
D03*
X903000Y422300D02*
D03*
X646800Y812300D02*
D03*
X789165Y78935D02*
D03*
X651500Y753700D02*
D03*
X815300Y602700D02*
D03*
X813764Y567236D02*
D03*
X817500Y636500D02*
D03*
X658554Y824246D02*
D03*
X776100Y575900D02*
D03*
X767200Y576100D02*
D03*
X490500Y452400D02*
D03*
X487600Y433300D02*
D03*
X841600Y220600D02*
D03*
X819600Y188800D02*
D03*
X848800Y202300D02*
D03*
X665000Y532900D02*
D03*
X677700Y539600D02*
D03*
X577200Y475119D02*
D03*
X556200Y458200D02*
D03*
X630726Y551409D02*
D03*
X722400Y805600D02*
D03*
X676200Y712020D02*
D03*
X654600Y460800D02*
D03*
X749000Y731300D02*
D03*
X762770Y731575D02*
D03*
X737600Y731000D02*
D03*
X520700Y802700D02*
D03*
X553900Y729500D02*
D03*
X377000Y730200D02*
D03*
X463700Y715900D02*
D03*
X720700Y786200D02*
D03*
X675600Y646000D02*
D03*
X647100Y659800D02*
D03*
X735300Y771600D02*
D03*
X578800Y834100D02*
D03*
X623000Y834900D02*
D03*
X602900Y834800D02*
D03*
X587500Y834200D02*
D03*
X541510Y699580D02*
D03*
X582500Y701400D02*
D03*
X951500Y812900D02*
D03*
X860400Y429200D02*
D03*
X955700Y512600D02*
D03*
X751500Y612400D02*
D03*
X760100Y629100D02*
D03*
X759800Y649600D02*
D03*
X739900Y612500D02*
D03*
X730500Y725100D02*
D03*
X714850Y709750D02*
D03*
X722900Y717600D02*
D03*
X707000Y701900D02*
D03*
X675000Y667100D02*
D03*
X803700Y570900D02*
D03*
X818212Y535571D02*
D03*
X728500Y612500D02*
D03*
X717200Y612600D02*
D03*
X705800Y612700D02*
D03*
X880915Y119575D02*
D03*
X805300Y673300D02*
D03*
X884600Y738500D02*
D03*
X823100Y672000D02*
D03*
X895700Y737400D02*
D03*
X803600Y601500D02*
D03*
X850400Y109800D02*
D03*
X850500Y119600D02*
D03*
X712300Y663900D02*
D03*
X785800Y699300D02*
D03*
X628300Y66100D02*
D03*
X705800Y88400D02*
D03*
X692200Y88600D02*
D03*
X678500Y88500D02*
D03*
X777600Y76800D02*
D03*
X763800Y76500D02*
D03*
X749900Y76600D02*
D03*
X736100Y76800D02*
D03*
X722200Y76700D02*
D03*
X707000Y14700D02*
D03*
X693000Y14800D02*
D03*
X679200Y14800D02*
D03*
X706400Y29000D02*
D03*
X693000Y28900D02*
D03*
X679200Y28800D02*
D03*
X678600Y74300D02*
D03*
X692100D02*
D03*
X706000Y74400D02*
D03*
X678400Y60700D02*
D03*
X692300Y60600D02*
D03*
X706400D02*
D03*
X679200Y41800D02*
D03*
X693000Y41700D02*
D03*
X706200Y42000D02*
D03*
X557300Y32100D02*
D03*
X544100Y31800D02*
D03*
X530300Y32200D02*
D03*
X557500Y46100D02*
D03*
X544300D02*
D03*
X530100Y46500D02*
D03*
X557400Y59800D02*
D03*
X544000D02*
D03*
X530300Y60100D02*
D03*
X785000Y15300D02*
D03*
X759200Y25800D02*
D03*
X555500Y79300D02*
D03*
X534700D02*
D03*
X590800Y55200D02*
D03*
X761700Y452400D02*
D03*
X884600Y767000D02*
D03*
X895200Y770800D02*
D03*
X881000Y110000D02*
D03*
X859900Y512500D02*
D03*
X955600Y690400D02*
D03*
X860400Y684700D02*
D03*
X778600Y683700D02*
D03*
X709500Y685100D02*
D03*
X770800Y676000D02*
D03*
X774400Y699000D02*
D03*
X703300Y692900D02*
D03*
X735400Y633400D02*
D03*
Y644400D02*
D03*
X760200Y619200D02*
D03*
X701200Y629300D02*
D03*
X759900Y638800D02*
D03*
X779000Y715300D02*
D03*
X770700Y723600D02*
D03*
X763600Y668400D02*
D03*
X733700Y663500D02*
D03*
X723300Y663800D02*
D03*
X744400Y663900D02*
D03*
X755300Y660200D02*
D03*
X785800Y690900D02*
D03*
X786000Y707700D02*
D03*
D173*
X598700Y15600D02*
D03*
X591400Y15400D02*
D03*
X804300Y739900D02*
D03*
X812800Y736800D02*
D03*
X822500Y736900D02*
D03*
D174*
X731200Y488200D02*
D03*
X722800Y488400D02*
D03*
X803400Y118300D02*
D03*
X803600Y127200D02*
D03*
Y136300D02*
D03*
X803300Y144900D02*
D03*
X794300D02*
D03*
X785500Y145000D02*
D03*
X769000Y144800D02*
D03*
X777000Y145100D02*
D03*
X714200Y479100D02*
D03*
X714000Y488200D02*
D03*
M02*
