%FSTAX23Y23*%
%MOIN*%
%SFA1B1*%

%IPPOS*%
%ADD10C,0.005000*%
%LNnema17-1*%
%LPD*%
G54D10*
X00328Y01152D02*
X00392D01*
X0036Y0112D02*
Y01184D01*
X00328Y00512D02*
X00392D01*
X0036Y0048D02*
Y00544D01*
X00307Y00972D02*
X00344D01*
X00325Y00954D02*
Y00991D01*
X00377Y00932D02*
X00414D01*
X00395Y00914D02*
Y00951D01*
X00307Y00892D02*
X00344D01*
X00325Y00874D02*
Y00911D01*
X00377Y00852D02*
X00414D01*
X00395Y00834D02*
Y00871D01*
X00307Y00812D02*
X00344D01*
X00325Y00794D02*
Y00831D01*
X00377Y00772D02*
X00414D01*
X00395Y00754D02*
Y00791D01*
X00307Y00732D02*
X00344D01*
X00325Y00714D02*
Y00751D01*
X00377Y00692D02*
X00414D01*
X00395Y00674D02*
Y00711D01*
X0016Y01082D02*
X0029D01*
X00225Y01017D02*
Y01147D01*
X0016Y00582D02*
X0029D01*
X00225Y00517D02*
Y00647D01*
X00161Y00222D02*
X00283D01*
X00222Y00161D02*
Y00283D01*
X01382Y00222D02*
X01504D01*
X01443Y00161D02*
Y00283D01*
X01382Y01443D02*
X01504D01*
X01443Y01382D02*
Y01504D01*
X00161Y01443D02*
X00283D01*
X00222Y01382D02*
Y01504D01*
X01144Y01524D02*
X01186D01*
X01165Y01503D02*
Y01545D01*
X01046Y01524D02*
X01087D01*
X01066Y01503D02*
Y01545D01*
X01363Y00787D02*
X01391D01*
X01377Y00773D02*
Y00801D01*
X01167Y00393D02*
X01195D01*
X01181Y00379D02*
Y00407D01*
X00773Y01181D02*
X00801D01*
X00787Y01167D02*
Y01195D01*
X00773Y00393D02*
X00801D01*
X00787Y00379D02*
Y00407D01*
X00379Y00393D02*
X00407D01*
X00393Y00379D02*
Y00407D01*
X00249Y00922D02*
X00261D01*
X00255Y00916D02*
Y00928D01*
X00225Y00941D02*
X00237D01*
X00231Y00935D02*
Y00947D01*
X00213Y00732D02*
X00225D01*
X00219Y00726D02*
Y00738D01*
X0066Y00807D02*
X00672D01*
X00666Y00801D02*
Y00812D01*
X00502Y00849D02*
X00514D01*
X00508Y00843D02*
Y00855D01*
X00988Y00883D02*
X01D01*
X00994Y00877D02*
Y00889D01*
X01195Y00837D02*
X01207D01*
X01201Y00831D02*
Y00842D01*
X01195Y00862D02*
X01207D01*
X01201Y00857D02*
Y00868D01*
X01194Y00889D02*
X01206D01*
X012Y00883D02*
Y00895D01*
X01081Y00944D02*
X01092D01*
X01087Y00938D02*
Y0095D01*
X01049Y00943D02*
X01061D01*
X01055Y00937D02*
Y00949D01*
X0102Y00942D02*
X01032D01*
X01026Y00937D02*
Y00948D01*
M02*