%FSTAX23Y23*%
%MOIN*%
%SFA1B1*%

%IPPOS*%
%ADD10C,0.005000*%
%ADD27C,0.007874*%
%LNnema17-1*%
%LPD*%
G36*
X00747Y00254D02*
X00748D01*
Y0025*
X00749*
Y00249*
X00748*
Y00248*
X00744*
Y00247*
X00742*
Y00246*
X00741*
Y00245*
X0074*
Y00244*
X00738*
Y00242*
X00737*
Y00241*
X00736*
Y0024*
X00735*
Y00238*
X00734*
Y00235*
X00733*
Y00231*
X00731*
Y00228*
X00723*
Y00231*
X00724*
Y00236*
X00725*
Y00238*
Y0024*
X00726*
Y00242*
X00727*
Y00244*
X00728*
Y00245*
X00729*
Y00246*
X0073*
Y00247*
X00731*
Y00249*
X00734*
Y0025*
X00735*
Y00251*
X00736*
Y00253*
X00738*
Y00254*
X00739*
Y00255*
X00741*
Y00256*
X00744*
Y00257*
X00747*
Y00254*
G37*
G36*
X00743Y00263D02*
X00744D01*
Y0026*
X00743*
Y00259*
X0074*
Y00258*
X00738*
Y00257*
X00736*
Y00256*
X00735*
Y00255*
X00733*
Y00254*
X00731*
Y00253*
X0073*
Y00251*
X00729*
Y0025*
X00728*
Y00249*
X00727*
Y00248*
X00726*
Y00247*
X00725*
Y00245*
X00724*
Y00244*
X00723*
Y00242*
X00722*
Y00239*
X00721*
Y00235*
X0072*
Y00228*
X00714*
Y00235*
Y00236*
X00715*
Y0024*
X00716*
Y00243*
X00718*
Y00245*
X00719*
Y00247*
X0072*
Y00248*
X00721*
Y0025*
X00722*
Y00251*
X00723*
Y00253*
X00724*
Y00254*
X00725*
Y00255*
X00726*
Y00256*
X00727*
Y00257*
X00728*
Y00258*
X00729*
Y00259*
X00731*
Y0026*
X00733*
Y00261*
X00735*
Y00262*
X00738*
Y00263*
X0074*
Y00264*
X00743*
Y00263*
G37*
G36*
X00994Y00244D02*
X00999D01*
Y00243*
X01001*
Y00242*
X01004*
Y00241*
X01005*
Y0024*
X01006*
Y00239*
X01007*
Y00238*
X01008*
Y00235*
X01009*
Y0023*
X0101*
Y00195*
X01009*
Y00189*
X01008*
Y00187*
X01007*
Y00185*
X01006*
Y00184*
X01005*
Y00183*
X01002*
Y00182*
X01*
Y00181*
X00996*
Y00179*
X00915*
Y00196*
X00916*
Y00195*
X00991*
Y00196*
X00993*
Y00229*
X00915*
Y00245*
X00994*
Y00244*
G37*
G36*
X00899Y00243D02*
X009D01*
Y00212*
X00909*
Y00225*
X0091*
Y00212*
X00911*
Y00213*
X00913*
Y00214*
X00915*
Y00215*
X00917*
Y00216*
X0092*
Y00217*
X00921*
Y00218*
X00924*
Y00219*
X00926*
Y0022*
X00927*
Y00221*
X0093*
Y00222*
X00931*
Y00224*
X00934*
Y00225*
X00936*
Y00212*
X00945*
Y00213*
X00947*
Y00217*
X00988*
Y00206*
X00947*
Y00211*
X00936*
Y00199*
X00934*
Y002*
X00931*
Y00201*
X00929*
Y00202*
X00927*
Y00203*
X00925*
Y00204*
X00923*
Y00205*
X00921*
Y00206*
X00919*
Y00207*
X00916*
Y00208*
X00914*
Y0021*
X00912*
Y00211*
X0091*
Y00198*
X00909*
Y00211*
X009*
Y00178*
X00884*
Y00228*
X0088*
Y00227*
X00878*
Y00226*
X00877*
Y00225*
X00876*
Y00224*
X00874*
Y00222*
X00873*
Y00221*
X00872*
Y0022*
X00871*
Y00219*
X0087*
Y00218*
X00869*
Y00216*
X00868*
Y00215*
X00867*
Y00214*
X00866*
Y00213*
X00865*
Y00212*
X00864*
Y00211*
X00863*
Y00208*
X00862*
Y00207*
X00861*
Y00206*
X00859*
Y00205*
X00858*
Y00204*
X00857*
Y00203*
X00856*
Y00201*
X00855*
Y002*
X00854*
Y00199*
X00853*
Y00198*
X00852*
Y00197*
X00851*
Y00196*
X0085*
Y00193*
X00849*
Y00192*
X00848*
Y00191*
X00847*
Y0019*
X00845*
Y00189*
X00844*
Y00188*
X00843*
Y00186*
X00842*
Y00185*
X0084*
Y00184*
X00839*
Y00183*
X00838*
Y00182*
X00836*
Y00181*
X00834*
Y00179*
X0083*
Y00178*
X00807*
Y00244*
X00823*
Y00193*
X00825*
Y00195*
X00828*
Y00196*
X00829*
Y00197*
X00831*
Y00198*
X00833*
Y00199*
X00834*
Y00201*
X00835*
Y00202*
X00836*
Y00203*
X00837*
Y00204*
X00838*
Y00205*
X00839*
Y00206*
X0084*
Y00207*
X00841*
Y0021*
X00842*
Y00211*
X00843*
Y00212*
X00844*
Y00213*
X00845*
Y00214*
X00847*
Y00215*
X00848*
Y00216*
X00849*
Y00218*
X0085*
Y00219*
X00851*
Y0022*
X00852*
Y00221*
X00853*
Y00222*
X00854*
Y00224*
X00855*
Y00225*
X00856*
Y00227*
X00857*
Y00228*
X00858*
Y00229*
X00859*
Y0023*
X00861*
Y00231*
X00862*
Y00232*
X00863*
Y00234*
X00864*
Y00235*
X00865*
Y00236*
X00866*
Y00238*
X00867*
Y00239*
X00869*
Y0024*
X0087*
Y00241*
X00872*
Y00242*
X00876*
Y00243*
X00881*
Y00244*
X00899*
Y00243*
G37*
G36*
X00682D02*
X0069D01*
Y00242*
X00692*
Y00241*
X00694*
Y0024*
X00695*
Y00239*
X00696*
Y00238*
X00697*
Y00236*
X00698*
Y00234*
X00699*
Y00229*
X007*
Y00192*
X00699*
Y00188*
X00698*
Y00186*
X00697*
Y00184*
X00696*
Y00183*
X00695*
Y00182*
X00693*
Y00181*
X00691*
Y00179*
X00687*
Y00178*
X00606*
Y00193*
X00682*
Y00195*
X00683*
Y00227*
X00682*
Y00228*
X00606*
Y00244*
X00682*
Y00243*
G37*
G36*
X0075Y00245D02*
X00751D01*
Y00242*
X00795*
Y00226*
X00757*
Y00176*
X00741*
Y00198*
Y00199*
Y00228*
X00736*
Y00234*
X00737*
Y00236*
X00738*
Y00239*
X00739*
Y0024*
X0074*
Y00241*
X00741*
Y00242*
X00742*
Y00243*
X00743*
Y00244*
X00745*
Y00245*
X00748*
Y00246*
X0075*
Y00245*
G37*
G36*
X00936Y00162D02*
X00933D01*
Y00163*
X00936*
Y00162*
G37*
G36*
X00769D02*
X00766D01*
Y00163*
X00769*
Y00162*
G37*
G36*
X0074D02*
X00738D01*
Y00163*
X0074*
Y00162*
G37*
G36*
X00672D02*
X00669D01*
Y00163*
X00672*
Y00162*
G37*
G36*
X00629D02*
X00626D01*
Y00163*
X00629*
Y00162*
G37*
G36*
X00969Y00161D02*
X00979D01*
Y00159*
X0098*
Y0016*
X00981*
Y00161*
X00988*
Y0016*
X0099*
Y00155*
X00988*
Y00154*
X00981*
Y00156*
X00987*
Y00157*
X00981*
Y00158*
X0098*
Y00156*
X00979*
Y00154*
X0097*
Y00156*
X00977*
Y00159*
X00969*
Y00154*
X00967*
Y00155*
X00966*
Y00158*
X00967*
Y00159*
X00965*
Y00154*
X00962*
Y00159*
X00958*
Y00161*
X00964*
Y0016*
X00965*
Y00161*
X00966*
Y00162*
X00967*
Y00163*
X00969*
Y00161*
G37*
G36*
X00629Y00154D02*
X00627D01*
Y00155*
X00626*
Y00154*
X00623*
Y00159*
X00619*
Y00154*
X00615*
Y00159*
X00616*
Y00161*
X00626*
Y0016*
X00627*
Y00161*
X00629*
Y00154*
G37*
G36*
X00849Y0016D02*
X0085D01*
Y00155*
X00849*
Y00154*
X00841*
Y00156*
X00848*
Y00157*
X00841*
Y00158*
X0084*
Y00156*
X00839*
Y00154*
X0083*
Y00156*
X00829*
Y00154*
X00821*
Y00155*
X0082*
Y0016*
X00821*
Y00161*
X00829*
Y00159*
X0083*
Y00156*
X00837*
Y00159*
X0083*
Y00161*
X00839*
Y00159*
X0084*
Y0016*
X00841*
Y00161*
X00849*
Y0016*
G37*
G36*
X00736D02*
X00737D01*
Y00155*
X00736*
Y00154*
X00728*
Y00155*
X00727*
Y00156*
X00726*
Y00154*
X00723*
Y00159*
X00719*
Y00154*
X00715*
Y0016*
X00716*
Y00161*
X00726*
Y00159*
X00727*
Y00161*
X00736*
Y0016*
G37*
G36*
X00694Y00154D02*
X00691D01*
Y00159*
X00686*
Y00154*
X00684*
Y00155*
X00683*
Y00156*
X00682*
Y00155*
X00676*
Y00154*
X00682*
Y00151*
X00673*
Y00154*
X00672*
Y00155*
X00671*
Y00154*
X00669*
Y00161*
X00671*
Y0016*
X00673*
Y00161*
X00682*
Y0016*
X00683*
Y00159*
X00684*
Y00161*
X00694*
Y00154*
G37*
G36*
X00791Y0016D02*
Y00159D01*
Y00155*
X0079*
Y00154*
X00782*
Y00155*
X00781*
Y00161*
X00784*
Y00156*
X00788*
Y00161*
X00791*
Y0016*
G37*
G36*
X01008Y00162D02*
X01009D01*
Y00156*
X01008*
Y00154*
X00991*
Y00163*
X01008*
Y00162*
G37*
G36*
X00956Y0016D02*
X00957D01*
Y00155*
X00956*
Y00154*
X00949*
Y00155*
X00948*
Y00156*
Y00157*
Y0016*
X00949*
Y00161*
X00956*
Y0016*
G37*
G36*
X00947Y00154D02*
X00944D01*
Y00159*
X0094*
Y00155*
X00939*
Y00154*
X00937*
Y0016*
X00938*
Y00161*
X00947*
Y00154*
G37*
G36*
X00936D02*
X00933D01*
Y00161*
X00936*
Y00154*
G37*
G36*
X00931Y0016D02*
Y00159D01*
Y00155*
X0093*
Y00154*
X00923*
Y00156*
X00929*
Y00159*
X00923*
Y00161*
X00931*
Y0016*
G37*
G36*
X00916Y00159D02*
X0091D01*
Y00158*
X00916*
Y00155*
X00915*
Y00154*
X00908*
Y00155*
X00907*
Y00158*
Y00159*
Y0016*
X00908*
Y00161*
X00916*
Y00159*
G37*
G36*
X00906Y00154D02*
X00904D01*
Y00159*
X00899*
Y00158*
Y00154*
X00896*
Y0016*
X00897*
Y00161*
X00906*
Y00154*
G37*
G36*
X00887Y00161D02*
X00894D01*
Y0016*
X00895*
Y00155*
X00894*
Y00154*
X00886*
Y00155*
X00885*
Y00163*
X00887*
Y00161*
G37*
G36*
X00878D02*
X00872D01*
Y00154*
X0087*
Y00155*
X00869*
Y00161*
X00864*
Y00163*
X00878*
Y00161*
G37*
G36*
X00854Y00159D02*
X00855D01*
Y00161*
X00863*
Y0016*
X00864*
Y00155*
X00863*
Y00154*
X00855*
Y00156*
X00862*
Y00157*
X00855*
Y00158*
X00854*
Y00155*
X00853*
Y00154*
X00851*
Y00156*
Y00157*
Y00163*
X00854*
Y00159*
G37*
G36*
X00819Y00154D02*
X00816D01*
Y00159*
X00814*
Y00154*
X00811*
Y00159*
X00809*
Y00154*
X00806*
Y0016*
X00807*
Y00161*
X00819*
Y00154*
G37*
G36*
X00805D02*
X00802D01*
Y00155*
Y00159*
X00799*
Y00154*
X00797*
Y00159*
X00795*
Y00154*
X00792*
Y0016*
X00793*
Y00161*
X00805*
Y00154*
G37*
G36*
X0078D02*
X00778D01*
Y00159*
X00772*
Y00154*
X0077*
Y00157*
Y00158*
Y0016*
X00771*
Y00161*
X0078*
Y00154*
G37*
G36*
X00744Y00161D02*
X00747D01*
Y0016*
X00748*
Y00161*
X00765*
Y00159*
X00766*
Y00156*
X00767*
Y00159*
X00766*
Y0016*
X00767*
Y00161*
X00769*
Y00154*
X00767*
Y00155*
X00766*
Y00156*
X00765*
Y00154*
X00756*
Y00155*
X00755*
Y00154*
X00748*
Y00155*
X00747*
Y00159*
X00744*
Y00154*
X00742*
Y00159*
X00741*
Y00161*
X00742*
Y00163*
X00744*
Y00161*
G37*
G36*
X0074Y00154D02*
X00738D01*
Y00155*
Y00156*
Y00161*
X0074*
Y00154*
G37*
G36*
X00708Y00162D02*
X00709D01*
Y00155*
X00708*
Y00154*
X00695*
Y00156*
X00706*
Y00157*
X00695*
Y0016*
X00706*
Y00161*
X00695*
Y00163*
X00708*
Y00162*
G37*
G36*
X00668Y00154D02*
X00666D01*
Y00159*
X00661*
Y00154*
X00658*
Y00157*
Y00158*
Y0016*
X00659*
Y00161*
X00668*
Y00154*
G37*
G36*
X00656Y0016D02*
X00657D01*
Y00155*
X00656*
Y00154*
X00648*
Y00156*
X00654*
Y00157*
X00648*
Y0016*
X00649*
Y00161*
X00656*
Y0016*
G37*
G36*
X00645D02*
X00647D01*
Y00155*
X00645*
Y00154*
X00638*
Y00156*
X00644*
Y00157*
X00638*
Y00158*
X00637*
Y0016*
X00638*
Y00161*
X00645*
Y0016*
G37*
G36*
X00636Y00154D02*
X00634D01*
Y00159*
X0063*
Y0016*
Y00161*
X00636*
Y00154*
G37*
G36*
X00614Y00155D02*
X00608D01*
Y00154*
X00614*
Y00151*
X00606*
Y00153*
X00605*
Y0016*
X00606*
Y00161*
X00614*
Y00155*
G37*
G36*
X00826Y00131D02*
X00827Y00131D01*
X00828Y00131*
X00828Y00131*
X00829Y00131*
X00829Y00131*
X0083Y0013*
X0083Y0013*
X0083Y0013*
X0083Y0013*
X00831Y0013*
X00831Y0013*
X00831Y0013*
X00831Y0013*
X00832Y00129*
X00833Y00128*
X00833Y00127*
X00834Y00127*
X00834Y00126*
X00834Y00125*
X00834Y00125*
X00834Y00125*
X00835Y00125*
X00835Y00125*
Y00125*
X00831Y00124*
X00831Y00125*
X0083Y00126*
X0083Y00126*
X00829Y00127*
X00829Y00127*
X00829Y00127*
X00829Y00127*
X00829Y00127*
X00828Y00128*
X00827Y00128*
X00827Y00128*
X00826Y00128*
X00826Y00128*
X00825Y00128*
X00825*
X00824Y00128*
X00823Y00128*
X00823Y00128*
X00822Y00128*
X00822Y00128*
X00821Y00127*
X00821Y00127*
X00821Y00127*
X00821Y00127*
X0082Y00127*
X0082Y00126*
X0082Y00126*
X0082Y00126*
X0082Y00125*
Y00125*
Y00125*
Y00125*
X0082Y00124*
X0082Y00124*
X0082Y00124*
X0082Y00123*
X0082Y00123*
X0082Y00123*
X0082Y00123*
X00821Y00123*
X00821Y00123*
X00822Y00122*
X00823Y00122*
X00824Y00122*
X00824Y00122*
X00825Y00122*
X00825*
X00825Y00122*
X00826*
X00826Y00122*
X00827*
X00827Y00122*
X00828Y00122*
X00828*
X00829Y00122*
X00829Y00122*
X00829Y00122*
X0083*
X0083Y00122*
X0083Y00122*
X0083Y00122*
X0083*
X00831Y00121*
X00832Y00121*
X00832Y00121*
X00833Y00121*
X00833Y00121*
X00833Y00121*
X00834Y0012*
X00834Y0012*
X00834Y0012*
X00835Y0012*
X00835Y00119*
X00835Y00119*
X00836Y00119*
X00836Y00118*
X00836Y00118*
X00836Y00118*
X00836Y00118*
X00836Y00117*
X00837Y00116*
X00837Y00116*
X00837Y00116*
X00837Y00115*
Y00115*
Y00115*
Y00115*
X00837Y00114*
X00837Y00114*
X00836Y00113*
X00836Y00112*
X00836Y00112*
X00835Y00111*
X00835Y00111*
X00835Y0011*
X00835Y0011*
Y0011*
X00835Y0011*
X00834Y0011*
X00833Y00109*
X00833Y00109*
X00832Y00109*
X00831Y00109*
X00831Y00109*
X00831*
X0083Y00109*
X0083*
X00829Y00109*
X00829Y00109*
X00828Y00109*
X00827Y00109*
X00827Y00109*
X00826Y00109*
X00826Y00109*
X00826Y00109*
X00826Y0011*
X00825Y0011*
X00824Y0011*
X00824Y00111*
X00823Y00111*
X00823Y00111*
X00823Y00112*
X00822Y00112*
X00822Y00112*
X00822*
X00822Y00111*
X00822Y00111*
X00822Y0011*
X00822Y0011*
X00822Y00109*
X00822Y00109*
X00822Y00109*
Y00109*
X00818*
X00818Y0011*
X00818Y0011*
X00819Y00111*
X00819Y00111*
Y00112*
X00819Y00112*
Y00112*
Y00112*
X00819Y00113*
X00819Y00113*
X00819Y00114*
X00818Y00115*
X00818Y00115*
X00818Y00116*
X00818Y00116*
X00818Y00116*
Y00116*
X00818Y00116*
Y00116*
X00817Y00122*
X00817Y00122*
X00817Y00123*
X00816Y00124*
X00816Y00125*
X00816Y00125*
X00816Y00125*
Y00126*
Y00126*
Y00126*
X00816Y00127*
X00817Y00127*
X00817Y00128*
X00817Y00128*
X00818Y00129*
X00818Y00129*
X00818Y00129*
X00818Y00129*
X00818*
X00819Y0013*
X00819Y0013*
X0082Y0013*
X0082Y00131*
X00821Y00131*
X00822Y00131*
X00823Y00131*
X00823Y00131*
X00824Y00131*
X00824*
X00824Y00131*
X00825*
X00826Y00131*
G37*
G36*
X00731Y0012D02*
X0074Y00109D01*
X00735*
X00729Y00117*
X00729Y00116*
X00728Y00116*
X00728Y00115*
X00728Y00114*
X00728Y00114*
X00727Y00114*
X00727Y00114*
X00727Y00113*
X00725Y00109*
X00721*
X00727Y0012*
X00717Y00131*
X00722*
X00728Y00123*
X00729Y00124*
X00729Y00125*
X00729Y00126*
X0073Y00126*
X0073Y00127*
X0073Y00127*
X0073Y00127*
X0073Y00127*
Y00127*
X00732Y00131*
X00736*
X00731Y0012*
G37*
G36*
X00928Y00109D02*
X00924D01*
X00921Y00127*
X0092Y00129*
X0092Y0013*
X0092Y00131*
X0092Y00132*
X0092Y00132*
X00919Y00133*
X00919Y00133*
X00919Y00134*
X00919Y00134*
X00919Y00135*
X00919Y00135*
X00919Y00135*
Y00135*
Y00135*
X00919Y00134*
X00918Y00132*
X00918Y00131*
X00917Y0013*
X00917Y00129*
X00917Y00129*
X00917Y00128*
X00916Y00128*
X00916Y00127*
X00916Y00127*
X00916Y00127*
X00916Y00127*
X00916Y00126*
X00909Y00109*
X00905*
X00898Y00139*
X00902*
X00906Y00121*
X00906Y0012*
X00907Y00119*
X00907Y00117*
X00907Y00117*
X00907Y00116*
X00907Y00116*
X00907Y00115*
X00907Y00115*
X00907Y00114*
X00907Y00114*
Y00114*
X00907Y00114*
Y00114*
X00908Y00115*
X00908Y00116*
X00908Y00117*
X00908Y00117*
X00909Y00118*
X00909Y00118*
X00909Y00118*
X00909Y00119*
X00909Y00119*
X00909Y00119*
X00909Y00119*
X00909Y00119*
Y00119*
X0091Y00121*
X0091Y00122*
X00911Y00123*
X00911Y00124*
X00911Y00125*
X00912Y00125*
X00912Y00126*
X00912Y00127*
X00912Y00127*
X00912Y00127*
X00913Y00128*
X00913Y00128*
X00913Y00128*
X00918Y00139*
X00922*
X00928Y00109*
G37*
G36*
X00792D02*
X00788D01*
X00784Y00127*
X00784Y00129*
X00784Y0013*
X00784Y00131*
X00784Y00132*
X00784Y00132*
X00783Y00133*
X00783Y00133*
X00783Y00134*
X00783Y00134*
X00783Y00135*
X00783Y00135*
X00783Y00135*
Y00135*
Y00135*
X00783Y00134*
X00782Y00132*
X00782Y00131*
X00781Y0013*
X00781Y00129*
X00781Y00129*
X00781Y00128*
X0078Y00128*
X0078Y00127*
X0078Y00127*
X0078Y00127*
X0078Y00127*
X0078Y00126*
X00773Y00109*
X00768*
X00762Y00139*
X00766*
X0077Y00121*
X0077Y0012*
X0077Y00119*
X00771Y00117*
X00771Y00117*
X00771Y00116*
X00771Y00116*
X00771Y00115*
X00771Y00115*
X00771Y00114*
X00771Y00114*
Y00114*
X00771Y00114*
Y00114*
X00772Y00115*
X00772Y00116*
X00772Y00117*
X00772Y00117*
X00773Y00118*
X00773Y00118*
X00773Y00118*
X00773Y00119*
X00773Y00119*
X00773Y00119*
X00773Y00119*
X00773Y00119*
Y00119*
X00774Y00121*
X00774Y00122*
X00775Y00123*
X00775Y00124*
X00775Y00125*
X00776Y00125*
X00776Y00126*
X00776Y00127*
X00776Y00127*
X00776Y00127*
X00777Y00128*
X00777Y00128*
X00777Y00128*
X00782Y00139*
X00786*
X00792Y00109*
G37*
G36*
X00887Y00131D02*
X00888Y00131D01*
X00889Y00131*
X0089Y00131*
X0089Y0013*
X0089Y0013*
X00891Y0013*
X00891Y0013*
X00891Y0013*
X00891Y0013*
X00891Y0013*
X00891Y0013*
X00892Y00129*
X00892Y00129*
X00893Y00128*
X00894Y00127*
X00895Y00127*
X00895Y00126*
X00895Y00126*
X00895Y00125*
X00896Y00125*
X00896Y00125*
X00896Y00125*
X00896Y00125*
X00896Y00123*
X00897Y00122*
X00897Y00121*
X00897Y0012*
X00897Y0012*
X00897Y00119*
X00897Y00119*
Y00118*
X00897Y00118*
Y00118*
Y00118*
Y00118*
X00897Y00117*
X00897Y00116*
X00897Y00115*
X00897Y00114*
X00897Y00114*
X00897Y00114*
X00896Y00113*
X00896Y00113*
X00896Y00113*
X00896Y00113*
Y00113*
X00896Y00112*
X00895Y00112*
X00895Y00111*
X00894Y0011*
X00894Y0011*
X00894Y0011*
X00893Y0011*
X00893Y0011*
X00893*
X00892Y00109*
X00892Y00109*
X00891Y00109*
X0089Y00109*
X0089Y00109*
X00889Y00109*
X00889Y00109*
X00889*
X00888Y00109*
X00887Y00109*
X00887Y00109*
X00886Y00109*
X00885Y00109*
X00885Y00109*
X00884Y0011*
X00884Y0011*
X00884Y0011*
X00883Y0011*
X00883Y0011*
X00883Y00111*
X00882Y00111*
X00882Y00111*
X00882Y00111*
X00882Y00111*
X00882Y00111*
X00881Y00112*
X00881Y00112*
X0088Y00113*
X0088Y00113*
X0088Y00114*
X00879Y00114*
X00879Y00115*
X00879Y00115*
X00879Y00116*
X00879Y00116*
X00878Y00116*
X00878Y00116*
Y00116*
X00882Y00116*
X00882Y00116*
X00883Y00115*
X00883Y00114*
X00884Y00114*
X00884Y00113*
X00885Y00113*
X00885Y00113*
X00885Y00113*
X00885*
X00886Y00112*
X00886Y00112*
X00887Y00112*
X00888Y00112*
X00888Y00112*
X00888Y00112*
X00889Y00112*
X00889*
X00889Y00112*
X0089Y00112*
X00891Y00112*
X00891Y00112*
X00892Y00113*
X00892Y00113*
X00892Y00113*
X00892Y00113*
X00893Y00114*
X00893Y00115*
X00893Y00115*
X00893Y00116*
X00894Y00117*
X00894Y00117*
Y00117*
X00894Y00118*
Y00118*
Y00118*
Y00118*
Y00118*
X00894Y00119*
Y00119*
X00894Y00119*
Y00119*
Y00119*
X00877*
X00877Y0012*
X00877Y0012*
X00877Y00121*
X00877Y00121*
X00877Y00122*
Y00122*
Y00122*
Y00122*
X00877Y00123*
X00877Y00124*
X00877Y00124*
X00877Y00125*
X00878Y00126*
X00878Y00126*
X00878Y00127*
X00878Y00127*
X00878Y00128*
X00879Y00128*
X00879Y00128*
X00879Y00129*
X00879Y00129*
X00879Y00129*
X00879Y00129*
X00879Y00129*
X0088Y00129*
X0088Y0013*
X00881Y0013*
X00881Y0013*
X00882Y00131*
X00882Y00131*
X00883Y00131*
X00884Y00131*
X00884Y00131*
X00885Y00131*
X00885Y00131*
X00885Y00131*
X00886*
X00887Y00131*
G37*
G36*
X00873Y00118D02*
X00873Y00118D01*
X00873Y00117*
X00873Y00117*
X00873Y00116*
X00873Y00116*
X00873Y00115*
X00873Y00115*
X00873Y00115*
Y00114*
X00873Y00114*
X00873Y00114*
Y00114*
Y00114*
X00873Y00113*
X00873Y00112*
X00873Y00111*
X00873Y00111*
X00872Y00111*
X00872Y0011*
X00872Y0011*
X00872Y0011*
X00871Y0011*
X00871Y00109*
X0087Y00109*
X00869Y00109*
X00869Y00109*
X00868Y00109*
X00868Y00109*
X00868*
X00867Y00109*
X00866Y00109*
X00866Y00109*
X00865Y00109*
X00864Y0011*
X00863Y0011*
X00863Y0011*
X00862Y00111*
X00862Y00111*
X00861Y00112*
X00861Y00112*
X0086Y00112*
X0086Y00113*
X0086Y00113*
X0086Y00113*
X0086Y00113*
X00861Y00109*
X00857*
X00852Y00131*
X00856*
X00858Y00121*
X00858Y00121*
X00858Y0012*
X00859Y0012*
X00859Y00119*
X00859Y00118*
X00859Y00118*
X00859Y00118*
X00859Y00117*
X00859Y00117*
X00859Y00117*
X0086Y00116*
X0086Y00116*
X0086Y00115*
X00861Y00115*
X00861Y00115*
X00861Y00114*
X00861Y00114*
X00861Y00114*
X00862Y00114*
X00862Y00113*
X00863Y00113*
X00863Y00113*
X00863Y00113*
X00864Y00112*
X00864Y00112*
X00864Y00112*
X00865Y00112*
X00865Y00112*
X00866Y00112*
X00866Y00112*
X00866Y00112*
X00867*
X00867Y00112*
X00868Y00112*
X00868Y00112*
X00868Y00112*
X00869Y00112*
X00869Y00112*
X00869Y00112*
X00869Y00112*
X00869Y00113*
X00869Y00113*
X0087Y00113*
X0087Y00113*
X0087Y00114*
X0087Y00114*
Y00114*
Y00114*
Y00114*
X0087Y00115*
X0087Y00115*
X0087Y00116*
X00869Y00116*
X00869Y00116*
X00869Y00117*
Y00117*
X00866Y00131*
X0087*
X00873Y00118*
G37*
G36*
X00751Y00131D02*
X00752Y00131D01*
X00753Y00131*
X00754Y00131*
X00754Y0013*
X00754Y0013*
X00755Y0013*
X00755Y0013*
X00755Y0013*
X00755Y0013*
X00755Y0013*
X00755Y0013*
X00756Y00129*
X00756Y00129*
X00757Y00128*
X00758Y00127*
X00759Y00127*
X00759Y00126*
X00759Y00126*
X00759Y00125*
X00759Y00125*
X0076Y00125*
X0076Y00125*
X0076Y00125*
X0076Y00123*
X00761Y00122*
X00761Y00121*
X00761Y0012*
X00761Y0012*
X00761Y00119*
X00761Y00119*
Y00118*
X00761Y00118*
Y00118*
Y00118*
Y00118*
X00761Y00117*
X00761Y00116*
X00761Y00115*
X00761Y00114*
X00761Y00114*
X0076Y00114*
X0076Y00113*
X0076Y00113*
X0076Y00113*
X0076Y00113*
Y00113*
X0076Y00112*
X00759Y00112*
X00759Y00111*
X00758Y0011*
X00758Y0011*
X00757Y0011*
X00757Y0011*
X00757Y0011*
X00757*
X00756Y00109*
X00756Y00109*
X00755Y00109*
X00754Y00109*
X00754Y00109*
X00753Y00109*
X00753Y00109*
X00753*
X00752Y00109*
X00751Y00109*
X00751Y00109*
X0075Y00109*
X00749Y00109*
X00749Y00109*
X00748Y0011*
X00748Y0011*
X00747Y0011*
X00747Y0011*
X00747Y0011*
X00746Y00111*
X00746Y00111*
X00746Y00111*
X00746Y00111*
X00746Y00111*
X00745Y00111*
X00745Y00112*
X00745Y00112*
X00744Y00113*
X00744Y00113*
X00744Y00114*
X00743Y00114*
X00743Y00115*
X00743Y00115*
X00743Y00116*
X00742Y00116*
X00742Y00116*
X00742Y00116*
Y00116*
X00746Y00116*
X00746Y00116*
X00747Y00115*
X00747Y00114*
X00748Y00114*
X00748Y00113*
X00749Y00113*
X00749Y00113*
X00749Y00113*
X00749*
X0075Y00112*
X0075Y00112*
X00751Y00112*
X00752Y00112*
X00752Y00112*
X00752Y00112*
X00753Y00112*
X00753*
X00753Y00112*
X00754Y00112*
X00755Y00112*
X00755Y00112*
X00756Y00113*
X00756Y00113*
X00756Y00113*
X00756Y00113*
X00757Y00114*
X00757Y00115*
X00757Y00115*
X00757Y00116*
X00757Y00117*
X00757Y00117*
Y00117*
X00758Y00118*
Y00118*
Y00118*
Y00118*
Y00118*
X00757Y00119*
Y00119*
X00757Y00119*
Y00119*
Y00119*
X00741*
X00741Y0012*
X00741Y0012*
X00741Y00121*
X00741Y00121*
X00741Y00122*
Y00122*
Y00122*
Y00122*
X00741Y00123*
X00741Y00124*
X00741Y00124*
X00741Y00125*
X00742Y00126*
X00742Y00126*
X00742Y00127*
X00742Y00127*
X00742Y00128*
X00743Y00128*
X00743Y00128*
X00743Y00129*
X00743Y00129*
X00743Y00129*
X00743Y00129*
X00743Y00129*
X00744Y00129*
X00744Y0013*
X00745Y0013*
X00745Y0013*
X00746Y00131*
X00746Y00131*
X00747Y00131*
X00748Y00131*
X00748Y00131*
X00749Y00131*
X00749Y00131*
X00749Y00131*
X0075*
X00751Y00131*
G37*
G36*
X00716Y00118D02*
X00716Y00118D01*
X00716Y00117*
X00716Y00117*
X00716Y00116*
X00716Y00116*
X00716Y00115*
X00716Y00115*
X00716Y00115*
Y00114*
X00716Y00114*
X00716Y00114*
Y00114*
Y00114*
X00716Y00113*
X00716Y00112*
X00716Y00111*
X00716Y00111*
X00715Y00111*
X00715Y0011*
X00715Y0011*
X00715Y0011*
X00714Y0011*
X00713Y00109*
X00713Y00109*
X00712Y00109*
X00712Y00109*
X00711Y00109*
X00711Y00109*
X00711*
X0071Y00109*
X00709Y00109*
X00708Y00109*
X00708Y00109*
X00707Y0011*
X00706Y0011*
X00706Y0011*
X00705Y00111*
X00705Y00111*
X00704Y00112*
X00704Y00112*
X00703Y00112*
X00703Y00113*
X00703Y00113*
X00703Y00113*
X00703Y00113*
X00703Y00109*
X007*
X00695Y00131*
X00699*
X00701Y00121*
X00701Y00121*
X00701Y0012*
X00701Y0012*
X00702Y00119*
X00702Y00118*
X00702Y00118*
X00702Y00118*
X00702Y00117*
X00702Y00117*
X00702Y00117*
X00703Y00116*
X00703Y00116*
X00703Y00115*
X00703Y00115*
X00704Y00115*
X00704Y00114*
X00704Y00114*
X00704Y00114*
X00705Y00114*
X00705Y00113*
X00706Y00113*
X00706Y00113*
X00706Y00113*
X00706Y00112*
X00706Y00112*
X00707Y00112*
X00708Y00112*
X00708Y00112*
X00709Y00112*
X00709Y00112*
X00709Y00112*
X0071*
X0071Y00112*
X00711Y00112*
X00711Y00112*
X00711Y00112*
X00712Y00112*
X00712Y00112*
X00712Y00112*
X00712Y00112*
X00712Y00113*
X00712Y00113*
X00712Y00113*
X00712Y00113*
X00713Y00114*
X00713Y00114*
Y00114*
Y00114*
Y00114*
X00712Y00115*
X00712Y00115*
X00712Y00116*
X00712Y00116*
X00712Y00116*
X00712Y00117*
Y00117*
X00709Y00131*
X00713*
X00716Y00118*
G37*
G36*
X00838Y00131D02*
X00839Y00131D01*
X00839Y00131*
X0084Y00131*
X0084Y00131*
X00841Y0013*
X00841Y0013*
X00841Y0013*
X00842Y0013*
X00842Y00129*
X00843Y00128*
X00843Y00128*
X00844Y00127*
X00844Y00127*
X00844Y00127*
X00844Y00127*
X00844Y00126*
X00844Y00126*
X00843Y00131*
X00847*
X00851Y00109*
X00848*
X00846Y00118*
X00846Y00119*
X00845Y0012*
X00845Y00121*
X00845Y00121*
X00845Y00122*
X00844Y00123*
X00844Y00123*
X00844Y00124*
X00844Y00124*
X00843Y00125*
X00843Y00125*
X00843Y00125*
X00843Y00125*
X00843Y00125*
X00843Y00126*
X00843Y00126*
X00842Y00126*
X00842Y00126*
X00841Y00127*
X00841Y00127*
X0084Y00127*
X0084Y00128*
X00839Y00128*
X00839Y00128*
X00839Y00128*
X00839*
X00838Y00128*
X00838Y00128*
X00837Y00128*
X00837Y00127*
X00837Y00127*
X00837Y00127*
X00836Y00127*
X00836Y00127*
X00835Y00131*
X00835Y00131*
X00836Y00131*
X00836Y00131*
X00837Y00131*
X00837Y00131*
X00837Y00131*
X00838*
X00838Y00131*
G37*
G36*
X00814Y00109D02*
X0081D01*
X00804Y00139*
X00808*
X00814Y00109*
G37*
G36*
X00683Y00131D02*
X00684Y00131D01*
X00685Y00131*
X00685Y00131*
X00686Y00131*
X00686Y00131*
X00687Y00131*
X00687Y0013*
X00687Y0013*
X00688Y0013*
X00688Y0013*
X00688Y0013*
X00688Y0013*
X00689Y0013*
X00689Y0013*
X00689Y0013*
X00689Y00129*
X00689Y00129*
X0069Y00128*
X0069Y00128*
X0069Y00127*
X0069Y00127*
X00691Y00126*
X00691Y00126*
X00691Y00125*
X00691Y00125*
Y00125*
Y00125*
Y00125*
X00691Y00125*
X00691Y00124*
X0069Y00124*
X0069Y00123*
X0069Y00123*
X0069Y00123*
X0069Y00122*
X0069Y00122*
X0069Y00122*
X00689Y00122*
X00689Y00121*
X00689Y00121*
X00688Y00121*
X00688Y00121*
X00688Y00121*
X00688Y0012*
X00688Y0012*
X00687Y0012*
X00687Y0012*
X00686Y0012*
X00686Y00119*
X00685Y00119*
X00685Y00119*
X00685Y00119*
X00684Y00119*
X00684Y00119*
X00684Y00119*
X00684*
X00684Y00118*
X00683Y00118*
X00683Y00118*
X00682Y00118*
X00682Y00118*
X00682Y00117*
X00681Y00117*
X00681Y00117*
X0068Y00117*
X0068Y00117*
X0068Y00117*
X0068Y00116*
X0068Y00116*
X0068Y00116*
X0068Y00115*
X0068Y00115*
X0068Y00115*
Y00115*
Y00115*
X0068Y00114*
X0068Y00114*
X0068Y00113*
X0068Y00113*
X0068Y00113*
X00681Y00113*
X00681Y00112*
X00681Y00112*
X00681Y00112*
X00682Y00112*
X00683Y00112*
X00683Y00112*
X00684Y00111*
X00684Y00111*
X00685*
X00685Y00111*
X00686Y00112*
X00686Y00112*
X00687Y00112*
X00687Y00112*
X00687Y00112*
X00688Y00112*
X00688Y00112*
X00688Y00112*
X00689Y00113*
X00689Y00113*
X00689Y00113*
X00689Y00114*
X00689Y00114*
X00689Y00114*
X00689Y00114*
X0069Y00114*
X0069Y00115*
X0069Y00115*
X0069Y00116*
X0069Y00116*
X0069Y00116*
Y00117*
Y00117*
X00694Y00116*
Y00116*
X00694Y00115*
X00694Y00114*
X00693Y00114*
X00693Y00113*
X00693Y00113*
X00693Y00112*
X00693Y00112*
X00692Y00112*
X00692Y00111*
X00692Y00111*
X00692Y00111*
X00691Y00111*
X00691Y0011*
X00691Y0011*
X00691Y0011*
X00691Y0011*
X0069Y0011*
X00689Y00109*
X00688Y00109*
X00687Y00109*
X00687Y00109*
X00686Y00109*
X00686Y00109*
X00685*
X00685Y00109*
X00685*
X00684Y00109*
X00683Y00109*
X00682Y00109*
X00681Y00109*
X00681Y00109*
X0068Y00109*
X0068Y00109*
X0068Y00109*
X0068Y00109*
X0068Y00109*
X0068*
X00679Y0011*
X00679Y0011*
X00678Y00111*
X00678Y00111*
X00677Y00111*
X00677Y00112*
X00677Y00112*
X00677Y00112*
X00677Y00113*
X00676Y00113*
X00676Y00114*
X00676Y00114*
X00676Y00115*
X00676Y00115*
Y00115*
Y00115*
Y00116*
X00676Y00116*
X00676Y00117*
X00676Y00118*
X00677Y00118*
X00677Y00119*
X00677Y00119*
X00678Y00119*
X00678Y00119*
X00678*
X00678Y0012*
X00678Y0012*
X00679Y0012*
X00679Y0012*
X0068Y00121*
X00681Y00121*
X00682Y00122*
X00682Y00122*
X00682Y00122*
X00683Y00122*
X00683Y00122*
X00683Y00122*
X00683Y00122*
X00684Y00122*
X00684Y00123*
X00684Y00123*
X00685Y00123*
X00685Y00123*
X00686Y00123*
X00686Y00124*
X00686Y00124*
X00686Y00124*
X00686Y00124*
X00687Y00124*
X00687Y00125*
X00687Y00125*
X00687Y00125*
X00687Y00125*
X00687Y00126*
Y00126*
Y00126*
X00687Y00126*
X00687Y00126*
X00687Y00127*
X00687Y00127*
X00686Y00127*
X00686Y00127*
X00686Y00128*
X00686Y00128*
X00686Y00128*
X00685Y00128*
X00685Y00128*
X00684Y00128*
X00684Y00128*
X00683Y00129*
X00683*
X00682Y00128*
X00682Y00128*
X00681Y00128*
X0068Y00128*
X0068Y00128*
X0068Y00128*
X00679Y00127*
X00679Y00127*
X00679Y00127*
X00679Y00126*
X00678Y00126*
X00678Y00125*
X00678Y00125*
X00678Y00125*
X00678Y00124*
Y00124*
Y00124*
X00674Y00124*
X00674Y00125*
X00674Y00126*
X00675Y00127*
X00675Y00127*
X00675Y00128*
X00676Y00129*
X00676Y00129*
X00676Y00129*
X00676Y00129*
X00676Y00129*
X00677Y00129*
X00677Y00129*
X00677Y0013*
X00677Y0013*
X00678Y0013*
X00678Y00131*
X00679Y00131*
X0068Y00131*
X00681Y00131*
X00681Y00131*
X00682Y00131*
X00682*
X00682Y00131*
X00683*
X00683Y00131*
G37*
%LNnema17-2*%
%LPC*%
G36*
X00987Y00159D02*
X00983D01*
Y00158*
X00987*
Y00159*
G37*
G36*
X00848D02*
X00843D01*
Y00158*
X00848*
Y00159*
G37*
G36*
X00827D02*
X00823D01*
Y00156*
X00827*
Y00158*
Y00159*
G37*
G36*
X00734D02*
X00729D01*
Y00156*
X00734*
Y00159*
G37*
G36*
X0068D02*
X00676D01*
Y00158*
Y00157*
X0068*
Y00159*
G37*
G36*
X01006Y00161D02*
X00994D01*
Y00156*
X01006*
Y00157*
X00995*
Y0016*
X01006*
Y00161*
G37*
G36*
X00955Y00159D02*
X00951D01*
Y00156*
X00955*
Y00159*
G37*
G36*
X00913Y00157D02*
X0091D01*
Y00156*
X00913*
Y00157*
G37*
G36*
X00892Y00159D02*
X00887D01*
Y00156*
X00892*
Y00159*
G37*
G36*
X00862D02*
X00857D01*
Y00158*
X00862*
Y00159*
G37*
G36*
X00763D02*
X00749D01*
Y00158*
X00755*
Y00157*
X00756*
Y00156*
X00763*
Y00159*
G37*
G36*
X00753Y00157D02*
X00749D01*
Y00156*
X00753*
Y00157*
G37*
G36*
X00654Y00159D02*
X00651D01*
Y00158*
X00654*
Y00159*
G37*
G36*
X00644D02*
X0064D01*
Y00158*
X00644*
Y00159*
G37*
G36*
X00612D02*
X00608D01*
Y00158*
Y00157*
X00612*
Y00159*
G37*
G36*
X00821Y0012D02*
X00821D01*
X00821Y00119*
X00822Y00118*
X00822Y00117*
X00822Y00116*
X00822Y00116*
X00822Y00116*
X00822Y00115*
X00823Y00115*
X00823Y00115*
X00823Y00115*
Y00115*
X00823Y00114*
X00823Y00114*
X00824Y00113*
X00824Y00113*
X00825Y00113*
X00825Y00113*
X00825Y00112*
X00825Y00112*
X00825*
X00826Y00112*
X00827Y00112*
X00827Y00112*
X00828Y00112*
X00828Y00111*
X00829Y00111*
X00829*
X0083Y00111*
X0083Y00112*
X00831Y00112*
X00831Y00112*
X00831Y00112*
X00832Y00112*
X00832Y00112*
X00832Y00112*
X00832Y00113*
X00833Y00113*
X00833Y00114*
X00833Y00114*
X00833Y00114*
X00833Y00115*
Y00115*
Y00115*
X00833Y00115*
X00833Y00116*
X00833Y00116*
X00833Y00116*
X00833Y00117*
X00832Y00117*
X00832Y00117*
X00832Y00117*
X00832Y00117*
X00832Y00118*
X00831Y00118*
X00831Y00118*
X00831Y00118*
X00831Y00118*
X0083Y00119*
X0083*
X0083Y00119*
X0083Y00119*
X00829Y00119*
X00828Y00119*
X00828Y00119*
X00827Y00119*
X00826Y00119*
X00826Y00119*
X00826*
X00826Y00119*
X00826*
X00825Y00119*
X00824Y00119*
X00824Y00119*
X00823Y00119*
X00823Y0012*
X00823*
X00823Y0012*
X00823*
X00822Y0012*
X00822Y0012*
X00822Y0012*
X00821Y0012*
X00821Y0012*
X00821Y0012*
G37*
G36*
X00886Y00129D02*
X00886D01*
X00885Y00128*
X00884Y00128*
X00883Y00128*
X00883Y00128*
X00883Y00127*
X00882Y00127*
X00882Y00127*
X00882Y00127*
X00882Y00126*
X00881Y00126*
X00881Y00125*
X00881Y00124*
X00881Y00124*
X00881Y00123*
Y00123*
X00881Y00123*
Y00123*
Y00123*
Y00123*
Y00122*
Y00122*
X00881Y00122*
Y00122*
Y00122*
X00893*
X00893Y00123*
X00892Y00124*
X00892Y00125*
X00891Y00126*
X00891Y00126*
X0089Y00127*
X0089Y00127*
X0089Y00127*
X0089*
X0089Y00127*
X00889Y00127*
X00888Y00128*
X00888Y00128*
X00887Y00128*
X00886Y00128*
X00886Y00128*
X00886*
X00886Y00129*
G37*
G36*
X0075D02*
X0075D01*
X00749Y00128*
X00748Y00128*
X00747Y00128*
X00747Y00128*
X00746Y00127*
X00746Y00127*
X00746Y00127*
X00746Y00127*
X00745Y00126*
X00745Y00126*
X00745Y00125*
X00745Y00124*
X00745Y00124*
X00745Y00123*
Y00123*
X00745Y00123*
Y00123*
Y00123*
Y00123*
Y00122*
Y00122*
X00745Y00122*
Y00122*
Y00122*
X00757*
X00756Y00123*
X00756Y00124*
X00756Y00125*
X00755Y00126*
X00755Y00126*
X00754Y00127*
X00754Y00127*
X00754Y00127*
X00754*
X00754Y00127*
X00753Y00127*
X00752Y00128*
X00752Y00128*
X00751Y00128*
X0075Y00128*
X0075Y00128*
X0075*
X0075Y00129*
G37*
%LNnema17-3*%
%LPD*%
G54D10*
X0063Y00507D02*
Y01157D01*
X0001Y00507D02*
Y01157D01*
X00166*
X00421D02*
X0063D01*
X0001Y00507D02*
X00166D01*
X00421D02*
X0063D01*
X01052Y01166D02*
Y01192D01*
X01096Y01148D02*
X01123D01*
X01166Y01166D02*
Y01192D01*
X0097Y01432D02*
Y01658D01*
Y01432D02*
X01261D01*
Y01658*
X0097D02*
X01261D01*
G54D27*
X01072Y01274D02*
D01*
X01072Y01275*
X01072Y01275*
X01072Y01275*
X01072Y01275*
X01072Y01276*
X01072Y01276*
X01071Y01276*
X01071Y01276*
X01071Y01277*
X01071Y01277*
X01071Y01277*
X01071Y01277*
X0107Y01277*
X0107Y01278*
X0107Y01278*
X0107Y01278*
X01069Y01278*
X01069Y01278*
X01069Y01278*
X01069Y01278*
X01068Y01278*
X01068Y01278*
X01068*
X01068Y01278*
X01067Y01278*
X01067Y01278*
X01067Y01278*
X01067Y01278*
X01066Y01278*
X01066Y01278*
X01066Y01278*
X01066Y01277*
X01065Y01277*
X01065Y01277*
X01065Y01277*
X01065Y01277*
X01065Y01276*
X01065Y01276*
X01064Y01276*
X01064Y01276*
X01064Y01275*
X01064Y01275*
X01064Y01275*
X01064Y01275*
X01064Y01274*
X01064Y01274*
X01064Y01274*
X01064Y01273*
X01064Y01273*
X01064Y01273*
X01064Y01273*
X01065Y01272*
X01065Y01272*
X01065Y01272*
X01065Y01272*
X01065Y01272*
X01065Y01271*
X01066Y01271*
X01066Y01271*
X01066Y01271*
X01066Y01271*
X01067Y01271*
X01067Y01271*
X01067Y0127*
X01067Y0127*
X01068Y0127*
X01068Y0127*
X01068*
X01068Y0127*
X01069Y0127*
X01069Y0127*
X01069Y01271*
X01069Y01271*
X0107Y01271*
X0107Y01271*
X0107Y01271*
X0107Y01271*
X01071Y01271*
X01071Y01272*
X01071Y01272*
X01071Y01272*
X01071Y01272*
X01071Y01272*
X01072Y01273*
X01072Y01273*
X01072Y01273*
X01072Y01273*
X01072Y01274*
X01072Y01274*
X01072Y01274*
X00945Y01524D02*
D01*
X00945Y01524*
X00945Y01525*
X00945Y01525*
X00945Y01525*
X00945Y01525*
X00944Y01526*
X00944Y01526*
X00944Y01526*
X00944Y01526*
X00944Y01527*
X00944Y01527*
X00943Y01527*
X00943Y01527*
X00943Y01527*
X00943Y01528*
X00943Y01528*
X00942Y01528*
X00942Y01528*
X00942Y01528*
X00942Y01528*
X00941Y01528*
X00941Y01528*
X00941*
X0094Y01528*
X0094Y01528*
X0094Y01528*
X0094Y01528*
X00939Y01528*
X00939Y01528*
X00939Y01528*
X00939Y01527*
X00938Y01527*
X00938Y01527*
X00938Y01527*
X00938Y01527*
X00938Y01526*
X00937Y01526*
X00937Y01526*
X00937Y01526*
X00937Y01525*
X00937Y01525*
X00937Y01525*
X00937Y01525*
X00937Y01524*
X00937Y01524*
X00937Y01524*
X00937Y01524*
X00937Y01523*
X00937Y01523*
X00937Y01523*
X00937Y01523*
X00937Y01522*
X00937Y01522*
X00938Y01522*
X00938Y01522*
X00938Y01521*
X00938Y01521*
X00938Y01521*
X00939Y01521*
X00939Y01521*
X00939Y01521*
X00939Y0152*
X0094Y0152*
X0094Y0152*
X0094Y0152*
X0094Y0152*
X00941Y0152*
X00941*
X00941Y0152*
X00942Y0152*
X00942Y0152*
X00942Y0152*
X00942Y0152*
X00943Y01521*
X00943Y01521*
X00943Y01521*
X00943Y01521*
X00943Y01521*
X00944Y01521*
X00944Y01522*
X00944Y01522*
X00944Y01522*
X00944Y01522*
X00944Y01523*
X00945Y01523*
X00945Y01523*
X00945Y01523*
X00945Y01524*
X00945Y01524*
X00945Y01524*
X0087Y01177D02*
Y01307D01*
X00959Y01177D02*
Y01307D01*
X00914Y01008D02*
Y01028D01*
X00904Y01018D02*
X00924D01*
X00885Y01081D02*
Y01099D01*
X00944Y01081D02*
Y01099D01*
M02*