%FSTAX23Y23*%
%MOIN*%
%SFA1B1*%

%IPPOS*%
%AMD11*
4,1,8,0.026900,0.008100,-0.026900,0.008100,-0.028900,0.006100,-0.028900,-0.006100,-0.026900,-0.008100,0.026900,-0.008100,0.028900,-0.006100,0.028900,0.006100,0.026900,0.008100,0.0*
1,1,0.004039,0.026900,0.006100*
1,1,0.004039,-0.026900,0.006100*
1,1,0.004039,-0.026900,-0.006100*
1,1,0.004039,0.026900,-0.006100*
%
%AMD14*
4,1,8,-0.012500,0.006200,-0.012500,-0.006200,-0.006200,-0.012500,0.006200,-0.012500,0.012500,-0.006200,0.012500,0.006200,0.006200,0.012500,-0.006200,0.012500,-0.012500,0.006200,0.0*
1,1,0.012504,-0.006200,0.006200*
1,1,0.012504,-0.006200,-0.006200*
1,1,0.012504,0.006200,-0.006200*
1,1,0.012504,0.006200,0.006200*
%
G04~CAMADD=11~8~0.0~0.0~578.7~161.4~20.2~0.0~15~0.0~0.0~0.0~0.0~0~0.0~0.0~0.0~0.0~0~0.0~0.0~0.0~0.0~578.7~161.4*
%ADD11D11*%
%ADD12R,0.059236X0.061268*%
%ADD13R,0.012000X0.022000*%
G04~CAMADD=14~8~0.0~0.0~250.0~250.0~62.5~0.0~15~0.0~0.0~0.0~0.0~0~0.0~0.0~0.0~0.0~0~0.0~0.0~0.0~90.0~250.0~250.0*
%ADD14D14*%
%ADD27C,0.007874*%
%ADD28C,0.011811*%
%ADD29C,0.095669*%
%ADD30R,0.057008X0.057008*%
%ADD31C,0.057008*%
%ADD32C,0.129921*%
%ADD33C,0.039370*%
%ADD34C,0.062008*%
%ADD35R,0.062008X0.062008*%
%ADD36C,0.050000*%
%ADD37C,0.017716*%
%LNnema17-1*%
%LPD*%
G36*
X01473Y01661D02*
X01661Y01474D01*
X01662*
Y0019*
X01474Y00002*
Y00002*
X00189*
X00001Y0019*
Y01472*
X0019Y01662*
X00191*
X01473Y01661*
G37*
%LNnema17-2*%
%LPC*%
G36*
X01103Y01561D02*
X0103D01*
Y01487*
X01103*
Y01561*
G37*
G36*
X00229Y0151D02*
X00216D01*
X00203Y01507*
X0019Y01502*
X0018Y01495*
X0017Y01486*
X00163Y01475*
X00158Y01462*
X00155Y01449*
Y01436*
X00158Y01423*
X00163Y01411*
X0017Y014*
X0018Y01391*
X0019Y01384*
X00203Y01378*
X00216Y01376*
X00229*
X00242Y01378*
X00254Y01384*
X00265Y01391*
X00274Y014*
X00281Y01411*
X00287Y01423*
X00289Y01436*
Y01449*
X00287Y01462*
X00281Y01475*
X00274Y01486*
X00265Y01495*
X00254Y01502*
X00242Y01507*
X00229Y0151*
G37*
G36*
X01449Y0151D02*
X01436D01*
X01423Y01507*
X01411Y01502*
X014Y01495*
X01391Y01485*
X01383Y01474*
X01378Y01462*
X01376Y01449*
Y01436*
X01378Y01423*
X01383Y01411*
X01391Y014*
X014Y01391*
X01411Y01383*
X01423Y01378*
X01436Y01376*
X01449*
X01462Y01378*
X01474Y01383*
X01485Y01391*
X01495Y014*
X01502Y01411*
X01507Y01423*
X0151Y01436*
Y01449*
X01507Y01462*
X01502Y01474*
X01495Y01485*
X01485Y01495*
X01474Y01502*
X01462Y01507*
X01449Y0151*
G37*
G36*
X00972Y00923D02*
X00918D01*
X00915Y00922*
X00913Y00921*
X00911Y00918*
X0091Y00915*
Y00903*
X00911Y009*
X00913Y00897*
X00915Y00895*
X00918Y00895*
X00972*
X00975Y00895*
X00978Y00897*
X0098Y009*
X0098Y00903*
Y00915*
X0098Y00918*
X00978Y00921*
X00975Y00922*
X00972Y00923*
G37*
G36*
X00232Y01153D02*
X00218D01*
X00205Y0115*
X00192Y01145*
X0018Y01137*
X0017Y01127*
X00162Y01116*
X00157Y01103*
X00154Y01089*
Y01075*
X00157Y01062*
X00162Y01049*
X0017Y01037*
X0018Y01027*
X00192Y01019*
X00205Y01014*
X00218Y01011*
X00232*
X00233Y01011*
X00235Y01007*
X00205Y00977*
X00203Y00974*
X00202Y0097*
Y00886*
X00203Y00882*
X00205Y00879*
X0026Y00824*
Y00749*
X00258*
Y00715*
X00282*
Y00722*
X00292*
X00293Y00719*
X00298Y00711*
X00304Y00705*
X00312Y007*
X00321Y00698*
X0033*
X00339Y007*
X00346Y00705*
X00353Y00711*
X00357Y00719*
X0036Y00728*
Y00737*
X00357Y00745*
X00353Y00753*
X00346Y0076*
X00339Y00764*
X0033Y00767*
X00321*
X00312Y00764*
X00304Y0076*
X00298Y00753*
X00293Y00745*
X00292Y00742*
X00282*
Y00749*
X0028*
Y00829*
X00279Y00832*
X00277Y00836*
X00274Y00839*
X00276Y00844*
X00335*
X00374Y00805*
X00377Y00803*
X00381Y00802*
X00629*
X00633Y00803*
X00636Y00805*
X00653Y00822*
X00685*
X00687Y0082*
X00689Y00819*
X00692Y00818*
X00746*
X00749Y00819*
X00752Y0082*
X00754Y00823*
X00754Y00826*
Y00838*
X00754Y00841*
X00752Y00844*
Y00846*
X00754Y00849*
X00754Y00852*
Y00864*
X00754Y00867*
X00752Y00871*
X00754Y00874*
X00754Y00877*
Y00889*
X00754Y00893*
X00752Y00895*
Y00897*
X00754Y009*
X00754Y00903*
Y00915*
X00754Y00918*
X00752Y00921*
X00749Y00922*
X00746Y00923*
X00714*
Y00982*
X00713Y00986*
X00711Y00989*
X00666Y01034*
X00663Y01037*
X0066Y01039*
X00656Y01039*
X00287*
X00285Y01044*
X00288Y01049*
X00293Y01062*
X00296Y01075*
Y01089*
X00293Y01103*
X00288Y01116*
X0028Y01127*
X0027Y01137*
X00259Y01145*
X00246Y0115*
X00232Y01153*
G37*
G36*
X011Y00963D02*
X01013D01*
X01009Y00961*
X01007Y00957*
Y00914*
X01009Y0091*
X01019Y009*
Y00873*
X01018Y00872*
X00913*
X00908Y00871*
X00906Y00866*
Y00824*
X00908Y00819*
X0091Y00819*
X00911Y00816*
X0091Y00813*
Y00801*
X00911Y00797*
X00912Y00794*
X00911Y0079*
X0091Y00787*
Y00775*
X00911Y00772*
X00912Y00768*
X00911Y00765*
X0091Y00761*
Y00749*
X00911Y00746*
X00913Y00744*
X00915Y00742*
X00918Y00741*
X00972*
X00975Y00742*
X00978Y00744*
X0098Y00746*
X0098Y00749*
Y00761*
X0098Y00765*
X00978Y00768*
X0098Y00772*
X0098Y00775*
Y00787*
X0098Y0079*
X00978Y00794*
X0098Y00797*
X0098Y00801*
Y00813*
X00984Y00818*
X01046*
X0105Y00819*
X0106Y00829*
X01088*
X01093Y00831*
X01096Y00834*
X01096Y00834*
X01098Y00838*
Y00901*
X01105Y00908*
X01105Y00908*
X01105Y00908*
X01106Y00911*
X01107Y00913*
X01107Y00913*
X01107Y00913*
X01106Y00957*
X01105Y00959*
X01104Y00961*
X01104Y00961*
X01104Y00961*
X01102Y00962*
X011Y00963*
G37*
G36*
X00746Y00795D02*
X00692D01*
X00689Y00795*
X00687Y00793*
X00685Y0079*
X00684Y00787*
Y00775*
X00685Y00772*
X00686Y00768*
X00685Y00765*
X00684Y00761*
Y00749*
X00685Y00746*
X00687Y00744*
X00689Y00742*
X00692Y00741*
X00746*
X00749Y00742*
X00752Y00744*
X00754Y00746*
X00754Y00749*
Y00761*
X00754Y00765*
X00752Y00768*
X00754Y00772*
X00754Y00775*
Y00787*
X00754Y0079*
X00752Y00793*
X00749Y00795*
X00746Y00795*
G37*
G36*
X00232Y00653D02*
X00218D01*
X00205Y0065*
X00192Y00645*
X0018Y00637*
X0017Y00627*
X00162Y00616*
X00157Y00603*
X00154Y00589*
Y00575*
X00157Y00562*
X00162Y00549*
X0017Y00537*
X0018Y00527*
X00192Y00519*
X00205Y00514*
X00218Y00511*
X00232*
X00246Y00514*
X00259Y00519*
X0027Y00527*
X0028Y00537*
X00288Y00549*
X00293Y00562*
X00296Y00575*
Y00589*
X00293Y00603*
X00288Y00616*
X0028Y00627*
X0027Y00637*
X00259Y00645*
X00246Y0065*
X00232Y00653*
G37*
G36*
X01449Y00289D02*
X01436D01*
X01423Y00287*
X01411Y00282*
X014Y00274*
X01391Y00265*
X01383Y00254*
X01378Y00242*
X01376Y00229*
Y00216*
X01378Y00203*
X01383Y00191*
X01391Y0018*
X014Y0017*
X01411Y00163*
X01423Y00158*
X01436Y00155*
X01449*
X01462Y00158*
X01474Y00163*
X01485Y0017*
X01495Y0018*
X01502Y00191*
X01507Y00203*
X0151Y00216*
Y00229*
X01507Y00242*
X01502Y00254*
X01495Y00265*
X01485Y00274*
X01474Y00282*
X01462Y00287*
X01449Y00289*
G37*
G36*
X00229Y00289D02*
X00215D01*
X00203Y00287*
X0019Y00282*
X00179Y00274*
X0017Y00265*
X00163Y00254*
X00158Y00242*
X00155Y00229*
Y00216*
X00158Y00203*
X00163Y00191*
X0017Y0018*
X00179Y0017*
X0019Y00163*
X00203Y00158*
X00215Y00155*
X00229*
X00242Y00158*
X00254Y00163*
X00265Y0017*
X00274Y0018*
X00281Y00191*
X00286Y00203*
X00289Y00216*
Y00229*
X00286Y00242*
X00281Y00254*
X00274Y00265*
X00265Y00274*
X00254Y00282*
X00242Y00287*
X00229Y00289*
G37*
%LNnema17-3*%
%LPD*%
G36*
X00604Y00992D02*
X0067Y00925D01*
Y00898*
X00671Y00894*
X00673Y00891*
X0068Y00884*
X00681Y00884*
X00684Y0088*
X00684Y0088*
Y00877*
X00685Y00875*
X00684Y00874*
X00684Y00874*
X00679Y00873*
X00676Y00875*
X00671Y00876*
X00659*
X00654Y00875*
X0065Y00872*
X00645*
X00641Y00875*
X00636Y00876*
X00624*
X00621Y00879*
X00618Y00881*
X00614Y00882*
X00465*
X00461Y00881*
X00458Y00879*
X00447Y00868*
X00438*
Y00862*
X00428*
X00427Y00865*
X00423Y00873*
X00416Y0088*
X00409Y00884*
X004Y00887*
X00391*
X00382Y00884*
X00374Y0088*
X00368Y00873*
X00363Y00865*
X00361Y00857*
Y00854*
X00356Y00852*
X00348Y0086*
X00347Y00861*
X00347Y00864*
X00348Y00866*
X00353Y00871*
X00357Y00879*
X0036Y00888*
Y00897*
X00357Y00905*
X00353Y00913*
X00346Y0092*
X00339Y00924*
X0033Y00927*
X00321*
X00312Y00924*
X00304Y0092*
X00298Y00913*
X00293Y00905*
X00292Y00902*
X00281*
Y00909*
X00258*
Y00876*
X0026*
Y0086*
X00255Y00858*
X00223Y0089*
Y00966*
X00255Y00999*
X0026Y00996*
Y00988*
X00258*
Y00955*
X00282*
Y00962*
X00291*
Y00938*
X0036*
Y01004*
X00592*
X00604Y00992*
G37*
G36*
X00611Y0086D02*
Y00851D01*
X00612Y00846*
X00615Y00842*
X00619Y00839*
X00624Y00838*
X00634*
X00636Y00833*
X00625Y00822*
X00421*
X00419Y00827*
X00423Y00831*
X00427Y00839*
X00428Y00842*
X00438*
Y00834*
X00462*
Y00852*
X00462Y00853*
Y00855*
X00469Y00862*
X0061*
X00611Y0086*
G37*
G36*
X011Y00913D02*
X01091Y00904D01*
Y00838*
X01088Y00836*
X01058*
X01046Y00824*
X00913*
Y00866*
X01021*
X01025Y0087*
Y00903*
X01013Y00914*
Y00957*
X011*
X011Y00913*
G37*
G54D11*
X00945Y00909D03*
Y00883D03*
Y00858D03*
Y00832D03*
Y00807D03*
Y00781D03*
Y00755D03*
X00719D03*
Y00781D03*
Y00807D03*
Y00832D03*
Y00858D03*
Y00883D03*
Y00909D03*
G54D12*
X01129Y0087D03*
X01059D03*
G54D13*
X0027Y00972D03*
X00245D03*
X0027Y00732D03*
X00245D03*
X0045Y00851D03*
X00475D03*
X0027Y00892D03*
X00245D03*
G54D14*
X0063Y00857D03*
X00665D03*
G54D27*
X00257Y01014D02*
D01*
X00262Y01017*
X00266Y01019*
X0027Y01022*
X00274Y01026*
X00278Y01029*
X00278Y01029*
X0045Y00812D02*
X0059D01*
X0068Y00908D02*
Y00929D01*
X00611Y00999D02*
X0068Y00929D01*
X00465Y00872D02*
X00592D01*
X00459Y00866D02*
X00465Y00872D01*
X00256Y01013D02*
X00257Y01014D01*
X00281Y01029D02*
X00656D01*
X00212Y0097D02*
X00256Y01013D01*
X00278Y01029D02*
X00281D01*
X00282Y01014D02*
X00596D01*
X00611Y00999*
X0027Y00972D02*
Y01002D01*
X00282Y01014*
X00212Y00886D02*
Y0097D01*
X0045Y00851D02*
X00452Y00853D01*
Y00859*
X00459Y00866*
X0068Y00898D02*
Y00908D01*
X00687Y00891D02*
X00691Y00887D01*
X0068Y00898D02*
X00687Y00891D01*
X00691Y00887D02*
X00715D01*
X00687Y00891D02*
X00687D01*
X00715Y00887D02*
X00719Y00883D01*
X00656Y01029D02*
X00659Y01027D01*
X00704Y00913D02*
Y00982D01*
X00659Y01027D02*
X00704Y00982D01*
X00381Y00812D02*
X0045D01*
X0059D02*
X00629D01*
X00649Y00832*
X00339Y00854D02*
X00381Y00812D01*
X00704Y00913D02*
X00708Y00909D01*
X00719*
X00325Y00972D02*
X00325Y00972D01*
X00592Y00872D02*
X00594D01*
X00629Y00857D02*
X00629D01*
X00614Y00872D02*
X00629Y00857D01*
X00594Y00872D02*
X00614D01*
X00629Y00857D02*
X0063D01*
X00649Y00832D02*
X00719D01*
X0027Y00972D02*
X00325D01*
X0027Y00858D02*
Y00892D01*
Y00858D02*
X00274Y00854D01*
X00339*
X00212Y00886D02*
X0027Y00829D01*
Y00732D02*
Y00829D01*
X0027Y00892D02*
X00325D01*
X00325Y00892*
X00395Y00852D02*
X00396Y00852D01*
X00449*
X0045Y00851*
X0027Y00732D02*
X00325D01*
X0027Y00892D02*
X0027Y00892D01*
X00665Y00857D02*
X00665Y00857D01*
X00719*
X00719Y00858*
G54D28*
X00245Y00892D02*
X00245Y00893D01*
Y0091D02*
X00255Y0092D01*
X00245Y00893D02*
Y0091D01*
X00255Y0092D02*
Y00922D01*
X00232Y00954D02*
X00245Y00967D01*
X00231Y00941D02*
X00232Y00942D01*
X00245Y00967D02*
Y00972D01*
X00232Y00942D02*
Y00954D01*
X00245Y00732D02*
Y00732D01*
X00245Y00732D02*
X00245Y00732D01*
X00219Y00732D02*
X00245D01*
X00506Y00849D02*
X00508D01*
X00504Y00851D02*
X00506Y00849D01*
X00475Y00851D02*
X00504D01*
X00666Y00807D02*
X00719D01*
X00945Y00883D02*
X00994D01*
G54D29*
X0036Y01152D03*
Y00512D03*
G54D30*
X00325Y00972D03*
G54D31*
X00395Y00932D03*
X00325Y00892D03*
X00395Y00852D03*
X00325Y00812D03*
X00395Y00772D03*
X00325Y00732D03*
X00395Y00692D03*
G54D32*
X00225Y01082D03*
Y00582D03*
G54D33*
X00222Y00222D03*
X01443Y00222D03*
X01443Y01443D03*
X00222Y01443D03*
G54D34*
X01165Y01524D03*
G54D35*
X01066Y01524D03*
G54D36*
X01377Y00787D03*
X01181Y00393D03*
X00787Y01181D03*
Y00393D03*
X00393D03*
G54D37*
X00255Y00922D03*
X00231Y00941D03*
X00219Y00732D03*
X00666Y00807D03*
X00508Y00849D03*
X00994Y00883D03*
X01201Y00837D03*
X01201Y00862D03*
X012Y00889D03*
X01087Y00944D03*
X01055Y00943D03*
X01026Y00942D03*
M02*