%FSTAX23Y23*%
%MOIN*%
%SFA1B1*%

%IPPOS*%
%AMD15*
4,1,8,0.026900,0.012100,-0.026900,0.012100,-0.033000,0.006100,-0.033000,-0.006100,-0.026900,-0.012100,0.026900,-0.012100,0.033000,-0.006100,0.033000,0.006100,0.026900,0.012100,0.0*
1,1,0.012071,0.026900,0.006100*
1,1,0.012071,-0.026900,0.006100*
1,1,0.012071,-0.026900,-0.006100*
1,1,0.012071,0.026900,-0.006100*
%
%AMD17*
4,1,8,-0.015500,0.006200,-0.015500,-0.006200,-0.006200,-0.015500,0.006200,-0.015500,0.015500,-0.006200,0.015500,0.006200,0.006200,0.015500,-0.006200,0.015500,-0.015500,0.006200,0.0*
1,1,0.018409,-0.006200,0.006200*
1,1,0.018409,-0.006200,-0.006200*
1,1,0.018409,0.006200,-0.006200*
1,1,0.018409,0.006200,0.006200*
%
%ADD12R,0.059236X0.061268*%
G04~CAMADD=15~8~0.0~0.0~659.1~241.7~60.4~0.0~15~0.0~0.0~0.0~0.0~0~0.0~0.0~0.0~0.0~0~0.0~0.0~0.0~0.0~659.1~241.7*
%ADD15D15*%
%ADD16R,0.010000X0.020000*%
G04~CAMADD=17~8~0.0~0.0~309.1~309.1~92.0~0.0~15~0.0~0.0~0.0~0.0~0~0.0~0.0~0.0~0.0~0~0.0~0.0~0.0~90.0~310.0~310.0*
%ADD17D17*%
%ADD18C,0.103669*%
%ADD19R,0.065008X0.065008*%
%ADD20C,0.065008*%
%ADD21C,0.137921*%
%ADD22C,0.047370*%
%ADD23C,0.070008*%
%ADD24R,0.070008X0.070008*%
%ADD25C,0.058000*%
%ADD26C,0.021654*%
%LNnema17-1*%
%LPD*%
G54D12*
X01129Y0087D03*
X01059D03*
G54D15*
X00945Y00909D03*
Y00883D03*
Y00858D03*
Y00832D03*
Y00807D03*
Y00781D03*
Y00755D03*
X00719D03*
Y00781D03*
Y00807D03*
Y00832D03*
Y00858D03*
Y00883D03*
Y00909D03*
G54D16*
X0027Y00972D03*
X00245D03*
X0027Y00732D03*
X00245D03*
X0045Y00851D03*
X00475D03*
X0027Y00892D03*
X00245D03*
G54D17*
X0063Y00857D03*
X00665D03*
G54D18*
X0036Y01152D03*
Y00512D03*
G54D19*
X00325Y00972D03*
G54D20*
X00395Y00932D03*
X00325Y00892D03*
X00395Y00852D03*
X00325Y00812D03*
X00395Y00772D03*
X00325Y00732D03*
X00395Y00692D03*
G54D21*
X00225Y01082D03*
Y00582D03*
G54D22*
X00222Y00222D03*
X01443Y00222D03*
X01443Y01443D03*
X00222Y01443D03*
G54D23*
X01165Y01524D03*
G54D24*
X01066Y01524D03*
G54D25*
X01377Y00787D03*
X01181Y00393D03*
X00787Y01181D03*
Y00393D03*
X00393D03*
G54D26*
X00255Y00922D03*
X00231Y00941D03*
X00219Y00732D03*
X00666Y00807D03*
X00508Y00849D03*
X00994Y00883D03*
X01201Y00837D03*
X01201Y00862D03*
X012Y00889D03*
X01087Y00944D03*
X01055Y00943D03*
X01026Y00942D03*
M02*