%FSTAX23Y23*%
%MOIN*%
%SFA1B1*%

%IPPOS*%
%AMD40*
4,1,8,-0.015500,-0.027200,0.015500,-0.027200,0.020700,-0.022000,0.020700,0.022000,0.015500,0.027200,-0.015500,0.027200,-0.020700,0.022000,-0.020700,-0.022000,-0.015500,-0.027200,0.0*
1,1,0.010339,-0.015500,-0.022000*
1,1,0.010339,0.015500,-0.022000*
1,1,0.010339,0.015500,0.022000*
1,1,0.010339,-0.015500,0.022000*
%
%AMD41*
4,1,8,0.011600,-0.018000,0.011600,0.018000,0.005800,0.023800,-0.005800,0.023800,-0.011600,0.018000,-0.011600,-0.018000,-0.005800,-0.023800,0.005800,-0.023800,0.011600,-0.018000,0.0*
1,1,0.011614,0.005800,-0.018000*
1,1,0.011614,0.005800,0.018000*
1,1,0.011614,-0.005800,0.018000*
1,1,0.011614,-0.005800,-0.018000*
%
%ADD13R,0.012000X0.022000*%
%ADD29C,0.095669*%
%ADD30R,0.057008X0.057008*%
%ADD31C,0.057008*%
%ADD32C,0.129921*%
%ADD33C,0.039370*%
%ADD34C,0.062008*%
%ADD35R,0.062008X0.062008*%
%ADD36C,0.050000*%
%ADD37C,0.017716*%
%ADD38R,0.057563X0.053331*%
%ADD39R,0.049212X0.023622*%
G04~CAMADD=40~8~0.0~0.0~413.4~543.3~51.7~0.0~15~0.0~0.0~0.0~0.0~0~0.0~0.0~0.0~0.0~0~0.0~0.0~0.0~180.0~414.0~544.0*
%ADD40D40*%
G04~CAMADD=41~8~0.0~0.0~476.4~232.3~58.1~0.0~15~0.0~0.0~0.0~0.0~0~0.0~0.0~0.0~0.0~0~0.0~0.0~0.0~270.0~232.0~476.0*
%ADD41D41*%
%ADD42C,0.019685*%
%LNnema17-1*%
%LPD*%
G36*
X00192Y01662D02*
X01472D01*
Y01661*
X01661Y01472*
X01664Y00192*
X01663Y0019*
X01475Y00002*
X00191*
X00002Y00191*
Y01474*
X00003*
X00191Y01662*
X00192Y01662*
G37*
%LNnema17-2*%
%LPC*%
G36*
X00229Y0151D02*
X00216D01*
X00203Y01507*
X0019Y01502*
X0018Y01495*
X0017Y01486*
X00163Y01475*
X00158Y01462*
X00155Y01449*
Y01436*
X00158Y01423*
X00163Y01411*
X0017Y014*
X0018Y01391*
X0019Y01384*
X00203Y01378*
X00216Y01376*
X00229*
X00242Y01378*
X00254Y01384*
X00265Y01391*
X00274Y014*
X00281Y01411*
X00287Y01423*
X00289Y01436*
Y01449*
X00287Y01462*
X00281Y01475*
X00274Y01486*
X00265Y01495*
X00254Y01502*
X00242Y01507*
X00229Y0151*
G37*
G36*
X01449Y0151D02*
X01436D01*
X01423Y01507*
X01411Y01502*
X014Y01495*
X01391Y01485*
X01383Y01474*
X01378Y01462*
X01376Y01449*
Y01436*
X01378Y01423*
X01383Y01411*
X01391Y014*
X014Y01391*
X01411Y01383*
X01423Y01378*
X01436Y01376*
X01449*
X01462Y01378*
X01474Y01383*
X01485Y01391*
X01495Y014*
X01502Y01411*
X01507Y01423*
X0151Y01436*
Y01449*
X01507Y01462*
X01502Y01474*
X01495Y01485*
X01485Y01495*
X01474Y01502*
X01462Y01507*
X01449Y0151*
G37*
G36*
X01254Y01646D02*
X01062D01*
X01058Y01644*
X01022Y01608*
X0102Y01604*
X01021Y01603*
Y01565*
Y01496*
X01023Y01491*
X01034Y01479*
Y01277*
Y012*
X01036Y01196*
X01041Y01194*
X01084*
X01089Y01196*
X01091Y012*
Y01271*
X01104*
X01108Y01273*
X0111Y01277*
Y01563*
Y01568*
X0113Y01588*
X01219*
X0127Y01536*
Y01267*
X01136*
X01131Y01265*
X01128Y01261*
X01126Y01257*
Y01201*
X01128Y01197*
X01132Y01195*
X01321*
X01326Y01197*
X01343Y01214*
X01344Y01218*
Y01556*
X01343Y0156*
X01259Y01644*
X01254Y01646*
G37*
G36*
X00949Y01236D02*
X00879D01*
Y01171*
X00898*
Y01143*
X00884*
Y01107*
X00945*
Y01143*
X0093*
Y01171*
X00949*
Y01236*
G37*
G36*
X01153Y0116D02*
X01141D01*
X01136Y01159*
X01132Y01156*
X0113Y01153*
X01129Y01148*
Y01112*
X0113Y01107*
X01132Y01104*
X01136Y01101*
X01141Y011*
X01153*
X01157Y01101*
X01161Y01104*
X01164Y01107*
X01164Y01112*
Y01148*
X01164Y01153*
X01161Y01156*
X01157Y01159*
X01153Y0116*
G37*
G36*
X00232Y01153D02*
X00218D01*
X00205Y0115*
X00192Y01145*
X0018Y01137*
X0017Y01127*
X00162Y01116*
X00157Y01103*
X00154Y01089*
Y01075*
X00157Y01062*
X00162Y01049*
X0017Y01037*
X0018Y01027*
X00192Y01019*
X00205Y01014*
X00218Y01011*
X00232*
X00246Y01014*
X00259Y01019*
X0027Y01027*
X0028Y01037*
X00288Y01049*
X00293Y01062*
X00296Y01075*
Y01089*
X00293Y01103*
X00288Y01116*
X0028Y01127*
X0027Y01137*
X00259Y01145*
X00246Y0115*
X00232Y01153*
G37*
G36*
X0036Y01007D02*
X00291D01*
Y00938*
X0036*
Y01007*
G37*
G36*
X01089Y01179D02*
X01013D01*
X01009Y01177*
X01007Y01173*
Y0108*
X00871*
X00866Y01078*
X00864Y01074*
Y01025*
X00866Y01021*
X00871Y01019*
X01007*
Y00927*
X01009Y00922*
X01013Y0092*
X011*
X01105Y00922*
X01107Y00927*
Y0109*
X01105Y01094*
X01096Y01103*
Y01173*
X01094Y01177*
X01089Y01179*
G37*
G36*
X0033Y00927D02*
X00321D01*
X00312Y00924*
X00304Y0092*
X00298Y00913*
X00293Y00905*
X00291Y00897*
Y00888*
X00293Y00879*
X00298Y00871*
X00304Y00865*
X00312Y0086*
X00321Y00858*
X0033*
X00339Y0086*
X00346Y00865*
X00353Y00871*
X00357Y00879*
X0036Y00888*
Y00897*
X00357Y00905*
X00353Y00913*
X00346Y0092*
X00339Y00924*
X0033Y00927*
G37*
G36*
X004Y00887D02*
X00391D01*
X00382Y00884*
X00374Y0088*
X00368Y00873*
X00363Y00865*
X00361Y00857*
Y00848*
X00363Y00839*
X00368Y00831*
X00374Y00825*
X00382Y0082*
X00391Y00818*
X004*
X00409Y0082*
X00416Y00825*
X00423Y00831*
X00427Y00839*
X0043Y00848*
Y00857*
X00427Y00865*
X00423Y00873*
X00416Y0088*
X00409Y00884*
X004Y00887*
G37*
G36*
X0033Y00767D02*
X00321D01*
X00312Y00764*
X00304Y0076*
X00298Y00753*
X00293Y00745*
X00291Y00737*
Y00728*
X00293Y00719*
X00298Y00711*
X00304Y00705*
X00312Y007*
X00321Y00698*
X0033*
X00339Y007*
X00346Y00705*
X00353Y00711*
X00357Y00719*
X0036Y00728*
Y00737*
X00357Y00745*
X00353Y00753*
X00346Y0076*
X00339Y00764*
X0033Y00767*
G37*
G36*
X00232Y00653D02*
X00218D01*
X00205Y0065*
X00192Y00645*
X0018Y00637*
X0017Y00627*
X00162Y00616*
X00157Y00603*
X00154Y00589*
Y00575*
X00157Y00562*
X00162Y00549*
X0017Y00537*
X0018Y00527*
X00192Y00519*
X00205Y00514*
X00218Y00511*
X00232*
X00246Y00514*
X00259Y00519*
X0027Y00527*
X0028Y00537*
X00288Y00549*
X00293Y00562*
X00296Y00575*
Y00589*
X00293Y00603*
X00288Y00616*
X0028Y00627*
X0027Y00637*
X00259Y00645*
X00246Y0065*
X00232Y00653*
G37*
G36*
X01449Y00289D02*
X01436D01*
X01423Y00287*
X01411Y00282*
X014Y00274*
X01391Y00265*
X01383Y00254*
X01378Y00242*
X01376Y00229*
Y00216*
X01378Y00203*
X01383Y00191*
X01391Y0018*
X014Y0017*
X01411Y00163*
X01423Y00158*
X01436Y00155*
X01449*
X01462Y00158*
X01474Y00163*
X01485Y0017*
X01495Y0018*
X01502Y00191*
X01507Y00203*
X0151Y00216*
Y00229*
X01507Y00242*
X01502Y00254*
X01495Y00265*
X01485Y00274*
X01474Y00282*
X01462Y00287*
X01449Y00289*
G37*
G36*
X00229Y00289D02*
X00215D01*
X00203Y00287*
X0019Y00282*
X00179Y00274*
X0017Y00265*
X00163Y00254*
X00158Y00242*
X00155Y00229*
Y00216*
X00158Y00203*
X00163Y00191*
X0017Y0018*
X00179Y0017*
X0019Y00163*
X00203Y00158*
X00215Y00155*
X00229*
X00242Y00158*
X00254Y00163*
X00265Y0017*
X00274Y0018*
X00281Y00191*
X00286Y00203*
X00289Y00216*
Y00229*
X00286Y00242*
X00281Y00254*
X00274Y00265*
X00265Y00274*
X00254Y00282*
X00242Y00287*
X00229Y00289*
G37*
%LNnema17-3*%
%LPD*%
G36*
X01338Y01556D02*
Y01218D01*
X01321Y01201*
X01132*
Y01257*
X01136Y0126*
X01277*
Y01539*
X01222Y01594*
X01127*
X01104Y01571*
Y01553*
Y01277*
X01084*
Y012*
X01041*
Y01277*
Y01482*
X01027Y01496*
Y01561*
Y01565*
Y01603*
X01027Y01604*
X01062Y0164*
X01254*
X01338Y01556*
G37*
G36*
X01089Y01101D02*
X011Y0109D01*
Y00927*
X01013*
Y01025*
X00871*
Y01074*
X01013*
Y01173*
X01089*
Y01101*
G37*
G54D13*
X01097Y01389D03*
X01122D03*
G54D29*
X0036Y01152D03*
Y00512D03*
G54D30*
X00325Y00972D03*
G54D31*
X00395Y00932D03*
X00325Y00892D03*
X00395Y00852D03*
X00325Y00812D03*
X00395Y00772D03*
X00325Y00732D03*
X00395Y00692D03*
G54D32*
X00225Y01082D03*
Y00582D03*
G54D33*
X00222Y00222D03*
X01443Y00222D03*
X01443Y01443D03*
X00222Y01443D03*
G54D34*
X01165Y01524D03*
G54D35*
X01066Y01524D03*
G54D36*
X01377Y00787D03*
X01181Y00393D03*
X00787Y01181D03*
Y00393D03*
X00393D03*
G54D37*
X00255Y00922D03*
X00231Y00941D03*
X00219Y00732D03*
X00666Y00807D03*
X00508Y00849D03*
X00994Y00883D03*
X01201Y00837D03*
X01201Y00862D03*
X012Y00889D03*
X01087Y00944D03*
X01055Y00943D03*
X01026Y00942D03*
G54D38*
X00914Y01203D03*
Y0128D03*
G54D39*
X00914Y01125D03*
Y01054D03*
G54D40*
X01144Y0105D03*
X01074D03*
X01074Y01322D03*
X01144D03*
G54D41*
X01072Y01229D03*
X01109D03*
X01147D03*
Y0113D03*
X01072D03*
G54D42*
X00914Y01125D02*
Y01203D01*
M02*