%FSTAX23Y23*%
%MOIN*%
%SFA1B1*%

%IPPOS*%
%ADD10C,0.005000*%
%ADD50C,0.006665*%
%LNnema17-1*%
%LPD*%
G54D10*
X0034Y01132D02*
Y01172D01*
X0038*
Y01132*
X0034*
Y00492D02*
Y00532D01*
X0038*
Y00492*
X0034*
X00225Y01062D02*
X00205Y01102D01*
X00245*
X00225Y01062*
Y00562D02*
X00205Y00602D01*
X00245*
X00225Y00562*
X00212Y00212D02*
Y00202D01*
X00232*
Y00212*
X00242*
Y00232*
X00232*
Y00242*
X00212*
Y00232*
X00202*
Y00212*
X00212*
X01433Y00212D02*
Y00202D01*
X01453*
Y00212*
X01463*
Y00232*
X01453*
Y00242*
X01433*
Y00232*
X01423*
Y00212*
X01433*
X01433Y01433D02*
Y01423D01*
X01453*
Y01433*
X01463*
Y01453*
X01453*
Y01463*
X01433*
Y01453*
X01423*
Y01433*
X01433*
X00212Y01433D02*
Y01423D01*
X00232*
Y01433*
X00242*
Y01453*
X00232*
Y01463*
X00212*
Y01453*
X00202*
Y01433*
X00212*
X01165Y01504D02*
X01175Y01514D01*
X01185*
X01175Y01524*
X01185Y01534*
X01175*
X01165Y01544*
X01155Y01534*
X01145*
X01155Y01524*
X01145Y01514*
X01155*
X01165Y01504*
X01066D02*
X01076Y01514D01*
X01086*
X01076Y01524*
X01086Y01534*
X01076*
X01066Y01544*
X01056Y01534*
X01046*
X01056Y01524*
X01046Y01514*
X01056*
X01066Y01504*
X01357Y00767D02*
X01367D01*
X01377Y00777*
X01387Y00767*
X01397*
Y00777*
X01387Y00787*
X01397Y00797*
Y00807*
X01387*
X01377Y00797*
X01367Y00807*
X01357*
Y00797*
X01367Y00787*
X01357Y00777*
Y00767*
X01161Y00373D02*
X01171D01*
X01181Y00383*
X01191Y00373*
X01201*
Y00383*
X01191Y00393*
X01201Y00403*
Y00413*
X01191*
X01181Y00403*
X01171Y00413*
X01161*
Y00403*
X01171Y00393*
X01161Y00383*
Y00373*
X00767Y01161D02*
X00777D01*
X00787Y01171*
X00797Y01161*
X00807*
Y01171*
X00797Y01181*
X00807Y01191*
Y01201*
X00797*
X00787Y01191*
X00777Y01201*
X00767*
Y01191*
X00777Y01181*
X00767Y01171*
Y01161*
Y00373D02*
X00777D01*
X00787Y00383*
X00797Y00373*
X00807*
Y00383*
X00797Y00393*
X00807Y00403*
Y00413*
X00797*
X00787Y00403*
X00777Y00413*
X00767*
Y00403*
X00777Y00393*
X00767Y00383*
Y00373*
X00373D02*
X00383D01*
X00393Y00383*
X00403Y00373*
X00413*
Y00383*
X00403Y00393*
X00413Y00403*
Y00413*
X00403*
X00393Y00403*
X00383Y00413*
X00373*
Y00403*
X00383Y00393*
X00373Y00383*
Y00373*
X00235Y00902D02*
X00245Y00922D01*
X00235Y00942*
X00255Y00932*
X00275Y00942*
X00265Y00922*
X00275Y00902*
X00255Y00912*
X00235Y00902*
X00211Y00921D02*
X00221Y00941D01*
X00211Y00961*
X00231Y00951*
X00251Y00961*
X00241Y00941*
X00251Y00921*
X00231Y00931*
X00211Y00921*
X00199Y00712D02*
X00209Y00732D01*
X00199Y00752*
X00219Y00742*
X00239Y00752*
X00229Y00732*
X00239Y00712*
X00219Y00722*
X00199Y00712*
X00646Y00787D02*
X00656Y00807D01*
X00646Y00827*
X00666Y00817*
X00686Y00827*
X00676Y00807*
X00686Y00787*
X00666Y00797*
X00646Y00787*
X00488Y00829D02*
X00498Y00849D01*
X00488Y00869*
X00508Y00859*
X00528Y00869*
X00518Y00849*
X00528Y00829*
X00508Y00839*
X00488Y00829*
X00974Y00863D02*
X00984Y00883D01*
X00974Y00903*
X00994Y00893*
X01014Y00903*
X01004Y00883*
X01014Y00863*
X00994Y00873*
X00974Y00863*
X01181Y00817D02*
X01191Y00837D01*
X01181Y00857*
X01201Y00847*
X01221Y00857*
X01211Y00837*
X01221Y00817*
X01201Y00827*
X01181Y00817*
X01181Y00842D02*
X01191Y00862D01*
X01181Y00882*
X01201Y00872*
X01221Y00882*
X01211Y00862*
X01221Y00842*
X01201Y00852*
X01181Y00842*
X0118Y00869D02*
X0119Y00889D01*
X0118Y00909*
X012Y00899*
X0122Y00909*
X0121Y00889*
X0122Y00869*
X012Y00879*
X0118Y00869*
X01067Y00924D02*
X01077Y00944D01*
X01067Y00964*
X01087Y00954*
X01107Y00964*
X01097Y00944*
X01107Y00924*
X01087Y00934*
X01067Y00924*
X01035Y00923D02*
X01045Y00943D01*
X01035Y00963*
X01055Y00953*
X01075Y00963*
X01065Y00943*
X01075Y00923*
X01055Y00933*
X01035Y00923*
X01006Y00922D02*
X01016Y00942D01*
X01006Y00962*
X01026Y00952*
X01046Y00962*
X01036Y00942*
X01046Y00922*
X01026Y00932*
X01006Y00922*
G54D50*
X00345Y00972D02*
D01*
X00345Y00974*
X00345Y00975*
X00345Y00976*
X00345Y00978*
X00344Y00979*
X00344Y0098*
X00343Y00982*
X00342Y00983*
X00341Y00984*
X00341Y00985*
X0034Y00986*
X00339Y00987*
X00338Y00988*
X00336Y00989*
X00335Y00989*
X00334Y0099*
X00333Y00991*
X00331Y00991*
X0033Y00992*
X00329Y00992*
X00327Y00992*
X00326Y00992*
X00325*
X00323Y00992*
X00322Y00992*
X0032Y00992*
X00319Y00991*
X00318Y00991*
X00317Y0099*
X00315Y00989*
X00314Y00989*
X00313Y00988*
X00312Y00987*
X00311Y00986*
X0031Y00985*
X00309Y00984*
X00308Y00983*
X00308Y00982*
X00307Y0098*
X00306Y00979*
X00306Y00978*
X00306Y00976*
X00305Y00975*
X00305Y00974*
X00305Y00972*
X00305Y00971*
X00305Y00969*
X00306Y00968*
X00306Y00967*
X00306Y00965*
X00307Y00964*
X00308Y00963*
X00308Y00962*
X00309Y0096*
X0031Y00959*
X00311Y00958*
X00312Y00957*
X00313Y00956*
X00314Y00956*
X00315Y00955*
X00317Y00954*
X00318Y00954*
X00319Y00953*
X0032Y00953*
X00322Y00952*
X00323Y00952*
X00325Y00952*
X00326*
X00327Y00952*
X00329Y00952*
X0033Y00953*
X00331Y00953*
X00333Y00954*
X00334Y00954*
X00335Y00955*
X00336Y00956*
X00338Y00956*
X00339Y00957*
X0034Y00958*
X00341Y00959*
X00341Y0096*
X00342Y00962*
X00343Y00963*
X00344Y00964*
X00344Y00965*
X00345Y00967*
X00345Y00968*
X00345Y00969*
X00345Y00971*
X00345Y00972*
X00415Y00932D02*
D01*
X00415Y00934*
X00415Y00935*
X00415Y00936*
X00415Y00938*
X00414Y00939*
X00414Y0094*
X00413Y00942*
X00412Y00943*
X00412Y00944*
X00411Y00945*
X0041Y00946*
X00409Y00947*
X00408Y00948*
X00407Y00949*
X00405Y00949*
X00404Y0095*
X00403Y00951*
X00402Y00951*
X004Y00952*
X00399Y00952*
X00397Y00952*
X00396Y00952*
X00395*
X00393Y00952*
X00392Y00952*
X00391Y00952*
X00389Y00951*
X00388Y00951*
X00387Y0095*
X00385Y00949*
X00384Y00949*
X00383Y00948*
X00382Y00947*
X00381Y00946*
X0038Y00945*
X00379Y00944*
X00378Y00943*
X00378Y00942*
X00377Y0094*
X00377Y00939*
X00376Y00938*
X00376Y00936*
X00376Y00935*
X00375Y00934*
X00375Y00932*
X00375Y00931*
X00376Y00929*
X00376Y00928*
X00376Y00927*
X00377Y00925*
X00377Y00924*
X00378Y00923*
X00378Y00922*
X00379Y0092*
X0038Y00919*
X00381Y00918*
X00382Y00917*
X00383Y00916*
X00384Y00916*
X00385Y00915*
X00387Y00914*
X00388Y00914*
X00389Y00913*
X00391Y00913*
X00392Y00912*
X00393Y00912*
X00395Y00912*
X00396*
X00397Y00912*
X00399Y00912*
X004Y00913*
X00402Y00913*
X00403Y00914*
X00404Y00914*
X00405Y00915*
X00407Y00916*
X00408Y00916*
X00409Y00917*
X0041Y00918*
X00411Y00919*
X00412Y0092*
X00412Y00922*
X00413Y00923*
X00414Y00924*
X00414Y00925*
X00415Y00927*
X00415Y00928*
X00415Y00929*
X00415Y00931*
X00415Y00932*
X00345Y00892D02*
D01*
X00345Y00894*
X00345Y00895*
X00345Y00896*
X00345Y00898*
X00344Y00899*
X00344Y009*
X00343Y00902*
X00342Y00903*
X00341Y00904*
X00341Y00905*
X0034Y00906*
X00339Y00907*
X00338Y00908*
X00336Y00909*
X00335Y00909*
X00334Y0091*
X00333Y00911*
X00331Y00911*
X0033Y00912*
X00329Y00912*
X00327Y00912*
X00326Y00912*
X00325*
X00323Y00912*
X00322Y00912*
X0032Y00912*
X00319Y00911*
X00318Y00911*
X00317Y0091*
X00315Y00909*
X00314Y00909*
X00313Y00908*
X00312Y00907*
X00311Y00906*
X0031Y00905*
X00309Y00904*
X00308Y00903*
X00308Y00902*
X00307Y009*
X00306Y00899*
X00306Y00898*
X00306Y00896*
X00305Y00895*
X00305Y00894*
X00305Y00892*
X00305Y00891*
X00305Y00889*
X00306Y00888*
X00306Y00887*
X00306Y00885*
X00307Y00884*
X00308Y00883*
X00308Y00882*
X00309Y0088*
X0031Y00879*
X00311Y00878*
X00312Y00877*
X00313Y00876*
X00314Y00876*
X00315Y00875*
X00317Y00874*
X00318Y00874*
X00319Y00873*
X0032Y00873*
X00322Y00872*
X00323Y00872*
X00325Y00872*
X00326*
X00327Y00872*
X00329Y00872*
X0033Y00873*
X00331Y00873*
X00333Y00874*
X00334Y00874*
X00335Y00875*
X00336Y00876*
X00338Y00876*
X00339Y00877*
X0034Y00878*
X00341Y00879*
X00341Y0088*
X00342Y00882*
X00343Y00883*
X00344Y00884*
X00344Y00885*
X00345Y00887*
X00345Y00888*
X00345Y00889*
X00345Y00891*
X00345Y00892*
X00415Y00852D02*
D01*
X00415Y00854*
X00415Y00855*
X00415Y00856*
X00415Y00858*
X00414Y00859*
X00414Y0086*
X00413Y00862*
X00412Y00863*
X00412Y00864*
X00411Y00865*
X0041Y00866*
X00409Y00867*
X00408Y00868*
X00407Y00869*
X00405Y00869*
X00404Y0087*
X00403Y00871*
X00402Y00871*
X004Y00872*
X00399Y00872*
X00397Y00872*
X00396Y00872*
X00395*
X00393Y00872*
X00392Y00872*
X00391Y00872*
X00389Y00871*
X00388Y00871*
X00387Y0087*
X00385Y00869*
X00384Y00869*
X00383Y00868*
X00382Y00867*
X00381Y00866*
X0038Y00865*
X00379Y00864*
X00378Y00863*
X00378Y00862*
X00377Y0086*
X00377Y00859*
X00376Y00858*
X00376Y00856*
X00376Y00855*
X00375Y00854*
X00375Y00852*
X00375Y00851*
X00376Y00849*
X00376Y00848*
X00376Y00847*
X00377Y00845*
X00377Y00844*
X00378Y00843*
X00378Y00842*
X00379Y0084*
X0038Y00839*
X00381Y00838*
X00382Y00837*
X00383Y00836*
X00384Y00836*
X00385Y00835*
X00387Y00834*
X00388Y00834*
X00389Y00833*
X00391Y00833*
X00392Y00832*
X00393Y00832*
X00395Y00832*
X00396*
X00397Y00832*
X00399Y00832*
X004Y00833*
X00402Y00833*
X00403Y00834*
X00404Y00834*
X00405Y00835*
X00407Y00836*
X00408Y00836*
X00409Y00837*
X0041Y00838*
X00411Y00839*
X00412Y0084*
X00412Y00842*
X00413Y00843*
X00414Y00844*
X00414Y00845*
X00415Y00847*
X00415Y00848*
X00415Y00849*
X00415Y00851*
X00415Y00852*
X00345Y00812D02*
D01*
X00345Y00814*
X00345Y00815*
X00345Y00816*
X00345Y00818*
X00344Y00819*
X00344Y0082*
X00343Y00822*
X00342Y00823*
X00341Y00824*
X00341Y00825*
X0034Y00826*
X00339Y00827*
X00338Y00828*
X00336Y00829*
X00335Y00829*
X00334Y0083*
X00333Y00831*
X00331Y00831*
X0033Y00832*
X00329Y00832*
X00327Y00832*
X00326Y00832*
X00325*
X00323Y00832*
X00322Y00832*
X0032Y00832*
X00319Y00831*
X00318Y00831*
X00317Y0083*
X00315Y00829*
X00314Y00829*
X00313Y00828*
X00312Y00827*
X00311Y00826*
X0031Y00825*
X00309Y00824*
X00308Y00823*
X00308Y00822*
X00307Y0082*
X00306Y00819*
X00306Y00818*
X00306Y00816*
X00305Y00815*
X00305Y00814*
X00305Y00812*
X00305Y00811*
X00305Y00809*
X00306Y00808*
X00306Y00807*
X00306Y00805*
X00307Y00804*
X00308Y00803*
X00308Y00802*
X00309Y008*
X0031Y00799*
X00311Y00798*
X00312Y00797*
X00313Y00796*
X00314Y00796*
X00315Y00795*
X00317Y00794*
X00318Y00794*
X00319Y00793*
X0032Y00793*
X00322Y00792*
X00323Y00792*
X00325Y00792*
X00326*
X00327Y00792*
X00329Y00792*
X0033Y00793*
X00331Y00793*
X00333Y00794*
X00334Y00794*
X00335Y00795*
X00336Y00796*
X00338Y00796*
X00339Y00797*
X0034Y00798*
X00341Y00799*
X00341Y008*
X00342Y00802*
X00343Y00803*
X00344Y00804*
X00344Y00805*
X00345Y00807*
X00345Y00808*
X00345Y00809*
X00345Y00811*
X00345Y00812*
X00415Y00772D02*
D01*
X00415Y00774*
X00415Y00775*
X00415Y00776*
X00415Y00778*
X00414Y00779*
X00414Y0078*
X00413Y00782*
X00412Y00783*
X00412Y00784*
X00411Y00785*
X0041Y00786*
X00409Y00787*
X00408Y00788*
X00407Y00789*
X00405Y00789*
X00404Y0079*
X00403Y00791*
X00402Y00791*
X004Y00792*
X00399Y00792*
X00397Y00792*
X00396Y00792*
X00395*
X00393Y00792*
X00392Y00792*
X00391Y00792*
X00389Y00791*
X00388Y00791*
X00387Y0079*
X00385Y00789*
X00384Y00789*
X00383Y00788*
X00382Y00787*
X00381Y00786*
X0038Y00785*
X00379Y00784*
X00378Y00783*
X00378Y00782*
X00377Y0078*
X00377Y00779*
X00376Y00778*
X00376Y00776*
X00376Y00775*
X00375Y00774*
X00375Y00772*
X00375Y00771*
X00376Y00769*
X00376Y00768*
X00376Y00767*
X00377Y00765*
X00377Y00764*
X00378Y00763*
X00378Y00762*
X00379Y0076*
X0038Y00759*
X00381Y00758*
X00382Y00757*
X00383Y00756*
X00384Y00756*
X00385Y00755*
X00387Y00754*
X00388Y00754*
X00389Y00753*
X00391Y00753*
X00392Y00752*
X00393Y00752*
X00395Y00752*
X00396*
X00397Y00752*
X00399Y00752*
X004Y00753*
X00402Y00753*
X00403Y00754*
X00404Y00754*
X00405Y00755*
X00407Y00756*
X00408Y00756*
X00409Y00757*
X0041Y00758*
X00411Y00759*
X00412Y0076*
X00412Y00762*
X00413Y00763*
X00414Y00764*
X00414Y00765*
X00415Y00767*
X00415Y00768*
X00415Y00769*
X00415Y00771*
X00415Y00772*
X00345Y00732D02*
D01*
X00345Y00734*
X00345Y00735*
X00345Y00736*
X00345Y00738*
X00344Y00739*
X00344Y0074*
X00343Y00742*
X00342Y00743*
X00341Y00744*
X00341Y00745*
X0034Y00746*
X00339Y00747*
X00338Y00748*
X00336Y00749*
X00335Y00749*
X00334Y0075*
X00333Y00751*
X00331Y00751*
X0033Y00752*
X00329Y00752*
X00327Y00752*
X00326Y00752*
X00325*
X00323Y00752*
X00322Y00752*
X0032Y00752*
X00319Y00751*
X00318Y00751*
X00317Y0075*
X00315Y00749*
X00314Y00749*
X00313Y00748*
X00312Y00747*
X00311Y00746*
X0031Y00745*
X00309Y00744*
X00308Y00743*
X00308Y00742*
X00307Y0074*
X00306Y00739*
X00306Y00738*
X00306Y00736*
X00305Y00735*
X00305Y00734*
X00305Y00732*
X00305Y00731*
X00305Y00729*
X00306Y00728*
X00306Y00727*
X00306Y00725*
X00307Y00724*
X00308Y00723*
X00308Y00722*
X00309Y0072*
X0031Y00719*
X00311Y00718*
X00312Y00717*
X00313Y00716*
X00314Y00716*
X00315Y00715*
X00317Y00714*
X00318Y00714*
X00319Y00713*
X0032Y00713*
X00322Y00712*
X00323Y00712*
X00325Y00712*
X00326*
X00327Y00712*
X00329Y00712*
X0033Y00713*
X00331Y00713*
X00333Y00714*
X00334Y00714*
X00335Y00715*
X00336Y00716*
X00338Y00716*
X00339Y00717*
X0034Y00718*
X00341Y00719*
X00341Y0072*
X00342Y00722*
X00343Y00723*
X00344Y00724*
X00344Y00725*
X00345Y00727*
X00345Y00728*
X00345Y00729*
X00345Y00731*
X00345Y00732*
X00415Y00692D02*
D01*
X00415Y00694*
X00415Y00695*
X00415Y00696*
X00415Y00698*
X00414Y00699*
X00414Y007*
X00413Y00702*
X00412Y00703*
X00412Y00704*
X00411Y00705*
X0041Y00706*
X00409Y00707*
X00408Y00708*
X00407Y00709*
X00405Y00709*
X00404Y0071*
X00403Y00711*
X00402Y00711*
X004Y00712*
X00399Y00712*
X00397Y00712*
X00396Y00712*
X00395*
X00393Y00712*
X00392Y00712*
X00391Y00712*
X00389Y00711*
X00388Y00711*
X00387Y0071*
X00385Y00709*
X00384Y00709*
X00383Y00708*
X00382Y00707*
X00381Y00706*
X0038Y00705*
X00379Y00704*
X00378Y00703*
X00378Y00702*
X00377Y007*
X00377Y00699*
X00376Y00698*
X00376Y00696*
X00376Y00695*
X00375Y00694*
X00375Y00692*
X00375Y00691*
X00376Y00689*
X00376Y00688*
X00376Y00687*
X00377Y00685*
X00377Y00684*
X00378Y00683*
X00378Y00682*
X00379Y0068*
X0038Y00679*
X00381Y00678*
X00382Y00677*
X00383Y00676*
X00384Y00676*
X00385Y00675*
X00387Y00674*
X00388Y00674*
X00389Y00673*
X00391Y00673*
X00392Y00672*
X00393Y00672*
X00395Y00672*
X00396*
X00397Y00672*
X00399Y00672*
X004Y00673*
X00402Y00673*
X00403Y00674*
X00404Y00674*
X00405Y00675*
X00407Y00676*
X00408Y00676*
X00409Y00677*
X0041Y00678*
X00411Y00679*
X00412Y0068*
X00412Y00682*
X00413Y00683*
X00414Y00684*
X00414Y00685*
X00415Y00687*
X00415Y00688*
X00415Y00689*
X00415Y00691*
X00415Y00692*
M02*