%FSTAX23Y23*%
%MOIN*%
%SFA1B1*%

%IPPOS*%
%ADD10C,0.005000*%
%ADD27C,0.007874*%
%ADD46C,0.001000*%
%LNnema17-1*%
%LPD*%
G54D10*
X0063Y00507D02*
Y01157D01*
X0001D02*
X0063D01*
X0001Y00507D02*
Y01157D01*
Y00507D02*
X0063D01*
X01052Y01211D02*
X01166D01*
X01052Y01148D02*
X01166D01*
X01052D02*
Y01211D01*
X01166Y01148D02*
Y01211D01*
G54D27*
X01072Y01274D02*
D01*
X01072Y01275*
X01072Y01275*
X01072Y01275*
X01072Y01275*
X01072Y01276*
X01072Y01276*
X01071Y01276*
X01071Y01276*
X01071Y01277*
X01071Y01277*
X01071Y01277*
X01071Y01277*
X0107Y01277*
X0107Y01278*
X0107Y01278*
X0107Y01278*
X01069Y01278*
X01069Y01278*
X01069Y01278*
X01069Y01278*
X01068Y01278*
X01068Y01278*
X01068*
X01068Y01278*
X01067Y01278*
X01067Y01278*
X01067Y01278*
X01067Y01278*
X01066Y01278*
X01066Y01278*
X01066Y01278*
X01066Y01277*
X01065Y01277*
X01065Y01277*
X01065Y01277*
X01065Y01277*
X01065Y01276*
X01065Y01276*
X01064Y01276*
X01064Y01276*
X01064Y01275*
X01064Y01275*
X01064Y01275*
X01064Y01275*
X01064Y01274*
X01064Y01274*
X01064Y01274*
X01064Y01273*
X01064Y01273*
X01064Y01273*
X01064Y01273*
X01065Y01272*
X01065Y01272*
X01065Y01272*
X01065Y01272*
X01065Y01272*
X01065Y01271*
X01066Y01271*
X01066Y01271*
X01066Y01271*
X01066Y01271*
X01067Y01271*
X01067Y01271*
X01067Y0127*
X01067Y0127*
X01068Y0127*
X01068Y0127*
X01068*
X01068Y0127*
X01069Y0127*
X01069Y0127*
X01069Y01271*
X01069Y01271*
X0107Y01271*
X0107Y01271*
X0107Y01271*
X0107Y01271*
X01071Y01271*
X01071Y01272*
X01071Y01272*
X01071Y01272*
X01071Y01272*
X01071Y01272*
X01072Y01273*
X01072Y01273*
X01072Y01273*
X01072Y01273*
X01072Y01274*
X01072Y01274*
X01072Y01274*
X00939Y01202D02*
Y01281D01*
X00889D02*
X00939D01*
X00889Y01202D02*
Y01281D01*
Y01202D02*
X00939D01*
X00885Y01045D02*
X00944D01*
X00885D02*
Y01134D01*
X00944*
Y01045D02*
Y01134D01*
G54D46*
X01089Y01402D02*
X0113D01*
Y01376D02*
Y01402D01*
X01089Y01376D02*
X0113D01*
X01089D02*
Y01402D01*
M02*