%FSTAX23Y23*%
%MOIN*%
%SFA1B1*%

%IPPOS*%
%AMD43*
4,1,8,-0.015500,-0.031200,0.015500,-0.031200,0.024700,-0.022000,0.024700,0.022000,0.015500,0.031200,-0.015500,0.031200,-0.024700,0.022000,-0.024700,-0.022000,-0.015500,-0.031200,0.0*
1,1,0.018339,-0.015500,-0.022000*
1,1,0.018339,0.015500,-0.022000*
1,1,0.018339,0.015500,0.022000*
1,1,0.018339,-0.015500,0.022000*
%
%AMD44*
4,1,8,0.015600,-0.018000,0.015600,0.018000,0.005800,0.027800,-0.005800,0.027800,-0.015600,0.018000,-0.015600,-0.018000,-0.005800,-0.027800,0.005800,-0.027800,0.015600,-0.018000,0.0*
1,1,0.019614,0.005800,-0.018000*
1,1,0.019614,0.005800,0.018000*
1,1,0.019614,-0.005800,0.018000*
1,1,0.019614,-0.005800,-0.018000*
%
%ADD16R,0.010000X0.020000*%
%ADD18C,0.103669*%
%ADD19R,0.065008X0.065008*%
%ADD20C,0.065008*%
%ADD21C,0.137921*%
%ADD22C,0.047370*%
%ADD23C,0.070008*%
%ADD24R,0.070008X0.070008*%
%ADD25C,0.058000*%
%ADD26C,0.021654*%
%ADD38R,0.057563X0.053331*%
%ADD39R,0.049212X0.023622*%
G04~CAMADD=43~8~0.0~0.0~493.4~623.3~91.7~0.0~15~0.0~0.0~0.0~0.0~0~0.0~0.0~0.0~0.0~0~0.0~0.0~0.0~180.0~494.0~624.0*
%ADD43D43*%
G04~CAMADD=44~8~0.0~0.0~556.4~312.3~98.1~0.0~15~0.0~0.0~0.0~0.0~0~0.0~0.0~0.0~0.0~0~0.0~0.0~0.0~270.0~312.0~556.0*
%ADD44D44*%
%LNnema17-1*%
%LPD*%
G54D16*
X01097Y01389D03*
X01122D03*
G54D18*
X0036Y01152D03*
Y00512D03*
G54D19*
X00325Y00972D03*
G54D20*
X00395Y00932D03*
X00325Y00892D03*
X00395Y00852D03*
X00325Y00812D03*
X00395Y00772D03*
X00325Y00732D03*
X00395Y00692D03*
G54D21*
X00225Y01082D03*
Y00582D03*
G54D22*
X00222Y00222D03*
X01443Y00222D03*
X01443Y01443D03*
X00222Y01443D03*
G54D23*
X01165Y01524D03*
G54D24*
X01066Y01524D03*
G54D25*
X01377Y00787D03*
X01181Y00393D03*
X00787Y01181D03*
Y00393D03*
X00393D03*
G54D26*
X00255Y00922D03*
X00231Y00941D03*
X00219Y00732D03*
X00666Y00807D03*
X00508Y00849D03*
X00994Y00883D03*
X01201Y00837D03*
X01201Y00862D03*
X012Y00889D03*
X01087Y00944D03*
X01055Y00943D03*
X01026Y00942D03*
G54D38*
X00914Y01203D03*
Y0128D03*
G54D39*
X00914Y01125D03*
Y01054D03*
G54D43*
X01144Y0105D03*
X01074D03*
X01074Y01322D03*
X01144D03*
G54D44*
X01072Y01229D03*
X01109D03*
X01147D03*
Y0113D03*
X01072D03*
M02*