%FSTAX23Y23*%
%MOIN*%
%SFA1B1*%

%IPPOS*%
%ADD28C,0.007874*%
%ADD49C,0.006000*%
%LNnema17pancake-1*%
%LPD*%
G36*
X0028Y00951D02*
Y00909D01*
Y00907*
X00219*
Y00909*
Y00951*
Y00953*
X0028*
Y00951*
G37*
G36*
Y00871D02*
Y00829D01*
Y00827*
X00219*
Y00829*
Y00871*
Y00873*
X0028*
Y00871*
G37*
G36*
X00499Y00833D02*
Y00791D01*
Y00789*
X00438*
Y00791*
Y00833*
Y00835*
X00499*
Y00833*
G37*
G36*
X00282Y00712D02*
Y0067D01*
Y00668*
X00221*
Y0067*
Y00712*
Y00714*
X00282*
Y00712*
G37*
G54D28*
X00947Y00818D02*
X01048D01*
X00947Y00649D02*
Y00818D01*
Y00649D02*
X01048D01*
Y00818*
G54D49*
X00282Y0067D02*
Y00712D01*
X00221Y0067D02*
Y00712D01*
X00282D02*
Y00714D01*
Y00668D02*
Y0067D01*
X00221Y00668D02*
X00282D01*
X00221D02*
Y0067D01*
Y00712D02*
Y00714D01*
X00282*
X0028Y00909D02*
Y00951D01*
X00219Y00909D02*
Y00951D01*
X0028D02*
Y00953D01*
Y00907D02*
Y00909D01*
X00219Y00907D02*
X0028D01*
X00219D02*
Y00909D01*
Y00951D02*
Y00953D01*
X0028*
Y00829D02*
Y00871D01*
X00219Y00829D02*
Y00871D01*
X0028D02*
Y00873D01*
Y00827D02*
Y00829D01*
X00219Y00827D02*
X0028D01*
X00219D02*
Y00829D01*
Y00871D02*
Y00873D01*
X0028*
X00438Y00791D02*
Y00833D01*
X00499Y00791D02*
Y00833D01*
X00438Y00789D02*
Y00791D01*
Y00833D02*
Y00835D01*
X00499*
Y00833D02*
Y00835D01*
Y00789D02*
Y00791D01*
X00438Y00789D02*
X00499D01*
M02*