%FSTAX23Y23*%
%MOIN*%
%SFA1B1*%

%IPPOS*%
%ADD10C,0.005000*%
%ADD28C,0.007874*%
%LNnema17pancake-1*%
%LPD*%
G54D10*
X01148Y00954D02*
Y01004D01*
X0107Y00954D02*
Y01004D01*
X01148*
X0107Y00954D02*
X01148D01*
X01166Y01076D02*
Y01139D01*
X01052Y01076D02*
Y01139D01*
Y01076D02*
X01166D01*
X01052Y01139D02*
X01166D01*
X01069Y01209D02*
Y01259D01*
X01148Y01209D02*
Y01259D01*
X01069Y01209D02*
X01148D01*
X01069Y01259D02*
X01148D01*
X00965Y01568D02*
X01256D01*
Y01342D02*
Y01568D01*
X00965Y01342D02*
X01256D01*
X00965D02*
Y01568D01*
X007Y00885D02*
X00874D01*
X007Y00688D02*
X00874D01*
X007D02*
Y00885D01*
X00874Y00688D02*
Y00885D01*
G54D28*
X0094Y01434D02*
D01*
X0094Y01434*
X0094Y01435*
X0094Y01435*
X0094Y01435*
X00939Y01435*
X00939Y01436*
X00939Y01436*
X00939Y01436*
X00939Y01436*
X00939Y01437*
X00939Y01437*
X00938Y01437*
X00938Y01437*
X00938Y01437*
X00938Y01438*
X00937Y01438*
X00937Y01438*
X00937Y01438*
X00937Y01438*
X00936Y01438*
X00936Y01438*
X00936Y01438*
X00936*
X00935Y01438*
X00935Y01438*
X00935Y01438*
X00935Y01438*
X00934Y01438*
X00934Y01438*
X00934Y01438*
X00934Y01437*
X00933Y01437*
X00933Y01437*
X00933Y01437*
X00933Y01437*
X00933Y01436*
X00932Y01436*
X00932Y01436*
X00932Y01436*
X00932Y01435*
X00932Y01435*
X00932Y01435*
X00932Y01435*
X00932Y01434*
X00932Y01434*
X00932Y01434*
X00932Y01434*
X00932Y01433*
X00932Y01433*
X00932Y01433*
X00932Y01433*
X00932Y01432*
X00932Y01432*
X00933Y01432*
X00933Y01432*
X00933Y01431*
X00933Y01431*
X00933Y01431*
X00934Y01431*
X00934Y01431*
X00934Y01431*
X00934Y0143*
X00935Y0143*
X00935Y0143*
X00935Y0143*
X00935Y0143*
X00936Y0143*
X00936*
X00936Y0143*
X00936Y0143*
X00937Y0143*
X00937Y0143*
X00937Y0143*
X00937Y01431*
X00938Y01431*
X00938Y01431*
X00938Y01431*
X00938Y01431*
X00939Y01431*
X00939Y01432*
X00939Y01432*
X00939Y01432*
X00939Y01432*
X00939Y01433*
X00939Y01433*
X0094Y01433*
X0094Y01433*
X0094Y01434*
X0094Y01434*
X0094Y01434*
M02*