%FSTAX23Y23*%
%MOIN*%
%SFA1B1*%

%IPPOS*%
%AMD12*
4,1,8,-0.012500,0.006200,-0.012500,-0.006200,-0.006200,-0.012500,0.006200,-0.012500,0.012500,-0.006200,0.012500,0.006200,0.006200,0.012500,-0.006200,0.012500,-0.012500,0.006200,0.0*
1,1,0.012504,-0.006200,0.006200*
1,1,0.012504,-0.006200,-0.006200*
1,1,0.012504,0.006200,-0.006200*
1,1,0.012504,0.006200,0.006200*
%
%AMD13*
4,1,8,0.026900,0.008100,-0.026900,0.008100,-0.028900,0.006100,-0.028900,-0.006100,-0.026900,-0.008100,0.026900,-0.008100,0.028900,-0.006100,0.028900,0.006100,0.026900,0.008100,0.0*
1,1,0.004039,0.026900,0.006100*
1,1,0.004039,-0.026900,0.006100*
1,1,0.004039,-0.026900,-0.006100*
1,1,0.004039,0.026900,-0.006100*
%
%ADD11R,0.012000X0.022000*%
G04~CAMADD=12~8~0.0~0.0~250.0~250.0~62.5~0.0~15~0.0~0.0~0.0~0.0~0~0.0~0.0~0.0~0.0~0~0.0~0.0~0.0~90.0~250.0~250.0*
%ADD12D12*%
G04~CAMADD=13~8~0.0~0.0~578.7~161.4~20.2~0.0~15~0.0~0.0~0.0~0.0~0~0.0~0.0~0.0~0.0~0~0.0~0.0~0.0~0.0~578.7~161.4*
%ADD13D13*%
%ADD14R,0.061268X0.059236*%
%ADD28C,0.007874*%
%ADD29C,0.010000*%
%ADD30C,0.095669*%
%ADD31R,0.057008X0.057008*%
%ADD32C,0.057008*%
%ADD33C,0.129921*%
%ADD34R,0.062008X0.062008*%
%ADD35C,0.062008*%
%ADD36C,0.039370*%
%ADD37C,0.050000*%
%ADD38C,0.017716*%
%ADD39C,0.023622*%
%LNnema17pancake-1*%
%LPD*%
G36*
X01438Y01568D02*
X01572Y01439D01*
Y00136*
X01442Y00005*
X00138*
X00136Y00003*
X00004Y00135*
X00003*
Y01435*
X00001Y01436*
X00135Y0157*
X01436*
X01438Y01568*
G37*
%LNnema17pancake-2*%
%LPC*%
G36*
X01098Y01471D02*
X01024D01*
Y01397*
X01098*
Y01471*
G37*
G36*
X01404Y01464D02*
X01391D01*
X01378Y01462*
X01365Y01457*
X01354Y0145*
X01345Y0144*
X01338Y01429*
X01333Y01417*
X0133Y01404*
Y01391*
X01333Y01378*
X01338Y01366*
X01345Y01355*
X01354Y01346*
X01365Y01338*
X01378Y01333*
X01391Y01331*
X01404*
X01417Y01333*
X01429Y01338*
X0144Y01346*
X01449Y01355*
X01456Y01366*
X01461Y01378*
X01464Y01391*
Y01404*
X01461Y01417*
X01456Y01429*
X01449Y0144*
X0144Y0145*
X01429Y01457*
X01417Y01462*
X01404Y01464*
G37*
G36*
X00184D02*
X0017D01*
X00158Y01462*
X00145Y01457*
X00134Y0145*
X00125Y0144*
X00118Y01429*
X00113Y01417*
X0011Y01404*
Y01391*
X00113Y01378*
X00118Y01366*
X00125Y01355*
X00134Y01346*
X00145Y01338*
X00158Y01333*
X0017Y01331*
X00184*
X00197Y01333*
X00209Y01338*
X0022Y01346*
X00229Y01355*
X00236Y01366*
X00241Y01378*
X00244Y01391*
Y01404*
X00241Y01417*
X00236Y01429*
X00229Y0144*
X0022Y0145*
X00209Y01457*
X00197Y01462*
X00184Y01464*
G37*
G36*
X00233Y01114D02*
X00219D01*
X00205Y01111*
X00192Y01106*
X00181Y01098*
X00171Y01088*
X00163Y01076*
X00158Y01063*
X00155Y0105*
Y01036*
X00158Y01022*
X00163Y01009*
X00171Y00998*
X00181Y00988*
X00192Y0098*
X00205Y00975*
X00204Y0097*
X00202*
X00198Y00969*
X00195Y00967*
X00179Y00951*
X00177Y00948*
X00176Y00944*
Y00847*
X00177Y00843*
X00179Y0084*
X00254Y00765*
Y00708*
X00252*
Y00674*
X00276*
Y00682*
X00293*
X00294Y0068*
X00298Y00672*
X00305Y00665*
X00313Y00661*
X00321Y00658*
X0033*
X00339Y00661*
X00347Y00665*
X00353Y00672*
X00358Y0068*
X0036Y00688*
Y00697*
X00358Y00706*
X00353Y00714*
X00347Y0072*
X00339Y00725*
X0033Y00727*
X00321*
X00313Y00725*
X00305Y0072*
X00298Y00714*
X00294Y00706*
X00293Y00702*
X00276*
Y00708*
X00274*
Y00769*
X00274Y00773*
X00271Y00776*
X00196Y00851*
Y0094*
X00206Y0095*
X00246*
X0025Y00947*
Y00913*
X00254*
Y00912*
X00255Y00909*
X00257Y00905*
X00278Y00885*
X00281Y00882*
X00285Y00882*
X00299*
X00301Y00877*
X00298Y00874*
X00294Y00866*
X00293Y00863*
X00274*
Y00867*
X0025*
Y00833*
X00263*
X00264Y00833*
X00265*
X00292Y00805*
X00296Y00803*
X00299Y00802*
X00336*
X00371Y00767*
X00375Y00765*
X00378Y00764*
X00556*
X0056Y00765*
X00563Y00767*
X00573Y00777*
X0064*
X00641Y00775*
X00644Y00773*
X00647Y00773*
X00701*
X00704Y00773*
X00707Y00775*
X00708Y00778*
X00709Y00781*
Y00793*
X00708Y00796*
X00707Y00799*
Y00801*
X00708Y00803*
X00709Y00806*
Y00819*
X00708Y00822*
X00707Y00825*
X00708Y00829*
X00709Y00832*
Y00844*
X00708Y00847*
X00707Y0085*
Y00852*
X00708Y00855*
X00709Y00858*
Y0087*
X00708Y00873*
X00707Y00875*
X00704Y00877*
X00701Y00878*
X00647*
X00644Y00877*
X00641Y00875*
X0064Y00874*
X00566*
X00457Y00983*
X00454Y00985*
X0045Y00986*
X00279*
X00275Y00985*
X00275Y00985*
X00274Y0099*
X00281Y00998*
X00289Y01009*
X00294Y01022*
X00297Y01036*
Y0105*
X00294Y01063*
X00289Y01076*
X00281Y01088*
X00271Y01098*
X00259Y01106*
X00247Y01111*
X00233Y01114*
G37*
G36*
X00927Y00878D02*
X00873D01*
X0087Y00877*
X00867Y00875*
X00866Y00873*
X00865Y0087*
Y00858*
X00866Y00855*
X00867Y00852*
X0087Y0085*
X00873Y0085*
X00927*
X0093Y0085*
X00933Y00852*
X00934Y00855*
X00935Y00858*
Y0087*
X00934Y00873*
X00933Y00875*
X0093Y00877*
X00927Y00878*
G37*
G36*
X01093Y00831D02*
X0094D01*
X00935Y00829*
X00934Y00828*
X00868*
X00864Y00826*
X00862Y00822*
Y0078*
X00863Y00778*
X00863Y00776*
X00863Y00776*
X00864Y00776*
X00864Y00775*
X00866Y0077*
X00865Y00767*
Y00755*
X00866Y00752*
X00867Y00749*
X00866Y00745*
X00865Y00742*
Y0073*
X00866Y00727*
X00867Y00724*
Y00722*
X00866Y00719*
X00865Y00716*
Y00704*
X00866Y00701*
X00867Y00698*
X0087Y00697*
X00873Y00696*
X00927*
X0093Y00697*
X00933Y00698*
X00934Y00701*
X00935Y00704*
Y00716*
X00934Y00719*
X00933Y00722*
Y00724*
X00934Y00727*
X00935Y0073*
Y00742*
X00934Y00745*
X00933Y00749*
X00934Y00752*
X00935Y00755*
Y00763*
X0094Y00765*
X00952Y00752*
Y00735*
X00954Y0073*
X00959Y00729*
X01043*
X01056Y00715*
X0106Y00714*
X01093*
X01098Y00715*
X011Y0072*
Y00825*
X01098Y00829*
X01093Y00831*
G37*
G36*
X00701Y0075D02*
X00647D01*
X00644Y00749*
X00641Y00747*
X0064Y00745*
X00639Y00742*
Y0073*
X0064Y00727*
X00641Y00724*
Y00722*
X0064Y00719*
X00639Y00716*
Y00704*
X0064Y00701*
X00641Y00698*
X00644Y00697*
X00647Y00696*
X00701*
X00704Y00697*
X00707Y00698*
X00708Y00701*
X00709Y00704*
Y00716*
X00708Y00719*
X00707Y00722*
Y00724*
X00708Y00727*
X00709Y0073*
Y00742*
X00708Y00745*
X00707Y00747*
X00704Y00749*
X00701Y0075*
G37*
G36*
X00233Y00614D02*
X00219D01*
X00205Y00611*
X00192Y00606*
X00181Y00598*
X00171Y00588*
X00163Y00576*
X00158Y00563*
X00155Y0055*
Y00536*
X00158Y00522*
X00163Y00509*
X00171Y00498*
X00181Y00488*
X00192Y0048*
X00205Y00475*
X00219Y00472*
X00233*
X00247Y00475*
X00259Y0048*
X00271Y00488*
X00281Y00498*
X00289Y00509*
X00294Y00522*
X00297Y00536*
Y0055*
X00294Y00563*
X00289Y00576*
X00281Y00588*
X00271Y00598*
X00259Y00606*
X00247Y00611*
X00233Y00614*
G37*
G36*
X01404Y00244D02*
X01391D01*
X01378Y00241*
X01365Y00236*
X01354Y00229*
X01345Y0022*
X01338Y00209*
X01333Y00197*
X0133Y00184*
Y0017*
X01333Y00158*
X01338Y00145*
X01345Y00134*
X01354Y00125*
X01365Y00118*
X01378Y00113*
X01391Y0011*
X01404*
X01417Y00113*
X01429Y00118*
X0144Y00125*
X01449Y00134*
X01456Y00145*
X01461Y00158*
X01464Y0017*
Y00184*
X01461Y00197*
X01456Y00209*
X01449Y0022*
X0144Y00229*
X01429Y00236*
X01417Y00241*
X01404Y00244*
G37*
G36*
X00184D02*
X0017D01*
X00158Y00241*
X00145Y00236*
X00134Y00229*
X00125Y0022*
X00118Y00209*
X00113Y00197*
X0011Y00184*
Y0017*
X00113Y00158*
X00118Y00145*
X00125Y00134*
X00134Y00125*
X00145Y00118*
X00158Y00113*
X0017Y0011*
X00184*
X00197Y00113*
X00209Y00118*
X0022Y00125*
X00229Y00134*
X00236Y00145*
X00241Y00158*
X00244Y0017*
Y00184*
X00241Y00197*
X00236Y00209*
X00229Y0022*
X0022Y00229*
X00209Y00236*
X00197Y00241*
X00184Y00244*
G37*
%LNnema17pancake-3*%
%LPD*%
G36*
X00542Y00869D02*
X0054Y00864D01*
X00384*
X00355Y00894*
X00357Y00898*
X0036*
Y00965*
X00446*
X00542Y00869*
G37*
G36*
X00556Y00816D02*
Y00805D01*
X00557Y00801*
X0056Y00797*
X00559Y00791*
X00552Y00784*
X00423*
X00421Y00789*
X00423Y00792*
X00428Y008*
X00429Y00802*
X00444*
Y00795*
X00468*
Y00813*
X00468Y00814*
Y00816*
X00475Y00823*
X0055*
X00556Y00816*
G37*
G36*
X01093Y0072D02*
X0106D01*
X01045Y00735*
X01044Y00735*
X00959*
Y00754*
X00959Y00755*
X00935Y00779*
X00873*
X00868Y0078*
Y00822*
X00935*
X00936Y00821*
X0094Y00825*
X01093*
Y0072*
G37*
G54D11*
X00264Y00691D03*
X00239D03*
X00262Y0093D03*
X00237D03*
X00262Y0085D03*
X00237D03*
X00456Y00812D03*
X00481D03*
G54D12*
X00575Y00812D03*
X0061D03*
G54D13*
X00674Y00864D03*
Y00838D03*
Y00812D03*
Y00787D03*
Y00761D03*
Y00736D03*
Y0071D03*
X009D03*
Y00736D03*
Y00761D03*
Y00787D03*
Y00812D03*
Y00838D03*
Y00864D03*
G54D14*
X00998Y00698D03*
Y00769D03*
G54D28*
X00264Y00691D02*
Y00769D01*
X00186Y00847D02*
X00264Y00769D01*
X00186Y00847D02*
Y00944D01*
X00202Y0096*
X00263*
X00279Y00975*
X0045*
X00562Y00864*
X00674*
X00378Y00774D02*
X00556D01*
X0034Y00812D02*
X00378Y00774D01*
X00299Y00812D02*
X0034D01*
X00568Y00787D02*
X00674D01*
X00556Y00774D02*
X00568Y00787D01*
X00269Y00843D02*
X00299Y00812D01*
X00264Y00843D02*
X00269D01*
X00262Y00845D02*
X00264Y00843D01*
X00262Y00845D02*
Y0085D01*
X00264Y00912D02*
X00285Y00892D01*
X00264Y00912D02*
Y00933D01*
X00285Y00892D02*
X00343D01*
X0038Y00854*
X00552*
X00568Y00838*
X00674*
X00456Y00812D02*
X00458Y00814D01*
Y0082*
X00471Y00833*
X00554*
X00575Y00812*
X00264Y00691D02*
X00265Y00692D01*
X00325*
X00326Y00693*
X00262Y00851D02*
X00264Y00853D01*
X00326*
X00264Y00933D02*
X00326D01*
X00396Y00813D02*
X00397Y00812D01*
X00456*
X00456Y00812*
X0061D02*
X0061Y00812D01*
X00674*
X00674Y00812*
G54D29*
X0021Y00691D02*
X0021Y00691D01*
X00239*
X00239Y00691*
X00209Y0085D02*
X0021Y0085D01*
X00237*
X00237Y0085*
X00209Y00931D02*
X0021Y00931D01*
X00237*
X00237Y0093*
X00962Y00848D02*
X00964D01*
X009Y00838D02*
X00953D01*
X00962Y00848*
X00612Y0076D02*
X00613Y00761D01*
X00673*
X00674Y00761*
X00519Y00812D02*
X00519Y00813D01*
X00482Y00812D02*
X00519D01*
X00481Y00812D02*
X00482Y00812D01*
G54D30*
X00361Y01113D03*
Y00473D03*
G54D31*
X00326Y00933D03*
G54D32*
X00396Y00893D03*
X00326Y00853D03*
X00396Y00813D03*
X00326Y00773D03*
X00396Y00733D03*
X00326Y00693D03*
X00396Y00653D03*
G54D33*
X00226Y01043D03*
Y00543D03*
G54D34*
X01061Y01434D03*
G54D35*
X0116Y01434D03*
G54D36*
X01397Y00177D03*
X00177Y01398D03*
Y00177D03*
X01397Y01398D03*
G54D37*
X01377Y00787D03*
X01181Y00393D03*
X00787Y01181D03*
Y00393D03*
X00393D03*
X01377Y00787D03*
X01181Y00393D03*
X00787Y01181D03*
Y00393D03*
G54D38*
X0021Y00691D03*
X00209Y0085D03*
Y00931D03*
X00519Y00813D03*
X00964Y00848D03*
X01028Y0064D03*
X00998D03*
X00969D03*
X00612Y0076D03*
G54D39*
X01075Y00774D03*
X01075Y00809D03*
X01076Y00738D03*
M02*