%FSTAX23Y23*%
%MOIN*%
%SFA1B1*%

%IPPOS*%
%ADD10C,0.005000*%
%ADD28C,0.007874*%
%LNnema17pancake-1*%
%LPD*%
G36*
X00484Y01499D02*
X00485D01*
Y01496*
X00486*
Y01495*
X00485*
Y01494*
X00482*
Y01493*
X0048*
Y01492*
X00479*
Y01491*
X00478*
Y0149*
X00476*
Y01488*
X00475*
Y01487*
X00474*
Y01486*
X00473*
Y01484*
X00472*
Y01482*
X00471*
Y01478*
X0047*
Y01475*
X00462*
Y01478*
X00463*
Y01483*
X00464*
Y01484*
Y01486*
X00465*
Y01488*
X00466*
Y0149*
X00467*
Y01491*
X00468*
Y01492*
X00469*
Y01493*
X0047*
Y01495*
X00472*
Y01496*
X00473*
Y01497*
X00474*
Y01498*
X00476*
Y01499*
X00477*
Y015*
X00479*
Y01501*
X00482*
Y01502*
X00484*
Y01499*
G37*
G36*
X00481Y01508D02*
X00482D01*
Y01505*
X00481*
Y01504*
X00478*
Y01503*
X00476*
Y01502*
X00474*
Y01501*
X00473*
Y015*
X00471*
Y01499*
X0047*
Y01498*
X00469*
Y01497*
X00468*
Y01496*
X00467*
Y01495*
X00466*
Y01494*
X00465*
Y01493*
X00464*
Y01491*
X00463*
Y0149*
X00462*
Y01488*
X00461*
Y01485*
X0046*
Y01482*
X00459*
Y01475*
X00454*
Y01482*
Y01483*
X00455*
Y01486*
X00456*
Y01489*
X00457*
Y01491*
X00458*
Y01493*
X00459*
Y01494*
X0046*
Y01496*
X00461*
Y01497*
X00462*
Y01498*
X00463*
Y01499*
X00464*
Y015*
X00465*
Y01501*
X00466*
Y01502*
X00467*
Y01503*
X00468*
Y01504*
X0047*
Y01505*
X00471*
Y01506*
X00473*
Y01507*
X00476*
Y01508*
X00478*
Y01509*
X00481*
Y01508*
G37*
G36*
X00718Y0149D02*
X00723D01*
Y01489*
X00725*
Y01488*
X00727*
Y01487*
X00728*
Y01486*
X00729*
Y01485*
X0073*
Y01484*
X00731*
Y01482*
X00732*
Y01477*
X00733*
Y01443*
X00732*
Y01438*
X00731*
Y01436*
X0073*
Y01434*
X00729*
Y01433*
X00728*
Y01432*
X00726*
Y01431*
X00724*
Y0143*
X0072*
Y01429*
X00644*
Y01444*
X00645*
Y01443*
X00715*
Y01444*
X00717*
Y01476*
X00644*
Y01491*
X00718*
Y0149*
G37*
G36*
X00628Y01489D02*
X00629D01*
Y0146*
X00637*
Y01472*
X00638*
Y0146*
X00639*
Y01461*
X00642*
Y01462*
X00644*
Y01463*
X00646*
Y01464*
X00648*
Y01465*
X00649*
Y01466*
X00652*
Y01467*
X00654*
Y01468*
X00655*
Y01469*
X00658*
Y0147*
X00659*
Y01471*
X00661*
Y01472*
X00663*
Y0146*
X00672*
Y01461*
X00673*
Y01465*
X00713*
Y01455*
X00673*
Y01459*
X00663*
Y01447*
X00661*
Y01448*
X00659*
Y0145*
X00657*
Y01451*
X00655*
Y01452*
X00653*
Y01453*
X00651*
Y01454*
X00649*
Y01455*
X00647*
Y01456*
X00645*
Y01457*
X00643*
Y01458*
X0064*
Y01459*
X00638*
Y01446*
X00637*
Y01459*
X00629*
Y01428*
X00614*
Y01475*
X0061*
Y01474*
X00608*
Y01473*
X00607*
Y01472*
X00606*
Y01471*
X00605*
Y0147*
X00604*
Y01469*
X00603*
Y01468*
X00602*
Y01467*
X00601*
Y01466*
X006*
Y01464*
X00599*
Y01463*
X00598*
Y01462*
X00597*
Y01461*
X00596*
Y0146*
X00595*
Y01459*
X00594*
Y01457*
X00593*
Y01456*
X00592*
Y01455*
X00591*
Y01454*
X0059*
Y01453*
X00589*
Y01452*
X00588*
Y0145*
X00587*
Y01448*
X00586*
Y01447*
X00585*
Y01446*
X00584*
Y01445*
X00583*
Y01444*
X00582*
Y01442*
X00581*
Y01441*
X0058*
Y0144*
X00579*
Y01439*
X00578*
Y01438*
X00577*
Y01437*
X00576*
Y01435*
X00575*
Y01434*
X00573*
Y01433*
X00572*
Y01432*
X0057*
Y01431*
X00568*
Y0143*
X00566*
Y01429*
X00563*
Y01428*
X00541*
Y0149*
X00556*
Y01442*
X00558*
Y01443*
X00561*
Y01444*
X00562*
Y01445*
X00564*
Y01446*
X00565*
Y01447*
X00566*
Y0145*
X00567*
Y01451*
X00568*
Y01452*
X00569*
Y01453*
X0057*
Y01454*
X00572*
Y01455*
X00573*
Y01456*
X00574*
Y01458*
X00575*
Y01459*
X00576*
Y0146*
X00577*
Y01461*
X00578*
Y01462*
X00579*
Y01463*
X0058*
Y01464*
X00581*
Y01466*
X00582*
Y01467*
X00583*
Y01468*
X00584*
Y01469*
X00585*
Y0147*
X00586*
Y01471*
X00587*
Y01472*
X00588*
Y01474*
X00589*
Y01475*
X0059*
Y01476*
X00591*
Y01477*
X00592*
Y01478*
X00593*
Y01479*
X00594*
Y01481*
X00595*
Y01482*
X00596*
Y01483*
X00597*
Y01484*
X00598*
Y01485*
X006*
Y01486*
X00601*
Y01487*
X00603*
Y01488*
X00606*
Y01489*
X00611*
Y0149*
X00628*
Y01489*
G37*
G36*
X00423D02*
X0043D01*
Y01488*
X00433*
Y01487*
X00435*
Y01486*
X00436*
Y01485*
X00437*
Y01484*
X00438*
Y01483*
X00439*
Y01481*
X0044*
Y01476*
X00441*
Y01441*
X0044*
Y01437*
X00439*
Y01435*
X00438*
Y01433*
X00437*
Y01432*
X00436*
Y01431*
X00434*
Y0143*
X00431*
Y01429*
X00428*
Y01428*
X00351*
Y01442*
X00423*
Y01443*
X00424*
Y01474*
X00423*
Y01475*
X00351*
Y0149*
X00423*
Y01489*
G37*
G36*
X00487Y01491D02*
X00488D01*
Y01488*
X0053*
Y01473*
X00494*
Y01426*
X00479*
Y01446*
Y01447*
Y01475*
X00474*
Y01481*
X00475*
Y01483*
X00476*
Y01485*
X00477*
Y01486*
X00478*
Y01487*
X00479*
Y01488*
X0048*
Y01489*
X00481*
Y0149*
X00483*
Y01491*
X00485*
Y01492*
X00487*
Y01491*
G37*
G36*
X00663Y01413D02*
X0066D01*
Y01414*
X00663*
Y01413*
G37*
G36*
X00506D02*
X00503D01*
Y01414*
X00506*
Y01413*
G37*
G36*
X00478D02*
X00476D01*
Y01414*
X00478*
Y01413*
G37*
G36*
X00414D02*
X00411D01*
Y01414*
X00414*
Y01413*
G37*
G36*
X00374D02*
X00371D01*
Y01414*
X00374*
Y01413*
G37*
G36*
X00694Y01412D02*
X00703D01*
Y0141*
X00704*
Y01411*
X00705*
Y01412*
X00713*
Y01411*
X00714*
Y01406*
X00713*
Y01405*
X00705*
Y01407*
X00712*
Y01408*
X00705*
Y01409*
X00704*
Y01407*
X00703*
Y01405*
X00695*
Y01407*
X00701*
Y0141*
X00694*
Y01405*
X00692*
Y01406*
X00691*
Y01409*
X00692*
Y0141*
X0069*
Y01405*
X00687*
Y0141*
X00684*
Y01412*
X00689*
Y01411*
X0069*
Y01412*
X00691*
Y01413*
X00692*
Y01414*
X00694*
Y01412*
G37*
G36*
X00374Y01405D02*
X00372D01*
Y01406*
X00371*
Y01405*
X00368*
Y0141*
X00364*
Y01405*
X0036*
Y0141*
X00361*
Y01412*
X00371*
Y01411*
X00372*
Y01412*
X00374*
Y01405*
G37*
G36*
X00581Y01411D02*
X00582D01*
Y01406*
X00581*
Y01405*
X00574*
Y01407*
X0058*
Y01408*
X00574*
Y01409*
X00573*
Y01407*
X00572*
Y01405*
X00563*
Y01407*
X00562*
Y01405*
X00554*
Y01406*
X00553*
Y01411*
X00554*
Y01412*
X00562*
Y0141*
X00563*
Y01407*
X00569*
Y0141*
X00563*
Y01412*
X00572*
Y0141*
X00573*
Y01411*
X00574*
Y01412*
X00581*
Y01411*
G37*
G36*
X00474D02*
X00475D01*
Y01406*
X00474*
Y01405*
X00467*
Y01406*
X00466*
Y01407*
X00465*
Y01405*
X00462*
Y0141*
X00458*
Y01405*
X00455*
Y01411*
X00456*
Y01412*
X00465*
Y0141*
X00466*
Y01412*
X00474*
Y01411*
G37*
G36*
X00435Y01405D02*
X00431D01*
Y0141*
X00427*
Y01405*
X00425*
Y01406*
X00424*
Y01407*
X00423*
Y01406*
X00417*
Y01405*
X00423*
Y01403*
X00415*
Y01405*
X00414*
Y01406*
X00413*
Y01405*
X00411*
Y01412*
X00413*
Y01411*
X00415*
Y01412*
X00423*
Y01411*
X00424*
Y0141*
X00425*
Y01412*
X00435*
Y01405*
G37*
G36*
X00526Y01411D02*
Y0141D01*
Y01406*
X00525*
Y01405*
X00518*
Y01406*
X00517*
Y01412*
X0052*
Y01407*
X00524*
Y01412*
X00526*
Y01411*
G37*
G36*
X00731Y01413D02*
X00732D01*
Y01407*
X00731*
Y01405*
X00715*
Y01414*
X00731*
Y01413*
G37*
G36*
X00682Y01411D02*
X00683D01*
Y01406*
X00682*
Y01405*
X00675*
Y01406*
X00674*
Y01407*
Y01408*
Y01411*
X00675*
Y01412*
X00682*
Y01411*
G37*
G36*
X00673Y01405D02*
X00671D01*
Y0141*
X00667*
Y01406*
X00666*
Y01405*
X00664*
Y01411*
X00665*
Y01412*
X00673*
Y01405*
G37*
G36*
X00663D02*
X0066D01*
Y01412*
X00663*
Y01405*
G37*
G36*
X00659Y01411D02*
Y0141D01*
Y01406*
X00658*
Y01405*
X00651*
Y01407*
X00657*
Y0141*
X00651*
Y01412*
X00659*
Y01411*
G37*
G36*
X00645Y0141D02*
X00638D01*
Y01409*
X00645*
Y01406*
X00644*
Y01405*
X00636*
Y01406*
X00635*
Y01409*
Y0141*
Y01411*
X00636*
Y01412*
X00645*
Y0141*
G37*
G36*
X00634Y01405D02*
X00632D01*
Y0141*
X00628*
Y01409*
Y01405*
X00625*
Y01411*
X00626*
Y01412*
X00634*
Y01405*
G37*
G36*
X00617Y01412D02*
X00623D01*
Y01411*
X00624*
Y01406*
X00623*
Y01405*
X00616*
Y01406*
X00615*
Y01414*
X00617*
Y01412*
G37*
G36*
X00608D02*
X00603D01*
Y01405*
X00601*
Y01406*
X006*
Y01412*
X00595*
Y01414*
X00608*
Y01412*
G37*
G36*
X00586Y0141D02*
X00587D01*
Y01412*
X00594*
Y01411*
X00595*
Y01406*
X00594*
Y01405*
X00587*
Y01407*
X00593*
Y01408*
X00587*
Y01409*
X00586*
Y01406*
X00585*
Y01405*
X00583*
Y01407*
Y01408*
Y01414*
X00586*
Y0141*
G37*
G36*
X00552Y01405D02*
X0055D01*
Y0141*
X00548*
Y01405*
X00545*
Y0141*
X00543*
Y01405*
X0054*
Y01411*
X00541*
Y01412*
X00552*
Y01405*
G37*
G36*
X00539D02*
X00537D01*
Y01406*
Y0141*
X00534*
Y01405*
X00532*
Y0141*
X0053*
Y01405*
X00527*
Y01411*
X00528*
Y01412*
X00539*
Y01405*
G37*
G36*
X00516D02*
X00514D01*
Y0141*
X00509*
Y01405*
X00507*
Y01408*
Y01409*
Y01411*
X00508*
Y01412*
X00516*
Y01405*
G37*
G36*
X00482Y01412D02*
X00484D01*
Y01411*
X00485*
Y01412*
X00501*
Y0141*
X00503*
Y01407*
X00504*
Y0141*
X00503*
Y01411*
X00504*
Y01412*
X00506*
Y01405*
X00504*
Y01406*
X00503*
Y01407*
X00501*
Y01405*
X00493*
Y01406*
X00492*
Y01405*
X00485*
Y01406*
X00484*
Y0141*
X00482*
Y01405*
X0048*
Y0141*
X00479*
Y01412*
X0048*
Y01414*
X00482*
Y01412*
G37*
G36*
X00478Y01405D02*
X00476D01*
Y01406*
Y01407*
Y01412*
X00478*
Y01405*
G37*
G36*
X00448Y01413D02*
X00449D01*
Y01406*
X00448*
Y01405*
X00436*
Y01407*
X00446*
Y01408*
X00436*
Y01411*
X00446*
Y01412*
X00436*
Y01414*
X00448*
Y01413*
G37*
G36*
X0041Y01405D02*
X00408D01*
Y0141*
X00403*
Y01405*
X00401*
Y01408*
Y01409*
Y01411*
X00402*
Y01412*
X0041*
Y01405*
G37*
G36*
X00399Y01411D02*
X004D01*
Y01406*
X00399*
Y01405*
X00391*
Y01407*
X00397*
Y01408*
X00391*
Y01411*
X00392*
Y01412*
X00399*
Y01411*
G37*
G36*
X00389D02*
X0039D01*
Y01406*
X00389*
Y01405*
X00382*
Y01407*
X00388*
Y01408*
X00382*
Y01409*
X00381*
Y01411*
X00382*
Y01412*
X00389*
Y01411*
G37*
G36*
X0038Y01405D02*
X00378D01*
Y0141*
X00375*
Y01411*
Y01412*
X0038*
Y01405*
G37*
G36*
X00359Y01406D02*
X00353D01*
Y01405*
X00359*
Y01403*
X00351*
Y01404*
X0035*
Y01411*
X00351*
Y01412*
X00359*
Y01406*
G37*
G36*
X0057Y0138D02*
X00571Y01379D01*
X00572Y01379*
X00572Y01379*
X00573Y01379*
X00573Y01379*
X00574Y01379*
X00574Y01379*
X00575Y01378*
X00575Y01378*
X00575Y01378*
X00575Y01378*
X00575Y01378*
X00575Y01378*
X00576Y01378*
X00576Y01377*
X00577Y01377*
X00578Y01376*
X00578Y01375*
X00578Y01374*
X00579Y01374*
X00579Y01374*
X00579Y01374*
X00579Y01373*
X00579Y01373*
Y01373*
X00573Y01373*
X00573Y01373*
X00573Y01374*
X00573Y01374*
X00572Y01374*
X00572Y01374*
X00572Y01375*
X00572Y01375*
X00572Y01375*
X00572Y01375*
X00571Y01375*
X00571Y01375*
X0057Y01375*
X0057Y01375*
X0057Y01375*
X00569*
X00569Y01375*
X00568Y01375*
X00568Y01375*
X00568Y01375*
X00567Y01375*
X00567Y01375*
X00567Y01375*
X00567Y01375*
X00567Y01374*
X00567Y01374*
X00567Y01374*
X00566Y01374*
X00566Y01373*
X00566Y01373*
Y01373*
Y01373*
Y01373*
X00566Y01372*
X00567Y01372*
X00567Y01372*
X00567Y01371*
X00567Y01371*
Y01371*
X00567Y01371*
X00567Y01371*
X00568Y01371*
X00568Y01371*
X00569Y01371*
X0057Y01371*
X00571Y0137*
X00571Y0137*
X00572Y0137*
X00572Y0137*
X00572Y0137*
X00572*
X00573Y0137*
X00574Y0137*
X00575Y0137*
X00576Y0137*
X00576Y0137*
X00577Y01369*
X00577Y01369*
X00578Y01369*
X00578Y01369*
X00578Y01369*
X00579Y01368*
X00579Y01368*
X00579Y01368*
X00579Y01368*
X00579Y01368*
X00579Y01368*
X0058Y01368*
X0058Y01367*
X0058Y01367*
X0058Y01366*
X00581Y01366*
X00581Y01365*
X00581Y01364*
X00581Y01364*
X00581Y01363*
X00581Y01363*
Y01363*
Y01363*
Y01363*
X00581Y01362*
X00581Y01362*
X00581Y01361*
X00581Y0136*
X0058Y0136*
X0058Y01359*
X0058Y01359*
X0058Y01359*
X0058Y01358*
X0058Y01358*
Y01358*
X00579Y01358*
X00579Y01358*
X00578Y01357*
X00577Y01357*
X00577Y01357*
X00576Y01357*
X00576Y01357*
X00575*
X00575Y01357*
X00575*
X00574Y01357*
X00574Y01357*
X00573Y01357*
X00573Y01357*
X00572Y01357*
X00572Y01357*
X00572Y01357*
X00572Y01357*
X00571Y01358*
X0057Y01358*
X0057Y01358*
X00569Y01359*
X00569Y01359*
X00569Y01359*
X00569Y01359*
X00569Y0136*
X00569Y01359*
X00568Y01358*
X00568Y01358*
X00568Y01358*
X00568Y01357*
X00568Y01357*
Y01357*
X00562*
X00563Y01358*
X00563Y01358*
X00563Y01359*
X00563Y01359*
X00563Y0136*
X00563Y0136*
Y0136*
Y0136*
Y01361*
X00563Y01361*
X00563Y01362*
X00563Y01363*
X00563Y01364*
X00562Y01364*
X00562Y01365*
X00562Y01365*
X00562Y01365*
X00562Y01366*
X00562Y01366*
Y01366*
X00562Y01367*
X00562Y01367*
X00562Y01368*
X00561Y01369*
X00561Y01369*
X00561Y0137*
X00561Y0137*
X00561Y0137*
X00561Y01371*
X00561Y01371*
X00561Y01371*
X00561Y01371*
Y01371*
X00561Y01372*
Y01372*
X00561Y01372*
X00561Y01373*
Y01373*
X00561Y01373*
Y01374*
Y01374*
Y01374*
X00561Y01374*
X00561Y01375*
X00561Y01375*
X00561Y01376*
X00562Y01377*
X00562Y01377*
X00562Y01378*
X00563Y01378*
X00563Y01378*
X00563*
X00563Y01378*
X00564Y01378*
X00565Y01379*
X00566Y01379*
X00567Y01379*
X00567Y01379*
X00567Y0138*
X00568Y0138*
X00568*
X00569Y0138*
X0057*
X0057Y0138*
G37*
G36*
X00473Y01368D02*
X00483Y01357D01*
X00476*
X00471Y01363*
X00467Y01357*
X00461*
X00467Y01368*
X00457Y01379*
X00464*
X00469Y01373*
X00472Y01379*
X00479*
X00473Y01368*
G37*
G36*
X00677Y01357D02*
X00672D01*
X00667Y01377*
X00659Y01357*
X00653*
X00647Y01387*
X00653*
X00657Y01367*
X00665Y01387*
X00671*
X00677Y01357*
G37*
G36*
X00534D02*
X00529D01*
X00524Y01377*
X00516Y01357*
X0051*
X00504Y01387*
X0051*
X00514Y01367*
X00522Y01387*
X00528*
X00534Y01357*
G37*
G36*
X00635Y0138D02*
X00636Y01379D01*
X00637Y01379*
X00638Y01379*
X00639Y01378*
X0064Y01378*
X00641Y01378*
X00641Y01377*
X00642Y01377*
X00643Y01376*
X00643Y01376*
X00643Y01376*
X00644Y01375*
X00644Y01375*
X00644Y01375*
X00644Y01375*
X00644Y01374*
X00645Y01373*
X00645Y01373*
X00645Y01372*
X00646Y01371*
X00646Y01371*
X00646Y0137*
X00646Y01369*
X00646Y01369*
X00646Y01368*
X00646Y01368*
X00646Y01368*
X00646Y01367*
Y01367*
Y01367*
Y01367*
X00646Y01366*
X00646Y01365*
X00646Y01364*
X00646Y01364*
X00646Y01363*
X00646Y01362*
X00645Y01362*
X00645Y01361*
X00645Y01361*
X00645Y01361*
X00644Y0136*
X00644Y0136*
X00644Y0136*
X00644Y01359*
X00644Y01359*
X00644Y01359*
X00643Y01359*
X00643Y01358*
X00642Y01358*
X00641Y01358*
X00641Y01357*
X0064Y01357*
X0064Y01357*
X00639Y01357*
X00639Y01357*
X00638Y01357*
X00638Y01357*
X00637Y01357*
X00637Y01357*
X00636*
X00635Y01357*
X00634Y01357*
X00633Y01357*
X00632Y01357*
X00632Y01358*
X00632Y01358*
X00631Y01358*
X00631Y01358*
X00631Y01358*
X00631Y01358*
X00631Y01358*
X00631*
X0063Y01359*
X00629Y0136*
X00628Y0136*
X00628Y01361*
X00627Y01362*
X00627Y01362*
X00627Y01362*
X00627Y01363*
X00627Y01363*
X00627Y01363*
Y01363*
X00632Y01364*
X00632Y01363*
X00632Y01363*
X00633Y01362*
X00633Y01362*
X00634Y01362*
X00634Y01362*
X00634Y01361*
X00635Y01361*
X00635Y01361*
X00636Y01361*
X00636Y01361*
X00636*
X00636Y01361*
X00636*
X00637Y01361*
X00638Y01361*
X00638Y01361*
X00639Y01362*
X00639Y01362*
X00639Y01362*
X00639Y01362*
X00639Y01362*
X0064Y01363*
X0064Y01363*
X0064Y01364*
X00641Y01364*
X00641Y01365*
X00641Y01365*
X00641Y01366*
Y01366*
Y01366*
Y01366*
Y01366*
X00641Y01366*
Y01366*
Y01366*
X00626*
X00626Y01367*
X00626Y01368*
X00626Y01368*
X00625Y01369*
Y01369*
X00625Y0137*
Y0137*
Y0137*
Y0137*
Y0137*
X00625Y01371*
X00626Y01372*
X00626Y01372*
X00626Y01373*
X00626Y01374*
X00626Y01374*
X00626Y01375*
X00627Y01375*
X00627Y01376*
X00627Y01376*
X00627Y01376*
X00627Y01377*
X00628Y01377*
X00628Y01377*
X00628Y01377*
X00628Y01377*
X00628Y01377*
X00629Y01378*
X00629Y01378*
X0063Y01379*
X0063Y01379*
X00631Y01379*
X00632Y01379*
X00632Y01379*
X00633Y01379*
X00633Y0138*
X00634Y0138*
X00634Y0138*
X00634*
X00635Y0138*
G37*
G36*
X00622Y01367D02*
X00622Y01366D01*
X00622Y01366*
X00622Y01365*
X00622Y01365*
X00622Y01364*
X00622Y01364*
X00622Y01364*
X00622Y01363*
Y01363*
X00622Y01363*
X00622Y01363*
Y01362*
Y01362*
X00622Y01361*
X00622Y01361*
X00622Y0136*
X00622Y01359*
X00621Y01359*
X00621Y01358*
X00621Y01358*
X00621Y01358*
X0062Y01358*
X0062Y01357*
X00619Y01357*
X00619Y01357*
X00618Y01357*
X00618Y01357*
X00617Y01357*
X00617*
X00616Y01357*
X00616Y01357*
X00615Y01357*
X00614Y01357*
X00614Y01357*
X00613Y01358*
X00612Y01358*
X00612Y01358*
X00612Y01359*
X00611Y01359*
X00611Y01359*
X0061Y01359*
X0061Y0136*
X0061Y0136*
X0061Y0136*
X0061Y0136*
X0061Y01357*
X00605*
X006Y01379*
X00606*
X00608Y01369*
X00608Y01368*
X00609Y01367*
X00609Y01367*
X00609Y01366*
X00609Y01366*
X00609Y01366*
X00609Y01366*
Y01366*
X00609Y01365*
X00609Y01365*
X0061Y01364*
X0061Y01364*
X0061Y01364*
X0061Y01364*
X0061Y01364*
X0061Y01364*
X00611Y01363*
X00611Y01362*
X00611Y01362*
X00611Y01362*
X00611Y01362*
X00611Y01362*
X00612Y01362*
X00612Y01361*
X00613Y01361*
X00613Y01361*
X00613Y01361*
X00613*
X00613Y01361*
X00614Y01361*
X00614Y01361*
X00614*
X00615Y01361*
X00615Y01361*
X00615Y01361*
X00615Y01361*
X00616Y01361*
X00616Y01361*
X00616Y01361*
X00616Y01362*
X00616Y01362*
X00616Y01362*
X00616Y01362*
X00616Y01363*
X00616Y01363*
X00617Y01363*
Y01363*
Y01363*
Y01363*
X00616Y01363*
X00616Y01364*
X00616Y01364*
X00616Y01365*
X00616Y01365*
X00616Y01366*
X00616Y01366*
Y01366*
X00616Y01366*
Y01366*
X00613Y01379*
X00619*
X00622Y01367*
G37*
G36*
X00492Y0138D02*
X00493Y01379D01*
X00494Y01379*
X00495Y01379*
X00496Y01378*
X00497Y01378*
X00498Y01378*
X00498Y01377*
X00499Y01377*
X00499Y01376*
X005Y01376*
X005Y01376*
X00501Y01375*
X00501Y01375*
X00501Y01375*
X00501Y01375*
X00501Y01374*
X00502Y01373*
X00502Y01373*
X00502Y01372*
X00503Y01371*
X00503Y01371*
X00503Y0137*
X00503Y01369*
X00503Y01369*
X00503Y01368*
X00503Y01368*
X00503Y01368*
X00503Y01367*
Y01367*
Y01367*
Y01367*
X00503Y01366*
X00503Y01365*
X00503Y01364*
X00503Y01364*
X00503Y01363*
X00502Y01362*
X00502Y01362*
X00502Y01361*
X00502Y01361*
X00501Y01361*
X00501Y0136*
X00501Y0136*
X00501Y0136*
X00501Y01359*
X00501Y01359*
X00501Y01359*
X005Y01359*
X005Y01358*
X00499Y01358*
X00498Y01358*
X00498Y01357*
X00497Y01357*
X00497Y01357*
X00496Y01357*
X00495Y01357*
X00495Y01357*
X00495Y01357*
X00494Y01357*
X00494Y01357*
X00493*
X00492Y01357*
X00491Y01357*
X0049Y01357*
X00489Y01357*
X00489Y01358*
X00489Y01358*
X00488Y01358*
X00488Y01358*
X00488Y01358*
X00488Y01358*
X00488Y01358*
X00488*
X00487Y01359*
X00486Y0136*
X00485Y0136*
X00485Y01361*
X00484Y01362*
X00484Y01362*
X00484Y01362*
X00484Y01363*
X00484Y01363*
X00483Y01363*
Y01363*
X00489Y01364*
X00489Y01363*
X00489Y01363*
X0049Y01362*
X0049Y01362*
X00491Y01362*
X00491Y01362*
X00491Y01361*
X00492Y01361*
X00492Y01361*
X00493Y01361*
X00493Y01361*
X00493*
X00493Y01361*
X00493*
X00494Y01361*
X00495Y01361*
X00495Y01361*
X00496Y01362*
X00496Y01362*
X00496Y01362*
X00496Y01362*
X00496Y01362*
X00497Y01363*
X00497Y01363*
X00497Y01364*
X00498Y01364*
X00498Y01365*
X00498Y01365*
X00498Y01366*
Y01366*
Y01366*
Y01366*
Y01366*
X00498Y01366*
Y01366*
Y01366*
X00483*
X00483Y01367*
X00483Y01368*
X00483Y01368*
X00482Y01369*
Y01369*
X00482Y0137*
Y0137*
Y0137*
Y0137*
Y0137*
X00482Y01371*
X00483Y01372*
X00483Y01372*
X00483Y01373*
X00483Y01374*
X00483Y01374*
X00483Y01375*
X00484Y01375*
X00484Y01376*
X00484Y01376*
X00484Y01376*
X00484Y01377*
X00485Y01377*
X00485Y01377*
X00485Y01377*
X00485Y01377*
X00485Y01377*
X00486Y01378*
X00486Y01378*
X00487Y01379*
X00487Y01379*
X00488Y01379*
X00489Y01379*
X00489Y01379*
X0049Y01379*
X0049Y0138*
X00491Y0138*
X00491Y0138*
X00491*
X00492Y0138*
G37*
G36*
X00455Y01367D02*
X00455Y01366D01*
X00455Y01366*
X00456Y01365*
X00456Y01365*
X00456Y01364*
X00456Y01364*
X00456Y01364*
X00456Y01363*
Y01363*
X00456Y01363*
X00456Y01363*
Y01362*
Y01362*
X00456Y01361*
X00456Y01361*
X00455Y0136*
X00455Y01359*
X00455Y01359*
X00455Y01358*
X00455Y01358*
X00455Y01358*
X00454Y01358*
X00453Y01357*
X00453Y01357*
X00452Y01357*
X00451Y01357*
X00451Y01357*
X00451Y01357*
X00451*
X0045Y01357*
X00449Y01357*
X00448Y01357*
X00448Y01357*
X00447Y01357*
X00447Y01358*
X00446Y01358*
X00445Y01358*
X00445Y01359*
X00445Y01359*
X00444Y01359*
X00444Y01359*
X00444Y0136*
X00443Y0136*
X00443Y0136*
X00443Y0136*
X00444Y01357*
X00438*
X00433Y01379*
X00439*
X00442Y01369*
X00442Y01368*
X00442Y01367*
X00442Y01367*
X00442Y01366*
X00442Y01366*
X00442Y01366*
X00443Y01366*
Y01366*
X00443Y01365*
X00443Y01365*
X00443Y01364*
X00443Y01364*
X00443Y01364*
X00444Y01364*
X00444Y01364*
X00444Y01364*
X00444Y01363*
X00444Y01362*
X00445Y01362*
X00445Y01362*
X00445Y01362*
X00445Y01362*
X00445Y01362*
X00446Y01361*
X00446Y01361*
X00446Y01361*
X00446Y01361*
X00446*
X00447Y01361*
X00447Y01361*
X00447Y01361*
X00448*
X00448Y01361*
X00448Y01361*
X00449Y01361*
X00449Y01361*
X00449Y01361*
X00449Y01361*
X00449Y01361*
X00449Y01362*
X0045Y01362*
X0045Y01362*
X0045Y01362*
X0045Y01363*
X0045Y01363*
X0045Y01363*
Y01363*
Y01363*
Y01363*
X0045Y01363*
X0045Y01364*
X0045Y01364*
X0045Y01365*
X0045Y01365*
X0045Y01366*
X00449Y01366*
Y01366*
X00449Y01366*
Y01366*
X00447Y01379*
X00452*
X00455Y01367*
G37*
G36*
X00583Y0138D02*
X00584Y01379D01*
X00584Y01379*
X00585Y01379*
X00585Y01378*
X00586Y01378*
X00587Y01378*
X00587Y01377*
X00587Y01377*
X00588Y01376*
X00588Y01376*
X00588Y01376*
X00589Y01375*
X00589Y01375*
X00589Y01375*
X00589Y01375*
X00588Y01379*
X00594*
X00598Y01357*
X00592*
X00591Y01364*
X00591Y01365*
X00591Y01365*
X0059Y01366*
X0059Y01367*
X0059Y01367*
X0059Y01368*
X0059Y01368*
X0059Y01369*
X0059Y01369*
X00589Y01369*
X00589Y0137*
X00589Y0137*
X00589Y0137*
X00589Y0137*
X00589Y0137*
Y0137*
X00589Y01371*
X00588Y01371*
X00588Y01372*
X00588Y01372*
X00587Y01373*
X00587Y01373*
X00587Y01373*
X00587Y01373*
X00586Y01374*
X00586Y01374*
X00585Y01374*
X00585Y01374*
X00584Y01374*
X00584Y01374*
X00584*
X00583Y01374*
X00583Y01374*
X00582Y01374*
X00582Y01374*
X00582Y01374*
X00582Y01374*
X00582*
X0058Y01379*
X0058Y01379*
X00581Y01379*
X00581Y01379*
X00581Y0138*
X00582Y0138*
X00582Y0138*
X00582*
X00583Y0138*
G37*
G36*
X00558Y01357D02*
X00552D01*
X00546Y01387*
X00552*
X00558Y01357*
G37*
G36*
X0042Y0138D02*
X00421Y01379D01*
X00422Y01379*
X00422Y01379*
X00423Y01379*
X00424Y01379*
X00424Y01379*
X00425Y01378*
X00425Y01378*
X00426Y01378*
X00426Y01378*
X00426Y01377*
X00427Y01377*
X00427Y01377*
X00427Y01377*
X00427Y01377*
X00427Y01377*
X00428Y01376*
X00428Y01376*
X00428Y01375*
X00428Y01375*
X00429Y01374*
X00429Y01373*
X00429Y01373*
X00429Y01373*
X00429Y01373*
Y01373*
Y01373*
Y01372*
X00429Y01372*
X00429Y01372*
X00429Y01371*
X00428Y0137*
X00428Y01369*
X00428Y01369*
X00427Y01368*
X00427Y01368*
X00427Y01368*
X00427Y01368*
X00427Y01368*
X00426Y01368*
X00426Y01368*
X00425Y01367*
X00425Y01367*
X00424Y01367*
X00423Y01366*
X00423Y01366*
X00422Y01366*
X00422Y01366*
X00421Y01366*
X00421Y01366*
X00421Y01366*
X0042Y01365*
X0042Y01365*
X0042Y01365*
X00419Y01365*
X00419Y01365*
X00418Y01365*
X00418Y01364*
X00418Y01364*
X00418Y01364*
X00418Y01364*
X00418Y01364*
X00418Y01364*
X00417Y01364*
X00417Y01363*
Y01363*
Y01363*
X00417Y01363*
X00418Y01363*
X00418Y01362*
X00418Y01362*
X00418Y01362*
X00418Y01362*
X00418Y01362*
X00418Y01362*
X00419Y01361*
X00419Y01361*
X0042Y01361*
X0042Y01361*
X00421Y01361*
X00421Y01361*
X00421*
X00422Y01361*
X00423Y01361*
X00423Y01361*
X00424Y01361*
X00424Y01361*
X00424Y01361*
X00425Y01362*
X00425Y01362*
X00425Y01362*
X00425Y01362*
X00426Y01363*
X00426Y01363*
X00426Y01364*
X00426Y01364*
X00426Y01364*
X00426Y01364*
X00432Y01363*
X00432Y01362*
X00431Y01361*
X00431Y0136*
X0043Y0136*
X0043Y01359*
X00429Y01359*
X00429Y01359*
X00429Y01358*
X00429Y01358*
X00429Y01358*
X00428Y01358*
X00428Y01358*
X00426Y01357*
X00425Y01357*
X00424Y01357*
X00423Y01357*
X00423Y01357*
X00423Y01357*
X00422*
X00422Y01357*
X00421*
X0042Y01357*
X0042Y01357*
X00419Y01357*
X00418Y01357*
X00418Y01357*
X00417Y01357*
X00416Y01358*
X00416Y01358*
X00415Y01358*
X00415Y01358*
X00415Y01358*
X00414Y01359*
X00414Y01359*
X00414Y01359*
X00414Y01359*
X00414Y01359*
X00414Y01359*
X00413Y0136*
X00413Y0136*
X00412Y01361*
X00412Y01361*
X00412Y01362*
X00412Y01362*
X00412Y01363*
X00411Y01364*
X00411Y01364*
X00411Y01364*
Y01364*
Y01364*
Y01364*
X00411Y01365*
X00411Y01365*
X00412Y01366*
X00412Y01367*
X00412Y01367*
X00413Y01368*
X00413Y01368*
X00413Y01368*
X00413Y01368*
X00413*
X00414Y01369*
X00414Y01369*
X00414Y01369*
X00415Y01369*
X00416Y0137*
X00417Y0137*
X00418Y0137*
X00418Y01371*
X00419Y01371*
X00419Y01371*
X00419Y01371*
X00419Y01371*
X00419*
X0042Y01371*
X0042Y01371*
X00421Y01371*
X00421Y01371*
X00421Y01372*
X00421Y01372*
X00422Y01372*
X00422Y01372*
X00422Y01372*
X00422Y01372*
X00423*
X00423Y01372*
X00423Y01373*
X00423Y01373*
X00423Y01373*
X00423Y01373*
X00423Y01373*
Y01373*
Y01373*
X00423Y01374*
X00423Y01374*
X00423Y01374*
X00423Y01375*
X00423Y01375*
X00423Y01375*
X00423Y01375*
X00422Y01375*
X00422Y01375*
X00421Y01375*
X00421Y01375*
X0042Y01375*
X0042Y01375*
X0042*
X00419Y01375*
X00419Y01375*
X00418Y01375*
X00418Y01375*
X00417Y01375*
X00417Y01375*
X00417Y01375*
X00417Y01375*
X00416Y01374*
X00416Y01374*
X00416Y01374*
X00416Y01374*
X00415Y01373*
X00415Y01373*
X00415Y01373*
Y01373*
X0041Y01374*
X0041Y01375*
X0041Y01376*
X00411Y01376*
X00411Y01377*
X00412Y01377*
X00412Y01378*
X00412Y01378*
X00412Y01378*
X00413Y01378*
X00413*
X00413Y01378*
X00413Y01379*
X00414Y01379*
X00416Y01379*
X00417Y01379*
X00417Y01379*
X00418Y0138*
X00418Y0138*
X00418*
X00419Y0138*
X00419*
X0042Y0138*
G37*
%LNnema17pancake-2*%
%LPC*%
G36*
X00712Y0141D02*
X00707D01*
Y01409*
X00712*
Y0141*
G37*
G36*
X0058D02*
X00576D01*
Y01409*
X0058*
Y0141*
G37*
G36*
X0056D02*
X00556D01*
Y01407*
X0056*
Y01409*
Y0141*
G37*
G36*
X00472D02*
X00468D01*
Y01407*
X00472*
Y0141*
G37*
G36*
X00421D02*
X00417D01*
Y01409*
Y01408*
X00421*
Y0141*
G37*
G36*
X00729Y01412D02*
X00718D01*
Y01407*
X00729*
Y01408*
X00719*
Y01411*
X00729*
Y01412*
G37*
G36*
X00681Y0141D02*
X00677D01*
Y01407*
X00681*
Y0141*
G37*
G36*
X00642Y01408D02*
X00638D01*
Y01407*
X00642*
Y01408*
G37*
G36*
X00621Y0141D02*
X00617D01*
Y01407*
X00621*
Y0141*
G37*
G36*
X00593D02*
X00589D01*
Y01409*
X00593*
Y0141*
G37*
G36*
X00499D02*
X00486D01*
Y01409*
X00492*
Y01408*
X00493*
Y01407*
X00499*
Y0141*
G37*
G36*
X0049Y01408D02*
X00486D01*
Y01407*
X0049*
Y01408*
G37*
G36*
X00397Y0141D02*
X00394D01*
Y01409*
X00397*
Y0141*
G37*
G36*
X00388D02*
X00384D01*
Y01409*
X00388*
Y0141*
G37*
G36*
X00357D02*
X00353D01*
Y01409*
Y01408*
X00357*
Y0141*
G37*
G36*
X00568Y01367D02*
X00568D01*
X00568Y01367*
X00568Y01366*
X00568Y01365*
X00568Y01365*
X00568Y01364*
X00569Y01364*
X00569Y01364*
X00569Y01363*
X00569Y01363*
X00569Y01363*
X00569Y01363*
X0057Y01362*
X0057Y01362*
X0057Y01362*
X0057Y01362*
X0057Y01362*
X00571Y01362*
X00571Y01361*
X00571Y01361*
X00572Y01361*
X00572Y01361*
X00573Y01361*
X00573Y01361*
X00573*
X00573Y01361*
X00574Y01361*
X00574Y01361*
X00574Y01361*
X00575Y01362*
X00575Y01362*
X00575Y01362*
X00575Y01362*
X00575Y01362*
X00575Y01362*
X00576Y01363*
X00576Y01363*
X00576Y01363*
X00576Y01363*
Y01363*
Y01364*
X00576Y01364*
X00576Y01364*
X00575Y01365*
X00575Y01365*
X00575Y01365*
X00575Y01365*
X00575Y01365*
X00575Y01366*
X00574Y01366*
X00574Y01366*
X00574Y01366*
X00573Y01366*
X00572Y01366*
X00571Y01367*
X0057Y01367*
X0057Y01367*
X0057Y01367*
X00569Y01367*
X00569*
X00569Y01367*
X00569*
X00568Y01367*
X00568Y01367*
X00568Y01367*
X00568Y01367*
X00568*
X00568Y01367*
G37*
G36*
X00635Y01375D02*
X00635D01*
X00634Y01375*
X00634Y01375*
X00633Y01375*
X00633Y01375*
X00632Y01375*
X00632Y01374*
X00632Y01374*
X00632Y01374*
X00632Y01374*
X00631Y01373*
X00631Y01372*
X00631Y01372*
X00631Y01371*
X00631Y01371*
Y01371*
Y01371*
Y01371*
Y0137*
Y0137*
Y0137*
Y0137*
Y0137*
X0064*
X0064Y01371*
X0064Y01372*
X00639Y01372*
X00639Y01373*
X00639Y01373*
X00638Y01374*
X00638Y01374*
X00638Y01374*
X00638Y01374*
X00637Y01375*
X00636Y01375*
X00636Y01375*
X00636Y01375*
X00635Y01375*
X00635Y01375*
G37*
G36*
X00492D02*
X00492D01*
X00491Y01375*
X00491Y01375*
X0049Y01375*
X0049Y01375*
X00489Y01375*
X00489Y01374*
X00489Y01374*
X00489Y01374*
X00489Y01374*
X00488Y01373*
X00488Y01372*
X00488Y01372*
X00488Y01371*
X00488Y01371*
Y01371*
Y01371*
Y01371*
Y0137*
Y0137*
Y0137*
Y0137*
Y0137*
X00497*
X00497Y01371*
X00497Y01372*
X00496Y01372*
X00496Y01373*
X00496Y01373*
X00495Y01374*
X00495Y01374*
X00495Y01374*
X00495Y01374*
X00494Y01375*
X00493Y01375*
X00493Y01375*
X00492Y01375*
X00492Y01375*
X00492Y01375*
G37*
%LNnema17pancake-3*%
%LPD*%
G54D10*
X00631Y00468D02*
Y01118D01*
X00011Y00468D02*
Y01118D01*
X00167*
X00421D02*
X00631D01*
X00011Y00468D02*
X00167D01*
X00421D02*
X00631D01*
X01166Y01095D02*
Y01121D01*
X01096Y01076D02*
X01122D01*
X01052Y01095D02*
Y01121D01*
X00965Y01568D02*
X01256D01*
Y01342D02*
Y01568D01*
X00965Y01342D02*
X01256D01*
X00965D02*
Y01568D01*
G54D28*
X0094Y01434D02*
D01*
X0094Y01434*
X0094Y01435*
X0094Y01435*
X0094Y01435*
X00939Y01435*
X00939Y01436*
X00939Y01436*
X00939Y01436*
X00939Y01436*
X00939Y01437*
X00939Y01437*
X00938Y01437*
X00938Y01437*
X00938Y01437*
X00938Y01438*
X00937Y01438*
X00937Y01438*
X00937Y01438*
X00937Y01438*
X00936Y01438*
X00936Y01438*
X00936Y01438*
X00936*
X00935Y01438*
X00935Y01438*
X00935Y01438*
X00935Y01438*
X00934Y01438*
X00934Y01438*
X00934Y01438*
X00934Y01437*
X00933Y01437*
X00933Y01437*
X00933Y01437*
X00933Y01437*
X00933Y01436*
X00932Y01436*
X00932Y01436*
X00932Y01436*
X00932Y01435*
X00932Y01435*
X00932Y01435*
X00932Y01435*
X00932Y01434*
X00932Y01434*
X00932Y01434*
X00932Y01434*
X00932Y01433*
X00932Y01433*
X00932Y01433*
X00932Y01433*
X00932Y01432*
X00932Y01432*
X00933Y01432*
X00933Y01432*
X00933Y01431*
X00933Y01431*
X00933Y01431*
X00934Y01431*
X00934Y01431*
X00934Y01431*
X00934Y0143*
X00935Y0143*
X00935Y0143*
X00935Y0143*
X00935Y0143*
X00936Y0143*
X00936*
X00936Y0143*
X00936Y0143*
X00937Y0143*
X00937Y0143*
X00937Y0143*
X00937Y01431*
X00938Y01431*
X00938Y01431*
X00938Y01431*
X00938Y01431*
X00939Y01431*
X00939Y01432*
X00939Y01432*
X00939Y01432*
X00939Y01432*
X00939Y01433*
X00939Y01433*
X0094Y01433*
X0094Y01433*
X0094Y01434*
X0094Y01434*
X0094Y01434*
X0094Y0101D02*
Y01027D01*
X00881Y0101D02*
Y01027D01*
X00901Y00947D02*
X00921D01*
X00911Y00937D02*
Y00956D01*
X00866Y01101D02*
Y01231D01*
X00955Y01101D02*
Y01231D01*
M02*