%FSTAX23Y23*%
%MOIN*%
%SFA1B1*%

%IPPOS*%
%ADD10C,0.005000*%
%ADD52C,0.006665*%
%LNnema17pancake-1*%
%LPD*%
G54D10*
X00326Y00913D02*
X00306Y00953D01*
X00346*
X00326Y00913*
X00396Y00873D02*
X00376Y00913D01*
X00416*
X00396Y00873*
X00326Y00833D02*
X00306Y00873D01*
X00346*
X00326Y00833*
X00396Y00793D02*
X00376Y00833D01*
X00416*
X00396Y00793*
X00326Y00753D02*
X00306Y00793D01*
X00346*
X00326Y00753*
X00396Y00713D02*
X00376Y00753D01*
X00416*
X00396Y00713*
X00326Y00673D02*
X00306Y00713D01*
X00346*
X00326Y00673*
X00396Y00633D02*
X00376Y00673D01*
X00416*
X00396Y00633*
X00226Y01023D02*
X00236Y01033D01*
X00246*
X00236Y01043*
X00246Y01053*
X00236*
X00226Y01063*
X00216Y01053*
X00206*
X00216Y01043*
X00206Y01033*
X00216*
X00226Y01023*
Y00523D02*
X00236Y00533D01*
X00246*
X00236Y00543*
X00246Y00553*
X00236*
X00226Y00563*
X00216Y00553*
X00206*
X00216Y00543*
X00206Y00533*
X00216*
X00226Y00523*
X01041Y01414D02*
X01051Y01434D01*
X01041Y01454*
X01061Y01444*
X01081Y01454*
X01071Y01434*
X01081Y01414*
X01061Y01424*
X01041Y01414*
X0114D02*
X0115Y01434D01*
X0114Y01454*
X0116Y01444*
X0118Y01454*
X0117Y01434*
X0118Y01414*
X0116Y01424*
X0114Y01414*
X01377Y00157D02*
Y00197D01*
X01417*
Y00157*
X01377*
X00157Y01378D02*
Y01418D01*
X00197*
Y01378*
X00157*
Y00157D02*
Y00197D01*
X00197*
Y00157*
X00157*
X01377Y01378D02*
Y01418D01*
X01417*
Y01378*
X01377*
X00373Y00373D02*
X00383D01*
X00393Y00383*
X00403Y00373*
X00413*
Y00383*
X00403Y00393*
X00413Y00403*
Y00413*
X00403*
X00393Y00403*
X00383Y00413*
X00373*
Y00403*
X00383Y00393*
X00373Y00383*
Y00373*
X002Y00681D02*
Y00671D01*
X0022*
Y00681*
X0023*
Y00701*
X0022*
Y00711*
X002*
Y00701*
X0019*
Y00681*
X002*
X00199Y0084D02*
Y0083D01*
X00219*
Y0084*
X00229*
Y0086*
X00219*
Y0087*
X00199*
Y0086*
X00189*
Y0084*
X00199*
Y00921D02*
Y00911D01*
X00219*
Y00921*
X00229*
Y00941*
X00219*
Y00951*
X00199*
Y00941*
X00189*
Y00921*
X00199*
X01357Y00767D02*
X01367D01*
X01377Y00777*
X01387Y00767*
X01397*
Y00777*
X01387Y00787*
X01397Y00797*
Y00807*
X01387*
X01377Y00797*
X01367Y00807*
X01357*
Y00797*
X01367Y00787*
X01357Y00777*
Y00767*
X01161Y00373D02*
X01171D01*
X01181Y00383*
X01191Y00373*
X01201*
Y00383*
X01191Y00393*
X01201Y00403*
Y00413*
X01191*
X01181Y00403*
X01171Y00413*
X01161*
Y00403*
X01171Y00393*
X01161Y00383*
Y00373*
X00767Y01161D02*
X00777D01*
X00787Y01171*
X00797Y01161*
X00807*
Y01171*
X00797Y01181*
X00807Y01191*
Y01201*
X00797*
X00787Y01191*
X00777Y01201*
X00767*
Y01191*
X00777Y01181*
X00767Y01171*
Y01161*
Y00373D02*
X00777D01*
X00787Y00383*
X00797Y00373*
X00807*
Y00383*
X00797Y00393*
X00807Y00403*
Y00413*
X00797*
X00787Y00403*
X00777Y00413*
X00767*
Y00403*
X00777Y00393*
X00767Y00383*
Y00373*
X00509Y00803D02*
Y00793D01*
X00529*
Y00803*
X00539*
Y00823*
X00529*
Y00833*
X00509*
Y00823*
X00499*
Y00803*
X00509*
X00954Y00838D02*
Y00828D01*
X00974*
Y00838*
X00984*
Y00858*
X00974*
Y00868*
X00954*
Y00858*
X00944*
Y00838*
X00954*
X01018Y0063D02*
Y0062D01*
X01038*
Y0063*
X01048*
Y0065*
X01038*
Y0066*
X01018*
Y0065*
X01008*
Y0063*
X01018*
X00988D02*
Y0062D01*
X01008*
Y0063*
X01018*
Y0065*
X01008*
Y0066*
X00988*
Y0065*
X00978*
Y0063*
X00988*
X00959D02*
Y0062D01*
X00979*
Y0063*
X00989*
Y0065*
X00979*
Y0066*
X00959*
Y0065*
X00949*
Y0063*
X00959*
X00602Y0075D02*
Y0074D01*
X00622*
Y0075*
X00632*
Y0077*
X00622*
Y0078*
X00602*
Y0077*
X00592*
Y0075*
X00602*
X01065Y00764D02*
Y00754D01*
X01085*
Y00764*
X01095*
Y00784*
X01085*
Y00794*
X01065*
Y00784*
X01055*
Y00764*
X01065*
X01065Y00799D02*
Y00789D01*
X01085*
Y00799*
X01095*
Y00819*
X01085*
Y00829*
X01065*
Y00819*
X01055*
Y00799*
X01065*
X01066Y00728D02*
Y00718D01*
X01086*
Y00728*
X01096*
Y00748*
X01086*
Y00758*
X01066*
Y00748*
X01056*
Y00728*
X01066*
G54D52*
X00381Y01113D02*
D01*
X00381Y01114*
X00381Y01116*
X0038Y01117*
X0038Y01118*
X0038Y0112*
X00379Y01121*
X00379Y01122*
X00378Y01123*
X00377Y01125*
X00376Y01126*
X00375Y01127*
X00374Y01128*
X00373Y01129*
X00372Y01129*
X00371Y0113*
X0037Y01131*
X00368Y01131*
X00367Y01132*
X00366Y01132*
X00364Y01133*
X00363Y01133*
X00362Y01133*
X0036*
X00359Y01133*
X00357Y01133*
X00356Y01132*
X00355Y01132*
X00353Y01131*
X00352Y01131*
X00351Y0113*
X0035Y01129*
X00349Y01129*
X00348Y01128*
X00347Y01127*
X00346Y01126*
X00345Y01125*
X00344Y01123*
X00343Y01122*
X00343Y01121*
X00342Y0112*
X00342Y01118*
X00341Y01117*
X00341Y01116*
X00341Y01114*
X00341Y01113*
X00341Y01111*
X00341Y0111*
X00341Y01109*
X00342Y01107*
X00342Y01106*
X00343Y01105*
X00343Y01103*
X00344Y01102*
X00345Y01101*
X00346Y011*
X00347Y01099*
X00348Y01098*
X00349Y01097*
X0035Y01096*
X00351Y01096*
X00352Y01095*
X00353Y01094*
X00355Y01094*
X00356Y01093*
X00357Y01093*
X00359Y01093*
X0036Y01093*
X00362*
X00363Y01093*
X00364Y01093*
X00366Y01093*
X00367Y01094*
X00368Y01094*
X0037Y01095*
X00371Y01096*
X00372Y01096*
X00373Y01097*
X00374Y01098*
X00375Y01099*
X00376Y011*
X00377Y01101*
X00378Y01102*
X00379Y01103*
X00379Y01105*
X0038Y01106*
X0038Y01107*
X0038Y01109*
X00381Y0111*
X00381Y01111*
X00381Y01113*
Y00473D02*
D01*
X00381Y00474*
X00381Y00476*
X0038Y00477*
X0038Y00478*
X0038Y0048*
X00379Y00481*
X00379Y00482*
X00378Y00483*
X00377Y00484*
X00376Y00486*
X00375Y00487*
X00374Y00488*
X00373Y00488*
X00372Y00489*
X00371Y0049*
X0037Y00491*
X00368Y00491*
X00367Y00492*
X00366Y00492*
X00364Y00492*
X00363Y00493*
X00362Y00493*
X0036*
X00359Y00493*
X00357Y00492*
X00356Y00492*
X00355Y00492*
X00353Y00491*
X00352Y00491*
X00351Y0049*
X0035Y00489*
X00349Y00488*
X00348Y00488*
X00347Y00487*
X00346Y00486*
X00345Y00484*
X00344Y00483*
X00343Y00482*
X00343Y00481*
X00342Y0048*
X00342Y00478*
X00341Y00477*
X00341Y00476*
X00341Y00474*
X00341Y00473*
X00341Y00471*
X00341Y0047*
X00341Y00469*
X00342Y00467*
X00342Y00466*
X00343Y00465*
X00343Y00463*
X00344Y00462*
X00345Y00461*
X00346Y0046*
X00347Y00459*
X00348Y00458*
X00349Y00457*
X0035Y00456*
X00351Y00455*
X00352Y00455*
X00353Y00454*
X00355Y00454*
X00356Y00453*
X00357Y00453*
X00359Y00453*
X0036Y00453*
X00362*
X00363Y00453*
X00364Y00453*
X00366Y00453*
X00367Y00454*
X00368Y00454*
X0037Y00455*
X00371Y00455*
X00372Y00456*
X00373Y00457*
X00374Y00458*
X00375Y00459*
X00376Y0046*
X00377Y00461*
X00378Y00462*
X00379Y00463*
X00379Y00465*
X0038Y00466*
X0038Y00467*
X0038Y00469*
X00381Y0047*
X00381Y00471*
X00381Y00473*
M02*