%FSTAX23Y23*%
%MOIN*%
%SFA1B1*%

%IPPOS*%
%AMD42*
4,1,8,-0.015500,-0.027200,0.015500,-0.027200,0.020700,-0.022000,0.020700,0.022000,0.015500,0.027200,-0.015500,0.027200,-0.020700,0.022000,-0.020700,-0.022000,-0.015500,-0.027200,0.0*
1,1,0.010339,-0.015500,-0.022000*
1,1,0.010339,0.015500,-0.022000*
1,1,0.010339,0.015500,0.022000*
1,1,0.010339,-0.015500,0.022000*
%
%AMD43*
4,1,8,0.011600,-0.018000,0.011600,0.018000,0.005800,0.023800,-0.005800,0.023800,-0.011600,0.018000,-0.011600,-0.018000,-0.005800,-0.023800,0.005800,-0.023800,0.011600,-0.018000,0.0*
1,1,0.011614,0.005800,-0.018000*
1,1,0.011614,0.005800,0.018000*
1,1,0.011614,-0.005800,0.018000*
1,1,0.011614,-0.005800,-0.018000*
%
%ADD11R,0.012000X0.022000*%
%ADD30C,0.095669*%
%ADD31R,0.057008X0.057008*%
%ADD32C,0.057008*%
%ADD33C,0.129921*%
%ADD34R,0.062008X0.062008*%
%ADD35C,0.062008*%
%ADD36C,0.039370*%
%ADD37C,0.050000*%
%ADD38C,0.017716*%
%ADD39C,0.023622*%
%ADD40R,0.049212X0.023622*%
%ADD41R,0.057563X0.053331*%
G04~CAMADD=42~8~0.0~0.0~413.4~543.3~51.7~0.0~15~0.0~0.0~0.0~0.0~0~0.0~0.0~0.0~0.0~0~0.0~0.0~0.0~180.0~414.0~544.0*
%ADD42D42*%
G04~CAMADD=43~8~0.0~0.0~476.4~232.3~58.1~0.0~15~0.0~0.0~0.0~0.0~0~0.0~0.0~0.0~0.0~0~0.0~0.0~0.0~270.0~232.0~476.0*
%ADD43D43*%
%ADD44C,0.015000*%
%LNnema17pancake-1*%
%LPD*%
G36*
X01572Y01439D02*
X01572Y01438D01*
X01572Y00135*
X0144Y00003*
X00137*
X00136Y00002*
X00003Y00135*
Y01437*
X00001Y01438*
X00135Y01572*
X01439*
X01572Y01439*
G37*
%LNnema17pancake-2*%
%LPC*%
G36*
X01404Y01464D02*
X01391D01*
X01378Y01462*
X01365Y01457*
X01354Y0145*
X01345Y0144*
X01338Y01429*
X01333Y01417*
X0133Y01404*
Y01391*
X01333Y01378*
X01338Y01366*
X01345Y01355*
X01354Y01346*
X01365Y01338*
X01378Y01333*
X01391Y01331*
X01404*
X01417Y01333*
X01429Y01338*
X0144Y01346*
X01449Y01355*
X01456Y01366*
X01461Y01378*
X01464Y01391*
Y01404*
X01461Y01417*
X01456Y01429*
X01449Y0144*
X0144Y0145*
X01429Y01457*
X01417Y01462*
X01404Y01464*
G37*
G36*
X00184D02*
X0017D01*
X00158Y01462*
X00145Y01457*
X00134Y0145*
X00125Y0144*
X00118Y01429*
X00113Y01417*
X0011Y01404*
Y01391*
X00113Y01378*
X00118Y01366*
X00125Y01355*
X00134Y01346*
X00145Y01338*
X00158Y01333*
X0017Y01331*
X00184*
X00197Y01333*
X00209Y01338*
X0022Y01346*
X00229Y01355*
X00236Y01366*
X00241Y01378*
X00244Y01391*
Y01404*
X00241Y01417*
X00236Y01429*
X00229Y0144*
X0022Y0145*
X00209Y01457*
X00197Y01462*
X00184Y01464*
G37*
G36*
X0124Y01543D02*
X01033D01*
X01028Y01541*
X01Y01512*
X00998Y01507*
X00999Y01504*
Y01398*
X01001Y01393*
X01006Y01392*
X01006*
X01029Y01369*
Y01116*
X01031Y01112*
X01036Y0111*
X01086*
X01091Y01112*
X01093Y01114*
X01095Y01119*
Y01186*
X011*
X01101Y01187*
X01101Y01187*
X01106Y01187*
X01108Y01188*
X0111Y01189*
X0111Y0119*
X0111Y0119*
X01111Y01192*
X01111Y01194*
Y0147*
Y01476*
X01118Y01482*
X01187*
X01231Y01439*
Y01229*
X01198Y01196*
X01131*
X01127Y01194*
X01125Y01189*
Y0113*
X01125Y01129*
X01125Y01129*
X01126Y01127*
X01127Y01126*
X01128Y01125*
X01128Y01125*
X01132Y01122*
X01134Y01122*
X01135Y01121*
X01232*
X01237Y01123*
X01308Y01194*
X01309Y01199*
Y01473*
X01308Y01477*
X01244Y01541*
X0124Y01543*
G37*
G36*
X00945Y0116D02*
X00876D01*
Y01095*
X00897*
Y01072*
X0088*
Y01036*
X00941*
Y01072*
X00924*
Y01095*
X00945*
Y0116*
G37*
G36*
X01152Y01089D02*
X01141D01*
X01136Y01088*
X01132Y01085*
X0113Y01081*
X01129Y01077*
Y01041*
X0113Y01036*
X01132Y01032*
X01136Y0103*
X01141Y01029*
X01152*
X01157Y0103*
X01161Y01032*
X01163Y01036*
X01164Y01041*
Y01077*
X01163Y01081*
X01161Y01085*
X01157Y01088*
X01152Y01089*
G37*
G36*
X00233Y01114D02*
X00219D01*
X00205Y01111*
X00192Y01106*
X00181Y01098*
X00171Y01088*
X00163Y01076*
X00158Y01063*
X00155Y0105*
Y01036*
X00158Y01022*
X00163Y01009*
X00171Y00998*
X00181Y00988*
X00192Y0098*
X00205Y00975*
X00219Y00972*
X00233*
X00247Y00975*
X00259Y0098*
X00271Y00988*
X00281Y00998*
X00289Y01009*
X00294Y01022*
X00297Y01036*
Y0105*
X00294Y01063*
X00289Y01076*
X00281Y01088*
X00271Y01098*
X00259Y01106*
X00247Y01111*
X00233Y01114*
G37*
G36*
X0036Y00967D02*
X00291D01*
Y00898*
X0036*
Y00967*
G37*
G36*
X0033Y00887D02*
X00321D01*
X00313Y00885*
X00305Y0088*
X00298Y00874*
X00294Y00866*
X00291Y00857*
Y00848*
X00294Y0084*
X00298Y00832*
X00305Y00825*
X00313Y00821*
X00321Y00818*
X0033*
X00339Y00821*
X00347Y00825*
X00353Y00832*
X00358Y0084*
X0036Y00848*
Y00857*
X00358Y00866*
X00353Y00874*
X00347Y0088*
X00339Y00885*
X0033Y00887*
G37*
G36*
X004Y00847D02*
X00391D01*
X00383Y00845*
X00375Y0084*
X00368Y00834*
X00364Y00826*
X00362Y00817*
Y00808*
X00364Y008*
X00368Y00792*
X00375Y00785*
X00383Y00781*
X00391Y00778*
X004*
X00409Y00781*
X00417Y00785*
X00423Y00792*
X00428Y008*
X0043Y00808*
Y00817*
X00428Y00826*
X00423Y00834*
X00417Y0084*
X00409Y00845*
X004Y00847*
G37*
G36*
X011Y01102D02*
X01022D01*
X01017Y011*
X01001Y01084*
X00999Y01079*
Y01022*
X00872*
X00867Y01021*
X00857Y0101*
X00855Y01006*
Y00949*
X00857Y00945*
X00861Y00943*
X01023*
X01049Y00917*
Y00718*
X01051Y00713*
X01056Y00712*
X011*
X01104Y00713*
X01106Y00715*
X01108Y0072*
Y01095*
X01107Y01095*
X01108Y01096*
X01107Y01098*
X01106Y01099*
X01105Y01099*
X01104Y011*
X01103Y01101*
X01102Y01101*
X011Y01102*
G37*
G36*
X0033Y00727D02*
X00321D01*
X00313Y00725*
X00305Y0072*
X00298Y00714*
X00294Y00706*
X00291Y00697*
Y00688*
X00294Y0068*
X00298Y00672*
X00305Y00665*
X00313Y00661*
X00321Y00658*
X0033*
X00339Y00661*
X00347Y00665*
X00353Y00672*
X00358Y0068*
X0036Y00688*
Y00697*
X00358Y00706*
X00353Y00714*
X00347Y0072*
X00339Y00725*
X0033Y00727*
G37*
G36*
X00233Y00614D02*
X00219D01*
X00205Y00611*
X00192Y00606*
X00181Y00598*
X00171Y00588*
X00163Y00576*
X00158Y00563*
X00155Y0055*
Y00536*
X00158Y00522*
X00163Y00509*
X00171Y00498*
X00181Y00488*
X00192Y0048*
X00205Y00475*
X00219Y00472*
X00233*
X00247Y00475*
X00259Y0048*
X00271Y00488*
X00281Y00498*
X00289Y00509*
X00294Y00522*
X00297Y00536*
Y0055*
X00294Y00563*
X00289Y00576*
X00281Y00588*
X00271Y00598*
X00259Y00606*
X00247Y00611*
X00233Y00614*
G37*
G36*
X01404Y00244D02*
X01391D01*
X01378Y00241*
X01365Y00236*
X01354Y00229*
X01345Y0022*
X01338Y00209*
X01333Y00197*
X0133Y00184*
Y0017*
X01333Y00158*
X01338Y00145*
X01345Y00134*
X01354Y00125*
X01365Y00118*
X01378Y00113*
X01391Y0011*
X01404*
X01417Y00113*
X01429Y00118*
X0144Y00125*
X01449Y00134*
X01456Y00145*
X01461Y00158*
X01464Y0017*
Y00184*
X01461Y00197*
X01456Y00209*
X01449Y0022*
X0144Y00229*
X01429Y00236*
X01417Y00241*
X01404Y00244*
G37*
G36*
X00184D02*
X0017D01*
X00158Y00241*
X00145Y00236*
X00134Y00229*
X00125Y0022*
X00118Y00209*
X00113Y00197*
X0011Y00184*
Y0017*
X00113Y00158*
X00118Y00145*
X00125Y00134*
X00134Y00125*
X00145Y00118*
X00158Y00113*
X0017Y0011*
X00184*
X00197Y00113*
X00209Y00118*
X0022Y00125*
X00229Y00134*
X00236Y00145*
X00241Y00158*
X00244Y0017*
Y00184*
X00241Y00197*
X00236Y00209*
X00229Y0022*
X0022Y00229*
X00209Y00236*
X00197Y00241*
X00184Y00244*
G37*
%LNnema17pancake-3*%
%LPD*%
G36*
X01303Y01473D02*
Y01199D01*
X01232Y01128*
X01135*
X01131Y0113*
Y01189*
X01201*
X01237Y01226*
Y01442*
X0119Y01489*
X01115*
X01105Y01479*
Y0147*
Y01194*
X011Y01193*
X01088*
Y01119*
X01086Y01116*
X01036*
Y01371*
X01009Y01398*
X01006*
Y01506*
X01004Y01507*
X01033Y01536*
X0124*
X01303Y01473*
G37*
G36*
X011Y01095D02*
X01101Y01095D01*
Y0072*
X011Y00718*
X01056*
Y00919*
X01025Y0095*
X01025Y00949*
X00861*
Y01006*
X00872Y01016*
X01006*
Y01079*
X01022Y01095*
X011*
G37*
G54D11*
X01096Y01301D03*
X01121D03*
G54D30*
X00361Y01113D03*
Y00473D03*
G54D31*
X00326Y00933D03*
G54D32*
X00396Y00893D03*
X00326Y00853D03*
X00396Y00813D03*
X00326Y00773D03*
X00396Y00733D03*
X00326Y00693D03*
X00396Y00653D03*
G54D33*
X00226Y01043D03*
Y00543D03*
G54D34*
X01061Y01434D03*
G54D35*
X0116Y01434D03*
G54D36*
X01397Y00177D03*
X00177Y01398D03*
Y00177D03*
X01397Y01398D03*
G54D37*
X01377Y00787D03*
X01181Y00393D03*
X00787Y01181D03*
Y00393D03*
X00393D03*
X01377Y00787D03*
X01181Y00393D03*
X00787Y01181D03*
Y00393D03*
G54D38*
X0021Y00691D03*
X00209Y0085D03*
Y00931D03*
X00519Y00813D03*
X00964Y00848D03*
X01028Y0064D03*
X00998D03*
X00969D03*
X00612Y0076D03*
G54D39*
X01075Y00774D03*
X01075Y00809D03*
X01076Y00738D03*
G54D40*
X00911Y00983D03*
Y01054D03*
G54D41*
X00911Y01128D03*
Y01204D03*
G54D42*
X01074Y00979D03*
X01144D03*
X01144Y01234D03*
X01074D03*
G54D43*
X01072Y01059D03*
X01146D03*
Y01157D03*
X01109D03*
X01072D03*
G54D44*
X00911Y01054D02*
Y01128D01*
Y01054D02*
X00911Y01054D01*
M02*