%FSTAX23Y23*%
%MOIN*%
%SFA1B1*%

%IPPOS*%
%AMD12*
4,1,8,-0.012500,0.006200,-0.012500,-0.006200,-0.006200,-0.012500,0.006200,-0.012500,0.012500,-0.006200,0.012500,0.006200,0.006200,0.012500,-0.006200,0.012500,-0.012500,0.006200,0.0*
1,1,0.012504,-0.006200,0.006200*
1,1,0.012504,-0.006200,-0.006200*
1,1,0.012504,0.006200,-0.006200*
1,1,0.012504,0.006200,0.006200*
%
%AMD13*
4,1,8,0.026900,0.008100,-0.026900,0.008100,-0.028900,0.006100,-0.028900,-0.006100,-0.026900,-0.008100,0.026900,-0.008100,0.028900,-0.006100,0.028900,0.006100,0.026900,0.008100,0.0*
1,1,0.004039,0.026900,0.006100*
1,1,0.004039,-0.026900,0.006100*
1,1,0.004039,-0.026900,-0.006100*
1,1,0.004039,0.026900,-0.006100*
%
%ADD11R,0.012000X0.022000*%
G04~CAMADD=12~8~0.0~0.0~250.0~250.0~62.5~0.0~15~0.0~0.0~0.0~0.0~0~0.0~0.0~0.0~0.0~0~0.0~0.0~0.0~90.0~250.0~250.0*
%ADD12D12*%
G04~CAMADD=13~8~0.0~0.0~578.7~161.4~20.2~0.0~15~0.0~0.0~0.0~0.0~0~0.0~0.0~0.0~0.0~0~0.0~0.0~0.0~0.0~578.7~161.4*
%ADD13D13*%
%ADD14R,0.061268X0.059236*%
%ADD30C,0.095669*%
%ADD31R,0.057008X0.057008*%
%ADD32C,0.057008*%
%ADD33C,0.129921*%
%ADD34R,0.062008X0.062008*%
%ADD35C,0.062008*%
%ADD36C,0.039370*%
%LNnema17pancake-1*%
%LPD*%
G54D11*
X00264Y00691D03*
X00239D03*
X00262Y0093D03*
X00237D03*
X00262Y0085D03*
X00237D03*
X00456Y00812D03*
X00481D03*
G54D12*
X00575Y00812D03*
X0061D03*
G54D13*
X00674Y00864D03*
Y00838D03*
Y00812D03*
Y00787D03*
Y00761D03*
Y00736D03*
Y0071D03*
X009D03*
Y00736D03*
Y00761D03*
Y00787D03*
Y00812D03*
Y00838D03*
Y00864D03*
G54D14*
X00998Y00698D03*
Y00769D03*
G54D30*
X00361Y01113D03*
Y00473D03*
G54D31*
X00326Y00933D03*
G54D32*
X00396Y00893D03*
X00326Y00853D03*
X00396Y00813D03*
X00326Y00773D03*
X00396Y00733D03*
X00326Y00693D03*
X00396Y00653D03*
G54D33*
X00226Y01043D03*
Y00543D03*
G54D34*
X01061Y01434D03*
G54D35*
X0116Y01434D03*
G54D36*
X01397Y00177D03*
X00177Y01398D03*
Y00177D03*
X01397Y01398D03*
M02*