%FSTAX23Y23*%
%MOIN*%
%SFA1B1*%

%IPPOS*%
%AMD45*
4,1,8,-0.015500,-0.031200,0.015500,-0.031200,0.024700,-0.022000,0.024700,0.022000,0.015500,0.031200,-0.015500,0.031200,-0.024700,0.022000,-0.024700,-0.022000,-0.015500,-0.031200,0.0*
1,1,0.018339,-0.015500,-0.022000*
1,1,0.018339,0.015500,-0.022000*
1,1,0.018339,0.015500,0.022000*
1,1,0.018339,-0.015500,0.022000*
%
%AMD46*
4,1,8,0.015600,-0.018000,0.015600,0.018000,0.005800,0.027800,-0.005800,0.027800,-0.015600,0.018000,-0.015600,-0.018000,-0.005800,-0.027800,0.005800,-0.027800,0.015600,-0.018000,0.0*
1,1,0.019614,0.005800,-0.018000*
1,1,0.019614,0.005800,0.018000*
1,1,0.019614,-0.005800,0.018000*
1,1,0.019614,-0.005800,-0.018000*
%
%ADD15R,0.010000X0.020000*%
%ADD18C,0.103669*%
%ADD19R,0.065008X0.065008*%
%ADD20C,0.065008*%
%ADD21C,0.137921*%
%ADD22R,0.070008X0.070008*%
%ADD23C,0.070008*%
%ADD24C,0.047370*%
%ADD25C,0.058000*%
%ADD26C,0.021654*%
%ADD27C,0.027559*%
%ADD40R,0.049212X0.023622*%
%ADD41R,0.057563X0.053331*%
G04~CAMADD=45~8~0.0~0.0~493.4~623.3~91.7~0.0~15~0.0~0.0~0.0~0.0~0~0.0~0.0~0.0~0.0~0~0.0~0.0~0.0~180.0~494.0~624.0*
%ADD45D45*%
G04~CAMADD=46~8~0.0~0.0~556.4~312.3~98.1~0.0~15~0.0~0.0~0.0~0.0~0~0.0~0.0~0.0~0.0~0~0.0~0.0~0.0~270.0~312.0~556.0*
%ADD46D46*%
%LNnema17pancake-1*%
%LPD*%
G54D15*
X01096Y01301D03*
X01121D03*
G54D18*
X00361Y01113D03*
Y00473D03*
G54D19*
X00326Y00933D03*
G54D20*
X00396Y00893D03*
X00326Y00853D03*
X00396Y00813D03*
X00326Y00773D03*
X00396Y00733D03*
X00326Y00693D03*
X00396Y00653D03*
G54D21*
X00226Y01043D03*
Y00543D03*
G54D22*
X01061Y01434D03*
G54D23*
X0116Y01434D03*
G54D24*
X01397Y00177D03*
X00177Y01398D03*
Y00177D03*
X01397Y01398D03*
G54D25*
X01377Y00787D03*
X01181Y00393D03*
X00787Y01181D03*
Y00393D03*
X00393D03*
X01377Y00787D03*
X01181Y00393D03*
X00787Y01181D03*
Y00393D03*
G54D26*
X0021Y00691D03*
X00209Y0085D03*
Y00931D03*
X00519Y00813D03*
X00964Y00848D03*
X01028Y0064D03*
X00998D03*
X00969D03*
X00612Y0076D03*
G54D27*
X01075Y00774D03*
X01075Y00809D03*
X01076Y00738D03*
G54D40*
X00911Y00983D03*
Y01054D03*
G54D41*
X00911Y01128D03*
Y01204D03*
G54D45*
X01074Y00979D03*
X01144D03*
X01144Y01234D03*
X01074D03*
G54D46*
X01072Y01059D03*
X01146D03*
Y01157D03*
X01109D03*
X01072D03*
M02*