%FSTAX23Y23*%
%MOIN*%
%SFA1B1*%

%IPPOS*%
%ADD10C,0.005000*%
%LNnema17pancake-1*%
%LPD*%
G54D10*
X00329Y01113D02*
X00393D01*
X00361Y01081D02*
Y01145D01*
X00329Y00473D02*
X00393D01*
X00361Y00441D02*
Y00505D01*
X00307Y00933D02*
X00344D01*
X00326Y00914D02*
Y00951D01*
X00377Y00893D02*
X00414D01*
X00396Y00874D02*
Y00911D01*
X00307Y00853D02*
X00344D01*
X00326Y00834D02*
Y00871D01*
X00377Y00813D02*
X00414D01*
X00396Y00794D02*
Y00831D01*
X00307Y00773D02*
X00344D01*
X00326Y00754D02*
Y00791D01*
X00377Y00733D02*
X00414D01*
X00396Y00714D02*
Y00751D01*
X00307Y00693D02*
X00344D01*
X00326Y00674D02*
Y00711D01*
X00377Y00653D02*
X00414D01*
X00396Y00634D02*
Y00671D01*
X00161Y01043D02*
X00291D01*
X00226Y00978D02*
Y01108D01*
X00161Y00543D02*
X00291D01*
X00226Y00478D02*
Y00608D01*
X01041Y01434D02*
X01082D01*
X01061Y01413D02*
Y01455D01*
X01139Y01434D02*
X0118D01*
X0116Y01413D02*
Y01455D01*
X01336Y00177D02*
X01458D01*
X01397Y00116D02*
Y00238D01*
X00116Y01398D02*
X00238D01*
X00177Y01337D02*
Y01459D01*
X00116Y00177D02*
X00238D01*
X00177Y00116D02*
Y00238D01*
X01336Y01398D02*
X01458D01*
X01397Y01337D02*
Y01459D01*
X01363Y00787D02*
X01391D01*
X01377Y00773D02*
Y00801D01*
X01167Y00393D02*
X01195D01*
X01181Y00379D02*
Y00407D01*
X00773Y01181D02*
X00801D01*
X00787Y01167D02*
Y01195D01*
X00773Y00393D02*
X00801D01*
X00787Y00379D02*
Y00407D01*
X00379Y00393D02*
X00407D01*
X00393Y00379D02*
Y00407D01*
X00204Y00691D02*
X00216D01*
X0021Y00685D02*
Y00697D01*
X00203Y0085D02*
X00215D01*
X00209Y00844D02*
Y00856D01*
X00203Y00931D02*
X00215D01*
X00209Y00925D02*
Y00937D01*
X01363Y00787D02*
X01391D01*
X01377Y00773D02*
Y00801D01*
X01167Y00393D02*
X01195D01*
X01181Y00379D02*
Y00407D01*
X00773Y01181D02*
X00801D01*
X00787Y01167D02*
Y01195D01*
X00773Y00393D02*
X00801D01*
X00787Y00379D02*
Y00407D01*
X00513Y00813D02*
X00525D01*
X00519Y00807D02*
Y00819D01*
X00959Y00848D02*
X0097D01*
X00964Y00842D02*
Y00854D01*
X01022Y0064D02*
X01034D01*
X01028Y00634D02*
Y00646D01*
X00992Y0064D02*
X01004D01*
X00998Y00634D02*
Y00646D01*
X00963Y0064D02*
X00975D01*
X00969Y00634D02*
Y00646D01*
X00607Y0076D02*
X00618D01*
X00612Y00754D02*
Y00766D01*
X01069Y00774D02*
X01081D01*
X01075Y00768D02*
Y0078D01*
X0107Y00809D02*
X01081D01*
X01075Y00803D02*
Y00815D01*
X0107Y00738D02*
X01082D01*
X01076Y00733D02*
Y00744D01*
M02*