G04*
G04 #@! TF.GenerationSoftware,Altium Limited,Altium Designer,25.2.1 (25)*
G04*
G04 Layer_Color=65535*
%FSLAX44Y44*%
%MOMM*%
G71*
G04*
G04 #@! TF.SameCoordinates,5F0F5B64-BFB7-492A-895C-DD278EAA695B*
G04*
G04*
G04 #@! TF.FilePolarity,Positive*
G04*
G01*
G75*
%ADD10C,0.1270*%
%ADD27C,0.2000*%
G36*
X262025Y76656D02*
X262363D01*
Y75642D01*
X262701D01*
Y75304D01*
X262363D01*
Y74966D01*
X261349D01*
Y74628D01*
X260672D01*
Y74289D01*
X260334D01*
Y73951D01*
X259996D01*
Y73613D01*
X259320D01*
Y72937D01*
X258982D01*
Y72599D01*
X258643D01*
Y72261D01*
X258305D01*
Y71584D01*
X257967D01*
Y70908D01*
X257629D01*
Y69556D01*
X257291D01*
Y68541D01*
X254586D01*
Y69556D01*
X254924D01*
Y71246D01*
X255262D01*
Y71584D01*
Y72261D01*
X255600D01*
Y72937D01*
X255938D01*
Y73613D01*
X256276D01*
Y73951D01*
X256615D01*
Y74289D01*
X256953D01*
Y74628D01*
X257291D01*
Y75304D01*
X257967D01*
Y75642D01*
X258305D01*
Y75980D01*
X258643D01*
Y76318D01*
X259320D01*
Y76656D01*
X259658D01*
Y76995D01*
X260334D01*
Y77333D01*
X261349D01*
Y77671D01*
X262025D01*
Y76656D01*
D02*
G37*
G36*
X261010Y79700D02*
X261349D01*
Y78685D01*
X261010D01*
Y78347D01*
X259996D01*
Y78009D01*
X259320D01*
Y77671D01*
X258643D01*
Y77333D01*
X258305D01*
Y76995D01*
X257629D01*
Y76656D01*
X257291D01*
Y76318D01*
X256953D01*
Y75980D01*
X256615D01*
Y75642D01*
X256276D01*
Y75304D01*
X255938D01*
Y74966D01*
X255600D01*
Y74628D01*
X255262D01*
Y73951D01*
X254924D01*
Y73613D01*
X254586D01*
Y72937D01*
X254248D01*
Y71922D01*
X253909D01*
Y70908D01*
X253571D01*
Y68541D01*
X251881D01*
Y70908D01*
Y71246D01*
X252219D01*
Y72261D01*
X252557D01*
Y73275D01*
X252895D01*
Y73951D01*
X253233D01*
Y74628D01*
X253571D01*
Y74966D01*
X253909D01*
Y75642D01*
X254248D01*
Y75980D01*
X254586D01*
Y76318D01*
X254924D01*
Y76656D01*
X255262D01*
Y76995D01*
X255600D01*
Y77333D01*
X255938D01*
Y77671D01*
X256276D01*
Y78009D01*
X256615D01*
Y78347D01*
X257291D01*
Y78685D01*
X257629D01*
Y79023D01*
X258305D01*
Y79362D01*
X259320D01*
Y79700D01*
X259996D01*
Y80038D01*
X261010D01*
Y79700D01*
D02*
G37*
G36*
X339798Y73613D02*
X341488D01*
Y73275D01*
X342164D01*
Y72937D01*
X342841D01*
Y72599D01*
X343179D01*
Y72261D01*
X343517D01*
Y71922D01*
X343855D01*
Y71584D01*
X344193D01*
Y70908D01*
X344532D01*
Y69217D01*
X344870D01*
Y58059D01*
X344532D01*
Y56368D01*
X344193D01*
Y55692D01*
X343855D01*
Y55015D01*
X343517D01*
Y54677D01*
X343179D01*
Y54339D01*
X342503D01*
Y54001D01*
X341826D01*
Y53663D01*
X340474D01*
Y53325D01*
X315113D01*
Y58397D01*
X315451D01*
Y58059D01*
X338783D01*
Y58397D01*
X339459D01*
Y68879D01*
X315113D01*
Y73951D01*
X339798D01*
Y73613D01*
D02*
G37*
G36*
X310041Y73275D02*
X310379D01*
Y63469D01*
X313084D01*
Y67527D01*
X313423D01*
Y63469D01*
X313761D01*
Y63807D01*
X314437D01*
Y64145D01*
X315113D01*
Y64483D01*
X315790D01*
Y64822D01*
X316466D01*
Y65160D01*
X316804D01*
Y65498D01*
X317818D01*
Y65836D01*
X318495D01*
Y66174D01*
X318833D01*
Y66512D01*
X319847D01*
Y66850D01*
X320185D01*
Y67189D01*
X320862D01*
Y67527D01*
X321538D01*
Y63469D01*
X324581D01*
Y63807D01*
X324919D01*
Y65160D01*
X338107D01*
Y61778D01*
X324919D01*
Y63131D01*
X321538D01*
Y59411D01*
X320862D01*
Y59749D01*
X320185D01*
Y60087D01*
X319509D01*
Y60426D01*
X318833D01*
Y60764D01*
X318157D01*
Y61102D01*
X317480D01*
Y61440D01*
X316804D01*
Y61778D01*
X316128D01*
Y62116D01*
X315451D01*
Y62455D01*
X314775D01*
Y62793D01*
X314099D01*
Y63131D01*
X313423D01*
Y59073D01*
X313084D01*
Y63131D01*
X310379D01*
Y52986D01*
X305307D01*
Y68541D01*
X303955D01*
Y68203D01*
X303278D01*
Y67865D01*
X302940D01*
Y67527D01*
X302602D01*
Y67189D01*
X302264D01*
Y66850D01*
X301926D01*
Y66512D01*
X301588D01*
Y66174D01*
X301249D01*
Y65836D01*
X300911D01*
Y65498D01*
X300573D01*
Y64822D01*
X300235D01*
Y64483D01*
X299897D01*
Y64145D01*
X299559D01*
Y63807D01*
X299221D01*
Y63469D01*
X298882D01*
Y63131D01*
X298544D01*
Y62455D01*
X298206D01*
Y62116D01*
X297868D01*
Y61778D01*
X297530D01*
Y61440D01*
X297192D01*
Y61102D01*
X296854D01*
Y60764D01*
X296515D01*
Y60087D01*
X296177D01*
Y59749D01*
X295839D01*
Y59411D01*
X295501D01*
Y59073D01*
X295163D01*
Y58735D01*
X294825D01*
Y58397D01*
X294487D01*
Y57720D01*
X294148D01*
Y57382D01*
X293810D01*
Y57044D01*
X293472D01*
Y56706D01*
X293134D01*
Y56368D01*
X292796D01*
Y56030D01*
X292458D01*
Y55353D01*
X292120D01*
Y55015D01*
X291443D01*
Y54677D01*
X291105D01*
Y54339D01*
X290767D01*
Y54001D01*
X290091D01*
Y53663D01*
X289414D01*
Y53325D01*
X288400D01*
Y52986D01*
X280961D01*
Y73613D01*
X286033D01*
Y57720D01*
X286709D01*
Y58059D01*
X287724D01*
Y58397D01*
X288062D01*
Y58735D01*
X288738D01*
Y59073D01*
X289076D01*
Y59411D01*
X289414D01*
Y60087D01*
X289753D01*
Y60426D01*
X290091D01*
Y60764D01*
X290429D01*
Y61102D01*
X290767D01*
Y61440D01*
X291105D01*
Y61778D01*
X291443D01*
Y62116D01*
X291781D01*
Y62793D01*
X292120D01*
Y63131D01*
X292458D01*
Y63469D01*
X292796D01*
Y63807D01*
X293134D01*
Y64145D01*
X293472D01*
Y64483D01*
X293810D01*
Y64822D01*
X294148D01*
Y65498D01*
X294487D01*
Y65836D01*
X294825D01*
Y66174D01*
X295163D01*
Y66512D01*
X295501D01*
Y66850D01*
X295839D01*
Y67189D01*
X296177D01*
Y67527D01*
X296515D01*
Y68203D01*
X296854D01*
Y68541D01*
X297192D01*
Y68879D01*
X297530D01*
Y69217D01*
X297868D01*
Y69556D01*
X298206D01*
Y69894D01*
X298544D01*
Y70570D01*
X298882D01*
Y70908D01*
X299221D01*
Y71246D01*
X299559D01*
Y71584D01*
X299897D01*
Y71922D01*
X300573D01*
Y72261D01*
X300911D01*
Y72599D01*
X301588D01*
Y72937D01*
X302602D01*
Y73275D01*
X304293D01*
Y73613D01*
X310041D01*
Y73275D01*
D02*
G37*
G36*
X241736D02*
X244103D01*
Y72937D01*
X244780D01*
Y72599D01*
X245456D01*
Y72261D01*
X245794D01*
Y71922D01*
X246132D01*
Y71584D01*
X246470D01*
Y71246D01*
X246808D01*
Y70570D01*
X247147D01*
Y68879D01*
X247485D01*
Y57382D01*
X247147D01*
Y56030D01*
X246808D01*
Y55353D01*
X246470D01*
Y54677D01*
X246132D01*
Y54339D01*
X245794D01*
Y54001D01*
X245118D01*
Y53663D01*
X244442D01*
Y53325D01*
X243427D01*
Y52986D01*
X217728D01*
Y57720D01*
X241736D01*
Y58059D01*
X242075D01*
Y68203D01*
X241736D01*
Y68541D01*
X217728D01*
Y73613D01*
X241736D01*
Y73275D01*
D02*
G37*
G36*
X263039Y73951D02*
X263377D01*
Y72937D01*
X277241D01*
Y67865D01*
X265406D01*
Y52310D01*
X260334D01*
Y59073D01*
Y59411D01*
Y68541D01*
X258643D01*
Y70570D01*
X258982D01*
Y71246D01*
X259320D01*
Y71922D01*
X259658D01*
Y72261D01*
X259996D01*
Y72599D01*
X260334D01*
Y72937D01*
X260672D01*
Y73275D01*
X261010D01*
Y73613D01*
X261687D01*
Y73951D01*
X262363D01*
Y74289D01*
X263039D01*
Y73951D01*
D02*
G37*
G36*
X321538Y47914D02*
X320523D01*
Y48253D01*
X321538D01*
Y47914D01*
D02*
G37*
G36*
X269126D02*
X268111D01*
Y48253D01*
X269126D01*
Y47914D01*
D02*
G37*
G36*
X259996D02*
X259320D01*
Y48253D01*
X259996D01*
Y47914D01*
D02*
G37*
G36*
X238693D02*
X237679D01*
Y48253D01*
X238693D01*
Y47914D01*
D02*
G37*
G36*
X225168D02*
X224153D01*
Y48253D01*
X225168D01*
Y47914D01*
D02*
G37*
G36*
X332020Y47576D02*
X335064D01*
Y46900D01*
X335402D01*
Y47238D01*
X335740D01*
Y47576D01*
X338107D01*
Y47238D01*
X338445D01*
Y45547D01*
X338107D01*
Y45209D01*
X335740D01*
Y45886D01*
X337769D01*
Y46224D01*
X335740D01*
Y46562D01*
X335402D01*
Y45886D01*
X335064D01*
Y45209D01*
X332358D01*
Y45886D01*
X334387D01*
Y46900D01*
X332020D01*
Y45209D01*
X331344D01*
Y45547D01*
X331006D01*
Y46562D01*
X331344D01*
Y46900D01*
X330668D01*
Y45209D01*
X329653D01*
Y46900D01*
X328639D01*
Y47576D01*
X330330D01*
Y47238D01*
X330668D01*
Y47576D01*
X331006D01*
Y47914D01*
X331344D01*
Y48253D01*
X332020D01*
Y47576D01*
D02*
G37*
G36*
X225168Y45209D02*
X224491D01*
Y45547D01*
X224153D01*
Y45209D01*
X223139D01*
Y46900D01*
X221786D01*
Y45209D01*
X220772D01*
Y46900D01*
X221110D01*
Y47576D01*
X224153D01*
Y47238D01*
X224491D01*
Y47576D01*
X225168D01*
Y45209D01*
D02*
G37*
G36*
X294148Y47238D02*
X294487D01*
Y45547D01*
X294148D01*
Y45209D01*
X291781D01*
Y45886D01*
X293810D01*
Y46224D01*
X291781D01*
Y46562D01*
X291443D01*
Y45886D01*
X291105D01*
Y45209D01*
X288400D01*
Y45886D01*
X288062D01*
Y45209D01*
X285357D01*
Y45547D01*
X285019D01*
Y47238D01*
X285357D01*
Y47576D01*
X288062D01*
Y46900D01*
X288400D01*
Y45886D01*
X290429D01*
Y46900D01*
X288400D01*
Y47576D01*
X291105D01*
Y46900D01*
X291443D01*
Y47238D01*
X291781D01*
Y47576D01*
X294148D01*
Y47238D01*
D02*
G37*
G36*
X258643D02*
X258982D01*
Y45547D01*
X258643D01*
Y45209D01*
X256276D01*
Y45547D01*
X255938D01*
Y45886D01*
X255600D01*
Y45209D01*
X254586D01*
Y46900D01*
X253233D01*
Y45209D01*
X252219D01*
Y47238D01*
X252557D01*
Y47576D01*
X255600D01*
Y46900D01*
X255938D01*
Y47576D01*
X258643D01*
Y47238D01*
D02*
G37*
G36*
X245456Y45209D02*
X244442D01*
Y46900D01*
X243089D01*
Y45209D01*
X242413D01*
Y45547D01*
X242075D01*
Y45886D01*
X241736D01*
Y45547D01*
X239708D01*
Y45209D01*
X241736D01*
Y44533D01*
X239031D01*
Y45209D01*
X238693D01*
Y45547D01*
X238355D01*
Y45209D01*
X237679D01*
Y47576D01*
X238355D01*
Y47238D01*
X239031D01*
Y47576D01*
X241736D01*
Y47238D01*
X242075D01*
Y46900D01*
X242413D01*
Y47576D01*
X245456D01*
Y45209D01*
D02*
G37*
G36*
X275889Y47238D02*
Y46900D01*
Y45547D01*
X275551D01*
Y45209D01*
X273184D01*
Y45547D01*
X272845D01*
Y47576D01*
X273860D01*
Y45886D01*
X275212D01*
Y47576D01*
X275889D01*
Y47238D01*
D02*
G37*
G36*
X344193Y47914D02*
X344532D01*
Y45886D01*
X344193D01*
Y45209D01*
X338783D01*
Y48253D01*
X344193D01*
Y47914D01*
D02*
G37*
G36*
X327963Y47238D02*
X328301D01*
Y45547D01*
X327963D01*
Y45209D01*
X325596D01*
Y45547D01*
X325257D01*
Y45886D01*
Y46224D01*
Y47238D01*
X325596D01*
Y47576D01*
X327963D01*
Y47238D01*
D02*
G37*
G36*
X324919Y45209D02*
X324243D01*
Y46900D01*
X322891D01*
Y45547D01*
X322552D01*
Y45209D01*
X321876D01*
Y47238D01*
X322214D01*
Y47576D01*
X324919D01*
Y45209D01*
D02*
G37*
G36*
X321538D02*
X320523D01*
Y47576D01*
X321538D01*
Y45209D01*
D02*
G37*
G36*
X320185Y47238D02*
Y46900D01*
Y45547D01*
X319847D01*
Y45209D01*
X317480D01*
Y45886D01*
X319509D01*
Y46900D01*
X317480D01*
Y47576D01*
X320185D01*
Y47238D01*
D02*
G37*
G36*
X315451Y46900D02*
X313423D01*
Y46562D01*
X315451D01*
Y45547D01*
X315113D01*
Y45209D01*
X312746D01*
Y45547D01*
X312408D01*
Y46562D01*
Y46900D01*
Y47238D01*
X312746D01*
Y47576D01*
X315451D01*
Y46900D01*
D02*
G37*
G36*
X312070Y45209D02*
X311394D01*
Y46900D01*
X310041D01*
Y46562D01*
Y45209D01*
X309027D01*
Y47238D01*
X309365D01*
Y47576D01*
X312070D01*
Y45209D01*
D02*
G37*
G36*
X306322Y47576D02*
X308350D01*
Y47238D01*
X308689D01*
Y45547D01*
X308350D01*
Y45209D01*
X305983D01*
Y45547D01*
X305645D01*
Y48253D01*
X306322D01*
Y47576D01*
D02*
G37*
G36*
X303278D02*
X301588D01*
Y45209D01*
X300911D01*
Y45547D01*
X300573D01*
Y47576D01*
X298882D01*
Y48253D01*
X303278D01*
Y47576D01*
D02*
G37*
G36*
X295839Y46900D02*
X296177D01*
Y47576D01*
X298544D01*
Y47238D01*
X298882D01*
Y45547D01*
X298544D01*
Y45209D01*
X296177D01*
Y45886D01*
X298206D01*
Y46224D01*
X296177D01*
Y46562D01*
X295839D01*
Y45547D01*
X295501D01*
Y45209D01*
X294825D01*
Y45886D01*
Y46224D01*
Y48253D01*
X295839D01*
Y46900D01*
D02*
G37*
G36*
X284680Y45209D02*
X284004D01*
Y46900D01*
X283328D01*
Y45209D01*
X282313D01*
Y46900D01*
X281637D01*
Y45209D01*
X280623D01*
Y47238D01*
X280961D01*
Y47576D01*
X284680D01*
Y45209D01*
D02*
G37*
G36*
X280285D02*
X279608D01*
Y45547D01*
Y46900D01*
X278594D01*
Y45209D01*
X277918D01*
Y46900D01*
X277241D01*
Y45209D01*
X276227D01*
Y47238D01*
X276565D01*
Y47576D01*
X280285D01*
Y45209D01*
D02*
G37*
G36*
X272507D02*
X271831D01*
Y46900D01*
X270140D01*
Y45209D01*
X269464D01*
Y46224D01*
Y46562D01*
Y47238D01*
X269802D01*
Y47576D01*
X272507D01*
Y45209D01*
D02*
G37*
G36*
X261349Y47576D02*
X262025D01*
Y47238D01*
X262363D01*
Y47576D01*
X267773D01*
Y46900D01*
X268111D01*
Y45886D01*
X268450D01*
Y46900D01*
X268111D01*
Y47238D01*
X268450D01*
Y47576D01*
X269126D01*
Y45209D01*
X268450D01*
Y45547D01*
X268111D01*
Y45886D01*
X267773D01*
Y45209D01*
X265068D01*
Y45547D01*
X264730D01*
Y45209D01*
X262363D01*
Y45547D01*
X262025D01*
Y46900D01*
X261349D01*
Y45209D01*
X260672D01*
Y46900D01*
X260334D01*
Y47576D01*
X260672D01*
Y48253D01*
X261349D01*
Y47576D01*
D02*
G37*
G36*
X259996Y45209D02*
X259320D01*
Y45547D01*
Y45886D01*
Y47576D01*
X259996D01*
Y45209D01*
D02*
G37*
G36*
X249852Y47914D02*
X250190D01*
Y45547D01*
X249852D01*
Y45209D01*
X245794D01*
Y45886D01*
X249175D01*
Y46224D01*
X245794D01*
Y47238D01*
X249175D01*
Y47576D01*
X245794D01*
Y48253D01*
X249852D01*
Y47914D01*
D02*
G37*
G36*
X237341Y45209D02*
X236664D01*
Y46900D01*
X234974D01*
Y45209D01*
X234297D01*
Y46224D01*
Y46562D01*
Y47238D01*
X234635D01*
Y47576D01*
X237341D01*
Y45209D01*
D02*
G37*
G36*
X233621Y47238D02*
X233959D01*
Y45547D01*
X233621D01*
Y45209D01*
X230916D01*
Y45886D01*
X232945D01*
Y46224D01*
X230916D01*
Y47238D01*
X231254D01*
Y47576D01*
X233621D01*
Y47238D01*
D02*
G37*
G36*
X230240D02*
X230578D01*
Y45547D01*
X230240D01*
Y45209D01*
X227873D01*
Y45886D01*
X229902D01*
Y46224D01*
X227873D01*
Y46562D01*
X227535D01*
Y47238D01*
X227873D01*
Y47576D01*
X230240D01*
Y47238D01*
D02*
G37*
G36*
X227196Y45209D02*
X226520D01*
Y46900D01*
X225506D01*
Y47238D01*
Y47576D01*
X227196D01*
Y45209D01*
D02*
G37*
G36*
X220434Y45547D02*
X218405D01*
Y45209D01*
X220434D01*
Y44533D01*
X217728D01*
Y44871D01*
X217390D01*
Y47238D01*
X217728D01*
Y47576D01*
X220434D01*
Y45547D01*
D02*
G37*
G36*
X285909Y35520D02*
X286078Y35500D01*
X286238Y35470D01*
X286388Y35440D01*
X286527Y35410D01*
X286647Y35370D01*
X286757Y35330D01*
X286867Y35290D01*
X286957Y35250D01*
X287027Y35220D01*
X287086Y35190D01*
X287136Y35160D01*
X287176Y35140D01*
X287196Y35130D01*
X287206Y35120D01*
X287426Y34951D01*
X287605Y34761D01*
X287755Y34571D01*
X287875Y34382D01*
X287965Y34222D01*
X287995Y34142D01*
X288025Y34082D01*
X288045Y34032D01*
X288065Y33992D01*
X288075Y33972D01*
Y33962D01*
X286607Y33843D01*
X286567Y33942D01*
X286527Y34032D01*
X286478Y34112D01*
X286418Y34172D01*
X286378Y34222D01*
X286338Y34262D01*
X286308Y34282D01*
X286298Y34292D01*
X286198Y34352D01*
X286098Y34392D01*
X285988Y34422D01*
X285889Y34441D01*
X285799Y34451D01*
X285729Y34462D01*
X285659D01*
X285519Y34451D01*
X285399Y34432D01*
X285300Y34412D01*
X285220Y34382D01*
X285160Y34342D01*
X285120Y34322D01*
X285090Y34302D01*
X285080Y34292D01*
X285010Y34232D01*
X284960Y34162D01*
X284930Y34092D01*
X284900Y34032D01*
X284890Y33972D01*
X284880Y33932D01*
Y33902D01*
Y33893D01*
Y33813D01*
X284900Y33733D01*
X284930Y33573D01*
X284950Y33503D01*
X284960Y33443D01*
X284980Y33403D01*
Y33393D01*
X285060Y33373D01*
X285140Y33344D01*
X285250Y33324D01*
X285359Y33304D01*
X285589Y33264D01*
X285829Y33234D01*
X286058Y33214D01*
X286158Y33204D01*
X286248Y33194D01*
X286318Y33184D01*
X286368Y33174D01*
X286418D01*
X286647Y33154D01*
X286857Y33124D01*
X287047Y33084D01*
X287226Y33044D01*
X287386Y32994D01*
X287536Y32944D01*
X287665Y32894D01*
X287775Y32844D01*
X287875Y32794D01*
X287955Y32754D01*
X288025Y32705D01*
X288085Y32675D01*
X288134Y32645D01*
X288165Y32615D01*
X288174Y32605D01*
X288184Y32595D01*
X288274Y32505D01*
X288344Y32405D01*
X288414Y32295D01*
X288464Y32195D01*
X288554Y31976D01*
X288614Y31776D01*
X288644Y31597D01*
X288654Y31517D01*
X288664Y31447D01*
X288674Y31397D01*
Y31357D01*
Y31327D01*
Y31317D01*
X288664Y31187D01*
X288654Y31068D01*
X288604Y30838D01*
X288534Y30638D01*
X288444Y30469D01*
X288364Y30329D01*
X288294Y30229D01*
X288264Y30199D01*
X288244Y30169D01*
X288224Y30159D01*
Y30149D01*
X288134Y30069D01*
X288045Y29999D01*
X287855Y29890D01*
X287665Y29810D01*
X287486Y29760D01*
X287326Y29720D01*
X287256Y29710D01*
X287196D01*
X287156Y29700D01*
X287086D01*
X286927Y29710D01*
X286767Y29730D01*
X286627Y29760D01*
X286497Y29800D01*
X286388Y29840D01*
X286298Y29870D01*
X286248Y29890D01*
X286228Y29900D01*
X286068Y29980D01*
X285928Y30069D01*
X285799Y30169D01*
X285679Y30259D01*
X285589Y30339D01*
X285519Y30399D01*
X285479Y30439D01*
X285459Y30459D01*
X285429Y30229D01*
X285419Y30119D01*
X285399Y30029D01*
X285379Y29950D01*
X285359Y29890D01*
X285350Y29850D01*
Y29840D01*
X283892D01*
X283932Y29999D01*
X283962Y30149D01*
X283982Y30279D01*
X283992Y30399D01*
X284002Y30489D01*
X284012Y30568D01*
Y30608D01*
Y30628D01*
Y30708D01*
X284002Y30808D01*
X283982Y31018D01*
X283942Y31247D01*
X283902Y31477D01*
X283862Y31686D01*
X283842Y31786D01*
X283822Y31866D01*
X283812Y31936D01*
X283802Y31986D01*
X283792Y32016D01*
Y32026D01*
X283742Y32236D01*
X283702Y32435D01*
X283662Y32605D01*
X283633Y32764D01*
X283603Y32904D01*
X283573Y33024D01*
X283553Y33124D01*
X283533Y33214D01*
X283523Y33294D01*
X283513Y33354D01*
X283503Y33403D01*
X283493Y33443D01*
Y33473D01*
X283483Y33493D01*
Y33503D01*
X283453Y33713D01*
X283443Y33803D01*
Y33883D01*
X283433Y33952D01*
Y34002D01*
Y34032D01*
Y34042D01*
X283443Y34162D01*
X283453Y34272D01*
X283513Y34471D01*
X283593Y34651D01*
X283692Y34811D01*
X283792Y34931D01*
X283872Y35020D01*
X283932Y35080D01*
X283942Y35100D01*
X283952D01*
X284052Y35180D01*
X284162Y35250D01*
X284411Y35350D01*
X284681Y35430D01*
X284940Y35490D01*
X285060Y35500D01*
X285170Y35520D01*
X285270Y35530D01*
X285359D01*
X285439Y35540D01*
X285729D01*
X285909Y35520D01*
D02*
G37*
G36*
X261222Y32685D02*
X263778Y29840D01*
X261931D01*
X260564Y31387D01*
X259755Y29840D01*
X258158D01*
X259566Y32505D01*
X256990Y35400D01*
X258817D01*
X260224Y33823D01*
X261033Y35400D01*
X262630D01*
X261222Y32685D01*
D02*
G37*
G36*
X313100Y29840D02*
X311633D01*
X310555Y35001D01*
X308468Y29840D01*
X307001D01*
X305394Y37516D01*
X306871D01*
X307939Y32375D01*
X310026Y37516D01*
X311503D01*
X313100Y29840D01*
D02*
G37*
G36*
X276765D02*
X275297D01*
X274219Y35001D01*
X272133Y29840D01*
X270666D01*
X269058Y37516D01*
X270536D01*
X271604Y32375D01*
X273690Y37516D01*
X275168D01*
X276765Y29840D01*
D02*
G37*
G36*
X302409Y35530D02*
X302689Y35490D01*
X302948Y35430D01*
X303178Y35350D01*
X303407Y35260D01*
X303607Y35160D01*
X303787Y35050D01*
X303956Y34941D01*
X304106Y34821D01*
X304226Y34711D01*
X304336Y34611D01*
X304426Y34521D01*
X304495Y34441D01*
X304545Y34382D01*
X304575Y34342D01*
X304585Y34332D01*
X304695Y34162D01*
X304795Y33982D01*
X304875Y33813D01*
X304945Y33633D01*
X305004Y33463D01*
X305064Y33294D01*
X305104Y33124D01*
X305134Y32974D01*
X305164Y32824D01*
X305184Y32695D01*
X305194Y32575D01*
X305204Y32475D01*
X305214Y32395D01*
Y32335D01*
Y32295D01*
Y32285D01*
X305204Y32076D01*
X305184Y31866D01*
X305154Y31676D01*
X305104Y31497D01*
X305054Y31337D01*
X304995Y31177D01*
X304925Y31038D01*
X304865Y30908D01*
X304795Y30798D01*
X304735Y30698D01*
X304675Y30608D01*
X304625Y30538D01*
X304575Y30479D01*
X304545Y30439D01*
X304525Y30419D01*
X304515Y30409D01*
X304376Y30289D01*
X304236Y30179D01*
X304086Y30079D01*
X303936Y29999D01*
X303787Y29930D01*
X303627Y29870D01*
X303477Y29830D01*
X303337Y29790D01*
X303208Y29760D01*
X303078Y29740D01*
X302968Y29720D01*
X302878Y29710D01*
X302798Y29700D01*
X302689D01*
X302389Y29720D01*
X302120Y29760D01*
X301870Y29830D01*
X301650Y29900D01*
X301561Y29940D01*
X301471Y29969D01*
X301401Y30009D01*
X301341Y30039D01*
X301291Y30059D01*
X301251Y30079D01*
X301231Y30099D01*
X301221D01*
X300982Y30269D01*
X300782Y30469D01*
X300592Y30668D01*
X300443Y30868D01*
X300323Y31048D01*
X300273Y31127D01*
X300233Y31197D01*
X300203Y31247D01*
X300183Y31287D01*
X300163Y31317D01*
Y31327D01*
X301511Y31557D01*
X301590Y31417D01*
X301680Y31297D01*
X301780Y31197D01*
X301880Y31107D01*
X301970Y31028D01*
X302070Y30968D01*
X302169Y30918D01*
X302259Y30878D01*
X302429Y30818D01*
X302499Y30798D01*
X302569Y30788D01*
X302619D01*
X302659Y30778D01*
X302689D01*
X302848Y30788D01*
X302998Y30828D01*
X303128Y30888D01*
X303238Y30948D01*
X303327Y31008D01*
X303397Y31068D01*
X303447Y31107D01*
X303457Y31117D01*
X303567Y31257D01*
X303637Y31397D01*
X303697Y31547D01*
X303737Y31696D01*
X303757Y31826D01*
X303767Y31926D01*
X303777Y31966D01*
Y31996D01*
Y32006D01*
Y32016D01*
Y32056D01*
X303767Y32106D01*
Y32146D01*
Y32156D01*
X300003D01*
X299963Y32325D01*
X299944Y32485D01*
X299923Y32655D01*
X299904Y32805D01*
Y32934D01*
X299894Y33044D01*
Y33084D01*
Y33114D01*
Y33124D01*
Y33134D01*
X299904Y33344D01*
X299923Y33533D01*
X299953Y33723D01*
X299983Y33893D01*
X300033Y34052D01*
X300083Y34192D01*
X300143Y34322D01*
X300193Y34441D01*
X300253Y34551D01*
X300313Y34641D01*
X300363Y34721D01*
X300403Y34781D01*
X300443Y34831D01*
X300473Y34871D01*
X300492Y34891D01*
X300502Y34901D01*
X300622Y35010D01*
X300742Y35110D01*
X300872Y35200D01*
X301012Y35270D01*
X301141Y35330D01*
X301281Y35380D01*
X301531Y35460D01*
X301650Y35490D01*
X301770Y35510D01*
X301860Y35520D01*
X301950Y35530D01*
X302020Y35540D01*
X302120D01*
X302409Y35530D01*
D02*
G37*
G36*
X298935Y32295D02*
X298965Y32146D01*
X298995Y31996D01*
X299025Y31866D01*
X299045Y31756D01*
X299065Y31646D01*
X299075Y31557D01*
X299095Y31477D01*
X299105Y31397D01*
Y31337D01*
X299115Y31287D01*
X299125Y31207D01*
Y31157D01*
Y31147D01*
X299105Y30918D01*
X299065Y30708D01*
X299015Y30519D01*
X298945Y30369D01*
X298875Y30249D01*
X298825Y30159D01*
X298785Y30109D01*
X298766Y30089D01*
X298616Y29959D01*
X298456Y29860D01*
X298296Y29800D01*
X298127Y29750D01*
X297987Y29720D01*
X297877Y29710D01*
X297827Y29700D01*
X297767D01*
X297578Y29710D01*
X297398Y29740D01*
X297228Y29780D01*
X297059Y29840D01*
X296899Y29900D01*
X296739Y29980D01*
X296599Y30059D01*
X296470Y30139D01*
X296350Y30219D01*
X296240Y30299D01*
X296150Y30379D01*
X296070Y30439D01*
X296000Y30499D01*
X295961Y30538D01*
X295931Y30568D01*
X295921Y30578D01*
X296080Y29840D01*
X294683D01*
X293425Y35400D01*
X294922D01*
X295521Y32745D01*
X295561Y32565D01*
X295601Y32415D01*
X295631Y32285D01*
X295661Y32186D01*
X295691Y32106D01*
X295701Y32046D01*
X295721Y32006D01*
Y31996D01*
X295771Y31876D01*
X295821Y31776D01*
X295871Y31676D01*
X295911Y31607D01*
X295951Y31537D01*
X295971Y31497D01*
X295991Y31467D01*
X296000Y31457D01*
X296110Y31307D01*
X296220Y31197D01*
X296260Y31147D01*
X296300Y31117D01*
X296320Y31098D01*
X296330Y31088D01*
X296460Y30988D01*
X296579Y30908D01*
X296619Y30878D01*
X296659Y30868D01*
X296679Y30848D01*
X296689D01*
X296819Y30808D01*
X296929Y30788D01*
X296969Y30778D01*
X297039D01*
X297129Y30788D01*
X297208Y30808D01*
X297278Y30828D01*
X297338Y30868D01*
X297388Y30898D01*
X297428Y30918D01*
X297448Y30938D01*
X297458Y30948D01*
X297508Y31018D01*
X297548Y31088D01*
X297578Y31147D01*
X297598Y31217D01*
X297608Y31277D01*
X297618Y31317D01*
Y31347D01*
Y31357D01*
Y31387D01*
X297608Y31437D01*
X297598Y31537D01*
X297578Y31656D01*
X297548Y31786D01*
X297518Y31906D01*
X297498Y32006D01*
X297488Y32036D01*
Y32066D01*
X297478Y32086D01*
Y32096D01*
X296739Y35400D01*
X298237D01*
X298935Y32295D01*
D02*
G37*
G36*
X266074Y35530D02*
X266353Y35490D01*
X266613Y35430D01*
X266842Y35350D01*
X267072Y35260D01*
X267272Y35160D01*
X267451Y35050D01*
X267621Y34941D01*
X267771Y34821D01*
X267891Y34711D01*
X268000Y34611D01*
X268090Y34521D01*
X268160Y34441D01*
X268210Y34382D01*
X268240Y34342D01*
X268250Y34332D01*
X268360Y34162D01*
X268460Y33982D01*
X268540Y33813D01*
X268609Y33633D01*
X268669Y33463D01*
X268729Y33294D01*
X268769Y33124D01*
X268799Y32974D01*
X268829Y32824D01*
X268849Y32695D01*
X268859Y32575D01*
X268869Y32475D01*
X268879Y32395D01*
Y32335D01*
Y32295D01*
Y32285D01*
X268869Y32076D01*
X268849Y31866D01*
X268819Y31676D01*
X268769Y31497D01*
X268719Y31337D01*
X268659Y31177D01*
X268589Y31038D01*
X268529Y30908D01*
X268460Y30798D01*
X268400Y30698D01*
X268340Y30608D01*
X268290Y30538D01*
X268240Y30479D01*
X268210Y30439D01*
X268190Y30419D01*
X268180Y30409D01*
X268040Y30289D01*
X267901Y30179D01*
X267751Y30079D01*
X267601Y29999D01*
X267451Y29930D01*
X267292Y29870D01*
X267142Y29830D01*
X267002Y29790D01*
X266872Y29760D01*
X266743Y29740D01*
X266633Y29720D01*
X266543Y29710D01*
X266463Y29700D01*
X266353D01*
X266054Y29720D01*
X265784Y29760D01*
X265535Y29830D01*
X265315Y29900D01*
X265225Y29940D01*
X265135Y29969D01*
X265066Y30009D01*
X265006Y30039D01*
X264956Y30059D01*
X264916Y30079D01*
X264896Y30099D01*
X264886D01*
X264646Y30269D01*
X264447Y30469D01*
X264257Y30668D01*
X264107Y30868D01*
X263988Y31048D01*
X263938Y31127D01*
X263898Y31197D01*
X263868Y31247D01*
X263848Y31287D01*
X263828Y31317D01*
Y31327D01*
X265175Y31557D01*
X265255Y31417D01*
X265345Y31297D01*
X265445Y31197D01*
X265545Y31107D01*
X265635Y31028D01*
X265735Y30968D01*
X265834Y30918D01*
X265924Y30878D01*
X266094Y30818D01*
X266164Y30798D01*
X266234Y30788D01*
X266283D01*
X266323Y30778D01*
X266353D01*
X266513Y30788D01*
X266663Y30828D01*
X266793Y30888D01*
X266902Y30948D01*
X266992Y31008D01*
X267062Y31068D01*
X267112Y31107D01*
X267122Y31117D01*
X267232Y31257D01*
X267302Y31397D01*
X267362Y31547D01*
X267402Y31696D01*
X267421Y31826D01*
X267431Y31926D01*
X267441Y31966D01*
Y31996D01*
Y32006D01*
Y32016D01*
Y32056D01*
X267431Y32106D01*
Y32146D01*
Y32156D01*
X263668D01*
X263628Y32325D01*
X263608Y32485D01*
X263588Y32655D01*
X263568Y32805D01*
Y32934D01*
X263558Y33044D01*
Y33084D01*
Y33114D01*
Y33124D01*
Y33134D01*
X263568Y33344D01*
X263588Y33533D01*
X263618Y33723D01*
X263648Y33893D01*
X263698Y34052D01*
X263748Y34192D01*
X263808Y34322D01*
X263858Y34441D01*
X263918Y34551D01*
X263978Y34641D01*
X264028Y34721D01*
X264067Y34781D01*
X264107Y34831D01*
X264137Y34871D01*
X264157Y34891D01*
X264167Y34901D01*
X264287Y35010D01*
X264407Y35110D01*
X264537Y35200D01*
X264676Y35270D01*
X264806Y35330D01*
X264946Y35380D01*
X265195Y35460D01*
X265315Y35490D01*
X265435Y35510D01*
X265525Y35520D01*
X265615Y35530D01*
X265685Y35540D01*
X265784D01*
X266074Y35530D01*
D02*
G37*
G36*
X256641Y32295D02*
X256671Y32146D01*
X256701Y31996D01*
X256730Y31866D01*
X256751Y31756D01*
X256770Y31646D01*
X256780Y31557D01*
X256800Y31477D01*
X256810Y31397D01*
Y31337D01*
X256820Y31287D01*
X256830Y31207D01*
Y31157D01*
Y31147D01*
X256810Y30918D01*
X256770Y30708D01*
X256721Y30519D01*
X256651Y30369D01*
X256581Y30249D01*
X256531Y30159D01*
X256491Y30109D01*
X256471Y30089D01*
X256321Y29959D01*
X256161Y29860D01*
X256002Y29800D01*
X255832Y29750D01*
X255692Y29720D01*
X255583Y29710D01*
X255533Y29700D01*
X255473D01*
X255283Y29710D01*
X255103Y29740D01*
X254934Y29780D01*
X254764Y29840D01*
X254604Y29900D01*
X254445Y29980D01*
X254305Y30059D01*
X254175Y30139D01*
X254055Y30219D01*
X253946Y30299D01*
X253856Y30379D01*
X253776Y30439D01*
X253706Y30499D01*
X253666Y30538D01*
X253636Y30568D01*
X253626Y30578D01*
X253786Y29840D01*
X252388D01*
X251131Y35400D01*
X252628D01*
X253227Y32745D01*
X253267Y32565D01*
X253307Y32415D01*
X253337Y32285D01*
X253367Y32186D01*
X253396Y32106D01*
X253407Y32046D01*
X253426Y32006D01*
Y31996D01*
X253476Y31876D01*
X253526Y31776D01*
X253576Y31676D01*
X253616Y31607D01*
X253656Y31537D01*
X253676Y31497D01*
X253696Y31467D01*
X253706Y31457D01*
X253816Y31307D01*
X253925Y31197D01*
X253965Y31147D01*
X254005Y31117D01*
X254025Y31098D01*
X254035Y31088D01*
X254165Y30988D01*
X254285Y30908D01*
X254325Y30878D01*
X254365Y30868D01*
X254385Y30848D01*
X254395D01*
X254524Y30808D01*
X254634Y30788D01*
X254674Y30778D01*
X254744D01*
X254834Y30788D01*
X254914Y30808D01*
X254984Y30828D01*
X255044Y30868D01*
X255093Y30898D01*
X255133Y30918D01*
X255153Y30938D01*
X255163Y30948D01*
X255213Y31018D01*
X255253Y31088D01*
X255283Y31147D01*
X255303Y31217D01*
X255313Y31277D01*
X255323Y31317D01*
Y31347D01*
Y31357D01*
Y31387D01*
X255313Y31437D01*
X255303Y31537D01*
X255283Y31656D01*
X255253Y31786D01*
X255223Y31906D01*
X255203Y32006D01*
X255193Y32036D01*
Y32066D01*
X255183Y32086D01*
Y32096D01*
X254445Y35400D01*
X255942D01*
X256641Y32295D01*
D02*
G37*
G36*
X289103Y35530D02*
X289272Y35490D01*
X289432Y35430D01*
X289582Y35350D01*
X289732Y35260D01*
X289881Y35160D01*
X290011Y35050D01*
X290131Y34941D01*
X290241Y34821D01*
X290341Y34711D01*
X290430Y34611D01*
X290500Y34521D01*
X290560Y34441D01*
X290600Y34382D01*
X290630Y34342D01*
X290640Y34332D01*
X290410Y35400D01*
X291818D01*
X292976Y29840D01*
X291479D01*
X291119Y31577D01*
X291079Y31766D01*
X291039Y31946D01*
X290999Y32116D01*
X290959Y32275D01*
X290920Y32415D01*
X290880Y32535D01*
X290850Y32655D01*
X290810Y32754D01*
X290780Y32844D01*
X290750Y32924D01*
X290730Y32984D01*
X290710Y33044D01*
X290690Y33084D01*
X290680Y33114D01*
X290670Y33124D01*
Y33134D01*
X290580Y33314D01*
X290470Y33463D01*
X290371Y33603D01*
X290271Y33713D01*
X290181Y33803D01*
X290111Y33873D01*
X290061Y33912D01*
X290041Y33923D01*
X289891Y34022D01*
X289752Y34092D01*
X289612Y34152D01*
X289492Y34182D01*
X289392Y34202D01*
X289322Y34222D01*
X289252D01*
X289083Y34212D01*
X289013Y34202D01*
X288943Y34182D01*
X288893Y34172D01*
X288853Y34152D01*
X288823Y34142D01*
X288813D01*
X288234Y35370D01*
X288374Y35430D01*
X288504Y35470D01*
X288624Y35500D01*
X288724Y35520D01*
X288813Y35530D01*
X288873Y35540D01*
X288933D01*
X289103Y35530D01*
D02*
G37*
G36*
X282774Y29840D02*
X281277D01*
X279670Y37516D01*
X281177D01*
X282774Y29840D01*
D02*
G37*
G36*
X247687Y35530D02*
X247916Y35510D01*
X248136Y35480D01*
X248335Y35440D01*
X248515Y35380D01*
X248685Y35330D01*
X248835Y35270D01*
X248964Y35210D01*
X249084Y35140D01*
X249184Y35080D01*
X249274Y35031D01*
X249344Y34981D01*
X249404Y34931D01*
X249443Y34901D01*
X249464Y34881D01*
X249473Y34871D01*
X249563Y34781D01*
X249633Y34681D01*
X249703Y34591D01*
X249753Y34491D01*
X249843Y34302D01*
X249903Y34122D01*
X249933Y33962D01*
X249943Y33902D01*
X249953Y33843D01*
X249963Y33793D01*
Y33763D01*
Y33743D01*
Y33733D01*
X249953Y33613D01*
X249943Y33493D01*
X249883Y33284D01*
X249803Y33094D01*
X249713Y32944D01*
X249623Y32824D01*
X249543Y32725D01*
X249483Y32675D01*
X249473Y32665D01*
X249464Y32655D01*
X249394Y32605D01*
X249294Y32555D01*
X249184Y32495D01*
X249064Y32435D01*
X248924Y32375D01*
X248785Y32315D01*
X248505Y32206D01*
X248365Y32156D01*
X248226Y32106D01*
X248106Y32056D01*
X248006Y32016D01*
X247916Y31986D01*
X247846Y31966D01*
X247796Y31956D01*
X247787Y31946D01*
X247617Y31886D01*
X247477Y31826D01*
X247367Y31776D01*
X247277Y31736D01*
X247218Y31706D01*
X247188Y31676D01*
X247168Y31667D01*
X247158Y31656D01*
X247118Y31607D01*
X247098Y31567D01*
X247058Y31477D01*
X247048Y31417D01*
Y31397D01*
Y31387D01*
X247058Y31307D01*
X247078Y31227D01*
X247118Y31167D01*
X247158Y31107D01*
X247197Y31068D01*
X247237Y31038D01*
X247257Y31018D01*
X247267Y31008D01*
X247387Y30928D01*
X247527Y30878D01*
X247667Y30838D01*
X247796Y30808D01*
X247906Y30788D01*
X248006Y30778D01*
X248086D01*
X248256Y30788D01*
X248415Y30808D01*
X248545Y30838D01*
X248655Y30878D01*
X248745Y30908D01*
X248815Y30938D01*
X248855Y30958D01*
X248865Y30968D01*
X248964Y31048D01*
X249054Y31147D01*
X249134Y31257D01*
X249204Y31367D01*
X249254Y31457D01*
X249304Y31547D01*
X249324Y31597D01*
X249334Y31617D01*
X250791Y31387D01*
X250691Y31098D01*
X250562Y30848D01*
X250412Y30638D01*
X250262Y30459D01*
X250132Y30319D01*
X250012Y30219D01*
X249973Y30189D01*
X249943Y30159D01*
X249923Y30149D01*
X249913Y30139D01*
X249783Y30059D01*
X249643Y29999D01*
X249344Y29890D01*
X249034Y29810D01*
X248735Y29760D01*
X248595Y29740D01*
X248465Y29720D01*
X248346Y29710D01*
X248246D01*
X248166Y29700D01*
X248046D01*
X247826Y29710D01*
X247617Y29730D01*
X247427Y29750D01*
X247247Y29790D01*
X247078Y29830D01*
X246928Y29880D01*
X246788Y29940D01*
X246658Y29990D01*
X246549Y30039D01*
X246449Y30099D01*
X246369Y30149D01*
X246299Y30189D01*
X246249Y30229D01*
X246209Y30259D01*
X246189Y30269D01*
X246179Y30279D01*
X246060Y30389D01*
X245960Y30508D01*
X245870Y30618D01*
X245790Y30738D01*
X245730Y30858D01*
X245670Y30968D01*
X245590Y31187D01*
X245550Y31377D01*
X245530Y31457D01*
X245520Y31527D01*
X245511Y31577D01*
Y31617D01*
Y31646D01*
Y31656D01*
X245520Y31766D01*
X245530Y31876D01*
X245590Y32076D01*
X245680Y32255D01*
X245770Y32405D01*
X245870Y32535D01*
X245960Y32625D01*
X246020Y32685D01*
X246030Y32705D01*
X246040D01*
X246119Y32764D01*
X246209Y32824D01*
X246309Y32874D01*
X246429Y32934D01*
X246668Y33044D01*
X246908Y33134D01*
X247138Y33214D01*
X247237Y33254D01*
X247327Y33284D01*
X247407Y33304D01*
X247457Y33324D01*
X247497Y33333D01*
X247507D01*
X247637Y33373D01*
X247747Y33403D01*
X247846Y33443D01*
X247936Y33473D01*
X248016Y33493D01*
X248086Y33523D01*
X248196Y33563D01*
X248266Y33593D01*
X248316Y33613D01*
X248335Y33633D01*
X248346D01*
X248415Y33683D01*
X248465Y33743D01*
X248495Y33803D01*
X248515Y33853D01*
X248535Y33902D01*
X248545Y33942D01*
Y33962D01*
Y33972D01*
X248535Y34052D01*
X248515Y34122D01*
X248445Y34232D01*
X248405Y34282D01*
X248375Y34312D01*
X248356Y34332D01*
X248346Y34342D01*
X248256Y34392D01*
X248146Y34432D01*
X248036Y34462D01*
X247926Y34481D01*
X247826Y34491D01*
X247747Y34501D01*
X247667D01*
X247497Y34491D01*
X247347Y34471D01*
X247208Y34432D01*
X247088Y34402D01*
X246998Y34362D01*
X246928Y34322D01*
X246878Y34302D01*
X246868Y34292D01*
X246778Y34232D01*
X246708Y34162D01*
X246649Y34082D01*
X246599Y34012D01*
X246559Y33942D01*
X246529Y33893D01*
X246509Y33853D01*
Y33843D01*
X245121Y34082D01*
X245191Y34322D01*
X245291Y34531D01*
X245411Y34711D01*
X245530Y34861D01*
X245640Y34981D01*
X245730Y35070D01*
X245770Y35100D01*
X245800Y35120D01*
X245810Y35140D01*
X245820D01*
X245930Y35210D01*
X246050Y35270D01*
X246309Y35370D01*
X246579Y35440D01*
X246838Y35490D01*
X246958Y35510D01*
X247078Y35520D01*
X247178Y35530D01*
X247267D01*
X247347Y35540D01*
X247447D01*
X247687Y35530D01*
D02*
G37*
%LPC*%
G36*
X337769Y46900D02*
X336416D01*
Y46562D01*
X337769D01*
Y46900D01*
D02*
G37*
G36*
X293810D02*
X292458D01*
Y46562D01*
X293810D01*
Y46900D01*
D02*
G37*
G36*
X287386D02*
X286033D01*
Y45886D01*
X287386D01*
Y46562D01*
Y46900D01*
D02*
G37*
G36*
X257967D02*
X256615D01*
Y45886D01*
X257967D01*
Y46900D01*
D02*
G37*
G36*
X241060D02*
X239708D01*
Y46562D01*
Y46224D01*
X241060D01*
Y46900D01*
D02*
G37*
G36*
X343517Y47576D02*
X339798D01*
Y45886D01*
X343517D01*
Y46224D01*
X340136D01*
Y47238D01*
X343517D01*
Y47576D01*
D02*
G37*
G36*
X327624Y46900D02*
X326272D01*
Y45886D01*
X327624D01*
Y46900D01*
D02*
G37*
G36*
X314437Y46224D02*
X313423D01*
Y45886D01*
X314437D01*
Y46224D01*
D02*
G37*
G36*
X307674Y46900D02*
X306322D01*
Y45886D01*
X307674D01*
Y46900D01*
D02*
G37*
G36*
X298206D02*
X296854D01*
Y46562D01*
X298206D01*
Y46900D01*
D02*
G37*
G36*
X267097D02*
X262701D01*
Y46562D01*
X264730D01*
Y46224D01*
X265068D01*
Y45886D01*
X267097D01*
Y46900D01*
D02*
G37*
G36*
X264054Y46224D02*
X262701D01*
Y45886D01*
X264054D01*
Y46224D01*
D02*
G37*
G36*
X232945Y46900D02*
X231930D01*
Y46562D01*
X232945D01*
Y46900D01*
D02*
G37*
G36*
X229902D02*
X228549D01*
Y46562D01*
X229902D01*
Y46900D01*
D02*
G37*
G36*
X219757D02*
X218405D01*
Y46562D01*
Y46224D01*
X219757D01*
Y46900D01*
D02*
G37*
G36*
X285190Y32445D02*
X285180D01*
X285220Y32236D01*
X285270Y32046D01*
X285310Y31876D01*
X285359Y31736D01*
X285399Y31617D01*
X285439Y31527D01*
X285459Y31467D01*
X285479Y31427D01*
X285489Y31417D01*
X285549Y31327D01*
X285619Y31237D01*
X285699Y31167D01*
X285769Y31107D01*
X285839Y31058D01*
X285889Y31018D01*
X285928Y30998D01*
X285938Y30988D01*
X286048Y30938D01*
X286168Y30898D01*
X286268Y30868D01*
X286368Y30848D01*
X286458Y30838D01*
X286517Y30828D01*
X286577D01*
X286687Y30838D01*
X286787Y30858D01*
X286867Y30888D01*
X286947Y30918D01*
X286997Y30948D01*
X287047Y30978D01*
X287066Y30998D01*
X287076Y31008D01*
X287136Y31077D01*
X287176Y31157D01*
X287216Y31227D01*
X287236Y31297D01*
X287246Y31367D01*
X287256Y31417D01*
Y31447D01*
Y31457D01*
X287246Y31567D01*
X287216Y31676D01*
X287176Y31756D01*
X287136Y31836D01*
X287096Y31886D01*
X287056Y31936D01*
X287027Y31956D01*
X287017Y31966D01*
X286947Y32016D01*
X286857Y32066D01*
X286747Y32106D01*
X286637Y32146D01*
X286398Y32215D01*
X286148Y32275D01*
X285919Y32315D01*
X285809Y32335D01*
X285719Y32345D01*
X285649Y32365D01*
X285589D01*
X285549Y32375D01*
X285539D01*
X285389Y32395D01*
X285329Y32415D01*
X285280Y32425D01*
X285240Y32435D01*
X285200D01*
X285190Y32445D01*
D02*
G37*
G36*
X302299Y34462D02*
X302279D01*
X302120Y34451D01*
X301970Y34412D01*
X301840Y34362D01*
X301740Y34312D01*
X301650Y34252D01*
X301590Y34202D01*
X301551Y34162D01*
X301541Y34152D01*
X301451Y34022D01*
X301381Y33873D01*
X301331Y33723D01*
X301291Y33573D01*
X301271Y33433D01*
X301261Y33324D01*
Y33284D01*
Y33254D01*
Y33234D01*
Y33224D01*
Y33174D01*
Y33124D01*
Y33094D01*
Y33074D01*
X303617D01*
X303557Y33314D01*
X303487Y33523D01*
X303397Y33703D01*
X303318Y33843D01*
X303238Y33952D01*
X303178Y34042D01*
X303138Y34082D01*
X303118Y34102D01*
X302978Y34222D01*
X302828Y34312D01*
X302689Y34372D01*
X302559Y34422D01*
X302449Y34441D01*
X302359Y34451D01*
X302299Y34462D01*
D02*
G37*
G36*
X265964D02*
X265944D01*
X265784Y34451D01*
X265635Y34412D01*
X265505Y34362D01*
X265405Y34312D01*
X265315Y34252D01*
X265255Y34202D01*
X265215Y34162D01*
X265205Y34152D01*
X265116Y34022D01*
X265046Y33873D01*
X264996Y33723D01*
X264956Y33573D01*
X264936Y33433D01*
X264926Y33324D01*
Y33284D01*
Y33254D01*
Y33234D01*
Y33224D01*
Y33174D01*
Y33124D01*
Y33094D01*
Y33074D01*
X267282D01*
X267222Y33314D01*
X267152Y33523D01*
X267062Y33703D01*
X266982Y33843D01*
X266902Y33952D01*
X266842Y34042D01*
X266803Y34082D01*
X266783Y34102D01*
X266643Y34222D01*
X266493Y34312D01*
X266353Y34372D01*
X266224Y34422D01*
X266114Y34441D01*
X266024Y34451D01*
X265964Y34462D01*
D02*
G37*
%LPD*%
D10*
X160600Y197750D02*
Y362850D01*
X3100Y197750D02*
Y362850D01*
X42700D01*
X107350D02*
X160600D01*
X3100Y197750D02*
X42700D01*
X107350D02*
X160600D01*
X434200Y271800D02*
X440800D01*
X429500Y282950D02*
Y289650D01*
X434200Y300800D02*
X440800D01*
X558000Y248800D02*
Y322800D01*
X500500Y248800D02*
X558000D01*
X500500D02*
Y322800D01*
X558000D01*
D27*
X525000Y330200D02*
G03*
X525000Y330200I-1000J0D01*
G01*
X412300Y337050D02*
Y341550D01*
X397300Y337050D02*
Y341550D01*
X402300Y321050D02*
X407300D01*
X404800Y318550D02*
Y323550D01*
X393689Y362927D02*
Y395989D01*
X416311Y362927D02*
Y395989D01*
M02*
