G04*
G04 #@! TF.GenerationSoftware,Altium Limited,Altium Designer,25.2.1 (25)*
G04*
G04 Layer_Color=2752767*
%FSLAX44Y44*%
%MOMM*%
G71*
G04*
G04 #@! TF.SameCoordinates,5F0F5B64-BFB7-492A-895C-DD278EAA695B*
G04*
G04*
G04 #@! TF.FilePolarity,Positive*
G04*
G01*
G75*
%ADD10C,0.1270*%
%ADD52C,0.1693*%
D10*
X92000Y356520D02*
X86920Y366680D01*
X97080D01*
X92000Y356520D01*
Y193920D02*
X86920Y204080D01*
X97080D01*
X92000Y193920D01*
X83100Y310780D02*
X85640Y313320D01*
X88180D01*
X85640Y315860D01*
X88180Y318400D01*
X85640D01*
X83100Y320940D01*
X80560Y318400D01*
X78020D01*
X80560Y315860D01*
X78020Y313320D01*
X80560D01*
X83100Y310780D01*
X100900Y300620D02*
X103440Y303160D01*
X105980D01*
X103440Y305700D01*
X105980Y308240D01*
X103440D01*
X100900Y310780D01*
X98360Y308240D01*
X95820D01*
X98360Y305700D01*
X95820Y303160D01*
X98360D01*
X100900Y300620D01*
X83100Y290460D02*
X85640Y293000D01*
X88180D01*
X85640Y295540D01*
X88180Y298080D01*
X85640D01*
X83100Y300620D01*
X80560Y298080D01*
X78020D01*
X80560Y295540D01*
X78020Y293000D01*
X80560D01*
X83100Y290460D01*
X100900Y280300D02*
X103440Y282840D01*
X105980D01*
X103440Y285380D01*
X105980Y287920D01*
X103440D01*
X100900Y290460D01*
X98360Y287920D01*
X95820D01*
X98360Y285380D01*
X95820Y282840D01*
X98360D01*
X100900Y280300D01*
X83100Y270140D02*
X85640Y272680D01*
X88180D01*
X85640Y275220D01*
X88180Y277760D01*
X85640D01*
X83100Y280300D01*
X80560Y277760D01*
X78020D01*
X80560Y275220D01*
X78020Y272680D01*
X80560D01*
X83100Y270140D01*
X100900Y259980D02*
X103440Y262520D01*
X105980D01*
X103440Y265060D01*
X105980Y267600D01*
X103440D01*
X100900Y270140D01*
X98360Y267600D01*
X95820D01*
X98360Y265060D01*
X95820Y262520D01*
X98360D01*
X100900Y259980D01*
X83100Y249820D02*
X85640Y252360D01*
X88180D01*
X85640Y254900D01*
X88180Y257440D01*
X85640D01*
X83100Y259980D01*
X80560Y257440D01*
X78020D01*
X80560Y254900D01*
X78020Y252360D01*
X80560D01*
X83100Y249820D01*
X100900Y239660D02*
X103440Y242200D01*
X105980D01*
X103440Y244740D01*
X105980Y247280D01*
X103440D01*
X100900Y249820D01*
X98360Y247280D01*
X95820D01*
X98360Y244740D01*
X95820Y242200D01*
X98360D01*
X100900Y239660D01*
X52620Y338720D02*
X55160Y343800D01*
X52620Y348880D01*
X57700Y346340D01*
X62780Y348880D01*
X60240Y343800D01*
X62780Y338720D01*
X57700Y341260D01*
X52620Y338720D01*
Y211720D02*
X55160Y216800D01*
X52620Y221880D01*
X57700Y219340D01*
X62780Y221880D01*
X60240Y216800D01*
X62780Y211720D01*
X57700Y214260D01*
X52620Y211720D01*
X430700Y29980D02*
Y40140D01*
X440860D01*
Y29980D01*
X430700D01*
X430650Y519960D02*
Y530120D01*
X440810D01*
Y519960D01*
X430650D01*
X119270Y29950D02*
Y40110D01*
X129430D01*
Y29950D01*
X119270D01*
X119220Y520020D02*
Y530180D01*
X129380D01*
Y520020D01*
X119220D01*
X394920Y494920D02*
X397460D01*
X400000Y497460D01*
X402540Y494920D01*
X405080D01*
Y497460D01*
X402540Y500000D01*
X405080Y502540D01*
Y505080D01*
X402540D01*
X400000Y502540D01*
X397460Y505080D01*
X394920D01*
Y502540D01*
X397460Y500000D01*
X394920Y497460D01*
Y494920D01*
X444920Y394920D02*
X447460D01*
X450000Y397460D01*
X452540Y394920D01*
X455080D01*
Y397460D01*
X452540Y400000D01*
X455080Y402540D01*
Y405080D01*
X452540D01*
X450000Y402540D01*
X447460Y405080D01*
X444920D01*
Y402540D01*
X447460Y400000D01*
X444920Y397460D01*
Y394920D01*
Y194920D02*
X447460D01*
X450000Y197460D01*
X452540Y194920D01*
X455080D01*
Y197460D01*
X452540Y200000D01*
X455080Y202540D01*
Y205080D01*
X452540D01*
X450000Y202540D01*
X447460Y205080D01*
X444920D01*
Y202540D01*
X447460Y200000D01*
X444920Y197460D01*
Y194920D01*
X394920Y94920D02*
X397460D01*
X400000Y97460D01*
X402540Y94920D01*
X405080D01*
Y97460D01*
X402540Y100000D01*
X405080Y102540D01*
Y105080D01*
X402540D01*
X400000Y102540D01*
X397460Y105080D01*
X394920D01*
Y102540D01*
X397460Y100000D01*
X394920Y97460D01*
Y94920D01*
X294920Y494920D02*
X297460D01*
X300000Y497460D01*
X302540Y494920D01*
X305080D01*
Y497460D01*
X302540Y500000D01*
X305080Y502540D01*
Y505080D01*
X302540D01*
X300000Y502540D01*
X297460Y505080D01*
X294920D01*
Y502540D01*
X297460Y500000D01*
X294920Y497460D01*
Y494920D01*
X344920Y394920D02*
X347460D01*
X350000Y397460D01*
X352540Y394920D01*
X355080D01*
Y397460D01*
X352540Y400000D01*
X355080Y402540D01*
Y405080D01*
X352540D01*
X350000Y402540D01*
X347460Y405080D01*
X344920D01*
Y402540D01*
X347460Y400000D01*
X344920Y397460D01*
Y394920D01*
Y194920D02*
X347460D01*
X350000Y197460D01*
X352540Y194920D01*
X355080D01*
Y197460D01*
X352540Y200000D01*
X355080Y202540D01*
Y205080D01*
X352540D01*
X350000Y202540D01*
X347460Y205080D01*
X344920D01*
Y202540D01*
X347460Y200000D01*
X344920Y197460D01*
Y194920D01*
X294920Y94920D02*
X297460D01*
X300000Y97460D01*
X302540Y94920D01*
X305080D01*
Y97460D01*
X302540Y100000D01*
X305080Y102540D01*
Y105080D01*
X302540D01*
X300000Y102540D01*
X297460Y105080D01*
X294920D01*
Y102540D01*
X297460Y100000D01*
X294920Y97460D01*
Y94920D01*
X194920Y494920D02*
X197460D01*
X200000Y497460D01*
X202540Y494920D01*
X205080D01*
Y497460D01*
X202540Y500000D01*
X205080Y502540D01*
Y505080D01*
X202540D01*
X200000Y502540D01*
X197460Y505080D01*
X194920D01*
Y502540D01*
X197460Y500000D01*
X194920Y497460D01*
Y494920D01*
X244920Y394920D02*
X247460D01*
X250000Y397460D01*
X252540Y394920D01*
X255080D01*
Y397460D01*
X252540Y400000D01*
X255080Y402540D01*
Y405080D01*
X252540D01*
X250000Y402540D01*
X247460Y405080D01*
X244920D01*
Y402540D01*
X247460Y400000D01*
X244920Y397460D01*
Y394920D01*
Y194920D02*
X247460D01*
X250000Y197460D01*
X252540Y194920D01*
X255080D01*
Y197460D01*
X252540Y200000D01*
X255080Y202540D01*
Y205080D01*
X252540D01*
X250000Y202540D01*
X247460Y205080D01*
X244920D01*
Y202540D01*
X247460Y200000D01*
X244920Y197460D01*
Y194920D01*
X194920Y94920D02*
X197460D01*
X200000Y97460D01*
X202540Y94920D01*
X205080D01*
Y97460D01*
X202540Y100000D01*
X205080Y102540D01*
Y105080D01*
X202540D01*
X200000Y102540D01*
X197460Y105080D01*
X194920D01*
Y102540D01*
X197460Y100000D01*
X194920Y97460D01*
Y94920D01*
X144920Y394920D02*
X147460D01*
X150000Y397460D01*
X152540Y394920D01*
X155080D01*
Y397460D01*
X152540Y400000D01*
X155080Y402540D01*
Y405080D01*
X152540D01*
X150000Y402540D01*
X147460Y405080D01*
X144920D01*
Y402540D01*
X147460Y400000D01*
X144920Y397460D01*
Y394920D01*
Y194920D02*
X147460D01*
X150000Y197460D01*
X152540Y194920D01*
X155080D01*
Y197460D01*
X152540Y200000D01*
X155080Y202540D01*
Y205080D01*
X152540D01*
X150000Y202540D01*
X147460Y205080D01*
X144920D01*
Y202540D01*
X147460Y200000D01*
X144920Y197460D01*
Y194920D01*
X342560Y235760D02*
Y233220D01*
X347640D01*
Y235760D01*
X350180D01*
Y240840D01*
X347640D01*
Y243380D01*
X342560D01*
Y240840D01*
X340020D01*
Y235760D01*
X342560D01*
X333260Y235960D02*
Y233420D01*
X338340D01*
Y235960D01*
X340880D01*
Y241040D01*
X338340D01*
Y243580D01*
X333260D01*
Y241040D01*
X330720D01*
Y235960D01*
X333260D01*
X324160Y236160D02*
Y233620D01*
X329240D01*
Y236160D01*
X331780D01*
Y241240D01*
X329240D01*
Y243780D01*
X324160D01*
Y241240D01*
X321620D01*
Y236160D01*
X324160D01*
X129160Y282260D02*
Y279720D01*
X134240D01*
Y282260D01*
X136780D01*
Y287340D01*
X134240D01*
Y289880D01*
X129160D01*
Y287340D01*
X126620D01*
Y282260D01*
X129160D01*
X50060Y252360D02*
Y249820D01*
X55140D01*
Y252360D01*
X57680D01*
Y257440D01*
X55140D01*
Y259980D01*
X50060D01*
Y257440D01*
X47520D01*
Y252360D01*
X50060D01*
Y293160D02*
Y290620D01*
X55140D01*
Y293160D01*
X57680D01*
Y298240D01*
X55140D01*
Y300780D01*
X50060D01*
Y298240D01*
X47520D01*
Y293160D01*
X50060D01*
X49960Y312660D02*
Y310120D01*
X55040D01*
Y312660D01*
X57580D01*
Y317740D01*
X55040D01*
Y320280D01*
X49960D01*
Y317740D01*
X47420D01*
Y312660D01*
X49960D01*
X234360Y270860D02*
Y268320D01*
X239440D01*
Y270860D01*
X241980D01*
Y275940D01*
X239440D01*
Y278480D01*
X234360D01*
Y275940D01*
X231820D01*
Y270860D01*
X234360D01*
X320560Y293260D02*
Y290720D01*
X325640D01*
Y293260D01*
X328180D01*
Y298340D01*
X325640D01*
Y300880D01*
X320560D01*
Y298340D01*
X318020D01*
Y293260D01*
X320560D01*
X350260Y291760D02*
Y289220D01*
X355340D01*
Y291760D01*
X357880D01*
Y296840D01*
X355340D01*
Y299380D01*
X350260D01*
Y296840D01*
X347720D01*
Y291760D01*
X350260D01*
X350360Y284560D02*
Y282020D01*
X355440D01*
Y284560D01*
X357980D01*
Y289640D01*
X355440D01*
Y292180D01*
X350360D01*
Y289640D01*
X347820D01*
Y284560D01*
X350360D01*
Y277360D02*
Y274820D01*
X355440D01*
Y277360D01*
X357980D01*
Y282440D01*
X355440D01*
Y284980D01*
X350360D01*
Y282440D01*
X347820D01*
Y277360D01*
X350360D01*
D52*
X529080Y298300D02*
G03*
X529080Y298300I-5080J0D01*
G01*
Y273300D02*
G03*
X529080Y273300I-5080J0D01*
G01*
M02*
