G04*
G04 #@! TF.GenerationSoftware,Altium Limited,Altium Designer,25.2.1 (25)*
G04*
G04 Layer_Color=128*
%FSLAX44Y44*%
%MOMM*%
G71*
G04*
G04 #@! TF.SameCoordinates,E53B945B-1C12-4891-9A8B-C73F09DD0495*
G04*
G04*
G04 #@! TF.FilePolarity,Positive*
G04*
G01*
G75*
%ADD11C,0.1270*%
D11*
X522000Y281200D02*
X538200D01*
X530100Y273100D02*
Y289300D01*
X522000Y118600D02*
X538200D01*
X530100Y110500D02*
Y126700D01*
X534300Y235460D02*
X543700D01*
X539000Y230760D02*
Y240160D01*
X516500Y225300D02*
X525900D01*
X521200Y220600D02*
Y230000D01*
X534300Y215140D02*
X543700D01*
X539000Y210440D02*
Y219840D01*
X516500Y204980D02*
X525900D01*
X521200Y200280D02*
Y209680D01*
X534300Y194820D02*
X543700D01*
X539000Y190120D02*
Y199520D01*
X516500Y184660D02*
X525900D01*
X521200Y179960D02*
Y189360D01*
X534300Y174500D02*
X543700D01*
X539000Y169800D02*
Y179200D01*
X516500Y164340D02*
X525900D01*
X521200Y159640D02*
Y169040D01*
X547900Y263400D02*
X580900D01*
X564400Y246900D02*
Y279900D01*
X547900Y136400D02*
X580900D01*
X564400Y119900D02*
Y152900D01*
X426550Y211600D02*
X437050D01*
X431800Y206350D02*
Y216850D01*
X426550Y186600D02*
X437050D01*
X431800Y181350D02*
Y191850D01*
X64500Y75100D02*
X85500D01*
X75000Y64600D02*
Y85600D01*
X314600Y75100D02*
X335600D01*
X325100Y64600D02*
Y85600D01*
X314500Y325100D02*
X335500D01*
X325000Y314600D02*
Y335600D01*
X64600Y325100D02*
X85600D01*
X75100Y314600D02*
Y335600D01*
X296444Y300000D02*
X303556D01*
X300000Y296444D02*
Y303556D01*
X196444Y300000D02*
X203556D01*
X200000Y296444D02*
Y303556D01*
X196444Y100000D02*
X203556D01*
X200000Y96444D02*
Y103556D01*
X96444Y300000D02*
X103556D01*
X100000Y296444D02*
Y303556D01*
X96444Y100000D02*
X103556D01*
X100000Y96444D02*
Y103556D01*
X259600Y192900D02*
X262600D01*
X261100Y191400D02*
Y194400D01*
X241700Y185300D02*
X244700D01*
X243200Y183800D02*
Y186800D01*
X241800Y177900D02*
X244800D01*
X243300Y176400D02*
Y179400D01*
X156200Y186600D02*
X159200D01*
X157700Y185100D02*
Y188100D01*
X154100Y240300D02*
X157100D01*
X155600Y238800D02*
Y241800D01*
X145300Y240400D02*
X148300D01*
X146800Y238900D02*
Y241900D01*
X136700Y240300D02*
X139700D01*
X138200Y238800D02*
Y241800D01*
X386500Y187400D02*
X389500D01*
X388000Y185900D02*
Y188900D01*
X308800Y221000D02*
X311800D01*
X310300Y219500D02*
Y222500D01*
X307200Y92800D02*
X310200D01*
X308700Y91300D02*
Y94300D01*
X240424Y201100D02*
X243424D01*
X241924Y199600D02*
Y202600D01*
X567300Y215000D02*
X570300D01*
X568800Y213500D02*
Y216500D01*
X490100Y205100D02*
X493100D01*
X491600Y203600D02*
Y206600D01*
X567200Y174000D02*
X570200D01*
X568700Y172500D02*
Y175500D01*
X567600Y235600D02*
X570600D01*
X569100Y234100D02*
Y237100D01*
M02*
