G04*
G04 #@! TF.GenerationSoftware,Altium Limited,Altium Designer,25.2.1 (25)*
G04*
G04 Layer_Color=16711935*
%FSLAX44Y44*%
%MOMM*%
G71*
G04*
G04 #@! TF.SameCoordinates,E53B945B-1C12-4891-9A8B-C73F09DD0495*
G04*
G04*
G04 #@! TF.FilePolarity,Positive*
G04*
G01*
G75*
%ADD47C,0.0127*%
D47*
X335064Y75064D02*
G03*
X335064Y75064I-10000J0D01*
G01*
D02*
G03*
X335064Y75064I-10000J0D01*
G01*
X603269Y100063D02*
G03*
X623269Y120063I0J20000D01*
G01*
Y280063D02*
G03*
X603269Y300063I-20000J0D01*
G01*
X362510Y316730D02*
G03*
X394999Y300063I32489J23333D01*
G01*
Y100063D02*
G03*
X362510Y83397I0J-40000D01*
G01*
X85063Y325064D02*
G03*
X85063Y325064I-10000J0D01*
G01*
X335064D02*
G03*
X335064Y325064I-10000J0D01*
G01*
X85063Y75064D02*
G03*
X85063Y75064I-10000J0D01*
G01*
X394999Y100063D02*
G03*
X362510Y83397I0J-40000D01*
G01*
Y316730D02*
G03*
X394999Y300063I32489J23333D01*
G01*
X623269Y280063D02*
G03*
X603269Y300063I-20000J0D01*
G01*
Y100063D02*
G03*
X623269Y120063I0J20000D01*
G01*
X85063Y75064D02*
G03*
X85063Y75064I-10000J0D01*
G01*
X335064Y325064D02*
G03*
X335064Y325064I-10000J0D01*
G01*
X85063D02*
G03*
X85063Y325064I-10000J0D01*
G01*
X362510Y316730D02*
G03*
X362510Y83397I-162447J-116667D01*
G01*
X623269Y120063D02*
Y280063D01*
X394999Y300063D02*
X603269D01*
X394999Y100063D02*
X603269D01*
X394999D02*
X603269D01*
X623269Y120063D02*
Y280063D01*
X394999Y300063D02*
X603269D01*
M02*
