G04*
G04 #@! TF.GenerationSoftware,Altium Limited,Altium Designer,25.2.1 (25)*
G04*
G04 Layer_Color=255*
%FSLAX44Y44*%
%MOMM*%
G71*
G04*
G04 #@! TF.SameCoordinates,5CE3E44F-7945-412C-9A7F-B76B696680CC*
G04*
G04*
G04 #@! TF.FilePolarity,Positive*
G04*
G01*
G75*
G04:AMPARAMS|DCode=11|XSize=1.47mm|YSize=0.41mm|CornerRadius=0.0513mm|HoleSize=0mm|Usage=FLASHONLY|Rotation=0.000|XOffset=0mm|YOffset=0mm|HoleType=Round|Shape=RoundedRectangle|*
%AMROUNDEDRECTD11*
21,1,1.4700,0.3075,0,0,0.0*
21,1,1.3675,0.4100,0,0,0.0*
1,1,0.1025,0.6838,-0.1538*
1,1,0.1025,-0.6838,-0.1538*
1,1,0.1025,-0.6838,0.1538*
1,1,0.1025,0.6838,0.1538*
%
%ADD11ROUNDEDRECTD11*%
%ADD12R,1.5046X1.5562*%
%ADD13R,0.3048X0.5588*%
G04:AMPARAMS|DCode=14|XSize=0.635mm|YSize=0.635mm|CornerRadius=0.1588mm|HoleSize=0mm|Usage=FLASHONLY|Rotation=90.000|XOffset=0mm|YOffset=0mm|HoleType=Round|Shape=RoundedRectangle|*
%AMROUNDEDRECTD14*
21,1,0.6350,0.3175,0,0,90.0*
21,1,0.3175,0.6350,0,0,90.0*
1,1,0.3175,0.1588,0.1588*
1,1,0.3175,0.1588,-0.1588*
1,1,0.3175,-0.1588,-0.1588*
1,1,0.3175,-0.1588,0.1588*
%
%ADD14ROUNDEDRECTD14*%
%ADD29C,2.4300*%
%ADD30R,1.4480X1.4480*%
%ADD31C,1.4480*%
%ADD32C,3.3000*%
%ADD33C,1.0000*%
%ADD34C,1.5750*%
%ADD35R,1.5750X1.5750*%
D11*
X240200Y231000D02*
D03*
Y224500D02*
D03*
Y218000D02*
D03*
Y211500D02*
D03*
Y205000D02*
D03*
Y198500D02*
D03*
Y192000D02*
D03*
X182800D02*
D03*
Y198500D02*
D03*
Y205000D02*
D03*
Y211500D02*
D03*
Y218000D02*
D03*
Y224500D02*
D03*
Y231000D02*
D03*
D12*
X287016Y221000D02*
D03*
X269000D02*
D03*
D13*
X68775Y246900D02*
D03*
X62425D02*
D03*
X68700Y186100D02*
D03*
X62350D02*
D03*
X114400Y216300D02*
D03*
X120750D02*
D03*
X68600Y226800D02*
D03*
X62250D02*
D03*
D14*
X160155Y217800D02*
D03*
X169045D02*
D03*
D29*
X91650Y292800D02*
D03*
Y130200D02*
D03*
D30*
X82750Y247060D02*
D03*
D31*
X100550Y236900D02*
D03*
X82750Y226740D02*
D03*
X100550Y216580D02*
D03*
X82750Y206420D02*
D03*
X100550Y196260D02*
D03*
X82750Y186100D02*
D03*
X100550Y175940D02*
D03*
D32*
X57350Y275000D02*
D03*
Y148000D02*
D03*
D33*
X56531Y56566D02*
D03*
X366589Y56594D02*
D03*
X366553Y366571D02*
D03*
X56562Y366611D02*
D03*
D34*
X296000Y387250D02*
D03*
D35*
X271000D02*
D03*
M02*
