G04*
G04 #@! TF.GenerationSoftware,Altium Limited,Altium Designer,25.2.1 (25)*
G04*
G04 Layer_Color=32768*
%FSLAX44Y44*%
%MOMM*%
G71*
G04*
G04 #@! TF.SameCoordinates,1C3F561B-ADC2-47E7-AF2F-1A29A0D61862*
G04*
G04*
G04 #@! TF.FilePolarity,Positive*
G04*
G01*
G75*
%ADD28C,0.2000*%
%ADD49C,0.1524*%
G36*
X71247Y241734D02*
Y231066D01*
Y230558D01*
X55753D01*
Y231066D01*
Y241734D01*
Y242242D01*
X71247D01*
Y241734D01*
D02*
G37*
G36*
Y221334D02*
Y210666D01*
Y210158D01*
X55753D01*
Y210666D01*
Y221334D01*
Y221842D01*
X71247D01*
Y221334D01*
D02*
G37*
G36*
X126947Y211634D02*
Y200966D01*
Y200458D01*
X111453D01*
Y200966D01*
Y211634D01*
Y212142D01*
X126947D01*
Y211634D01*
D02*
G37*
G36*
X71847Y181034D02*
Y170366D01*
Y169858D01*
X56353D01*
Y170366D01*
Y181034D01*
Y181542D01*
X71847D01*
Y181034D01*
D02*
G37*
D28*
X240719Y207923D02*
X266281D01*
X240719Y164861D02*
Y207923D01*
Y164861D02*
X266281D01*
Y207923D01*
D49*
X71847Y170366D02*
Y181034D01*
X56353Y170366D02*
Y181034D01*
X71847D02*
Y181542D01*
Y169858D02*
Y170366D01*
X56353Y169858D02*
X71847D01*
X56353D02*
Y170366D01*
Y181034D02*
Y181542D01*
X71847D01*
X71247Y231066D02*
Y241734D01*
X55753Y231066D02*
Y241734D01*
X71247D02*
Y242242D01*
Y230558D02*
Y231066D01*
X55753Y230558D02*
X71247D01*
X55753D02*
Y231066D01*
Y241734D02*
Y242242D01*
X71247D01*
Y210666D02*
Y221334D01*
X55753Y210666D02*
Y221334D01*
X71247D02*
Y221842D01*
Y210158D02*
Y210666D01*
X55753Y210158D02*
X71247D01*
X55753D02*
Y210666D01*
Y221334D02*
Y221842D01*
X71247D01*
X111453Y200966D02*
Y211634D01*
X126947Y200966D02*
Y211634D01*
X111453Y200458D02*
Y200966D01*
Y211634D02*
Y212142D01*
X126947D01*
Y211634D02*
Y212142D01*
Y200458D02*
Y200966D01*
X111453Y200458D02*
X126947D01*
M02*
