G04*
G04 #@! TF.GenerationSoftware,Altium Limited,Altium Designer,25.2.1 (25)*
G04*
G04 Layer_Color=32768*
%FSLAX44Y44*%
%MOMM*%
G71*
G04*
G04 #@! TF.SameCoordinates,5CE3E44F-7945-412C-9A7F-B76B696680CC*
G04*
G04*
G04 #@! TF.FilePolarity,Positive*
G04*
G01*
G75*
%ADD27C,0.2000*%
%ADD47C,0.1524*%
G36*
X73347Y252234D02*
Y241566D01*
Y241058D01*
X57853D01*
Y241566D01*
Y252234D01*
Y252742D01*
X73347D01*
Y252234D01*
D02*
G37*
G36*
X73172Y232134D02*
Y221466D01*
Y220958D01*
X57678D01*
Y221466D01*
Y232134D01*
Y232642D01*
X73172D01*
Y232134D01*
D02*
G37*
G36*
X125322Y221634D02*
Y210966D01*
Y210458D01*
X109828D01*
Y210966D01*
Y221634D01*
Y222142D01*
X125322D01*
Y221634D01*
D02*
G37*
G36*
X73272Y191434D02*
Y180766D01*
Y180258D01*
X57778D01*
Y180766D01*
Y191434D01*
Y191942D01*
X73272D01*
Y191434D01*
D02*
G37*
D27*
X256477Y208219D02*
Y233781D01*
Y208219D02*
X299539D01*
Y233781D01*
X256477D02*
X299539D01*
D47*
X73347Y241566D02*
Y252234D01*
X57853Y241566D02*
Y252234D01*
X73347D02*
Y252742D01*
Y241058D02*
Y241566D01*
X57853Y241058D02*
X73347D01*
X57853D02*
Y241566D01*
Y252234D02*
Y252742D01*
X73347D01*
X73272Y180766D02*
Y191434D01*
X57778Y180766D02*
Y191434D01*
X73272D02*
Y191942D01*
Y180258D02*
Y180766D01*
X57778Y180258D02*
X73272D01*
X57778D02*
Y180766D01*
Y191434D02*
Y191942D01*
X73272D01*
X109828Y210966D02*
Y221634D01*
X125322Y210966D02*
Y221634D01*
X109828Y210458D02*
Y210966D01*
Y221634D02*
Y222142D01*
X125322D01*
Y221634D02*
Y222142D01*
Y210458D02*
Y210966D01*
X109828Y210458D02*
X125322D01*
X73172Y221466D02*
Y232134D01*
X57678Y221466D02*
Y232134D01*
X73172D02*
Y232642D01*
Y220958D02*
Y221466D01*
X57678Y220958D02*
X73172D01*
X57678D02*
Y221466D01*
Y232134D02*
Y232642D01*
X73172D01*
M02*
