G04*
G04 #@! TF.GenerationSoftware,Altium Limited,Altium Designer,25.2.1 (25)*
G04*
G04 Layer_Physical_Order=1*
G04 Layer_Color=255*
%FSLAX44Y44*%
%MOMM*%
G71*
G04*
G04 #@! TF.SameCoordinates,5F0F5B64-BFB7-492A-895C-DD278EAA695B*
G04*
G04*
G04 #@! TF.FilePolarity,Positive*
G04*
G01*
G75*
%ADD11R,1.5562X1.5046*%
%ADD12R,0.3048X0.5588*%
G04:AMPARAMS|DCode=13|XSize=1.47mm|YSize=0.41mm|CornerRadius=0.0513mm|HoleSize=0mm|Usage=FLASHONLY|Rotation=0.000|XOffset=0mm|YOffset=0mm|HoleType=Round|Shape=RoundedRectangle|*
%AMROUNDEDRECTD13*
21,1,1.4700,0.3075,0,0,0.0*
21,1,1.3675,0.4100,0,0,0.0*
1,1,0.1025,0.6838,-0.1538*
1,1,0.1025,-0.6838,-0.1538*
1,1,0.1025,-0.6838,0.1538*
1,1,0.1025,0.6838,0.1538*
%
%ADD13ROUNDEDRECTD13*%
G04:AMPARAMS|DCode=14|XSize=0.635mm|YSize=0.635mm|CornerRadius=0.1588mm|HoleSize=0mm|Usage=FLASHONLY|Rotation=90.000|XOffset=0mm|YOffset=0mm|HoleType=Round|Shape=RoundedRectangle|*
%AMROUNDEDRECTD14*
21,1,0.6350,0.3175,0,0,90.0*
21,1,0.3175,0.6350,0,0,90.0*
1,1,0.3175,0.1588,0.1588*
1,1,0.3175,0.1588,-0.1588*
1,1,0.3175,-0.1588,-0.1588*
1,1,0.3175,-0.1588,0.1588*
%
%ADD14ROUNDEDRECTD14*%
%ADD27C,0.2000*%
%ADD28C,0.2540*%
%ADD29C,2.4300*%
%ADD30R,1.4480X1.4480*%
%ADD31C,1.4480*%
%ADD32C,3.3000*%
%ADD33R,1.5750X1.5750*%
%ADD34C,1.5750*%
%ADD35C,1.0000*%
%ADD36C,1.2700*%
%ADD37C,0.4500*%
G36*
X409500Y552900D02*
Y513800D01*
X413100D01*
X459900Y467000D01*
X460400Y467500D01*
X531100D01*
Y467000D01*
X556500Y441600D01*
X555600Y440700D01*
Y113400D01*
X539000Y96800D01*
X451500D01*
X405250Y50550D01*
Y12600D01*
X154000D01*
X151600Y15000D01*
Y53500D01*
X97100Y108000D01*
X7700D01*
Y442500D01*
X6985Y443215D01*
X6985Y444485D01*
X25000Y462500D01*
X99900D01*
X151200Y513800D01*
X150300Y514700D01*
Y553700D01*
X408561D01*
X409500Y552900D01*
D02*
G37*
%LPC*%
G36*
X315537Y303089D02*
X301863D01*
X301077Y302933D01*
X300412Y302488D01*
X299967Y301823D01*
X299811Y301038D01*
Y297962D01*
X299967Y297177D01*
X300412Y296512D01*
X301077Y296067D01*
X301863Y295911D01*
X315537D01*
X316323Y296067D01*
X316988Y296512D01*
X317433Y297177D01*
X317589Y297962D01*
Y301038D01*
X317433Y301823D01*
X316988Y302488D01*
X316323Y302933D01*
X315537Y303089D01*
D02*
G37*
G36*
X356700Y300224D02*
X348600D01*
X347452Y299748D01*
X337827Y290124D01*
X300002D01*
X299998Y290122D01*
X299995Y290124D01*
X299425Y289884D01*
X298854Y289648D01*
X298853Y289644D01*
X298849Y289642D01*
X297955Y288740D01*
X297954Y288736D01*
X297950Y288734D01*
X297718Y288159D01*
X297485Y287590D01*
X297487Y287586D01*
X297485Y287582D01*
X297577Y278284D01*
X297817Y277719D01*
X298052Y277152D01*
X298060Y277149D01*
X298063Y277141D01*
X298633Y276911D01*
X299051Y276738D01*
X299302Y276488D01*
X299884Y275406D01*
X299811Y275037D01*
Y271963D01*
X299967Y271177D01*
X300314Y270250D01*
X299967Y269323D01*
X299811Y268538D01*
Y265462D01*
X299967Y264677D01*
X300314Y263750D01*
X299967Y262823D01*
X299811Y262038D01*
Y258962D01*
X299967Y258177D01*
X300412Y257512D01*
X301077Y257067D01*
X301863Y256911D01*
X315537D01*
X316323Y257067D01*
X316988Y257512D01*
X317433Y258177D01*
X317589Y258962D01*
Y262038D01*
X317433Y262823D01*
X317086Y263750D01*
X317433Y264677D01*
X317589Y265462D01*
Y268538D01*
X317433Y269323D01*
X317086Y270250D01*
X317433Y271177D01*
X317589Y271963D01*
Y272455D01*
X318763Y272941D01*
X324652Y267052D01*
X325800Y266576D01*
X341459D01*
X341700Y266476D01*
X342848Y266952D01*
X343273Y267377D01*
X343481D01*
Y267585D01*
X349272Y273376D01*
X357400D01*
X358548Y273852D01*
X359024Y275000D01*
Y297620D01*
X358833Y298079D01*
X358721Y298564D01*
X358021Y299544D01*
X357902Y299618D01*
X357848Y299748D01*
X357389Y299938D01*
X356967Y300201D01*
X356830Y300170D01*
X356700Y300224D01*
D02*
G37*
G36*
X533375Y307675D02*
X514625D01*
Y288925D01*
X533375D01*
Y307675D01*
D02*
G37*
G36*
X59473Y361800D02*
X55927D01*
X52450Y361108D01*
X49174Y359751D01*
X46226Y357781D01*
X43719Y355274D01*
X41749Y352326D01*
X40392Y349050D01*
X39700Y345573D01*
Y342027D01*
X40392Y338550D01*
X41749Y335274D01*
X43719Y332326D01*
X46226Y329818D01*
X49174Y327849D01*
X49607Y327669D01*
X49736Y326241D01*
X45948Y322452D01*
X45395Y321625D01*
X45201Y320650D01*
Y293832D01*
X45395Y292857D01*
X45948Y292030D01*
X65626Y272352D01*
Y259294D01*
X65151D01*
Y250706D01*
X71199D01*
Y252401D01*
X74721D01*
X74956Y251527D01*
X76106Y249534D01*
X77733Y247906D01*
X79727Y246756D01*
X81949Y246160D01*
X84251D01*
X86474Y246756D01*
X88467Y247906D01*
X90094Y249534D01*
X91244Y251527D01*
X91840Y253749D01*
Y256051D01*
X91244Y258274D01*
X90094Y260266D01*
X88467Y261894D01*
X86474Y263044D01*
X84251Y263640D01*
X81949D01*
X79727Y263044D01*
X77733Y261894D01*
X76106Y260266D01*
X74956Y258274D01*
X74748Y257499D01*
X71199D01*
Y259294D01*
X70724D01*
Y273407D01*
X70530Y274383D01*
X69977Y275210D01*
X50299Y294888D01*
Y319594D01*
X52956Y322251D01*
X65570D01*
X65751Y322103D01*
Y319794D01*
X65276D01*
Y311206D01*
X71324D01*
Y312951D01*
X74360D01*
Y307120D01*
X91840D01*
Y324600D01*
X92882Y325151D01*
X141444D01*
X172479Y294116D01*
X171993Y292943D01*
X119515D01*
X118540Y292749D01*
X117713Y292196D01*
X116249Y290732D01*
X115778Y290028D01*
X115144Y289394D01*
X112701D01*
Y287789D01*
X109303D01*
X109044Y288754D01*
X107894Y290746D01*
X106266Y292374D01*
X104274Y293524D01*
X102051Y294120D01*
X99749D01*
X97527Y293524D01*
X95534Y292374D01*
X93906Y290746D01*
X92756Y288754D01*
X92160Y286531D01*
Y285746D01*
X90890Y285220D01*
X89348Y286762D01*
X88685Y287206D01*
X88525Y288051D01*
X88529Y288608D01*
X90094Y290173D01*
X91244Y292167D01*
X91840Y294389D01*
Y296691D01*
X91244Y298913D01*
X90094Y300907D01*
X88467Y302534D01*
X86474Y303684D01*
X84251Y304280D01*
X81949D01*
X79727Y303684D01*
X77733Y302534D01*
X76106Y300907D01*
X74956Y298913D01*
X74756Y298169D01*
X71524D01*
Y299994D01*
X65476D01*
Y291406D01*
X67919D01*
X76168Y283158D01*
X76995Y282605D01*
X77970Y282411D01*
X86490D01*
X95903Y272998D01*
X96730Y272445D01*
X97705Y272251D01*
X108100D01*
X109075Y272445D01*
X109902Y272998D01*
X114162Y277257D01*
X242848D01*
X243012Y277012D01*
X243677Y276567D01*
X244463Y276411D01*
X258137D01*
X258923Y276567D01*
X259588Y277012D01*
X260033Y277677D01*
X260189Y278463D01*
Y281537D01*
X260033Y282323D01*
X259588Y282988D01*
Y283512D01*
X260033Y284177D01*
X260189Y284963D01*
Y288037D01*
X260033Y288823D01*
X259686Y289750D01*
X260033Y290677D01*
X260189Y291462D01*
Y294538D01*
X260033Y295323D01*
X259686Y296250D01*
X260033Y297177D01*
X260189Y297962D01*
Y301038D01*
X260033Y301823D01*
X259588Y302488D01*
X258923Y302933D01*
X258137Y303089D01*
X244463D01*
X243677Y302933D01*
X243012Y302488D01*
X242718Y302049D01*
X180456D01*
X149502Y333002D01*
X148675Y333555D01*
X147700Y333749D01*
X73980D01*
X73381Y334869D01*
X73651Y335274D01*
X75008Y338550D01*
X75700Y342027D01*
Y345573D01*
X75008Y349050D01*
X73651Y352326D01*
X71681Y355274D01*
X69174Y357781D01*
X66226Y359751D01*
X62950Y361108D01*
X59473Y361800D01*
D02*
G37*
G36*
X258137Y270589D02*
X244463D01*
X243677Y270433D01*
X243012Y269988D01*
X242567Y269323D01*
X242411Y268538D01*
Y265462D01*
X242567Y264677D01*
X242914Y263750D01*
X242567Y262823D01*
X242411Y262038D01*
Y258962D01*
X242567Y258177D01*
X243012Y257512D01*
X243677Y257067D01*
X244463Y256911D01*
X258137D01*
X258923Y257067D01*
X259588Y257512D01*
X260033Y258177D01*
X260189Y258962D01*
Y262038D01*
X260033Y262823D01*
X259686Y263750D01*
X260033Y264677D01*
X260189Y265462D01*
Y268538D01*
X260033Y269323D01*
X259588Y269988D01*
X258923Y270433D01*
X258137Y270589D01*
D02*
G37*
G36*
X59473Y234800D02*
X55927D01*
X52450Y234108D01*
X49174Y232751D01*
X46226Y230781D01*
X43719Y228274D01*
X41749Y225326D01*
X40392Y222050D01*
X39700Y218573D01*
Y215027D01*
X40392Y211550D01*
X41749Y208274D01*
X43719Y205326D01*
X46226Y202819D01*
X49174Y200849D01*
X52450Y199492D01*
X55927Y198800D01*
X59473D01*
X62950Y199492D01*
X66226Y200849D01*
X69174Y202819D01*
X71681Y205326D01*
X73651Y208274D01*
X75008Y211550D01*
X75700Y215027D01*
Y218573D01*
X75008Y222050D01*
X73651Y225326D01*
X71681Y228274D01*
X69174Y230781D01*
X66226Y232751D01*
X62950Y234108D01*
X59473Y234800D01*
D02*
G37*
%LPD*%
G36*
X357400Y297620D02*
Y275000D01*
X348600D01*
X341700Y268100D01*
X341600Y268200D01*
X325800D01*
X315700Y278300D01*
X299200D01*
X299109Y287598D01*
X300002Y288500D01*
X337900D01*
X338200Y288200D01*
X348600Y298600D01*
X356700D01*
X357400Y297620D01*
D02*
G37*
G36*
X223120Y287331D02*
Y284613D01*
X223316Y283625D01*
X222886Y282803D01*
X222535Y282355D01*
X118749D01*
Y285789D01*
X119853Y286894D01*
X120324Y287597D01*
X120571Y287845D01*
X222605D01*
X223120Y287331D01*
D02*
G37*
D11*
X334200Y258384D02*
D03*
Y276400D02*
D03*
D12*
X68300Y315500D02*
D03*
X61950D02*
D03*
X68500Y295700D02*
D03*
X62150D02*
D03*
X115725Y285100D02*
D03*
X122075D02*
D03*
X68175Y255000D02*
D03*
X61825D02*
D03*
D13*
X251300Y299500D02*
D03*
Y293000D02*
D03*
Y286500D02*
D03*
Y280000D02*
D03*
Y273500D02*
D03*
Y267000D02*
D03*
Y260500D02*
D03*
X308700D02*
D03*
Y267000D02*
D03*
Y273500D02*
D03*
Y280000D02*
D03*
Y286500D02*
D03*
Y293000D02*
D03*
Y299500D02*
D03*
D14*
X227855Y286200D02*
D03*
X236745D02*
D03*
D27*
X179400Y299500D02*
X251300D01*
X147700Y331200D02*
X179400Y299500D01*
X71970Y331200D02*
X147700D01*
X65570Y324800D02*
X71970Y331200D01*
X51900Y324800D02*
X65570D01*
X47750Y320650D02*
X51900Y324800D01*
X47750Y293832D02*
Y320650D01*
Y293832D02*
X68175Y273407D01*
Y255000D02*
Y273407D01*
X142500Y327700D02*
X176306Y293894D01*
X250406D01*
X73420Y327700D02*
X142500D01*
X68300Y315500D02*
Y322580D01*
X73420Y327700D01*
X108100Y274800D02*
X113106Y279806D01*
X87545Y284960D02*
X97705Y274800D01*
X108100D01*
X68500Y294430D02*
Y295700D01*
X77970Y284960D02*
X87545D01*
X68500Y294430D02*
X77970Y284960D01*
X251106Y279806D02*
X251300Y280000D01*
X113106Y279806D02*
X251106D01*
X250406Y293894D02*
X251300Y293000D01*
X227855Y286200D02*
X227855D01*
X223661Y290394D02*
X227855Y286200D01*
X119515Y290394D02*
X223661D01*
X118051Y288930D02*
X119515Y290394D01*
X118051Y288696D02*
Y288930D01*
X115725Y286370D02*
X118051Y288696D01*
X115725Y285100D02*
Y286370D01*
X251150Y286350D02*
X251300Y286500D01*
X236895Y286350D02*
X251150D01*
X236745Y286200D02*
X236895Y286350D01*
X115585Y285240D02*
X115725Y285100D01*
X101040Y285240D02*
X115585D01*
X100900Y285380D02*
X101040Y285240D01*
X68175Y255000D02*
X68225Y254950D01*
X83050D01*
X83100Y254900D01*
X68500Y295700D02*
X68580Y295620D01*
X83020D01*
X83100Y295540D01*
X68300Y315500D02*
X82740D01*
X83100Y315860D01*
D28*
X322660Y295800D02*
X323100D01*
X319860Y293000D02*
X322660Y295800D01*
X308700Y293000D02*
X319860D01*
X52600Y254900D02*
X52650Y254950D01*
X61775D01*
X61825Y255000D01*
X52500Y315200D02*
X52650Y315350D01*
X61800D01*
X61950Y315500D01*
X52600Y295700D02*
X62150D01*
X131550Y284950D02*
X131700Y284800D01*
X122225Y284950D02*
X131550D01*
X122075Y285100D02*
X122225Y284950D01*
D29*
X92000Y361600D02*
D03*
Y199000D02*
D03*
D30*
X83100Y315860D02*
D03*
D31*
X100900Y305700D02*
D03*
X83100Y295540D02*
D03*
X100900Y285380D02*
D03*
X83100Y275220D02*
D03*
X100900Y265060D02*
D03*
X83100Y254900D02*
D03*
X100900Y244740D02*
D03*
D32*
X57700Y343800D02*
D03*
Y216800D02*
D03*
D33*
X524000Y298300D02*
D03*
D34*
Y273300D02*
D03*
D35*
X435780Y35060D02*
D03*
X435730Y525040D02*
D03*
X124350Y35030D02*
D03*
X124300Y525100D02*
D03*
D36*
X400000Y500000D02*
D03*
X450000Y400000D02*
D03*
Y200000D02*
D03*
X400000Y100000D02*
D03*
X300000Y500000D02*
D03*
X350000Y400000D02*
D03*
Y200000D02*
D03*
X300000Y100000D02*
D03*
X200000Y500000D02*
D03*
X250000Y400000D02*
D03*
Y200000D02*
D03*
X200000Y100000D02*
D03*
X150000Y400000D02*
D03*
Y200000D02*
D03*
D37*
X345100Y238300D02*
D03*
X335800Y238500D02*
D03*
X326700Y238700D02*
D03*
X131700Y284800D02*
D03*
X52600Y254900D02*
D03*
Y295700D02*
D03*
X52500Y315200D02*
D03*
X236900Y273400D02*
D03*
X323100Y295800D02*
D03*
X352800Y294300D02*
D03*
X352900Y287100D02*
D03*
Y279900D02*
D03*
M02*
