G04*
G04 #@! TF.GenerationSoftware,Altium Limited,Altium Designer,25.2.1 (25)*
G04*
G04 Layer_Color=16711935*
%FSLAX44Y44*%
%MOMM*%
G71*
G04*
G04 #@! TF.SameCoordinates,5F0F5B64-BFB7-492A-895C-DD278EAA695B*
G04*
G04*
G04 #@! TF.FilePolarity,Positive*
G04*
G01*
G75*
%ADD47C,0.0127*%
D47*
X451264Y35064D02*
G03*
X451264Y35064I-15500J0D01*
G01*
X139864D02*
G03*
X139864Y35064I-15500J0D01*
G01*
Y525064D02*
G03*
X139864Y525064I-15500J0D01*
G01*
X451264D02*
G03*
X451264Y525064I-15500J0D01*
G01*
X63Y124363D02*
G03*
X35064Y89363I35000J0D01*
G01*
X89363Y44363D02*
G03*
X44363Y89363I-45000J0D01*
G01*
X89363Y35064D02*
G03*
X124363Y63I35000J0D01*
G01*
X435764D02*
G03*
X470764Y35064I0J35000D01*
G01*
X515764Y89363D02*
G03*
X470764Y44363I0J-45000D01*
G01*
X525064Y89363D02*
G03*
X560064Y124363I0J35000D01*
G01*
Y435764D02*
G03*
X525064Y470764I-35000J0D01*
G01*
X470764Y515764D02*
G03*
X515764Y470764I45000J0D01*
G01*
X470764Y525064D02*
G03*
X435764Y560064I-35000J0D01*
G01*
X124363D02*
G03*
X89363Y525064I0J-35000D01*
G01*
X44363Y470764D02*
G03*
X89363Y515764I0J45000D01*
G01*
X35064Y470764D02*
G03*
X63Y435764I0J-35000D01*
G01*
X560064Y124363D02*
Y435764D01*
X35064Y89363D02*
X44363D01*
X89363Y35064D02*
Y44363D01*
X124363Y63D02*
X435764D01*
X470764Y35064D02*
Y44363D01*
X515764Y89363D02*
X525064D01*
X515764Y470764D02*
X525064D01*
X470764Y515764D02*
Y525064D01*
X124363Y560064D02*
X435764D01*
X89363Y515764D02*
Y525064D01*
X35064Y470764D02*
X44363D01*
X63Y124363D02*
Y435764D01*
M02*
