M48
;Layer_Color=15238730
;FILE_FORMAT=4:4
METRIC,LZ
;TYPE=PLATED
T01F00S00C0.3000
T02F00S00C0.7112
T03F00S00C0.9400
T04F00S00C1.0500
T05F00S00C1.6200
;TYPE=NON_PLATED
T06F00S00C3.1000
T07F00S00C3.3000
%
T01
X000526Y002549
Y002957
X000525Y003152
X001317Y002848
X002369Y002734
X003231Y002958
X003528Y002943
X003529Y002871
Y002799
X003451Y002383
X003358Y002385
X003267Y002387
T02
X002Y001
X003
X0035Y002
X0025
X0015
X0045
X004Y001
X0045Y004
X004Y005
X003
X002
X0025Y004
X0035
X0015
T03
X000831Y002549
Y0027522
Y0029554
Y0031586
X001009Y003057
Y0028538
Y0026506
Y0024474
T04
X00524Y002733
Y002983
T05
X00092Y00199
Y003616
T06
X0012435Y0003503
X0043578Y0003506
X0043573Y0052504
X001243Y005251
T07
X000577Y002168
Y003438
M30
