G04*
G04 #@! TF.GenerationSoftware,Altium Limited,Altium Designer,25.2.1 (25)*
G04*
G04 Layer_Color=8388736*
%FSLAX44Y44*%
%MOMM*%
G71*
G04*
G04 #@! TF.SameCoordinates,1C3F561B-ADC2-47E7-AF2F-1A29A0D61862*
G04*
G04*
G04 #@! TF.FilePolarity,Negative*
G04*
G01*
G75*
%ADD14R,1.5562X1.5046*%
%ADD15R,0.2540X0.5080*%
G04:AMPARAMS|DCode=16|XSize=0.785mm|YSize=0.785mm|CornerRadius=0.2338mm|HoleSize=0mm|Usage=FLASHONLY|Rotation=90.000|XOffset=0mm|YOffset=0mm|HoleType=Round|Shape=RoundedRectangle|*
%AMROUNDEDRECTD16*
21,1,0.7850,0.3175,0,0,90.0*
21,1,0.3175,0.7850,0,0,90.0*
1,1,0.4675,0.1588,0.1588*
1,1,0.4675,0.1588,-0.1588*
1,1,0.4675,-0.1588,-0.1588*
1,1,0.4675,-0.1588,0.1588*
%
%ADD16ROUNDEDRECTD16*%
G04:AMPARAMS|DCode=17|XSize=1.674mm|YSize=0.614mm|CornerRadius=0.1533mm|HoleSize=0mm|Usage=FLASHONLY|Rotation=0.000|XOffset=0mm|YOffset=0mm|HoleType=Round|Shape=RoundedRectangle|*
%AMROUNDEDRECTD17*
21,1,1.6740,0.3075,0,0,0.0*
21,1,1.3675,0.6140,0,0,0.0*
1,1,0.3065,0.6838,-0.1538*
1,1,0.3065,-0.6838,-0.1538*
1,1,0.3065,-0.6838,0.1538*
1,1,0.3065,0.6838,0.1538*
%
%ADD17ROUNDEDRECTD17*%
%ADD18C,2.6332*%
%ADD19R,1.6512X1.6512*%
%ADD20C,1.6512*%
%ADD21C,3.5032*%
%ADD22R,1.7782X1.7782*%
%ADD23C,1.7782*%
%ADD24C,1.2032*%
%ADD25C,1.4732*%
%ADD26C,0.5500*%
%ADD27C,0.7000*%
D14*
X253500Y177384D02*
D03*
Y195400D02*
D03*
D15*
X67275Y175700D02*
D03*
X60925D02*
D03*
X66675Y236400D02*
D03*
X60325D02*
D03*
X66675Y216000D02*
D03*
X60325D02*
D03*
X116025Y206300D02*
D03*
X122375D02*
D03*
D16*
X146155D02*
D03*
X155045D02*
D03*
D17*
X171300Y219500D02*
D03*
Y213000D02*
D03*
Y206500D02*
D03*
Y200000D02*
D03*
Y193500D02*
D03*
Y187000D02*
D03*
Y180500D02*
D03*
X228700D02*
D03*
Y187000D02*
D03*
Y193500D02*
D03*
Y200000D02*
D03*
Y206500D02*
D03*
Y213000D02*
D03*
Y219500D02*
D03*
D18*
X91800Y282800D02*
D03*
Y120200D02*
D03*
D19*
X82900Y237060D02*
D03*
D20*
X100700Y226900D02*
D03*
X82900Y216740D02*
D03*
X100700Y206580D02*
D03*
X82900Y196420D02*
D03*
X100700Y186260D02*
D03*
X82900Y176100D02*
D03*
X100700Y165940D02*
D03*
D21*
X57500Y265000D02*
D03*
Y138000D02*
D03*
D22*
X269700Y364400D02*
D03*
D23*
X294700D02*
D03*
D24*
X355000Y45100D02*
D03*
X45100Y355100D02*
D03*
Y45100D02*
D03*
X355000Y355100D02*
D03*
D25*
X350000Y200000D02*
D03*
X300000Y100000D02*
D03*
X200000Y300000D02*
D03*
Y100000D02*
D03*
X100000D02*
D03*
X350000Y200000D02*
D03*
X300000Y100000D02*
D03*
X200000Y300000D02*
D03*
Y100000D02*
D03*
D26*
X53400Y175600D02*
D03*
X53300Y216100D02*
D03*
Y236600D02*
D03*
X132000Y206600D02*
D03*
X245100Y215500D02*
D03*
X261200Y162600D02*
D03*
X253700D02*
D03*
X246200D02*
D03*
X155700Y193100D02*
D03*
D27*
X273200Y196700D02*
D03*
X273300Y205600D02*
D03*
X273400Y187700D02*
D03*
M02*
