G04*
G04 #@! TF.GenerationSoftware,Altium Limited,Altium Designer,25.2.1 (25)*
G04*
G04 Layer_Physical_Order=2*
G04 Layer_Color=16711680*
%FSLAX44Y44*%
%MOMM*%
G71*
G04*
G04 #@! TF.SameCoordinates,5CE3E44F-7945-412C-9A7F-B76B696680CC*
G04*
G04*
G04 #@! TF.FilePolarity,Positive*
G04*
G01*
G75*
%ADD13R,0.3048X0.5588*%
%ADD29C,2.4300*%
%ADD30R,1.4480X1.4480*%
%ADD31C,1.4480*%
%ADD32C,3.3000*%
%ADD33C,1.0000*%
%ADD34C,1.5750*%
%ADD35R,1.5750X1.5750*%
%ADD36C,1.2700*%
%ADD37C,0.4500*%
%ADD38R,1.4621X1.3546*%
%ADD39R,1.2500X0.6000*%
G04:AMPARAMS|DCode=40|XSize=1.05mm|YSize=1.38mm|CornerRadius=0.1313mm|HoleSize=0mm|Usage=FLASHONLY|Rotation=180.000|XOffset=0mm|YOffset=0mm|HoleType=Round|Shape=RoundedRectangle|*
%AMROUNDEDRECTD40*
21,1,1.0500,1.1175,0,0,180.0*
21,1,0.7875,1.3800,0,0,180.0*
1,1,0.2625,-0.3938,0.5587*
1,1,0.2625,0.3938,0.5587*
1,1,0.2625,0.3938,-0.5587*
1,1,0.2625,-0.3938,-0.5587*
%
%ADD40ROUNDEDRECTD40*%
G04:AMPARAMS|DCode=41|XSize=1.21mm|YSize=0.59mm|CornerRadius=0.1475mm|HoleSize=0mm|Usage=FLASHONLY|Rotation=270.000|XOffset=0mm|YOffset=0mm|HoleType=Round|Shape=RoundedRectangle|*
%AMROUNDEDRECTD41*
21,1,1.2100,0.2950,0,0,270.0*
21,1,0.9150,0.5900,0,0,270.0*
1,1,0.2950,-0.1475,-0.4575*
1,1,0.2950,-0.1475,0.4575*
1,1,0.2950,0.1475,0.4575*
1,1,0.2950,0.1475,-0.4575*
%
%ADD41ROUNDEDRECTD41*%
%ADD42C,0.5000*%
G36*
X48800Y422200D02*
X374000D01*
Y422000D01*
X421900Y374100D01*
X422899Y48800D01*
X422500Y48400D01*
X374700Y600D01*
X48700D01*
X700Y48600D01*
Y374400D01*
X800D01*
X48700Y422300D01*
X48800Y422200D01*
D02*
G37*
%LPC*%
G36*
X58237Y383611D02*
X54888D01*
X51603Y382958D01*
X48510Y381676D01*
X45725Y379816D01*
X43358Y377448D01*
X41497Y374663D01*
X40216Y371570D01*
X39562Y368285D01*
Y364937D01*
X40216Y361652D01*
X41497Y358558D01*
X43358Y355774D01*
X45725Y353406D01*
X48510Y351546D01*
X51603Y350264D01*
X54888Y349611D01*
X58237D01*
X61521Y350264D01*
X64615Y351546D01*
X67399Y353406D01*
X69767Y355774D01*
X71627Y358558D01*
X72909Y361652D01*
X73562Y364937D01*
Y368285D01*
X72909Y371570D01*
X71627Y374663D01*
X69767Y377448D01*
X67399Y379816D01*
X64615Y381676D01*
X61521Y382958D01*
X58237Y383611D01*
D02*
G37*
G36*
X368228Y383571D02*
X364879D01*
X361595Y382917D01*
X358501Y381636D01*
X355716Y379775D01*
X353349Y377407D01*
X351488Y374623D01*
X350207Y371529D01*
X349553Y368245D01*
Y364896D01*
X350207Y361612D01*
X351488Y358518D01*
X353349Y355734D01*
X355716Y353366D01*
X358501Y351505D01*
X361595Y350224D01*
X364879Y349571D01*
X368228D01*
X371512Y350224D01*
X374606Y351505D01*
X377390Y353366D01*
X379758Y355734D01*
X381618Y358518D01*
X382900Y361612D01*
X383553Y364896D01*
Y368245D01*
X382900Y371529D01*
X381618Y374623D01*
X379758Y377407D01*
X377390Y379775D01*
X374606Y381636D01*
X371512Y382917D01*
X368228Y383571D01*
D02*
G37*
G36*
X318700Y418224D02*
X270000D01*
X268852Y417748D01*
X259752Y408648D01*
X259276Y407500D01*
X259376Y407259D01*
Y397700D01*
Y380000D01*
X259852Y378852D01*
X262876Y375827D01*
Y324500D01*
Y305000D01*
X263352Y303852D01*
X264500Y303376D01*
X275500D01*
X276648Y303852D01*
X277124Y305000D01*
Y322876D01*
X280500D01*
X281648Y323352D01*
X282124Y324500D01*
Y397095D01*
Y398428D01*
X287073Y403376D01*
X309727D01*
X322776Y390327D01*
Y321824D01*
X288600D01*
X287452Y321348D01*
X286552Y320448D01*
X286076Y319300D01*
Y305300D01*
X286552Y304152D01*
X287700Y303676D01*
X335700D01*
X336848Y304152D01*
X341148Y308452D01*
X341624Y309600D01*
Y395300D01*
X341148Y396448D01*
X319848Y417748D01*
X318700Y418224D01*
D02*
G37*
G36*
X241111Y314058D02*
X223489D01*
Y297511D01*
X228222D01*
Y290400D01*
X224550D01*
Y281400D01*
X240050D01*
Y290400D01*
X236378D01*
Y297511D01*
X241111D01*
Y314058D01*
D02*
G37*
G36*
X292875Y294758D02*
X289925D01*
X288764Y294527D01*
X287780Y293870D01*
X287123Y292886D01*
X286892Y291725D01*
Y282575D01*
X287123Y281414D01*
X287780Y280430D01*
X288764Y279773D01*
X289925Y279542D01*
X292875D01*
X294036Y279773D01*
X295020Y280430D01*
X295677Y281414D01*
X295908Y282575D01*
Y291725D01*
X295677Y292886D01*
X295020Y293870D01*
X294036Y294527D01*
X292875Y294758D01*
D02*
G37*
G36*
X59123Y293000D02*
X55577D01*
X52100Y292308D01*
X48824Y290951D01*
X45876Y288981D01*
X43369Y286474D01*
X41399Y283526D01*
X40042Y280250D01*
X39350Y276773D01*
Y273227D01*
X40042Y269750D01*
X41399Y266474D01*
X43369Y263526D01*
X45876Y261019D01*
X48824Y259049D01*
X52100Y257692D01*
X55577Y257000D01*
X59123D01*
X62600Y257692D01*
X65876Y259049D01*
X68824Y261019D01*
X71332Y263526D01*
X73301Y266474D01*
X74658Y269750D01*
X75350Y273227D01*
Y276773D01*
X74658Y280250D01*
X73301Y283526D01*
X71332Y286474D01*
X68824Y288981D01*
X65876Y290951D01*
X62600Y292308D01*
X59123Y293000D01*
D02*
G37*
G36*
X91490Y255800D02*
X74010D01*
Y238320D01*
X91490D01*
Y255800D01*
D02*
G37*
G36*
X276800Y299624D02*
X257500D01*
X256352Y299148D01*
X255876Y298000D01*
Y274524D01*
X221300D01*
X220152Y274048D01*
X219676Y272900D01*
Y260500D01*
X220152Y259352D01*
X221300Y258876D01*
X255876D01*
Y235500D01*
X256352Y234352D01*
X257500Y233876D01*
X279600D01*
X280748Y234352D01*
X281224Y235500D01*
Y276900D01*
X280748Y278048D01*
X278424Y280373D01*
Y298000D01*
X277948Y299148D01*
X276800Y299624D01*
D02*
G37*
G36*
X83901Y235480D02*
X81599D01*
X79377Y234884D01*
X77383Y233734D01*
X75756Y232106D01*
X74606Y230114D01*
X74010Y227891D01*
Y225589D01*
X74606Y223367D01*
X75756Y221374D01*
X77383Y219746D01*
X79377Y218596D01*
X81599Y218000D01*
X83901D01*
X86124Y218596D01*
X88117Y219746D01*
X89744Y221374D01*
X90894Y223367D01*
X91490Y225589D01*
Y227891D01*
X90894Y230114D01*
X89744Y232106D01*
X88117Y233734D01*
X86124Y234884D01*
X83901Y235480D01*
D02*
G37*
G36*
X101701Y225320D02*
X99399D01*
X97177Y224724D01*
X95183Y223574D01*
X93556Y221947D01*
X92406Y219953D01*
X91810Y217731D01*
Y215429D01*
X92406Y213207D01*
X93556Y211213D01*
X95183Y209586D01*
X97177Y208436D01*
X99399Y207840D01*
X101701D01*
X103924Y208436D01*
X105917Y209586D01*
X107544Y211213D01*
X108694Y213207D01*
X109290Y215429D01*
Y217731D01*
X108694Y219953D01*
X107544Y221947D01*
X105917Y223574D01*
X103924Y224724D01*
X101701Y225320D01*
D02*
G37*
G36*
X83901Y194840D02*
X81599D01*
X79377Y194244D01*
X77383Y193094D01*
X75756Y191467D01*
X74606Y189473D01*
X74010Y187251D01*
Y184949D01*
X74606Y182726D01*
X75756Y180734D01*
X77383Y179106D01*
X79377Y177956D01*
X81599Y177360D01*
X83901D01*
X86124Y177956D01*
X88117Y179106D01*
X89744Y180734D01*
X90894Y182726D01*
X91490Y184949D01*
Y187251D01*
X90894Y189473D01*
X89744Y191467D01*
X88117Y193094D01*
X86124Y194244D01*
X83901Y194840D01*
D02*
G37*
G36*
X59123Y166000D02*
X55577D01*
X52100Y165308D01*
X48824Y163951D01*
X45876Y161982D01*
X43369Y159474D01*
X41399Y156526D01*
X40042Y153250D01*
X39350Y149773D01*
Y146227D01*
X40042Y142750D01*
X41399Y139474D01*
X43369Y136526D01*
X45876Y134018D01*
X48824Y132049D01*
X52100Y130692D01*
X55577Y130000D01*
X59123D01*
X62600Y130692D01*
X65876Y132049D01*
X68824Y134018D01*
X71332Y136526D01*
X73301Y139474D01*
X74658Y142750D01*
X75350Y146227D01*
Y149773D01*
X74658Y153250D01*
X73301Y156526D01*
X71332Y159474D01*
X68824Y161982D01*
X65876Y163951D01*
X62600Y165308D01*
X59123Y166000D01*
D02*
G37*
G36*
X368263Y73594D02*
X364914D01*
X361630Y72940D01*
X358536Y71659D01*
X355752Y69798D01*
X353384Y67431D01*
X351523Y64646D01*
X350242Y61553D01*
X349589Y58268D01*
Y54919D01*
X350242Y51635D01*
X351523Y48541D01*
X353384Y45757D01*
X355752Y43389D01*
X358536Y41529D01*
X361630Y40247D01*
X364914Y39594D01*
X368263D01*
X371547Y40247D01*
X374641Y41529D01*
X377425Y43389D01*
X379793Y45757D01*
X381654Y48541D01*
X382935Y51635D01*
X383588Y54919D01*
Y58268D01*
X382935Y61553D01*
X381654Y64646D01*
X379793Y67431D01*
X377425Y69798D01*
X374641Y71659D01*
X371547Y72940D01*
X368263Y73594D01*
D02*
G37*
G36*
X58206Y73566D02*
X54857D01*
X51572Y72913D01*
X48479Y71631D01*
X45694Y69771D01*
X43327Y67403D01*
X41466Y64619D01*
X40185Y61525D01*
X39531Y58241D01*
Y54892D01*
X40185Y51608D01*
X41466Y48514D01*
X43327Y45729D01*
X45694Y43362D01*
X48479Y41501D01*
X51572Y40220D01*
X54857Y39566D01*
X58206D01*
X61490Y40220D01*
X64584Y41501D01*
X67368Y43362D01*
X69736Y45729D01*
X71596Y48514D01*
X72878Y51608D01*
X73531Y54892D01*
Y58241D01*
X72878Y61525D01*
X71596Y64619D01*
X69736Y67403D01*
X67368Y69771D01*
X64584Y71631D01*
X61490Y72913D01*
X58206Y73566D01*
D02*
G37*
%LPD*%
G36*
X340000Y395300D02*
Y309600D01*
X335700Y305300D01*
X287700D01*
Y319300D01*
X288600Y320200D01*
X324400D01*
Y391000D01*
X310400Y405000D01*
X286400D01*
X280500Y399100D01*
Y394600D01*
Y324500D01*
X275500D01*
Y305000D01*
X264500D01*
Y324500D01*
Y376500D01*
X261000Y380000D01*
Y396600D01*
Y397700D01*
Y407400D01*
X260900Y407500D01*
X270000Y416600D01*
X318700D01*
X340000Y395300D01*
D02*
G37*
G36*
X276800Y279700D02*
X279600Y276900D01*
Y235500D01*
X257500D01*
Y260500D01*
X221300D01*
Y272900D01*
X257500D01*
Y298000D01*
X276800D01*
Y279700D01*
D02*
G37*
D13*
X278650Y352900D02*
D03*
X285000D02*
D03*
D29*
X91650Y292800D02*
D03*
Y130200D02*
D03*
D30*
X82750Y247060D02*
D03*
D31*
X100550Y236900D02*
D03*
X82750Y226740D02*
D03*
X100550Y216580D02*
D03*
X82750Y206420D02*
D03*
X100550Y196260D02*
D03*
X82750Y186100D02*
D03*
X100550Y175940D02*
D03*
D32*
X57350Y275000D02*
D03*
Y148000D02*
D03*
D33*
X56531Y56566D02*
D03*
X366589Y56594D02*
D03*
X366553Y366571D02*
D03*
X56562Y366611D02*
D03*
D34*
X296000Y387250D02*
D03*
D35*
X271000D02*
D03*
D36*
X350000Y200000D02*
D03*
X300000Y100000D02*
D03*
X200000Y300000D02*
D03*
Y100000D02*
D03*
X100000D02*
D03*
D37*
X64800Y234300D02*
D03*
X58850Y239100D02*
D03*
X55700Y186000D02*
D03*
X169200Y205000D02*
D03*
X129100Y215700D02*
D03*
X252700Y224500D02*
D03*
X305200Y212600D02*
D03*
X305100Y219200D02*
D03*
X305000Y226000D02*
D03*
X276100Y239800D02*
D03*
X268006Y239627D02*
D03*
X260800Y239500D02*
D03*
D38*
X232300Y305784D02*
D03*
Y325300D02*
D03*
D39*
Y285900D02*
D03*
Y267900D02*
D03*
D40*
X290760Y266800D02*
D03*
X273000D02*
D03*
X273020Y335900D02*
D03*
X290780D02*
D03*
D41*
X272400Y312250D02*
D03*
X281900D02*
D03*
X291400D02*
D03*
Y287150D02*
D03*
X272400D02*
D03*
D42*
X232300Y285900D02*
Y305784D01*
M02*
