G04*
G04 #@! TF.GenerationSoftware,Altium Limited,Altium Designer,25.2.1 (25)*
G04*
G04 Layer_Physical_Order=2*
G04 Layer_Color=16711680*
%FSLAX44Y44*%
%MOMM*%
G71*
G04*
G04 #@! TF.SameCoordinates,E53B945B-1C12-4891-9A8B-C73F09DD0495*
G04*
G04*
G04 #@! TF.FilePolarity,Positive*
G04*
G01*
G75*
%ADD10C,0.2000*%
%ADD34C,0.2540*%
%ADD36C,2.4300*%
%ADD37R,1.4480X1.4480*%
%ADD38C,1.4480*%
%ADD39C,3.3000*%
%ADD40R,1.5750X1.5750*%
%ADD41C,1.5750*%
%ADD42C,1.0000*%
%ADD43C,1.2700*%
%ADD44C,0.4500*%
%ADD45R,0.3048X0.5588*%
G36*
X218060Y390057D02*
X230354Y388439D01*
X242515Y386020D01*
X254492Y382811D01*
X266233Y378825D01*
X277688Y374080D01*
X288809Y368596D01*
X299547Y362396D01*
X309857Y355508D01*
X319694Y347959D01*
X329016Y339784D01*
X332990Y335810D01*
X332210Y334794D01*
X329632Y336282D01*
X326580Y337100D01*
X323420D01*
X320368Y336282D01*
X317632Y334702D01*
X315398Y332468D01*
X313818Y329732D01*
X313000Y326680D01*
Y323520D01*
X313818Y320468D01*
X315398Y317732D01*
X317632Y315498D01*
X320368Y313918D01*
X323420Y313100D01*
X326580D01*
X329632Y313918D01*
X332368Y315498D01*
X334602Y317732D01*
X336182Y320468D01*
X337000Y323520D01*
Y326680D01*
X336182Y329732D01*
X334693Y332310D01*
X335710Y333090D01*
X337784Y331016D01*
X345959Y321694D01*
X353507Y311857D01*
X360396Y301547D01*
X365446Y292800D01*
X612200D01*
Y106900D01*
X363555D01*
X360396Y101429D01*
X353507Y91119D01*
X345959Y81282D01*
X338090Y72309D01*
X336940Y72924D01*
X337100Y73520D01*
Y76680D01*
X336282Y79732D01*
X334702Y82468D01*
X332468Y84702D01*
X329732Y86282D01*
X326680Y87100D01*
X323520D01*
X320468Y86282D01*
X317732Y84702D01*
X315498Y82468D01*
X313918Y79732D01*
X313100Y76680D01*
Y73520D01*
X313918Y70468D01*
X315498Y67732D01*
X317732Y65498D01*
X320468Y63918D01*
X323520Y63100D01*
X326680D01*
X327119Y63218D01*
X327734Y62068D01*
X319694Y55016D01*
X309857Y47468D01*
X299547Y40580D01*
X288809Y34380D01*
X277688Y28896D01*
X266233Y24151D01*
X254492Y20165D01*
X242515Y16956D01*
X230354Y14537D01*
X218060Y12918D01*
X205688Y12107D01*
X199488Y12108D01*
X193288D01*
X180915Y12918D01*
X168622Y14537D01*
X156461Y16956D01*
X144484Y20165D01*
X132743Y24151D01*
X121287Y28896D01*
X110167Y34380D01*
X99429Y40580D01*
X89119Y47468D01*
X79282Y55016D01*
X70747Y62502D01*
X71362Y63652D01*
X73420Y63100D01*
X76580D01*
X79632Y63918D01*
X82368Y65498D01*
X84602Y67732D01*
X86182Y70468D01*
X87000Y73520D01*
Y76680D01*
X86182Y79732D01*
X84602Y82468D01*
X82368Y84702D01*
X79632Y86282D01*
X76580Y87100D01*
X73420D01*
X70368Y86282D01*
X67632Y84702D01*
X65398Y82468D01*
X63818Y79732D01*
X63000Y76680D01*
Y73520D01*
X63576Y71372D01*
X62437Y70715D01*
X61192Y71960D01*
X53017Y81282D01*
X45468Y91119D01*
X38580Y101429D01*
X32380Y112167D01*
X26896Y123287D01*
X22151Y134743D01*
X18165Y146484D01*
X14956Y158461D01*
X12537Y170622D01*
X10919Y182915D01*
X10108Y195288D01*
Y207687D01*
X10919Y220060D01*
X12537Y232354D01*
X14956Y244515D01*
X18165Y256492D01*
X22151Y268233D01*
X26896Y279688D01*
X32380Y290809D01*
X38580Y301547D01*
X45468Y311857D01*
X53017Y321694D01*
X61192Y331016D01*
X69960Y339784D01*
X79282Y347959D01*
X89119Y355508D01*
X99429Y362396D01*
X110167Y368596D01*
X121287Y374080D01*
X132743Y378825D01*
X144484Y382811D01*
X156461Y386020D01*
X168622Y388439D01*
X180915Y390057D01*
X193288Y390868D01*
X205688D01*
X218060Y390057D01*
D02*
G37*
%LPC*%
G36*
X76680Y337100D02*
X73520D01*
X70468Y336282D01*
X67732Y334702D01*
X65498Y332468D01*
X63918Y329732D01*
X63100Y326680D01*
Y323520D01*
X63918Y320468D01*
X65498Y317732D01*
X67732Y315498D01*
X70468Y313918D01*
X73520Y313100D01*
X76680D01*
X79732Y313918D01*
X82468Y315498D01*
X84702Y317732D01*
X86282Y320468D01*
X87100Y323520D01*
Y326680D01*
X86282Y329732D01*
X84702Y332468D01*
X82468Y334702D01*
X79732Y336282D01*
X76680Y337100D01*
D02*
G37*
G36*
X566173Y281400D02*
X562627D01*
X559150Y280708D01*
X555874Y279351D01*
X552926Y277381D01*
X550419Y274874D01*
X548449Y271926D01*
X547092Y268650D01*
X546400Y265173D01*
Y261627D01*
X547092Y258150D01*
X548449Y254874D01*
X550419Y251926D01*
X552926Y249419D01*
X555874Y247449D01*
X559150Y246092D01*
X562627Y245400D01*
X566173D01*
X569650Y246092D01*
X572926Y247449D01*
X575874Y249419D01*
X578382Y251926D01*
X580351Y254874D01*
X581708Y258150D01*
X582400Y261627D01*
Y265173D01*
X581708Y268650D01*
X580351Y271926D01*
X578382Y274874D01*
X575874Y277381D01*
X572926Y279351D01*
X569650Y280708D01*
X566173Y281400D01*
D02*
G37*
G36*
X547740Y244200D02*
X530260D01*
Y226720D01*
X547740D01*
Y232951D01*
X550376D01*
Y231206D01*
X552819D01*
X553453Y230572D01*
X553924Y229868D01*
X560094Y223698D01*
X560921Y223145D01*
X561897Y222951D01*
X569844D01*
X573351Y219444D01*
Y217556D01*
X571748Y215952D01*
X571195Y215126D01*
X571001Y214150D01*
Y214088D01*
X544542Y187629D01*
X535610D01*
X527037Y196202D01*
X526564Y196518D01*
X526451Y197692D01*
X526520Y197959D01*
X526567Y197986D01*
X528194Y199613D01*
X529344Y201607D01*
X529940Y203829D01*
Y204468D01*
X531113Y204953D01*
X533069Y202998D01*
X533896Y202445D01*
X534872Y202251D01*
X544195D01*
X545171Y202445D01*
X545997Y202998D01*
X553806Y210806D01*
X556249D01*
Y219394D01*
X550201D01*
Y217669D01*
X547371D01*
X547144Y218514D01*
X545994Y220506D01*
X544366Y222134D01*
X542374Y223284D01*
X540151Y223880D01*
X537849D01*
X535626Y223284D01*
X533633Y222134D01*
X532006Y220506D01*
X530856Y218514D01*
X530260Y216291D01*
Y215095D01*
X528990Y214569D01*
X526197Y217362D01*
X525370Y217915D01*
X524394Y218109D01*
X455046D01*
X454070Y217915D01*
X453243Y217362D01*
X442348Y206468D01*
X441175Y206954D01*
Y220975D01*
X422425D01*
Y203649D01*
X244678D01*
X244048Y204279D01*
X242669Y204850D01*
X241178D01*
X239799Y204279D01*
X238744Y203224D01*
X238174Y201846D01*
Y200354D01*
X238744Y198976D01*
X239799Y197921D01*
X241178Y197350D01*
X242669D01*
X244048Y197921D01*
X244678Y198551D01*
X261114D01*
X261662Y197316D01*
X261131Y196650D01*
X260354D01*
X258976Y196079D01*
X257921Y195024D01*
X257350Y193646D01*
Y192154D01*
X257921Y190776D01*
X258976Y189721D01*
X260354Y189150D01*
X261846D01*
X263224Y189721D01*
X264279Y190776D01*
X264850Y192154D01*
Y192955D01*
X266620Y194725D01*
X500928D01*
X501903Y194919D01*
X502730Y195472D01*
X506626Y199368D01*
X507097Y200072D01*
X507731Y200706D01*
X510174D01*
Y202441D01*
X512832D01*
X513056Y201607D01*
X514206Y199613D01*
X515601Y198219D01*
X515272Y196949D01*
X510000D01*
X509025Y196755D01*
X508198Y196202D01*
X500344Y188349D01*
X445672D01*
X444697Y188155D01*
X443870Y187602D01*
X435042Y178774D01*
X252748D01*
X246950Y184572D01*
Y186046D01*
X246379Y187424D01*
X245324Y188479D01*
X243946Y189050D01*
X242454D01*
X241076Y188479D01*
X240021Y187424D01*
X239450Y186046D01*
Y184554D01*
X240021Y183176D01*
X240870Y182327D01*
X241023Y181702D01*
X240911Y180814D01*
X240121Y180024D01*
X239550Y178646D01*
Y177154D01*
X240121Y175776D01*
X241176Y174721D01*
X242554Y174150D01*
X244046D01*
X244100Y174172D01*
X245302Y172969D01*
X246129Y172417D01*
X247105Y172223D01*
X247140D01*
X248440Y170923D01*
X249267Y170370D01*
X250243Y170176D01*
X450446D01*
X451421Y170370D01*
X452034Y170779D01*
X473927D01*
X473947Y170783D01*
X473967Y170779D01*
X519816Y171510D01*
X521086Y171499D01*
X521086Y171499D01*
X522297Y171370D01*
X523057Y171270D01*
X524787Y170553D01*
X526273Y169413D01*
X527007Y168456D01*
X527067Y168498D01*
X531320Y162498D01*
X531477Y162349D01*
X531598Y162169D01*
X532769Y160998D01*
X533294Y160647D01*
X533596Y160445D01*
X533596Y160445D01*
X533596Y160445D01*
X533885Y160388D01*
X534571Y160251D01*
X534934Y160251D01*
X534934Y160251D01*
X534934Y160251D01*
X543095D01*
X544071Y160445D01*
X544897Y160998D01*
X553806Y169906D01*
X556249D01*
Y178494D01*
X550201D01*
Y176899D01*
X547406D01*
X547144Y177873D01*
X545994Y179867D01*
X544599Y181261D01*
X544928Y182531D01*
X545597D01*
X546573Y182725D01*
X547400Y183278D01*
X575352Y211230D01*
X575905Y212057D01*
X576099Y213032D01*
Y213094D01*
X577702Y214698D01*
X578255Y215525D01*
X578449Y216500D01*
Y220500D01*
X578255Y221476D01*
X577702Y222302D01*
X572702Y227302D01*
X571875Y227855D01*
X570900Y228049D01*
X562952D01*
X557999Y233003D01*
X557528Y233706D01*
X556424Y234811D01*
Y239794D01*
X550376D01*
Y238049D01*
X547740D01*
Y244200D01*
D02*
G37*
G36*
X566173Y154400D02*
X562627D01*
X559150Y153708D01*
X555874Y152351D01*
X552926Y150381D01*
X550419Y147874D01*
X548449Y144926D01*
X547092Y141650D01*
X546400Y138173D01*
Y134627D01*
X547092Y131150D01*
X548449Y127874D01*
X550419Y124926D01*
X552926Y122418D01*
X555874Y120449D01*
X559150Y119092D01*
X562627Y118400D01*
X566173D01*
X569650Y119092D01*
X572926Y120449D01*
X575874Y122418D01*
X578382Y124926D01*
X580351Y127874D01*
X581708Y131150D01*
X582400Y134627D01*
Y138173D01*
X581708Y141650D01*
X580351Y144926D01*
X578382Y147874D01*
X575874Y150381D01*
X572926Y152351D01*
X569650Y153708D01*
X566173Y154400D01*
D02*
G37*
%LPD*%
G36*
X515601Y211741D02*
X514206Y210347D01*
X513056Y208354D01*
X512837Y207539D01*
X510174D01*
Y209294D01*
X504126D01*
Y204311D01*
X503022Y203206D01*
X502551Y202503D01*
X499872Y199823D01*
X444573D01*
X444087Y200997D01*
X456101Y213011D01*
X515272D01*
X515601Y211741D01*
D02*
G37*
G36*
X532752Y183278D02*
X533415Y182834D01*
X533575Y181989D01*
X533571Y181432D01*
X532006Y179867D01*
X530856Y177873D01*
X530260Y175651D01*
Y174417D01*
X528990Y173791D01*
X527373Y175032D01*
X524395Y176265D01*
X522235Y176549D01*
X522235Y176549D01*
X522235D01*
X522234Y176549D01*
X521200Y176686D01*
X521004Y176660D01*
X521004Y176627D01*
X473907Y175877D01*
X451049D01*
X450074Y175683D01*
X449462Y175274D01*
X440410D01*
X439925Y176447D01*
X446728Y183251D01*
X501400D01*
X502375Y183445D01*
X503202Y183998D01*
X511056Y191851D01*
X524179D01*
X532752Y183278D01*
D02*
G37*
D10*
X529146Y169973D02*
G03*
X521045Y174079I-7946J-5633D01*
G01*
X265564Y197274D02*
X500928D01*
X261100Y192900D02*
X261190D01*
X265564Y197274D01*
X243200Y184718D02*
Y185300D01*
Y184718D02*
X251693Y176225D01*
X243300Y177900D02*
X243976D01*
X247105Y174772D02*
X248196D01*
X243976Y177900D02*
X247105Y174772D01*
X250243Y172725D02*
X450446D01*
X248196Y174772D02*
X250243Y172725D01*
X450446D02*
X451049Y173328D01*
X241924Y201100D02*
X440586D01*
X510000Y194400D02*
X525234D01*
X501400Y185800D02*
X510000Y194400D01*
X534554Y185080D02*
X545597D01*
X525234Y194400D02*
X534554Y185080D01*
X451049Y173328D02*
X473927D01*
X251693Y176225D02*
X436097D01*
X445672Y185800D01*
X473927Y173328D02*
X521045Y174079D01*
X445672Y185800D02*
X501400D01*
X534934Y162800D02*
X543095D01*
X533400Y163972D02*
X534571Y162800D01*
X534934Y162800D01*
X529146Y169973D02*
X533400Y163972D01*
X545597Y185080D02*
X573550Y213032D01*
Y214150D01*
X575900Y216500D01*
Y220500D01*
X570900Y225500D02*
X575900Y220500D01*
X561897Y225500D02*
X570900D01*
X555726Y231670D02*
X561897Y225500D01*
X555726Y231670D02*
Y231904D01*
X553400Y234230D02*
X555726Y231904D01*
X553400Y234230D02*
Y235500D01*
X440586Y201100D02*
X455046Y215560D01*
X524394D01*
X530940Y209014D01*
Y208732D02*
Y209014D01*
Y208732D02*
X534872Y204800D01*
X544195D01*
X553225Y213830D01*
Y215100D01*
X500928Y197274D02*
X504824Y201171D01*
Y201404D01*
X507150Y203730D01*
Y205000D01*
X553225Y172930D02*
Y174200D01*
X543095Y162800D02*
X553225Y172930D01*
X507150Y205000D02*
X507160Y204990D01*
X521190D01*
X521200Y204980D01*
X553075Y174350D02*
X553225Y174200D01*
X539150Y174350D02*
X553075D01*
X539000Y174500D02*
X539150Y174350D01*
X553205Y215120D02*
X553225Y215100D01*
X539020Y215120D02*
X553205D01*
X539000Y215140D02*
X539020Y215120D01*
X539040Y235500D02*
X553400D01*
X539000Y235460D02*
X539040Y235500D01*
D34*
X568600Y174100D02*
X568700Y174000D01*
X559675Y174100D02*
X568600D01*
X559575Y174200D02*
X559675Y174100D01*
X500750Y205050D02*
X500800Y205000D01*
X491650Y205050D02*
X500750D01*
X491600Y205100D02*
X491650Y205050D01*
X559575Y215100D02*
X559625Y215050D01*
X568750D01*
X568800Y215000D01*
X569050Y235550D02*
X569100Y235600D01*
X559800Y235550D02*
X569050D01*
X559750Y235500D02*
X559800Y235550D01*
D36*
X530100Y281200D02*
D03*
Y118600D02*
D03*
D37*
X539000Y235460D02*
D03*
D38*
X521200Y225300D02*
D03*
X539000Y215140D02*
D03*
X521200Y204980D02*
D03*
X539000Y194820D02*
D03*
X521200Y184660D02*
D03*
X539000Y174500D02*
D03*
X521200Y164340D02*
D03*
D39*
X564400Y263400D02*
D03*
Y136400D02*
D03*
D40*
X431800Y211600D02*
D03*
D41*
Y186600D02*
D03*
D42*
X75000Y75100D02*
D03*
X325100D02*
D03*
X325000Y325100D02*
D03*
X75100D02*
D03*
D43*
X300000Y300000D02*
D03*
X200000D02*
D03*
Y100000D02*
D03*
X100000Y300000D02*
D03*
Y100000D02*
D03*
D44*
X261100Y192900D02*
D03*
X243200Y185300D02*
D03*
X243300Y177900D02*
D03*
X157700Y186600D02*
D03*
X155600Y240300D02*
D03*
X146800Y240400D02*
D03*
X138200Y240300D02*
D03*
X388000Y187400D02*
D03*
X310300Y221000D02*
D03*
X308700Y92800D02*
D03*
X241924Y201100D02*
D03*
X568800Y215000D02*
D03*
X491600Y205100D02*
D03*
X568700Y174000D02*
D03*
X569100Y235600D02*
D03*
D45*
X553225Y174200D02*
D03*
X559575D02*
D03*
X507150Y205000D02*
D03*
X500800D02*
D03*
X553225Y215100D02*
D03*
X559575D02*
D03*
X553400Y235500D02*
D03*
X559750D02*
D03*
M02*
