M48
;Layer_Color=15238730
;FILE_FORMAT=4:4
METRIC,LZ
;TYPE=PLATED
T01F00S00C0.3000
T02F00S00C0.7112
T03F00S00C0.9400
T04F00S00C1.0500
T05F00S00C1.6200
;TYPE=NON_PLATED
T06F00S00C3.1000
T07F00S00C3.3000
%
T01
X000557Y00186
X0005885Y002391
X000648Y002343
X001291Y002157
X001692Y00205
X002527Y002245
X002608Y002395
X00268006Y00239627
X002761Y002398
X00305Y00226
X003051Y002192
X003052Y002126
T02
X001Y001
X002
X003
X0035Y002
X002Y003
T03
X0008275Y001861
Y0020642
Y0022674
Y0024706
X0010055Y002369
Y0021658
Y0019626
Y0017594
T04
X00271Y0038725
X00296
T05
X0009165Y001302
Y002928
T06
X00056531Y00056566
X00056562Y00366611
X00366553Y00366571
X00366589Y00056594
T07
X0005735Y00148
Y00275
M30
