G04*
G04 #@! TF.GenerationSoftware,Altium Limited,Altium Designer,25.2.1 (25)*
G04*
G04 Layer_Color=8388736*
%FSLAX44Y44*%
%MOMM*%
G71*
G04*
G04 #@! TF.SameCoordinates,E53B945B-1C12-4891-9A8B-C73F09DD0495*
G04*
G04*
G04 #@! TF.FilePolarity,Negative*
G04*
G01*
G75*
%ADD13R,1.5562X1.5046*%
%ADD18R,1.2500X0.6000*%
%ADD19R,1.4621X1.3546*%
G04:AMPARAMS|DCode=20|XSize=1.674mm|YSize=0.614mm|CornerRadius=0.1533mm|HoleSize=0mm|Usage=FLASHONLY|Rotation=180.000|XOffset=0mm|YOffset=0mm|HoleType=Round|Shape=RoundedRectangle|*
%AMROUNDEDRECTD20*
21,1,1.6740,0.3075,0,0,180.0*
21,1,1.3675,0.6140,0,0,180.0*
1,1,0.3065,-0.6838,0.1538*
1,1,0.3065,0.6838,0.1538*
1,1,0.3065,0.6838,-0.1538*
1,1,0.3065,-0.6838,-0.1538*
%
%ADD20ROUNDEDRECTD20*%
%ADD21R,0.5080X0.2540*%
G04:AMPARAMS|DCode=22|XSize=0.785mm|YSize=0.785mm|CornerRadius=0.2338mm|HoleSize=0mm|Usage=FLASHONLY|Rotation=270.000|XOffset=0mm|YOffset=0mm|HoleType=Round|Shape=RoundedRectangle|*
%AMROUNDEDRECTD22*
21,1,0.7850,0.3175,0,0,270.0*
21,1,0.3175,0.7850,0,0,270.0*
1,1,0.4675,-0.1588,-0.1588*
1,1,0.4675,-0.1588,0.1588*
1,1,0.4675,0.1588,0.1588*
1,1,0.4675,0.1588,-0.1588*
%
%ADD22ROUNDEDRECTD22*%
G04:AMPARAMS|DCode=23|XSize=1.31mm|YSize=0.69mm|CornerRadius=0.1975mm|HoleSize=0mm|Usage=FLASHONLY|Rotation=180.000|XOffset=0mm|YOffset=0mm|HoleType=Round|Shape=RoundedRectangle|*
%AMROUNDEDRECTD23*
21,1,1.3100,0.2950,0,0,180.0*
21,1,0.9150,0.6900,0,0,180.0*
1,1,0.3950,-0.4575,0.1475*
1,1,0.3950,0.4575,0.1475*
1,1,0.3950,0.4575,-0.1475*
1,1,0.3950,-0.4575,-0.1475*
%
%ADD23ROUNDEDRECTD23*%
G04:AMPARAMS|DCode=24|XSize=1.15mm|YSize=1.48mm|CornerRadius=0.1813mm|HoleSize=0mm|Usage=FLASHONLY|Rotation=270.000|XOffset=0mm|YOffset=0mm|HoleType=Round|Shape=RoundedRectangle|*
%AMROUNDEDRECTD24*
21,1,1.1500,1.1175,0,0,270.0*
21,1,0.7875,1.4800,0,0,270.0*
1,1,0.3625,-0.5587,-0.3938*
1,1,0.3625,-0.5587,0.3938*
1,1,0.3625,0.5587,0.3938*
1,1,0.3625,0.5587,-0.3938*
%
%ADD24ROUNDEDRECTD24*%
%ADD25C,2.5300*%
%ADD26R,1.5480X1.5480*%
%ADD27C,1.5480*%
%ADD28C,3.4000*%
%ADD29R,1.6750X1.6750*%
%ADD30C,1.6750*%
%ADD31C,1.1000*%
%ADD32C,1.3700*%
%ADD33C,0.5500*%
D13*
X146800Y221900D02*
D03*
Y203884D02*
D03*
D18*
X309300Y168000D02*
D03*
Y150000D02*
D03*
D19*
X309000Y129300D02*
D03*
Y109784D02*
D03*
D20*
X228700Y180500D02*
D03*
Y187000D02*
D03*
Y193500D02*
D03*
Y200000D02*
D03*
Y206500D02*
D03*
Y213000D02*
D03*
Y219500D02*
D03*
X171300D02*
D03*
Y213000D02*
D03*
Y206500D02*
D03*
Y200000D02*
D03*
Y193500D02*
D03*
Y187000D02*
D03*
Y180500D02*
D03*
D21*
X388200Y202600D02*
D03*
Y196250D02*
D03*
D22*
X252345Y193100D02*
D03*
X243455D02*
D03*
D23*
X328400Y190200D02*
D03*
Y209200D02*
D03*
X353500D02*
D03*
Y199700D02*
D03*
Y190200D02*
D03*
D24*
X310100Y190840D02*
D03*
Y208600D02*
D03*
X371700Y190720D02*
D03*
Y208480D02*
D03*
D25*
X530100Y281200D02*
D03*
Y118600D02*
D03*
D26*
X539000Y235460D02*
D03*
D27*
X521200Y225300D02*
D03*
X539000Y215140D02*
D03*
X521200Y204980D02*
D03*
X539000Y194820D02*
D03*
X521200Y184660D02*
D03*
X539000Y174500D02*
D03*
X521200Y164340D02*
D03*
D28*
X564400Y263400D02*
D03*
Y136400D02*
D03*
D29*
X431800Y211600D02*
D03*
D30*
Y186600D02*
D03*
D31*
X75000Y75100D02*
D03*
X325100D02*
D03*
X325000Y325100D02*
D03*
X75100D02*
D03*
D32*
X300000Y300000D02*
D03*
X200000D02*
D03*
Y100000D02*
D03*
X100000Y300000D02*
D03*
Y100000D02*
D03*
D33*
X261100Y192900D02*
D03*
X243200Y185300D02*
D03*
X243300Y177900D02*
D03*
X157700Y186600D02*
D03*
X155600Y240300D02*
D03*
X146800Y240400D02*
D03*
X138200Y240300D02*
D03*
X388000Y187400D02*
D03*
X310300Y221000D02*
D03*
X308700Y92800D02*
D03*
X241924Y201100D02*
D03*
X568800Y215000D02*
D03*
X491600Y205100D02*
D03*
X568700Y174000D02*
D03*
X569100Y235600D02*
D03*
M02*
