M48
;Layer_Color=15238730
;FILE_FORMAT=4:4
METRIC,LZ
;TYPE=PLATED
T01F00S00C0.3000
T02F00S00C0.7112
T03F00S00C0.9400
T04F00S00C1.0500
T05F00S00C1.6200
;TYPE=NON_PLATED
T06F00S00C2.1000
T07F00S00C3.3000
%
T01
X001577Y001866
X001556Y002403
X001468Y002404
X001382Y002403
X00241924Y002011
X002432Y001853
X002433Y001779
X002611Y001929
X003103Y00221
X00388Y001874
X003087Y000928
X004916Y002051
X005688Y00215
X005691Y002356
X005687Y00174
T02
X001Y001
X002
Y003
X003
X001
T03
X005212Y0016434
Y0018466
Y0020498
Y002253
X00539Y0023546
Y0021514
Y0019482
Y001745
T04
X004318Y001866
Y002116
T05
X005301Y001186
Y002812
T06
X00075Y000751
X003251
X00325Y003251
X000751
T07
X005644Y001364
Y002634
M30
