G04*
G04 #@! TF.GenerationSoftware,Altium Limited,Altium Designer,25.2.1 (25)*
G04*
G04 Layer_Color=16711935*
%FSLAX44Y44*%
%MOMM*%
G71*
G04*
G04 #@! TF.SameCoordinates,5F0F5B64-BFB7-492A-895C-DD278EAA695B*
G04*
G04*
G04 #@! TF.FilePolarity,Negative*
G04*
G01*
G75*
%ADD18C,2.5300*%
%ADD19R,1.5480X1.5480*%
%ADD20C,1.5480*%
%ADD21C,3.4000*%
%ADD22R,1.6750X1.6750*%
%ADD23C,1.6750*%
%ADD24C,1.1000*%
%ADD25C,1.3700*%
%ADD26C,0.5500*%
%ADD38R,1.2500X0.6000*%
%ADD39R,1.4621X1.3546*%
G04:AMPARAMS|DCode=44|XSize=1.15mm|YSize=1.48mm|CornerRadius=0.1813mm|HoleSize=0mm|Usage=FLASHONLY|Rotation=90.000|XOffset=0mm|YOffset=0mm|HoleType=Round|Shape=RoundedRectangle|*
%AMROUNDEDRECTD44*
21,1,1.1500,1.1175,0,0,90.0*
21,1,0.7875,1.4800,0,0,90.0*
1,1,0.3625,0.5587,0.3938*
1,1,0.3625,0.5587,-0.3938*
1,1,0.3625,-0.5587,-0.3938*
1,1,0.3625,-0.5587,0.3938*
%
%ADD44ROUNDEDRECTD44*%
G04:AMPARAMS|DCode=45|XSize=1.31mm|YSize=0.69mm|CornerRadius=0.1975mm|HoleSize=0mm|Usage=FLASHONLY|Rotation=180.000|XOffset=0mm|YOffset=0mm|HoleType=Round|Shape=RoundedRectangle|*
%AMROUNDEDRECTD45*
21,1,1.3100,0.2950,0,0,180.0*
21,1,0.9150,0.6900,0,0,180.0*
1,1,0.3950,-0.4575,0.1475*
1,1,0.3950,0.4575,0.1475*
1,1,0.3950,0.4575,-0.1475*
1,1,0.3950,-0.4575,-0.1475*
%
%ADD45ROUNDEDRECTD45*%
%ADD46R,0.5080X0.2540*%
D18*
X92000Y361600D02*
D03*
Y199000D02*
D03*
D19*
X83100Y315860D02*
D03*
D20*
X100900Y305700D02*
D03*
X83100Y295540D02*
D03*
X100900Y285380D02*
D03*
X83100Y275220D02*
D03*
X100900Y265060D02*
D03*
X83100Y254900D02*
D03*
X100900Y244740D02*
D03*
D21*
X57700Y343800D02*
D03*
Y216800D02*
D03*
D22*
X524000Y298300D02*
D03*
D23*
Y273300D02*
D03*
D24*
X435780Y35060D02*
D03*
X435730Y525040D02*
D03*
X124350Y35030D02*
D03*
X124300Y525100D02*
D03*
D25*
X400000Y500000D02*
D03*
X450000Y400000D02*
D03*
Y200000D02*
D03*
X400000Y100000D02*
D03*
X300000Y500000D02*
D03*
X350000Y400000D02*
D03*
Y200000D02*
D03*
X300000Y100000D02*
D03*
X200000Y500000D02*
D03*
X250000Y400000D02*
D03*
Y200000D02*
D03*
X200000Y100000D02*
D03*
X150000Y400000D02*
D03*
Y200000D02*
D03*
D26*
X345100Y238300D02*
D03*
X335800Y238500D02*
D03*
X326700Y238700D02*
D03*
X131700Y284800D02*
D03*
X52600Y254900D02*
D03*
Y295700D02*
D03*
X52500Y315200D02*
D03*
X236900Y273400D02*
D03*
X323100Y295800D02*
D03*
X352800Y294300D02*
D03*
X352900Y287100D02*
D03*
Y279900D02*
D03*
D38*
X404800Y330300D02*
D03*
Y348300D02*
D03*
D39*
X405000Y369700D02*
D03*
Y389216D02*
D03*
D44*
X402600Y295380D02*
D03*
Y277620D02*
D03*
X471100Y277420D02*
D03*
Y295180D02*
D03*
D45*
X424950Y295800D02*
D03*
Y276800D02*
D03*
X450050D02*
D03*
Y286300D02*
D03*
Y295800D02*
D03*
D46*
X490200Y289675D02*
D03*
Y283325D02*
D03*
M02*
