G04*
G04 #@! TF.GenerationSoftware,Altium Limited,Altium Designer,25.2.1 (25)*
G04*
G04 Layer_Color=16711935*
%FSLAX44Y44*%
%MOMM*%
G71*
G04*
G04 #@! TF.SameCoordinates,5CE3E44F-7945-412C-9A7F-B76B696680CC*
G04*
G04*
G04 #@! TF.FilePolarity,Positive*
G04*
G01*
G75*
%ADD27C,0.2000*%
%ADD47C,0.1524*%
%ADD48C,0.0500*%
G36*
X274078Y358234D02*
D01*
Y347566D01*
D01*
Y347058D01*
X289572D01*
Y347566D01*
D01*
Y358234D01*
D01*
Y358742D01*
X274078D01*
Y358234D01*
D02*
G37*
D27*
X244611Y294011D02*
Y337073D01*
X219989D02*
X244611D01*
X219989Y294011D02*
Y337073D01*
Y294011D02*
X244611D01*
X223800Y263900D02*
X240800D01*
X223800D02*
Y289900D01*
X240800D01*
Y263900D02*
Y289900D01*
D47*
X274078Y347566D02*
Y358234D01*
X289572Y347566D02*
Y358234D01*
X274078D02*
Y358742D01*
Y347058D02*
Y347566D01*
Y347058D02*
X289572D01*
Y347566D01*
Y358234D02*
Y358742D01*
X274078D02*
X289572D01*
D48*
X162750Y115550D02*
Y307450D01*
X250D02*
X162750D01*
X250Y115550D02*
Y307450D01*
Y115550D02*
X162750D01*
X264900Y278600D02*
Y320800D01*
Y278600D02*
X298900D01*
Y320800D01*
X264900D02*
X298900D01*
M02*
