G04*
G04 #@! TF.GenerationSoftware,Altium Limited,Altium Designer,25.2.1 (25)*
G04*
G04 Layer_Physical_Order=2*
G04 Layer_Color=16711680*
%FSLAX44Y44*%
%MOMM*%
G71*
G04*
G04 #@! TF.SameCoordinates,5F0F5B64-BFB7-492A-895C-DD278EAA695B*
G04*
G04*
G04 #@! TF.FilePolarity,Positive*
G04*
G01*
G75*
%ADD29C,2.4300*%
%ADD30R,1.4480X1.4480*%
%ADD31C,1.4480*%
%ADD32C,3.3000*%
%ADD33R,1.5750X1.5750*%
%ADD34C,1.5750*%
%ADD35C,1.0000*%
%ADD36C,1.2700*%
%ADD37C,0.4500*%
%ADD38R,1.2500X0.6000*%
%ADD39R,1.4621X1.3546*%
G04:AMPARAMS|DCode=40|XSize=1.05mm|YSize=1.38mm|CornerRadius=0.1313mm|HoleSize=0mm|Usage=FLASHONLY|Rotation=90.000|XOffset=0mm|YOffset=0mm|HoleType=Round|Shape=RoundedRectangle|*
%AMROUNDEDRECTD40*
21,1,1.0500,1.1175,0,0,90.0*
21,1,0.7875,1.3800,0,0,90.0*
1,1,0.2625,0.5587,0.3938*
1,1,0.2625,0.5587,-0.3938*
1,1,0.2625,-0.5587,-0.3938*
1,1,0.2625,-0.5587,0.3938*
%
%ADD40ROUNDEDRECTD40*%
G04:AMPARAMS|DCode=41|XSize=1.21mm|YSize=0.59mm|CornerRadius=0.1475mm|HoleSize=0mm|Usage=FLASHONLY|Rotation=180.000|XOffset=0mm|YOffset=0mm|HoleType=Round|Shape=RoundedRectangle|*
%AMROUNDEDRECTD41*
21,1,1.2100,0.2950,0,0,180.0*
21,1,0.9150,0.5900,0,0,180.0*
1,1,0.2950,-0.4575,0.1475*
1,1,0.2950,0.4575,0.1475*
1,1,0.2950,0.4575,-0.1475*
1,1,0.2950,-0.4575,-0.1475*
%
%ADD41ROUNDEDRECTD41*%
%ADD42R,0.5588X0.3048*%
%ADD43C,0.5000*%
G36*
X410500Y506400D02*
X450300Y466600D01*
X531000D01*
X554600Y443000D01*
X554700D01*
Y297992D01*
X553430Y297466D01*
X540248Y310648D01*
X539100Y311124D01*
X513883D01*
X513400Y311324D01*
X512252Y310848D01*
X507327Y305924D01*
X438900D01*
X437970Y306913D01*
X437748Y307448D01*
X436600Y307924D01*
X418424D01*
Y335700D01*
X417948Y336848D01*
X416800Y337324D01*
X392699D01*
X392698Y337323D01*
X392697Y337324D01*
X392122Y337084D01*
X391551Y336848D01*
X391551Y336847D01*
X391550Y336846D01*
X390653Y335947D01*
X390652Y335946D01*
X390651Y335945D01*
X390414Y335367D01*
X390179Y334798D01*
X390180Y334797D01*
X390179Y334796D01*
X390259Y308823D01*
X389362Y307924D01*
X348500D01*
X347352Y307448D01*
X342552Y302648D01*
X342076Y301500D01*
Y271400D01*
X342552Y270252D01*
X343700Y269776D01*
X359300D01*
X360448Y270252D01*
X371748Y281552D01*
X372224Y282700D01*
Y284276D01*
X435700D01*
X436848Y284752D01*
X437748Y285652D01*
X438224Y286800D01*
Y289821D01*
X438737Y290347D01*
X439494Y290800D01*
X439502D01*
X439800Y290676D01*
X457728D01*
X463252Y285152D01*
X464400Y284676D01*
X485906D01*
X486024Y284725D01*
X494376D01*
X494494Y284676D01*
X533576D01*
Y257773D01*
X528527Y252724D01*
X458224D01*
Y280700D01*
X457748Y281848D01*
X456600Y282324D01*
X442600D01*
X441452Y281848D01*
X440893Y281290D01*
X440552Y281148D01*
X440076Y280000D01*
Y240283D01*
X439876Y239800D01*
X440352Y238652D01*
X442852Y236152D01*
X444000Y235676D01*
X539100D01*
X540248Y236152D01*
X553430Y249334D01*
X554652Y248828D01*
X554700Y248764D01*
Y213600D01*
X547900Y206800D01*
Y104200D01*
X453400D01*
X403700Y54500D01*
Y20900D01*
X401200Y18400D01*
X398700Y20900D01*
X158100D01*
Y53300D01*
X100300Y111100D01*
X5100D01*
Y442400D01*
X24900Y462200D01*
X99700Y462200D01*
X152600Y515100D01*
Y554800D01*
X410500D01*
Y506400D01*
D02*
G37*
G36*
X416800Y306300D02*
X436600D01*
X436600Y286800D01*
X435700Y285900D01*
X370600D01*
Y282700D01*
X359300Y271400D01*
X343700D01*
Y301500D01*
X348500Y306300D01*
X391890D01*
X391803Y334801D01*
X392699Y335700D01*
X416800D01*
Y306300D01*
D02*
G37*
G36*
X513600Y309500D02*
X539100D01*
X553100Y295500D01*
Y251100D01*
X552900D01*
X539100Y237300D01*
X444000D01*
X441500Y239800D01*
X441700Y240000D01*
Y280000D01*
X441900D01*
X442600Y280700D01*
X456600D01*
Y251100D01*
X529200D01*
X535200Y257100D01*
Y286300D01*
X494494D01*
Y286349D01*
X485906D01*
Y286300D01*
X464400D01*
X458400Y292300D01*
X439800D01*
X438900Y292673D01*
Y304300D01*
X508000D01*
X513400Y309700D01*
X513600Y309500D01*
D02*
G37*
%LPC*%
G36*
X413811Y377973D02*
X396189D01*
Y361427D01*
X400822D01*
Y352800D01*
X397050D01*
Y343800D01*
X412550D01*
Y352800D01*
X408978D01*
Y361427D01*
X413811D01*
Y377973D01*
D02*
G37*
G36*
X59473Y361800D02*
X55927D01*
X52450Y361108D01*
X49174Y359751D01*
X46226Y357781D01*
X43719Y355274D01*
X41749Y352326D01*
X40392Y349050D01*
X39700Y345573D01*
Y342027D01*
X40392Y338550D01*
X41749Y335274D01*
X43719Y332326D01*
X46226Y329818D01*
X49174Y327849D01*
X52450Y326492D01*
X55927Y325800D01*
X59473D01*
X62950Y326492D01*
X66226Y327849D01*
X69174Y329818D01*
X71681Y332326D01*
X73651Y335274D01*
X75008Y338550D01*
X75700Y342027D01*
Y345573D01*
X75008Y349050D01*
X73651Y352326D01*
X71681Y355274D01*
X69174Y357781D01*
X66226Y359751D01*
X62950Y361108D01*
X59473Y361800D01*
D02*
G37*
G36*
X91840Y324600D02*
X74360D01*
Y307120D01*
X91840D01*
Y324600D01*
D02*
G37*
G36*
X84251Y304280D02*
X81949D01*
X79727Y303684D01*
X77733Y302534D01*
X76106Y300907D01*
X74956Y298913D01*
X74360Y296691D01*
Y294389D01*
X74956Y292167D01*
X76106Y290173D01*
X77733Y288546D01*
X79727Y287396D01*
X81949Y286800D01*
X84251D01*
X86474Y287396D01*
X88467Y288546D01*
X90094Y290173D01*
X91244Y292167D01*
X91840Y294389D01*
Y296691D01*
X91244Y298913D01*
X90094Y300907D01*
X88467Y302534D01*
X86474Y303684D01*
X84251Y304280D01*
D02*
G37*
G36*
X102051Y294120D02*
X99749D01*
X97527Y293524D01*
X95534Y292374D01*
X93906Y290746D01*
X92756Y288754D01*
X92160Y286531D01*
Y284229D01*
X92756Y282006D01*
X93906Y280014D01*
X95534Y278386D01*
X97527Y277236D01*
X99749Y276640D01*
X102051D01*
X104274Y277236D01*
X106266Y278386D01*
X107894Y280014D01*
X109044Y282006D01*
X109640Y284229D01*
Y286531D01*
X109044Y288754D01*
X107894Y290746D01*
X106266Y292374D01*
X104274Y293524D01*
X102051Y294120D01*
D02*
G37*
G36*
X429525Y281308D02*
X420375D01*
X419214Y281077D01*
X418230Y280420D01*
X417573Y279436D01*
X417342Y278275D01*
Y275325D01*
X417573Y274164D01*
X418230Y273180D01*
X419214Y272523D01*
X420375Y272292D01*
X429525D01*
X430686Y272523D01*
X431670Y273180D01*
X432327Y274164D01*
X432558Y275325D01*
Y278275D01*
X432327Y279436D01*
X431670Y280420D01*
X430686Y281077D01*
X429525Y281308D01*
D02*
G37*
G36*
X84251Y263640D02*
X81949D01*
X79727Y263044D01*
X77733Y261894D01*
X76106Y260266D01*
X74956Y258274D01*
X74360Y256051D01*
Y253749D01*
X74956Y251527D01*
X76106Y249534D01*
X77733Y247906D01*
X79727Y246756D01*
X81949Y246160D01*
X84251D01*
X86474Y246756D01*
X88467Y247906D01*
X90094Y249534D01*
X91244Y251527D01*
X91840Y253749D01*
Y256051D01*
X91244Y258274D01*
X90094Y260266D01*
X88467Y261894D01*
X86474Y263044D01*
X84251Y263640D01*
D02*
G37*
G36*
X59473Y234800D02*
X55927D01*
X52450Y234108D01*
X49174Y232751D01*
X46226Y230781D01*
X43719Y228274D01*
X41749Y225326D01*
X40392Y222050D01*
X39700Y218573D01*
Y215027D01*
X40392Y211550D01*
X41749Y208274D01*
X43719Y205326D01*
X46226Y202819D01*
X49174Y200849D01*
X52450Y199492D01*
X55927Y198800D01*
X59473D01*
X62950Y199492D01*
X66226Y200849D01*
X69174Y202819D01*
X71681Y205326D01*
X73651Y208274D01*
X75008Y211550D01*
X75700Y215027D01*
Y218573D01*
X75008Y222050D01*
X73651Y225326D01*
X71681Y228274D01*
X69174Y230781D01*
X66226Y232751D01*
X62950Y234108D01*
X59473Y234800D01*
D02*
G37*
%LPD*%
D29*
X92000Y361600D02*
D03*
Y199000D02*
D03*
D30*
X83100Y315860D02*
D03*
D31*
X100900Y305700D02*
D03*
X83100Y295540D02*
D03*
X100900Y285380D02*
D03*
X83100Y275220D02*
D03*
X100900Y265060D02*
D03*
X83100Y254900D02*
D03*
X100900Y244740D02*
D03*
D32*
X57700Y343800D02*
D03*
Y216800D02*
D03*
D33*
X524000Y298300D02*
D03*
D34*
Y273300D02*
D03*
D35*
X435780Y35060D02*
D03*
X435730Y525040D02*
D03*
X124350Y35030D02*
D03*
X124300Y525100D02*
D03*
D36*
X400000Y500000D02*
D03*
X450000Y400000D02*
D03*
Y200000D02*
D03*
X400000Y100000D02*
D03*
X300000Y500000D02*
D03*
X350000Y400000D02*
D03*
Y200000D02*
D03*
X300000Y100000D02*
D03*
X200000Y500000D02*
D03*
X250000Y400000D02*
D03*
Y200000D02*
D03*
X200000Y100000D02*
D03*
X150000Y400000D02*
D03*
Y200000D02*
D03*
D37*
X345100Y238300D02*
D03*
X335800Y238500D02*
D03*
X326700Y238700D02*
D03*
X131700Y284800D02*
D03*
X52600Y254900D02*
D03*
Y295700D02*
D03*
X52500Y315200D02*
D03*
X236900Y273400D02*
D03*
X323100Y295800D02*
D03*
X352800Y294300D02*
D03*
X352900Y287100D02*
D03*
Y279900D02*
D03*
D38*
X404800Y330300D02*
D03*
Y348300D02*
D03*
D39*
X405000Y369700D02*
D03*
Y389216D02*
D03*
D40*
X402600Y295380D02*
D03*
Y277620D02*
D03*
X471100Y277420D02*
D03*
Y295180D02*
D03*
D41*
X424950Y295800D02*
D03*
Y276800D02*
D03*
X450050D02*
D03*
Y286300D02*
D03*
Y295800D02*
D03*
D42*
X490200Y289675D02*
D03*
Y283325D02*
D03*
D43*
X404900Y369600D02*
X405000Y369700D01*
X404900Y348400D02*
Y369600D01*
X404800Y348300D02*
X404900Y348400D01*
M02*
