G04*
G04 #@! TF.GenerationSoftware,Altium Limited,Altium Designer,25.2.1 (25)*
G04*
G04 Layer_Color=32768*
%FSLAX44Y44*%
%MOMM*%
G71*
G04*
G04 #@! TF.SameCoordinates,E53B945B-1C12-4891-9A8B-C73F09DD0495*
G04*
G04*
G04 #@! TF.FilePolarity,Positive*
G04*
G01*
G75*
%ADD10C,0.2000*%
%ADD49C,0.0500*%
%ADD50C,0.1524*%
G36*
X382866Y207172D02*
D01*
X393534D01*
D01*
X394042D01*
Y191678D01*
X393534D01*
D01*
X382866D01*
D01*
X382358D01*
Y207172D01*
X382866D01*
D02*
G37*
D10*
X134019Y191361D02*
X159581D01*
Y234423D01*
X134019D02*
X159581D01*
X134019Y191361D02*
Y234423D01*
X317800Y146000D02*
Y172000D01*
X300800Y146000D02*
X317800D01*
X300800D02*
Y172000D01*
X317800D01*
X321311Y98011D02*
Y141073D01*
X296689Y98011D02*
X321311D01*
X296689D02*
Y141073D01*
X321311D01*
D49*
X459000Y103950D02*
Y295850D01*
X621500D01*
Y103950D02*
Y295850D01*
X459000Y103950D02*
X621500D01*
D50*
X382866Y207172D02*
X393534D01*
X382866Y191678D02*
X393534D01*
X382358Y207172D02*
X382866D01*
X393534D02*
X394042D01*
Y191678D02*
Y207172D01*
X393534Y191678D02*
X394042D01*
X382358D02*
X382866D01*
X382358D02*
Y207172D01*
M02*
