G04*
G04 #@! TF.GenerationSoftware,Altium Limited,Altium Designer,25.2.1 (25)*
G04*
G04 Layer_Color=16711935*
%FSLAX44Y44*%
%MOMM*%
G71*
G04*
G04 #@! TF.SameCoordinates,5CE3E44F-7945-412C-9A7F-B76B696680CC*
G04*
G04*
G04 #@! TF.FilePolarity,Negative*
G04*
G01*
G75*
%ADD16R,0.2540X0.5080*%
%ADD18C,2.6332*%
%ADD19R,1.6512X1.6512*%
%ADD20C,1.6512*%
%ADD21C,3.5032*%
%ADD22C,1.2032*%
%ADD23C,1.7782*%
%ADD24R,1.7782X1.7782*%
%ADD25C,1.4732*%
%ADD26C,0.5500*%
%ADD38R,1.4621X1.3546*%
%ADD39R,1.2500X0.6000*%
G04:AMPARAMS|DCode=43|XSize=1.2532mm|YSize=1.5832mm|CornerRadius=0.2329mm|HoleSize=0mm|Usage=FLASHONLY|Rotation=180.000|XOffset=0mm|YOffset=0mm|HoleType=Round|Shape=RoundedRectangle|*
%AMROUNDEDRECTD43*
21,1,1.2532,1.1175,0,0,180.0*
21,1,0.7875,1.5832,0,0,180.0*
1,1,0.4657,-0.3938,0.5587*
1,1,0.4657,0.3938,0.5587*
1,1,0.4657,0.3938,-0.5587*
1,1,0.4657,-0.3938,-0.5587*
%
%ADD43ROUNDEDRECTD43*%
G04:AMPARAMS|DCode=44|XSize=1.4132mm|YSize=0.7932mm|CornerRadius=0.2491mm|HoleSize=0mm|Usage=FLASHONLY|Rotation=270.000|XOffset=0mm|YOffset=0mm|HoleType=Round|Shape=RoundedRectangle|*
%AMROUNDEDRECTD44*
21,1,1.4132,0.2950,0,0,270.0*
21,1,0.9150,0.7932,0,0,270.0*
1,1,0.4982,-0.1475,-0.4575*
1,1,0.4982,-0.1475,0.4575*
1,1,0.4982,0.1475,0.4575*
1,1,0.4982,0.1475,-0.4575*
%
%ADD44ROUNDEDRECTD44*%
D16*
X278650Y352900D02*
D03*
X285000D02*
D03*
D18*
X91650Y292800D02*
D03*
Y130200D02*
D03*
D19*
X82750Y247060D02*
D03*
D20*
X100550Y236900D02*
D03*
X82750Y226740D02*
D03*
X100550Y216580D02*
D03*
X82750Y206420D02*
D03*
X100550Y196260D02*
D03*
X82750Y186100D02*
D03*
X100550Y175940D02*
D03*
D21*
X57350Y275000D02*
D03*
Y148000D02*
D03*
D22*
X56531Y56566D02*
D03*
X366589Y56594D02*
D03*
X366553Y366571D02*
D03*
X56562Y366611D02*
D03*
D23*
X296000Y387250D02*
D03*
D24*
X271000D02*
D03*
D25*
X350000Y200000D02*
D03*
X300000Y100000D02*
D03*
X200000Y300000D02*
D03*
Y100000D02*
D03*
X100000D02*
D03*
D26*
X64800Y234300D02*
D03*
X58850Y239100D02*
D03*
X55700Y186000D02*
D03*
X169200Y205000D02*
D03*
X129100Y215700D02*
D03*
X252700Y224500D02*
D03*
X305200Y212600D02*
D03*
X305100Y219200D02*
D03*
X305000Y226000D02*
D03*
X276100Y239800D02*
D03*
X268006Y239627D02*
D03*
X260800Y239500D02*
D03*
D38*
X232300Y305784D02*
D03*
Y325300D02*
D03*
D39*
Y285900D02*
D03*
Y267900D02*
D03*
D43*
X290760Y266800D02*
D03*
X273000D02*
D03*
X273020Y335900D02*
D03*
X290780D02*
D03*
D44*
X272400Y312250D02*
D03*
X281900D02*
D03*
X291400D02*
D03*
Y287150D02*
D03*
X272400D02*
D03*
M02*
