G04*
G04 #@! TF.GenerationSoftware,Altium Limited,Altium Designer,25.2.1 (25)*
G04*
G04 Layer_Color=16711935*
%FSLAX44Y44*%
%MOMM*%
G71*
G04*
G04 #@! TF.SameCoordinates,1C3F561B-ADC2-47E7-AF2F-1A29A0D61862*
G04*
G04*
G04 #@! TF.FilePolarity,Positive*
G04*
G01*
G75*
%ADD28C,0.2000*%
%ADD49C,0.1524*%
%ADD50C,0.0500*%
G36*
X274053Y335834D02*
D01*
Y325166D01*
D01*
Y324658D01*
X289547D01*
Y325166D01*
D01*
Y335834D01*
D01*
Y336342D01*
X274053D01*
Y335834D01*
D02*
G37*
D28*
X240000Y245800D02*
Y271800D01*
X223000D02*
X240000D01*
X223000Y245800D02*
Y271800D01*
Y245800D02*
X240000D01*
X243711Y274769D02*
Y317831D01*
X219089D02*
X243711D01*
X219089Y274769D02*
Y317831D01*
Y274769D02*
X243711D01*
D49*
X274053Y325166D02*
Y335834D01*
X289547Y325166D02*
Y335834D01*
X274053D02*
Y336342D01*
Y324658D02*
Y325166D01*
Y324658D02*
X289547D01*
Y325166D01*
Y335834D02*
Y336342D01*
X274053D02*
X289547D01*
D50*
X162900Y105550D02*
Y297450D01*
X400D02*
X162900D01*
X400Y105550D02*
Y297450D01*
Y105550D02*
X162900D01*
M02*
