G04*
G04 #@! TF.GenerationSoftware,Altium Limited,Altium Designer,25.2.1 (25)*
G04*
G04 Layer_Color=16711935*
%FSLAX44Y44*%
%MOMM*%
G71*
G04*
G04 #@! TF.SameCoordinates,E53B945B-1C12-4891-9A8B-C73F09DD0495*
G04*
G04*
G04 #@! TF.FilePolarity,Positive*
G04*
G01*
G75*
%ADD50C,0.1524*%
G36*
X564322Y240834D02*
Y230166D01*
Y229658D01*
X548828D01*
Y230166D01*
Y240834D01*
Y241342D01*
X564322D01*
Y240834D01*
D02*
G37*
G36*
X564147Y220434D02*
Y209766D01*
Y209258D01*
X548653D01*
Y209766D01*
Y220434D01*
Y220942D01*
X564147D01*
Y220434D01*
D02*
G37*
G36*
X511722Y210334D02*
Y199666D01*
Y199158D01*
X496228D01*
Y199666D01*
Y210334D01*
Y210842D01*
X511722D01*
Y210334D01*
D02*
G37*
G36*
X564147Y179534D02*
Y168866D01*
Y168358D01*
X548653D01*
Y168866D01*
Y179534D01*
Y180042D01*
X564147D01*
Y179534D01*
D02*
G37*
D50*
X548653Y168866D02*
Y179534D01*
X564147Y168866D02*
Y179534D01*
X548653D02*
Y180042D01*
Y168358D02*
Y168866D01*
Y168358D02*
X564147D01*
Y168866D01*
Y179534D02*
Y180042D01*
X548653D02*
X564147D01*
X511722Y199666D02*
Y210334D01*
X496228Y199666D02*
Y210334D01*
X511722Y199158D02*
Y199666D01*
Y210334D02*
Y210842D01*
X496228D02*
X511722D01*
X496228Y210334D02*
Y210842D01*
Y199158D02*
Y199666D01*
Y199158D02*
X511722D01*
X548653Y209766D02*
Y220434D01*
X564147Y209766D02*
Y220434D01*
X548653D02*
Y220942D01*
Y209258D02*
Y209766D01*
Y209258D02*
X564147D01*
Y209766D01*
Y220434D02*
Y220942D01*
X548653D02*
X564147D01*
X548828Y230166D02*
Y240834D01*
X564322Y230166D02*
Y240834D01*
X548828D02*
Y241342D01*
Y229658D02*
Y230166D01*
Y229658D02*
X564322D01*
Y230166D01*
Y240834D02*
Y241342D01*
X548828D02*
X564322D01*
M02*
