G04*
G04 #@! TF.GenerationSoftware,Altium Limited,Altium Designer,25.2.1 (25)*
G04*
G04 Layer_Physical_Order=1*
G04 Layer_Color=255*
%FSLAX44Y44*%
%MOMM*%
G71*
G04*
G04 #@! TF.SameCoordinates,1C3F561B-ADC2-47E7-AF2F-1A29A0D61862*
G04*
G04*
G04 #@! TF.FilePolarity,Positive*
G04*
G01*
G75*
%ADD11R,0.3048X0.5588*%
G04:AMPARAMS|DCode=12|XSize=0.635mm|YSize=0.635mm|CornerRadius=0.1588mm|HoleSize=0mm|Usage=FLASHONLY|Rotation=90.000|XOffset=0mm|YOffset=0mm|HoleType=Round|Shape=RoundedRectangle|*
%AMROUNDEDRECTD12*
21,1,0.6350,0.3175,0,0,90.0*
21,1,0.3175,0.6350,0,0,90.0*
1,1,0.3175,0.1588,0.1588*
1,1,0.3175,0.1588,-0.1588*
1,1,0.3175,-0.1588,-0.1588*
1,1,0.3175,-0.1588,0.1588*
%
%ADD12ROUNDEDRECTD12*%
G04:AMPARAMS|DCode=13|XSize=1.47mm|YSize=0.41mm|CornerRadius=0.0513mm|HoleSize=0mm|Usage=FLASHONLY|Rotation=0.000|XOffset=0mm|YOffset=0mm|HoleType=Round|Shape=RoundedRectangle|*
%AMROUNDEDRECTD13*
21,1,1.4700,0.3075,0,0,0.0*
21,1,1.3675,0.4100,0,0,0.0*
1,1,0.1025,0.6838,-0.1538*
1,1,0.1025,-0.6838,-0.1538*
1,1,0.1025,-0.6838,0.1538*
1,1,0.1025,0.6838,0.1538*
%
%ADD13ROUNDEDRECTD13*%
%ADD14R,1.5562X1.5046*%
%ADD28C,0.2000*%
%ADD29C,0.2540*%
%ADD30C,2.4300*%
%ADD31R,1.4480X1.4480*%
%ADD32C,1.4480*%
%ADD33C,3.3000*%
%ADD34R,1.5750X1.5750*%
%ADD35C,1.5750*%
%ADD36C,1.0000*%
%ADD37C,1.2700*%
%ADD38C,0.4500*%
%ADD39C,0.6000*%
G36*
X365300Y398400D02*
X399400Y365600D01*
Y34600D01*
X366300Y1500D01*
X35100D01*
X34600Y1000D01*
X1200Y34400D01*
X800D01*
Y364500D01*
X400Y364900D01*
X34400Y398900D01*
X364800D01*
X365300Y398400D01*
D02*
G37*
%LPC*%
G36*
X279075Y373775D02*
X260325D01*
Y355025D01*
X279075D01*
Y373775D01*
D02*
G37*
G36*
X356674Y372100D02*
X353326D01*
X350041Y371447D01*
X346948Y370165D01*
X344163Y368305D01*
X341795Y365937D01*
X339935Y363153D01*
X338653Y360059D01*
X338000Y356774D01*
Y353426D01*
X338653Y350141D01*
X339935Y347048D01*
X341795Y344263D01*
X344163Y341895D01*
X346948Y340035D01*
X350041Y338753D01*
X353326Y338100D01*
X356674D01*
X359959Y338753D01*
X363052Y340035D01*
X365837Y341895D01*
X368205Y344263D01*
X370065Y347048D01*
X371347Y350141D01*
X372000Y353426D01*
Y356774D01*
X371347Y360059D01*
X370065Y363153D01*
X368205Y365937D01*
X365837Y368305D01*
X363052Y370165D01*
X359959Y371447D01*
X356674Y372100D01*
D02*
G37*
G36*
X46774D02*
X43426D01*
X40141Y371447D01*
X37048Y370165D01*
X34263Y368305D01*
X31895Y365937D01*
X30035Y363153D01*
X28753Y360059D01*
X28100Y356774D01*
Y353426D01*
X28753Y350141D01*
X30035Y347048D01*
X31895Y344263D01*
X34263Y341895D01*
X37048Y340035D01*
X40141Y338753D01*
X43426Y338100D01*
X46774D01*
X50059Y338753D01*
X53152Y340035D01*
X55937Y341895D01*
X58305Y344263D01*
X60165Y347048D01*
X61447Y350141D01*
X62100Y353426D01*
Y356774D01*
X61447Y360059D01*
X60165Y363153D01*
X58305Y365937D01*
X55937Y368305D01*
X53152Y370165D01*
X50059Y371447D01*
X46774Y372100D01*
D02*
G37*
G36*
X59273Y283000D02*
X55727D01*
X52250Y282308D01*
X48974Y280951D01*
X46026Y278981D01*
X43519Y276474D01*
X41549Y273526D01*
X40192Y270250D01*
X39500Y266773D01*
Y263227D01*
X40192Y259750D01*
X41549Y256474D01*
X43519Y253526D01*
X46026Y251019D01*
X48974Y249049D01*
X52250Y247692D01*
X51923Y246499D01*
X51350D01*
X50374Y246305D01*
X49548Y245752D01*
X45598Y241802D01*
X45045Y240975D01*
X44851Y240000D01*
Y215282D01*
X45045Y214307D01*
X45598Y213480D01*
X64726Y194352D01*
Y179994D01*
X64251D01*
Y171406D01*
X70299D01*
Y173351D01*
X74588D01*
X74756Y172726D01*
X75906Y170734D01*
X77533Y169106D01*
X79527Y167956D01*
X81749Y167360D01*
X84051D01*
X86273Y167956D01*
X88266Y169106D01*
X89894Y170734D01*
X91044Y172726D01*
X91640Y174949D01*
Y177251D01*
X91044Y179473D01*
X89894Y181467D01*
X88266Y183094D01*
X86273Y184244D01*
X84051Y184840D01*
X81749D01*
X79527Y184244D01*
X77533Y183094D01*
X75906Y181467D01*
X74756Y179473D01*
X74481Y178449D01*
X70299D01*
Y179994D01*
X69824D01*
Y195408D01*
X69630Y196383D01*
X69077Y197210D01*
X49949Y216338D01*
Y238944D01*
X52406Y241401D01*
X62674D01*
X63651Y240694D01*
Y232106D01*
X64650D01*
Y231873D01*
X64844Y230897D01*
X65397Y230070D01*
X70669Y224798D01*
X71496Y224245D01*
X72472Y224051D01*
X76055D01*
X76581Y222781D01*
X75906Y222106D01*
X74756Y220114D01*
X74535Y219289D01*
X69699D01*
Y220294D01*
X63651D01*
Y211706D01*
X66953D01*
X67199Y211657D01*
X67413D01*
X74373Y204698D01*
X75200Y204145D01*
X76175Y203951D01*
X85544D01*
X94458Y195038D01*
X95285Y194485D01*
X96260Y194291D01*
X141340D01*
X142315Y194485D01*
X143142Y195038D01*
X145556Y197451D01*
X162718D01*
X163012Y197012D01*
X163677Y196567D01*
X164463Y196411D01*
X178137D01*
X178923Y196567D01*
X179588Y197012D01*
X180033Y197677D01*
X180189Y198463D01*
Y201537D01*
X180033Y202323D01*
X179588Y202988D01*
Y203512D01*
X180033Y204177D01*
X180189Y204963D01*
Y208037D01*
X180033Y208823D01*
X179686Y209750D01*
X180033Y210677D01*
X180189Y211462D01*
Y214538D01*
X180033Y215323D01*
X179588Y215988D01*
Y216512D01*
X180033Y217177D01*
X180189Y217962D01*
Y221038D01*
X180033Y221823D01*
X179588Y222488D01*
X178923Y222933D01*
X178137Y223089D01*
X164463D01*
X163677Y222933D01*
X163012Y222488D01*
X162718Y222049D01*
X143910D01*
X116257Y249702D01*
X115430Y250255D01*
X114454Y250449D01*
X70900D01*
X70027Y250275D01*
X69953Y250332D01*
X69655Y251699D01*
X71481Y253526D01*
X73451Y256474D01*
X74808Y259750D01*
X75500Y263227D01*
Y266773D01*
X74808Y270250D01*
X73451Y273526D01*
X71481Y276474D01*
X68974Y278981D01*
X66026Y280951D01*
X62750Y282308D01*
X59273Y283000D01*
D02*
G37*
G36*
X235537Y223089D02*
X221863D01*
X221077Y222933D01*
X220412Y222488D01*
X219967Y221823D01*
X219811Y221038D01*
Y217962D01*
X219967Y217177D01*
X220412Y216512D01*
X221077Y216067D01*
X221863Y215911D01*
X235537D01*
X236323Y216067D01*
X236988Y216512D01*
X237433Y217177D01*
X237589Y217962D01*
Y221038D01*
X237433Y221823D01*
X236988Y222488D01*
X236323Y222933D01*
X235537Y223089D01*
D02*
G37*
G36*
X277800Y211224D02*
X238800D01*
X237652Y210748D01*
X237428Y210524D01*
X220700D01*
X219552Y210048D01*
X219076Y208900D01*
Y198200D01*
X219266Y197742D01*
X219377Y197259D01*
X219416Y197234D01*
X219524Y197120D01*
X219552Y197052D01*
X219967Y195823D01*
X219811Y195037D01*
Y191963D01*
X219967Y191177D01*
X220314Y190250D01*
X219967Y189323D01*
X219811Y188538D01*
Y185462D01*
X219967Y184677D01*
X220412Y184012D01*
Y183488D01*
X219967Y182823D01*
X219811Y182038D01*
Y178962D01*
X219967Y178177D01*
X220412Y177512D01*
X221077Y177067D01*
X221863Y176911D01*
X235537D01*
X236323Y177067D01*
X236988Y177512D01*
X237433Y178177D01*
X237589Y178962D01*
Y182038D01*
X237433Y182823D01*
X236988Y183488D01*
Y184012D01*
X237433Y184677D01*
X237589Y185462D01*
Y188538D01*
X237433Y189323D01*
X237086Y190250D01*
X237433Y191177D01*
X237589Y191963D01*
Y193818D01*
X238859Y194345D01*
X241976Y191227D01*
Y186800D01*
X242452Y185652D01*
X243600Y185176D01*
X264928D01*
X268252Y181852D01*
X269400Y181376D01*
X277800D01*
X278948Y181852D01*
X279424Y183000D01*
Y209600D01*
X278948Y210748D01*
X277800Y211224D01*
D02*
G37*
G36*
X178137Y190589D02*
X164463D01*
X163677Y190433D01*
X163012Y189988D01*
X162567Y189323D01*
X162411Y188538D01*
Y185462D01*
X162567Y184677D01*
X163012Y184012D01*
Y183488D01*
X162567Y182823D01*
X162411Y182038D01*
Y178962D01*
X162567Y178177D01*
X163012Y177512D01*
X163677Y177067D01*
X164463Y176911D01*
X178137D01*
X178923Y177067D01*
X179588Y177512D01*
X180033Y178177D01*
X180189Y178962D01*
Y182038D01*
X180033Y182823D01*
X179588Y183488D01*
Y184012D01*
X180033Y184677D01*
X180189Y185462D01*
Y188538D01*
X180033Y189323D01*
X179588Y189988D01*
X178923Y190433D01*
X178137Y190589D01*
D02*
G37*
G36*
X59273Y156000D02*
X55727D01*
X52250Y155308D01*
X48974Y153951D01*
X46026Y151981D01*
X43519Y149474D01*
X41549Y146526D01*
X40192Y143250D01*
X39500Y139773D01*
Y136227D01*
X40192Y132750D01*
X41549Y129474D01*
X43519Y126526D01*
X46026Y124018D01*
X48974Y122049D01*
X52250Y120692D01*
X55727Y120000D01*
X59273D01*
X62750Y120692D01*
X66026Y122049D01*
X68974Y124018D01*
X71481Y126526D01*
X73451Y129474D01*
X74808Y132750D01*
X75500Y136227D01*
Y139773D01*
X74808Y143250D01*
X73451Y146526D01*
X71481Y149474D01*
X68974Y151981D01*
X66026Y153951D01*
X62750Y155308D01*
X59273Y156000D01*
D02*
G37*
G36*
X356674Y62100D02*
X353326D01*
X350041Y61447D01*
X346948Y60165D01*
X344163Y58305D01*
X341795Y55937D01*
X339935Y53152D01*
X338653Y50059D01*
X338000Y46774D01*
Y43426D01*
X338653Y40141D01*
X339935Y37048D01*
X341795Y34263D01*
X344163Y31895D01*
X346948Y30035D01*
X350041Y28753D01*
X353326Y28100D01*
X356674D01*
X359959Y28753D01*
X363052Y30035D01*
X365837Y31895D01*
X368205Y34263D01*
X370065Y37048D01*
X371347Y40141D01*
X372000Y43426D01*
Y46774D01*
X371347Y50059D01*
X370065Y53152D01*
X368205Y55937D01*
X365837Y58305D01*
X363052Y60165D01*
X359959Y61447D01*
X356674Y62100D01*
D02*
G37*
G36*
X46774D02*
X43426D01*
X40141Y61447D01*
X37048Y60165D01*
X34263Y58305D01*
X31895Y55937D01*
X30035Y53152D01*
X28753Y50059D01*
X28100Y46774D01*
Y43426D01*
X28753Y40141D01*
X30035Y37048D01*
X31895Y34263D01*
X34263Y31895D01*
X37048Y30035D01*
X40141Y28753D01*
X43426Y28100D01*
X46774D01*
X50059Y28753D01*
X53152Y30035D01*
X55937Y31895D01*
X58305Y34263D01*
X60165Y37048D01*
X61447Y40141D01*
X62100Y43426D01*
Y46774D01*
X61447Y50059D01*
X60165Y53152D01*
X58305Y55937D01*
X55937Y58305D01*
X53152Y60165D01*
X50059Y61447D01*
X46774Y62100D01*
D02*
G37*
%LPD*%
G36*
X137867Y220882D02*
X137381Y219709D01*
X97721D01*
X90284Y227147D01*
X90770Y228320D01*
X91640D01*
Y245351D01*
X113399D01*
X137867Y220882D01*
D02*
G37*
G36*
X141419Y207431D02*
Y204713D01*
X141659Y203508D01*
X142341Y202487D01*
X142050Y201154D01*
X140284Y199389D01*
X107665D01*
X107139Y200659D01*
X107694Y201213D01*
X108844Y203207D01*
X109028Y203891D01*
X113001D01*
Y202006D01*
X119049D01*
Y206578D01*
X119098Y206824D01*
Y207272D01*
X120871Y209045D01*
X139805D01*
X141419Y207431D01*
D02*
G37*
G36*
X277800Y183000D02*
X269400D01*
X265500Y186900D01*
X265400Y186800D01*
X243600D01*
Y191700D01*
X243700Y191800D01*
X237500Y198000D01*
Y198000D01*
X221887D01*
X220700Y198200D01*
Y208900D01*
X237500D01*
X237800Y208600D01*
X238800Y209600D01*
X277800D01*
Y183000D01*
D02*
G37*
D11*
X67275Y175700D02*
D03*
X60925D02*
D03*
X66675Y236400D02*
D03*
X60325D02*
D03*
X66675Y216000D02*
D03*
X60325D02*
D03*
X116025Y206300D02*
D03*
X122375D02*
D03*
D12*
X146155D02*
D03*
X155045D02*
D03*
D13*
X171300Y219500D02*
D03*
Y213000D02*
D03*
Y206500D02*
D03*
Y200000D02*
D03*
Y193500D02*
D03*
Y187000D02*
D03*
Y180500D02*
D03*
X228700D02*
D03*
Y187000D02*
D03*
Y193500D02*
D03*
Y200000D02*
D03*
Y206500D02*
D03*
Y213000D02*
D03*
Y219500D02*
D03*
D14*
X253500Y177384D02*
D03*
Y195400D02*
D03*
D28*
X67275Y175700D02*
Y195408D01*
X47400Y215282D02*
X67275Y195408D01*
X47400Y215282D02*
Y240000D01*
X51350Y243950D01*
X66950D01*
X70900Y247900D01*
X114454D01*
X142854Y219500D01*
X171300D01*
X96260Y196840D02*
X141340D01*
X86600Y206500D02*
X96260Y196840D01*
X76175Y206500D02*
X86600D01*
X144500Y200000D02*
X171300D01*
X141340Y196840D02*
X144500Y200000D01*
X68469Y214206D02*
X76175Y206500D01*
X67199Y214206D02*
X68469D01*
X66675Y214730D02*
X67199Y214206D01*
X66675Y214730D02*
Y216000D01*
X67199Y231873D02*
X72472Y226600D01*
X67199Y231873D02*
Y237060D01*
X72472Y226600D02*
X87226D01*
X96666Y217160D01*
X140245D01*
X144405Y213000D01*
X171300D01*
X116025Y206300D02*
X116549Y206824D01*
Y208328D01*
X119816Y211594D01*
X140861D01*
X146155Y206300D01*
X67275Y175700D02*
X67475Y175900D01*
X82700D01*
X82900Y176100D01*
X66675Y216216D02*
X67199Y216740D01*
X82900D01*
X67199Y237060D02*
X82900D01*
X100700Y206580D02*
X100840Y206440D01*
X115885D01*
X116025Y206300D01*
X155045D02*
X155145Y206400D01*
X171200D01*
X171300Y206500D01*
D29*
X53400Y175600D02*
X53450Y175650D01*
X60875D01*
X60925Y175700D01*
X53300Y216100D02*
X53350Y216050D01*
X60275D01*
X60325Y216000D01*
X53300Y236600D02*
X53400Y236500D01*
X60225D01*
X60325Y236400D01*
X244570Y215500D02*
X245100D01*
X228700Y213000D02*
X242070D01*
X244570Y215500D01*
X155700Y193100D02*
X155900Y193300D01*
X171100D01*
X171300Y193500D01*
X131850Y206450D02*
X132000Y206600D01*
X122525Y206450D02*
X131850D01*
X122375Y206300D02*
X122525Y206450D01*
D30*
X91800Y282800D02*
D03*
Y120200D02*
D03*
D31*
X82900Y237060D02*
D03*
D32*
X100700Y226900D02*
D03*
X82900Y216740D02*
D03*
X100700Y206580D02*
D03*
X82900Y196420D02*
D03*
X100700Y186260D02*
D03*
X82900Y176100D02*
D03*
X100700Y165940D02*
D03*
D33*
X57500Y265000D02*
D03*
Y138000D02*
D03*
D34*
X269700Y364400D02*
D03*
D35*
X294700D02*
D03*
D36*
X355000Y45100D02*
D03*
X45100Y355100D02*
D03*
Y45100D02*
D03*
X355000Y355100D02*
D03*
D37*
X350000Y200000D02*
D03*
X300000Y100000D02*
D03*
X200000Y300000D02*
D03*
Y100000D02*
D03*
X100000D02*
D03*
X350000Y200000D02*
D03*
X300000Y100000D02*
D03*
X200000Y300000D02*
D03*
Y100000D02*
D03*
D38*
X53400Y175600D02*
D03*
X53300Y216100D02*
D03*
Y236600D02*
D03*
X132000Y206600D02*
D03*
X245100Y215500D02*
D03*
X261200Y162600D02*
D03*
X253700D02*
D03*
X246200D02*
D03*
X155700Y193100D02*
D03*
D39*
X273200Y196700D02*
D03*
X273300Y205600D02*
D03*
X273400Y187700D02*
D03*
M02*
