G04*
G04 #@! TF.GenerationSoftware,Altium Limited,Altium Designer,25.2.1 (25)*
G04*
G04 Layer_Color=32768*
%FSLAX44Y44*%
%MOMM*%
G71*
G04*
G04 #@! TF.SameCoordinates,5F0F5B64-BFB7-492A-895C-DD278EAA695B*
G04*
G04*
G04 #@! TF.FilePolarity,Positive*
G04*
G01*
G75*
%ADD27C,0.2000*%
%ADD49C,0.1524*%
G36*
X72872Y320834D02*
Y310166D01*
Y309658D01*
X57378D01*
Y310166D01*
Y320834D01*
Y321342D01*
X72872D01*
Y320834D01*
D02*
G37*
G36*
X73072Y301034D02*
Y290366D01*
Y289858D01*
X57578D01*
Y290366D01*
Y301034D01*
Y301542D01*
X73072D01*
Y301034D01*
D02*
G37*
G36*
X126647Y290434D02*
Y279766D01*
Y279258D01*
X111153D01*
Y279766D01*
Y290434D01*
Y290942D01*
X126647D01*
Y290434D01*
D02*
G37*
G36*
X72747Y260334D02*
Y249666D01*
Y249158D01*
X57253D01*
Y249666D01*
Y260334D01*
Y260842D01*
X72747D01*
Y260334D01*
D02*
G37*
D27*
X321419Y288923D02*
X346981D01*
X321419Y245861D02*
Y288923D01*
Y245861D02*
X346981D01*
Y288923D01*
D49*
X72872Y310166D02*
Y320834D01*
X57378Y310166D02*
Y320834D01*
X72872D02*
Y321342D01*
Y309658D02*
Y310166D01*
X57378Y309658D02*
X72872D01*
X57378D02*
Y310166D01*
Y320834D02*
Y321342D01*
X72872D01*
X73072Y290366D02*
Y301034D01*
X57578Y290366D02*
Y301034D01*
X73072D02*
Y301542D01*
Y289858D02*
Y290366D01*
X57578Y289858D02*
X73072D01*
X57578D02*
Y290366D01*
Y301034D02*
Y301542D01*
X73072D01*
X111153Y279766D02*
Y290434D01*
X126647Y279766D02*
Y290434D01*
X111153Y279258D02*
Y279766D01*
Y290434D02*
Y290942D01*
X126647D01*
Y290434D02*
Y290942D01*
Y279258D02*
Y279766D01*
X111153Y279258D02*
X126647D01*
X72747Y249666D02*
Y260334D01*
X57253Y249666D02*
Y260334D01*
X72747D02*
Y260842D01*
Y249158D02*
Y249666D01*
X57253Y249158D02*
X72747D01*
X57253D02*
Y249666D01*
Y260334D02*
Y260842D01*
X72747D01*
M02*
