G04*
G04 #@! TF.GenerationSoftware,Altium Limited,Altium Designer,25.2.1 (25)*
G04*
G04 Layer_Color=2752767*
%FSLAX44Y44*%
%MOMM*%
G71*
G04*
G04 #@! TF.SameCoordinates,1C3F561B-ADC2-47E7-AF2F-1A29A0D61862*
G04*
G04*
G04 #@! TF.FilePolarity,Positive*
G04*
G01*
G75*
%ADD10C,0.1270*%
%ADD52C,0.1693*%
D10*
X82900Y231980D02*
X77820Y242140D01*
X87980D01*
X82900Y231980D01*
X100700Y221820D02*
X95620Y231980D01*
X105780D01*
X100700Y221820D01*
X82900Y211660D02*
X77820Y221820D01*
X87980D01*
X82900Y211660D01*
X100700Y201500D02*
X95620Y211660D01*
X105780D01*
X100700Y201500D01*
X82900Y191340D02*
X77820Y201500D01*
X87980D01*
X82900Y191340D01*
X100700Y181180D02*
X95620Y191340D01*
X105780D01*
X100700Y181180D01*
X82900Y171020D02*
X77820Y181180D01*
X87980D01*
X82900Y171020D01*
X100700Y160860D02*
X95620Y171020D01*
X105780D01*
X100700Y160860D01*
X57500Y259920D02*
X60040Y262460D01*
X62580D01*
X60040Y265000D01*
X62580Y267540D01*
X60040D01*
X57500Y270080D01*
X54960Y267540D01*
X52420D01*
X54960Y265000D01*
X52420Y262460D01*
X54960D01*
X57500Y259920D01*
Y132920D02*
X60040Y135460D01*
X62580D01*
X60040Y138000D01*
X62580Y140540D01*
X60040D01*
X57500Y143080D01*
X54960Y140540D01*
X52420D01*
X54960Y138000D01*
X52420Y135460D01*
X54960D01*
X57500Y132920D01*
X264620Y359320D02*
X267160Y364400D01*
X264620Y369480D01*
X269700Y366940D01*
X274780Y369480D01*
X272240Y364400D01*
X274780Y359320D01*
X269700Y361860D01*
X264620Y359320D01*
X289620D02*
X292160Y364400D01*
X289620Y369480D01*
X294700Y366940D01*
X299780Y369480D01*
X297240Y364400D01*
X299780Y359320D01*
X294700Y361860D01*
X289620Y359320D01*
X349920Y40020D02*
Y50180D01*
X360080D01*
Y40020D01*
X349920D01*
X40020Y350020D02*
Y360180D01*
X50180D01*
Y350020D01*
X40020D01*
Y40020D02*
Y50180D01*
X50180D01*
Y40020D01*
X40020D01*
X349920Y350020D02*
Y360180D01*
X360080D01*
Y350020D01*
X349920D01*
X94920Y94920D02*
X97460D01*
X100000Y97460D01*
X102540Y94920D01*
X105080D01*
Y97460D01*
X102540Y100000D01*
X105080Y102540D01*
Y105080D01*
X102540D01*
X100000Y102540D01*
X97460Y105080D01*
X94920D01*
Y102540D01*
X97460Y100000D01*
X94920Y97460D01*
Y94920D01*
X50860Y173060D02*
Y170520D01*
X55940D01*
Y173060D01*
X58480D01*
Y178140D01*
X55940D01*
Y180680D01*
X50860D01*
Y178140D01*
X48320D01*
Y173060D01*
X50860D01*
X50760Y213560D02*
Y211020D01*
X55840D01*
Y213560D01*
X58380D01*
Y218640D01*
X55840D01*
Y221180D01*
X50760D01*
Y218640D01*
X48220D01*
Y213560D01*
X50760D01*
Y234060D02*
Y231520D01*
X55840D01*
Y234060D01*
X58380D01*
Y239140D01*
X55840D01*
Y241680D01*
X50760D01*
Y239140D01*
X48220D01*
Y234060D01*
X50760D01*
X344920Y194920D02*
X347460D01*
X350000Y197460D01*
X352540Y194920D01*
X355080D01*
Y197460D01*
X352540Y200000D01*
X355080Y202540D01*
Y205080D01*
X352540D01*
X350000Y202540D01*
X347460Y205080D01*
X344920D01*
Y202540D01*
X347460Y200000D01*
X344920Y197460D01*
Y194920D01*
X294920Y94920D02*
X297460D01*
X300000Y97460D01*
X302540Y94920D01*
X305080D01*
Y97460D01*
X302540Y100000D01*
X305080Y102540D01*
Y105080D01*
X302540D01*
X300000Y102540D01*
X297460Y105080D01*
X294920D01*
Y102540D01*
X297460Y100000D01*
X294920Y97460D01*
Y94920D01*
X194920Y294920D02*
X197460D01*
X200000Y297460D01*
X202540Y294920D01*
X205080D01*
Y297460D01*
X202540Y300000D01*
X205080Y302540D01*
Y305080D01*
X202540D01*
X200000Y302540D01*
X197460Y305080D01*
X194920D01*
Y302540D01*
X197460Y300000D01*
X194920Y297460D01*
Y294920D01*
Y94920D02*
X197460D01*
X200000Y97460D01*
X202540Y94920D01*
X205080D01*
Y97460D01*
X202540Y100000D01*
X205080Y102540D01*
Y105080D01*
X202540D01*
X200000Y102540D01*
X197460Y105080D01*
X194920D01*
Y102540D01*
X197460Y100000D01*
X194920Y97460D01*
Y94920D01*
X129460Y204060D02*
Y201520D01*
X134540D01*
Y204060D01*
X137080D01*
Y209140D01*
X134540D01*
Y211680D01*
X129460D01*
Y209140D01*
X126920D01*
Y204060D01*
X129460D01*
X242560Y212960D02*
Y210420D01*
X247640D01*
Y212960D01*
X250180D01*
Y218040D01*
X247640D01*
Y220580D01*
X242560D01*
Y218040D01*
X240020D01*
Y212960D01*
X242560D01*
X258660Y160060D02*
Y157520D01*
X263740D01*
Y160060D01*
X266280D01*
Y165140D01*
X263740D01*
Y167680D01*
X258660D01*
Y165140D01*
X256120D01*
Y160060D01*
X258660D01*
X251160D02*
Y157520D01*
X256240D01*
Y160060D01*
X258780D01*
Y165140D01*
X256240D01*
Y167680D01*
X251160D01*
Y165140D01*
X248620D01*
Y160060D01*
X251160D01*
X243660D02*
Y157520D01*
X248740D01*
Y160060D01*
X251280D01*
Y165140D01*
X248740D01*
Y167680D01*
X243660D01*
Y165140D01*
X241120D01*
Y160060D01*
X243660D01*
X153160Y190560D02*
Y188020D01*
X158240D01*
Y190560D01*
X160780D01*
Y195640D01*
X158240D01*
Y198180D01*
X153160D01*
Y195640D01*
X150620D01*
Y190560D01*
X153160D01*
X270660Y194160D02*
Y191620D01*
X275740D01*
Y194160D01*
X278280D01*
Y199240D01*
X275740D01*
Y201780D01*
X270660D01*
Y199240D01*
X268120D01*
Y194160D01*
X270660D01*
X270760Y203060D02*
Y200520D01*
X275840D01*
Y203060D01*
X278380D01*
Y208140D01*
X275840D01*
Y210680D01*
X270760D01*
Y208140D01*
X268220D01*
Y203060D01*
X270760D01*
X270860Y185160D02*
Y182620D01*
X275940D01*
Y185160D01*
X278480D01*
Y190240D01*
X275940D01*
Y192780D01*
X270860D01*
Y190240D01*
X268320D01*
Y185160D01*
X270860D01*
D52*
X96880Y282800D02*
G03*
X96880Y282800I-5080J0D01*
G01*
Y120200D02*
G03*
X96880Y120200I-5080J0D01*
G01*
M02*
