M48
;Layer_Color=15238730
;FILE_FORMAT=4:4
METRIC,LZ
;TYPE=PLATED
T01F00S00C0.3000
T02F00S00C0.7112
T03F00S00C0.9400
T04F00S00C1.0500
T05F00S00C1.6200
;TYPE=NON_PLATED
T06F00S00C3.1000
T07F00S00C3.3000
%
T01
X000534Y001756
X000533Y002161
Y002366
X00132Y002066
X001557Y001931
X002451Y002155
X002733Y002056
X002732Y001967
X002734Y001877
X002612Y001626
X002537
X002462
T02
X001Y001
X002
X003
X0035Y002
X002Y003
T03
X000829Y001761
Y0019642
Y0021674
Y0023706
X001007Y002269
Y0020658
Y0018626
Y0016594
T04
X002697Y003644
X002947
T05
X000918Y001202
Y002828
T06
X000451Y000451
X00355
Y003551
X000451
T07
X000575Y00138
Y00265
M30
