G04*
G04 #@! TF.GenerationSoftware,Altium Limited,Altium Designer,25.2.1 (25)*
G04*
G04 Layer_Color=128*
%FSLAX44Y44*%
%MOMM*%
G71*
G04*
G04 #@! TF.SameCoordinates,5F0F5B64-BFB7-492A-895C-DD278EAA695B*
G04*
G04*
G04 #@! TF.FilePolarity,Positive*
G04*
G01*
G75*
%ADD10C,0.1270*%
D10*
X83900Y361600D02*
X100100D01*
X92000Y353500D02*
Y369700D01*
X83900Y199000D02*
X100100D01*
X92000Y190900D02*
Y207100D01*
X78400Y315860D02*
X87800D01*
X83100Y311160D02*
Y320560D01*
X96200Y305700D02*
X105600D01*
X100900Y301000D02*
Y310400D01*
X78400Y295540D02*
X87800D01*
X83100Y290840D02*
Y300240D01*
X96200Y285380D02*
X105600D01*
X100900Y280680D02*
Y290080D01*
X78400Y275220D02*
X87800D01*
X83100Y270520D02*
Y279920D01*
X96200Y265060D02*
X105600D01*
X100900Y260360D02*
Y269760D01*
X78400Y254900D02*
X87800D01*
X83100Y250200D02*
Y259600D01*
X96200Y244740D02*
X105600D01*
X100900Y240040D02*
Y249440D01*
X41200Y343800D02*
X74200D01*
X57700Y327300D02*
Y360300D01*
X41200Y216800D02*
X74200D01*
X57700Y200300D02*
Y233300D01*
X518750Y298300D02*
X529250D01*
X524000Y293050D02*
Y303550D01*
X518750Y273300D02*
X529250D01*
X524000Y268050D02*
Y278550D01*
X420280Y35060D02*
X451280D01*
X435780Y19560D02*
Y50560D01*
X420230Y525040D02*
X451230D01*
X435730Y509540D02*
Y540540D01*
X108850Y35030D02*
X139850D01*
X124350Y19530D02*
Y50530D01*
X108800Y525100D02*
X139800D01*
X124300Y509600D02*
Y540600D01*
X396444Y500000D02*
X403556D01*
X400000Y496444D02*
Y503556D01*
X446444Y400000D02*
X453556D01*
X450000Y396444D02*
Y403556D01*
X446444Y200000D02*
X453556D01*
X450000Y196444D02*
Y203556D01*
X396444Y100000D02*
X403556D01*
X400000Y96444D02*
Y103556D01*
X296444Y500000D02*
X303556D01*
X300000Y496444D02*
Y503556D01*
X346444Y400000D02*
X353556D01*
X350000Y396444D02*
Y403556D01*
X346444Y200000D02*
X353556D01*
X350000Y196444D02*
Y203556D01*
X296444Y100000D02*
X303556D01*
X300000Y96444D02*
Y103556D01*
X196444Y500000D02*
X203556D01*
X200000Y496444D02*
Y503556D01*
X246444Y400000D02*
X253556D01*
X250000Y396444D02*
Y403556D01*
X246444Y200000D02*
X253556D01*
X250000Y196444D02*
Y203556D01*
X196444Y100000D02*
X203556D01*
X200000Y96444D02*
Y103556D01*
X146444Y400000D02*
X153556D01*
X150000Y396444D02*
Y403556D01*
X146444Y200000D02*
X153556D01*
X150000Y196444D02*
Y203556D01*
X343600Y238300D02*
X346600D01*
X345100Y236800D02*
Y239800D01*
X334300Y238500D02*
X337300D01*
X335800Y237000D02*
Y240000D01*
X325200Y238700D02*
X328200D01*
X326700Y237200D02*
Y240200D01*
X130200Y284800D02*
X133200D01*
X131700Y283300D02*
Y286300D01*
X51100Y254900D02*
X54100D01*
X52600Y253400D02*
Y256400D01*
X51100Y295700D02*
X54100D01*
X52600Y294200D02*
Y297200D01*
X51000Y315200D02*
X54000D01*
X52500Y313700D02*
Y316700D01*
X235400Y273400D02*
X238400D01*
X236900Y271900D02*
Y274900D01*
X321600Y295800D02*
X324600D01*
X323100Y294300D02*
Y297300D01*
X351300Y294300D02*
X354300D01*
X352800Y292800D02*
Y295800D01*
X351400Y287100D02*
X354400D01*
X352900Y285600D02*
Y288600D01*
X351400Y279900D02*
X354400D01*
X352900Y278400D02*
Y281400D01*
M02*
