G04*
G04 #@! TF.GenerationSoftware,Altium Limited,Altium Designer,25.2.1 (25)*
G04*
G04 Layer_Color=2752767*
%FSLAX44Y44*%
%MOMM*%
G71*
G04*
G04 #@! TF.SameCoordinates,5CE3E44F-7945-412C-9A7F-B76B696680CC*
G04*
G04*
G04 #@! TF.FilePolarity,Positive*
G04*
G01*
G75*
%ADD10C,0.1270*%
%ADD50C,0.1693*%
D10*
X86570Y287720D02*
Y297880D01*
X96730D01*
Y287720D01*
X86570D01*
Y125120D02*
Y135280D01*
X96730D01*
Y125120D01*
X86570D01*
X57350Y269920D02*
X52270Y280080D01*
X62430D01*
X57350Y269920D01*
Y142920D02*
X52270Y153080D01*
X62430D01*
X57350Y142920D01*
X53991Y54026D02*
Y51486D01*
X59071D01*
Y54026D01*
X61611D01*
Y59106D01*
X59071D01*
Y61646D01*
X53991D01*
Y59106D01*
X51451D01*
Y54026D01*
X53991D01*
X364049Y54054D02*
Y51514D01*
X369128D01*
Y54054D01*
X371669D01*
Y59134D01*
X369128D01*
Y61674D01*
X364049D01*
Y59134D01*
X361508D01*
Y54054D01*
X364049D01*
X364013Y364030D02*
Y361491D01*
X369093D01*
Y364030D01*
X371633D01*
Y369110D01*
X369093D01*
Y371651D01*
X364013D01*
Y369110D01*
X361473D01*
Y364030D01*
X364013D01*
X54022Y364071D02*
Y361531D01*
X59102D01*
Y364071D01*
X61642D01*
Y369151D01*
X59102D01*
Y371691D01*
X54022D01*
Y369151D01*
X51482D01*
Y364071D01*
X54022D01*
X296000Y382170D02*
X298540Y384710D01*
X301080D01*
X298540Y387250D01*
X301080Y389790D01*
X298540D01*
X296000Y392330D01*
X293460Y389790D01*
X290920D01*
X293460Y387250D01*
X290920Y384710D01*
X293460D01*
X296000Y382170D01*
X271000D02*
X273540Y384710D01*
X276080D01*
X273540Y387250D01*
X276080Y389790D01*
X273540D01*
X271000Y392330D01*
X268460Y389790D01*
X265920D01*
X268460Y387250D01*
X265920Y384710D01*
X268460D01*
X271000Y382170D01*
X344920Y194920D02*
X347460D01*
X350000Y197460D01*
X352540Y194920D01*
X355080D01*
Y197460D01*
X352540Y200000D01*
X355080Y202540D01*
Y205080D01*
X352540D01*
X350000Y202540D01*
X347460Y205080D01*
X344920D01*
Y202540D01*
X347460Y200000D01*
X344920Y197460D01*
Y194920D01*
X294920Y94920D02*
X297460D01*
X300000Y97460D01*
X302540Y94920D01*
X305080D01*
Y97460D01*
X302540Y100000D01*
X305080Y102540D01*
Y105080D01*
X302540D01*
X300000Y102540D01*
X297460Y105080D01*
X294920D01*
Y102540D01*
X297460Y100000D01*
X294920Y97460D01*
Y94920D01*
X194920Y294920D02*
X197460D01*
X200000Y297460D01*
X202540Y294920D01*
X205080D01*
Y297460D01*
X202540Y300000D01*
X205080Y302540D01*
Y305080D01*
X202540D01*
X200000Y302540D01*
X197460Y305080D01*
X194920D01*
Y302540D01*
X197460Y300000D01*
X194920Y297460D01*
Y294920D01*
Y94920D02*
X197460D01*
X200000Y97460D01*
X202540Y94920D01*
X205080D01*
Y97460D01*
X202540Y100000D01*
X205080Y102540D01*
Y105080D01*
X202540D01*
X200000Y102540D01*
X197460Y105080D01*
X194920D01*
Y102540D01*
X197460Y100000D01*
X194920Y97460D01*
Y94920D01*
X94920D02*
X97460D01*
X100000Y97460D01*
X102540Y94920D01*
X105080D01*
Y97460D01*
X102540Y100000D01*
X105080Y102540D01*
Y105080D01*
X102540D01*
X100000Y102540D01*
X97460Y105080D01*
X94920D01*
Y102540D01*
X97460Y100000D01*
X94920Y97460D01*
Y94920D01*
X59720Y229220D02*
X62260Y234300D01*
X59720Y239380D01*
X64800Y236840D01*
X69880Y239380D01*
X67340Y234300D01*
X69880Y229220D01*
X64800Y231760D01*
X59720Y229220D01*
X53770Y234020D02*
X56310Y239100D01*
X53770Y244180D01*
X58850Y241640D01*
X63930Y244180D01*
X61390Y239100D01*
X63930Y234020D01*
X58850Y236560D01*
X53770Y234020D01*
X50620Y180920D02*
X53160Y186000D01*
X50620Y191080D01*
X55700Y188540D01*
X60780Y191080D01*
X58240Y186000D01*
X60780Y180920D01*
X55700Y183460D01*
X50620Y180920D01*
X164120Y199920D02*
X166660Y205000D01*
X164120Y210080D01*
X169200Y207540D01*
X174280Y210080D01*
X171740Y205000D01*
X174280Y199920D01*
X169200Y202460D01*
X164120Y199920D01*
X124020Y210620D02*
X126560Y215700D01*
X124020Y220780D01*
X129100Y218240D01*
X134180Y220780D01*
X131640Y215700D01*
X134180Y210620D01*
X129100Y213160D01*
X124020Y210620D01*
X247620Y219420D02*
X250160Y224500D01*
X247620Y229580D01*
X252700Y227040D01*
X257780Y229580D01*
X255240Y224500D01*
X257780Y219420D01*
X252700Y221960D01*
X247620Y219420D01*
X300120Y207520D02*
X302660Y212600D01*
X300120Y217680D01*
X305200Y215140D01*
X310280Y217680D01*
X307740Y212600D01*
X310280Y207520D01*
X305200Y210060D01*
X300120Y207520D01*
X300020Y214120D02*
X302560Y219200D01*
X300020Y224280D01*
X305100Y221740D01*
X310180Y224280D01*
X307640Y219200D01*
X310180Y214120D01*
X305100Y216660D01*
X300020Y214120D01*
X299920Y220920D02*
X302460Y226000D01*
X299920Y231080D01*
X305000Y228540D01*
X310080Y231080D01*
X307540Y226000D01*
X310080Y220920D01*
X305000Y223460D01*
X299920Y220920D01*
X271020Y234720D02*
X273560Y239800D01*
X271020Y244880D01*
X276100Y242340D01*
X281180Y244880D01*
X278640Y239800D01*
X281180Y234720D01*
X276100Y237260D01*
X271020Y234720D01*
X262926Y234547D02*
X265466Y239627D01*
X262926Y244707D01*
X268006Y242167D01*
X273086Y244707D01*
X270546Y239627D01*
X273086Y234547D01*
X268006Y237087D01*
X262926Y234547D01*
X255720Y234420D02*
X258260Y239500D01*
X255720Y244580D01*
X260800Y242040D01*
X265880Y244580D01*
X263340Y239500D01*
X265880Y234420D01*
X260800Y236960D01*
X255720Y234420D01*
D50*
X87830Y247060D02*
G03*
X87830Y247060I-5080J0D01*
G01*
X105630Y236900D02*
G03*
X105630Y236900I-5080J0D01*
G01*
X87830Y226740D02*
G03*
X87830Y226740I-5080J0D01*
G01*
X105630Y216580D02*
G03*
X105630Y216580I-5080J0D01*
G01*
X87830Y206420D02*
G03*
X87830Y206420I-5080J0D01*
G01*
X105630Y196260D02*
G03*
X105630Y196260I-5080J0D01*
G01*
X87830Y186100D02*
G03*
X87830Y186100I-5080J0D01*
G01*
X105630Y175940D02*
G03*
X105630Y175940I-5080J0D01*
G01*
M02*
