G04*
G04 #@! TF.GenerationSoftware,Altium Limited,Altium Designer,25.2.1 (25)*
G04*
G04 Layer_Color=2752767*
%FSLAX44Y44*%
%MOMM*%
G71*
G04*
G04 #@! TF.SameCoordinates,E53B945B-1C12-4891-9A8B-C73F09DD0495*
G04*
G04*
G04 #@! TF.FilePolarity,Positive*
G04*
G01*
G75*
%ADD11C,0.1270*%
%ADD52C,0.1693*%
D11*
X525020Y276120D02*
Y286280D01*
X535180D01*
Y276120D01*
X525020D01*
Y113520D02*
Y123680D01*
X535180D01*
Y113520D01*
X525020D01*
X539000Y230380D02*
X533920Y240540D01*
X544080D01*
X539000Y230380D01*
X521200Y220220D02*
X516120Y230380D01*
X526280D01*
X521200Y220220D01*
X539000Y210060D02*
X533920Y220220D01*
X544080D01*
X539000Y210060D01*
X521200Y199900D02*
X516120Y210060D01*
X526280D01*
X521200Y199900D01*
X539000Y189740D02*
X533920Y199900D01*
X544080D01*
X539000Y189740D01*
X521200Y179580D02*
X516120Y189740D01*
X526280D01*
X521200Y179580D01*
X539000Y169420D02*
X533920Y179580D01*
X544080D01*
X539000Y169420D01*
X521200Y159260D02*
X516120Y169420D01*
X526280D01*
X521200Y159260D01*
X564400Y258320D02*
X566940Y260860D01*
X569480D01*
X566940Y263400D01*
X569480Y265940D01*
X566940D01*
X564400Y268480D01*
X561860Y265940D01*
X559320D01*
X561860Y263400D01*
X559320Y260860D01*
X561860D01*
X564400Y258320D01*
Y131320D02*
X566940Y133860D01*
X569480D01*
X566940Y136400D01*
X569480Y138940D01*
X566940D01*
X564400Y141480D01*
X561860Y138940D01*
X559320D01*
X561860Y136400D01*
X559320Y133860D01*
X561860D01*
X564400Y131320D01*
X426720Y206520D02*
X429260Y211600D01*
X426720Y216680D01*
X431800Y214140D01*
X436880Y216680D01*
X434340Y211600D01*
X436880Y206520D01*
X431800Y209060D01*
X426720Y206520D01*
Y181520D02*
X429260Y186600D01*
X426720Y191680D01*
X431800Y189140D01*
X436880Y191680D01*
X434340Y186600D01*
X436880Y181520D01*
X431800Y184060D01*
X426720Y181520D01*
X294920Y294920D02*
X297460D01*
X300000Y297460D01*
X302540Y294920D01*
X305080D01*
Y297460D01*
X302540Y300000D01*
X305080Y302540D01*
Y305080D01*
X302540D01*
X300000Y302540D01*
X297460Y305080D01*
X294920D01*
Y302540D01*
X297460Y300000D01*
X294920Y297460D01*
Y294920D01*
X194920D02*
X197460D01*
X200000Y297460D01*
X202540Y294920D01*
X205080D01*
Y297460D01*
X202540Y300000D01*
X205080Y302540D01*
Y305080D01*
X202540D01*
X200000Y302540D01*
X197460Y305080D01*
X194920D01*
Y302540D01*
X197460Y300000D01*
X194920Y297460D01*
Y294920D01*
Y94920D02*
X197460D01*
X200000Y97460D01*
X202540Y94920D01*
X205080D01*
Y97460D01*
X202540Y100000D01*
X205080Y102540D01*
Y105080D01*
X202540D01*
X200000Y102540D01*
X197460Y105080D01*
X194920D01*
Y102540D01*
X197460Y100000D01*
X194920Y97460D01*
Y94920D01*
X94920Y294920D02*
X97460D01*
X100000Y297460D01*
X102540Y294920D01*
X105080D01*
Y297460D01*
X102540Y300000D01*
X105080Y302540D01*
Y305080D01*
X102540D01*
X100000Y302540D01*
X97460Y305080D01*
X94920D01*
Y302540D01*
X97460Y300000D01*
X94920Y297460D01*
Y294920D01*
Y94920D02*
X97460D01*
X100000Y97460D01*
X102540Y94920D01*
X105080D01*
Y97460D01*
X102540Y100000D01*
X105080Y102540D01*
Y105080D01*
X102540D01*
X100000Y102540D01*
X97460Y105080D01*
X94920D01*
Y102540D01*
X97460Y100000D01*
X94920Y97460D01*
Y94920D01*
X258560Y190360D02*
Y187820D01*
X263640D01*
Y190360D01*
X266180D01*
Y195440D01*
X263640D01*
Y197980D01*
X258560D01*
Y195440D01*
X256020D01*
Y190360D01*
X258560D01*
X240660Y182760D02*
Y180220D01*
X245740D01*
Y182760D01*
X248280D01*
Y187840D01*
X245740D01*
Y190380D01*
X240660D01*
Y187840D01*
X238120D01*
Y182760D01*
X240660D01*
X240760Y175360D02*
Y172820D01*
X245840D01*
Y175360D01*
X248380D01*
Y180440D01*
X245840D01*
Y182980D01*
X240760D01*
Y180440D01*
X238220D01*
Y175360D01*
X240760D01*
X155160Y184060D02*
Y181520D01*
X160240D01*
Y184060D01*
X162780D01*
Y189140D01*
X160240D01*
Y191680D01*
X155160D01*
Y189140D01*
X152620D01*
Y184060D01*
X155160D01*
X153060Y237760D02*
Y235220D01*
X158140D01*
Y237760D01*
X160680D01*
Y242840D01*
X158140D01*
Y245380D01*
X153060D01*
Y242840D01*
X150520D01*
Y237760D01*
X153060D01*
X144260Y237860D02*
Y235320D01*
X149340D01*
Y237860D01*
X151880D01*
Y242940D01*
X149340D01*
Y245480D01*
X144260D01*
Y242940D01*
X141720D01*
Y237860D01*
X144260D01*
X135660Y237760D02*
Y235220D01*
X140740D01*
Y237760D01*
X143280D01*
Y242840D01*
X140740D01*
Y245380D01*
X135660D01*
Y242840D01*
X133120D01*
Y237760D01*
X135660D01*
X385460Y184860D02*
Y182320D01*
X390540D01*
Y184860D01*
X393080D01*
Y189940D01*
X390540D01*
Y192480D01*
X385460D01*
Y189940D01*
X382920D01*
Y184860D01*
X385460D01*
X307760Y218460D02*
Y215920D01*
X312840D01*
Y218460D01*
X315380D01*
Y223540D01*
X312840D01*
Y226080D01*
X307760D01*
Y223540D01*
X305220D01*
Y218460D01*
X307760D01*
X306160Y90260D02*
Y87720D01*
X311240D01*
Y90260D01*
X313780D01*
Y95340D01*
X311240D01*
Y97880D01*
X306160D01*
Y95340D01*
X303620D01*
Y90260D01*
X306160D01*
X239384Y198560D02*
Y196020D01*
X244464D01*
Y198560D01*
X247003D01*
Y203640D01*
X244464D01*
Y206180D01*
X239384D01*
Y203640D01*
X236843D01*
Y198560D01*
X239384D01*
X566260Y212460D02*
Y209920D01*
X571340D01*
Y212460D01*
X573880D01*
Y217540D01*
X571340D01*
Y220080D01*
X566260D01*
Y217540D01*
X563720D01*
Y212460D01*
X566260D01*
X489060Y202560D02*
Y200020D01*
X494140D01*
Y202560D01*
X496680D01*
Y207640D01*
X494140D01*
Y210180D01*
X489060D01*
Y207640D01*
X486520D01*
Y202560D01*
X489060D01*
X566160Y171460D02*
Y168920D01*
X571240D01*
Y171460D01*
X573780D01*
Y176540D01*
X571240D01*
Y179080D01*
X566160D01*
Y176540D01*
X563620D01*
Y171460D01*
X566160D01*
X566560Y233060D02*
Y230520D01*
X571640D01*
Y233060D01*
X574180D01*
Y238140D01*
X571640D01*
Y240680D01*
X566560D01*
Y238140D01*
X564020D01*
Y233060D01*
X566560D01*
D52*
X80080Y75100D02*
G03*
X80080Y75100I-5080J0D01*
G01*
X330180D02*
G03*
X330180Y75100I-5080J0D01*
G01*
X330080Y325100D02*
G03*
X330080Y325100I-5080J0D01*
G01*
X80180D02*
G03*
X80180Y325100I-5080J0D01*
G01*
M02*
