%FSTAX23Y23*%
%MOIN*%
%SFA1B1*%

%IPPOS*%
%ADD9500C,0.007874*%
%ADD9501C,0.011811*%
%ADD9502C,0.028000*%
%ADD9503C,0.035433*%
%ADD9504C,0.037008*%
%ADD9505C,0.039370*%
%ADD9506C,0.043307*%
%ADD9507C,0.062992*%
%ADD9508C,0.063780*%
%ADD9509C,0.072835*%
%ADD9510C,0.078740*%
%ADD9511C,0.106299*%
%ADD9512C,0.025591*%
%ADD9513C,0.039370*%
%ADD9514C,0.129921*%
%LNmcu-roundholes-1*%
%LPD*%
G54D9500*
X02087Y00126D03*
X02142Y00125D03*
X02194Y00126D03*
X02194Y00181D03*
X02142D03*
X02141Y00235D03*
X02194D03*
X02187Y00312D03*
X02105D03*
X02087Y00236D03*
X02087Y00183D03*
X02325Y00217D03*
X02473Y0026D03*
X0267Y00238D03*
X02671Y00292D03*
X02724D03*
X02725Y00238D03*
X02781D03*
X02779Y00292D03*
X02778Y00348D03*
X02725Y00348D03*
X02671Y00348D03*
X02674Y00164D03*
Y00113D03*
X02728Y00113D03*
Y00164D03*
X0278Y00165D03*
X02781Y00114D03*
X02783Y00057D03*
X02728Y00058D03*
X02674D03*
X02988Y00101D03*
X0309Y0006D03*
X03106Y0031D03*
X03061Y00302D03*
X03007Y00301D03*
X02952Y00301D03*
X02898Y00302D03*
X02843Y00301D03*
X0239Y01509D03*
X02361D03*
X0314Y01045D03*
X03138Y01007D03*
X03182Y00892D03*
X03246Y00903D03*
X03273D03*
X03313Y00868D03*
X03333Y0092D03*
X03351Y00941D03*
X0339Y00888D03*
X03503Y00905D03*
X03504Y00992D03*
X03541Y01311D03*
X03523Y01403D03*
X03746Y01399D03*
X03824Y01275D03*
X03341Y00796D03*
X03226Y00743D03*
X03146Y00797D03*
X03348Y0047D03*
X03348Y00432D03*
X03385Y00421D03*
X0343Y00421D03*
X03468Y00433D03*
X03468Y0047D03*
X0342Y00346D03*
X03395D03*
Y00242D03*
X03369Y00242D03*
X0342Y00243D03*
X03446Y00244D03*
X03551Y00346D03*
X03256Y0035D03*
X03264Y01666D03*
X03233Y01666D03*
X03203Y01666D03*
X03172D03*
X03296Y01666D03*
X03387Y01689D03*
X03555Y01662D03*
X03589Y01609D03*
X03612Y01733D03*
X03527Y01746D03*
X03525Y01931D03*
X03743Y01925D03*
X03762Y02018D03*
X03744Y01753D03*
X03754Y01663D03*
X03746Y01603D03*
X03238Y01865D03*
X03221Y02108D03*
X03203Y02233D03*
X03164Y02247D03*
X03243Y02257D03*
X03281Y02256D03*
X0329Y02294D03*
X03289Y0237D03*
X03291Y0241D03*
X03248Y02357D03*
X03209Y02372D03*
X03163Y02368D03*
X03218Y02505D03*
X03205Y02652D03*
X0317Y0265D03*
X0324Y02645D03*
X03387Y02695D03*
X03401Y02455D03*
X034Y02195D03*
Y02152D03*
X03385Y02017D03*
X03482Y02907D03*
X03526Y02903D03*
X03532Y02941D03*
X03532Y02983D03*
X03524Y03034D03*
X03482Y03019D03*
X03391Y03026D03*
X03408Y03044D03*
X03424Y0306D03*
X03601Y03105D03*
X03601Y02977D03*
Y02953D03*
X03704Y02953D03*
Y0293D03*
Y02977D03*
X03705Y03002D03*
X036Y02818D03*
X03762Y02718D03*
X03093Y0272D03*
Y02753D03*
X03094Y02786D03*
X03066Y02816D03*
X03034Y02848D03*
X03003Y0288D03*
X02948Y02879D03*
X02903Y02877D03*
X02875Y02854D03*
X02846Y02825D03*
X02814Y02794D03*
X02783Y02763D03*
X02768Y02727D03*
X02793Y02697D03*
X02804Y02613D03*
X02847Y02613D03*
X02888Y02612D03*
X0293Y02613D03*
X02973Y02599D03*
X02991Y02557D03*
X02991Y02514D03*
X02992Y02476D03*
X02992Y02437D03*
X02958Y02411D03*
X02912Y02411D03*
X02868D03*
X02823Y02411D03*
X02778Y02412D03*
X0276Y02477D03*
X02658Y02491D03*
Y0246D03*
X02659Y02432D03*
X02662Y02405D03*
X02605Y02342D03*
X02508Y02341D03*
X02476Y02339D03*
X02422Y02364D03*
X02319Y02347D03*
X02303Y02433D03*
X02328Y02529D03*
X02328Y02555D03*
X02328Y02593D03*
X02329Y02619D03*
X02416Y02626D03*
X0244Y02628D03*
X02468Y02622D03*
X02491Y02616D03*
X02504Y02635D03*
X02503Y02693D03*
X02559Y02736D03*
X02658Y02707D03*
X02657Y02626D03*
X0266Y02566D03*
X02659Y02543D03*
X02553Y02553D03*
X02518Y0256D03*
X02498Y02553D03*
X02458Y02541D03*
X02548Y02504D03*
X02547Y02597D03*
X02546Y02858D03*
X02573Y02865D03*
X02614Y02874D03*
X02659Y02921D03*
X02719Y02944D03*
X028Y02941D03*
X02754Y02884D03*
X02737Y02867D03*
X02662Y02803D03*
X02668Y03002D03*
X02564Y02967D03*
X0253Y03033D03*
X02486Y03033D03*
X0254Y0311D03*
X02797Y03112D03*
X02837Y03095D03*
X02894Y03037D03*
X03048Y02751D03*
X03065Y02691D03*
X03034Y02661D03*
X03006Y02631D03*
X03079Y02511D03*
X03116Y02512D03*
X03122Y02367D03*
X03073Y02368D03*
X03055Y02267D03*
X0302Y02268D03*
X03048Y0222D03*
X03041Y02191D03*
X03042Y02162D03*
X03041Y02131D03*
X02951Y02318D03*
X02895Y02493D03*
Y02537D03*
X02656Y02251D03*
X02633Y02177D03*
X02668Y02124D03*
X02618Y02098D03*
X02514Y0218D03*
X02483Y0217D03*
X02485Y02263D03*
X02283Y02257D03*
X02259Y02263D03*
X02255Y02168D03*
X0222Y02169D03*
X02181Y0217D03*
X02291Y02162D03*
X02336Y0217D03*
X02407Y02098D03*
X025Y01882D03*
X02577Y01814D03*
X02668Y01881D03*
X02765Y01814D03*
X02998Y01781D03*
X03097Y01709D03*
X03094Y0187D03*
X02668Y01601D03*
X02505Y01599D03*
X02389Y01579D03*
X02362Y01578D03*
X02415Y01787D03*
X02253Y01773D03*
X02227Y01761D03*
X02228Y01804D03*
X02229Y01829D03*
X02233Y01852D03*
X02272Y0187D03*
X02189Y01803D03*
X01931Y01781D03*
X01919Y01705D03*
X01806Y02059D03*
X01781Y02035D03*
X01653Y02214D03*
X01653Y0224D03*
X0158Y02238D03*
X01581Y02358D03*
X01654Y0236D03*
Y02336D03*
X01788Y02346D03*
X02003Y02331D03*
X02082Y02339D03*
X02142Y02391D03*
X02137Y02414D03*
X02138Y02448D03*
X02138Y02472D03*
X0214Y0257D03*
X0197Y02572D03*
X01954Y02598D03*
X01983Y02614D03*
X01971Y02516D03*
X02003Y02467D03*
X02047Y02722D03*
X02035Y02748D03*
X02046Y02772D03*
X02131Y02754D03*
X02099Y0288D03*
X0218Y02872D03*
X02288Y02871D03*
X02277Y02786D03*
X02293Y02761D03*
X02435Y02821D03*
X02445Y02847D03*
X02433Y0287D03*
X02483Y02857D03*
X02518Y02869D03*
X02244Y03036D03*
X02206Y03044D03*
X02104Y03037D03*
X0207Y02978D03*
X02032Y02933D03*
X02066Y03097D03*
X02067Y03121D03*
X01825Y02818D03*
X02106Y02222D03*
X01429Y02194D03*
X01432Y02316D03*
X01484Y02874D03*
X01512Y02984D03*
X0205Y0316D03*
X02278Y03283D03*
X02312Y03284D03*
X02373Y03286D03*
X02452Y03287D03*
X02407Y03164D03*
X02546Y03198D03*
X02607Y03176D03*
X02632Y03191D03*
X02592Y03245D03*
X02797Y03138D03*
X02844Y03171D03*
X0206Y03527D03*
X02036Y03548D03*
X02009Y03527D03*
X01981Y03682D03*
X0195Y03689D03*
X01919Y0369D03*
X01924Y03779D03*
X01949Y0376D03*
X01981Y03764D03*
X03746Y032D03*
G54D9501*
X02328Y0006D03*
X02357Y00061D03*
X03027Y0057D03*
X03059Y00571D03*
X03092Y0057D03*
X03127Y0057D03*
X03162D03*
X03163Y00536D03*
Y005D03*
X03162Y00465D03*
X03166Y02912D03*
X032Y029D03*
X03238Y02901D03*
X02878Y01922D03*
X02845Y01922D03*
X02811Y01922D03*
X02811Y01886D03*
G54D9502*
X02755Y00393D03*
X02559Y00787D03*
X03543Y01181D03*
X00984Y02362D03*
X0059D03*
X00393Y01968D03*
G54D9503*
X00866Y0119D03*
X01063D03*
X01389D03*
X01586D03*
X01918Y01273D03*
Y0147D03*
G54D9504*
X00325Y02422D03*
Y02502D03*
Y02582D03*
Y02662D03*
X00395Y02702D03*
Y02622D03*
Y02542D03*
Y02462D03*
Y03235D03*
Y03315D03*
Y03395D03*
Y03475D03*
X00325Y03435D03*
Y03355D03*
Y03275D03*
Y03195D03*
X0096Y03551D03*
X0104D03*
X0112D03*
X012D03*
X0116Y03621D03*
X0108D03*
X01D03*
X0092D03*
X01684Y0362D03*
X01764D03*
X01844D03*
X01924D03*
X01964Y0355D03*
X01884D03*
X01804D03*
X01724D03*
X02518Y03555D03*
X02598D03*
X02678D03*
X02758D03*
X02718Y03625D03*
X02638D03*
X02558D03*
X02478D03*
X03249Y03618D03*
X03329D03*
X03409D03*
X03489D03*
X03529Y03548D03*
X03449D03*
X03369D03*
X03289D03*
G54D9505*
X00125Y01162D03*
X00224D03*
X00322D03*
X00421D03*
X00519D03*
X00618D03*
X02979Y01208D03*
Y01109D03*
Y01011D03*
Y00913D03*
Y00814D03*
Y01306D03*
X03631Y01114D03*
X0373D03*
X03828D03*
X03822Y00863D03*
Y00765D03*
Y00666D03*
X03822Y00448D03*
Y00349D03*
Y00251D03*
X01829Y02579D03*
X01731D03*
X01633D03*
X01629Y02825D03*
Y02923D03*
X01534Y02579D03*
X01436D03*
X01011Y02556D03*
Y02855D03*
X00972Y02267D03*
X01071D03*
X01169D03*
X01268D03*
X00874D03*
X00775D03*
X00832Y03186D03*
X0093D03*
X01029D03*
X01127D03*
X01225D03*
X01453Y03187D03*
X01552D03*
X0165D03*
X01749D03*
X01847D03*
G54D9506*
X00081Y0147D03*
X00181D03*
X00281D03*
X00381D03*
X00482Y01469D03*
X00586D03*
X00686D03*
X00786Y01468D03*
X00924Y01472D03*
X01024D03*
X01124D03*
X01224D03*
X01324Y01471D03*
X01428D03*
X01528D03*
X01628Y0147D03*
X02218Y01483D03*
Y01383D03*
Y01283D03*
Y01183D03*
X02217Y01082D03*
Y00978D03*
Y00878D03*
X02216Y00778D03*
X02816D03*
X02817Y00878D03*
Y00978D03*
Y01082D03*
X02818Y01183D03*
Y01283D03*
Y01383D03*
Y01483D03*
X01628Y0207D03*
X01528Y02071D03*
X01428D03*
X01324D03*
X01224Y02072D03*
X01124D03*
X01024D03*
X00924D03*
X00786Y02068D03*
X00686Y02069D03*
X00586D03*
X00482D03*
X00381Y0207D03*
X00281D03*
X00181D03*
X00081D03*
X03082Y03233D03*
X03182D03*
X03282D03*
X03382D03*
X03482D03*
G54D9507*
X01059Y00272D03*
Y00406D03*
X01056Y0071D03*
Y00844D03*
X01447D03*
Y0071D03*
X01449Y00406D03*
Y00272D03*
G54D9508*
X0036Y02242D03*
Y02882D03*
Y03015D03*
Y03656D03*
X0074Y03586D03*
X0138D03*
X01503Y03585D03*
X02144D03*
X02298Y0359D03*
X02938D03*
X03069Y03583D03*
X03709D03*
G54D9509*
X01888Y00092D03*
Y00277D03*
Y00462D03*
Y00619D03*
Y00804D03*
Y00989D03*
G54D9510*
X00102Y00102D03*
X03834D03*
X00102Y03834D03*
X03834D03*
G54D9511*
X00654Y00528D03*
Y00812D03*
G54D9512*
X03294Y00258D03*
X03522D03*
X03691Y02851D03*
Y03079D03*
G54D9513*
X03777Y02173D03*
Y02488D03*
G54D9514*
X00225Y02312D03*
Y02812D03*
Y03085D03*
Y03585D03*
X0081Y03721D03*
X0131D03*
X01574Y0372D03*
X02074D03*
X02368Y03725D03*
X02868D03*
X03139Y03718D03*
X03639D03*
M02*