%FSTAX23Y23*%
%MOIN*%
%SFA1B1*%

%IPPOS*%
%ADD10C,0.007874*%
%ADD11C,0.003937*%
%ADD12C,0.006000*%
%ADD13C,0.009843*%
%ADD14C,0.005000*%
%ADD15C,0.005905*%
%ADD16C,0.005905*%
%LNmcu-1*%
%LPD*%
G36*
X03071Y01558D02*
X03072D01*
Y01557*
X03071*
Y01542*
X03072*
Y01541*
X03071*
Y0154*
X0307*
Y0154*
X02986*
Y01539*
X02986*
Y01505*
X02987*
Y01504*
X03071*
Y01503*
X03072*
Y01502*
X03072*
Y01486*
X03072*
Y01485*
X03071*
Y01485*
X02981*
Y01485*
X02978*
Y01486*
X02976*
Y01487*
X02974*
Y01487*
X02974*
Y01488*
X02972*
Y01489*
X02971*
Y01489*
X0297*
Y0149*
X0297*
Y01491*
X02969*
Y01491*
X02968*
Y01493*
X02968*
Y01494*
X02967*
Y01495*
X02966*
Y0155*
X02967*
Y0155*
X02968*
Y01551*
X02968*
Y01552*
X02969*
Y01553*
X0297*
Y01554*
X0297*
Y01554*
X02971*
Y01555*
X02972*
Y01556*
X02973*
Y01556*
X02974*
Y01557*
X02975*
Y01558*
X02978*
Y01558*
X0298*
Y01559*
X02983*
Y0156*
X02988*
Y01559*
X02989*
Y01558*
X03069*
Y01559*
X0307*
Y0156*
X03071*
Y01558*
G37*
G36*
X03191Y01558D02*
X03191D01*
Y01557*
X03192*
Y01484*
X03191*
Y01483*
X03166*
Y01484*
X03164*
Y01485*
X03161*
Y01485*
X03159*
Y01486*
X03158*
Y01487*
X03157*
Y01487*
X03156*
Y01488*
X03155*
Y01489*
X03154*
Y01489*
X03154*
Y0149*
X03152*
Y01491*
X03152*
Y01491*
X03151*
Y01492*
X0315*
Y01493*
X0315*
Y01494*
X03149*
Y01495*
X03148*
Y01495*
X03148*
Y01496*
X03147*
Y01497*
X03146*
Y01498*
X03146*
Y01499*
X03145*
Y01499*
X03144*
Y015*
X03144*
Y01501*
X03143*
Y01501*
X03142*
Y01502*
X03142*
Y01503*
X03141*
Y01504*
X0314*
Y01505*
X0314*
Y01505*
X03139*
Y01506*
X03138*
Y01507*
X03138*
Y01508*
X03137*
Y01509*
X03136*
Y01509*
X03136*
Y0151*
X03135*
Y01511*
X03135*
Y01512*
X03134*
Y01513*
X03133*
Y01513*
X03133*
Y01514*
X03132*
Y01515*
X03131*
Y01515*
X03131*
Y01516*
X0313*
Y01517*
X03129*
Y01517*
X03129*
Y01519*
X03128*
Y01519*
X03127*
Y0152*
X03127*
Y01521*
X03126*
Y01522*
X03125*
Y01522*
X03125*
Y01523*
X03124*
Y01524*
X03123*
Y01524*
X03123*
Y01525*
X03122*
Y01526*
X03121*
Y01527*
X03121*
Y01528*
X0312*
Y01528*
X03119*
Y01529*
X03119*
Y0153*
X03118*
Y01531*
X03117*
Y01532*
X03116*
Y01533*
X03115*
Y01534*
X03115*
Y01534*
X03114*
Y01535*
X03113*
Y01536*
X03113*
Y01536*
X03111*
Y01537*
X03111*
Y01538*
X03109*
Y01538*
X03106*
Y01497*
Y01497*
Y01483*
X03087*
Y01485*
X03086*
Y01519*
X03086*
Y0152*
X03079*
Y01519*
X03078*
Y01519*
X03079*
Y01505*
X03078*
Y01505*
X03076*
Y01519*
X03075*
Y01519*
X03074*
Y01519*
X03073*
Y01518*
X03072*
Y01517*
X03071*
Y01517*
X0307*
Y01516*
X03069*
Y01515*
X03067*
Y01515*
X03066*
Y01514*
X03064*
Y01513*
X03062*
Y01513*
X03061*
Y01512*
X0306*
Y01511*
X03059*
Y01511*
X03058*
Y0151*
X03056*
Y01509*
X03054*
Y01509*
X03054*
Y01508*
X03053*
Y01507*
X03052*
Y01507*
X0305*
Y01506*
X03048*
Y01505*
X03048*
Y01505*
X03047*
Y01505*
X03046*
Y01506*
X03046*
Y01513*
X03046*
Y01518*
X03047*
Y01519*
X03046*
Y0152*
X03045*
Y01519*
X03043*
Y0152*
X03038*
Y01519*
X03037*
Y01515*
X03037*
Y01515*
X0299*
Y01515*
X0299*
Y01516*
X02989*
Y01528*
X0299*
Y01529*
X03037*
Y01522*
X03046*
Y01536*
X03047*
Y01537*
X03048*
Y01538*
X03048*
Y01537*
X03049*
Y01536*
X0305*
Y01536*
X03052*
Y01535*
X03053*
Y01534*
X03054*
Y01534*
X03055*
Y01533*
X03057*
Y01532*
X03058*
Y01532*
X0306*
Y01531*
X03062*
Y0153*
X03062*
Y0153*
X03064*
Y01529*
X03065*
Y01528*
X03066*
Y01528*
X03068*
Y01527*
X03068*
Y01526*
X0307*
Y01526*
X03072*
Y01525*
X03072*
Y01524*
X03074*
Y01524*
X03074*
Y01523*
X03075*
Y01524*
X03076*
Y01537*
X03079*
Y01522*
X03086*
Y01557*
X03087*
Y01558*
X03104*
Y01558*
X03105*
Y01558*
X03115*
Y01557*
X03115*
Y01556*
X03118*
Y01556*
X03119*
Y01555*
X03121*
Y01554*
X03122*
Y01554*
X03123*
Y01553*
X03123*
Y01552*
X03125*
Y01552*
X03125*
Y01551*
X03126*
Y0155*
X03127*
Y0155*
X03127*
Y01549*
X03128*
Y01548*
X03129*
Y01548*
X03129*
Y01546*
X0313*
Y01546*
X03131*
Y01545*
X03131*
Y01544*
X03132*
Y01544*
X03133*
Y01543*
X03133*
Y01542*
X03134*
Y01541*
X03135*
Y0154*
X03135*
Y0154*
X03136*
Y01539*
X03136*
Y01538*
X03137*
Y01538*
X03138*
Y01536*
X03138*
Y01536*
X03139*
Y01535*
X0314*
Y01534*
X0314*
Y01534*
X03141*
Y01533*
X03142*
Y01532*
X03142*
Y01531*
X03143*
Y0153*
X03144*
Y0153*
X03144*
Y01529*
X03145*
Y01528*
X03146*
Y01528*
X03146*
Y01527*
X03147*
Y01526*
X03148*
Y01525*
X03148*
Y01524*
X03149*
Y01524*
X0315*
Y01523*
X0315*
Y01522*
X03151*
Y01521*
X03152*
Y01521*
X03152*
Y0152*
X03153*
Y01519*
X03154*
Y01519*
X03154*
Y01518*
X03155*
Y01517*
X03156*
Y01516*
X03156*
Y01515*
X03157*
Y01515*
X03158*
Y01514*
X03158*
Y01513*
X03159*
Y01513*
X0316*
Y01512*
X0316*
Y01511*
X03161*
Y0151*
X03162*
Y01509*
X03162*
Y01509*
X03163*
Y01508*
X03164*
Y01507*
X03164*
Y01507*
X03165*
Y01506*
X03166*
Y01505*
X03166*
Y01505*
X03168*
Y01504*
X03168*
Y01503*
X03171*
Y01503*
X03172*
Y01503*
X03172*
Y01558*
X03173*
Y01558*
X03178*
Y01558*
X03186*
Y01558*
X03191*
Y01558*
G37*
G36*
X03255Y01561D02*
X03256D01*
Y0156*
X03258*
Y0156*
X0326*
Y01559*
X0326*
Y01558*
X03262*
Y01558*
X03262*
Y01557*
X03263*
Y01556*
X03264*
Y01556*
X03265*
Y01555*
X03266*
Y01554*
X03266*
Y01554*
X03267*
Y01552*
X03268*
Y01552*
X03268*
Y0155*
X03269*
Y01549*
X0327*
Y01548*
X0327*
Y01546*
X03271*
Y01542*
X03272*
Y0154*
X03271*
Y01539*
X0327*
Y01538*
X03266*
Y01483*
X03265*
Y01481*
X03246*
Y01482*
X03245*
Y01536*
X03203*
Y01538*
X03203*
Y01554*
X03203*
Y01556*
X03204*
Y01556*
X0325*
Y01556*
X0325*
Y01556*
X03251*
Y01557*
X03252*
Y01558*
X03252*
Y0156*
X03253*
Y01561*
X03254*
Y01562*
X03255*
Y01561*
G37*
G36*
X03266Y0158D02*
X03268D01*
Y01579*
X03269*
Y01579*
X0327*
Y01578*
X03272*
Y01577*
X03273*
Y01577*
X03274*
Y01576*
X03275*
Y01575*
X03276*
Y01575*
X03277*
Y01574*
X03278*
Y01573*
X03279*
Y01573*
X03279*
Y01572*
X03281*
Y01571*
X03281*
Y0157*
X03283*
Y01569*
X03283*
Y01568*
X03284*
Y01568*
X03285*
Y01567*
X03285*
Y01566*
X03286*
Y01566*
X03287*
Y01565*
X03287*
Y01564*
X03288*
Y01563*
X03289*
Y01562*
Y01562*
X03289*
Y01561*
X0329*
Y01559*
X03291*
Y01558*
X03291*
Y01557*
X03292*
Y01555*
X03293*
Y01554*
X03293*
Y01551*
X03294*
Y01549*
X03295*
Y01542*
X03295*
Y0154*
X03295*
Y01539*
X03288*
Y0154*
X03287*
Y01544*
X03286*
Y01545*
X03287*
Y01546*
X03286*
Y01548*
X03285*
Y0155*
X03285*
Y01552*
X03284*
Y01555*
X03283*
Y01556*
X03283*
Y01557*
X03282*
Y01558*
X03281*
Y01559*
X03281*
Y0156*
X0328*
Y01561*
X03279*
Y01562*
X03279*
Y01562*
X03278*
Y01563*
X03277*
Y01564*
X03277*
Y01565*
X03276*
Y01566*
X03274*
Y01567*
X03274*
Y01568*
X03272*
Y01568*
X03272*
Y01569*
X03271*
Y01569*
X0327*
Y0157*
X03269*
Y01571*
X03268*
Y01571*
X03266*
Y01572*
X03266*
Y01573*
X03263*
Y01573*
X03261*
Y01574*
X0326*
Y01575*
X03259*
Y01577*
X0326*
Y0158*
X0326*
Y01581*
X03266*
Y0158*
G37*
G36*
X0326Y01572D02*
X03262D01*
Y01571*
X03264*
Y01571*
X03265*
Y0157*
X03266*
Y01569*
X03268*
Y01569*
X03268*
Y01568*
X0327*
Y01568*
X0327*
Y01567*
X03272*
Y01566*
X03272*
Y01566*
X03273*
Y01565*
X03274*
Y01564*
X03275*
Y01564*
X03276*
Y01563*
X03276*
Y01562*
X03277*
Y01561*
X03277*
Y0156*
X03278*
Y0156*
X03279*
Y01558*
X03279*
Y01558*
X0328*
Y01557*
X03281*
Y01555*
X03281*
Y01554*
X03282*
Y01553*
X03283*
Y01551*
X03283*
Y01548*
X03284*
Y01546*
X03285*
Y0154*
X03283*
Y01539*
X03274*
Y0154*
X03273*
Y01541*
X03274*
Y01542*
X03273*
Y01545*
X03272*
Y01547*
X03272*
Y01549*
X03271*
Y0155*
X0327*
Y01551*
X0327*
Y01552*
X03269*
Y01553*
X03268*
Y01554*
X03268*
Y01555*
X03267*
Y01556*
X03266*
Y01556*
X03266*
Y01557*
X03265*
Y01558*
X03264*
Y01558*
X03263*
Y01559*
X03262*
Y0156*
X03261*
Y0156*
X0326*
Y01561*
X03258*
Y01562*
X03257*
Y01562*
X03256*
Y01563*
X03255*
Y01564*
X03254*
Y01564*
X03255*
Y01566*
X03256*
Y01568*
X03256*
Y0157*
X03257*
Y01571*
X03258*
Y01573*
X0326*
Y01572*
G37*
G36*
X0333Y01558D02*
X03415D01*
Y0154*
X03415*
Y01539*
X03414*
Y01538*
X0333*
Y01538*
X03329*
Y01504*
X0333*
Y01503*
X0333*
Y01503*
X03415*
Y01483*
X03324*
Y01484*
X03322*
Y01485*
X0332*
Y01485*
X03318*
Y01486*
X03317*
Y01487*
X03316*
Y01487*
X03315*
Y01488*
X03315*
Y01489*
X03313*
Y01489*
X03313*
Y01491*
X03312*
Y01491*
X03311*
Y01492*
X03311*
Y01494*
X0331*
Y01495*
X03309*
Y01499*
X03309*
Y01542*
X03309*
Y01546*
X0331*
Y01548*
X03311*
Y01549*
X03311*
Y0155*
X03312*
Y01551*
X03313*
Y01552*
X03313*
Y01552*
X03314*
Y01553*
X03315*
Y01554*
X03315*
Y01554*
X03317*
Y01555*
X03317*
Y01556*
X03319*
Y01556*
X03321*
Y01557*
X03323*
Y01558*
X03329*
Y01558*
X0333*
Y01558*
G37*
G36*
X03268Y01468D02*
X03269D01*
Y01466*
X03268*
Y01466*
X0327*
Y01466*
X03279*
Y01466*
X03281*
Y01466*
X03281*
Y01467*
X03282*
Y01466*
X03291*
Y01466*
X03292*
Y01465*
X03293*
Y01464*
X03293*
Y01458*
X03293*
Y01457*
X03292*
Y01456*
X03288*
Y01462*
X03285*
Y01456*
X03281*
Y01457*
X03279*
Y01456*
X0327*
Y01457*
X03268*
Y01456*
X03265*
Y01457*
X03263*
Y01456*
X0326*
Y01457*
X03258*
Y01456*
X03248*
Y01457*
X03247*
Y01456*
X03238*
Y01457*
X03236*
Y01456*
X03229*
Y01457*
X03228*
Y01462*
X03225*
Y01457*
X03224*
Y01456*
X03221*
Y01457*
X03219*
Y01456*
X03209*
Y01457*
X03208*
Y01456*
X03205*
Y01457*
X03203*
Y01458*
X03203*
Y01456*
X03199*
Y01457*
X03198*
Y01458*
X03197*
Y01457*
X03197*
Y01456*
X03193*
Y01457*
X03192*
Y01456*
X03189*
Y01457*
X03186*
Y01456*
X03183*
Y01457*
X03182*
Y01462*
X03181*
Y01458*
X03182*
Y01457*
X03181*
Y01456*
X03177*
Y01457*
X03176*
Y01456*
X03166*
Y01457*
X03165*
Y01456*
X03156*
Y01457*
X03154*
Y01456*
X03144*
Y01457*
X03142*
Y01456*
X03139*
Y01457*
X03138*
Y01456*
X03128*
Y01457*
X03127*
Y01458*
X03127*
Y01464*
X03126*
Y01464*
X03122*
Y01456*
X03118*
Y01457*
X03117*
Y01458*
X03117*
Y01459*
X03117*
Y01464*
X03117*
Y01464*
X03111*
Y01465*
X03111*
Y01468*
X03111*
Y01469*
X03128*
Y01468*
X03129*
Y01467*
X03129*
Y01466*
X03138*
Y01466*
X03138*
Y01468*
X03139*
Y01469*
X03142*
Y01468*
X03143*
Y01466*
X03154*
Y01466*
X03155*
Y01466*
X03164*
Y01466*
X03166*
Y01466*
X03176*
Y01466*
X03177*
Y01466*
X03191*
Y01466*
X03192*
Y01465*
X03193*
Y01466*
X03207*
Y01466*
X03213*
Y01462*
X03213*
Y01461*
X03215*
Y0146*
X03216*
Y01461*
X03215*
Y01462*
X03216*
Y01464*
X03215*
Y01465*
X03216*
Y01466*
X03221*
Y01466*
X03231*
Y01466*
X03232*
Y01467*
X03232*
Y01468*
X03232*
Y01469*
X03236*
Y01468*
X03237*
Y01466*
X03236*
Y01466*
X03238*
Y01466*
X03258*
Y01466*
X03258*
Y01468*
X0326*
Y01469*
X03263*
Y01468*
X03264*
Y01469*
X03268*
Y01468*
G37*
G36*
X03052D02*
X03052D01*
Y01467*
X03052*
Y01466*
X03053*
Y01466*
X03062*
Y01466*
X03063*
Y01464*
X03064*
Y01464*
X03063*
Y01463*
X03062*
Y01462*
X03062*
Y01462*
X03058*
Y01462*
X03057*
Y01462*
X03056*
Y01461*
X03057*
Y0146*
X03058*
Y01461*
X03062*
Y0146*
X03063*
Y01459*
X03064*
Y01458*
X03063*
Y01457*
X03062*
Y01456*
X03053*
Y01457*
X03052*
Y01456*
X03048*
Y01457*
X03047*
Y01456*
X03043*
Y01457*
X03042*
Y01462*
X0304*
Y01457*
X03039*
Y01456*
X03035*
Y01457*
X03034*
Y01456*
X03025*
Y01457*
X03023*
Y01458*
X03023*
Y01462*
X03021*
Y01461*
X0302*
Y01457*
X03019*
Y01456*
X03015*
Y01457*
X03014*
Y01456*
X03011*
Y01457*
X03009*
Y01456*
X03*
Y01457*
X02999*
Y01456*
X02989*
Y01457*
X02987*
Y01456*
X02968*
Y01457*
X02968*
Y01458*
X02966*
Y01468*
X02968*
Y01468*
X02968*
Y01469*
X02988*
Y01468*
X02988*
Y01466*
X02998*
Y01466*
X03*
Y01466*
X03009*
Y01467*
X0301*
Y01468*
X03011*
Y01469*
X03014*
Y01468*
X03015*
Y01467*
X03015*
Y01466*
X03023*
Y01466*
X03025*
Y01466*
X03034*
Y01466*
X03035*
Y01466*
X03046*
Y01466*
X03047*
Y01468*
X03048*
Y01469*
X03052*
Y01468*
G37*
G36*
X03391Y01468D02*
X03392D01*
Y01467*
X03393*
Y01466*
X03402*
Y01466*
X03405*
Y01466*
X03415*
Y01466*
X03415*
Y01455*
X03403*
Y01456*
X03399*
Y01457*
X03399*
Y01462*
X03396*
Y01457*
X03395*
Y01456*
X03388*
Y01457*
X03387*
Y01462*
X03385*
Y01461*
X03384*
Y0146*
X03383*
Y01456*
X0337*
Y01457*
X03369*
Y01458*
X03368*
Y01456*
X03358*
Y01457*
X03357*
Y01456*
X03353*
Y01457*
X03352*
Y01458*
X03352*
Y01462*
X03348*
Y01456*
X03341*
Y01456*
X0334*
Y01455*
X03328*
Y01456*
X03324*
Y01457*
X03324*
Y01458*
X03323*
Y01458*
X03324*
Y0146*
X03324*
Y01461*
X03324*
Y01462*
X03321*
Y01458*
X03321*
Y01457*
X0332*
Y01456*
X03301*
Y01457*
X033*
Y01458*
X03299*
Y01458*
X03299*
Y01467*
X03299*
Y01468*
X033*
Y01468*
X03301*
Y01469*
X03316*
Y01468*
X03317*
Y01467*
X03317*
Y01466*
X03327*
Y01466*
X03329*
Y01466*
X0334*
Y01468*
X0334*
Y01469*
X03344*
Y01468*
X03345*
Y01467*
X03346*
Y01466*
X03356*
Y01466*
X03356*
Y01465*
X03357*
Y01466*
X03358*
Y01466*
X03368*
Y01466*
X0337*
Y01466*
X03379*
Y01466*
X03379*
Y01465*
X0338*
Y01466*
X03381*
Y01466*
X03386*
Y01467*
X03387*
Y01468*
X03387*
Y01469*
X03391*
Y01468*
G37*
G36*
X03105D02*
X03105D01*
Y01468*
X03106*
Y0146*
X03105*
Y01458*
X03105*
Y01457*
X03103*
Y01456*
X03094*
Y01457*
X03092*
Y01456*
X03089*
Y01457*
X03088*
Y01458*
X03088*
Y01458*
Y01459*
Y01462*
X03085*
Y01457*
X03084*
Y01456*
X03081*
Y01457*
X0308*
Y01456*
X0307*
Y01457*
X03069*
Y01458*
X03068*
Y01462*
X03069*
Y01463*
X03068*
Y01466*
X03069*
Y01466*
X0308*
Y01466*
X0308*
Y01466*
X03091*
Y01466*
X03092*
Y01465*
X03093*
Y01466*
X03094*
Y01466*
X03099*
Y01467*
X031*
Y01468*
X03101*
Y01469*
X03105*
Y01468*
G37*
G36*
X03241Y01432D02*
X03241Y01432D01*
X03242Y01432*
X03242Y01432*
X03243Y01432*
X03243Y01431*
X03241Y01426*
X03241*
X03241Y01426*
X0324Y01427*
X0324Y01427*
X0324Y01427*
X0324Y01427*
X03239Y01427*
X03239*
X03239Y01427*
X03238Y01427*
X03238Y01426*
X03237Y01426*
X03237Y01426*
X03236Y01426*
X03236Y01426*
X03236Y01425*
X03235Y01425*
X03235Y01425*
X03235Y01424*
X03234Y01424*
X03234Y01423*
X03233Y01422*
Y01422*
X03233Y01422*
X03233Y01422*
X03233Y01422*
X03233Y01422*
X03233Y01422*
X03233Y01421*
X03233Y01421*
X03233Y01421*
X03233Y0142*
X03232Y0142*
X03232Y01419*
X03232Y01418*
X03232Y01418*
X03232Y01417*
X03232Y01416*
X0323Y0141*
X03224*
X03229Y01431*
X03235*
X03234Y01427*
X03234Y01427*
X03234Y01427*
X03234Y01428*
X03234Y01428*
X03234Y01428*
X03235Y01429*
X03235Y01429*
X03236Y0143*
X03236Y0143*
X03237Y0143*
X03237Y01431*
X03238Y01431*
X03238Y01432*
X03239Y01432*
X0324Y01432*
X0324Y01432*
X03241*
X03241Y01432*
G37*
G36*
X03404D02*
X03405D01*
X03405Y01432*
X03406Y01432*
X03406Y01432*
X03407Y01432*
X03408Y01431*
X03409Y01431*
X0341Y01431*
X0341Y0143*
X0341*
X0341Y0143*
X0341Y0143*
X0341Y0143*
X03411Y0143*
X03411Y01429*
X03412Y01429*
X03412Y01428*
X03413Y01427*
X03413Y01426*
X03407Y01425*
Y01425*
X03407Y01425*
X03407Y01426*
X03407Y01426*
X03407Y01426*
X03407Y01427*
X03406Y01427*
X03406Y01427*
X03406Y01427*
X03406Y01427*
X03405Y01427*
X03405Y01427*
X03405Y01428*
X03404Y01428*
X03403Y01428*
X03403Y01428*
X03402*
X03402Y01428*
X03402Y01428*
X03401Y01428*
X03401Y01428*
X034Y01427*
X034Y01427*
X034Y01427*
X034Y01427*
X034Y01427*
X034Y01427*
X03399Y01426*
X03399Y01426*
X03399Y01426*
Y01426*
Y01426*
X03399Y01425*
X03399Y01425*
X034Y01425*
X034Y01425*
X034Y01425*
X034Y01424*
X034*
X034Y01424*
X034Y01424*
X03401Y01424*
X03401Y01424*
X03401Y01424*
X03402Y01424*
X03402Y01424*
X03402Y01424*
X03403Y01423*
X03403Y01423*
X03403*
X03404Y01423*
X03404Y01423*
X03404Y01423*
X03404Y01423*
X03405Y01423*
X03406Y01422*
X03407Y01422*
X03408Y01422*
X03408Y01421*
X03409Y01421*
X03409Y01421*
X03409Y01421*
X03409*
X03409Y01421*
X0341Y0142*
X0341Y0142*
X0341Y0142*
X03411Y01419*
X03411Y01418*
X03411Y01418*
X03411Y01417*
X03411Y01417*
Y01417*
Y01416*
Y01416*
X03411Y01416*
X03411Y01416*
X03411Y01416*
X03411Y01415*
X03411Y01414*
X0341Y01414*
X0341Y01413*
X0341Y01413*
X0341Y01412*
X03409Y01412*
X03409Y01411*
X03409Y01411*
X03409Y01411*
X03408Y01411*
X03408Y01411*
X03408Y01411*
X03408Y01411*
X03407Y0141*
X03407Y0141*
X03406Y0141*
X03406Y0141*
X03405Y01409*
X03404Y01409*
X03404Y01409*
X03403Y01409*
X03402Y01409*
X03401Y01409*
X03401*
X03401Y01409*
X034*
X034Y01409*
X03399Y01409*
X03399Y01409*
X03397Y01409*
X03396Y0141*
X03395Y0141*
X03394Y0141*
X03394Y01411*
X03394Y01411*
X03394Y01411*
X03394Y01411*
X03394Y01411*
X03393Y01411*
X03393Y01412*
X03392Y01413*
X03391Y01413*
X03391Y01414*
X0339Y01416*
X03396Y01416*
X03396Y01416*
X03396Y01416*
X03397Y01416*
X03397Y01416*
X03397Y01415*
X03397Y01415*
X03398Y01414*
X03398Y01414*
X03398Y01414*
X03398Y01414*
X03399Y01414*
X03399Y01414*
X03399Y01413*
X034Y01413*
X034Y01413*
X03401Y01413*
X03401*
X03402Y01413*
X03402Y01413*
X03403Y01413*
X03403Y01414*
X03404Y01414*
X03404Y01414*
X03404Y01414*
X03404Y01414*
X03405Y01414*
X03405Y01414*
X03405Y01415*
X03405Y01415*
X03405Y01415*
X03405Y01416*
Y01416*
Y01416*
X03405Y01416*
X03405Y01416*
X03405Y01416*
X03405Y01417*
X03405Y01417*
X03405Y01417*
X03405Y01417*
X03404Y01417*
X03404Y01417*
X03404Y01417*
X03403Y01418*
X03402Y01418*
X03402Y01418*
X03402Y01418*
X03402Y01418*
X03401Y01418*
X03401Y01418*
X03401Y01418*
X034Y01419*
X03399Y01419*
X03398Y01419*
X03398Y01419*
X03397Y0142*
X03397Y0142*
X03396Y0142*
X03396Y0142*
X03396Y01421*
X03396Y01421*
X03396Y01421*
X03395Y01421*
X03395Y01421*
X03395Y01422*
X03394Y01422*
X03394Y01423*
X03394Y01424*
X03394Y01424*
X03394Y01425*
Y01425*
Y01425*
Y01425*
X03394Y01425*
X03394Y01425*
X03394Y01426*
X03394Y01426*
X03394Y01427*
X03395Y01428*
X03395Y01428*
X03395Y01429*
X03395Y01429*
X03396Y01429*
X03396Y01429*
X03396Y01429*
X03396Y0143*
X03396Y0143*
X03396Y0143*
X03397Y0143*
X03397Y0143*
X03398Y01431*
X03398Y01431*
X03399Y01431*
X03399Y01431*
X034Y01432*
X03401Y01432*
X03402Y01432*
X03403Y01432*
X03404Y01432*
X03404*
X03404Y01432*
G37*
G36*
X03356Y0142D02*
X03361Y0141D01*
X03355*
X03352Y01416*
X03347Y0141*
X03339*
X03349Y01421*
X03344Y01431*
X0335*
X03353Y01425*
X03359Y01431*
X03366*
X03356Y0142*
G37*
G36*
X03312Y0141D02*
X03306D01*
X03298Y0143*
X03294Y0141*
X03288*
X03295Y0144*
X033*
X03309Y01419*
X03313Y0144*
X03319*
X03312Y0141*
G37*
G36*
X03169D02*
X03163D01*
X03155Y0143*
X03151Y0141*
X03145*
X03151Y0144*
X03157*
X03165Y01419*
X0317Y0144*
X03176*
X03169Y0141*
G37*
G36*
X03384D02*
X03379D01*
X03379Y01412*
X03379Y01412*
X03379Y01412*
X03379Y01412*
X03379Y01412*
X03378Y01412*
X03378Y01411*
X03378Y01411*
X03377Y01411*
X03377Y0141*
X03376Y0141*
X03375Y0141*
X03375Y0141*
X03374Y01409*
X03374Y01409*
X03373Y01409*
X03372Y01409*
X03372*
X03372Y01409*
X03371Y01409*
X03371Y01409*
X0337Y01409*
X03369Y0141*
X03369Y0141*
X03368Y0141*
X03368Y01411*
X03368Y01411*
X03368Y01411*
X03367Y01412*
X03367Y01412*
X03367Y01413*
X03367Y01414*
X03367Y01415*
Y01415*
Y01415*
X03367Y01415*
X03367Y01415*
Y01416*
X03367Y01416*
X03367Y01416*
X03367Y01417*
X03367Y01417*
X03367Y01417*
X03367Y01418*
X03367Y01419*
X03367Y01419*
X0337Y01431*
X03376*
X03373Y01418*
Y01418*
X03373Y01418*
Y01418*
X03373Y01418*
X03373Y01418*
X03373Y01417*
X03373Y01417*
X03373Y01416*
X03373Y01416*
X03373Y01416*
Y01415*
Y01415*
Y01415*
X03373Y01415*
X03373Y01415*
X03373Y01415*
X03373Y01414*
X03373Y01414*
X03373Y01414*
X03373Y01414*
X03373Y01414*
X03374Y01414*
X03374Y01414*
X03374Y01413*
X03374Y01413*
X03375Y01413*
X03375Y01413*
X03375*
X03375Y01413*
X03376Y01413*
X03376Y01413*
X03376*
X03376Y01414*
X03377Y01414*
X03377Y01414*
X03377Y01414*
X03378Y01414*
X03378Y01414*
X03378Y01415*
X03378Y01415*
X03378Y01415*
X03379Y01415*
X03379Y01416*
X03379Y01416*
X03379Y01416*
X03379Y01416*
X03379Y01416*
X0338Y01417*
X0338Y01417*
X0338Y01418*
X0338Y01418*
Y01418*
X0338Y01418*
X0338Y01418*
X0338Y01419*
X0338Y01419*
X03381Y0142*
X03381Y0142*
X03381Y01421*
X03383Y01431*
X03389*
X03384Y0141*
G37*
G36*
X03218D02*
X03212D01*
X03213Y01412*
X03213Y01412*
X03213Y01412*
X03212Y01412*
X03212Y01412*
X03212Y01412*
X03212Y01411*
X03211Y01411*
X03211Y01411*
X0321Y0141*
X0321Y0141*
X03209Y0141*
X03208Y0141*
X03208Y01409*
X03207Y01409*
X03206Y01409*
X03206Y01409*
X03205*
X03205Y01409*
X03205Y01409*
X03204Y01409*
X03203Y01409*
X03203Y0141*
X03202Y0141*
X03202Y0141*
X03202Y01411*
X03201Y01411*
X03201Y01411*
X03201Y01412*
X03201Y01412*
X032Y01413*
X032Y01414*
X032Y01415*
Y01415*
Y01415*
X032Y01415*
X032Y01415*
Y01416*
X032Y01416*
X032Y01416*
X032Y01417*
X03201Y01417*
X03201Y01417*
X03201Y01418*
X03201Y01419*
X03201Y01419*
X03204Y01431*
X0321*
X03207Y01418*
Y01418*
X03207Y01418*
Y01418*
X03207Y01418*
X03207Y01418*
X03206Y01417*
X03206Y01417*
X03206Y01416*
X03206Y01416*
X03206Y01416*
Y01415*
Y01415*
Y01415*
X03206Y01415*
X03206Y01415*
X03206Y01415*
X03206Y01414*
X03207Y01414*
X03207Y01414*
X03207Y01414*
X03207Y01414*
X03207Y01414*
X03207Y01414*
X03207Y01413*
X03208Y01413*
X03208Y01413*
X03208Y01413*
X03209*
X03209Y01413*
X03209Y01413*
X0321Y01413*
X0321*
X0321Y01414*
X0321Y01414*
X0321Y01414*
X03211Y01414*
X03211Y01414*
X03211Y01414*
X03211Y01415*
X03211Y01415*
X03212Y01415*
X03212Y01415*
X03212Y01416*
X03213Y01416*
X03213Y01416*
X03213Y01416*
X03213Y01416*
X03213Y01417*
X03213Y01417*
X03213Y01418*
X03214Y01418*
Y01418*
X03214Y01418*
X03214Y01418*
X03214Y01419*
X03214Y01419*
X03214Y0142*
X03214Y0142*
X03214Y01421*
X03217Y01431*
X03223*
X03218Y0141*
G37*
G36*
X0327D02*
X03265D01*
X03271Y0144*
X03277*
X0327Y0141*
G37*
G36*
X03254Y01432D02*
X03255D01*
X03255Y01432*
X03256Y01432*
X03256Y01432*
X03257Y01432*
X03258Y01431*
X03259Y01431*
X0326Y01431*
X0326Y0143*
X0326*
X0326Y0143*
X0326Y0143*
X03261Y0143*
X03261Y01429*
X03261Y01428*
X03262Y01428*
X03262Y01427*
X03262Y01427*
X03262Y01426*
Y01426*
Y01426*
Y01426*
X03262Y01425*
Y01425*
X03262Y01425*
X03262Y01424*
Y01424*
X03262Y01424*
Y01424*
X03262Y01424*
X03262Y01423*
X03262Y01423*
X03262Y01423*
X03261Y01422*
X03261Y01422*
X03261Y01422*
X03261Y01421*
X03261Y0142*
X03261Y0142*
X03261Y01419*
X03261Y01418*
Y01418*
X03261Y01418*
X0326Y01418*
X0326Y01417*
X0326Y01417*
X0326Y01417*
X0326Y01416*
X0326Y01415*
X0326Y01414*
X0326Y01413*
X0326Y01413*
Y01413*
Y01413*
Y01412*
X0326Y01412*
X0326Y01412*
X0326Y01411*
X0326Y01411*
X0326Y0141*
X0326Y0141*
X03254*
Y0141*
X03254Y0141*
X03254Y0141*
X03254Y0141*
X03254Y01411*
X03254Y01411*
X03254Y01412*
X03254Y01412*
X03254Y01412*
X03253Y01411*
X03253Y01411*
X03253Y01411*
X03252Y0141*
X03252Y0141*
X03251Y0141*
X03251Y0141*
X03251Y0141*
X0325Y0141*
X0325Y01409*
X03249Y01409*
X03249Y01409*
X03248Y01409*
X03248Y01409*
X03247*
X03247Y01409*
X03247*
X03247Y01409*
X03246Y01409*
X03245Y01409*
X03245Y0141*
X03244Y0141*
X03243Y0141*
X03243Y01411*
Y01411*
X03243Y01411*
X03243Y01411*
X03243Y01411*
X03243Y01411*
X03242Y01412*
X03242Y01413*
X03242Y01413*
X03241Y01414*
X03241Y01415*
X03241Y01415*
Y01415*
Y01415*
Y01416*
X03241Y01416*
X03241Y01416*
X03241Y01416*
X03242Y01417*
X03242Y01418*
X03242Y01419*
X03242Y01419*
X03243Y0142*
X03243Y0142*
X03243Y0142*
X03243Y0142*
X03243Y0142*
X03243Y01421*
X03244Y01421*
X03244Y01421*
X03244Y01421*
X03244Y01421*
X03245Y01421*
X03245Y01422*
X03246Y01422*
X03246Y01422*
X03247Y01422*
X03248Y01422*
X03248Y01422*
X03249Y01423*
X0325Y01423*
X0325*
X03251Y01423*
X03251Y01423*
X03251Y01423*
X03252Y01423*
X03253Y01423*
X03253Y01423*
X03254Y01423*
X03255Y01423*
X03255Y01423*
X03256Y01423*
X03256Y01423*
Y01424*
X03256Y01424*
X03256Y01424*
X03256Y01424*
X03256Y01425*
X03256Y01425*
Y01425*
Y01425*
Y01426*
X03256Y01426*
X03256Y01426*
X03256Y01426*
X03256Y01427*
X03256Y01427*
X03255Y01427*
X03255Y01427*
X03255Y01427*
X03255Y01427*
X03255Y01427*
X03255Y01428*
X03254Y01428*
X03254Y01428*
X03253Y01428*
X03253*
X03253Y01428*
X03252Y01428*
X03252Y01428*
X03251Y01427*
X03251Y01427*
X03251Y01427*
X03251Y01427*
X03251Y01427*
X0325Y01427*
X0325Y01427*
X0325Y01426*
X0325Y01426*
X0325Y01426*
X03249Y01425*
X03244Y01426*
Y01426*
X03244Y01426*
X03244Y01426*
X03244Y01426*
X03244Y01426*
X03244Y01427*
X03244Y01427*
X03245Y01428*
X03246Y01429*
X03246Y0143*
X03247Y0143*
X03247Y0143*
X03247Y0143*
X03247Y0143*
X03248Y01431*
X03248Y01431*
X03248Y01431*
X03248Y01431*
X03249Y01431*
X03249Y01431*
X0325Y01431*
X0325Y01432*
X03251Y01432*
X03252Y01432*
X03252Y01432*
X03253Y01432*
X03254*
X03254Y01432*
G37*
G36*
X03332D02*
X03332Y01432D01*
X03333Y01432*
X03333Y01432*
X03334Y01432*
X03335Y01431*
X03335Y01431*
X03336Y01431*
X03336Y01431*
X03337Y0143*
X03337Y0143*
X03338Y01429*
X03338Y01429*
X03338Y01429*
X03338Y01429*
X03338Y01429*
X03338Y01429*
X03339Y01428*
X03339Y01428*
X03339Y01428*
X03339Y01427*
X03339Y01427*
X0334Y01426*
X0334Y01425*
X0334Y01425*
X0334Y01424*
X0334Y01423*
X0334Y01422*
Y01422*
Y01422*
Y01422*
Y01422*
X0334Y01422*
Y01421*
X0334Y01421*
X0334Y0142*
X0334Y01419*
X0334Y01419*
X03325*
Y01419*
Y01418*
X03325Y01418*
Y01418*
Y01418*
Y01418*
Y01418*
X03325Y01418*
X03325Y01417*
X03325Y01417*
X03325Y01416*
X03325Y01416*
X03326Y01415*
X03326Y01415*
X03326Y01414*
X03326Y01414*
X03327Y01414*
X03327Y01414*
X03327Y01414*
X03328Y01413*
X03329Y01413*
X03329Y01413*
X03329*
X03329Y01413*
X0333*
X0333Y01413*
X0333Y01413*
X03331Y01414*
X03331Y01414*
X03332Y01414*
X03332Y01414*
X03332Y01414*
X03333Y01415*
X03333Y01415*
X03334Y01416*
X03334Y01416*
X03339Y01415*
Y01415*
X03339Y01415*
X03339Y01415*
X03339Y01415*
X03339Y01415*
X03339Y01414*
X03338Y01414*
X03337Y01413*
X03337Y01412*
X03336Y01411*
X03335Y01411*
X03335*
X03335Y0141*
X03335Y0141*
X03335Y0141*
X03334Y0141*
X03334Y0141*
X03334Y0141*
X03333Y0141*
X03332Y01409*
X03331Y01409*
X0333Y01409*
X03329Y01409*
X03329*
X03328Y01409*
X03328Y01409*
X03328Y01409*
X03327Y01409*
X03327Y01409*
X03326Y01409*
X03326Y0141*
X03325Y0141*
X03324Y0141*
X03324Y0141*
X03323Y01411*
X03323Y01411*
X03322Y01412*
X03322Y01412*
X03322Y01412*
X03322Y01412*
X03322Y01412*
X03321Y01413*
X03321Y01413*
X03321Y01413*
X03321Y01414*
X0332Y01414*
X0332Y01415*
X0332Y01415*
X0332Y01416*
X0332Y01417*
X03319Y01417*
X03319Y01418*
X03319Y01419*
Y01419*
Y01419*
Y0142*
X03319Y0142*
X03319Y0142*
X03319Y01421*
X03319Y01421*
X0332Y01422*
X0332Y01422*
X0332Y01423*
X0332Y01424*
X0332Y01424*
X03321Y01425*
X03321Y01426*
X03321Y01427*
X03322Y01427*
X03322Y01427*
X03322Y01427*
X03322Y01428*
X03322Y01428*
X03323Y01428*
X03323Y01429*
X03324Y01429*
X03324Y0143*
X03325Y0143*
X03326Y0143*
X03326Y01431*
X03327Y01431*
X03328Y01432*
X03329Y01432*
X0333Y01432*
X03331Y01432*
X03332*
X03332Y01432*
G37*
G36*
X03189D02*
X03189Y01432D01*
X0319Y01432*
X0319Y01432*
X03191Y01432*
X03192Y01431*
X03192Y01431*
X03193Y01431*
X03193Y01431*
X03194Y0143*
X03194Y0143*
X03195Y01429*
X03195Y01429*
X03195Y01429*
X03195Y01429*
X03195Y01429*
X03195Y01429*
X03196Y01428*
X03196Y01428*
X03196Y01428*
X03196Y01427*
X03196Y01427*
X03197Y01426*
X03197Y01425*
X03197Y01425*
X03197Y01424*
X03197Y01423*
X03197Y01422*
Y01422*
Y01422*
Y01422*
Y01422*
X03197Y01422*
Y01421*
X03197Y01421*
X03197Y0142*
X03197Y01419*
X03197Y01419*
X03182*
Y01419*
Y01418*
X03182Y01418*
Y01418*
Y01418*
Y01418*
Y01418*
X03182Y01418*
X03182Y01417*
X03182Y01417*
X03182Y01416*
X03182Y01416*
X03183Y01415*
X03183Y01415*
X03183Y01414*
X03183Y01414*
X03184Y01414*
X03184Y01414*
X03184Y01414*
X03185Y01413*
X03186Y01413*
X03186Y01413*
X03186*
X03186Y01413*
X03187*
X03187Y01413*
X03187Y01413*
X03188Y01414*
X03188Y01414*
X03189Y01414*
X03189Y01414*
X03189Y01414*
X0319Y01415*
X0319Y01415*
X0319Y01416*
X03191Y01416*
X03196Y01415*
Y01415*
X03196Y01415*
X03196Y01415*
X03196Y01415*
X03196Y01415*
X03195Y01414*
X03195Y01414*
X03194Y01413*
X03194Y01412*
X03193Y01411*
X03192Y01411*
X03192*
X03192Y0141*
X03192Y0141*
X03191Y0141*
X03191Y0141*
X03191Y0141*
X03191Y0141*
X0319Y0141*
X03189Y01409*
X03188Y01409*
X03187Y01409*
X03186Y01409*
X03186*
X03185Y01409*
X03185Y01409*
X03185Y01409*
X03184Y01409*
X03184Y01409*
X03183Y01409*
X03182Y0141*
X03182Y0141*
X03181Y0141*
X03181Y0141*
X0318Y01411*
X0318Y01411*
X03179Y01412*
X03179Y01412*
X03179Y01412*
X03179Y01412*
X03179Y01412*
X03178Y01413*
X03178Y01413*
X03178Y01413*
X03178Y01414*
X03177Y01414*
X03177Y01415*
X03177Y01415*
X03177Y01416*
X03176Y01417*
X03176Y01417*
X03176Y01418*
X03176Y01419*
Y01419*
Y01419*
Y0142*
X03176Y0142*
X03176Y0142*
X03176Y01421*
X03176Y01421*
X03177Y01422*
X03177Y01422*
X03177Y01423*
X03177Y01424*
X03177Y01424*
X03178Y01425*
X03178Y01426*
X03178Y01427*
X03179Y01427*
X03179Y01427*
X03179Y01427*
X03179Y01428*
X03179Y01428*
X0318Y01428*
X0318Y01429*
X03181Y01429*
X03181Y0143*
X03182Y0143*
X03183Y0143*
X03183Y01431*
X03184Y01431*
X03185Y01432*
X03186Y01432*
X03187Y01432*
X03188Y01432*
X03189*
X03189Y01432*
G37*
%LNmcu-2*%
%LPC*%
G36*
X03164Y01462D02*
X03163D01*
Y01462*
X0316*
Y01462*
X0316*
Y01462*
X03159*
Y01461*
X03164*
Y01462*
X03164*
Y01462*
G37*
G36*
X03246Y01462D02*
X03242D01*
Y01461*
X03246*
Y01462*
G37*
G36*
X03275Y01462D02*
X03274D01*
Y01462*
X03274*
Y01461*
X03274*
Y0146*
X03275*
Y01461*
X03276*
Y01462*
X03275*
Y01462*
G37*
G36*
X03171D02*
X0317D01*
Y01462*
X0317*
Y01461*
X0317*
Y0146*
X03171*
Y01461*
X03172*
Y01462*
X03171*
Y01462*
G37*
G36*
X03198Y01461D02*
X03197D01*
Y0146*
Y01458*
X03198*
Y01461*
G37*
G36*
X03029Y01462D02*
X03029D01*
Y01462*
X03028*
Y01461*
X03029*
Y0146*
X03029*
Y01461*
X03031*
Y01462*
X03029*
Y01462*
G37*
G36*
X03005D02*
X03004D01*
Y01462*
X03003*
Y01461*
X03004*
Y0146*
X03005*
Y01461*
X03009*
Y0146*
X0301*
Y01462*
X03005*
Y01462*
G37*
G36*
X03015Y01461D02*
X03014D01*
Y0146*
X03015*
Y01461*
G37*
G36*
X03099Y01462D02*
X03098D01*
Y01462*
X03097*
Y01461*
X03098*
Y0146*
X03099*
Y01461*
X03099*
Y01462*
G37*
G36*
X03255Y0142D02*
X03255D01*
X03255Y0142*
X03255*
X03255Y0142*
X03255Y0142*
X03254Y0142*
X03254Y01419*
X03254*
X03253Y01419*
X03253*
X03253Y01419*
X03253Y01419*
X03252Y01419*
X03251Y01419*
X0325Y01419*
X03249Y01419*
X03249Y01418*
X03248Y01418*
X03248Y01418*
X03248Y01418*
X03248Y01418*
X03248Y01418*
X03248Y01418*
X03247Y01417*
X03247Y01417*
X03247Y01417*
X03247Y01416*
X03247Y01416*
Y01416*
Y01416*
X03247Y01416*
X03247Y01415*
X03247Y01415*
X03247Y01415*
X03247Y01414*
X03248Y01414*
X03248Y01414*
X03248Y01414*
X03248Y01414*
X03248Y01414*
X03248Y01414*
X03249Y01414*
X03249Y01413*
X0325Y01413*
X0325*
X0325Y01413*
X0325Y01413*
X03251Y01414*
X03251Y01414*
X03252Y01414*
X03252Y01414*
X03252Y01414*
X03252Y01414*
X03252Y01414*
X03253Y01414*
X03253Y01415*
X03253Y01415*
X03254Y01415*
X03254Y01416*
X03254Y01416*
X03254Y01416*
X03254Y01416*
X03254Y01416*
X03254Y01417*
X03255Y01418*
X03255Y01418*
X03255Y01419*
X03255Y0142*
G37*
G36*
X03331Y01428D02*
X03331D01*
X03331Y01428*
X0333Y01428*
X0333Y01428*
X03329Y01427*
X03329Y01427*
X03328Y01427*
X03328Y01426*
X03327Y01426*
X03327Y01426*
X03327Y01426*
X03327Y01425*
X03326Y01425*
X03326Y01424*
X03326Y01423*
X03326Y01422*
X03335*
Y01422*
Y01422*
Y01423*
Y01423*
Y01423*
Y01423*
Y01423*
Y01423*
X03335Y01424*
X03335Y01424*
X03335Y01425*
X03334Y01425*
X03334Y01426*
X03334Y01426*
X03334Y01427*
X03334Y01427*
X03333Y01427*
X03333Y01427*
X03333Y01427*
X03332Y01428*
X03331Y01428*
X03331Y01428*
G37*
G36*
X03188D02*
X03188D01*
X03187Y01428*
X03187Y01428*
X03187Y01428*
X03186Y01427*
X03186Y01427*
X03185Y01427*
X03184Y01426*
X03184Y01426*
X03184Y01426*
X03184Y01426*
X03184Y01425*
X03183Y01425*
X03183Y01424*
X03183Y01423*
X03183Y01422*
X03192*
Y01422*
Y01422*
Y01423*
Y01423*
Y01423*
Y01423*
Y01423*
Y01423*
X03192Y01424*
X03192Y01424*
X03192Y01425*
X03191Y01425*
X03191Y01426*
X03191Y01426*
X03191Y01427*
X0319Y01427*
X0319Y01427*
X0319Y01427*
X0319Y01427*
X03189Y01428*
X03188Y01428*
X03188Y01428*
G37*
%LNmcu-3*%
%LPD*%
G54D10*
X02362Y00296D02*
D01*
X02362Y00297*
X02362Y00297*
X02362Y00297*
X02362Y00297*
X02361Y00298*
X02361Y00298*
X02361Y00298*
X02361Y00298*
X02361Y00299*
X02361Y00299*
X02361Y00299*
X0236Y00299*
X0236Y00299*
X0236Y003*
X0236Y003*
X02359Y003*
X02359Y003*
X02359Y003*
X02359Y003*
X02358Y003*
X02358Y003*
X02358Y003*
X02358*
X02357Y003*
X02357Y003*
X02357Y003*
X02357Y003*
X02356Y003*
X02356Y003*
X02356Y003*
X02356Y003*
X02355Y00299*
X02355Y00299*
X02355Y00299*
X02355Y00299*
X02355Y00299*
X02354Y00298*
X02354Y00298*
X02354Y00298*
X02354Y00298*
X02354Y00297*
X02354Y00297*
X02354Y00297*
X02354Y00297*
X02354Y00296*
X02354Y00296*
X02354Y00296*
X02354Y00296*
X02354Y00295*
X02354Y00295*
X02354Y00295*
X02354Y00295*
X02354Y00294*
X02355Y00294*
X02355Y00294*
X02355Y00294*
X02355Y00293*
X02355Y00293*
X02356Y00293*
X02356Y00293*
X02356Y00293*
X02356Y00293*
X02357Y00293*
X02357Y00293*
X02357Y00292*
X02357Y00292*
X02358Y00292*
X02358*
X02358Y00292*
X02358Y00292*
X02359Y00293*
X02359Y00293*
X02359Y00293*
X02359Y00293*
X0236Y00293*
X0236Y00293*
X0236Y00293*
X0236Y00293*
X02361Y00294*
X02361Y00294*
X02361Y00294*
X02361Y00294*
X02361Y00295*
X02361Y00295*
X02361Y00295*
X02362Y00295*
X02362Y00296*
X02362Y00296*
X02362Y00296*
X02362Y00296*
X03214Y00897D02*
D01*
X03214Y00897*
X03214Y00897*
X03214Y00898*
X03214Y00898*
X03213Y00898*
X03213Y00898*
X03213Y00899*
X03213Y00899*
X03213Y00899*
X03213Y00899*
X03213Y00899*
X03212Y009*
X03212Y009*
X03212Y009*
X03212Y009*
X03211Y009*
X03211Y009*
X03211Y009*
X03211Y00901*
X0321Y00901*
X0321Y00901*
X0321Y00901*
X0321*
X03209Y00901*
X03209Y00901*
X03209Y00901*
X03209Y009*
X03208Y009*
X03208Y009*
X03208Y009*
X03208Y009*
X03207Y009*
X03207Y009*
X03207Y00899*
X03207Y00899*
X03207Y00899*
X03206Y00899*
X03206Y00899*
X03206Y00898*
X03206Y00898*
X03206Y00898*
X03206Y00898*
X03206Y00897*
X03206Y00897*
X03206Y00897*
X03206Y00896*
X03206Y00896*
X03206Y00896*
X03206Y00896*
X03206Y00895*
X03206Y00895*
X03206Y00895*
X03206Y00895*
X03207Y00894*
X03207Y00894*
X03207Y00894*
X03207Y00894*
X03207Y00894*
X03208Y00893*
X03208Y00893*
X03208Y00893*
X03208Y00893*
X03209Y00893*
X03209Y00893*
X03209Y00893*
X03209Y00893*
X0321Y00893*
X0321*
X0321Y00893*
X0321Y00893*
X03211Y00893*
X03211Y00893*
X03211Y00893*
X03211Y00893*
X03212Y00893*
X03212Y00893*
X03212Y00894*
X03212Y00894*
X03213Y00894*
X03213Y00894*
X03213Y00894*
X03213Y00895*
X03213Y00895*
X03213Y00895*
X03213Y00895*
X03214Y00896*
X03214Y00896*
X03214Y00896*
X03214Y00896*
X03214Y00897*
X03603Y02837D02*
D01*
X03603Y02837*
X03603Y02837*
X03603Y02838*
X03603Y02838*
X03603Y02838*
X03603Y02839*
X03603Y02839*
X03603Y02839*
X03603Y02839*
X03603Y02839*
X03602Y0284*
X03602Y0284*
X03602Y0284*
X03602Y0284*
X03601Y0284*
X03601Y0284*
X03601Y02841*
X03601Y02841*
X036Y02841*
X036Y02841*
X036Y02841*
X036Y02841*
X03599*
X03599Y02841*
X03599Y02841*
X03599Y02841*
X03598Y02841*
X03598Y02841*
X03598Y0284*
X03598Y0284*
X03597Y0284*
X03597Y0284*
X03597Y0284*
X03597Y0284*
X03596Y02839*
X03596Y02839*
X03596Y02839*
X03596Y02839*
X03596Y02839*
X03596Y02838*
X03596Y02838*
X03596Y02838*
X03596Y02837*
X03596Y02837*
X03596Y02837*
X03596Y02837*
X03596Y02836*
X03596Y02836*
X03596Y02836*
X03596Y02836*
X03596Y02835*
X03596Y02835*
X03596Y02835*
X03596Y02835*
X03596Y02834*
X03597Y02834*
X03597Y02834*
X03597Y02834*
X03597Y02834*
X03598Y02833*
X03598Y02833*
X03598Y02833*
X03598Y02833*
X03599Y02833*
X03599Y02833*
X03599Y02833*
X03599Y02833*
X036*
X036Y02833*
X036Y02833*
X036Y02833*
X03601Y02833*
X03601Y02833*
X03601Y02833*
X03601Y02833*
X03602Y02834*
X03602Y02834*
X03602Y02834*
X03602Y02834*
X03603Y02834*
X03603Y02835*
X03603Y02835*
X03603Y02835*
X03603Y02835*
X03603Y02836*
X03603Y02836*
X03603Y02836*
X03603Y02836*
X03603Y02837*
X03603Y02837*
X03284Y00349D02*
D01*
X03284Y00349*
X03284Y00349*
X03284Y0035*
X03284Y0035*
X03284Y0035*
X03283Y00351*
X03283Y00351*
X03283Y00351*
X03283Y00351*
X03283Y00351*
X03283Y00352*
X03282Y00352*
X03282Y00352*
X03282Y00352*
X03282Y00352*
X03282Y00352*
X03281Y00353*
X03281Y00353*
X03281Y00353*
X0328Y00353*
X0328Y00353*
X0328Y00353*
X0328*
X03279Y00353*
X03279Y00353*
X03279Y00353*
X03279Y00353*
X03278Y00353*
X03278Y00352*
X03278Y00352*
X03278Y00352*
X03277Y00352*
X03277Y00352*
X03277Y00352*
X03277Y00351*
X03277Y00351*
X03276Y00351*
X03276Y00351*
X03276Y00351*
X03276Y0035*
X03276Y0035*
X03276Y0035*
X03276Y00349*
X03276Y00349*
X03276Y00349*
X03276Y00349*
X03276Y00348*
X03276Y00348*
X03276Y00348*
X03276Y00348*
X03276Y00347*
X03276Y00347*
X03276Y00347*
X03277Y00347*
X03277Y00346*
X03277Y00346*
X03277Y00346*
X03277Y00346*
X03278Y00346*
X03278Y00345*
X03278Y00345*
X03278Y00345*
X03279Y00345*
X03279Y00345*
X03279Y00345*
X03279Y00345*
X0328Y00345*
X0328*
X0328Y00345*
X0328Y00345*
X03281Y00345*
X03281Y00345*
X03281Y00345*
X03282Y00345*
X03282Y00345*
X03282Y00346*
X03282Y00346*
X03282Y00346*
X03283Y00346*
X03283Y00346*
X03283Y00347*
X03283Y00347*
X03283Y00347*
X03283Y00347*
X03284Y00348*
X03284Y00348*
X03284Y00348*
X03284Y00348*
X03284Y00349*
X03284Y00349*
X02887Y02831D02*
D01*
X02887Y02831*
X02887Y02831*
X02887Y02831*
X02887Y02832*
X02887Y02832*
X02887Y02832*
X02886Y02832*
X02886Y02833*
X02886Y02833*
X02886Y02833*
X02886Y02833*
X02886Y02834*
X02885Y02834*
X02885Y02834*
X02885Y02834*
X02885Y02834*
X02884Y02834*
X02884Y02834*
X02884Y02834*
X02884Y02834*
X02883Y02835*
X02883Y02835*
X02883*
X02883Y02835*
X02882Y02834*
X02882Y02834*
X02882Y02834*
X02882Y02834*
X02881Y02834*
X02881Y02834*
X02881Y02834*
X02881Y02834*
X0288Y02834*
X0288Y02833*
X0288Y02833*
X0288Y02833*
X0288Y02833*
X0288Y02832*
X02879Y02832*
X02879Y02832*
X02879Y02832*
X02879Y02831*
X02879Y02831*
X02879Y02831*
X02879Y02831*
X02879Y0283*
X02879Y0283*
X02879Y0283*
X02879Y0283*
X02879Y02829*
X02879Y02829*
X0288Y02829*
X0288Y02829*
X0288Y02828*
X0288Y02828*
X0288Y02828*
X0288Y02828*
X02881Y02828*
X02881Y02827*
X02881Y02827*
X02881Y02827*
X02882Y02827*
X02882Y02827*
X02882Y02827*
X02882Y02827*
X02883Y02827*
X02883Y02827*
X02883*
X02883Y02827*
X02884Y02827*
X02884Y02827*
X02884Y02827*
X02884Y02827*
X02885Y02827*
X02885Y02827*
X02885Y02827*
X02885Y02828*
X02886Y02828*
X02886Y02828*
X02886Y02828*
X02886Y02828*
X02886Y02829*
X02886Y02829*
X02887Y02829*
X02887Y02829*
X02887Y0283*
X02887Y0283*
X02887Y0283*
X02887Y0283*
X02887Y02831*
X0069Y02552D02*
D01*
X0069Y02553*
X0069Y02553*
X0069Y02553*
X0069Y02554*
X00689Y02554*
X00689Y02554*
X00689Y02554*
X00689Y02555*
X00689Y02555*
X00689Y02555*
X00689Y02555*
X00688Y02555*
X00688Y02556*
X00688Y02556*
X00688Y02556*
X00687Y02556*
X00687Y02556*
X00687Y02556*
X00687Y02556*
X00686Y02556*
X00686Y02556*
X00686Y02556*
X00686*
X00685Y02556*
X00685Y02556*
X00685Y02556*
X00685Y02556*
X00684Y02556*
X00684Y02556*
X00684Y02556*
X00684Y02556*
X00683Y02556*
X00683Y02555*
X00683Y02555*
X00683Y02555*
X00683Y02555*
X00682Y02555*
X00682Y02554*
X00682Y02554*
X00682Y02554*
X00682Y02554*
X00682Y02553*
X00682Y02553*
X00682Y02553*
X00682Y02552*
X00682Y02552*
X00682Y02552*
X00682Y02552*
X00682Y02551*
X00682Y02551*
X00682Y02551*
X00682Y02551*
X00682Y0255*
X00683Y0255*
X00683Y0255*
X00683Y0255*
X00683Y0255*
X00683Y02549*
X00684Y02549*
X00684Y02549*
X00684Y02549*
X00684Y02549*
X00685Y02549*
X00685Y02549*
X00685Y02549*
X00685Y02549*
X00686Y02549*
X00686*
X00686Y02549*
X00686Y02549*
X00687Y02549*
X00687Y02549*
X00687Y02549*
X00687Y02549*
X00688Y02549*
X00688Y02549*
X00688Y02549*
X00688Y0255*
X00689Y0255*
X00689Y0255*
X00689Y0255*
X00689Y0255*
X00689Y02551*
X00689Y02551*
X00689Y02551*
X0069Y02551*
X0069Y02552*
X0069Y02552*
X0069Y02552*
X0069Y02552*
X01771Y02736D02*
D01*
X01771Y02736*
X01771Y02736*
X0177Y02737*
X0177Y02737*
X0177Y02737*
X0177Y02737*
X0177Y02738*
X0177Y02738*
X0177Y02738*
X0177Y02738*
X01769Y02738*
X01769Y02739*
X01769Y02739*
X01769Y02739*
X01769Y02739*
X01768Y02739*
X01768Y02739*
X01768Y02739*
X01768Y0274*
X01767Y0274*
X01767Y0274*
X01767Y0274*
X01766*
X01766Y0274*
X01766Y0274*
X01766Y0274*
X01765Y02739*
X01765Y02739*
X01765Y02739*
X01765Y02739*
X01764Y02739*
X01764Y02739*
X01764Y02739*
X01764Y02738*
X01764Y02738*
X01763Y02738*
X01763Y02738*
X01763Y02738*
X01763Y02737*
X01763Y02737*
X01763Y02737*
X01763Y02737*
X01763Y02736*
X01763Y02736*
X01763Y02736*
X01763Y02735*
X01763Y02735*
X01763Y02735*
X01763Y02735*
X01763Y02734*
X01763Y02734*
X01763Y02734*
X01763Y02734*
X01763Y02733*
X01764Y02733*
X01764Y02733*
X01764Y02733*
X01764Y02733*
X01764Y02732*
X01765Y02732*
X01765Y02732*
X01765Y02732*
X01765Y02732*
X01766Y02732*
X01766Y02732*
X01766Y02732*
X01766Y02732*
X01767*
X01767Y02732*
X01767Y02732*
X01768Y02732*
X01768Y02732*
X01768Y02732*
X01768Y02732*
X01769Y02732*
X01769Y02732*
X01769Y02733*
X01769Y02733*
X01769Y02733*
X0177Y02733*
X0177Y02733*
X0177Y02734*
X0177Y02734*
X0177Y02734*
X0177Y02734*
X0177Y02735*
X0177Y02735*
X01771Y02735*
X01771Y02735*
X01771Y02736*
X03172Y02967D02*
D01*
X03172Y02967*
X03172Y02968*
X03172Y02968*
X03172Y02968*
X03172Y02969*
X03172Y02969*
X03172Y02969*
X03172Y02969*
X03172Y0297*
X03171Y0297*
X03171Y0297*
X03171Y0297*
X03171Y0297*
X03171Y0297*
X0317Y02971*
X0317Y02971*
X0317Y02971*
X0317Y02971*
X03169Y02971*
X03169Y02971*
X03169Y02971*
X03169Y02971*
X03168*
X03168Y02971*
X03168Y02971*
X03167Y02971*
X03167Y02971*
X03167Y02971*
X03167Y02971*
X03166Y02971*
X03166Y0297*
X03166Y0297*
X03166Y0297*
X03166Y0297*
X03165Y0297*
X03165Y0297*
X03165Y02969*
X03165Y02969*
X03165Y02969*
X03165Y02969*
X03165Y02968*
X03165Y02968*
X03164Y02968*
X03164Y02967*
X03164Y02967*
X03164Y02967*
X03164Y02967*
X03165Y02966*
X03165Y02966*
X03165Y02966*
X03165Y02966*
X03165Y02965*
X03165Y02965*
X03165Y02965*
X03165Y02965*
X03166Y02964*
X03166Y02964*
X03166Y02964*
X03166Y02964*
X03166Y02964*
X03167Y02964*
X03167Y02964*
X03167Y02963*
X03167Y02963*
X03168Y02963*
X03168Y02963*
X03168Y02963*
X03169*
X03169Y02963*
X03169Y02963*
X03169Y02963*
X0317Y02963*
X0317Y02964*
X0317Y02964*
X0317Y02964*
X03171Y02964*
X03171Y02964*
X03171Y02964*
X03171Y02964*
X03171Y02965*
X03172Y02965*
X03172Y02965*
X03172Y02965*
X03172Y02966*
X03172Y02966*
X03172Y02966*
X03172Y02966*
X03172Y02967*
X03172Y02967*
X03172Y02967*
X03409Y00741D02*
D01*
X03409Y00741*
X03409Y00741*
X03409Y00742*
X03409Y00742*
X03409Y00742*
X03409Y00742*
X03408Y00743*
X03408Y00743*
X03408Y00743*
X03408Y00743*
X03408Y00744*
X03408Y00744*
X03407Y00744*
X03407Y00744*
X03407Y00744*
X03407Y00744*
X03406Y00744*
X03406Y00745*
X03406Y00745*
X03406Y00745*
X03405Y00745*
X03405Y00745*
X03405*
X03405Y00745*
X03404Y00745*
X03404Y00745*
X03404Y00745*
X03404Y00744*
X03403Y00744*
X03403Y00744*
X03403Y00744*
X03403Y00744*
X03402Y00744*
X03402Y00744*
X03402Y00743*
X03402Y00743*
X03402Y00743*
X03402Y00743*
X03401Y00742*
X03401Y00742*
X03401Y00742*
X03401Y00742*
X03401Y00741*
X03401Y00741*
X03401Y00741*
X03401Y00741*
X03401Y0074*
X03401Y0074*
X03401Y0074*
X03401Y00739*
X03401Y00739*
X03402Y00739*
X03402Y00739*
X03402Y00739*
X03402Y00738*
X03402Y00738*
X03402Y00738*
X03403Y00738*
X03403Y00738*
X03403Y00737*
X03403Y00737*
X03404Y00737*
X03404Y00737*
X03404Y00737*
X03404Y00737*
X03405Y00737*
X03405Y00737*
X03405*
X03405Y00737*
X03406Y00737*
X03406Y00737*
X03406Y00737*
X03406Y00737*
X03407Y00737*
X03407Y00737*
X03407Y00738*
X03407Y00738*
X03408Y00738*
X03408Y00738*
X03408Y00738*
X03408Y00739*
X03408Y00739*
X03408Y00739*
X03409Y00739*
X03409Y00739*
X03409Y0074*
X03409Y0074*
X03409Y0074*
X03409Y00741*
X03409Y00741*
X014Y02267D02*
D01*
X01399Y02267*
X01399Y02267*
X01399Y02268*
X01399Y02268*
X01399Y02268*
X01399Y02268*
X01399Y02269*
X01399Y02269*
X01399Y02269*
X01399Y02269*
X01398Y0227*
X01398Y0227*
X01398Y0227*
X01398Y0227*
X01398Y0227*
X01397Y0227*
X01397Y0227*
X01397Y02271*
X01397Y02271*
X01396Y02271*
X01396Y02271*
X01396Y02271*
X01395*
X01395Y02271*
X01395Y02271*
X01395Y02271*
X01394Y02271*
X01394Y0227*
X01394Y0227*
X01394Y0227*
X01393Y0227*
X01393Y0227*
X01393Y0227*
X01393Y0227*
X01393Y02269*
X01392Y02269*
X01392Y02269*
X01392Y02269*
X01392Y02268*
X01392Y02268*
X01392Y02268*
X01392Y02268*
X01392Y02267*
X01392Y02267*
X01392Y02267*
X01392Y02267*
X01392Y02266*
X01392Y02266*
X01392Y02266*
X01392Y02265*
X01392Y02265*
X01392Y02265*
X01392Y02265*
X01392Y02265*
X01393Y02264*
X01393Y02264*
X01393Y02264*
X01393Y02264*
X01393Y02264*
X01394Y02263*
X01394Y02263*
X01394Y02263*
X01394Y02263*
X01395Y02263*
X01395Y02263*
X01395Y02263*
X01395Y02263*
X01396*
X01396Y02263*
X01396Y02263*
X01397Y02263*
X01397Y02263*
X01397Y02263*
X01397Y02263*
X01398Y02263*
X01398Y02264*
X01398Y02264*
X01398Y02264*
X01398Y02264*
X01399Y02264*
X01399Y02265*
X01399Y02265*
X01399Y02265*
X01399Y02265*
X01399Y02265*
X01399Y02266*
X01399Y02266*
X01399Y02266*
X01399Y02267*
X014Y02267*
X0075Y01162D02*
D01*
X00749Y01162*
X00749Y01163*
X00749Y01163*
X00749Y01163*
X00749Y01163*
X00749Y01164*
X00749Y01164*
X00749Y01164*
X00749Y01164*
X00749Y01165*
X00748Y01165*
X00748Y01165*
X00748Y01165*
X00748Y01165*
X00748Y01166*
X00747Y01166*
X00747Y01166*
X00747Y01166*
X00747Y01166*
X00746Y01166*
X00746Y01166*
X00746Y01166*
X00745*
X00745Y01166*
X00745Y01166*
X00745Y01166*
X00744Y01166*
X00744Y01166*
X00744Y01166*
X00744Y01166*
X00743Y01165*
X00743Y01165*
X00743Y01165*
X00743Y01165*
X00743Y01165*
X00742Y01164*
X00742Y01164*
X00742Y01164*
X00742Y01164*
X00742Y01163*
X00742Y01163*
X00742Y01163*
X00742Y01163*
X00742Y01162*
X00742Y01162*
X00742Y01162*
X00742Y01162*
X00742Y01161*
X00742Y01161*
X00742Y01161*
X00742Y0116*
X00742Y0116*
X00742Y0116*
X00742Y0116*
X00743Y0116*
X00743Y01159*
X00743Y01159*
X00743Y01159*
X00743Y01159*
X00744Y01159*
X00744Y01159*
X00744Y01158*
X00744Y01158*
X00745Y01158*
X00745Y01158*
X00745Y01158*
X00745Y01158*
X00746*
X00746Y01158*
X00746Y01158*
X00747Y01158*
X00747Y01158*
X00747Y01158*
X00747Y01159*
X00748Y01159*
X00748Y01159*
X00748Y01159*
X00748Y01159*
X00748Y01159*
X00749Y0116*
X00749Y0116*
X00749Y0116*
X00749Y0116*
X00749Y0116*
X00749Y01161*
X00749Y01161*
X00749Y01161*
X00749Y01162*
X00749Y01162*
X0075Y01162*
X02983Y00686D02*
D01*
X02983Y00686*
X02983Y00687*
X02983Y00687*
X02983Y00687*
X02983Y00688*
X02982Y00688*
X02982Y00688*
X02982Y00688*
X02982Y00688*
X02982Y00689*
X02982Y00689*
X02982Y00689*
X02981Y00689*
X02981Y00689*
X02981Y0069*
X02981Y0069*
X0298Y0069*
X0298Y0069*
X0298Y0069*
X0298Y0069*
X02979Y0069*
X02979Y0069*
X02979*
X02978Y0069*
X02978Y0069*
X02978Y0069*
X02978Y0069*
X02977Y0069*
X02977Y0069*
X02977Y0069*
X02977Y00689*
X02976Y00689*
X02976Y00689*
X02976Y00689*
X02976Y00689*
X02976Y00688*
X02976Y00688*
X02975Y00688*
X02975Y00688*
X02975Y00688*
X02975Y00687*
X02975Y00687*
X02975Y00687*
X02975Y00686*
X02975Y00686*
X02975Y00686*
X02975Y00686*
X02975Y00685*
X02975Y00685*
X02975Y00685*
X02975Y00685*
X02975Y00684*
X02976Y00684*
X02976Y00684*
X02976Y00684*
X02976Y00683*
X02976Y00683*
X02976Y00683*
X02977Y00683*
X02977Y00683*
X02977Y00683*
X02977Y00683*
X02978Y00682*
X02978Y00682*
X02978Y00682*
X02978Y00682*
X02979Y00682*
X02979*
X02979Y00682*
X0298Y00682*
X0298Y00682*
X0298Y00682*
X0298Y00683*
X02981Y00683*
X02981Y00683*
X02981Y00683*
X02981Y00683*
X02982Y00683*
X02982Y00683*
X02982Y00684*
X02982Y00684*
X02982Y00684*
X02982Y00684*
X02982Y00685*
X02983Y00685*
X02983Y00685*
X02983Y00685*
X02983Y00686*
X02983Y00686*
X02983Y00686*
X0305Y03198D02*
D01*
X0305Y03198*
X0305Y03198*
X0305Y03198*
X0305Y03199*
X0305Y03199*
X0305Y03199*
X03049Y03199*
X03049Y032*
X03049Y032*
X03049Y032*
X03049Y032*
X03049Y032*
X03048Y03201*
X03048Y03201*
X03048Y03201*
X03048Y03201*
X03047Y03201*
X03047Y03201*
X03047Y03201*
X03047Y03201*
X03046Y03201*
X03046Y03201*
X03046*
X03046Y03201*
X03045Y03201*
X03045Y03201*
X03045Y03201*
X03044Y03201*
X03044Y03201*
X03044Y03201*
X03044Y03201*
X03044Y03201*
X03043Y032*
X03043Y032*
X03043Y032*
X03043Y032*
X03043Y032*
X03042Y03199*
X03042Y03199*
X03042Y03199*
X03042Y03199*
X03042Y03198*
X03042Y03198*
X03042Y03198*
X03042Y03198*
X03042Y03197*
X03042Y03197*
X03042Y03197*
X03042Y03196*
X03042Y03196*
X03042Y03196*
X03042Y03196*
X03043Y03195*
X03043Y03195*
X03043Y03195*
X03043Y03195*
X03043Y03195*
X03044Y03194*
X03044Y03194*
X03044Y03194*
X03044Y03194*
X03044Y03194*
X03045Y03194*
X03045Y03194*
X03045Y03194*
X03046Y03194*
X03046Y03194*
X03046*
X03046Y03194*
X03047Y03194*
X03047Y03194*
X03047Y03194*
X03047Y03194*
X03048Y03194*
X03048Y03194*
X03048Y03194*
X03048Y03194*
X03049Y03195*
X03049Y03195*
X03049Y03195*
X03049Y03195*
X03049Y03195*
X03049Y03196*
X0305Y03196*
X0305Y03196*
X0305Y03196*
X0305Y03197*
X0305Y03197*
X0305Y03197*
X0305Y03198*
X01685Y0119D02*
D01*
X01684Y01204*
X01683Y01217*
X0168Y01231*
X01677Y01244*
X01673Y01257*
X01668Y0127*
X01661Y01282*
X01655Y01294*
X01647Y01306*
X01638Y01317*
X01629Y01327*
X01619Y01336*
X01609Y01345*
X01598Y01353*
X01586Y01361*
X01574Y01367*
X01561Y01373*
X01549Y01377*
X01535Y01381*
X01522Y01384*
X01508Y01386*
X01495Y01387*
X01481*
X01467Y01386*
X01454Y01384*
X0144Y01381*
X01427Y01377*
X01414Y01373*
X01401Y01367*
X01389Y01361*
X01378Y01353*
X01366Y01345*
X01356Y01336*
X01346Y01327*
X01337Y01317*
X01328Y01306*
X01321Y01294*
X01314Y01282*
X01308Y0127*
X01303Y01257*
X01298Y01244*
X01295Y01231*
X01293Y01217*
X01291Y01204*
X01291Y0119*
X01291Y01176*
X01293Y01163*
X01295Y01149*
X01298Y01136*
X01303Y01123*
X01308Y0111*
X01314Y01098*
X01321Y01086*
X01328Y01074*
X01337Y01064*
X01346Y01053*
X01356Y01044*
X01366Y01035*
X01378Y01027*
X01389Y0102*
X01401Y01013*
X01414Y01008*
X01427Y01003*
X0144Y00999*
X01454Y00996*
X01467Y00994*
X01481Y00993*
X01495*
X01508Y00994*
X01522Y00996*
X01535Y00999*
X01549Y01003*
X01561Y01008*
X01574Y01013*
X01586Y0102*
X01598Y01027*
X01609Y01035*
X01619Y01044*
X01629Y01053*
X01638Y01064*
X01647Y01074*
X01655Y01086*
X01661Y01098*
X01668Y0111*
X01673Y01123*
X01677Y01136*
X0168Y01149*
X01683Y01163*
X01684Y01176*
X01685Y0119*
X02115Y01371D02*
D01*
X02114Y01385*
X02113Y01399*
X02111Y01412*
X02107Y01425*
X02103Y01438*
X02098Y01451*
X02092Y01464*
X02085Y01475*
X02077Y01487*
X02069Y01498*
X0206Y01508*
X0205Y01517*
X02039Y01526*
X02028Y01534*
X02016Y01542*
X02004Y01548*
X01992Y01554*
X01979Y01558*
X01966Y01562*
X01952Y01565*
X01939Y01567*
X01925Y01568*
X01911*
X01897Y01567*
X01884Y01565*
X0187Y01562*
X01857Y01558*
X01844Y01554*
X01832Y01548*
X0182Y01542*
X01808Y01534*
X01797Y01526*
X01786Y01517*
X01776Y01508*
X01767Y01498*
X01759Y01487*
X01751Y01475*
X01744Y01464*
X01738Y01451*
X01733Y01438*
X01729Y01425*
X01725Y01412*
X01723Y01399*
X01722Y01385*
X01721Y01371*
X01722Y01357*
X01723Y01344*
X01725Y0133*
X01729Y01317*
X01733Y01304*
X01738Y01291*
X01744Y01279*
X01751Y01267*
X01759Y01255*
X01767Y01245*
X01776Y01234*
X01786Y01225*
X01797Y01216*
X01808Y01208*
X0182Y01201*
X01832Y01194*
X01844Y01189*
X01857Y01184*
X0187Y0118*
X01884Y01177*
X01897Y01175*
X01911Y01174*
X01925*
X01939Y01175*
X01952Y01177*
X01966Y0118*
X01979Y01184*
X01992Y01189*
X02004Y01194*
X02016Y01201*
X02028Y01208*
X02039Y01216*
X0205Y01225*
X0206Y01234*
X02069Y01245*
X02077Y01255*
X02085Y01267*
X02092Y01279*
X02098Y01291*
X02103Y01304*
X02107Y01317*
X02111Y0133*
X02113Y01344*
X02114Y01357*
X02115Y01371*
X01162Y0119D02*
D01*
X01161Y01204*
X0116Y01217*
X01157Y01231*
X01154Y01244*
X0115Y01257*
X01145Y0127*
X01139Y01282*
X01132Y01294*
X01124Y01306*
X01116Y01317*
X01106Y01327*
X01097Y01336*
X01086Y01345*
X01075Y01353*
X01063Y01361*
X01051Y01367*
X01039Y01373*
X01026Y01377*
X01012Y01381*
X00999Y01384*
X00985Y01386*
X00972Y01387*
X00958*
X00944Y01386*
X00931Y01384*
X00917Y01381*
X00904Y01377*
X00891Y01373*
X00879Y01367*
X00866Y01361*
X00855Y01353*
X00844Y01345*
X00833Y01336*
X00823Y01327*
X00814Y01317*
X00806Y01306*
X00798Y01294*
X00791Y01282*
X00785Y0127*
X0078Y01257*
X00776Y01244*
X00772Y01231*
X0077Y01217*
X00768Y01204*
X00768Y0119*
X00768Y01176*
X0077Y01163*
X00772Y01149*
X00776Y01136*
X0078Y01123*
X00785Y0111*
X00791Y01098*
X00798Y01086*
X00806Y01074*
X00814Y01064*
X00823Y01053*
X00833Y01044*
X00844Y01035*
X00855Y01027*
X00866Y0102*
X00879Y01013*
X00891Y01008*
X00904Y01003*
X00917Y00999*
X00931Y00996*
X00944Y00994*
X00958Y00993*
X00972*
X00985Y00994*
X00999Y00996*
X01012Y00999*
X01026Y01003*
X01039Y01008*
X01051Y01013*
X01063Y0102*
X01075Y01027*
X01086Y01035*
X01097Y01044*
X01106Y01053*
X01116Y01064*
X01124Y01074*
X01132Y01086*
X01139Y01098*
X01145Y0111*
X0115Y01123*
X01154Y01136*
X01157Y01149*
X0116Y01163*
X01161Y01176*
X01162Y0119*
X03731Y03141D02*
X03781D01*
X03731Y02789D02*
X03781D01*
X03888Y03141D02*
X03938D01*
X03888Y02789D02*
X03938D01*
X03232Y0001D02*
Y00061D01*
X03584Y0001D02*
Y00061D01*
X03232Y00168D02*
Y00217D01*
X03584Y00168D02*
Y00217D01*
X03364Y02484D02*
Y02594D01*
X03435Y02658D02*
X03702D01*
X0382D02*
X03935D01*
Y02077D02*
Y02658D01*
X0382Y02077D02*
X03935D01*
X03427D02*
X03702D01*
X0294Y03234D02*
X0296D01*
X0295Y03224D02*
Y03244D01*
X02869Y03264D02*
X02887D01*
X02869Y03205D02*
X02887D01*
X03351Y01873D02*
Y01892D01*
X03342Y01882D02*
X03361D01*
X03322Y01802D02*
Y01819D01*
X03381Y01802D02*
Y01819D01*
X03041Y00244D02*
Y00263D01*
X03031Y00254D02*
X03051D01*
X03012Y00173D02*
Y00191D01*
X03071Y00173D02*
Y00191D01*
X02933Y00226D02*
Y00246D01*
X02923Y00236D02*
X02943D01*
X02903Y00155D02*
Y00173D01*
X02962Y00155D02*
Y00173D01*
X01537Y02728D02*
Y0302D01*
X01763*
Y02728D02*
Y0302D01*
X01537Y02728D02*
X01763D01*
X02677Y02327D02*
Y0235D01*
Y02863D02*
Y02886D01*
X02118D02*
X02141D01*
X02655D02*
X02677D01*
X02118Y02327D02*
Y0235D01*
Y02863D02*
Y02886D01*
Y02327D02*
X02141D01*
X02655D02*
X02677D01*
X0136Y02877D02*
X01387D01*
X0136D02*
Y02992D01*
X01387*
Y02877D02*
Y02992D01*
X01401Y02875D02*
X0144D01*
X01866Y02864D02*
X01893D01*
X01866D02*
Y02979D01*
X01893*
Y02864D02*
Y02979D01*
X01907Y02862D02*
X01946D01*
X03028Y03179D02*
Y03287D01*
Y03179D02*
X03536D01*
Y03287*
X03028D02*
X03536D01*
X02502Y01953D02*
Y01976D01*
X02667Y01953D02*
Y01976D01*
X02537Y02027D02*
X02632D01*
X02537Y01901D02*
X02632D01*
X02503Y0167D02*
Y01694D01*
X02669Y0167D02*
Y01694D01*
X02539Y01745D02*
X02633D01*
X02539Y01619D02*
X02633D01*
X03594Y01924D02*
X03618D01*
X03594Y01758D02*
X03618D01*
X03669Y01794D02*
Y01888D01*
X03543Y01794D02*
Y01888D01*
X03814Y01922D02*
X03837D01*
X03814Y01757D02*
X03837D01*
X03888Y01792D02*
Y01887D01*
X03762Y01792D02*
Y01887D01*
X03592Y0157D02*
X03616D01*
X03592Y01404D02*
X03616D01*
X03667Y0144D02*
Y01534D01*
X03541Y0144D02*
Y01534D01*
X03814Y01572D02*
X03838D01*
X03814Y01406D02*
X03838D01*
X03889Y01442D02*
Y01536D01*
X03763Y01442D02*
Y01536D01*
G54D11*
X03297Y02456D02*
D01*
X03297Y02456*
X03297Y02456*
X03297Y02457*
X03297Y02457*
X03297Y02457*
X03297Y02457*
X03297Y02457*
X03296Y02457*
X03296Y02457*
X03296Y02457*
X03296Y02458*
X03296Y02458*
X03296Y02458*
X03296Y02458*
X03296Y02458*
X03296Y02458*
X03296Y02458*
X03295Y02458*
X03295Y02458*
X03295Y02458*
X03295Y02458*
X03295Y02458*
X03295*
X03295Y02458*
X03294Y02458*
X03294Y02458*
X03294Y02458*
X03294Y02458*
X03294Y02458*
X03294Y02458*
X03294Y02458*
X03294Y02458*
X03293Y02458*
X03293Y02458*
X03293Y02457*
X03293Y02457*
X03293Y02457*
X03293Y02457*
X03293Y02457*
X03293Y02457*
X03293Y02457*
X03293Y02457*
X03293Y02456*
X03293Y02456*
X03293Y02456*
D01*
X03293Y02456*
X03293Y02456*
X03293Y02456*
X03293Y02456*
X03293Y02456*
X03293Y02455*
X03293Y02455*
X03293Y02455*
X03293Y02455*
X03293Y02455*
X03293Y02455*
X03293Y02455*
X03294Y02455*
X03294Y02455*
X03294Y02454*
X03294Y02454*
X03294Y02454*
X03294Y02454*
X03294Y02454*
X03294Y02454*
X03295Y02454*
X03295Y02454*
X03295*
X03295Y02454*
X03295Y02454*
X03295Y02454*
X03295Y02454*
X03296Y02454*
X03296Y02454*
X03296Y02454*
X03296Y02455*
X03296Y02455*
X03296Y02455*
X03296Y02455*
X03296Y02455*
X03296Y02455*
X03296Y02455*
X03297Y02455*
X03297Y02455*
X03297Y02456*
X03297Y02456*
X03297Y02456*
X03297Y02456*
X03297Y02456*
X03297Y02456*
X02707Y01922D02*
D01*
X02707Y01922*
X02707Y01922*
X02707Y01923*
X02707Y01923*
X02706Y01923*
X02706Y01923*
X02706Y01923*
X02706Y01923*
X02706Y01923*
X02706Y01923*
X02706Y01924*
X02706Y01924*
X02706Y01924*
X02706Y01924*
X02706Y01924*
X02705Y01924*
X02705Y01924*
X02705Y01924*
X02705Y01924*
X02705Y01924*
X02705Y01924*
X02705Y01924*
X02705*
X02704Y01924*
X02704Y01924*
X02704Y01924*
X02704Y01924*
X02704Y01924*
X02704Y01924*
X02704Y01924*
X02704Y01924*
X02703Y01924*
X02703Y01924*
X02703Y01924*
X02703Y01923*
X02703Y01923*
X02703Y01923*
X02703Y01923*
X02703Y01923*
X02703Y01923*
X02703Y01923*
X02703Y01923*
X02703Y01922*
X02703Y01922*
X02703Y01922*
D01*
X02703Y01922*
X02703Y01922*
X02703Y01922*
X02703Y01922*
X02703Y01921*
X02703Y01921*
X02703Y01921*
X02703Y01921*
X02703Y01921*
X02703Y01921*
X02703Y01921*
X02703Y01921*
X02703Y01921*
X02704Y01921*
X02704Y0192*
X02704Y0192*
X02704Y0192*
X02704Y0192*
X02704Y0192*
X02704Y0192*
X02704Y0192*
X02705Y0192*
X02705*
X02705Y0192*
X02705Y0192*
X02705Y0192*
X02705Y0192*
X02705Y0192*
X02705Y0192*
X02706Y0192*
X02706Y01921*
X02706Y01921*
X02706Y01921*
X02706Y01921*
X02706Y01921*
X02706Y01921*
X02706Y01921*
X02706Y01921*
X02706Y01921*
X02706Y01921*
X02707Y01922*
X02707Y01922*
X02707Y01922*
X02707Y01922*
X02707Y01922*
X02708Y01639D02*
D01*
X02708Y0164*
X02708Y0164*
X02708Y0164*
X02708Y0164*
X02708Y0164*
X02708Y0164*
X02708Y0164*
X02708Y01641*
X02708Y01641*
X02708Y01641*
X02708Y01641*
X02708Y01641*
X02707Y01641*
X02707Y01641*
X02707Y01641*
X02707Y01641*
X02707Y01641*
X02707Y01641*
X02707Y01641*
X02707Y01641*
X02706Y01641*
X02706Y01641*
X02706*
X02706Y01641*
X02706Y01641*
X02706Y01641*
X02706Y01641*
X02705Y01641*
X02705Y01641*
X02705Y01641*
X02705Y01641*
X02705Y01641*
X02705Y01641*
X02705Y01641*
X02705Y01641*
X02705Y01641*
X02705Y01641*
X02704Y0164*
X02704Y0164*
X02704Y0164*
X02704Y0164*
X02704Y0164*
X02704Y0164*
X02704Y0164*
X02704Y01639*
D01*
X02704Y01639*
X02704Y01639*
X02704Y01639*
X02704Y01639*
X02704Y01639*
X02704Y01639*
X02704Y01639*
X02705Y01638*
X02705Y01638*
X02705Y01638*
X02705Y01638*
X02705Y01638*
X02705Y01638*
X02705Y01638*
X02705Y01638*
X02705Y01638*
X02705Y01638*
X02706Y01638*
X02706Y01638*
X02706Y01638*
X02706Y01638*
X02706Y01637*
X02706*
X02706Y01638*
X02707Y01638*
X02707Y01638*
X02707Y01638*
X02707Y01638*
X02707Y01638*
X02707Y01638*
X02707Y01638*
X02707Y01638*
X02708Y01638*
X02708Y01638*
X02708Y01638*
X02708Y01638*
X02708Y01638*
X02708Y01639*
X02708Y01639*
X02708Y01639*
X02708Y01639*
X02708Y01639*
X02708Y01639*
X02708Y01639*
X02708Y01639*
X03564Y01719D02*
D01*
X03564Y01719*
X03564Y01719*
X03564Y01719*
X03564Y01719*
X03565Y01719*
X03565Y01719*
X03565Y01719*
X03565Y01719*
X03565Y01719*
X03565Y01719*
X03565Y01719*
X03565Y01719*
X03565Y0172*
X03566Y0172*
X03566Y0172*
X03566Y0172*
X03566Y0172*
X03566Y0172*
X03566Y0172*
X03566Y0172*
X03566Y01721*
X03566Y01721*
Y01721*
X03566Y01721*
X03566Y01721*
X03566Y01721*
X03566Y01721*
X03566Y01721*
X03566Y01722*
X03566Y01722*
X03566Y01722*
X03565Y01722*
X03565Y01722*
X03565Y01722*
X03565Y01722*
X03565Y01722*
X03565Y01722*
X03565Y01722*
X03565Y01723*
X03565Y01723*
X03564Y01723*
X03564Y01723*
X03564Y01723*
X03564Y01723*
X03564Y01723*
D01*
X03564Y01723*
X03564Y01723*
X03563Y01723*
X03563Y01723*
X03563Y01723*
X03563Y01723*
X03563Y01722*
X03563Y01722*
X03563Y01722*
X03563Y01722*
X03563Y01722*
X03562Y01722*
X03562Y01722*
X03562Y01722*
X03562Y01722*
X03562Y01722*
X03562Y01721*
X03562Y01721*
X03562Y01721*
X03562Y01721*
X03562Y01721*
X03562Y01721*
Y01721*
X03562Y01721*
X03562Y0172*
X03562Y0172*
X03562Y0172*
X03562Y0172*
X03562Y0172*
X03562Y0172*
X03562Y0172*
X03562Y0172*
X03562Y01719*
X03563Y01719*
X03563Y01719*
X03563Y01719*
X03563Y01719*
X03563Y01719*
X03563Y01719*
X03563Y01719*
X03563Y01719*
X03563Y01719*
X03564Y01719*
X03564Y01719*
X03564Y01719*
X03783Y01718D02*
D01*
X03783Y01718*
X03783Y01718*
X03784Y01718*
X03784Y01718*
X03784Y01718*
X03784Y01718*
X03784Y01718*
X03784Y01718*
X03784Y01718*
X03784Y01718*
X03785Y01718*
X03785Y01718*
X03785Y01718*
X03785Y01718*
X03785Y01719*
X03785Y01719*
X03785Y01719*
X03785Y01719*
X03785Y01719*
X03785Y01719*
X03785Y01719*
X03785Y0172*
Y0172*
X03785Y0172*
X03785Y0172*
X03785Y0172*
X03785Y0172*
X03785Y0172*
X03785Y0172*
X03785Y01721*
X03785Y01721*
X03785Y01721*
X03785Y01721*
X03785Y01721*
X03784Y01721*
X03784Y01721*
X03784Y01721*
X03784Y01721*
X03784Y01721*
X03784Y01721*
X03784Y01721*
X03784Y01722*
X03783Y01722*
X03783Y01722*
X03783Y01722*
D01*
X03783Y01722*
X03783Y01722*
X03783Y01722*
X03783Y01721*
X03782Y01721*
X03782Y01721*
X03782Y01721*
X03782Y01721*
X03782Y01721*
X03782Y01721*
X03782Y01721*
X03782Y01721*
X03782Y01721*
X03782Y01721*
X03781Y01721*
X03781Y0172*
X03781Y0172*
X03781Y0172*
X03781Y0172*
X03781Y0172*
X03781Y0172*
X03781Y0172*
Y0172*
X03781Y01719*
X03781Y01719*
X03781Y01719*
X03781Y01719*
X03781Y01719*
X03781Y01719*
X03781Y01719*
X03782Y01718*
X03782Y01718*
X03782Y01718*
X03782Y01718*
X03782Y01718*
X03782Y01718*
X03782Y01718*
X03782Y01718*
X03782Y01718*
X03782Y01718*
X03783Y01718*
X03783Y01718*
X03783Y01718*
X03783Y01718*
X03783Y01718*
X03562Y01365D02*
D01*
X03562Y01365*
X03562Y01365*
X03562Y01365*
X03562Y01365*
X03562Y01365*
X03563Y01365*
X03563Y01365*
X03563Y01365*
X03563Y01365*
X03563Y01366*
X03563Y01366*
X03563Y01366*
X03563Y01366*
X03563Y01366*
X03563Y01366*
X03563Y01366*
X03564Y01366*
X03564Y01366*
X03564Y01367*
X03564Y01367*
X03564Y01367*
X03564Y01367*
Y01367*
X03564Y01367*
X03564Y01367*
X03564Y01367*
X03564Y01368*
X03564Y01368*
X03563Y01368*
X03563Y01368*
X03563Y01368*
X03563Y01368*
X03563Y01368*
X03563Y01368*
X03563Y01369*
X03563Y01369*
X03563Y01369*
X03563Y01369*
X03563Y01369*
X03562Y01369*
X03562Y01369*
X03562Y01369*
X03562Y01369*
X03562Y01369*
X03562Y01369*
D01*
X03562Y01369*
X03561Y01369*
X03561Y01369*
X03561Y01369*
X03561Y01369*
X03561Y01369*
X03561Y01369*
X03561Y01369*
X03561Y01369*
X0356Y01369*
X0356Y01368*
X0356Y01368*
X0356Y01368*
X0356Y01368*
X0356Y01368*
X0356Y01368*
X0356Y01368*
X0356Y01368*
X0356Y01367*
X0356Y01367*
X0356Y01367*
X0356Y01367*
Y01367*
X0356Y01367*
X0356Y01367*
X0356Y01367*
X0356Y01366*
X0356Y01366*
X0356Y01366*
X0356Y01366*
X0356Y01366*
X0356Y01366*
X0356Y01366*
X0356Y01366*
X0356Y01366*
X03561Y01365*
X03561Y01365*
X03561Y01365*
X03561Y01365*
X03561Y01365*
X03561Y01365*
X03561Y01365*
X03561Y01365*
X03562Y01365*
X03562Y01365*
X03784Y01367D02*
D01*
X03784Y01367*
X03784Y01367*
X03784Y01367*
X03784Y01367*
X03784Y01367*
X03785Y01367*
X03785Y01367*
X03785Y01367*
X03785Y01367*
X03785Y01367*
X03785Y01368*
X03785Y01368*
X03785Y01368*
X03785Y01368*
X03785Y01368*
X03786Y01368*
X03786Y01368*
X03786Y01368*
X03786Y01369*
X03786Y01369*
X03786Y01369*
X03786Y01369*
Y01369*
X03786Y01369*
X03786Y01369*
X03786Y01369*
X03786Y0137*
X03786Y0137*
X03786Y0137*
X03785Y0137*
X03785Y0137*
X03785Y0137*
X03785Y0137*
X03785Y0137*
X03785Y0137*
X03785Y01371*
X03785Y01371*
X03785Y01371*
X03785Y01371*
X03784Y01371*
X03784Y01371*
X03784Y01371*
X03784Y01371*
X03784Y01371*
X03784Y01371*
D01*
X03784Y01371*
X03783Y01371*
X03783Y01371*
X03783Y01371*
X03783Y01371*
X03783Y01371*
X03783Y01371*
X03783Y01371*
X03783Y01371*
X03782Y0137*
X03782Y0137*
X03782Y0137*
X03782Y0137*
X03782Y0137*
X03782Y0137*
X03782Y0137*
X03782Y0137*
X03782Y0137*
X03782Y01369*
X03782Y01369*
X03782Y01369*
X03782Y01369*
Y01369*
X03782Y01369*
X03782Y01369*
X03782Y01369*
X03782Y01368*
X03782Y01368*
X03782Y01368*
X03782Y01368*
X03782Y01368*
X03782Y01368*
X03782Y01368*
X03782Y01368*
X03782Y01367*
X03783Y01367*
X03783Y01367*
X03783Y01367*
X03783Y01367*
X03783Y01367*
X03783Y01367*
X03783Y01367*
X03783Y01367*
X03784Y01367*
X03784Y01367*
X02294Y03212D02*
Y03199D01*
X02296Y03196*
X02302*
X02304Y03199*
Y03212*
X02309Y03196D02*
X02315D01*
X02312*
Y03212*
X02309Y03209*
X0259Y03288D02*
Y03275D01*
X02593Y03273*
X02598*
X02601Y03275*
Y03288*
X02617D02*
X02606D01*
Y03281*
X02611Y03283*
X02614*
X02617Y03281*
Y03275*
X02614Y03273*
X02609*
X02606Y03275*
X02421Y0213D02*
X02405D01*
Y02138*
X02408Y02141*
X02413*
X02416Y02138*
Y0213*
Y02136D02*
X02421Y02141D01*
X02405Y02157D02*
Y02146D01*
X02413*
X02411Y02151*
Y02154*
X02413Y02157*
X02419*
X02421Y02154*
Y02149*
X02419Y02146*
X02405Y02172D02*
X02408Y02167D01*
X02413Y02162*
X02419*
X02421Y02165*
Y0217*
X02419Y02172*
X02416*
X02413Y0217*
Y02162*
X02173Y0171D02*
X02162Y01721D01*
X02168Y01726*
X02171*
X02175Y01723*
Y01719*
X0217Y01714*
X02173Y01717D02*
X02181D01*
Y01739D02*
X02173Y01732D01*
X02179Y01726*
X02181Y01732*
X02183Y01734*
X02186*
X0219Y0173*
Y01726*
X02186Y01723*
X02183*
X02192Y01751D02*
X02184Y01743D01*
X0219Y01738*
X02192Y01743*
X02194Y01745*
X02197*
X02201Y01741*
Y01738*
X02197Y01734*
X02194*
X02459Y02133D02*
X02444D01*
Y02141*
X02446Y02143*
X02451*
X02454Y02141*
Y02133*
Y02138D02*
X02459Y02143D01*
X02444Y02159D02*
Y02149D01*
X02451*
X02449Y02154*
Y02156*
X02451Y02159*
X02457*
X02459Y02156*
Y02151*
X02457Y02149*
X02459Y02172D02*
X02444D01*
X02451Y02164*
Y02175*
X02938Y02929D02*
X02949Y02914D01*
Y02929D02*
X02938Y02914D01*
X02965D02*
X02954D01*
X02965Y02924*
Y02927*
X02962Y02929*
X02957*
X02954Y02927*
X02821Y02378D02*
X02831Y02362D01*
Y02378D02*
X02821Y02362D01*
X02836D02*
X02841D01*
X02839*
Y02378*
X02836Y02376*
X0332Y009D02*
Y00887D01*
X03322Y00884*
X03328*
X0333Y00887*
Y009*
X03336Y00884D02*
X03341D01*
X03338*
Y009*
X03336Y00897*
X03349Y00884D02*
X03354D01*
X03351*
Y009*
X03349Y00897*
X02074Y02035D02*
Y02022D01*
X02077Y02019*
X02082*
X02084Y02022*
Y02035*
X0209Y02019D02*
X02095D01*
X02092*
Y02035*
X0209Y02032*
X02103D02*
X02105Y02035D01*
X02111*
X02113Y02032*
Y02022*
X02111Y02019*
X02105*
X02103Y02022*
Y02032*
X02479Y00456D02*
Y00443D01*
X02482Y0044*
X02487*
X0249Y00443*
Y00456*
X02495Y00443D02*
X02498Y0044D01*
X02503*
X02506Y00443*
Y00453*
X02503Y00456*
X02498*
X02495Y00453*
Y00451*
X02498Y00448*
X02506*
X03144Y01692D02*
Y01679D01*
X03146Y01677*
X03152*
X03154Y01679*
Y01692*
X0316D02*
X0317D01*
Y0169*
X0316Y01679*
Y01677*
X02116Y01477D02*
X02129D01*
X02131Y0148*
Y01485*
X02129Y01488*
X02116*
Y01504D02*
X02118Y01498D01*
X02124Y01493*
X02129*
X02131Y01496*
Y01501*
X02129Y01504*
X02126*
X02124Y01501*
Y01493*
X00041Y01383D02*
Y0137D01*
X00043Y01367*
X00049*
X00051Y0137*
Y01383*
X00064Y01367D02*
Y01383D01*
X00057Y01375*
X00067*
X01735Y02108D02*
X01721D01*
X01719Y02106*
Y021*
X01721Y02098*
X01735*
X01732Y02093D02*
X01735Y0209D01*
Y02085*
X01732Y02082*
X01729*
X01727Y02085*
Y02087*
Y02085*
X01724Y02082*
X01721*
X01719Y02085*
Y0209*
X01721Y02093*
X02702Y02259D02*
Y02246D01*
X02705Y02243*
X0271*
X02713Y02246*
Y02259*
X02728Y02243D02*
X02718D01*
X02728Y02254*
Y02256*
X02726Y02259*
X0272*
X02718Y02256*
X01689Y00045D02*
X01686Y00048D01*
X01681*
X01678Y00045*
Y00043*
X01681Y0004*
X01686*
X01689Y00037*
Y00035*
X01686Y00032*
X01681*
X01678Y00035*
X01694Y00048D02*
Y00032D01*
X01699Y00037*
X01704Y00032*
Y00048*
X0171Y00045D02*
X01712Y00048D01*
X01717*
X0172Y00045*
Y00043*
X01717Y0004*
X0172Y00037*
Y00035*
X01717Y00032*
X01712*
X0171Y00035*
Y00037*
X01712Y0004*
X0171Y00043*
Y00045*
X01712Y0004D02*
X01717D01*
X02003Y01091D02*
X02001Y01094D01*
X01995*
X01993Y01091*
Y01088*
X01995Y01086*
X02001*
X02003Y01083*
Y0108*
X02001Y01078*
X01995*
X01993Y0108*
X02008Y01094D02*
Y01078D01*
X02014Y01083*
X02019Y01078*
Y01094*
X02024D02*
X02035D01*
Y01091*
X02024Y0108*
Y01078*
X03727Y01305D02*
X03724Y01302D01*
Y01297*
X03727Y01294*
X03729*
X03732Y01297*
Y01302*
X03734Y01305*
X03737*
X0374Y01302*
Y01297*
X03737Y01294*
X03724Y0131D02*
X0374D01*
X03734Y01315*
X0374Y0132*
X03724*
Y01336D02*
X03727Y01331D01*
X03732Y01326*
X03737*
X0374Y01328*
Y01334*
X03737Y01336*
X03734*
X03732Y01334*
Y01326*
X03462Y01359D02*
X0346Y01361D01*
X03454*
X03452Y01359*
Y01356*
X03454Y01353*
X0346*
X03462Y01351*
Y01348*
X0346Y01346*
X03454*
X03452Y01348*
X03467Y01361D02*
Y01346D01*
X03473Y01351*
X03478Y01346*
Y01361*
X03494D02*
X03483D01*
Y01353*
X03488Y01356*
X03491*
X03494Y01353*
Y01348*
X03491Y01346*
X03486*
X03483Y01348*
X03728Y01718D02*
X03725Y0172D01*
X0372*
X03717Y01718*
Y01715*
X0372Y01712*
X03725*
X03728Y0171*
Y01707*
X03725Y01705*
X0372*
X03717Y01707*
X03733Y0172D02*
Y01705D01*
X03738Y0171*
X03744Y01705*
Y0172*
X03757Y01705D02*
Y0172D01*
X03749Y01712*
X03759*
X03515Y01689D02*
X03513Y01691D01*
X03508*
X03505Y01689*
Y01686*
X03508Y01683*
X03513*
X03515Y01681*
Y01678*
X03513Y01675*
X03508*
X03505Y01678*
X03521Y01691D02*
Y01675D01*
X03526Y01681*
X03531Y01675*
Y01691*
X03536Y01689D02*
X03539Y01691D01*
X03544*
X03547Y01689*
Y01686*
X03544Y01683*
X03542*
X03544*
X03547Y01681*
Y01678*
X03544Y01675*
X03539*
X03536Y01678*
X0268Y01815D02*
X02678Y01817D01*
X02672*
X0267Y01815*
Y01812*
X02672Y01809*
X02678*
X0268Y01807*
Y01804*
X02678Y01801*
X02672*
X0267Y01804*
X02686Y01817D02*
Y01801D01*
X02691Y01807*
X02696Y01801*
Y01817*
X02712Y01801D02*
X02701D01*
X02712Y01812*
Y01815*
X02709Y01817*
X02704*
X02701Y01815*
X02459Y02094D02*
X02456Y02096D01*
X02451*
X02448Y02094*
Y02091*
X02451Y02088*
X02456*
X02459Y02086*
Y02083*
X02456Y02081*
X02451*
X02448Y02083*
X02464Y02096D02*
Y02081D01*
X02469Y02086*
X02474Y02081*
Y02096*
X0248Y02081D02*
X02485D01*
X02482*
Y02096*
X0248Y02094*
X03479Y00543D02*
X03477Y00546D01*
X03471*
X03469Y00543*
Y00541*
X03471Y00538*
X03477*
X03479Y00535*
Y00533*
X03477Y0053*
X03471*
X03469Y00533*
X03484Y00546D02*
Y0053D01*
X03492*
X03495Y00533*
Y00535*
X03492Y00538*
X03484*
X03492*
X03495Y00541*
Y00543*
X03492Y00546*
X03484*
X03511Y0053D02*
X035D01*
X03511Y00541*
Y00543*
X03508Y00546*
X03503*
X035Y00543*
X03204Y03042D02*
X03202Y03039D01*
Y03034*
X03204Y03031*
X03207*
X0321Y03034*
Y03039*
X03212Y03042*
X03215*
X03218Y03039*
Y03034*
X03215Y03031*
X03202Y03047D02*
X03218D01*
Y03055*
X03215Y03057*
X03212*
X0321Y03055*
Y03047*
Y03055*
X03207Y03057*
X03204*
X03202Y03055*
Y03047*
X03218Y03063D02*
Y03068D01*
Y03065*
X03202*
X03204Y03063*
X03506Y00395D02*
Y00411D01*
X03514*
X03517Y00408*
Y00403*
X03514Y004*
X03506*
X03512D02*
X03517Y00395D01*
X03533Y00411D02*
X03522D01*
Y00403*
X03527Y00406*
X0353*
X03533Y00403*
Y00398*
X0353Y00395*
X03525*
X03522Y00398*
X03538Y00408D02*
X03541Y00411D01*
X03546*
X03548Y00408*
Y00406*
X03546Y00403*
X03543*
X03546*
X03548Y004*
Y00398*
X03546Y00395*
X03541*
X03538Y00398*
X03274Y00395D02*
Y00411D01*
X03282*
X03285Y00408*
Y00403*
X03282Y004*
X03274*
X03279D02*
X03285Y00395D01*
X033Y00411D02*
X0329D01*
Y00403*
X03295Y00405*
X03298*
X033Y00403*
Y00397*
X03298Y00395*
X03293*
X0329Y00397*
X03316Y00395D02*
X03306D01*
X03316Y00405*
Y00408*
X03314Y00411*
X03308*
X03306Y00408*
X03372Y00855D02*
Y00871D01*
X0338*
X03383Y00869*
Y00863*
X0338Y00861*
X03372*
X03378D02*
X03383Y00855D01*
X03399Y00871D02*
X03388D01*
Y00863*
X03393Y00866*
X03396*
X03399Y00863*
Y00858*
X03396Y00855*
X03391*
X03388Y00858*
X03404Y00855D02*
X03409D01*
X03407*
Y00871*
X03404Y00869*
X03377Y01105D02*
Y01121D01*
X03384*
X03387Y01119*
Y01113*
X03384Y01111*
X03377*
X03382D02*
X03387Y01105D01*
X03403Y01121D02*
X03392D01*
Y01113*
X03398Y01116*
X034*
X03403Y01113*
Y01108*
X034Y01105*
X03395*
X03392Y01108*
X03408Y01119D02*
X03411Y01121D01*
X03416*
X03419Y01119*
Y01108*
X03416Y01105*
X03411*
X03408Y01108*
Y01119*
X03436Y01061D02*
Y01077D01*
X03444*
X03447Y01074*
Y01069*
X03444Y01066*
X03436*
X03442D02*
X03447Y01061D01*
X0346D02*
Y01077D01*
X03452Y01069*
X03463*
X03468Y01064D02*
X0347Y01061D01*
X03476*
X03478Y01064*
Y01074*
X03476Y01077*
X0347*
X03468Y01074*
Y01071*
X0347Y01069*
X03478*
X03553Y0307D02*
Y03085D01*
X0356*
X03563Y03083*
Y03077*
X0356Y03075*
X03553*
X03558D02*
X03563Y0307D01*
X03576D02*
Y03085D01*
X03568Y03077*
X03579*
X03584Y03083D02*
X03587Y03085D01*
X03592*
X03595Y03083*
Y0308*
X03592Y03077*
X03595Y03075*
Y03072*
X03592Y0307*
X03587*
X03584Y03072*
Y03075*
X03587Y03077*
X03584Y0308*
Y03083*
X03587Y03077D02*
X03592D01*
X03554Y02854D02*
Y0287D01*
X03562*
X03565Y02867*
Y02862*
X03562Y02859*
X03554*
X03559D02*
X03565Y02854D01*
X03578D02*
Y0287D01*
X0357Y02862*
X0358*
X03586Y0287D02*
X03596D01*
Y02867*
X03586Y02856*
Y02854*
X01872Y01786D02*
X01884Y01797D01*
X01889Y01792*
Y01788*
X01885Y01784*
X01882*
X01876Y0179*
X0188Y01786D02*
Y01779D01*
X01889Y0177D02*
X019Y01781D01*
X01889*
X01897Y01773*
X01913Y01768D02*
X01908Y0177D01*
X019*
X01897Y01766*
Y01762*
X019Y01758*
X01904*
X01906Y0176*
Y01764*
X019Y0177*
X0302Y02102D02*
Y02118D01*
X03028*
X03031Y02115*
Y0211*
X03028Y02108*
X0302*
X03025D02*
X03031Y02102D01*
X03044D02*
Y02118D01*
X03036Y0211*
X03046*
X03062Y02118D02*
X03052D01*
Y0211*
X03057Y02113*
X0306*
X03062Y0211*
Y02105*
X0306Y02102*
X03054*
X03052Y02105*
X0307Y02231D02*
Y02247D01*
X03078*
X03081Y02244*
Y02239*
X03078Y02236*
X0307*
X03075D02*
X03081Y02231D01*
X03094D02*
Y02247D01*
X03086Y02239*
X03096*
X0311Y02231D02*
Y02247D01*
X03102Y02239*
X03112*
X02Y02601D02*
Y02617D01*
X02008*
X02011Y02615*
Y02609*
X02008Y02607*
X02*
X02005D02*
X02011Y02601D01*
X02024D02*
Y02617D01*
X02016Y02609*
X02026*
X02032Y02615D02*
X02034Y02617D01*
X0204*
X02042Y02615*
Y02612*
X0204Y02609*
X02037*
X0204*
X02042Y02607*
Y02604*
X0204Y02601*
X02034*
X02032Y02604*
X02266Y02103D02*
X02251D01*
Y02111*
X02253Y02114*
X02259*
X02261Y02111*
Y02103*
Y02109D02*
X02266Y02114D01*
Y02127D02*
X02251D01*
X02259Y02119*
Y0213*
X02266Y02145D02*
Y02135D01*
X02256Y02145*
X02253*
X02251Y02143*
Y02137*
X02253Y02135*
X02307Y02109D02*
X02291D01*
Y02117*
X02293Y02119*
X02299*
X02301Y02117*
Y02109*
Y02114D02*
X02307Y02119D01*
Y02132D02*
X02291D01*
X02299Y02125*
Y02135*
X02307Y0214D02*
Y02146D01*
Y02143*
X02291*
X02293Y0214*
X02229Y0211D02*
X02213D01*
Y02117*
X02216Y0212*
X02221*
X02224Y02117*
Y0211*
Y02115D02*
X02229Y0212D01*
Y02133D02*
X02213D01*
X02221Y02125*
Y02136*
X02216Y02141D02*
X02213Y02144D01*
Y02149*
X02216Y02152*
X02226*
X02229Y02149*
Y02144*
X02226Y02141*
X02216*
X02189Y0211D02*
X02174D01*
Y02117*
X02176Y0212*
X02181*
X02184Y02117*
Y0211*
Y02115D02*
X02189Y0212D01*
X02176Y02125D02*
X02174Y02128D01*
Y02133*
X02176Y02136*
X02179*
X02181Y02133*
Y02131*
Y02133*
X02184Y02136*
X02187*
X02189Y02133*
Y02128*
X02187Y02125*
Y02141D02*
X02189Y02144D01*
Y02149*
X02187Y02152*
X02176*
X02174Y02149*
Y02144*
X02176Y02141*
X02179*
X02181Y02144*
Y02152*
X02001Y02491D02*
Y02507D01*
X02009*
X02012Y02504*
Y02499*
X02009Y02496*
X02001*
X02007D02*
X02012Y02491D01*
X02017Y02504D02*
X0202Y02507D01*
X02025*
X02028Y02504*
Y02502*
X02025Y02499*
X02022*
X02025*
X02028Y02496*
Y02494*
X02025Y02491*
X0202*
X02017Y02494*
X02033Y02504D02*
X02035Y02507D01*
X02041*
X02043Y02504*
Y02502*
X02041Y02499*
X02043Y02496*
Y02494*
X02041Y02491*
X02035*
X02033Y02494*
Y02496*
X02035Y02499*
X02033Y02502*
Y02504*
X02035Y02499D02*
X02041D01*
X03017Y02342D02*
Y02357D01*
X03025*
X03028Y02355*
Y0235*
X03025Y02347*
X03017*
X03022D02*
X03028Y02342D01*
X03033Y02355D02*
X03035Y02357D01*
X03041*
X03043Y02355*
Y02352*
X03041Y0235*
X03038*
X03041*
X03043Y02347*
Y02344*
X03041Y02342*
X03035*
X03033Y02344*
X03049Y02357D02*
X03059D01*
Y02355*
X03049Y02344*
Y02342*
X03021Y02401D02*
Y02417D01*
X03029*
X03031Y02415*
Y02409*
X03029Y02407*
X03021*
X03026D02*
X03031Y02401D01*
X03036Y02415D02*
X03039Y02417D01*
X03044*
X03047Y02415*
Y02412*
X03044Y02409*
X03042*
X03044*
X03047Y02407*
Y02404*
X03044Y02401*
X03039*
X03036Y02404*
X03063Y02417D02*
X03057Y02415D01*
X03052Y02409*
Y02404*
X03055Y02401*
X0306*
X03063Y02404*
Y02407*
X0306Y02409*
X03052*
X03018Y02463D02*
Y02479D01*
X03026*
X03028Y02476*
Y02471*
X03026Y02468*
X03018*
X03023D02*
X03028Y02463D01*
X03034Y02476D02*
X03036Y02479D01*
X03041*
X03044Y02476*
Y02473*
X03041Y02471*
X03039*
X03041*
X03044Y02468*
Y02466*
X03041Y02463*
X03036*
X03034Y02466*
X0306Y02479D02*
X03049D01*
Y02471*
X03055Y02473*
X03057*
X0306Y02471*
Y02466*
X03057Y02463*
X03052*
X03049Y02466*
X03076Y00092D02*
Y00108D01*
X03084*
X03087Y00106*
Y001*
X03084Y00098*
X03076*
X03081D02*
X03087Y00092D01*
X03092Y00106D02*
X03095Y00108D01*
X031*
X03102Y00106*
Y00103*
X031Y001*
X03097*
X031*
X03102Y00098*
Y00095*
X031Y00092*
X03095*
X03092Y00095*
X03116Y00092D02*
Y00108D01*
X03108Y001*
X03118*
X02484Y00112D02*
Y00128D01*
X02492*
X02494Y00126*
Y0012*
X02492Y00118*
X02484*
X02489D02*
X02494Y00112D01*
X02499Y00126D02*
X02502Y00128D01*
X02507*
X0251Y00126*
Y00123*
X02507Y0012*
X02505*
X02507*
X0251Y00118*
Y00115*
X02507Y00112*
X02502*
X02499Y00115*
X02515Y00126D02*
X02518Y00128D01*
X02523*
X02526Y00126*
Y00123*
X02523Y0012*
X0252*
X02523*
X02526Y00118*
Y00115*
X02523Y00112*
X02518*
X02515Y00115*
X02202Y00264D02*
Y00279D01*
X0221*
X02212Y00277*
Y00272*
X0221Y00269*
X02202*
X02207D02*
X02212Y00264D01*
X02217Y00277D02*
X0222Y00279D01*
X02225*
X02228Y00277*
Y00274*
X02225Y00272*
X02223*
X02225*
X02228Y00269*
Y00266*
X02225Y00264*
X0222*
X02217Y00266*
X02244Y00264D02*
X02233D01*
X02244Y00274*
Y00277*
X02241Y00279*
X02236*
X02233Y00277*
X02557Y00188D02*
Y00204D01*
X02565*
X02567Y00201*
Y00196*
X02565Y00193*
X02557*
X02562D02*
X02567Y00188D01*
X02572Y00201D02*
X02575Y00204D01*
X0258*
X02583Y00201*
Y00199*
X0258Y00196*
X02578*
X0258*
X02583Y00193*
Y00191*
X0258Y00188*
X02575*
X02572Y00191*
X02588Y00188D02*
X02593D01*
X02591*
Y00204*
X02588Y00201*
X02567Y00337D02*
Y00353D01*
X02575*
X02578Y0035*
Y00345*
X02575Y00342*
X02567*
X02573D02*
X02578Y00337D01*
X02583Y0035D02*
X02586Y00353D01*
X02591*
X02594Y0035*
Y00347*
X02591Y00345*
X02588*
X02591*
X02594Y00342*
Y0034*
X02591Y00337*
X02586*
X02583Y0034*
X02599Y0035D02*
X02602Y00353D01*
X02607*
X02609Y0035*
Y0034*
X02607Y00337*
X02602*
X02599Y0034*
Y0035*
X02319Y00033D02*
Y00048D01*
X02327*
X0233Y00046*
Y0004*
X02327Y00038*
X02319*
X02324D02*
X0233Y00033D01*
X02345D02*
X02335D01*
X02345Y00043*
Y00046*
X02343Y00048*
X02337*
X02335Y00046*
X02351Y00035D02*
X02353Y00033D01*
X02358*
X02361Y00035*
Y00046*
X02358Y00048*
X02353*
X02351Y00046*
Y00043*
X02353Y0004*
X02361*
X02254Y00035D02*
Y00051D01*
X02262*
X02265Y00048*
Y00043*
X02262Y0004*
X02254*
X0226D02*
X02265Y00035D01*
X02281D02*
X0227D01*
X02281Y00045*
Y00048*
X02278Y00051*
X02273*
X0227Y00048*
X02286D02*
X02289Y00051D01*
X02294*
X02296Y00048*
Y00045*
X02294Y00043*
X02296Y0004*
Y00038*
X02294Y00035*
X02289*
X02286Y00038*
Y0004*
X02289Y00043*
X02286Y00045*
Y00048*
X02289Y00043D02*
X02294D01*
X03329Y01634D02*
Y01649D01*
X03337*
X03339Y01647*
Y01642*
X03337Y01639*
X03329*
X03334D02*
X03339Y01634D01*
X03355D02*
X03345D01*
X03355Y01644*
Y01647*
X03353Y01649*
X03347*
X03345Y01647*
X0336Y01649D02*
X03371D01*
Y01647*
X0336Y01636*
Y01634*
X02937Y03088D02*
Y03103D01*
X02945*
X02947Y03101*
Y03096*
X02945Y03093*
X02937*
X02942D02*
X02947Y03088D01*
X02963D02*
X02953D01*
X02963Y03098*
Y03101*
X0296Y03103*
X02955*
X02953Y03101*
X02979Y03103D02*
X02974Y03101D01*
X02968Y03096*
Y0309*
X02971Y03088*
X02976*
X02979Y0309*
Y03093*
X02976Y03096*
X02968*
X02952Y03164D02*
Y0318D01*
X0296*
X02962Y03177*
Y03172*
X0296Y03169*
X02952*
X02957D02*
X02962Y03164D01*
X02978D02*
X02967D01*
X02978Y03175*
Y03177*
X02975Y0318*
X0297*
X02967Y03177*
X02994Y0318D02*
X02983D01*
Y03172*
X02988Y03175*
X02991*
X02994Y03172*
Y03167*
X02991Y03164*
X02986*
X02983Y03167*
X02489Y02197D02*
X02473D01*
Y02204*
X02476Y02207*
X02481*
X02484Y02204*
Y02197*
Y02202D02*
X02489Y02207D01*
Y02223D02*
Y02212D01*
X02478Y02223*
X02476*
X02473Y0222*
Y02215*
X02476Y02212*
X02489Y02236D02*
X02473D01*
X02481Y02228*
Y02239*
X03919Y01295D02*
X03903D01*
Y01303*
X03906Y01305*
X03911*
X03914Y01303*
Y01295*
Y013D02*
X03919Y01305D01*
Y01321D02*
Y0131D01*
X03909Y01321*
X03906*
X03903Y01318*
Y01313*
X03906Y0131*
Y01326D02*
X03903Y01329D01*
Y01334*
X03906Y01337*
X03909*
X03911Y01334*
Y01331*
Y01334*
X03914Y01337*
X03917*
X03919Y01334*
Y01329*
X03917Y01326*
X03695Y01291D02*
X03679D01*
Y01299*
X03682Y01302*
X03687*
X0369Y01299*
Y01291*
Y01296D02*
X03695Y01302D01*
Y01317D02*
Y01307D01*
X03685Y01317*
X03682*
X03679Y01315*
Y01309*
X03682Y01307*
X03695Y01333D02*
Y01323D01*
X03685Y01333*
X03682*
X03679Y0133*
Y01325*
X03682Y01323*
X03931Y01653D02*
X03915D01*
Y01661*
X03918Y01663*
X03923*
X03926Y01661*
Y01653*
Y01658D02*
X03931Y01663D01*
Y01679D02*
Y01669D01*
X03921Y01679*
X03918*
X03915Y01676*
Y01671*
X03918Y01669*
X03931Y01684D02*
Y0169D01*
Y01687*
X03915*
X03918Y01684*
X02381Y02129D02*
X02365D01*
Y02137*
X02367Y02139*
X02373*
X02375Y02137*
Y02129*
Y02134D02*
X02381Y02139D01*
Y02155D02*
Y02145D01*
X0237Y02155*
X02367*
X02365Y02153*
Y02147*
X02367Y02145*
Y0216D02*
X02365Y02163D01*
Y02168*
X02367Y02171*
X02378*
X02381Y02168*
Y02163*
X02378Y0216*
X02367*
X02346Y02114D02*
X0233D01*
Y02122*
X02332Y02124*
X02338*
X0234Y02122*
Y02114*
Y02119D02*
X02346Y02124D01*
Y02129D02*
Y02135D01*
Y02132*
X0233*
X02332Y02129*
X02343Y02143D02*
X02346Y02145D01*
Y0215*
X02343Y02153*
X02332*
X0233Y0215*
Y02145*
X02332Y02143*
X02335*
X02338Y02145*
Y02153*
X02151Y02112D02*
X02135D01*
Y0212*
X02138Y02123*
X02143*
X02146Y0212*
Y02112*
Y02117D02*
X02151Y02123D01*
Y02128D02*
Y02133D01*
Y0213*
X02135*
X02138Y02128*
Y02141D02*
X02135Y02144D01*
Y02149*
X02138Y02151*
X02141*
X02143Y02149*
Y02146*
Y02149*
X02146Y02151*
X02148*
X02151Y02149*
Y02144*
X02148Y02141*
X02465Y03052D02*
Y03068D01*
X02473*
X02476Y03065*
Y0306*
X02473Y03058*
X02465*
X02471D02*
X02476Y03052D01*
X02481D02*
X02486D01*
X02484*
Y03068*
X02481Y03065*
X02505Y03052D02*
X02494D01*
X02505Y03063*
Y03065*
X02502Y03068*
X02497*
X02494Y03065*
X02516Y03053D02*
Y03068D01*
X02524*
X02526Y03066*
Y03061*
X02524Y03058*
X02516*
X02521D02*
X02526Y03053D01*
X02532D02*
X02537D01*
X02534*
Y03068*
X02532Y03066*
X02545Y03053D02*
X0255D01*
X02547*
Y03068*
X02545Y03066*
X02027Y02455D02*
Y0247D01*
X02035*
X02037Y02468*
Y02462*
X02035Y0246*
X02027*
X02032D02*
X02037Y02455D01*
X02043Y02457D02*
X02045Y02455D01*
X02051*
X02053Y02457*
Y02468*
X02051Y0247*
X02045*
X02043Y02468*
Y02465*
X02045Y02462*
X02053*
X01981Y02966D02*
Y02981D01*
X01989*
X01992Y02979*
Y02974*
X01989Y02971*
X01981*
X01987D02*
X01992Y02966D01*
X01997Y02979D02*
X02Y02981D01*
X02005*
X02008Y02979*
Y02976*
X02005Y02974*
X02008Y02971*
Y02968*
X02005Y02966*
X02*
X01997Y02968*
Y02971*
X02Y02974*
X01997Y02976*
Y02979*
X02Y02974D02*
X02005D01*
X01469Y0299D02*
Y03006D01*
X01477*
X0148Y03003*
Y02998*
X01477Y02995*
X01469*
X01475D02*
X0148Y0299D01*
X01485Y03006D02*
X01496D01*
Y03003*
X01485Y02993*
Y0299*
X02432Y01801D02*
Y01817D01*
X0244*
X02442Y01814*
Y01809*
X0244Y01806*
X02432*
X02437D02*
X02442Y01801D01*
X02458Y01817D02*
X02453Y01814D01*
X02447Y01809*
Y01804*
X0245Y01801*
X02455*
X02458Y01804*
Y01806*
X02455Y01809*
X02447*
X02389Y03092D02*
Y03107D01*
X02397*
X02399Y03105*
Y031*
X02397Y03097*
X02389*
X02394D02*
X02399Y03092D01*
X02415Y03107D02*
X02404D01*
Y031*
X0241Y03102*
X02412*
X02415Y031*
Y03094*
X02412Y03092*
X02407*
X02404Y03094*
X02501Y03196D02*
Y03212D01*
X02509*
X02511Y03209*
Y03204*
X02509Y03202*
X02501*
X02506D02*
X02511Y03196D01*
X02524D02*
Y03212D01*
X02517Y03204*
X02527*
X01886Y02816D02*
Y02831D01*
X01893*
X01896Y02829*
Y02824*
X01893Y02821*
X01886*
X01891D02*
X01896Y02816D01*
X01901Y02829D02*
X01904Y02831D01*
X01909*
X01912Y02829*
Y02826*
X01909Y02824*
X01907*
X01909*
X01912Y02821*
Y02818*
X01909Y02816*
X01904*
X01901Y02818*
X01366Y02836D02*
Y02852D01*
X01373*
X01376Y02849*
Y02844*
X01373Y02841*
X01366*
X01371D02*
X01376Y02836D01*
X01392D02*
X01381D01*
X01392Y02847*
Y02849*
X01389Y02852*
X01384*
X01381Y02849*
X03103Y02558D02*
Y02574D01*
X03111*
X03114Y02571*
Y02566*
X03111Y02563*
X03103*
X03108D02*
X03114Y02558D01*
X03119D02*
X03124D01*
X03122*
Y02574*
X03119Y02571*
X01824Y03011D02*
Y03022D01*
X01822Y03024*
X01817*
X01814Y03022*
Y03011*
X01817Y03009*
X01822*
X01819Y03014D02*
X01824Y03009D01*
X01822D02*
X01824Y03011D01*
X0184Y03009D02*
X0183D01*
X0184Y03019*
Y03022*
X01838Y03024*
X01832*
X0183Y03022*
X01431Y03018D02*
Y03028D01*
X01428Y03031*
X01423*
X0142Y03028*
Y03018*
X01423Y03015*
X01428*
X01425Y03021D02*
X01431Y03015D01*
X01428D02*
X01431Y03018D01*
X01436Y03015D02*
X01441D01*
X01438*
Y03031*
X01436Y03028*
X00688Y0246D02*
Y02444D01*
X00698*
X00714Y02458D02*
X00711Y0246D01*
X00706*
X00704Y02458*
Y02455*
X00706Y02452*
X00711*
X00714Y0245*
Y02447*
X00711Y02444*
X00706*
X00704Y02447*
X00719Y02444D02*
X00725D01*
X00722*
Y0246*
X00719Y02458*
X01534Y02707D02*
Y02691D01*
X01544*
X0156Y02707D02*
X01549D01*
Y02691*
X0156*
X01549Y02699D02*
X01554D01*
X01565Y02707D02*
Y02691D01*
X01573*
X01575Y02694*
Y02704*
X01573Y02707*
X01565*
X01581Y02691D02*
X01586D01*
X01583*
Y02707*
X01581Y02704*
X02766Y00423D02*
Y00407D01*
X02776*
X02792D02*
X02781D01*
X02792Y00418*
Y0042*
X02789Y00423*
X02784*
X02781Y0042*
X03167Y00042D02*
X03161D01*
X03164*
Y00029*
X03161Y00026*
X03159*
X03156Y00029*
X03182Y00026D02*
X03172D01*
X03182Y00036*
Y00039*
X0318Y00042*
X03174*
X03172Y00039*
X03198Y00026D02*
X03188D01*
X03198Y00036*
Y00039*
X03195Y00042*
X0319*
X03188Y00039*
X0389Y03196D02*
X03884D01*
X03887*
Y03183*
X03884Y0318*
X03882*
X03879Y03183*
X03905Y0318D02*
X03895D01*
X03905Y03191*
Y03193*
X03903Y03196*
X03898*
X03895Y03193*
X03911Y0318D02*
X03916D01*
X03913*
Y03196*
X03911Y03193*
X03284Y02762D02*
X03279D01*
X03282*
Y02749*
X03279Y02746*
X03276*
X03274Y02749*
X033Y02746D02*
X0329D01*
X033Y02757*
Y02759*
X03297Y02762*
X03292*
X0329Y02759*
X03305D02*
X03308Y02762D01*
X03313*
X03316Y02759*
Y02749*
X03313Y02746*
X03308*
X03305Y02749*
Y02759*
X02514Y00343D02*
X02509D01*
X02511*
Y0033*
X02509Y00327*
X02506*
X02503Y0033*
X02519Y00327D02*
X02524D01*
X02522*
Y00343*
X02519Y00341*
X02532Y0033D02*
X02535Y00327D01*
X0254*
X02543Y0033*
Y00341*
X0254Y00343*
X02535*
X02532Y00341*
Y00338*
X02535Y00335*
X02543*
X00088Y01042D02*
X00083D01*
X00085*
Y01029*
X00083Y01027*
X0008*
X00077Y01029*
X00093Y01027D02*
X00098D01*
X00096*
Y01042*
X00093Y0104*
X00106D02*
X00109Y01042D01*
X00114*
X00117Y0104*
Y01037*
X00114Y01035*
X00117Y01032*
Y01029*
X00114Y01027*
X00109*
X00106Y01029*
Y01032*
X00109Y01035*
X00106Y01037*
Y0104*
X00109Y01035D02*
X00114D01*
X02973Y01902D02*
X02968D01*
X02971*
Y01889*
X02968Y01887*
X02966*
X02963Y01889*
X02979Y01887D02*
X02984D01*
X02981*
Y01902*
X02979Y019*
X02992Y01902D02*
X03002D01*
Y019*
X02992Y01889*
Y01887*
X01295Y03031D02*
X0129D01*
X01293*
Y03018*
X0129Y03016*
X01288*
X01285Y03018*
X01301Y03016D02*
X01306D01*
X01303*
Y03031*
X01301Y03029*
X01324Y03031D02*
X01319Y03029D01*
X01314Y03024*
Y03018*
X01316Y03016*
X01322*
X01324Y03018*
Y03021*
X01322Y03024*
X01314*
X00609Y03702D02*
Y03697D01*
Y037*
X00622*
X00625Y03697*
Y03695*
X00622Y03692*
X00625Y03708D02*
Y03713D01*
Y0371*
X00609*
X00612Y03708*
X00609Y03731D02*
Y03721D01*
X00617*
X00614Y03726*
Y03729*
X00617Y03731*
X00622*
X00625Y03729*
Y03723*
X00622Y03721*
X0061Y02927D02*
Y02922D01*
Y02924*
X00623*
X00626Y02922*
Y02919*
X00623Y02916*
X00626Y02932D02*
Y02937D01*
Y02935*
X0061*
X00613Y02932*
X00626Y02953D02*
X0061D01*
X00618Y02945*
Y02956*
X03638Y00962D02*
X03633D01*
X03635*
Y00949*
X03633Y00946*
X0363*
X03627Y00949*
X03643Y00946D02*
X03648D01*
X03646*
Y00962*
X03643Y00959*
X03656D02*
X03659Y00962D01*
X03664*
X03667Y00959*
Y00957*
X03664Y00954*
X03662*
X03664*
X03667Y00952*
Y00949*
X03664Y00946*
X03659*
X03656Y00949*
X03881Y01242D02*
X03876D01*
X03879*
Y01229*
X03876Y01227*
X03873*
X03871Y01229*
X03887Y01227D02*
X03892D01*
X03889*
Y01242*
X03887Y0124*
X0391Y01227D02*
X039D01*
X0391Y01237*
Y0124*
X03908Y01242*
X03902*
X039Y0124*
X03689Y0013D02*
X03683D01*
X03686*
Y00117*
X03683Y00114*
X03681*
X03678Y00117*
X03694Y00114D02*
X03699D01*
X03696*
Y0013*
X03694Y00127*
X03707Y00114D02*
X03712D01*
X0371*
Y0013*
X03707Y00127*
X01412Y03924D02*
X01407D01*
X0141*
Y03911*
X01407Y03908*
X01404*
X01402Y03911*
X01418Y03908D02*
X01423D01*
X0142*
Y03924*
X01418Y03921*
X01431D02*
X01433Y03924D01*
X01439*
X01441Y03921*
Y03911*
X01439Y03908*
X01433*
X01431Y03911*
Y03921*
X02967Y03292D02*
X02962D01*
X02964*
Y03279*
X02962Y03276*
X02959*
X02957Y03279*
X02972D02*
X02975Y03276D01*
X0298*
X02983Y03279*
Y03289*
X0298Y03292*
X02975*
X02972Y03289*
Y03287*
X02975Y03284*
X02983*
X03667Y03286D02*
X03661D01*
X03664*
Y03273*
X03661Y0327*
X03659*
X03656Y03273*
X03672Y03283D02*
X03675Y03286D01*
X0368*
X03682Y03283*
Y0328*
X0368Y03278*
X03682Y03275*
Y03273*
X0368Y0327*
X03675*
X03672Y03273*
Y03275*
X03675Y03278*
X03672Y0328*
Y03283*
X03675Y03278D02*
X0368D01*
X02903Y00694D02*
X02898D01*
X029*
Y00681*
X02898Y00679*
X02895*
X02892Y00681*
X02908Y00694D02*
X02919D01*
Y00692*
X02908Y00681*
Y00679*
X00745Y01086D02*
X0074D01*
X00743*
Y01073*
X0074Y0107*
X00737*
X00735Y01073*
X00761Y01086D02*
X00756Y01083D01*
X00751Y01078*
Y01073*
X00753Y0107*
X00758*
X00761Y01073*
Y01075*
X00758Y01078*
X00751*
X01403Y02423D02*
X01398D01*
X01401*
Y0241*
X01398Y02407*
X01395*
X01393Y0241*
X01419Y02423D02*
X01408D01*
Y02415*
X01414Y02418*
X01416*
X01419Y02415*
Y0241*
X01416Y02407*
X01411*
X01408Y0241*
X01969Y02673D02*
X01964D01*
X01967*
Y0266*
X01964Y02657*
X01961*
X01959Y0266*
X01982Y02657D02*
Y02673D01*
X01975Y02665*
X01985*
X01987Y03276D02*
X01982D01*
X01985*
Y03263*
X01982Y03261*
X0198*
X01977Y03263*
X01993Y03274D02*
X01995Y03276D01*
X02001*
X02003Y03274*
Y03271*
X02001Y03268*
X01998*
X02001*
X02003Y03266*
Y03263*
X02001Y03261*
X01995*
X01993Y03263*
X00688Y03279D02*
X00683D01*
X00686*
Y03266*
X00683Y03263*
X0068*
X00678Y03266*
X00704Y03263D02*
X00693D01*
X00704Y03274*
Y03276*
X00701Y03279*
X00696*
X00693Y03276*
X03573Y03281D02*
X03567D01*
X0357*
Y03268*
X03567Y03265*
X03565*
X03562Y03268*
X03578Y03265D02*
X03583D01*
X03581*
Y03281*
X03578Y03278*
X00789Y00112D02*
X00779D01*
Y00104*
X00784*
X00779*
Y00096*
X00805D02*
X00794D01*
X00805Y00106*
Y00109*
X00802Y00112*
X00797*
X00794Y00109*
X01714Y01018D02*
X01704D01*
Y0101*
X01709*
X01704*
Y01002*
X01719D02*
X01725D01*
X01722*
Y01018*
X01719Y01015*
X03311Y00714D02*
Y00698D01*
X03319*
X03322Y00701*
Y00711*
X03319Y00714*
X03311*
X03327Y00698D02*
X03332D01*
X0333*
Y00714*
X03327Y00711*
X0334D02*
X03343Y00714D01*
X03348*
X03351Y00711*
Y00709*
X03348Y00706*
X03345*
X03348*
X03351Y00704*
Y00701*
X03348Y00698*
X03343*
X0334Y00701*
X03126Y02946D02*
X03142D01*
Y02954*
X03139Y02956*
X03129*
X03126Y02954*
Y02946*
X03142Y02962D02*
Y02967D01*
Y02964*
X03126*
X03129Y02962*
X03142Y02985D02*
Y02975D01*
X03131Y02985*
X03129*
X03126Y02983*
Y02977*
X03129Y02975*
X0292Y00098D02*
Y00082D01*
X02928*
X0293Y00085*
Y00095*
X02928Y00098*
X0292*
X02936Y00082D02*
X02941D01*
X02938*
Y00098*
X02936Y00095*
X02949Y00082D02*
X02954D01*
X02951*
Y00098*
X02949Y00095*
X0309Y00233D02*
Y00218D01*
X03098*
X03101Y0022*
Y00231*
X03098Y00233*
X0309*
X03106Y00218D02*
X03111D01*
X03108*
Y00233*
X03106Y00231*
X03119D02*
X03122Y00233D01*
X03127*
X03129Y00231*
Y0022*
X03127Y00218*
X03122*
X03119Y0022*
Y00231*
X03339Y01924D02*
Y01908D01*
X03347*
X0335Y01911*
Y01921*
X03347Y01924*
X03339*
X03355Y01921D02*
X03358Y01924D01*
X03363*
X03365Y01921*
Y01919*
X03363Y01916*
X03365Y01913*
Y01911*
X03363Y01908*
X03358*
X03355Y01911*
Y01913*
X03358Y01916*
X03355Y01919*
Y01921*
X03358Y01916D02*
X03363D01*
X01745Y02188D02*
Y02172D01*
X01753*
X01756Y02175*
Y02185*
X01753Y02188*
X01745*
X01761D02*
X01771D01*
Y02185*
X01761Y02175*
Y02172*
X01395Y02187D02*
Y02171D01*
X01403*
X01405Y02174*
Y02184*
X01403Y02187*
X01395*
X01421D02*
X01416Y02184D01*
X0141Y02179*
Y02174*
X01413Y02171*
X01418*
X01421Y02174*
Y02176*
X01418Y02179*
X0141*
X01742Y0232D02*
Y02305D01*
X0175*
X01753Y02307*
Y02318*
X0175Y0232*
X01742*
X01769D02*
X01758D01*
Y02312*
X01763Y02315*
X01766*
X01769Y02312*
Y02307*
X01766Y02305*
X01761*
X01758Y02307*
X01396Y02319D02*
Y02303D01*
X01404*
X01406Y02306*
Y02316*
X01404Y02319*
X01396*
X01419Y02303D02*
Y02319D01*
X01412Y02311*
X01422*
X02825Y03294D02*
Y03279D01*
X02832*
X02835Y03281*
Y03292*
X02832Y03294*
X02825*
X0284Y03292D02*
X02843Y03294D01*
X02848*
X02851Y03292*
Y03289*
X02848Y03287*
X02846*
X02848*
X02851Y03284*
Y03281*
X02848Y03279*
X02843*
X0284Y03281*
X01799Y02802D02*
Y02787D01*
X01807*
X0181Y02789*
Y028*
X01807Y02802*
X01799*
X01826Y02787D02*
X01815D01*
X01826Y02797*
Y028*
X01823Y02802*
X01818*
X01815Y028*
X00657Y02812D02*
Y02796D01*
X00665*
X00668Y02799*
Y02809*
X00665Y02812*
X00657*
X00673Y02796D02*
X00678D01*
X00675*
Y02812*
X00673Y02809*
X03348Y00509D02*
X03346Y00511D01*
X0334*
X03338Y00509*
Y00498*
X0334Y00496*
X03346*
X03348Y00498*
X03353Y00496D02*
Y00511D01*
X03361*
X03364Y00509*
Y00503*
X03361Y00501*
X03353*
X03359D02*
X03364Y00496D01*
X03369D02*
X03374D01*
X03372*
Y00511*
X03369Y00509*
X03393Y00511D02*
X03388Y00509D01*
X03382Y00503*
Y00498*
X03385Y00496*
X0339*
X03393Y00498*
Y00501*
X0339Y00503*
X03382*
X03434Y00509D02*
X03431Y00512D01*
X03426*
X03423Y00509*
Y00498*
X03426Y00496*
X03431*
X03434Y00498*
X03439Y00496D02*
Y00512D01*
X03447*
X03449Y00509*
Y00504*
X03447Y00501*
X03439*
X03444D02*
X03449Y00496D01*
X03455D02*
X0346D01*
X03457*
Y00512*
X03455Y00509*
X03478Y00512D02*
X03468D01*
Y00504*
X03473Y00506*
X03476*
X03478Y00504*
Y00498*
X03476Y00496*
X0347*
X03468Y00498*
X0341Y02942D02*
X03408Y02944D01*
X03403*
X034Y02942*
Y02931*
X03403Y02929*
X03408*
X0341Y02931*
X03416Y02929D02*
Y02944D01*
X03424*
X03426Y02942*
Y02937*
X03424Y02934*
X03416*
X03421D02*
X03426Y02929D01*
X03431D02*
X03437D01*
X03434*
Y02944*
X03431Y02942*
X03452Y02929D02*
Y02944D01*
X03445Y02937*
X03455*
X03408Y02994D02*
X03406Y02997D01*
X03401*
X03398Y02994*
Y02984*
X03401Y02981*
X03406*
X03408Y02984*
X03414Y02981D02*
Y02997D01*
X03422*
X03424Y02994*
Y02989*
X03422Y02986*
X03414*
X03419D02*
X03424Y02981D01*
X03429D02*
X03435D01*
X03432*
Y02997*
X03429Y02994*
X03443D02*
X03445Y02997D01*
X0345*
X03453Y02994*
Y02991*
X0345Y02989*
X03448*
X0345*
X03453Y02986*
Y02984*
X0345Y02981*
X03445*
X03443Y02984*
X03219Y02242D02*
X03217Y02245D01*
X03212*
X03209Y02242*
Y02232*
X03212Y02229*
X03217*
X03219Y02232*
X03225Y02229D02*
Y02245D01*
X03233*
X03235Y02242*
Y02237*
X03233Y02234*
X03225*
X0323D02*
X03235Y02229D01*
X0324D02*
X03246D01*
X03243*
Y02245*
X0324Y02242*
X03264Y02229D02*
X03254D01*
X03264Y0224*
Y02242*
X03261Y02245*
X03256*
X03254Y02242*
X031Y0227D02*
X03098Y02273D01*
X03093*
X0309Y0227*
Y0226*
X03093Y02257*
X03098*
X031Y0226*
X03106Y02257D02*
Y02273D01*
X03114*
X03116Y0227*
Y02265*
X03114Y02262*
X03106*
X03111D02*
X03116Y02257D01*
X03121D02*
X03127D01*
X03124*
Y02273*
X03121Y0227*
X03135Y02257D02*
X0314D01*
X03137*
Y02273*
X03135Y0227*
X03218Y02089D02*
X03215Y02091D01*
X0321*
X03207Y02089*
Y02078*
X0321Y02075*
X03215*
X03218Y02078*
X03223Y02075D02*
Y02091D01*
X03231*
X03234Y02089*
Y02083*
X03231Y02081*
X03223*
X03228D02*
X03234Y02075D01*
X03239D02*
X03244D01*
X03241*
Y02091*
X03239Y02089*
X03252D02*
X03255Y02091D01*
X0326*
X03262Y02089*
Y02078*
X0326Y02075*
X03255*
X03252Y02078*
Y02089*
X03107Y02353D02*
X03104Y02355D01*
X03099*
X03097Y02353*
Y02342*
X03099Y0234*
X03104*
X03107Y02342*
X03112Y0234D02*
Y02355D01*
X0312*
X03123Y02353*
Y02348*
X0312Y02345*
X03112*
X03118D02*
X03123Y0234D01*
X03128Y02342D02*
X03131Y0234D01*
X03136*
X03139Y02342*
Y02353*
X03136Y02355*
X03131*
X03128Y02353*
Y0235*
X03131Y02348*
X03139*
X03236Y02385D02*
X03234Y02388D01*
X03228*
X03226Y02385*
Y02375*
X03228Y02372*
X03234*
X03236Y02375*
X03241Y02372D02*
Y02388D01*
X03249*
X03252Y02385*
Y0238*
X03249Y02378*
X03241*
X03247D02*
X03252Y02372D01*
X03257Y02385D02*
X0326Y02388D01*
X03265*
X03268Y02385*
Y02383*
X03265Y0238*
X03268Y02378*
Y02375*
X03265Y02372*
X0326*
X03257Y02375*
Y02378*
X0326Y0238*
X03257Y02383*
Y02385*
X0326Y0238D02*
X03265D01*
X03174Y02512D02*
X03171Y02514D01*
X03166*
X03163Y02512*
Y02501*
X03166Y02499*
X03171*
X03174Y02501*
X03179Y02499D02*
Y02514D01*
X03187*
X03189Y02512*
Y02507*
X03187Y02504*
X03179*
X03184D02*
X03189Y02499D01*
X03195Y02514D02*
X03205D01*
Y02512*
X03195Y02501*
Y02499*
X03757Y01304D02*
X03754Y01302D01*
Y01296*
X03757Y01294*
X03767*
X0377Y01296*
Y01302*
X03767Y01304*
X0377Y0131D02*
X03754D01*
Y01317*
X03757Y0132*
X03762*
X03765Y01317*
Y0131*
Y01315D02*
X0377Y0132D01*
X03754Y01336D02*
X03757Y01331D01*
X03762Y01325*
X03767*
X0377Y01328*
Y01333*
X03767Y01336*
X03765*
X03762Y01333*
Y01325*
X03576Y01286D02*
X03574Y01289D01*
X03568*
X03566Y01286*
Y01276*
X03568Y01273*
X03574*
X03576Y01276*
X03581Y01273D02*
Y01289D01*
X03589*
X03592Y01286*
Y01281*
X03589Y01278*
X03581*
X03587D02*
X03592Y01273D01*
X03608Y01289D02*
X03597D01*
Y01281*
X03602Y01284*
X03605*
X03608Y01281*
Y01276*
X03605Y01273*
X036*
X03597Y01276*
X03725Y01656D02*
X03722Y01653D01*
Y01648*
X03725Y01645*
X03735*
X03738Y01648*
Y01653*
X03735Y01656*
X03738Y01661D02*
X03722D01*
Y01669*
X03725Y01672*
X0373*
X03732Y01669*
Y01661*
Y01666D02*
X03738Y01672D01*
Y01685D02*
X03722D01*
X0373Y01677*
Y01687*
X03643Y01657D02*
X0364Y01654D01*
Y01649*
X03643Y01647*
X03654*
X03656Y01649*
Y01654*
X03654Y01657*
X03656Y01662D02*
X0364D01*
Y0167*
X03643Y01673*
X03648*
X03651Y0167*
Y01662*
Y01668D02*
X03656Y01673D01*
X03643Y01678D02*
X0364Y01681D01*
Y01686*
X03643Y01689*
X03646*
X03648Y01686*
Y01683*
Y01686*
X03651Y01689*
X03654*
X03656Y01686*
Y01681*
X03654Y01678*
X02399Y01682D02*
X02397Y01685D01*
X02391*
X02389Y01682*
Y01671*
X02391Y01669*
X02397*
X02399Y01671*
X02404Y01669D02*
Y01685D01*
X02412*
X02415Y01682*
Y01677*
X02412Y01674*
X02404*
X0241D02*
X02415Y01669D01*
X02431D02*
X0242D01*
X02431Y01679*
Y01682*
X02428Y01685*
X02423*
X0242Y01682*
X02709Y02088D02*
X02706Y02085D01*
Y0208*
X02709Y02078*
X02719*
X02722Y0208*
Y02085*
X02719Y02088*
X02722Y02093D02*
X02706D01*
Y02101*
X02709Y02104*
X02714*
X02716Y02101*
Y02093*
Y02099D02*
X02722Y02104D01*
Y02109D02*
Y02114D01*
Y02112*
X02706*
X02709Y02109*
X03448Y00857D02*
X03445Y00859D01*
X0344*
X03438Y00857*
Y00846*
X0344Y00844*
X03445*
X03448Y00846*
X03453Y00857D02*
X03456Y00859D01*
X03461*
X03464Y00857*
Y00854*
X03461Y00851*
X03459*
X03461*
X03464Y00849*
Y00846*
X03461Y00844*
X03456*
X03453Y00846*
X03469D02*
X03472Y00844D01*
X03477*
X0348Y00846*
Y00857*
X03477Y00859*
X03472*
X03469Y00857*
Y00854*
X03472Y00851*
X0348*
X0335Y00778D02*
X03347Y0078D01*
X03342*
X03339Y00778*
Y00767*
X03342Y00764*
X03347*
X0335Y00767*
X03355Y00778D02*
X03358Y0078D01*
X03363*
X03365Y00778*
Y00775*
X03363Y00772*
X0336*
X03363*
X03365Y0077*
Y00767*
X03363Y00764*
X03358*
X03355Y00767*
X03371Y00778D02*
X03373Y0078D01*
X03378*
X03381Y00778*
Y00775*
X03378Y00772*
X03381Y0077*
Y00767*
X03378Y00764*
X03373*
X03371Y00767*
Y0077*
X03373Y00772*
X03371Y00775*
Y00778*
X03373Y00772D02*
X03378D01*
X0318Y0087D02*
X03178Y00873D01*
X03172*
X0317Y0087*
Y0086*
X03172Y00857*
X03178*
X0318Y0086*
X03186Y0087D02*
X03188Y00873D01*
X03193*
X03196Y0087*
Y00867*
X03193Y00865*
X03191*
X03193*
X03196Y00862*
Y0086*
X03193Y00857*
X03188*
X03186Y0086*
X03201Y00873D02*
X03212D01*
Y0087*
X03201Y0086*
Y00857*
X01863Y02072D02*
X01859D01*
X01856Y02068*
Y02064*
X01863Y02057*
X01867*
X01871Y02061*
Y02064*
X01867Y02075D02*
Y02079D01*
X01871Y02083*
X01874*
X01876Y02081*
Y02077*
X01874Y02075*
X01876Y02077*
X0188*
X01882Y02075*
Y02072*
X01878Y02068*
X01874*
X01884Y02096D02*
X01882Y0209D01*
Y02083*
X01885Y02079*
X01889*
X01893Y02083*
Y02087*
X01891Y02088*
X01887*
X01882Y02083*
X03206Y02301D02*
X03203Y02299D01*
Y02293*
X03206Y02291*
X03216*
X03219Y02293*
Y02299*
X03216Y02301*
X03206Y02307D02*
X03203Y02309D01*
Y02314*
X03206Y02317*
X03208*
X03211Y02314*
Y02312*
Y02314*
X03214Y02317*
X03216*
X03219Y02314*
Y02309*
X03216Y02307*
X03203Y02333D02*
Y02322D01*
X03211*
X03208Y02328*
Y0233*
X03211Y02333*
X03216*
X03219Y0233*
Y02325*
X03216Y02322*
X02975Y0225D02*
X02973Y02252D01*
X02967*
X02965Y0225*
Y02239*
X02967Y02237*
X02973*
X02975Y02239*
X0298Y0225D02*
X02983Y02252D01*
X02988*
X02991Y0225*
Y02247*
X02988Y02244*
X02986*
X02988*
X02991Y02242*
Y02239*
X02988Y02237*
X02983*
X0298Y02239*
X03004Y02237D02*
Y02252D01*
X02996Y02244*
X03007*
X02372Y00216D02*
X0237Y00219D01*
X02365*
X02362Y00216*
Y00206*
X02365Y00203*
X0237*
X02372Y00206*
X02378Y00216D02*
X0238Y00219D01*
X02386*
X02388Y00216*
Y00214*
X02386Y00211*
X02383*
X02386*
X02388Y00208*
Y00206*
X02386Y00203*
X0238*
X02378Y00206*
X02393Y00216D02*
X02396Y00219D01*
X02401*
X02404Y00216*
Y00214*
X02401Y00211*
X02399*
X02401*
X02404Y00208*
Y00206*
X02401Y00203*
X02396*
X02393Y00206*
X03006Y00553D02*
X03003Y00556D01*
X02998*
X02995Y00553*
Y00543*
X02998Y0054*
X03003*
X03006Y00543*
X03011Y00553D02*
X03014Y00556D01*
X03019*
X03022Y00553*
Y00551*
X03019Y00548*
X03016*
X03019*
X03022Y00545*
Y00543*
X03019Y0054*
X03014*
X03011Y00543*
X03037Y0054D02*
X03027D01*
X03037Y00551*
Y00553*
X03035Y00556*
X0303*
X03027Y00553*
X02862Y00556D02*
X0286Y00559D01*
X02855*
X02852Y00556*
Y00545*
X02855Y00543*
X0286*
X02862Y00545*
X02868Y00556D02*
X0287Y00559D01*
X02876*
X02878Y00556*
Y00553*
X02876Y00551*
X02873*
X02876*
X02878Y00548*
Y00545*
X02876Y00543*
X0287*
X02868Y00545*
X02883Y00543D02*
X02889D01*
X02886*
Y00559*
X02883Y00556*
X02256Y00491D02*
X02254Y00493D01*
X02248*
X02246Y00491*
Y0048*
X02248Y00477*
X02254*
X02256Y0048*
X02262Y00491D02*
X02264Y00493D01*
X02269*
X02272Y00491*
Y00488*
X02269Y00485*
X02267*
X02269*
X02272Y00483*
Y0048*
X02269Y00477*
X02264*
X02262Y0048*
X02277Y00491D02*
X0228Y00493D01*
X02285*
X02288Y00491*
Y0048*
X02285Y00477*
X0228*
X02277Y0048*
Y00491*
X02173Y0049D02*
X02171Y00492D01*
X02165*
X02163Y0049*
Y00479*
X02165Y00477*
X02171*
X02173Y00479*
X02189Y00477D02*
X02179D01*
X02189Y00487*
Y0049*
X02186Y00492*
X02181*
X02179Y0049*
X02194Y00479D02*
X02197Y00477D01*
X02202*
X02205Y00479*
Y0049*
X02202Y00492*
X02197*
X02194Y0049*
Y00487*
X02197Y00485*
X02205*
X02093Y00489D02*
X02091Y00492D01*
X02085*
X02083Y00489*
Y00479*
X02085Y00476*
X02091*
X02093Y00479*
X02109Y00476D02*
X02099D01*
X02109Y00486*
Y00489*
X02106Y00492*
X02101*
X02099Y00489*
X02114D02*
X02117Y00492D01*
X02122*
X02125Y00489*
Y00486*
X02122Y00484*
X02125Y00481*
Y00479*
X02122Y00476*
X02117*
X02114Y00479*
Y00481*
X02117Y00484*
X02114Y00486*
Y00489*
X02117Y00484D02*
X02122D01*
X02438Y00629D02*
X02436Y00631D01*
X0243*
X02428Y00629*
Y00618*
X0243Y00616*
X02436*
X02438Y00618*
X02454Y00616D02*
X02443D01*
X02454Y00626*
Y00629*
X02451Y00631*
X02446*
X02443Y00629*
X02459Y00631D02*
X0247D01*
Y00629*
X02459Y00618*
Y00616*
X0295Y01681D02*
X02948Y01684D01*
X02943*
X0294Y01681*
Y01671*
X02943Y01668*
X02948*
X0295Y01671*
X02966Y01668D02*
X02956D01*
X02966Y01679*
Y01681*
X02964Y01684*
X02958*
X02956Y01681*
X02982Y01684D02*
X02977Y01681D01*
X02971Y01676*
Y01671*
X02974Y01668*
X02979*
X02982Y01671*
Y01673*
X02979Y01676*
X02971*
X03226Y01895D02*
X03223Y01898D01*
X03218*
X03216Y01895*
Y01885*
X03218Y01882*
X03223*
X03226Y01885*
X03242Y01882D02*
X03231D01*
X03242Y01893*
Y01895*
X03239Y01898*
X03234*
X03231Y01895*
X03258Y01898D02*
X03247D01*
Y0189*
X03252Y01893*
X03255*
X03258Y0189*
Y01885*
X03255Y01882*
X0325*
X03247Y01885*
X02907Y01921D02*
X02904Y01924D01*
X02899*
X02896Y01921*
Y01911*
X02899Y01908*
X02904*
X02907Y01911*
X02922Y01908D02*
X02912D01*
X02922Y01919*
Y01921*
X0292Y01924*
X02915*
X02912Y01921*
X02936Y01908D02*
Y01924D01*
X02928Y01916*
X02938*
X01992Y03211D02*
X0199Y03214D01*
X01984*
X01982Y03211*
Y03201*
X01984Y03198*
X0199*
X01992Y03201*
X02008Y03198D02*
X01997D01*
X02008Y03209*
Y03211*
X02005Y03214*
X02*
X01997Y03211*
X02013D02*
X02016Y03214D01*
X02021*
X02024Y03211*
Y03209*
X02021Y03206*
X02018*
X02021*
X02024Y03204*
Y03201*
X02021Y03198*
X02016*
X02013Y03201*
X02608Y03013D02*
X02605Y03016D01*
X026*
X02597Y03013*
Y03003*
X026Y03*
X02605*
X02608Y03003*
X02623Y03D02*
X02613D01*
X02623Y03011*
Y03013*
X02621Y03016*
X02615*
X02613Y03013*
X02639Y03D02*
X02629D01*
X02639Y03011*
Y03013*
X02636Y03016*
X02631*
X02629Y03013*
X0263Y02164D02*
X02627Y02167D01*
X02622*
X02619Y02164*
Y02154*
X02622Y02151*
X02627*
X0263Y02154*
X02645Y02151D02*
X02635D01*
X02645Y02162*
Y02164*
X02643Y02167*
X02637*
X02635Y02164*
X02651D02*
X02653Y02167D01*
X02658*
X02661Y02164*
Y02154*
X02658Y02151*
X02653*
X02651Y02154*
Y02164*
X02029Y02338D02*
X02027Y0234D01*
X02021*
X02019Y02338*
Y02327*
X02021Y02325*
X02027*
X02029Y02327*
X02035Y02325D02*
X0204D01*
X02037*
Y0234*
X02035Y02338*
X02048Y02327D02*
X0205Y02325D01*
X02056*
X02058Y02327*
Y02338*
X02056Y0234*
X0205*
X02048Y02338*
Y02335*
X0205Y02333*
X02058*
X02099Y02992D02*
X02097Y02994D01*
X02092*
X02089Y02992*
Y02981*
X02092Y02979*
X02097*
X02099Y02981*
X02105Y02979D02*
X0211D01*
X02107*
Y02994*
X02105Y02992*
X02118D02*
X0212Y02994D01*
X02126*
X02128Y02992*
Y02989*
X02126Y02986*
X02128Y02984*
Y02981*
X02126Y02979*
X0212*
X02118Y02981*
Y02984*
X0212Y02986*
X02118Y02989*
Y02992*
X0212Y02986D02*
X02126D01*
X02829Y03125D02*
X02826Y03127D01*
X02821*
X02818Y03125*
Y03114*
X02821Y03112*
X02826*
X02829Y03114*
X02834Y03112D02*
X02839D01*
X02836*
Y03127*
X02834Y03125*
X02847Y03127D02*
X02857D01*
Y03125*
X02847Y03114*
Y03112*
X02889Y03063D02*
X02886Y03066D01*
X02881*
X02878Y03063*
Y03053*
X02881Y0305*
X02886*
X02889Y03053*
X02894Y0305D02*
X02899D01*
X02897*
Y03066*
X02894Y03063*
X02918Y03066D02*
X02912Y03063D01*
X02907Y03058*
Y03053*
X0291Y0305*
X02915*
X02918Y03053*
Y03055*
X02915Y03058*
X02907*
X02755Y03125D02*
X02752Y03128D01*
X02747*
X02744Y03125*
Y03115*
X02747Y03112*
X02752*
X02755Y03115*
X0276Y03112D02*
X02765D01*
X02763*
Y03128*
X0276Y03125*
X02784Y03128D02*
X02773D01*
Y0312*
X02778Y03123*
X02781*
X02784Y0312*
Y03115*
X02781Y03112*
X02776*
X02773Y03115*
X0269Y03056D02*
X02687Y03058D01*
X02682*
X02679Y03056*
Y03045*
X02682Y03042*
X02687*
X0269Y03045*
X02695Y03042D02*
X027D01*
X02698*
Y03058*
X02695Y03056*
X02716Y03042D02*
Y03058D01*
X02708Y0305*
X02719*
X0215Y03094D02*
X02147Y03096D01*
X02142*
X02139Y03094*
Y03083*
X02142Y03081*
X02147*
X0215Y03083*
X02155Y03081D02*
X0216D01*
X02158*
Y03096*
X02155Y03094*
X02168D02*
X02171Y03096D01*
X02176*
X02179Y03094*
Y03091*
X02176Y03088*
X02173*
X02176*
X02179Y03086*
Y03083*
X02176Y03081*
X02171*
X02168Y03083*
X0209Y01179D02*
X02087Y01181D01*
X02082*
X02079Y01179*
Y01168*
X02082Y01166*
X02087*
X0209Y01168*
X02095Y01166D02*
X021D01*
X02097*
Y01181*
X02095Y01179*
X02108D02*
X02111Y01181D01*
X02116*
X02118Y01179*
Y01168*
X02116Y01166*
X02111*
X02108Y01168*
Y01179*
X02893Y02582D02*
X02891Y02585D01*
X02885*
X02883Y02582*
Y02571*
X02885Y02569*
X02891*
X02893Y02571*
X02899D02*
X02901Y02569D01*
X02906*
X02909Y02571*
Y02582*
X02906Y02585*
X02901*
X02899Y02582*
Y02579*
X02901Y02577*
X02909*
X02892Y02457D02*
X0289Y02459D01*
X02884*
X02882Y02457*
Y02446*
X02884Y02444*
X0289*
X02892Y02446*
X02897Y02457D02*
X029Y02459D01*
X02905*
X02908Y02457*
Y02454*
X02905Y02451*
X02908Y02449*
Y02446*
X02905Y02444*
X029*
X02897Y02446*
Y02449*
X029Y02451*
X02897Y02454*
Y02457*
X029Y02451D02*
X02905D01*
X03139Y02657D02*
X03136Y0266D01*
X03131*
X03129Y02657*
Y02647*
X03131Y02644*
X03136*
X03139Y02647*
X03144Y0266D02*
X03155D01*
Y02657*
X03144Y02647*
Y02644*
X01178Y01361D02*
X01175Y01363D01*
X0117*
X01167Y01361*
Y0135*
X0117Y01348*
X01175*
X01178Y0135*
X01194Y01363D02*
X01188Y01361D01*
X01183Y01355*
Y0135*
X01186Y01348*
X01191*
X01194Y0135*
Y01353*
X01191Y01355*
X01183*
X0296Y0266D02*
X02956D01*
X02952Y02656*
Y02653*
X0296Y02645*
X02963*
X02967Y02649*
Y02653*
X02969Y02673D02*
X02962Y02666D01*
X02967Y0266*
X02969Y02666*
X02971Y02667*
X02975*
X02978Y02664*
Y0266*
X02975Y02656*
X02971*
X02965Y02848D02*
X02961D01*
X02958Y02844*
Y0284*
X02965Y02833*
X02969*
X02973Y02837*
Y0284*
X02984Y02848D02*
X02973Y02859D01*
Y02848*
X0298Y02855*
X01681Y01364D02*
X01678Y01367D01*
X01673*
X0167Y01364*
Y01354*
X01673Y01351*
X01678*
X01681Y01354*
X01686Y01364D02*
X01689Y01367D01*
X01694*
X01696Y01364*
Y01362*
X01694Y01359*
X01691*
X01694*
X01696Y01356*
Y01354*
X01694Y01351*
X01689*
X01686Y01354*
X03238Y02547D02*
X03236Y02549D01*
X0323*
X03228Y02547*
Y02536*
X0323Y02534*
X03236*
X03238Y02536*
X03254Y02534D02*
X03243D01*
X03254Y02544*
Y02547*
X03251Y02549*
X03246*
X03243Y02547*
X02232Y03259D02*
X02229Y03261D01*
X02224*
X02221Y03259*
Y03248*
X02224Y03246*
X02229*
X02232Y03248*
X02237Y03246D02*
X02242D01*
X0224*
Y03261*
X02237Y03259*
G54D12*
X02645Y03261D02*
D01*
X02645Y03261*
X02645Y03261*
X02645Y03262*
X02645Y03262*
X02645Y03262*
X02644Y03262*
X02644Y03262*
X02644Y03263*
X02644Y03263*
X02644Y03263*
X02644Y03263*
X02644Y03263*
X02644Y03263*
X02643Y03264*
X02643Y03264*
X02643Y03264*
X02643Y03264*
X02643Y03264*
X02642Y03264*
X02642Y03264*
X02642Y03264*
X02642Y03264*
X02642*
X02641Y03264*
X02641Y03264*
X02641Y03264*
X02641Y03264*
X02641Y03264*
X0264Y03264*
X0264Y03264*
X0264Y03264*
X0264Y03263*
X0264Y03263*
X0264Y03263*
X02639Y03263*
X02639Y03263*
X02639Y03263*
X02639Y03262*
X02639Y03262*
X02639Y03262*
X02639Y03262*
X02639Y03262*
X02639Y03261*
X02639Y03261*
X02639Y03261*
X02639Y03261*
X02639Y03261*
X02639Y0326*
X02639Y0326*
X02639Y0326*
X02639Y0326*
X02639Y0326*
X02639Y03259*
X02639Y03259*
X02639Y03259*
X0264Y03259*
X0264Y03259*
X0264Y03259*
X0264Y03259*
X0264Y03258*
X0264Y03258*
X02641Y03258*
X02641Y03258*
X02641Y03258*
X02641Y03258*
X02641Y03258*
X02642Y03258*
X02642*
X02642Y03258*
X02642Y03258*
X02642Y03258*
X02643Y03258*
X02643Y03258*
X02643Y03258*
X02643Y03258*
X02643Y03259*
X02644Y03259*
X02644Y03259*
X02644Y03259*
X02644Y03259*
X02644Y03259*
X02644Y03259*
X02644Y0326*
X02644Y0326*
X02645Y0326*
X02645Y0326*
X02645Y0326*
X02645Y03261*
X02645Y03261*
X02645Y03261*
X02308Y03166D02*
D01*
X02308Y03167*
X02308Y03167*
X02308Y03167*
X02308Y03168*
X02308Y03168*
X02307Y03168*
X02307Y03169*
X02307Y03169*
X02307Y03169*
X02307Y0317*
X02306Y0317*
X02306Y0317*
X02306Y0317*
X02306Y0317*
X02305Y03171*
X02305Y03171*
X02305Y03171*
X02304Y03171*
X02304Y03171*
X02304Y03171*
X02303Y03171*
X02303Y03171*
X02303*
X02302Y03171*
X02302Y03171*
X02302Y03171*
X02301Y03171*
X02301Y03171*
X02301Y03171*
X023Y03171*
X023Y0317*
X023Y0317*
X023Y0317*
X02299Y0317*
X02299Y0317*
X02299Y03169*
X02299Y03169*
X02298Y03169*
X02298Y03168*
X02298Y03168*
X02298Y03168*
X02298Y03167*
X02298Y03167*
X02298Y03167*
X02298Y03166*
X02298Y03166*
X02298Y03166*
X02298Y03165*
X02298Y03165*
X02298Y03165*
X02298Y03164*
X02298Y03164*
X02299Y03164*
X02299Y03163*
X02299Y03163*
X02299Y03163*
X023Y03163*
X023Y03162*
X023Y03162*
X023Y03162*
X02301Y03162*
X02301Y03162*
X02301Y03162*
X02302Y03161*
X02302Y03161*
X02302Y03161*
X02303Y03161*
X02303*
X02303Y03161*
X02304Y03161*
X02304Y03161*
X02304Y03162*
X02305Y03162*
X02305Y03162*
X02305Y03162*
X02306Y03162*
X02306Y03162*
X02306Y03163*
X02306Y03163*
X02307Y03163*
X02307Y03163*
X02307Y03164*
X02307Y03164*
X02307Y03164*
X02308Y03165*
X02308Y03165*
X02308Y03165*
X02308Y03166*
X02308Y03166*
X02308Y03166*
X01856Y01905D02*
X01864Y01913D01*
X02157Y01897D02*
X02165Y01905D01*
X0201Y01751D02*
X02018Y01759D01*
X01856Y01905D02*
X0201Y01751D01*
X02002Y02051D02*
X0201Y02059D01*
X02165Y01905*
X02794Y02485D02*
Y02536D01*
X02867Y02485D02*
Y02536D01*
X0277Y03248D02*
Y03289D01*
X02705D02*
X0277D01*
Y03159D02*
Y03199D01*
X02705Y03159D02*
X0277D01*
X02705Y0321D02*
Y03237D01*
X03033Y01717D02*
X03161D01*
X03033Y01845D02*
X03161D01*
X02348Y03251D02*
X02389D01*
X02348Y03186D02*
Y03251D01*
X02437D02*
X02478D01*
Y03186D02*
Y03251D01*
X024Y03186D02*
X02426D01*
X02504Y0017D02*
X02542D01*
Y00222*
X02504D02*
X02542D01*
X02432Y0017D02*
X0247D01*
X02432D02*
Y00222D01*
X0247*
G54D13*
X01634Y02702D02*
D01*
X01634Y02702*
X01634Y02702*
X01634Y02703*
X01634Y02703*
X01634Y02703*
X01634Y02704*
X01633Y02704*
X01633Y02704*
X01633Y02705*
X01633Y02705*
X01633Y02705*
X01632Y02705*
X01632Y02706*
X01632Y02706*
X01631Y02706*
X01631Y02706*
X01631Y02706*
X01631Y02706*
X0163Y02706*
X0163Y02707*
X0163Y02707*
X01629Y02707*
X01629*
X01629Y02707*
X01628Y02707*
X01628Y02706*
X01628Y02706*
X01627Y02706*
X01627Y02706*
X01627Y02706*
X01626Y02706*
X01626Y02706*
X01626Y02705*
X01625Y02705*
X01625Y02705*
X01625Y02705*
X01625Y02704*
X01625Y02704*
X01625Y02704*
X01624Y02703*
X01624Y02703*
X01624Y02703*
X01624Y02702*
X01624Y02702*
X01624Y02702*
X01624Y02701*
X01624Y02701*
X01624Y02701*
X01624Y027*
X01624Y027*
X01625Y027*
X01625Y02699*
X01625Y02699*
X01625Y02699*
X01625Y02699*
X01625Y02698*
X01626Y02698*
X01626Y02698*
X01626Y02698*
X01627Y02697*
X01627Y02697*
X01627Y02697*
X01628Y02697*
X01628Y02697*
X01628Y02697*
X01629Y02697*
X01629Y02697*
X01629*
X0163Y02697*
X0163Y02697*
X0163Y02697*
X01631Y02697*
X01631Y02697*
X01631Y02697*
X01631Y02697*
X01632Y02698*
X01632Y02698*
X01632Y02698*
X01633Y02698*
X01633Y02699*
X01633Y02699*
X01633Y02699*
X01633Y02699*
X01634Y027*
X01634Y027*
X01634Y027*
X01634Y02701*
X01634Y02701*
X01634Y02701*
X01634Y02702*
X02753Y0237D02*
D01*
X02753Y02371*
X02753Y02371*
X02753Y02371*
X02753Y02372*
X02753Y02372*
X02753Y02372*
X02753Y02373*
X02752Y02373*
X02752Y02373*
X02752Y02374*
X02752Y02374*
X02752Y02374*
X02751Y02374*
X02751Y02374*
X02751Y02375*
X0275Y02375*
X0275Y02375*
X0275Y02375*
X0275Y02375*
X02749Y02375*
X02749Y02375*
X02748Y02375*
X02748*
X02748Y02375*
X02747Y02375*
X02747Y02375*
X02747Y02375*
X02746Y02375*
X02746Y02375*
X02746Y02375*
X02746Y02374*
X02745Y02374*
X02745Y02374*
X02745Y02374*
X02745Y02374*
X02744Y02373*
X02744Y02373*
X02744Y02373*
X02744Y02372*
X02744Y02372*
X02744Y02372*
X02744Y02371*
X02743Y02371*
X02743Y02371*
X02743Y0237*
X02743Y0237*
X02743Y0237*
X02744Y02369*
X02744Y02369*
X02744Y02369*
X02744Y02368*
X02744Y02368*
X02744Y02368*
X02744Y02367*
X02745Y02367*
X02745Y02367*
X02745Y02367*
X02745Y02366*
X02746Y02366*
X02746Y02366*
X02746Y02366*
X02746Y02366*
X02747Y02366*
X02747Y02366*
X02747Y02366*
X02748Y02365*
X02748Y02365*
X02748*
X02749Y02365*
X02749Y02366*
X0275Y02366*
X0275Y02366*
X0275Y02366*
X0275Y02366*
X02751Y02366*
X02751Y02366*
X02751Y02366*
X02752Y02367*
X02752Y02367*
X02752Y02367*
X02752Y02367*
X02752Y02368*
X02753Y02368*
X02753Y02368*
X02753Y02369*
X02753Y02369*
X02753Y02369*
X02753Y0237*
X02753Y0237*
X02753Y0237*
G54D14*
X01285Y02706D02*
D01*
X01284Y02725*
X01282Y02744*
X01279Y02763*
X01274Y02781*
X01268Y02799*
X01261Y02817*
X01253Y02834*
X01243Y02851*
X01233Y02867*
X01221Y02882*
X01208Y02896*
X01194Y02909*
X0118Y02921*
X01164Y02933*
X01148Y02943*
X01131Y02952*
X01114Y02959*
X01096Y02966*
X01078Y02971*
X01059Y02975*
X0104Y02978*
X01021Y02979*
X01002*
X00983Y02978*
X00964Y02975*
X00945Y02971*
X00927Y02966*
X00909Y02959*
X00891Y02952*
X00874Y02943*
X00858Y02933*
X00843Y02921*
X00828Y02909*
X00814Y02896*
X00802Y02882*
X0079Y02867*
X00779Y02851*
X0077Y02834*
X00761Y02817*
X00754Y02799*
X00748Y02781*
X00744Y02763*
X0074Y02744*
X00738Y02725*
X00738Y02706*
X00738Y02687*
X0074Y02668*
X00744Y02649*
X00748Y0263*
X00754Y02612*
X00761Y02595*
X0077Y02577*
X00779Y02561*
X0079Y02545*
X00802Y0253*
X00814Y02516*
X00828Y02502*
X00843Y0249*
X00858Y02479*
X00875Y02469*
X00891Y0246*
X00909Y02452*
X00927Y02446*
X00945Y0244*
X00964Y02436*
X00983Y02434*
X01002Y02432*
X01021*
X0104Y02434*
X01059Y02436*
X01078Y0244*
X01096Y02446*
X01114Y02452*
X01131Y0246*
X01148Y02469*
X01164Y02479*
X0118Y0249*
X01194Y02502*
X01208Y02516*
X01221Y0253*
X01233Y02545*
X01243Y02561*
X01253Y02577*
X01261Y02595*
X01268Y02612*
X01274Y0263*
X01279Y02649*
X01282Y02668*
X01284Y02687*
X01285Y02706*
X01753Y00554D02*
Y01054D01*
X02024Y00554D02*
Y01054D01*
X01753D02*
X01821D01*
X01956D02*
X02024D01*
X01753Y00554D02*
X01821D01*
X01956D02*
X02024D01*
X01956Y00027D02*
X02024D01*
X01753D02*
X01821D01*
X01956Y00527D02*
X02024D01*
X01753D02*
X01821D01*
X02024Y00027D02*
Y00527D01*
X01753Y00027D02*
Y00527D01*
X00937Y00645D02*
Y0091D01*
Y00645D02*
X01566D01*
Y0091*
X00937D02*
X01566D01*
X00939Y00471D02*
X01569D01*
Y00206D02*
Y00471D01*
X00939Y00206D02*
X01569D01*
X00939D02*
Y00471D01*
X02328Y00326D02*
X0234D01*
X02328D02*
Y00331D01*
X02415Y00444D02*
X02446D01*
Y00437D02*
Y00444D01*
X02328D02*
X0234D01*
X02328Y00443D02*
Y00444D01*
X02434Y00326D02*
X02446D01*
Y00331*
Y00366D02*
Y00382D01*
X02328Y00397D02*
Y00402D01*
X0318Y00935D02*
X03192D01*
X03326D02*
X03338D01*
X0318Y01093D02*
X03192D01*
X03326D02*
X03338D01*
X0318Y00935D02*
Y00947D01*
X03338Y00935D02*
Y00947D01*
X0318Y01081D02*
Y01093D01*
X03338Y01081D02*
Y01093D01*
X02946Y02702D02*
X02951Y02706D01*
X02877Y02771D02*
X02881Y02776D01*
X03714Y03313D02*
Y03523D01*
Y03777D02*
Y03933D01*
X03064Y03313D02*
Y03523D01*
Y03777D02*
Y03933D01*
X03714*
X03064Y03313D02*
X03714D01*
X02943Y0332D02*
Y03529D01*
Y03784D02*
Y0394D01*
X02293Y0332D02*
Y03529D01*
Y03784D02*
Y0394D01*
X02943*
X02293Y0332D02*
X02943D01*
X02149Y03315D02*
Y03525D01*
Y03779D02*
Y03935D01*
X01499Y03315D02*
Y03525D01*
Y03779D02*
Y03935D01*
X02149*
X01499Y03315D02*
X02149D01*
X00421Y02887D02*
X0063D01*
X0001D02*
X00166D01*
X00421Y02237D02*
X0063D01*
X0001D02*
X00166D01*
X0001D02*
Y02887D01*
X0063Y02237D02*
Y02887D01*
X00421Y0366D02*
X0063D01*
X0001D02*
X00166D01*
X00421Y0301D02*
X0063D01*
X0001D02*
X00166D01*
X0001D02*
Y0366D01*
X0063Y0301D02*
Y0366D01*
X01385Y03316D02*
Y03526D01*
Y0378D02*
Y03936D01*
X00735Y03316D02*
Y03526D01*
Y0378D02*
Y03936D01*
X01385*
X00735Y03316D02*
X01385D01*
X00654Y02625D02*
X00659D01*
X00713D02*
X00717D01*
X00654Y02732D02*
X00659D01*
X00713D02*
X00717D01*
Y02625D02*
Y02732D01*
X00654Y02625D02*
Y02732D01*
X0184Y02763D02*
Y02767D01*
Y02704D02*
Y02709D01*
X01946Y02763D02*
Y02767D01*
Y02704D02*
Y02709D01*
X0184Y02704D02*
X01946D01*
X0184Y02767D02*
X01946D01*
X00652Y01009D02*
Y01056D01*
X00628Y01032D02*
X00676D01*
X0001Y00365D02*
Y00975D01*
X00727*
X0001Y00365D02*
X00727D01*
Y00588D02*
Y00724D01*
Y00899D02*
Y00975D01*
Y00365D02*
Y0047D01*
X02957Y00423D02*
Y00444D01*
X02851Y00423D02*
Y00444D01*
X03099Y00423D02*
Y00443D01*
X02992Y00423D02*
Y00443D01*
X0323Y02934D02*
X03343D01*
X0323Y03001D02*
X03343D01*
X03372Y00567D02*
Y00679D01*
X03438Y00567D02*
Y00679D01*
X00679Y02401D02*
X01364D01*
Y02174D02*
Y02401D01*
X00679Y02174D02*
X01364D01*
X00679D02*
Y02401D01*
X00029Y01296D02*
X00714D01*
Y0107D02*
Y01296D01*
X00029Y0107D02*
X00714D01*
X00029D02*
Y01296D01*
X03113Y00718D02*
Y01403D01*
X02886Y00718D02*
X03113D01*
X02886D02*
Y01403D01*
X03113*
X00735Y03052D02*
X01322D01*
X00735D02*
Y03278D01*
X01322*
Y03052D02*
Y03278D01*
X01357Y03053D02*
X01944D01*
X01357D02*
Y0328D01*
X01944*
Y03053D02*
Y0328D01*
X01339Y02446D02*
X01926D01*
X01339D02*
Y02672D01*
X01926*
Y02446D02*
Y02672D01*
X03688Y00154D02*
Y00544D01*
X03914*
Y00154D02*
Y00544D01*
X03688Y00154D02*
X03914D01*
X03535Y0098D02*
X03925D01*
X03535D02*
Y01207D01*
X03925*
Y0098D02*
Y01207D01*
X03688Y0057D02*
Y0096D01*
X03915*
Y0057D02*
Y0096D01*
X03688Y0057D02*
X03915D01*
X01444Y02285D02*
X01573D01*
X01444D02*
Y02392D01*
X01573*
Y02285D02*
Y02392D01*
X01445Y02378D02*
X01459Y02391D01*
X0159Y02284D02*
X01719D01*
X0159D02*
Y02391D01*
X01719*
Y02284D02*
Y02391D01*
X01591Y02377D02*
X01604Y02391D01*
X01444Y02165D02*
X01573D01*
X01444D02*
Y02272D01*
X01573*
Y02165D02*
Y02272D01*
X01445Y02258D02*
X01458Y02271D01*
X01589Y02165D02*
X01718D01*
X01589D02*
Y02272D01*
X01718*
Y02165D02*
Y02272D01*
X0159Y02258D02*
X01603Y02271D01*
X00874Y01522D02*
Y02022D01*
X01685Y01522D02*
Y02022D01*
Y01497D02*
Y01522D01*
Y01447D02*
Y01497D01*
X00874Y01422D02*
X01685D01*
X00874D02*
Y01522D01*
X01685Y01422D02*
Y01447D01*
Y02022D02*
Y02047D01*
X00874Y02022D02*
Y02122D01*
X01685Y02047D02*
Y02097D01*
X00874Y02122D02*
X01685D01*
Y02097D02*
Y02122D01*
X00031Y0152D02*
Y0202D01*
X00843Y0152D02*
Y0202D01*
Y01495D02*
Y0152D01*
Y01445D02*
Y01495D01*
X00031Y0142D02*
X00843D01*
X00031D02*
Y0152D01*
X00843Y0142D02*
Y01445D01*
Y0202D02*
Y02045D01*
X00031Y0202D02*
Y0212D01*
X00843Y02045D02*
Y02095D01*
X00031Y0212D02*
X00843D01*
Y02095D02*
Y0212D01*
X02268Y01533D02*
X02768D01*
X02268Y00721D02*
X02768D01*
X02243D02*
X02268D01*
X02193D02*
X02243D01*
X02168D02*
Y01533D01*
X02268*
X02168Y00721D02*
X02193D01*
X02768D02*
X02793D01*
X02768Y01533D02*
X02868D01*
X02793Y00721D02*
X02843D01*
X02868D02*
Y01533D01*
X02843Y00721D02*
X02868D01*
G54D15*
X02588Y00475D02*
X02752D01*
X02588Y0064D02*
X02751D01*
G54D16*
X01746Y0119D02*
X01706D01*
X01726Y0117D02*
Y0121D01*
X01918Y01113D02*
Y01153D01*
X01898Y01133D02*
X01938D01*
X01223Y0119D02*
X01183D01*
X01203Y0117D02*
Y0121D01*
M02*