%FSTAX23Y23*%
%MOIN*%
%SFA1B1*%

%IPPOS*%
%ADD144R,0.061024X0.061024*%
%ADD145C,0.061024*%
%ADD169C,0.017716*%
%ADD183C,0.109252*%
%ADD185C,0.094488*%
%ADD186C,0.025591*%
%ADD187O,0.082677X0.039370*%
%ADD188O,0.070866X0.039370*%
%ADD189O,0.039370X0.070866*%
%ADD190O,0.039370X0.082677*%
%ADD191C,0.019685*%
%ADD192C,0.129921*%
%ADD193C,0.057008*%
%ADD195C,0.095669*%
%ADD197C,0.059370*%
%ADD198O,0.094488X0.047244*%
%ADD200C,0.146299*%
%ADD203C,0.064960*%
%ADD204C,0.039370*%
%ADD205C,0.057087*%
%ADD208C,0.055118*%
%ADD209R,0.055118X0.055118*%
%ADD210R,0.055118X0.055118*%
%ADD211C,0.050000*%
%ADD212C,0.013780*%
%ADD213C,0.023622*%
%LNmcu-1*%
%LPD*%
G36*
X03927Y03819D02*
Y001D01*
X03845Y00018*
X00769*
X00768Y00017*
X00766Y0002*
X0009*
X00014Y00096*
Y01388*
X00529*
Y012*
X00525Y01197*
X00524Y01198*
X00515*
X00505Y01195*
X00497Y01191*
X00491Y01184*
X00486Y01176*
X00484Y01167*
Y01157*
X00486Y01148*
X00491Y0114*
X00497Y01134*
X00505Y01129*
X00515Y01127*
X00524*
X00525Y01127*
X00529Y01124*
Y00364*
X00494Y00329*
X00502Y00321*
X0054Y0036*
Y00443*
X0054Y00443*
Y01133*
X00541Y01134*
X00548Y0114*
X00552Y01148*
X00555Y01157*
Y01167*
X00552Y01176*
X00548Y01184*
X00541Y01191*
X0054Y01191*
Y01289*
Y01401*
X00012*
X00011Y01404*
Y01565*
X00536*
X0054Y01569*
X02348*
Y01517*
X02346Y01511*
Y01506*
X02348Y015*
Y01161*
Y01039*
Y00713*
X0203*
X02023Y00706*
X02027Y00702*
Y00565*
X01926*
X01924Y0057*
X01927Y00572*
X01935Y0058*
X01942Y0059*
X01947Y00601*
X01949Y00613*
Y00625*
X01947Y00636*
X01942Y00647*
X01935Y00657*
X01927Y00666*
X01917Y00672*
X01906Y00677*
X01894Y00679*
X01883*
X01871Y00677*
X0186Y00672*
X0185Y00666*
X01841Y00657*
X01835Y00647*
X0183Y00636*
X01828Y00625*
Y00613*
X0183Y00601*
X01835Y0059*
X01841Y0058*
X0185Y00572*
X01852Y0057*
X01851Y00565*
X00753*
Y00544*
X00753Y00544*
X00753Y00544*
Y00118*
X00543*
X00464Y00197*
X00503Y00158*
X00492Y00148*
X00533Y00107*
X00763*
Y00554*
X02039*
Y00706*
X02362*
Y01494*
X02363*
X02369Y01496*
X02373Y015*
X02375Y015*
X02378Y015*
X02382Y01496*
X02388Y01494*
X02393*
X02399Y01496*
X02403Y015*
X02405Y01506*
Y01511*
X02403Y01517*
X02399Y01521*
X02393Y01523*
X02388*
X02382Y01521*
X02378Y01517*
X02375Y01517*
X02373Y01517*
X02369Y01521*
X02363Y01523*
X02362*
Y01565*
X02365*
X02369Y01567*
X02373Y01571*
X02373Y01571*
X02378Y01571*
X02382Y01568*
X02387Y01566*
X02392*
X02397Y01568*
X024Y01571*
X02402Y01576*
Y01581*
X024Y01586*
X02397Y01589*
X02392Y01591*
X02387*
X02382Y01589*
X02378Y01586*
X02378Y01586*
X02373Y01585*
X02369Y01589*
X02365Y01591*
X0236*
X02355Y01589*
X02351Y01585*
X02349Y01581*
Y01578*
X00009*
Y02145*
X00006Y02147*
Y03833*
X00108Y03934*
X03811*
X03927Y03819*
G37*
%LNmcu-2*%
%LPC*%
G36*
X0384Y03879D02*
X03828D01*
X03817Y03876*
X03806Y0387*
X03798Y03862*
X03792Y03852*
X03789Y0384*
Y03828*
X03792Y03817*
X03798Y03806*
X03806Y03798*
X03817Y03792*
X03828Y03789*
X0384*
X03852Y03792*
X03862Y03798*
X0387Y03806*
X03876Y03817*
X03879Y03828*
Y0384*
X03876Y03852*
X0387Y03862*
X03862Y0387*
X03852Y03876*
X0384Y03879*
G37*
G36*
X00108D02*
X00096D01*
X00084Y03876*
X00074Y0387*
X00066Y03862*
X0006Y03852*
X00057Y0384*
Y03828*
X0006Y03817*
X00066Y03806*
X00074Y03798*
X00084Y03792*
X00096Y03789*
X00108*
X00119Y03792*
X0013Y03798*
X00138Y03806*
X00144Y03817*
X00147Y03828*
Y0384*
X00144Y03852*
X00138Y03862*
X0013Y0387*
X00119Y03876*
X00108Y03879*
G37*
G36*
X01927Y03793D02*
X01921D01*
X01916Y03791*
X01912Y03787*
X0191Y03782*
Y03776*
X01912Y0377*
X01916Y03766*
X01921Y03764*
X01927*
X0193Y03765*
X01931Y03764*
X01934Y03761*
Y03757*
X01937Y03751*
X01941Y03747*
X01946Y03745*
X01952*
X01957Y03747*
X01962Y03751*
X01963Y03756*
X01967Y03756*
X01969Y03756*
X01969Y03756*
X01973Y03752*
X01978Y03749*
X01984*
X0199Y03752*
X01994Y03756*
X01996Y03761*
Y03767*
X01994Y03772*
X0199Y03777*
X01984Y03779*
X01978*
X01973Y03777*
X01969Y03772*
X01967Y03768*
X01963Y03767*
X01962Y03768*
X01962Y03768*
X01957Y03772*
X01952Y03775*
X01946*
X01944Y03773*
X01942Y03774*
X01939Y03777*
Y03782*
X01937Y03787*
X01933Y03791*
X01927Y03793*
G37*
G36*
X01922Y03705D02*
X01916D01*
X0191Y03703*
X01906Y03698*
X01904Y03693*
Y03687*
X01906Y03682*
X0191Y03678*
X01916Y03675*
X01922*
X01927Y03678*
X01931Y03682*
X01932Y03683*
X01937*
X01938Y03681*
X01942Y03677*
X01947Y03675*
X01953*
X01959Y03677*
X01961Y03679*
X01962Y03679*
X01966Y03678*
X01968Y03674*
X01972Y0367*
X01978Y03667*
X01984*
X01989Y0367*
X01993Y03674*
X01995Y03679*
Y03685*
X01993Y03691*
X01989Y03695*
X01984Y03697*
X01978*
X01972Y03695*
X0197Y03692*
X01969Y03692*
X01964Y03694*
X01963Y03698*
X01959Y03702*
X01953Y03704*
X01947*
X01942Y03702*
X01938Y03698*
X01937Y03697*
X01932*
X01931Y03698*
X01927Y03703*
X01922Y03705*
G37*
G36*
X02875Y03796D02*
X02861D01*
X02848Y03793*
X02835Y03787*
X02823Y0378*
X02813Y0377*
X02806Y03758*
X028Y03745*
X02798Y03732*
Y03718*
X028Y03704*
X02806Y03691*
X02813Y0368*
X02823Y0367*
X02835Y03662*
X02848Y03657*
X02861Y03654*
X02875*
X02889Y03657*
X02902Y03662*
X02914Y0367*
X02923Y0368*
X02931Y03691*
X02937Y03704*
X02939Y03718*
Y03732*
X02937Y03745*
X02931Y03758*
X02923Y0377*
X02914Y0378*
X02902Y03787*
X02889Y03793*
X02875Y03796*
G37*
G36*
X02375D02*
X02361D01*
X02348Y03793*
X02335Y03787*
X02323Y0378*
X02313Y0377*
X02306Y03758*
X023Y03745*
X02298Y03732*
Y03718*
X023Y03704*
X02306Y03691*
X02313Y0368*
X02323Y0367*
X02335Y03662*
X02348Y03657*
X02361Y03654*
X02375*
X02389Y03657*
X02402Y03662*
X02414Y0367*
X02423Y0368*
X02431Y03691*
X02437Y03704*
X02439Y03718*
Y03732*
X02437Y03745*
X02431Y03758*
X02423Y0377*
X02414Y0378*
X02402Y03787*
X02389Y03793*
X02375Y03796*
G37*
G36*
X01317Y03792D02*
X01303D01*
X01289Y03789*
X01276Y03784*
X01265Y03776*
X01255Y03766*
X01247Y03755*
X01242Y03742*
X01239Y03728*
Y03714*
X01242Y037*
X01247Y03688*
X01255Y03676*
X01265Y03666*
X01276Y03658*
X01289Y03653*
X01303Y0365*
X01317*
X0133Y03653*
X01343Y03658*
X01355Y03666*
X01365Y03676*
X01373Y03688*
X01378Y037*
X01381Y03714*
Y03728*
X01378Y03742*
X01373Y03755*
X01365Y03766*
X01355Y03776*
X01343Y03784*
X0133Y03789*
X01317Y03792*
G37*
G36*
X00817D02*
X00803D01*
X00789Y03789*
X00776Y03784*
X00765Y03776*
X00755Y03766*
X00747Y03755*
X00742Y03742*
X00739Y03728*
Y03714*
X00742Y037*
X00747Y03688*
X00755Y03676*
X00765Y03666*
X00776Y03658*
X00789Y03653*
X00803Y0365*
X00817*
X0083Y03653*
X00843Y03658*
X00855Y03666*
X00865Y03676*
X00873Y03688*
X00878Y037*
X00881Y03714*
Y03728*
X00878Y03742*
X00873Y03755*
X00865Y03766*
X00855Y03776*
X00843Y03784*
X0083Y03789*
X00817Y03792*
G37*
G36*
X0208Y03791D02*
X02067D01*
X02053Y03789*
X0204Y03783*
X02028Y03775*
X02018Y03766*
X02011Y03754*
X02005Y03741*
X02003Y03727*
Y03713*
X02005Y037*
X02011Y03687*
X02018Y03675*
X02028Y03665*
X0204Y03658*
X02053Y03652*
X02067Y0365*
X0208*
X02094Y03652*
X02107Y03658*
X02119Y03665*
X02129Y03675*
X02136Y03687*
X02142Y037*
X02144Y03713*
Y03727*
X02142Y03741*
X02136Y03754*
X02129Y03766*
X02119Y03775*
X02107Y03783*
X02094Y03789*
X0208Y03791*
G37*
G36*
X0158D02*
X01567D01*
X01553Y03789*
X0154Y03783*
X01528Y03775*
X01518Y03766*
X01511Y03754*
X01505Y03741*
X01503Y03727*
Y03713*
X01505Y037*
X01511Y03687*
X01518Y03675*
X01528Y03665*
X0154Y03658*
X01553Y03652*
X01567Y0365*
X0158*
X01594Y03652*
X01607Y03658*
X01619Y03665*
X01629Y03675*
X01636Y03687*
X01642Y037*
X01644Y03713*
Y03727*
X01642Y03741*
X01636Y03754*
X01629Y03766*
X01619Y03775*
X01607Y03783*
X01594Y03789*
X0158Y03791*
G37*
G36*
X03646Y03789D02*
X03632D01*
X03618Y03787*
X03605Y03781*
X03594Y03773*
X03584Y03764*
X03576Y03752*
X03571Y03739*
X03568Y03725*
Y03711*
X03571Y03698*
X03576Y03685*
X03584Y03673*
X03594Y03663*
X03605Y03656*
X03618Y0365*
X03632Y03648*
X03646*
X03659Y0365*
X03672Y03656*
X03684Y03663*
X03694Y03673*
X03702Y03685*
X03707Y03698*
X0371Y03711*
Y03725*
X03707Y03739*
X03702Y03752*
X03694Y03764*
X03684Y03773*
X03672Y03781*
X03659Y03787*
X03646Y03789*
G37*
G36*
X03146D02*
X03132D01*
X03118Y03787*
X03105Y03781*
X03094Y03773*
X03084Y03764*
X03076Y03752*
X03071Y03739*
X03068Y03725*
Y03711*
X03071Y03698*
X03076Y03685*
X03084Y03673*
X03094Y03663*
X03105Y03656*
X03118Y0365*
X03132Y03648*
X03146*
X03159Y0365*
X03172Y03656*
X03184Y03663*
X03194Y03673*
X03202Y03685*
X03207Y03698*
X0321Y03711*
Y03725*
X03207Y03739*
X03202Y03752*
X03194Y03764*
X03184Y03773*
X03172Y03781*
X03159Y03787*
X03146Y03789*
G37*
G36*
X02723Y03659D02*
X02714D01*
X02705Y03657*
X02697Y03652*
X02691Y03646*
X02686Y03638*
X02684Y03629*
Y0362*
X02686Y03611*
X02691Y03604*
X02697Y03597*
X02705Y03593*
X02714Y0359*
X02723*
X02732Y03593*
X0274Y03597*
X02746Y03604*
X0275Y03611*
X02753Y0362*
Y03629*
X0275Y03638*
X02746Y03646*
X0274Y03652*
X02732Y03657*
X02723Y03659*
G37*
G36*
X02563D02*
X02554D01*
X02545Y03657*
X02537Y03652*
X02531Y03646*
X02526Y03638*
X02524Y03629*
Y0362*
X02526Y03611*
X02531Y03604*
X02537Y03597*
X02545Y03593*
X02554Y0359*
X02563*
X02572Y03593*
X0258Y03597*
X02586Y03604*
X0259Y03611*
X02593Y0362*
Y03629*
X0259Y03638*
X02586Y03646*
X0258Y03652*
X02572Y03657*
X02563Y03659*
G37*
G36*
X02483D02*
X02474D01*
X02465Y03657*
X02457Y03652*
X02451Y03646*
X02446Y03638*
X02444Y03629*
Y0362*
X02446Y03611*
X02451Y03604*
X02457Y03597*
X02465Y03593*
X02474Y0359*
X02483*
X02492Y03593*
X025Y03597*
X02506Y03604*
X0251Y03611*
X02513Y0362*
Y03629*
X0251Y03638*
X02506Y03646*
X025Y03652*
X02492Y03657*
X02483Y03659*
G37*
G36*
X01164Y03656D02*
X01155D01*
X01146Y03653*
X01139Y03649*
X01132Y03642*
X01128Y03634*
X01125Y03626*
Y03617*
X01128Y03608*
X01132Y036*
X01139Y03594*
X01146Y03589*
X01155Y03587*
X01164*
X01173Y03589*
X01181Y03594*
X01187Y036*
X01192Y03608*
X01194Y03617*
Y03626*
X01192Y03634*
X01187Y03642*
X01181Y03649*
X01173Y03653*
X01164Y03656*
G37*
G36*
X01004D02*
X00995D01*
X00986Y03653*
X00979Y03649*
X00972Y03642*
X00968Y03634*
X00965Y03626*
Y03617*
X00968Y03608*
X00972Y036*
X00979Y03594*
X00986Y03589*
X00995Y03587*
X01004*
X01013Y03589*
X01021Y03594*
X01027Y036*
X01032Y03608*
X01034Y03617*
Y03626*
X01032Y03634*
X01027Y03642*
X01021Y03649*
X01013Y03653*
X01004Y03656*
G37*
G36*
X00924D02*
X00915D01*
X00906Y03653*
X00899Y03649*
X00892Y03642*
X00888Y03634*
X00885Y03626*
Y03617*
X00888Y03608*
X00892Y036*
X00899Y03594*
X00906Y03589*
X00915Y03587*
X00924*
X00933Y03589*
X00941Y03594*
X00947Y036*
X00952Y03608*
X00954Y03617*
Y03626*
X00952Y03634*
X00947Y03642*
X00941Y03649*
X00933Y03653*
X00924Y03656*
G37*
G36*
X01928Y03655D02*
X01919D01*
X0191Y03652*
X01902Y03648*
X01896Y03641*
X01891Y03634*
X01889Y03625*
Y03616*
X01891Y03607*
X01896Y03599*
X01902Y03593*
X0191Y03588*
X01919Y03586*
X01928*
X01937Y03588*
X01945Y03593*
X01951Y03599*
X01956Y03607*
X01958Y03616*
Y03625*
X01956Y03634*
X01951Y03641*
X01945Y03648*
X01937Y03652*
X01928Y03655*
G37*
G36*
X01768D02*
X01759D01*
X0175Y03652*
X01742Y03648*
X01736Y03641*
X01731Y03634*
X01729Y03625*
Y03616*
X01731Y03607*
X01736Y03599*
X01742Y03593*
X0175Y03588*
X01759Y03586*
X01768*
X01777Y03588*
X01785Y03593*
X01791Y03599*
X01796Y03607*
X01798Y03616*
Y03625*
X01796Y03634*
X01791Y03641*
X01785Y03648*
X01777Y03652*
X01768Y03655*
G37*
G36*
X01688D02*
X01679D01*
X0167Y03652*
X01662Y03648*
X01656Y03641*
X01651Y03634*
X01649Y03625*
Y03616*
X01651Y03607*
X01656Y03599*
X01662Y03593*
X0167Y03588*
X01679Y03586*
X01688*
X01697Y03588*
X01705Y03593*
X01711Y03599*
X01716Y03607*
X01718Y03616*
Y03625*
X01716Y03634*
X01711Y03641*
X01705Y03648*
X01697Y03652*
X01688Y03655*
G37*
G36*
X03493Y03653D02*
X03484D01*
X03476Y0365*
X03468Y03646*
X03461Y0364*
X03457Y03632*
X03454Y03623*
Y03614*
X03457Y03605*
X03461Y03597*
X03468Y03591*
X03476Y03586*
X03484Y03584*
X03493*
X03502Y03586*
X0351Y03591*
X03516Y03597*
X03521Y03605*
X03523Y03614*
Y03623*
X03521Y03632*
X03516Y0364*
X0351Y03646*
X03502Y0365*
X03493Y03653*
G37*
G36*
X03333D02*
X03324D01*
X03316Y0365*
X03308Y03646*
X03301Y0364*
X03297Y03632*
X03294Y03623*
Y03614*
X03297Y03605*
X03301Y03597*
X03308Y03591*
X03316Y03586*
X03324Y03584*
X03333*
X03342Y03586*
X0335Y03591*
X03356Y03597*
X03361Y03605*
X03363Y03614*
Y03623*
X03361Y03632*
X03356Y0364*
X0335Y03646*
X03342Y0365*
X03333Y03653*
G37*
G36*
X03253D02*
X03244D01*
X03236Y0365*
X03228Y03646*
X03221Y0364*
X03217Y03632*
X03214Y03623*
Y03614*
X03217Y03605*
X03221Y03597*
X03228Y03591*
X03236Y03586*
X03244Y03584*
X03253*
X03262Y03586*
X0327Y03591*
X03276Y03597*
X03281Y03605*
X03283Y03614*
Y03623*
X03281Y03632*
X03276Y0364*
X0327Y03646*
X03262Y0365*
X03253Y03653*
G37*
G36*
X02039Y03562D02*
X02033D01*
X02027Y0356*
X02023Y03556*
X02021Y0355*
Y03545*
X02022Y03541*
X02018Y03538*
X02017Y0354*
X02011Y03542*
X02006*
X02Y0354*
X01996Y03535*
X01994Y0353*
Y03524*
X01996Y03519*
X02Y03515*
X02006Y03512*
X02011*
X02017Y03515*
X02021Y03519*
X02023Y03524*
Y0353*
X02022Y03533*
X02026Y03536*
X02027Y03535*
X02033Y03533*
X02039*
X02042Y03534*
X02046Y0353*
X02045Y0353*
Y03524*
X02048Y03518*
X02052Y03514*
X02057Y03512*
X02063*
X02068Y03514*
X02073Y03518*
X02075Y03524*
Y0353*
X02073Y03535*
X02068Y03539*
X02063Y03541*
X02057*
X02054Y0354*
X0205Y03544*
X0205Y03545*
Y0355*
X02048Y03556*
X02044Y0356*
X02039Y03562*
G37*
G36*
X02603Y03589D02*
X02594D01*
X02585Y03587*
X02577Y03582*
X02571Y03576*
X02566Y03568*
X02564Y03559*
Y0355*
X02566Y03541*
X02571Y03533*
X02577Y03527*
X02585Y03523*
X02594Y0352*
X02603*
X02612Y03523*
X0262Y03527*
X02626Y03533*
X0263Y03541*
X02633Y0355*
Y03559*
X0263Y03568*
X02626Y03576*
X0262Y03582*
X02612Y03587*
X02603Y03589*
G37*
G36*
X01044Y03585D02*
X01035D01*
X01026Y03583*
X01019Y03579*
X01012Y03572*
X01008Y03564*
X01005Y03556*
Y03547*
X01008Y03538*
X01012Y0353*
X01019Y03524*
X01026Y03519*
X01035Y03517*
X01044*
X01053Y03519*
X01061Y03524*
X01067Y0353*
X01072Y03538*
X01074Y03547*
Y03556*
X01072Y03564*
X01067Y03572*
X01061Y03579*
X01053Y03583*
X01044Y03585*
G37*
G36*
X01808Y03585D02*
X01799D01*
X0179Y03582*
X01782Y03578*
X01776Y03571*
X01771Y03564*
X01769Y03555*
Y03546*
X01771Y03537*
X01776Y03529*
X01782Y03523*
X0179Y03518*
X01799Y03516*
X01808*
X01817Y03518*
X01825Y03523*
X01831Y03529*
X01836Y03537*
X01838Y03546*
Y03555*
X01836Y03564*
X01831Y03571*
X01825Y03578*
X01817Y03582*
X01808Y03585*
G37*
G36*
X00232Y03656D02*
X00218D01*
X00205Y03654*
X00192Y03648*
X0018Y03641*
X0017Y03631*
X00162Y03619*
X00157Y03606*
X00154Y03592*
Y03579*
X00157Y03565*
X00162Y03552*
X0017Y0354*
X0018Y0353*
X00192Y03523*
X00205Y03517*
X00218Y03515*
X00232*
X00246Y03517*
X00259Y03523*
X0027Y0353*
X0028Y0354*
X00288Y03552*
X00293Y03565*
X00296Y03579*
Y03592*
X00293Y03606*
X00288Y03619*
X0028Y03631*
X0027Y03641*
X00259Y03648*
X00246Y03654*
X00232Y03656*
G37*
G36*
X03373Y03583D02*
X03364D01*
X03356Y0358*
X03348Y03576*
X03341Y03569*
X03337Y03562*
X03334Y03553*
Y03544*
X03337Y03535*
X03341Y03527*
X03348Y03521*
X03356Y03516*
X03364Y03514*
X03373*
X03382Y03516*
X0339Y03521*
X03396Y03527*
X03401Y03535*
X03403Y03544*
Y03553*
X03401Y03562*
X03396Y03569*
X0339Y03576*
X03382Y0358*
X03373Y03583*
G37*
G36*
X0033Y0347D02*
X00321D01*
X00312Y03468*
X00304Y03463*
X00298Y03457*
X00293Y03449*
X00291Y0344*
Y03431*
X00293Y03422*
X00298Y03414*
X00304Y03408*
X00312Y03403*
X00321Y03401*
X0033*
X00339Y03403*
X00346Y03408*
X00353Y03414*
X00357Y03422*
X0036Y03431*
Y0344*
X00357Y03449*
X00353Y03457*
X00346Y03463*
X00339Y03468*
X0033Y0347*
G37*
G36*
X004Y0335D02*
X00391D01*
X00382Y03348*
X00374Y03343*
X00368Y03337*
X00363Y03329*
X00361Y0332*
Y03311*
X00363Y03302*
X00368Y03294*
X00374Y03288*
X00382Y03283*
X00391Y03281*
X004*
X00409Y03283*
X00416Y03288*
X00423Y03294*
X00427Y03302*
X0043Y03311*
Y0332*
X00427Y03329*
X00423Y03337*
X00416Y03343*
X00409Y03348*
X004Y0335*
G37*
G36*
X02455Y03299D02*
X0245D01*
X02445Y03297*
X02441Y03294*
X02439Y03289*
Y03284*
X02441Y03279*
X02445Y03276*
X0245Y03274*
X02455*
X0246Y03276*
X02463Y03279*
X02465Y03284*
Y03289*
X02463Y03294*
X0246Y03297*
X02455Y03299*
G37*
G36*
X02376Y03299D02*
X02371D01*
X02366Y03297*
X02362Y03293*
X0236Y03289*
Y03284*
X02362Y03279*
X02366Y03275*
X02371Y03273*
X02376*
X0238Y03275*
X02384Y03279*
X02386Y03284*
Y03289*
X02384Y03293*
X0238Y03297*
X02376Y03299*
G37*
G36*
X02315Y03297D02*
X0231D01*
X02305Y03295*
X02302Y03291*
X023Y03286*
Y03281*
X02302Y03277*
X02305Y03273*
X0231Y03271*
X02315*
X0232Y03273*
X02323Y03277*
X02325Y03281*
Y03286*
X02323Y03291*
X0232Y03295*
X02315Y03297*
G37*
G36*
X0033Y0331D02*
X00321D01*
X00312Y03308*
X00304Y03303*
X00298Y03297*
X00293Y03289*
X00291Y0328*
Y03271*
X00293Y03262*
X00298Y03254*
X00304Y03248*
X00312Y03243*
X00321Y03241*
X0033*
X00339Y03243*
X00346Y03248*
X00353Y03254*
X00357Y03262*
X0036Y03271*
Y0328*
X00357Y03289*
X00353Y03297*
X00346Y03303*
X00339Y03308*
X0033Y0331*
G37*
G36*
X02595Y03257D02*
X0259D01*
X02585Y03255*
X02581Y03252*
X02579Y03247*
Y03242*
X02581Y03237*
X02585Y03234*
X0259Y03232*
X02595*
X02599Y03234*
X02603Y03237*
X02605Y03242*
Y03247*
X02603Y03252*
X02599Y03255*
X02595Y03257*
G37*
G36*
X03387Y03271D02*
X03377D01*
X03367Y03269*
X03359Y03264*
X03351Y03257*
X03346Y03248*
X03344Y03238*
Y03228*
X03346Y03218*
X03351Y03209*
X03359Y03202*
X03367Y03197*
X03377Y03195*
X03387*
X03397Y03197*
X03406Y03202*
X03413Y03209*
X03418Y03218*
X03421Y03228*
Y03238*
X03418Y03248*
X03413Y03257*
X03406Y03264*
X03397Y03269*
X03387Y03271*
G37*
G36*
X03287D02*
X03277D01*
X03267Y03269*
X03259Y03264*
X03251Y03257*
X03246Y03248*
X03244Y03238*
Y03228*
X03246Y03218*
X03251Y03209*
X03259Y03202*
X03267Y03197*
X03277Y03195*
X03287*
X03297Y03197*
X03306Y03202*
X03313Y03209*
X03318Y03218*
X03321Y03228*
Y03238*
X03318Y03248*
X03313Y03257*
X03306Y03264*
X03297Y03269*
X03287Y03271*
G37*
G36*
X03187D02*
X03177D01*
X03167Y03269*
X03159Y03264*
X03151Y03257*
X03146Y03248*
X03144Y03238*
Y03228*
X03146Y03218*
X03151Y03209*
X03159Y03202*
X03167Y03197*
X03177Y03195*
X03187*
X03197Y03197*
X03206Y03202*
X03213Y03209*
X03218Y03218*
X03221Y03228*
Y03238*
X03218Y03248*
X03213Y03257*
X03206Y03264*
X03197Y03269*
X03187Y03271*
G37*
G36*
X03087D02*
X03077D01*
X03067Y03269*
X03059Y03264*
X03051Y03257*
X03046Y03248*
X03044Y03238*
Y03228*
X03046Y03218*
X03051Y03209*
X03059Y03202*
X03067Y03197*
X03077Y03195*
X03087*
X03097Y03197*
X03106Y03202*
X03113Y03209*
X03118Y03218*
X03121Y03228*
Y03238*
X03118Y03248*
X03113Y03257*
X03106Y03264*
X03097Y03269*
X03087Y03271*
G37*
G36*
X02635Y03206D02*
X02629D01*
X02623Y03203*
X02619Y03199*
X02617Y03194*
Y03194*
X02612Y0319*
X0261Y03191*
X02604*
X02599Y03189*
X02595Y03185*
X02592Y03179*
Y03173*
X02595Y03168*
X02599Y03164*
X02604Y03162*
X0261*
X02615Y03164*
X0262Y03168*
X02622Y03173*
Y03174*
X02627Y03177*
X02629Y03176*
X02635*
X0264Y03178*
X02644Y03182*
X02647Y03188*
Y03194*
X02644Y03199*
X0264Y03203*
X02635Y03206*
G37*
G36*
X03748Y03213D02*
X03743D01*
X03738Y03211*
X03735Y03207*
X03733Y03202*
Y03197*
X03735Y03193*
X03738Y03189*
X03743Y03187*
X03748*
X03753Y03189*
X03756Y03193*
X03758Y03197*
Y03202*
X03756Y03207*
X03753Y03211*
X03748Y03213*
G37*
G36*
X02549Y0321D02*
X02543D01*
X02539Y03208*
X02535Y03205*
X02533Y032*
Y03195*
X02535Y0319*
X02539Y03187*
X02543Y03185*
X02549*
X02553Y03187*
X02557Y0319*
X02559Y03195*
Y032*
X02557Y03205*
X02553Y03208*
X02549Y0321*
G37*
G36*
X0033Y0323D02*
X00321D01*
X00312Y03228*
X00304Y03223*
X00298Y03217*
X00293Y03209*
X00291Y032*
Y03191*
X00293Y03182*
X00298Y03174*
X00304Y03168*
X00312Y03163*
X00321Y03161*
X0033*
X00339Y03163*
X00346Y03168*
X00353Y03174*
X00357Y03182*
X0036Y03191*
Y032*
X00357Y03209*
X00353Y03217*
X00346Y03223*
X00339Y03228*
X0033Y0323*
G37*
G36*
X02846Y03184D02*
X02841D01*
X02836Y03182*
X02833Y03178*
X02831Y03174*
Y03169*
X02833Y03164*
X02836Y0316*
X02841Y03158*
X02846*
X02851Y0316*
X02854Y03164*
X02856Y03169*
Y03174*
X02854Y03178*
X02851Y03182*
X02846Y03184*
G37*
G36*
X01753Y03223D02*
X01744D01*
X01735Y0322*
X01727Y03216*
X0172Y03209*
X01716Y03201*
X01713Y03192*
Y03183*
X01716Y03174*
X0172Y03165*
X01727Y03159*
X01735Y03154*
X01744Y03152*
X01753*
X01762Y03154*
X01771Y03159*
X01777Y03165*
X01782Y03174*
X01784Y03183*
Y03192*
X01782Y03201*
X01777Y03209*
X01771Y03216*
X01762Y0322*
X01753Y03223*
G37*
G36*
X01655D02*
X01646D01*
X01637Y0322*
X01628Y03216*
X01622Y03209*
X01617Y03201*
X01615Y03192*
Y03183*
X01617Y03174*
X01622Y03165*
X01628Y03159*
X01637Y03154*
X01646Y03152*
X01655*
X01664Y03154*
X01672Y03159*
X01679Y03165*
X01683Y03174*
X01686Y03183*
Y03192*
X01683Y03201*
X01679Y03209*
X01672Y03216*
X01664Y0322*
X01655Y03223*
G37*
G36*
X01557D02*
X01547D01*
X01538Y0322*
X0153Y03216*
X01523Y03209*
X01519Y03201*
X01516Y03192*
Y03183*
X01519Y03174*
X01523Y03165*
X0153Y03159*
X01538Y03154*
X01547Y03152*
X01557*
X01566Y03154*
X01574Y03159*
X0158Y03165*
X01585Y03174*
X01587Y03183*
Y03192*
X01585Y03201*
X0158Y03209*
X01574Y03216*
X01566Y0322*
X01557Y03223*
G37*
G36*
X01458D02*
X01449D01*
X0144Y0322*
X01432Y03216*
X01425Y03209*
X0142Y03201*
X01418Y03192*
Y03183*
X0142Y03174*
X01425Y03165*
X01432Y03159*
X0144Y03154*
X01449Y03152*
X01458*
X01467Y03154*
X01475Y03159*
X01482Y03165*
X01487Y03174*
X01489Y03183*
Y03192*
X01487Y03201*
X01482Y03209*
X01475Y03216*
X01467Y0322*
X01458Y03223*
G37*
G36*
X01132Y03221D02*
X01122D01*
X01113Y03219*
X01105Y03214*
X01099Y03208*
X01094Y03199*
X01091Y0319*
Y03181*
X01094Y03172*
X01099Y03164*
X01105Y03157*
X01113Y03153*
X01122Y0315*
X01132*
X01141Y03153*
X01149Y03157*
X01156Y03164*
X0116Y03172*
X01163Y03181*
Y0319*
X0116Y03199*
X01156Y03208*
X01149Y03214*
X01141Y03219*
X01132Y03221*
G37*
G36*
X01033D02*
X01024D01*
X01015Y03219*
X01007Y03214*
X01Y03208*
X00995Y03199*
X00993Y0319*
Y03181*
X00995Y03172*
X01Y03164*
X01007Y03157*
X01015Y03153*
X01024Y0315*
X01033*
X01042Y03153*
X0105Y03157*
X01057Y03164*
X01062Y03172*
X01064Y03181*
Y0319*
X01062Y03199*
X01057Y03208*
X0105Y03214*
X01042Y03219*
X01033Y03221*
G37*
G36*
X00935D02*
X00926D01*
X00916Y03219*
X00908Y03214*
X00902Y03208*
X00897Y03199*
X00895Y0319*
Y03181*
X00897Y03172*
X00902Y03164*
X00908Y03157*
X00916Y03153*
X00926Y0315*
X00935*
X00944Y03153*
X00952Y03157*
X00959Y03164*
X00963Y03172*
X00966Y03181*
Y0319*
X00963Y03199*
X00959Y03208*
X00952Y03214*
X00944Y03219*
X00935Y03221*
G37*
G36*
X00836D02*
X00827D01*
X00818Y03219*
X0081Y03214*
X00803Y03208*
X00799Y03199*
X00796Y0319*
Y03181*
X00799Y03172*
X00803Y03164*
X0081Y03157*
X00818Y03153*
X00827Y0315*
X00836*
X00846Y03153*
X00854Y03157*
X0086Y03164*
X00865Y03172*
X00867Y03181*
Y0319*
X00865Y03199*
X0086Y03208*
X00854Y03214*
X00846Y03219*
X00836Y03221*
G37*
G36*
X0207Y03136D02*
X02064D01*
X02058Y03133*
X02054Y03129*
X02052Y03124*
Y03118*
X02054Y03112*
X02058Y03109*
X02054Y03106*
X02052Y031*
Y03094*
X02054Y03089*
X02058Y03085*
X02063Y03082*
X02069*
X02075Y03085*
X02079Y03089*
X02081Y03094*
Y031*
X02079Y03106*
X02076Y03109*
X02079Y03112*
X02082Y03118*
Y03124*
X02079Y03129*
X02075Y03133*
X0207Y03136*
G37*
G36*
X03695Y03097D02*
X03687D01*
X0368Y03094*
X03675Y03089*
X03672Y03082*
Y03075*
X03675Y03068*
X0368Y03063*
X03687Y0306*
X03695*
X03701Y03063*
X03707Y03068*
X0371Y03075*
Y03082*
X03707Y03089*
X03701Y03094*
X03695Y03097*
G37*
G36*
X02209Y03059D02*
X02203D01*
X02197Y03057*
X02193Y03052*
X02191Y03047*
Y03041*
X02193Y03036*
X02197Y03031*
X02203Y03029*
X02209*
X02214Y03031*
X02218Y03036*
X02221Y03041*
Y03047*
X02218Y03052*
X02214Y03057*
X02209Y03059*
G37*
G36*
X02247Y03051D02*
X02241D01*
X02235Y03048*
X02231Y03044*
X02229Y03039*
Y03033*
X02231Y03027*
X02235Y03023*
X02241Y03021*
X02247*
X02252Y03023*
X02256Y03027*
X02258Y03033*
Y03039*
X02256Y03044*
X02252Y03048*
X02247Y03051*
G37*
G36*
X02489Y03048D02*
X02483D01*
X02478Y03046*
X02474Y03042*
X02471Y03036*
Y0303*
X02474Y03025*
X02478Y03021*
X02483Y03019*
X02489*
X02494Y03021*
X02499Y03025*
X02501Y0303*
Y03036*
X02499Y03042*
X02494Y03046*
X02489Y03048*
G37*
G36*
X02533Y03048D02*
X02527D01*
X02522Y03046*
X02517Y03042*
X02515Y03036*
Y0303*
X02517Y03025*
X02522Y03021*
X02527Y03018*
X02533*
X02538Y03021*
X02543Y03025*
X02545Y0303*
Y03036*
X02543Y03042*
X02538Y03046*
X02533Y03048*
G37*
G36*
X00232Y03156D02*
X00218D01*
X00205Y03154*
X00192Y03148*
X0018Y03141*
X0017Y03131*
X00162Y03119*
X00157Y03106*
X00154Y03092*
Y03079*
X00157Y03065*
X00162Y03052*
X0017Y0304*
X0018Y0303*
X00192Y03023*
X00205Y03017*
X00218Y03015*
X00232*
X00246Y03017*
X00259Y03023*
X0027Y0303*
X0028Y0304*
X00288Y03052*
X00293Y03065*
X00296Y03079*
Y03092*
X00293Y03106*
X00288Y03119*
X0028Y03131*
X0027Y03141*
X00259Y03148*
X00246Y03154*
X00232Y03156*
G37*
G36*
X03427Y03075D02*
X03421D01*
X03416Y03072*
X03411Y03068*
X03409Y03063*
Y03059*
X03405*
X034Y03057*
X03396Y03053*
X03393Y03047*
Y03041*
X03393Y03041*
X03388*
X03382Y03038*
X03378Y03034*
X03376Y03029*
Y03023*
X03378Y03018*
X03382Y03013*
X03388Y03011*
X03394*
X03399Y03013*
X03403Y03018*
X03406Y03023*
Y03029*
X03406Y0303*
X03411*
X03417Y03032*
X03421Y03036*
X03423Y03041*
Y03045*
X03427*
X03432Y03047*
X03436Y03051*
X03439Y03057*
Y03063*
X03436Y03068*
X03432Y03072*
X03427Y03075*
G37*
G36*
X03535Y02998D02*
X03529D01*
X03523Y02996*
X03519Y02992*
X03517Y02986*
Y0298*
X03519Y02975*
X03523Y02971*
X03529Y02969*
X03535*
X0354Y02971*
X03544Y02975*
X03547Y0298*
Y02986*
X03544Y02992*
X0354Y02996*
X03535Y02998*
G37*
G36*
X02567Y0298D02*
X02562D01*
X02557Y02978*
X02554Y02974*
X02552Y02969*
Y02964*
X02554Y0296*
X02557Y02956*
X02562Y02954*
X02567*
X02572Y02956*
X02575Y0296*
X02577Y02964*
Y02969*
X02575Y02974*
X02572Y02978*
X02567Y0298*
G37*
G36*
X03604Y02991D02*
X03599D01*
X03593Y02989*
X03589Y02985*
X03587Y0298*
Y02974*
X03589Y02968*
X03592Y02965*
X03589Y02961*
X03587Y02956*
Y0295*
X03589Y02945*
X03593Y02941*
X03599Y02938*
X03604*
X0361Y02941*
X03614Y02945*
X03616Y0295*
Y02956*
X03614Y02961*
X03611Y02965*
X03614Y02968*
X03616Y02974*
Y0298*
X03614Y02985*
X0361Y02989*
X03604Y02991*
G37*
G36*
X02721Y02957D02*
X02716D01*
X02712Y02955*
X02708Y02951*
X02706Y02947*
Y02941*
X02708Y02937*
X02712Y02933*
X02716Y02931*
X02721*
X02726Y02933*
X0273Y02937*
X02732Y02941*
Y02947*
X0273Y02951*
X02726Y02955*
X02721Y02957*
G37*
G36*
X02803Y02954D02*
X02798D01*
X02793Y02952*
X02789Y02948*
X02787Y02944*
Y02939*
X02789Y02934*
X02793Y0293*
X02798Y02928*
X02803*
X02808Y0293*
X02811Y02934*
X02813Y02939*
Y02944*
X02811Y02948*
X02808Y02952*
X02803Y02954*
G37*
G36*
X03535Y02956D02*
X03529D01*
X03524Y02953*
X0352Y02949*
X03517Y02944*
Y02938*
X0352Y02932*
X03524Y02928*
X03529Y02926*
X03535*
X03541Y02928*
X03545Y02932*
X03547Y02938*
Y02944*
X03545Y02949*
X03541Y02953*
X03535Y02956*
G37*
G36*
X03708Y03017D02*
X03702D01*
X03696Y03015*
X03692Y03011*
X0369Y03005*
Y02999*
X03692Y02994*
X03693Y02993*
X03696Y0299*
X03692Y02985*
X03689Y0298*
Y02974*
X03692Y02969*
X03695Y02965*
X03692Y02962*
X03689Y02956*
Y02951*
X03692Y02945*
X03695Y02942*
X03692Y02938*
X03689Y02933*
Y02927*
X03692Y02921*
X03696Y02917*
X03701Y02915*
X03707*
X03713Y02917*
X03717Y02921*
X03719Y02927*
Y02933*
X03717Y02938*
X03713Y02942*
X03717Y02945*
X03719Y02951*
Y02956*
X03717Y02962*
X03713Y02965*
X03717Y02969*
X03719Y02974*
Y0298*
X03717Y02985*
X03716Y02986*
X03713Y0299*
X03717Y02994*
X03719Y02999*
Y03005*
X03717Y03011*
X03713Y03015*
X03708Y03017*
G37*
G36*
X01634Y0296D02*
X01624D01*
X01615Y02957*
X01607Y02952*
X016Y02945*
X01595Y02937*
X01593Y02928*
Y02918*
X01595Y02909*
X016Y02901*
X01607Y02894*
X01615Y02889*
X01624Y02887*
X01634*
X01643Y02889*
X01651Y02894*
X01658Y02901*
X01663Y02909*
X01665Y02918*
Y02928*
X01663Y02937*
X01658Y02945*
X01651Y02952*
X01643Y02957*
X01634Y0296*
G37*
G36*
X0317Y0293D02*
X03163D01*
X03156Y02928*
X03151Y02923*
X03148Y02916*
Y02909*
X03151Y02902*
X03156Y02897*
X03163Y02895*
X0317*
X03176Y02897*
X03177Y02898*
X0318Y02897*
X03182Y02896*
X03184Y0289*
X03189Y02885*
X03196Y02883*
X03203*
X0321Y02885*
X03215Y0289*
X03216Y02894*
X03221*
X03223Y02891*
X03228Y02886*
X03234Y02883*
X03241*
X03248Y02886*
X03253Y02891*
X03255Y02897*
Y02904*
X03253Y02911*
X03248Y02916*
X03241Y02918*
X03234*
X03228Y02916*
X03223Y02911*
X03221Y02907*
X03216*
X03215Y0291*
X0321Y02915*
X03203Y02918*
X03196*
X03189Y02915*
X03189Y02915*
X03186Y02915*
X03184Y02916*
X03181Y02923*
X03176Y02928*
X0317Y0293*
G37*
G36*
X02102Y02895D02*
X02096D01*
X02091Y02892*
X02087Y02888*
X02084Y02883*
Y02877*
X02087Y02871*
X02091Y02867*
X02096Y02865*
X02102*
X02107Y02867*
X02112Y02871*
X02114Y02877*
Y02883*
X02112Y02888*
X02107Y02892*
X02102Y02895*
G37*
G36*
X01486Y02887D02*
X01481D01*
X01477Y02885*
X01473Y02882*
X01471Y02877*
Y02872*
X01473Y02867*
X01477Y02863*
X01481Y02862*
X01486*
X01491Y02863*
X01495Y02867*
X01497Y02872*
Y02877*
X01495Y02882*
X01491Y02885*
X01486Y02887*
G37*
G36*
X02617Y02886D02*
X02612D01*
X02607Y02884*
X02603Y02881*
X02601Y02876*
Y02871*
X02603Y02866*
X02607Y02863*
X02612Y02861*
X02617*
X02621Y02863*
X02625Y02866*
X02627Y02871*
Y02876*
X02625Y02881*
X02621Y02884*
X02617Y02886*
G37*
G36*
X02291Y02884D02*
X02286D01*
X02281Y02882*
X02278Y02878*
X02276Y02873*
Y02868*
X02278Y02864*
X02281Y0286*
X02286Y02858*
X02291*
X02296Y0286*
X02299Y02864*
X02301Y02868*
Y02873*
X02299Y02878*
X02296Y02882*
X02291Y02884*
G37*
G36*
X02757Y02897D02*
X02752D01*
X02747Y02895*
X02743Y02891*
X02741Y02886*
Y02884*
X0274Y02881*
X02737Y02879*
X02734*
X0273Y02877*
X02726Y02874*
X02724Y02869*
Y02864*
X02726Y02859*
X0273Y02856*
X02734Y02854*
X02739*
X02744Y02856*
X02748Y02859*
X0275Y02864*
Y02866*
X02751Y0287*
X02754Y02871*
X02757*
X02761Y02873*
X02765Y02877*
X02767Y02881*
Y02886*
X02765Y02891*
X02761Y02895*
X02757Y02897*
G37*
G36*
X02521Y02884D02*
X02515D01*
X0251Y02881*
X02506Y02877*
X02504Y02872*
Y02866*
X02506Y0286*
X0251Y02856*
X02515Y02854*
X02521*
X02526Y02856*
X02528Y02856*
X02531Y02854*
X02533Y0285*
X02537Y02846*
X02543Y02843*
X02549*
X02554Y02846*
X02558Y0285*
X02559Y02851*
X02564Y02853*
X0257Y02851*
X02576*
X02581Y02853*
X02585Y02857*
X02587Y02862*
Y02868*
X02585Y02874*
X02581Y02878*
X02576Y0288*
X0257*
X02564Y02878*
X0256Y02874*
X0256Y02872*
X02554Y02871*
X02549Y02873*
X02543*
X02538Y02871*
X02536Y02871*
X02533Y02873*
X02531Y02877*
X02527Y02881*
X02521Y02884*
G37*
G36*
X02486Y02871D02*
X0248D01*
X02474Y02869*
X0247Y02865*
X02468Y02859*
Y02854*
X0247Y02848*
X02474Y02844*
X0248Y02842*
X02486*
X02491Y02844*
X02495Y02848*
X02497Y02854*
Y02859*
X02495Y02865*
X02491Y02869*
X02486Y02871*
G37*
G36*
X03695Y0287D02*
X03687D01*
X0368Y02867*
X03675Y02862*
X03672Y02855*
Y02847*
X03675Y0284*
X0368Y02835*
X03687Y02832*
X03695*
X03701Y02835*
X03707Y0284*
X0371Y02847*
Y02855*
X03707Y02862*
X03701Y02867*
X03695Y0287*
G37*
G36*
X01016Y02891D02*
X01007D01*
X00998Y02889*
X00989Y02884*
X00983Y02877*
X00978Y02869*
X00976Y0286*
Y02851*
X00978Y02842*
X00983Y02834*
X00989Y02827*
X00998Y02822*
X01007Y0282*
X01016*
X01025Y02822*
X01033Y02827*
X0104Y02834*
X01044Y02842*
X01047Y02851*
Y0286*
X01044Y02869*
X0104Y02877*
X01033Y02884*
X01025Y02889*
X01016Y02891*
G37*
G36*
X02436Y02883D02*
X02431D01*
X02426Y02881*
X02423Y02877*
X02421Y02873*
Y02867*
X02423Y02863*
X02426Y02859*
X02431Y02857*
X02431Y02857*
X02433Y02852*
X02432Y0285*
Y02845*
X02434Y02841*
X02433Y02838*
X02432Y02835*
X02427Y02833*
X02423Y02829*
X02421Y02824*
Y02818*
X02423Y02812*
X02427Y02808*
X02432Y02806*
X02438*
X02444Y02808*
X02448Y02812*
X0245Y02818*
Y02824*
X02448Y02829*
X02448Y02829*
X02448Y02831*
X02449Y02835*
X02452Y02836*
X02456Y0284*
X02458Y02845*
Y0285*
X02456Y02854*
X02452Y02858*
X02448Y0286*
X02448Y0286*
X02445Y02865*
X02446Y02867*
Y02873*
X02444Y02877*
X02441Y02881*
X02436Y02883*
G37*
G36*
X01828Y02831D02*
X01823D01*
X01818Y02829*
X01814Y02825*
X01812Y02821*
Y02815*
X01814Y02811*
X01818Y02807*
X01823Y02805*
X01828*
X01832Y02807*
X01836Y02811*
X01838Y02815*
Y02821*
X01836Y02825*
X01832Y02829*
X01828Y02831*
G37*
G36*
X02664Y02816D02*
X02659D01*
X02654Y02814*
X02651Y0281*
X02649Y02805*
Y028*
X02651Y02795*
X02654Y02792*
X02659Y0279*
X02664*
X02669Y02792*
X02673Y02795*
X02675Y028*
Y02805*
X02673Y0281*
X02669Y02814*
X02664Y02816*
G37*
G36*
X01665Y02861D02*
X01593D01*
Y02788*
X01665*
Y02861*
G37*
G36*
X0228Y02798D02*
X02275D01*
X0227Y02796*
X02266Y02793*
X02264Y02788*
Y02783*
X02266Y02778*
X0227Y02775*
X02275Y02773*
X0228*
X0228Y02773*
X02282Y02769*
X02282Y02768*
X0228Y02763*
Y02758*
X02282Y02754*
X02286Y0275*
X0229Y02748*
X02295*
X023Y0275*
X02304Y02754*
X02306Y02758*
Y02763*
X02304Y02768*
X023Y02772*
X02295Y02774*
X0229*
X0229Y02774*
X02287Y02778*
X02288Y02778*
X0229Y02783*
Y02788*
X02288Y02793*
X02284Y02796*
X0228Y02798*
G37*
G36*
X00232Y02883D02*
X00218D01*
X00205Y0288*
X00192Y02875*
X0018Y02867*
X0017Y02858*
X00162Y02846*
X00157Y02833*
X00154Y02819*
Y02805*
X00157Y02792*
X00162Y02779*
X0017Y02767*
X0018Y02757*
X00192Y0275*
X00205Y02744*
X00218Y02741*
X00232*
X00246Y02744*
X00259Y0275*
X0027Y02757*
X0028Y02767*
X00288Y02779*
X00293Y02792*
X00296Y02805*
Y02819*
X00293Y02833*
X00288Y02846*
X0028Y02858*
X0027Y02867*
X00259Y02875*
X00246Y0288*
X00232Y02883*
G37*
G36*
X02134Y02767D02*
X02129D01*
X02124Y02765*
X02121Y02761*
X02119Y02756*
Y02751*
X02121Y02747*
X02124Y02743*
X02129Y02741*
X02134*
X02139Y02743*
X02142Y02747*
X02144Y02751*
Y02756*
X02142Y02761*
X02139Y02765*
X02134Y02767*
G37*
G36*
X02562Y0275D02*
X02556D01*
X02551Y02748*
X02546Y02744*
X02544Y02739*
Y02733*
X02546Y02727*
X02551Y02723*
X02556Y02721*
X02562*
X02567Y02723*
X02571Y02727*
X02574Y02733*
Y02739*
X02571Y02744*
X02567Y02748*
X02562Y0275*
G37*
G36*
X02049Y02785D02*
X02043D01*
X02039Y02783*
X02035Y0278*
X02033Y02775*
Y0277*
X02035Y02766*
X02034Y02763*
X02032Y02761*
X02032*
X02027Y02759*
X02024Y02755*
X02022Y0275*
Y02745*
X02024Y02741*
X02027Y02737*
X02032Y02735*
X02036*
X02038Y02731*
Y02731*
X02036Y02729*
X02034Y02724*
Y02719*
X02036Y02714*
X0204Y02711*
X02045Y02709*
X0205*
X02054Y02711*
X02058Y02714*
X0206Y02719*
Y02724*
X02058Y02729*
X02054Y02732*
X0205Y02734*
X02046*
X02044Y02739*
Y02739*
X02045Y02741*
X02047Y02745*
Y0275*
X02046Y02754*
X02047Y02757*
X02048Y02759*
X02049*
X02053Y02761*
X02057Y02765*
X02059Y0277*
Y02775*
X02057Y0278*
X02053Y02783*
X02049Y02785*
G37*
G36*
X02661Y02722D02*
X02655D01*
X02649Y0272*
X02645Y02716*
X02643Y0271*
Y02704*
X02645Y02699*
X02649Y02695*
X02655Y02693*
X02661*
X02666Y02695*
X0267Y02699*
X02673Y02704*
Y0271*
X0267Y02716*
X02666Y0272*
X02661Y02722*
G37*
G36*
X02506Y02708D02*
X025D01*
X02494Y02706*
X0249Y02702*
X02488Y02696*
Y0269*
X0249Y02685*
X02494Y02681*
X025Y02678*
X02506*
X02511Y02681*
X02515Y02685*
X02517Y0269*
Y02696*
X02515Y02702*
X02511Y02706*
X02506Y02708*
G37*
G36*
X03173Y02663D02*
X03167D01*
X03163Y02661*
X03159Y02658*
X03157Y02653*
Y02648*
X03159Y02643*
X03163Y02639*
X03167Y02637*
X03173*
X03177Y02639*
X03181Y02643*
X03183Y02648*
Y02653*
X03181Y02658*
X03177Y02661*
X03173Y02663*
G37*
G36*
X0033Y02697D02*
X00321D01*
X00312Y02694*
X00304Y0269*
X00298Y02683*
X00293Y02676*
X00291Y02667*
Y02658*
X00293Y02649*
X00298Y02641*
X00304Y02635*
X00312Y0263*
X00321Y02628*
X0033*
X00339Y0263*
X00346Y02635*
X00353Y02641*
X00357Y02649*
X0036Y02658*
Y02667*
X00357Y02676*
X00353Y02683*
X00346Y0269*
X00339Y02694*
X0033Y02697*
G37*
G36*
X02506Y02648D02*
X02501D01*
X02497Y02646*
X02493Y02642*
X02491Y02637*
Y02632*
X02487Y02629*
X02484Y02627*
X02479Y02629*
X02479Y0263*
X02475Y02633*
X02471Y02635*
X02465*
X02461Y02633*
X02458Y0263*
X02456Y0263*
X02455Y0263*
X02452Y02631*
X02451Y02635*
X02447Y02638*
X02443Y0264*
X02438*
X02433Y02638*
X0243Y02636*
X02429Y02635*
X02424Y02636*
X02423Y02637*
X02418Y02639*
X02413*
X02409Y02637*
X02405Y02633*
X02403Y02628*
Y02623*
X02405Y02619*
X02409Y02615*
X02413Y02613*
X02418*
X02423Y02615*
X02426Y02618*
X02427Y02619*
X02432Y02618*
X02433Y02617*
X02438Y02615*
X02443*
X02447Y02617*
X0245Y0262*
X02452Y0262*
X02453Y02619*
X02456Y02619*
X02457Y02615*
X02461Y02611*
X02465Y0261*
X02471*
X02475Y02611*
X0248Y02609*
X0248Y02609*
X02484Y02606*
X02489Y02604*
X02494*
X02498Y02606*
X02502Y02609*
X02504Y02614*
Y02619*
X02508Y02623*
X02511Y02624*
X02515Y02628*
X02517Y02632*
Y02637*
X02515Y02642*
X02511Y02646*
X02506Y02648*
G37*
G36*
X0266Y02639D02*
X02654D01*
X0265Y02637*
X02646Y02633*
X02644Y02628*
Y02623*
X02646Y02619*
X0265Y02615*
X02654Y02613*
X0266*
X02664Y02615*
X02668Y02619*
X0267Y02623*
Y02628*
X02668Y02633*
X02664Y02637*
X0266Y02639*
G37*
G36*
X01986Y02628D02*
X0198D01*
X01975Y02626*
X01971Y02622*
X01969Y02617*
Y02612*
X01967Y0261*
X01964Y02609*
X01963Y0261*
X01957Y02613*
X01951*
X01946Y0261*
X01942Y02606*
X01939Y02601*
Y02595*
X01942Y0259*
X01946Y02585*
X01951Y02583*
X01953*
X01956Y02578*
X01955Y02575*
Y02569*
X01957Y02564*
X01962Y0256*
X01967Y02558*
X01973*
X01978Y0256*
X01982Y02564*
X01985Y02569*
Y02575*
X01982Y02581*
X01978Y02585*
X01973Y02587*
X01971*
X01968Y02592*
X01969Y02595*
Y026*
X01971Y02602*
X01974Y02603*
X01975Y02601*
X0198Y02599*
X01986*
X01992Y02601*
X01996Y02605*
X01998Y02611*
Y02617*
X01996Y02622*
X01992Y02626*
X01986Y02628*
G37*
G36*
X0255Y0261D02*
X02545D01*
X0254Y02608*
X02536Y02604*
X02534Y026*
Y02595*
X02536Y0259*
X0254Y02586*
X02545Y02584*
X0255*
X02554Y02586*
X02558Y0259*
X0256Y02595*
Y026*
X02558Y02604*
X02554Y02608*
X0255Y0261*
G37*
G36*
X02332Y02632D02*
X02326D01*
X02322Y0263*
X02318Y02626*
X02316Y02621*
Y02616*
X02318Y02612*
X02321Y02609*
X02321Y02605*
X0232Y02603*
X02317Y026*
X02315Y02595*
Y0259*
X02317Y02586*
X02321Y02582*
X02325Y0258*
X0233*
X02335Y02582*
X02339Y02586*
X02341Y0259*
Y02595*
X02339Y026*
X02336Y02603*
X02336Y02607*
X02337Y02608*
X0234Y02612*
X02342Y02616*
Y02621*
X0234Y02626*
X02336Y0263*
X02332Y02632*
G37*
G36*
X02521Y02573D02*
X02516D01*
X02511Y02571*
X02507Y02567*
X02501Y02566*
X025Y02566*
X02495*
X0249Y02564*
X02487Y02561*
X02485Y02556*
Y02551*
X02487Y02546*
X0249Y02542*
X02495Y02541*
X025*
X02505Y02542*
X02508Y02546*
X02514Y02548*
X02516Y02547*
X02521*
X02525Y02549*
X02529Y02553*
X02531Y02558*
Y02563*
X02529Y02567*
X02525Y02571*
X02521Y02573*
G37*
G36*
X02143Y02584D02*
X02137D01*
X02132Y02582*
X02128Y02578*
X02125Y02573*
Y02567*
X02128Y02561*
X02132Y02557*
X02137Y02555*
X02143*
X02148Y02557*
X02153Y02561*
X02155Y02567*
Y02573*
X02153Y02578*
X02148Y02582*
X02143Y02584*
G37*
G36*
X02663Y02581D02*
X02657D01*
X02651Y02579*
X02647Y02575*
X02645Y02569*
Y02563*
X02647Y02558*
X02651Y02554*
X02657Y02552*
X02663*
X02668Y02554*
X02672Y02558*
X02675Y02563*
Y02569*
X02672Y02575*
X02668Y02579*
X02663Y02581*
G37*
G36*
X01736Y02615D02*
X01726D01*
X01717Y02613*
X01709Y02608*
X01703Y02601*
X01698Y02593*
X01695Y02584*
Y02575*
X01698Y02566*
X01703Y02558*
X01709Y02551*
X01717Y02546*
X01726Y02544*
X01736*
X01745Y02546*
X01753Y02551*
X01759Y02558*
X01764Y02566*
X01767Y02575*
Y02584*
X01764Y02593*
X01759Y02601*
X01753Y02608*
X01745Y02613*
X01736Y02615*
G37*
G36*
X01637D02*
X01628D01*
X01619Y02613*
X01611Y02608*
X01604Y02601*
X01599Y02593*
X01597Y02584*
Y02575*
X01599Y02566*
X01604Y02558*
X01611Y02551*
X01619Y02546*
X01628Y02544*
X01637*
X01646Y02546*
X01654Y02551*
X01661Y02558*
X01666Y02566*
X01668Y02575*
Y02584*
X01666Y02593*
X01661Y02601*
X01654Y02608*
X01646Y02613*
X01637Y02615*
G37*
G36*
X01539D02*
X01529D01*
X0152Y02613*
X01512Y02608*
X01506Y02601*
X01501Y02593*
X01499Y02584*
Y02575*
X01501Y02566*
X01506Y02558*
X01512Y02551*
X0152Y02546*
X01529Y02544*
X01539*
X01548Y02546*
X01556Y02551*
X01563Y02558*
X01567Y02566*
X0157Y02575*
Y02584*
X01567Y02593*
X01563Y02601*
X01556Y02608*
X01548Y02613*
X01539Y02615*
G37*
G36*
X0144D02*
X01431D01*
X01422Y02613*
X01414Y02608*
X01407Y02601*
X01403Y02593*
X014Y02584*
Y02575*
X01403Y02566*
X01407Y02558*
X01414Y02551*
X01422Y02546*
X01431Y02544*
X0144*
X01449Y02546*
X01458Y02551*
X01464Y02558*
X01469Y02566*
X01471Y02575*
Y02584*
X01469Y02593*
X01464Y02601*
X01458Y02608*
X01449Y02613*
X0144Y02615*
G37*
G36*
X02461Y02556D02*
X02455D01*
X0245Y02553*
X02445Y02549*
X02443Y02544*
Y02538*
X02445Y02532*
X0245Y02528*
X02455Y02526*
X02461*
X02466Y02528*
X02471Y02532*
X02473Y02538*
Y02544*
X02471Y02549*
X02466Y02553*
X02461Y02556*
G37*
G36*
X01016Y02592D02*
X01007D01*
X00998Y02589*
X00989Y02585*
X00983Y02578*
X00978Y0257*
X00976Y02561*
Y02552*
X00978Y02542*
X00983Y02534*
X00989Y02528*
X00998Y02523*
X01007Y02521*
X01016*
X01025Y02523*
X01033Y02528*
X0104Y02534*
X01044Y02542*
X01047Y02552*
Y02561*
X01044Y0257*
X0104Y02578*
X01033Y02585*
X01025Y02589*
X01016Y02592*
G37*
G36*
X0233Y02568D02*
X02325D01*
X02321Y02566*
X02317Y02562*
X02315Y02558*
Y02552*
X02317Y02548*
X0232Y02545*
X0232Y02542*
X0232Y02539*
X02317Y02536*
X02315Y02532*
Y02526*
X02317Y02522*
X02321Y02518*
X02325Y02516*
X0233*
X02335Y02518*
X02339Y02522*
X02341Y02526*
Y02532*
X02339Y02536*
X02336Y02539*
X02335Y02542*
X02336Y02545*
X02339Y02548*
X02341Y02552*
Y02558*
X02339Y02562*
X02335Y02566*
X0233Y02568*
G37*
G36*
X004Y02577D02*
X00391D01*
X00382Y02574*
X00374Y0257*
X00368Y02563*
X00363Y02556*
X00361Y02547*
Y02538*
X00363Y02529*
X00368Y02521*
X00374Y02515*
X00382Y0251*
X00391Y02508*
X004*
X00409Y0251*
X00416Y02515*
X00423Y02521*
X00427Y02529*
X0043Y02538*
Y02547*
X00427Y02556*
X00423Y02563*
X00416Y0257*
X00409Y02574*
X004Y02577*
G37*
G36*
X01974Y0253D02*
X01968D01*
X01962Y02528*
X01958Y02524*
X01956Y02519*
Y02513*
X01958Y02507*
X01962Y02503*
X01968Y02501*
X01974*
X01979Y02503*
X01983Y02507*
X01986Y02513*
Y02519*
X01983Y02524*
X01979Y02528*
X01974Y0253*
G37*
G36*
X03119Y02525D02*
X03114D01*
X03109Y02523*
X03106Y02519*
X03104Y02515*
Y0251*
X03106Y02505*
X03109Y02501*
X03114Y02499*
X03119*
X03124Y02501*
X03127Y02505*
X03129Y0251*
Y02515*
X03127Y02519*
X03124Y02523*
X03119Y02525*
G37*
G36*
X03082Y02524D02*
X03077D01*
X03072Y02522*
X03069Y02519*
X03067Y02514*
Y02509*
X03069Y02504*
X03072Y025*
X03077Y02499*
X03082*
X03087Y025*
X0309Y02504*
X03092Y02509*
Y02514*
X0309Y02519*
X03087Y02522*
X03082Y02524*
G37*
G36*
X0033Y02537D02*
X00321D01*
X00312Y02534*
X00304Y0253*
X00298Y02523*
X00293Y02516*
X00291Y02507*
Y02498*
X00293Y02489*
X00298Y02481*
X00304Y02475*
X00312Y0247*
X00321Y02468*
X0033*
X00339Y0247*
X00346Y02475*
X00353Y02481*
X00357Y02489*
X0036Y02498*
Y02507*
X00357Y02516*
X00353Y02523*
X00346Y0253*
X00339Y02534*
X0033Y02537*
G37*
G36*
X0378Y02513D02*
X03774D01*
X03767Y02512*
X03761Y02508*
X03757Y02503*
X03753Y02498*
X03751Y02491*
Y02484*
X03753Y02478*
X03757Y02472*
X03761Y02467*
X03767Y02464*
X03774Y02462*
X0378*
X03787Y02464*
X03793Y02467*
X03798Y02472*
X03801Y02478*
X03803Y02484*
Y02491*
X03801Y02498*
X03798Y02503*
X03793Y02508*
X03787Y02512*
X0378Y02513*
G37*
G36*
X02006Y02482D02*
X02001D01*
X01995Y0248*
X01991Y02476*
X01989Y0247*
Y02464*
X01991Y02459*
X01995Y02455*
X02001Y02452*
X02006*
X02012Y02455*
X02016Y02459*
X02018Y02464*
Y0247*
X02016Y02476*
X02012Y0248*
X02006Y02482*
G37*
G36*
X03404Y0247D02*
X03398D01*
X03392Y02468*
X03388Y02464*
X03386Y02458*
Y02452*
X03388Y02447*
X03392Y02443*
X03398Y02441*
X03404*
X03409Y02443*
X03413Y02447*
X03415Y02452*
Y02458*
X03413Y02464*
X03409Y02468*
X03404Y0247*
G37*
G36*
X02306Y02447D02*
X023D01*
X02294Y02445*
X0229Y02441*
X02288Y02436*
Y0243*
X0229Y02424*
X02294Y0242*
X023Y02418*
X02306*
X02311Y0242*
X02315Y02424*
X02317Y0243*
Y02436*
X02315Y02441*
X02311Y02445*
X02306Y02447*
G37*
G36*
X02141Y02486D02*
X02135D01*
X0213Y02484*
X02126Y0248*
X02123Y02474*
Y02469*
X02126Y02463*
X02129Y02459*
X02126Y02456*
X02124Y0245*
Y02445*
X02126Y02439*
X0213Y02435*
X02133Y02434*
X02133Y02429*
X02129Y02427*
X02125Y02423*
X02123Y02417*
Y02412*
X02125Y02406*
X02129Y02402*
X02134Y024*
X0214*
X02146Y02402*
X0215Y02406*
X02152Y02412*
Y02417*
X0215Y02423*
X02146Y02427*
X02143Y02428*
X02143Y02433*
X02147Y02435*
X02151Y02439*
X02153Y02445*
Y0245*
X02151Y02456*
X02147Y0246*
X02151Y02463*
X02153Y02469*
Y02474*
X02151Y0248*
X02146Y02484*
X02141Y02486*
G37*
G36*
X03294Y02425D02*
X03288D01*
X03282Y02423*
X03278Y02418*
X03276Y02413*
Y02407*
X03278Y02402*
X03282Y02398*
X03288Y02395*
X03294*
X03299Y02398*
X03303Y02402*
X03306Y02407*
Y02413*
X03303Y02418*
X03299Y02423*
X03294Y02425*
G37*
G36*
X02661Y02506D02*
X02655D01*
X0265Y02503*
X02646Y02499*
X02643Y02494*
Y02488*
X02646Y02482*
X0265Y02478*
X02651Y02478*
Y02473*
X0265Y02472*
X02646Y02468*
X02643Y02463*
Y02457*
X02646Y02451*
X02648Y02449*
X02649Y02446*
X02648Y02443*
X02646Y02441*
X02644Y02435*
Y02429*
X02646Y02424*
X0265Y0242*
X0265Y0242*
X0265Y02414*
X0265Y02414*
X02647Y02408*
Y02402*
X0265Y02397*
X02654Y02393*
X02659Y02391*
X02665*
X0267Y02393*
X02675Y02397*
X02677Y02402*
Y02408*
X02675Y02414*
X02671Y02417*
X0267Y02418*
X02671Y02423*
X02671Y02424*
X02673Y02429*
Y02435*
X02671Y02441*
X02669Y02443*
X02667Y02446*
X02669Y02449*
X02671Y02451*
X02673Y02457*
Y02463*
X02671Y02468*
X02667Y02472*
X02666Y02473*
Y02478*
X02667Y02478*
X02671Y02482*
X02673Y02488*
Y02494*
X02671Y02499*
X02667Y02503*
X02661Y02506*
G37*
G36*
X0033Y02457D02*
X00321D01*
X00312Y02454*
X00304Y0245*
X00298Y02443*
X00293Y02436*
X00291Y02427*
Y02418*
X00293Y02409*
X00298Y02401*
X00304Y02395*
X00312Y0239*
X00321Y02388*
X0033*
X00339Y0239*
X00346Y02395*
X00353Y02401*
X00357Y02409*
X0036Y02418*
Y02427*
X00357Y02436*
X00353Y02443*
X00346Y0245*
X00339Y02454*
X0033Y02457*
G37*
G36*
X03292Y02384D02*
X03286D01*
X0328Y02382*
X03276Y02378*
X03274Y02373*
Y02367*
X03276Y02361*
X0328Y02357*
X03286Y02355*
X03292*
X03297Y02357*
X03301Y02361*
X03303Y02367*
Y02373*
X03301Y02378*
X03297Y02382*
X03292Y02384*
G37*
G36*
X03076Y0238D02*
X03071D01*
X03066Y02378*
X03062Y02375*
X0306Y0237*
Y02365*
X03062Y0236*
X03066Y02357*
X03071Y02355*
X03076*
X0308Y02357*
X03084Y0236*
X03086Y02365*
Y0237*
X03084Y02375*
X0308Y02378*
X03076Y0238*
G37*
G36*
X03124Y0238D02*
X03119D01*
X03114Y02378*
X03111Y02374*
X03109Y02369*
Y02364*
X03111Y0236*
X03114Y02356*
X03119Y02354*
X03124*
X03129Y02356*
X03132Y0236*
X03134Y02364*
Y02369*
X03132Y02374*
X03129Y02378*
X03124Y0238*
G37*
G36*
X02425Y02379D02*
X02419D01*
X02414Y02377*
X02409Y02373*
X02407Y02367*
Y02362*
X02409Y02356*
X02414Y02352*
X02419Y0235*
X02425*
X0243Y02352*
X02434Y02356*
X02437Y02362*
Y02367*
X02434Y02373*
X0243Y02377*
X02425Y02379*
G37*
G36*
X01657Y02375D02*
X01651D01*
X01646Y02373*
X01642Y02368*
X01639Y02363*
Y02357*
X01642Y02352*
X01646Y02348*
X01651Y02345*
X01657*
X01663Y02348*
X01667Y02352*
X01669Y02357*
Y02363*
X01667Y02368*
X01663Y02373*
X01657Y02375*
G37*
G36*
X01584Y02373D02*
X01578D01*
X01573Y02371*
X01569Y02367*
X01567Y02361*
Y02355*
X01569Y0235*
X01573Y02346*
X01578Y02343*
X01584*
X0159Y02346*
X01594Y0235*
X01596Y02355*
Y02361*
X01594Y02367*
X0159Y02371*
X01584Y02373*
G37*
G36*
X0325Y02371D02*
X03245D01*
X03239Y02369*
X03235Y02365*
X03233Y0236*
Y02354*
X03235Y02348*
X03239Y02344*
X03245Y02342*
X0325*
X03256Y02344*
X0326Y02348*
X03262Y02354*
Y0236*
X0326Y02365*
X03256Y02369*
X0325Y02371*
G37*
G36*
X02322Y02362D02*
X02316D01*
X02311Y0236*
X02307Y02356*
X02304Y0235*
Y02344*
X02307Y02339*
X02311Y02335*
X02316Y02332*
X02322*
X02328Y02335*
X02332Y02339*
X02334Y02344*
Y0235*
X02332Y02356*
X02328Y0236*
X02322Y02362*
G37*
G36*
X01791Y02361D02*
X01785D01*
X01779Y02359*
X01775Y02355*
X01773Y02349*
Y02343*
X01775Y02338*
X01779Y02334*
X01785Y02332*
X01791*
X01796Y02334*
X018Y02338*
X01802Y02343*
Y02349*
X018Y02355*
X01796Y02359*
X01791Y02361*
G37*
G36*
X0251Y02354D02*
X02505D01*
X02501Y02352*
X02497Y02348*
X02495Y02344*
Y02339*
X02497Y02334*
X02501Y0233*
X02505Y02328*
X0251*
X02515Y0233*
X02519Y02334*
X02521Y02339*
Y02344*
X02519Y02348*
X02515Y02352*
X0251Y02354*
G37*
G36*
X02479Y02351D02*
X02474D01*
X02469Y0235*
X02465Y02346*
X02463Y02341*
Y02336*
X02465Y02331*
X02469Y02328*
X02474Y02326*
X02479*
X02483Y02328*
X02487Y02331*
X02489Y02336*
Y02341*
X02487Y02346*
X02483Y0235*
X02479Y02351*
G37*
G36*
X02085Y02354D02*
X02079D01*
X02073Y02351*
X02069Y02347*
X02067Y02342*
Y02336*
X02069Y02331*
X02073Y02326*
X02079Y02324*
X02085*
X0209Y02326*
X02094Y02331*
X02097Y02336*
Y02342*
X02094Y02347*
X0209Y02351*
X02085Y02354*
G37*
G36*
X02954Y0233D02*
X02949D01*
X02944Y02328*
X02941Y02325*
X02939Y0232*
Y02315*
X02941Y0231*
X02944Y02307*
X02949Y02305*
X02954*
X02959Y02307*
X02962Y0231*
X02964Y02315*
Y0232*
X02962Y02325*
X02959Y02328*
X02954Y0233*
G37*
G36*
X03293Y02309D02*
X03287D01*
X03281Y02307*
X03277Y02302*
X03275Y02297*
Y02291*
X03277Y02286*
X03281Y02281*
X03287Y02279*
X03293*
X03298Y02281*
X03302Y02286*
X03304Y02291*
Y02297*
X03302Y02302*
X03298Y02307*
X03293Y02309*
G37*
G36*
X03058Y0228D02*
X03052D01*
X03048Y02278*
X03044Y02274*
X03042Y02269*
Y02264*
X03044Y0226*
X03048Y02256*
X03052Y02254*
X03058*
X03062Y02256*
X03066Y0226*
X03068Y02264*
Y02269*
X03066Y02274*
X03062Y02278*
X03058Y0228*
G37*
G36*
X02487Y02275D02*
X02482D01*
X02478Y02273*
X02474Y0227*
X02472Y02265*
Y0226*
X02474Y02255*
X02478Y02252*
X02482Y0225*
X02487*
X02492Y02252*
X02496Y02255*
X02498Y0226*
Y02265*
X02496Y0227*
X02492Y02273*
X02487Y02275*
G37*
G36*
X02261Y02276D02*
X02256D01*
X02251Y02274*
X02248Y02271*
X02246Y02266*
Y02261*
X02248Y02256*
X02251Y02253*
X02256Y02251*
X02261*
X02266Y02253*
X02271Y02251*
X02272Y0225*
X02275Y02247*
X0228Y02245*
X02285*
X0229Y02247*
X02293Y0225*
X02295Y02255*
Y0226*
X02293Y02265*
X0229Y02268*
X02285Y0227*
X0228*
X02275Y02268*
X0227Y0227*
X02269Y02271*
X02266Y02274*
X02261Y02276*
G37*
G36*
X00232Y02383D02*
X00218D01*
X00205Y0238*
X00192Y02375*
X0018Y02367*
X0017Y02358*
X00162Y02346*
X00157Y02333*
X00154Y02319*
Y02305*
X00157Y02292*
X00162Y02279*
X0017Y02267*
X0018Y02257*
X00192Y0225*
X00205Y02244*
X00218Y02241*
X00232*
X00246Y02244*
X00259Y0225*
X0027Y02257*
X0028Y02267*
X00288Y02279*
X00293Y02292*
X00296Y02305*
Y02319*
X00293Y02333*
X00288Y02346*
X0028Y02358*
X0027Y02367*
X00259Y02375*
X00246Y0238*
X00232Y02383*
G37*
G36*
X02659Y02266D02*
X02653D01*
X02647Y02264*
X02643Y0226*
X02641Y02254*
Y02249*
X02643Y02243*
X02647Y02239*
X02653Y02237*
X02659*
X02664Y02239*
X02668Y02243*
X02671Y02249*
Y02254*
X02668Y0226*
X02664Y02264*
X02659Y02266*
G37*
G36*
X01272Y02302D02*
X01263D01*
X01254Y023*
X01246Y02295*
X01239Y02289*
X01234Y02281*
X01232Y02272*
Y02262*
X01234Y02253*
X01239Y02245*
X01246Y02238*
X01254Y02234*
X01263Y02231*
X01272*
X01281Y02234*
X01289Y02238*
X01296Y02245*
X01301Y02253*
X01303Y02262*
Y02272*
X01301Y02281*
X01296Y02289*
X01289Y02295*
X01281Y023*
X01272Y02302*
G37*
G36*
X01174D02*
X01165D01*
X01155Y023*
X01147Y02295*
X01141Y02289*
X01136Y02281*
X01134Y02272*
Y02262*
X01136Y02253*
X01141Y02245*
X01147Y02238*
X01155Y02234*
X01165Y02231*
X01174*
X01183Y02234*
X01191Y02238*
X01198Y02245*
X01202Y02253*
X01205Y02262*
Y02272*
X01202Y02281*
X01198Y02289*
X01191Y02295*
X01183Y023*
X01174Y02302*
G37*
G36*
X01075D02*
X01066D01*
X01057Y023*
X01049Y02295*
X01042Y02289*
X01038Y02281*
X01035Y02272*
Y02262*
X01038Y02253*
X01042Y02245*
X01049Y02238*
X01057Y02234*
X01066Y02231*
X01075*
X01084Y02234*
X01093Y02238*
X01099Y02245*
X01104Y02253*
X01106Y02262*
Y02272*
X01104Y02281*
X01099Y02289*
X01093Y02295*
X01084Y023*
X01075Y02302*
G37*
G36*
X00977D02*
X00968D01*
X00959Y023*
X0095Y02295*
X00944Y02289*
X00939Y02281*
X00937Y02272*
Y02262*
X00939Y02253*
X00944Y02245*
X0095Y02238*
X00959Y02234*
X00968Y02231*
X00977*
X00986Y02234*
X00994Y02238*
X01001Y02245*
X01006Y02253*
X01008Y02262*
Y02272*
X01006Y02281*
X01001Y02289*
X00994Y02295*
X00986Y023*
X00977Y02302*
G37*
G36*
X00879D02*
X00869D01*
X0086Y023*
X00852Y02295*
X00845Y02289*
X00841Y02281*
X00838Y02272*
Y02262*
X00841Y02253*
X00845Y02245*
X00852Y02238*
X0086Y02234*
X00869Y02231*
X00879*
X00888Y02234*
X00896Y02238*
X00902Y02245*
X00907Y02253*
X0091Y02262*
Y02272*
X00907Y02281*
X00902Y02289*
X00896Y02295*
X00888Y023*
X00879Y02302*
G37*
G36*
X01656Y02255D02*
X01651D01*
X01645Y02253*
X01641Y02248*
X01639Y02243*
Y02237*
X01641Y02232*
X01645Y02228*
X01651Y02225*
X01656*
X01662Y02228*
X01666Y02232*
X01668Y02237*
Y02243*
X01666Y02248*
X01662Y02253*
X01656Y02255*
G37*
G36*
X01583Y02252D02*
X01577D01*
X01571Y0225*
X01567Y02246*
X01565Y02241*
Y02235*
X01567Y02229*
X01571Y02225*
X01577Y02223*
X01583*
X01588Y02225*
X01592Y02229*
X01595Y02235*
Y02241*
X01592Y02246*
X01588Y0225*
X01583Y02252*
G37*
G36*
X02109Y02237D02*
X02103D01*
X02098Y02234*
X02094Y0223*
X02091Y02225*
Y02219*
X02094Y02214*
X02098Y02209*
X02103Y02207*
X02109*
X02115Y02209*
X02119Y02214*
X02121Y02219*
Y02225*
X02119Y0223*
X02115Y02234*
X02109Y02237*
G37*
G36*
X03402Y0221D02*
X03397D01*
X03391Y02208*
X03387Y02204*
X03385Y02198*
Y02192*
X03387Y02187*
X03391Y02183*
X03397Y0218*
X03402*
X03408Y02183*
X03412Y02187*
X03414Y02192*
Y02198*
X03412Y02204*
X03408Y02208*
X03402Y0221*
G37*
G36*
X02485Y02183D02*
X0248D01*
X02475Y02181*
X02472Y02178*
X0247Y02173*
Y02168*
X02472Y02163*
X02475Y0216*
X0248Y02158*
X02485*
X0249Y0216*
X02494Y02163*
X02495Y02168*
Y02173*
X02494Y02178*
X0249Y02181*
X02485Y02183*
G37*
G36*
X02338Y02185D02*
X02333D01*
X02327Y02182*
X02323Y02178*
X02321Y02173*
Y02167*
X02323Y02161*
X02327Y02157*
X02333Y02155*
X02338*
X02344Y02157*
X02348Y02161*
X0235Y02167*
Y02173*
X02348Y02178*
X02344Y02182*
X02338Y02185*
G37*
G36*
X02184Y02184D02*
X02178D01*
X02173Y02182*
X02168Y02178*
X02166Y02173*
Y02167*
X02168Y02161*
X02173Y02157*
X02178Y02155*
X02184*
X02189Y02157*
X02194Y02161*
X02196Y02167*
Y02173*
X02194Y02178*
X02189Y02182*
X02184Y02184*
G37*
G36*
X02223Y02184D02*
X02217D01*
X02212Y02181*
X02207Y02177*
X02205Y02172*
Y02166*
X02207Y0216*
X02212Y02156*
X02217Y02154*
X02223*
X02228Y02156*
X02232Y0216*
X02235Y02166*
Y02172*
X02232Y02177*
X02228Y02181*
X02223Y02184*
G37*
G36*
X02258Y02183D02*
X02252D01*
X02247Y02181*
X02243Y02177*
X0224Y02171*
Y02166*
X02243Y0216*
X02247Y02156*
X02252Y02154*
X02258*
X02263Y02156*
X02268Y0216*
X0227Y02166*
Y02171*
X02268Y02177*
X02263Y02181*
X02258Y02183*
G37*
G36*
X02294Y02177D02*
X02288D01*
X02283Y02175*
X02279Y02171*
X02277Y02165*
Y02159*
X02279Y02154*
X02283Y0215*
X02288Y02147*
X02294*
X023Y0215*
X02304Y02154*
X02306Y02159*
Y02165*
X02304Y02171*
X023Y02175*
X02294Y02177*
G37*
G36*
X0378Y02198D02*
X03774D01*
X03767Y02197*
X03761Y02193*
X03757Y02188*
X03753Y02183*
X03751Y02176*
Y02169*
X03753Y02163*
X03757Y02157*
X03761Y02152*
X03767Y02149*
X03774Y02147*
X0378*
X03787Y02149*
X03793Y02152*
X03798Y02157*
X03801Y02163*
X03803Y02169*
Y02176*
X03801Y02183*
X03798Y02188*
X03793Y02193*
X03787Y02197*
X0378Y02198*
G37*
G36*
X03402Y02167D02*
X03397D01*
X03391Y02164*
X03387Y0216*
X03385Y02155*
Y02149*
X03387Y02144*
X03391Y02139*
X03397Y02137*
X03402*
X03408Y02139*
X03412Y02144*
X03414Y02149*
Y02155*
X03412Y0216*
X03408Y02164*
X03402Y02167*
G37*
G36*
X03051Y02232D02*
X03046D01*
X03041Y0223*
X03037Y02227*
X03036Y02222*
Y02217*
X03037Y02212*
X03041Y02209*
X03041Y02209*
X0304Y02204*
X03038*
X03034Y02202*
X0303Y02198*
X03028Y02193*
Y02188*
X0303Y02184*
X03034Y0218*
X03037Y02179*
X03037Y02173*
X03035Y02173*
X03031Y02169*
X03029Y02164*
Y02159*
X03031Y02154*
X03035Y02151*
X03039Y02149*
X03039Y02149*
X03039Y02144*
X03039*
X03038*
X03034Y02142*
X0303Y02139*
X03028Y02134*
Y02129*
X0303Y02124*
X03034Y02121*
X03038Y02119*
X03043*
X03048Y02121*
X03052Y02124*
X03054Y02129*
Y02134*
X03052Y02139*
X03048Y02142*
X03044Y02144*
X03043Y02144*
X03044Y02149*
X03044*
X03045*
X03049Y02151*
X03053Y02154*
X03055Y02159*
Y02164*
X03053Y02169*
X03049Y02173*
X03046Y02174*
X03046Y02179*
X03048Y0218*
X03052Y02184*
X03054Y02188*
Y02193*
X03052Y02198*
X03048Y02202*
X03048Y02202*
X03049Y02207*
X03051*
X03056Y02209*
X03059Y02212*
X03061Y02217*
Y02222*
X03059Y02227*
X03056Y0223*
X03051Y02232*
G37*
G36*
X0262Y0211D02*
X02615D01*
X0261Y02108*
X02607Y02105*
X02605Y021*
Y02095*
X02607Y0209*
X0261Y02087*
X02615Y02085*
X0262*
X02625Y02087*
X02628Y0209*
X0263Y02095*
Y021*
X02628Y02105*
X02625Y02108*
X0262Y0211*
G37*
G36*
X02409Y02112D02*
X02404D01*
X02398Y0211*
X02394Y02106*
X02392Y02101*
Y02095*
X02394Y02089*
X02398Y02085*
X02404Y02083*
X02409*
X02415Y02085*
X02419Y02089*
X02421Y02095*
Y02101*
X02419Y02106*
X02415Y0211*
X02409Y02112*
G37*
G36*
X01228Y02106D02*
X01219D01*
X0121Y02104*
X01202Y021*
X01196Y02093*
X01191Y02085*
X01189Y02076*
Y02067*
X01191Y02059*
X01196Y02051*
X01202Y02044*
X0121Y0204*
X01219Y02037*
X01228*
X01237Y0204*
X01245Y02044*
X01251Y02051*
X01256Y02059*
X01258Y02067*
Y02076*
X01256Y02085*
X01251Y02093*
X01245Y021*
X01237Y02104*
X01228Y02106*
G37*
G36*
X01128D02*
X01119D01*
X0111Y02104*
X01102Y021*
X01096Y02093*
X01091Y02085*
X01089Y02076*
Y02067*
X01091Y02059*
X01096Y02051*
X01102Y02044*
X0111Y0204*
X01119Y02037*
X01128*
X01137Y0204*
X01145Y02044*
X01151Y02051*
X01156Y02059*
X01158Y02067*
Y02076*
X01156Y02085*
X01151Y02093*
X01145Y021*
X01137Y02104*
X01128Y02106*
G37*
G36*
X01028D02*
X01019D01*
X0101Y02104*
X01002Y021*
X00996Y02093*
X00991Y02085*
X00989Y02076*
Y02067*
X00991Y02059*
X00996Y02051*
X01002Y02044*
X0101Y0204*
X01019Y02037*
X01028*
X01037Y0204*
X01045Y02044*
X01051Y02051*
X01056Y02059*
X01058Y02067*
Y02076*
X01056Y02085*
X01051Y02093*
X01045Y021*
X01037Y02104*
X01028Y02106*
G37*
G36*
X00928D02*
X00919D01*
X0091Y02104*
X00902Y021*
X00896Y02093*
X00891Y02085*
X00889Y02076*
Y02067*
X00891Y02059*
X00896Y02051*
X00902Y02044*
X0091Y0204*
X00919Y02037*
X00928*
X00937Y0204*
X00945Y02044*
X00951Y02051*
X00956Y02059*
X00958Y02067*
Y02076*
X00956Y02085*
X00951Y02093*
X00945Y021*
X00937Y02104*
X00928Y02106*
G37*
G36*
X01533Y02106D02*
X01524D01*
X01515Y02103*
X01507Y02099*
X01501Y02092*
X01496Y02084*
X01494Y02076*
Y02067*
X01496Y02058*
X01501Y0205*
X01507Y02044*
X01515Y02039*
X01524Y02037*
X01533*
X01542Y02039*
X0155Y02044*
X01556Y0205*
X0156Y02058*
X01563Y02067*
Y02076*
X0156Y02084*
X01556Y02092*
X0155Y02099*
X01542Y02103*
X01533Y02106*
G37*
G36*
X01433D02*
X01424D01*
X01415Y02103*
X01407Y02099*
X01401Y02092*
X01396Y02084*
X01394Y02076*
Y02067*
X01396Y02058*
X01401Y0205*
X01407Y02044*
X01415Y02039*
X01424Y02037*
X01433*
X01442Y02039*
X0145Y02044*
X01456Y0205*
X0146Y02058*
X01463Y02067*
Y02076*
X0146Y02084*
X01456Y02092*
X0145Y02099*
X01442Y02103*
X01433Y02106*
G37*
G36*
X01329D02*
X0132D01*
X01311Y02103*
X01303Y02099*
X01297Y02092*
X01292Y02084*
X0129Y02076*
Y02067*
X01292Y02058*
X01297Y0205*
X01303Y02044*
X01311Y02039*
X0132Y02037*
X01329*
X01338Y02039*
X01346Y02044*
X01352Y0205*
X01356Y02058*
X01359Y02067*
Y02076*
X01356Y02084*
X01352Y02092*
X01346Y02099*
X01338Y02103*
X01329Y02106*
G37*
G36*
X01633Y02105D02*
X01624D01*
X01615Y02102*
X01607Y02098*
X01601Y02091*
X01596Y02083*
X01594Y02075*
Y02066*
X01596Y02057*
X01601Y02049*
X01607Y02043*
X01615Y02038*
X01624Y02036*
X01633*
X01642Y02038*
X0165Y02043*
X01656Y02049*
X0166Y02057*
X01663Y02066*
Y02075*
X0166Y02083*
X01656Y02091*
X0165Y02098*
X01642Y02102*
X01633Y02105*
G37*
G36*
X00386Y02104D02*
X00377D01*
X00368Y02102*
X0036Y02098*
X00354Y02091*
X00349Y02083*
X00347Y02075*
Y02065*
X00349Y02057*
X00354Y02049*
X0036Y02042*
X00368Y02038*
X00377Y02036*
X00386*
X00395Y02038*
X00403Y02042*
X00409Y02049*
X00413Y02057*
X00416Y02065*
Y02075*
X00413Y02083*
X00409Y02091*
X00403Y02098*
X00395Y02102*
X00386Y02104*
G37*
G36*
X00286D02*
X00277D01*
X00268Y02102*
X0026Y02098*
X00254Y02091*
X00249Y02083*
X00247Y02075*
Y02065*
X00249Y02057*
X00254Y02049*
X0026Y02042*
X00268Y02038*
X00277Y02036*
X00286*
X00295Y02038*
X00303Y02042*
X00309Y02049*
X00313Y02057*
X00316Y02065*
Y02075*
X00313Y02083*
X00309Y02091*
X00303Y02098*
X00295Y02102*
X00286Y02104*
G37*
G36*
X00186D02*
X00177D01*
X00168Y02102*
X0016Y02098*
X00154Y02091*
X00149Y02083*
X00147Y02075*
Y02065*
X00149Y02057*
X00154Y02049*
X0016Y02042*
X00168Y02038*
X00177Y02036*
X00186*
X00195Y02038*
X00203Y02042*
X00209Y02049*
X00213Y02057*
X00216Y02065*
Y02075*
X00213Y02083*
X00209Y02091*
X00203Y02098*
X00195Y02102*
X00186Y02104*
G37*
G36*
X00086D02*
X00077D01*
X00068Y02102*
X0006Y02098*
X00054Y02091*
X00049Y02083*
X00047Y02075*
Y02065*
X00049Y02057*
X00054Y02049*
X0006Y02042*
X00068Y02038*
X00077Y02036*
X00086*
X00095Y02038*
X00103Y02042*
X00109Y02049*
X00113Y02057*
X00116Y02065*
Y02075*
X00113Y02083*
X00109Y02091*
X00103Y02098*
X00095Y02102*
X00086Y02104*
G37*
G36*
X00691Y02104D02*
X00682D01*
X00673Y02101*
X00665Y02097*
X00659Y0209*
X00654Y02082*
X00652Y02074*
Y02065*
X00654Y02056*
X00659Y02048*
X00665Y02042*
X00673Y02037*
X00682Y02035*
X00691*
X007Y02037*
X00707Y02042*
X00714Y02048*
X00718Y02056*
X00721Y02065*
Y02074*
X00718Y02082*
X00714Y0209*
X00707Y02097*
X007Y02101*
X00691Y02104*
G37*
G36*
X00591D02*
X00582D01*
X00573Y02101*
X00565Y02097*
X00559Y0209*
X00554Y02082*
X00552Y02074*
Y02065*
X00554Y02056*
X00559Y02048*
X00565Y02042*
X00573Y02037*
X00582Y02035*
X00591*
X006Y02037*
X00607Y02042*
X00614Y02048*
X00618Y02056*
X00621Y02065*
Y02074*
X00618Y02082*
X00614Y0209*
X00607Y02097*
X006Y02101*
X00591Y02104*
G37*
G36*
X00487D02*
X00478D01*
X00469Y02101*
X00461Y02097*
X00455Y0209*
X0045Y02082*
X00448Y02074*
Y02065*
X0045Y02056*
X00455Y02048*
X00461Y02042*
X00469Y02037*
X00478Y02035*
X00487*
X00496Y02037*
X00503Y02042*
X0051Y02048*
X00514Y02056*
X00517Y02065*
Y02074*
X00514Y02082*
X0051Y0209*
X00503Y02097*
X00496Y02101*
X00487Y02104*
G37*
G36*
X00791Y02103D02*
X00782D01*
X00773Y021*
X00765Y02096*
X00759Y02089*
X00754Y02081*
X00752Y02073*
Y02064*
X00754Y02055*
X00759Y02047*
X00765Y02041*
X00773Y02036*
X00782Y02034*
X00791*
X008Y02036*
X00807Y02041*
X00814Y02047*
X00818Y02055*
X00821Y02064*
Y02073*
X00818Y02081*
X00814Y02089*
X00807Y02096*
X008Y021*
X00791Y02103*
G37*
G36*
X02849Y0194D02*
X02842D01*
X02835Y01937*
X0283Y01933*
X02829Y01932*
X02825Y01932*
X02821Y01937*
X02814Y01939*
X02807*
X028Y01937*
X02796Y01932*
X02793Y01925*
Y01918*
X02796Y01912*
X028Y01907*
X02801Y01906*
Y01901*
X02801Y01901*
X02796Y01896*
X02794Y01889*
Y01882*
X02796Y01876*
X02801Y01871*
X02808Y01868*
X02815*
X02821Y01871*
X02826Y01876*
X02829Y01882*
Y01889*
X02826Y01896*
X02821Y01901*
X02821Y01901*
Y01907*
X02821Y01907*
X02825Y01911*
X02827Y01912*
X02831Y01912*
X02835Y01907*
X02842Y01905*
X02849*
X02855Y01907*
X02858Y0191*
X02862Y01911*
X02865Y0191*
X02868Y01907*
X02875Y01904*
X02882*
X02888Y01907*
X02893Y01912*
X02896Y01918*
Y01925*
X02893Y01932*
X02888Y01937*
X02882Y01939*
X02875*
X02868Y01937*
X02865Y01933*
X02861Y01933*
X02859Y01934*
X02855Y01937*
X02849Y0194*
G37*
G36*
X03746Y0194D02*
X0374D01*
X03735Y01938*
X03731Y01933*
X03728Y01928*
Y01922*
X03731Y01917*
X03735Y01913*
X0374Y0191*
X03746*
X03752Y01913*
X03756Y01917*
X03758Y01922*
Y01928*
X03756Y01933*
X03752Y01938*
X03746Y0194*
G37*
G36*
X02503Y01897D02*
X02497D01*
X02492Y01895*
X02488Y01891*
X02486Y01885*
Y01879*
X02488Y01874*
X02492Y0187*
X02497Y01867*
X02503*
X02509Y0187*
X02513Y01874*
X02515Y01879*
Y01885*
X02513Y01891*
X02509Y01895*
X02503Y01897*
G37*
G36*
X02671Y01896D02*
X02665D01*
X0266Y01894*
X02655Y0189*
X02653Y01884*
Y01878*
X02655Y01873*
X0266Y01869*
X02665Y01867*
X02671*
X02676Y01869*
X02681Y01873*
X02683Y01878*
Y01884*
X02681Y0189*
X02676Y01894*
X02671Y01896*
G37*
G36*
X02274Y01883D02*
X02269D01*
X02265Y01881*
X02261Y01877*
X02259Y01873*
Y01868*
X02261Y01863*
X02265Y01859*
X02269Y01857*
X02274*
X02279Y01859*
X02283Y01863*
X02285Y01868*
Y01873*
X02283Y01877*
X02279Y01881*
X02274Y01883*
G37*
G36*
X02768Y01827D02*
X02763D01*
X02758Y01825*
X02754Y01822*
X02752Y01817*
Y01812*
X02754Y01807*
X02758Y01804*
X02763Y01802*
X02768*
X02772Y01804*
X02776Y01807*
X02778Y01812*
Y01817*
X02776Y01822*
X02772Y01825*
X02768Y01827*
G37*
G36*
X02579Y01826D02*
X02574D01*
X02569Y01825*
X02566Y01821*
X02564Y01816*
Y01811*
X02566Y01806*
X02569Y01803*
X02574Y01801*
X02579*
X02584Y01803*
X02588Y01806*
X02589Y01811*
Y01816*
X02588Y01821*
X02584Y01825*
X02579Y01826*
G37*
G36*
X02236Y01865D02*
X0223D01*
X02226Y01863*
X02222Y01859*
X0222Y01854*
Y01849*
X02222Y01845*
X02222Y01843*
X02221Y01839*
X02218Y01836*
X02216Y01831*
Y01826*
X02218Y01821*
X02219Y0182*
X02221Y01816*
X02219Y01813*
X02217Y01811*
X02215Y01807*
Y01802*
X02217Y01797*
X02221Y01793*
X02226Y01791*
X02231*
X02235Y01793*
X02239Y01797*
X02241Y01802*
Y01807*
X02239Y01811*
X02238Y01813*
X02236Y01817*
X02238Y01819*
X02239Y01821*
X02241Y01826*
Y01831*
X0224Y01835*
X02239Y01837*
X0224Y01841*
X02244Y01845*
X02246Y01849*
Y01854*
X02244Y01859*
X0224Y01863*
X02236Y01865*
G37*
G36*
X02256Y01786D02*
X0225D01*
X02246Y01784*
X02242Y0178*
X0224Y01776*
Y01773*
X02235Y01771*
X02234Y01772*
X02229Y01774*
X02224*
X02219Y01772*
X02216Y01769*
X02214Y01764*
Y01759*
X02216Y01754*
X02219Y0175*
X02224Y01749*
X02229*
X02234Y0175*
X02238Y01754*
X02239Y01759*
Y01762*
X02244Y01764*
X02246Y01762*
X0225Y0176*
X02256*
X0226Y01762*
X02264Y01766*
X02266Y01771*
Y01776*
X02264Y0178*
X0226Y01784*
X02256Y01786*
G37*
G36*
X01933Y01793D02*
X01928D01*
X01923Y01791*
X0192Y01788*
X01918Y01783*
Y01778*
X0192Y01773*
X01923Y0177*
X01928Y01768*
X01933*
X01938Y0177*
X01941Y01773*
X01943Y01778*
Y01783*
X01941Y01788*
X01938Y01791*
X01933Y01793*
G37*
G36*
X03747Y01768D02*
X03741D01*
X03736Y01766*
X03731Y01762*
X03729Y01756*
Y01751*
X03731Y01745*
X03736Y01741*
X03741Y01739*
X03747*
X03752Y01741*
X03757Y01745*
X03759Y01751*
Y01756*
X03757Y01762*
X03752Y01766*
X03747Y01768*
G37*
G36*
X03615Y01747D02*
X03609D01*
X03604Y01745*
X036Y01741*
X03597Y01736*
Y0173*
X036Y01724*
X03604Y0172*
X03609Y01718*
X03615*
X0362Y0172*
X03625Y01724*
X03627Y0173*
Y01736*
X03625Y01741*
X0362Y01745*
X03615Y01747*
G37*
G36*
X01922Y01718D02*
X01917D01*
X01912Y01716*
X01908Y01713*
X01906Y01708*
Y01703*
X01908Y01698*
X01912Y01695*
X01917Y01693*
X01922*
X01926Y01695*
X0193Y01698*
X01932Y01703*
Y01708*
X0193Y01713*
X01926Y01716*
X01922Y01718*
G37*
G36*
X03206Y01681D02*
X032D01*
X03194Y01679*
X0319Y01675*
X0319Y01674*
X03184*
X03184Y01675*
X0318Y01679*
X03174Y01681*
X03169*
X03163Y01679*
X03159Y01675*
X03157Y01669*
Y01663*
X03159Y01658*
X03163Y01654*
X03169Y01652*
X03174*
X0318Y01654*
X03184Y01658*
X03184Y01659*
X0319*
X0319Y01658*
X03194Y01654*
X032Y01652*
X03206*
X03211Y01654*
X03215Y01658*
X03221Y01658*
X03221Y01657*
X03225Y01653*
X0323Y01651*
X03236*
X03242Y01653*
X03246Y01657*
X03246Y01658*
X03252*
X03252Y01658*
X03256Y01654*
X03261Y01651*
X03267*
X03272Y01654*
X03277Y01658*
X03277Y01659*
X03283*
X03283Y01658*
X03288Y01654*
X03293Y01651*
X03299*
X03304Y01654*
X03308Y01658*
X03311Y01663*
Y01669*
X03308Y01674*
X03304Y01679*
X03299Y01681*
X03293*
X03288Y01679*
X03283Y01674*
X03283Y01673*
X03277*
X03277Y01674*
X03272Y01679*
X03267Y01681*
X03261*
X03256Y01679*
X03252Y01674*
X03251Y01674*
X03246*
X03246Y01674*
X03242Y01678*
X03236Y0168*
X0323*
X03225Y01678*
X03221Y01674*
X03215Y01674*
X03215Y01675*
X03211Y01679*
X03206Y01681*
G37*
G36*
X03592Y01624D02*
X03586D01*
X03581Y01621*
X03577Y01617*
X03575Y01612*
Y01606*
X03577Y01601*
X03581Y01596*
X03586Y01594*
X03592*
X03598Y01596*
X03602Y01601*
X03604Y01606*
Y01612*
X03602Y01617*
X03598Y01621*
X03592Y01624*
G37*
G36*
X03749Y01618D02*
X03743D01*
X03738Y01616*
X03734Y01612*
X03732Y01606*
Y01601*
X03734Y01595*
X03738Y01591*
X03743Y01589*
X03749*
X03755Y01591*
X03759Y01595*
X03761Y01601*
Y01606*
X03759Y01612*
X03755Y01616*
X03749Y01618*
G37*
G36*
X02671Y01615D02*
X02665D01*
X0266Y01613*
X02655Y01609*
X02653Y01604*
Y01598*
X02655Y01592*
X0266Y01588*
X02665Y01586*
X02671*
X02676Y01588*
X02681Y01592*
X02683Y01598*
Y01604*
X02681Y01609*
X02676Y01613*
X02671Y01615*
G37*
G36*
X02508Y01613D02*
X02502D01*
X02497Y01611*
X02492Y01607*
X0249Y01602*
Y01596*
X02492Y0159*
X02497Y01586*
X02502Y01584*
X02508*
X02513Y01586*
X02518Y0159*
X0252Y01596*
Y01602*
X02518Y01607*
X02513Y01611*
X02508Y01613*
G37*
G36*
X02822Y01517D02*
X02813D01*
X02804Y01515*
X02797Y0151*
X0279Y01504*
X02786Y01496*
X02783Y01487*
Y01478*
X02786Y01469*
X0279Y01461*
X02797Y01455*
X02804Y01451*
X02813Y01448*
X02822*
X02831Y01451*
X02839Y01455*
X02845Y01461*
X0285Y01469*
X02852Y01478*
Y01487*
X0285Y01496*
X02845Y01504*
X02839Y0151*
X02831Y01515*
X02822Y01517*
G37*
G36*
X01228Y01506D02*
X01219D01*
X0121Y01504*
X01202Y015*
X01196Y01493*
X01191Y01485*
X01189Y01476*
Y01467*
X01191Y01459*
X01196Y01451*
X01202Y01444*
X0121Y0144*
X01219Y01437*
X01228*
X01237Y0144*
X01245Y01444*
X01251Y01451*
X01256Y01459*
X01258Y01467*
Y01476*
X01256Y01485*
X01251Y01493*
X01245Y015*
X01237Y01504*
X01228Y01506*
G37*
G36*
X01128D02*
X01119D01*
X0111Y01504*
X01102Y015*
X01096Y01493*
X01091Y01485*
X01089Y01476*
Y01467*
X01091Y01459*
X01096Y01451*
X01102Y01444*
X0111Y0144*
X01119Y01437*
X01128*
X01137Y0144*
X01145Y01444*
X01151Y01451*
X01156Y01459*
X01158Y01467*
Y01476*
X01156Y01485*
X01151Y01493*
X01145Y015*
X01137Y01504*
X01128Y01506*
G37*
G36*
X01028D02*
X01019D01*
X0101Y01504*
X01002Y015*
X00996Y01493*
X00991Y01485*
X00989Y01476*
Y01467*
X00991Y01459*
X00996Y01451*
X01002Y01444*
X0101Y0144*
X01019Y01437*
X01028*
X01037Y0144*
X01045Y01444*
X01051Y01451*
X01056Y01459*
X01058Y01467*
Y01476*
X01056Y01485*
X01051Y01493*
X01045Y015*
X01037Y01504*
X01028Y01506*
G37*
G36*
X01433Y01506D02*
X01424D01*
X01415Y01503*
X01407Y01499*
X01401Y01492*
X01396Y01484*
X01394Y01476*
Y01467*
X01396Y01458*
X01401Y0145*
X01407Y01444*
X01415Y01439*
X01424Y01437*
X01433*
X01442Y01439*
X0145Y01444*
X01456Y0145*
X0146Y01458*
X01463Y01467*
Y01476*
X0146Y01484*
X01456Y01492*
X0145Y01499*
X01442Y01503*
X01433Y01506*
G37*
G36*
X01329D02*
X0132D01*
X01311Y01503*
X01303Y01499*
X01297Y01492*
X01292Y01484*
X0129Y01476*
Y01467*
X01292Y01458*
X01297Y0145*
X01303Y01444*
X01311Y01439*
X0132Y01437*
X01329*
X01338Y01439*
X01346Y01444*
X01352Y0145*
X01356Y01458*
X01359Y01467*
Y01476*
X01356Y01484*
X01352Y01492*
X01346Y01499*
X01338Y01503*
X01329Y01506*
G37*
G36*
X01633Y01505D02*
X01624D01*
X01615Y01502*
X01607Y01498*
X01601Y01491*
X01596Y01483*
X01594Y01475*
Y01466*
X01596Y01457*
X01601Y01449*
X01607Y01443*
X01615Y01438*
X01624Y01436*
X01633*
X01642Y01438*
X0165Y01443*
X01656Y01449*
X0166Y01457*
X01663Y01466*
Y01475*
X0166Y01483*
X01656Y01491*
X0165Y01498*
X01642Y01502*
X01633Y01505*
G37*
G36*
X00386Y01504D02*
X00377D01*
X00368Y01502*
X0036Y01498*
X00354Y01491*
X00349Y01483*
X00347Y01475*
Y01465*
X00349Y01457*
X00354Y01449*
X0036Y01442*
X00368Y01438*
X00377Y01436*
X00386*
X00395Y01438*
X00403Y01442*
X00409Y01449*
X00413Y01457*
X00416Y01465*
Y01475*
X00413Y01483*
X00409Y01491*
X00403Y01498*
X00395Y01502*
X00386Y01504*
G37*
G36*
X00286D02*
X00277D01*
X00268Y01502*
X0026Y01498*
X00254Y01491*
X00249Y01483*
X00247Y01475*
Y01465*
X00249Y01457*
X00254Y01449*
X0026Y01442*
X00268Y01438*
X00277Y01436*
X00286*
X00295Y01438*
X00303Y01442*
X00309Y01449*
X00313Y01457*
X00316Y01465*
Y01475*
X00313Y01483*
X00309Y01491*
X00303Y01498*
X00295Y01502*
X00286Y01504*
G37*
G36*
X00186D02*
X00177D01*
X00168Y01502*
X0016Y01498*
X00154Y01491*
X00149Y01483*
X00147Y01475*
Y01465*
X00149Y01457*
X00154Y01449*
X0016Y01442*
X00168Y01438*
X00177Y01436*
X00186*
X00195Y01438*
X00203Y01442*
X00209Y01449*
X00213Y01457*
X00216Y01465*
Y01475*
X00213Y01483*
X00209Y01491*
X00203Y01498*
X00195Y01502*
X00186Y01504*
G37*
G36*
X00591Y01504D02*
X00582D01*
X00573Y01501*
X00565Y01497*
X00559Y0149*
X00554Y01482*
X00552Y01474*
Y01465*
X00554Y01456*
X00559Y01448*
X00565Y01442*
X00573Y01437*
X00582Y01435*
X00591*
X006Y01437*
X00607Y01442*
X00614Y01448*
X00618Y01456*
X00621Y01465*
Y01474*
X00618Y01482*
X00614Y0149*
X00607Y01497*
X006Y01501*
X00591Y01504*
G37*
G36*
X00487D02*
X00478D01*
X00469Y01501*
X00461Y01497*
X00455Y0149*
X0045Y01482*
X00448Y01474*
Y01465*
X0045Y01456*
X00455Y01448*
X00461Y01442*
X00469Y01437*
X00478Y01435*
X00487*
X00496Y01437*
X00503Y01442*
X0051Y01448*
X00514Y01456*
X00517Y01465*
Y01474*
X00514Y01482*
X0051Y0149*
X00503Y01497*
X00496Y01501*
X00487Y01504*
G37*
G36*
X00791Y01503D02*
X00782D01*
X00773Y015*
X00765Y01496*
X00759Y01489*
X00754Y01481*
X00752Y01473*
Y01464*
X00754Y01455*
X00759Y01447*
X00765Y01441*
X00773Y01436*
X00782Y01434*
X00791*
X008Y01436*
X00807Y01441*
X00814Y01447*
X00818Y01455*
X00821Y01464*
Y01473*
X00818Y01481*
X00814Y01489*
X00807Y01496*
X008Y015*
X00791Y01503*
G37*
G36*
X03526Y01418D02*
X0352D01*
X03515Y01416*
X03511Y01411*
X03508Y01406*
Y014*
X03511Y01395*
X03515Y01391*
X0352Y01388*
X03526*
X03531Y01391*
X03536Y01395*
X03538Y014*
Y01406*
X03536Y01411*
X03531Y01416*
X03526Y01418*
G37*
G36*
X03749Y01413D02*
X03743D01*
X03737Y01411*
X03733Y01407*
X03731Y01402*
Y01396*
X03733Y0139*
X03737Y01386*
X03743Y01384*
X03749*
X03754Y01386*
X03758Y0139*
X0376Y01396*
Y01402*
X03758Y01407*
X03754Y01411*
X03749Y01413*
G37*
G36*
X02822Y01417D02*
X02813D01*
X02804Y01415*
X02797Y0141*
X0279Y01404*
X02786Y01396*
X02783Y01387*
Y01378*
X02786Y01369*
X0279Y01361*
X02797Y01355*
X02804Y01351*
X02813Y01348*
X02822*
X02831Y01351*
X02839Y01355*
X02845Y01361*
X0285Y01369*
X02852Y01378*
Y01387*
X0285Y01396*
X02845Y01404*
X02839Y0141*
X02831Y01415*
X02822Y01417*
G37*
G36*
X02222D02*
X02213D01*
X02204Y01415*
X02197Y0141*
X0219Y01404*
X02186Y01396*
X02183Y01387*
Y01378*
X02186Y01369*
X0219Y01361*
X02197Y01355*
X02204Y01351*
X02213Y01348*
X02222*
X02231Y01351*
X02239Y01355*
X02245Y01361*
X0225Y01369*
X02252Y01378*
Y01387*
X0225Y01396*
X02245Y01404*
X02239Y0141*
X02231Y01415*
X02222Y01417*
G37*
G36*
X02822Y01317D02*
X02813D01*
X02804Y01315*
X02797Y0131*
X0279Y01304*
X02786Y01296*
X02783Y01287*
Y01278*
X02786Y01269*
X0279Y01261*
X02797Y01255*
X02804Y01251*
X02813Y01248*
X02822*
X02831Y01251*
X02839Y01255*
X02845Y01261*
X0285Y01269*
X02852Y01278*
Y01287*
X0285Y01296*
X02845Y01304*
X02839Y0131*
X02831Y01315*
X02822Y01317*
G37*
G36*
X02222D02*
X02213D01*
X02204Y01315*
X02197Y0131*
X0219Y01304*
X02186Y01296*
X02183Y01287*
Y01278*
X02186Y01269*
X0219Y01261*
X02197Y01255*
X02204Y01251*
X02213Y01248*
X02222*
X02231Y01251*
X02239Y01255*
X02245Y01261*
X0225Y01269*
X02252Y01278*
Y01287*
X0225Y01296*
X02245Y01304*
X02239Y0131*
X02231Y01315*
X02222Y01317*
G37*
G36*
X01951Y01306D02*
X01885D01*
Y01239*
X01951*
Y01306*
G37*
G36*
X02984Y01243D02*
X02974D01*
X02965Y01241*
X02957Y01236*
X0295Y0123*
X02946Y01222*
X02943Y01213*
Y01203*
X02946Y01194*
X0295Y01186*
X02957Y01179*
X02965Y01175*
X02974Y01172*
X02984*
X02993Y01175*
X03001Y01179*
X03007Y01186*
X03012Y01194*
X03014Y01203*
Y01213*
X03012Y01222*
X03007Y0123*
X03001Y01236*
X02993Y01241*
X02984Y01243*
G37*
G36*
X0162Y01224D02*
X01553D01*
Y01157*
X0162*
Y01224*
G37*
G36*
X01097D02*
X0103D01*
Y01157*
X01097*
Y01224*
G37*
G36*
X02822Y01217D02*
X02813D01*
X02804Y01215*
X02797Y0121*
X0279Y01204*
X02786Y01196*
X02783Y01187*
Y01178*
X02786Y01169*
X0279Y01161*
X02797Y01155*
X02804Y01151*
X02813Y01148*
X02822*
X02831Y01151*
X02839Y01155*
X02845Y01161*
X0285Y01169*
X02852Y01178*
Y01187*
X0285Y01196*
X02845Y01204*
X02839Y0121*
X02831Y01215*
X02822Y01217*
G37*
G36*
X02222D02*
X02213D01*
X02204Y01215*
X02197Y0121*
X0219Y01204*
X02186Y01196*
X02183Y01187*
Y01178*
X02186Y01169*
X0219Y01161*
X02197Y01155*
X02204Y01151*
X02213Y01148*
X02222*
X02231Y01151*
X02239Y01155*
X02245Y01161*
X0225Y01169*
X02252Y01178*
Y01187*
X0225Y01196*
X02245Y01204*
X02239Y0121*
X02231Y01215*
X02222Y01217*
G37*
G36*
X00622Y01198D02*
X00613D01*
X00604Y01195*
X00596Y01191*
X00589Y01184*
X00584Y01176*
X00582Y01167*
Y01157*
X00584Y01148*
X00589Y0114*
X00596Y01134*
X00604Y01129*
X00613Y01127*
X00622*
X00631Y01129*
X00639Y01134*
X00646Y0114*
X00651Y01148*
X00653Y01157*
Y01167*
X00651Y01176*
X00646Y01184*
X00639Y01191*
X00631Y01195*
X00622Y01198*
G37*
G36*
X00425D02*
X00416D01*
X00407Y01195*
X00399Y01191*
X00392Y01184*
X00388Y01176*
X00385Y01167*
Y01157*
X00388Y01148*
X00392Y0114*
X00399Y01134*
X00407Y01129*
X00416Y01127*
X00425*
X00434Y01129*
X00443Y01134*
X00449Y0114*
X00454Y01148*
X00456Y01157*
Y01167*
X00454Y01176*
X00449Y01184*
X00443Y01191*
X00434Y01195*
X00425Y01198*
G37*
G36*
X00327D02*
X00318D01*
X00309Y01195*
X003Y01191*
X00294Y01184*
X00289Y01176*
X00287Y01167*
Y01157*
X00289Y01148*
X00294Y0114*
X003Y01134*
X00309Y01129*
X00318Y01127*
X00327*
X00336Y01129*
X00344Y01134*
X00351Y0114*
X00356Y01148*
X00358Y01157*
Y01167*
X00356Y01176*
X00351Y01184*
X00344Y01191*
X00336Y01195*
X00327Y01198*
G37*
G36*
X00229D02*
X00219D01*
X0021Y01195*
X00202Y01191*
X00195Y01184*
X00191Y01176*
X00188Y01167*
Y01157*
X00191Y01148*
X00195Y0114*
X00202Y01134*
X0021Y01129*
X00219Y01127*
X00229*
X00238Y01129*
X00246Y01134*
X00252Y0114*
X00257Y01148*
X0026Y01157*
Y01167*
X00257Y01176*
X00252Y01184*
X00246Y01191*
X00238Y01195*
X00229Y01198*
G37*
G36*
X03735Y0115D02*
X03725D01*
X03716Y01147*
X03708Y01143*
X03701Y01136*
X03697Y01128*
X03694Y01119*
Y01109*
X03697Y011*
X03701Y01092*
X03708Y01086*
X03716Y01081*
X03725Y01078*
X03735*
X03744Y01081*
X03752Y01086*
X03758Y01092*
X03763Y011*
X03765Y01109*
Y01119*
X03763Y01128*
X03758Y01136*
X03752Y01143*
X03744Y01147*
X03735Y0115*
G37*
G36*
X03636D02*
X03627D01*
X03618Y01147*
X0361Y01143*
X03603Y01136*
X03598Y01128*
X03596Y01119*
Y01109*
X03598Y011*
X03603Y01092*
X0361Y01086*
X03618Y01081*
X03627Y01078*
X03636*
X03645Y01081*
X03653Y01086*
X0366Y01092*
X03665Y011*
X03667Y01109*
Y01119*
X03665Y01128*
X0366Y01136*
X03653Y01143*
X03645Y01147*
X03636Y0115*
G37*
G36*
X02984Y01145D02*
X02974D01*
X02965Y01143*
X02957Y01138*
X0295Y01131*
X02946Y01123*
X02943Y01114*
Y01105*
X02946Y01096*
X0295Y01088*
X02957Y01081*
X02965Y01076*
X02974Y01074*
X02984*
X02993Y01076*
X03001Y01081*
X03007Y01088*
X03012Y01096*
X03014Y01105*
Y01114*
X03012Y01123*
X03007Y01131*
X03001Y01138*
X02993Y01143*
X02984Y01145*
G37*
G36*
X02821Y01116D02*
X02812D01*
X02804Y01114*
X02796Y01109*
X02789Y01103*
X02785Y01095*
X02782Y01086*
Y01077*
X02785Y01068*
X02789Y01061*
X02796Y01054*
X02804Y0105*
X02812Y01047*
X02821*
X0283Y0105*
X02838Y01054*
X02844Y01061*
X02849Y01068*
X02851Y01077*
Y01086*
X02849Y01095*
X02844Y01103*
X02838Y01109*
X0283Y01114*
X02821Y01116*
G37*
G36*
X02221D02*
X02212D01*
X02204Y01114*
X02196Y01109*
X02189Y01103*
X02185Y01095*
X02182Y01086*
Y01077*
X02185Y01068*
X02189Y01061*
X02196Y01054*
X02204Y0105*
X02212Y01047*
X02221*
X0223Y0105*
X02238Y01054*
X02244Y01061*
X02249Y01068*
X02251Y01077*
Y01086*
X02249Y01095*
X02244Y01103*
X02238Y01109*
X0223Y01114*
X02221Y01116*
G37*
G36*
X03143Y0106D02*
X03137D01*
X03132Y01058*
X03128Y01054*
X03125Y01048*
Y01042*
X03128Y01037*
X03132Y01033*
X03137Y0103*
X03143*
X03148Y01033*
X03153Y01037*
X03155Y01042*
Y01048*
X03153Y01054*
X03148Y01058*
X03143Y0106*
G37*
G36*
X03141Y01022D02*
X03135D01*
X0313Y0102*
X03126Y01016*
X03123Y0101*
Y01004*
X03126Y00999*
X0313Y00995*
X03135Y00993*
X03141*
X03146Y00995*
X03151Y00999*
X03153Y01004*
Y0101*
X03151Y01016*
X03146Y0102*
X03141Y01022*
G37*
G36*
X03507Y01006D02*
X03501D01*
X03495Y01004*
X03491Y01*
X03489Y00995*
Y00989*
X03491Y00983*
X03495Y00979*
X03501Y00977*
X03507*
X03512Y00979*
X03516Y00983*
X03519Y00989*
Y00995*
X03516Y01*
X03512Y01004*
X03507Y01006*
G37*
G36*
X02984Y01047D02*
X02974D01*
X02965Y01044*
X02957Y01039*
X0295Y01033*
X02946Y01025*
X02943Y01016*
Y01006*
X02946Y00997*
X0295Y00989*
X02957Y00982*
X02965Y00978*
X02974Y00975*
X02984*
X02993Y00978*
X03001Y00982*
X03007Y00989*
X03012Y00997*
X03014Y01006*
Y01016*
X03012Y01025*
X03007Y01033*
X03001Y01039*
X02993Y01044*
X02984Y01047*
G37*
G36*
X02821Y01012D02*
X02812D01*
X02804Y0101*
X02796Y01005*
X02789Y00999*
X02785Y00991*
X02782Y00982*
Y00973*
X02785Y00964*
X02789Y00957*
X02796Y0095*
X02804Y00946*
X02812Y00943*
X02821*
X0283Y00946*
X02838Y0095*
X02844Y00957*
X02849Y00964*
X02851Y00973*
Y00982*
X02849Y00991*
X02844Y00999*
X02838Y01005*
X0283Y0101*
X02821Y01012*
G37*
G36*
X02221D02*
X02212D01*
X02204Y0101*
X02196Y01005*
X02189Y00999*
X02185Y00991*
X02182Y00982*
Y00973*
X02185Y00964*
X02189Y00957*
X02196Y0095*
X02204Y00946*
X02212Y00943*
X02221*
X0223Y00946*
X02238Y0095*
X02244Y00957*
X02249Y00964*
X02251Y00973*
Y00982*
X02249Y00991*
X02244Y00999*
X02238Y01005*
X0223Y0101*
X02221Y01012*
G37*
G36*
X01894Y01049D02*
X01883D01*
X01871Y01047*
X0186Y01043*
X0185Y01036*
X01841Y01027*
X01835Y01018*
X0183Y01007*
X01828Y00995*
Y00983*
X0183Y00971*
X01835Y0096*
X01841Y0095*
X0185Y00942*
X0186Y00935*
X01871Y00931*
X01883Y00928*
X01894*
X01906Y00931*
X01917Y00935*
X01927Y00942*
X01935Y0095*
X01942Y0096*
X01947Y00971*
X01949Y00983*
Y00995*
X01947Y01007*
X01942Y01018*
X01935Y01027*
X01927Y01036*
X01917Y01043*
X01906Y01047*
X01894Y01049*
G37*
G36*
X03276Y00918D02*
X0327D01*
X03264Y00916*
X03263Y00914*
X03259Y00912*
X03256Y00914*
X03254Y00916*
X03249Y00918*
X03243*
X03238Y00916*
X03233Y00912*
X03231Y00906*
Y00901*
X03233Y00895*
X03238Y00891*
X03243Y00889*
X03249*
X03254Y00891*
X03256Y00893*
X03259Y00895*
X03263Y00893*
X03264Y00891*
X0327Y00889*
X03276*
X03281Y00891*
X03285Y00895*
X03287Y00901*
Y00906*
X03285Y00912*
X03281Y00916*
X03276Y00918*
G37*
G36*
X03354Y00954D02*
X03349D01*
X03344Y00952*
X03341Y00948*
X03339Y00943*
Y00938*
X03339Y00937*
X03336Y00933*
X03331*
X03326Y00931*
X03323Y00927*
X03321Y00923*
Y00917*
X03323Y00913*
X03326Y00909*
X03331Y00907*
X03336*
X03341Y00909*
X03344Y00913*
X03346Y00917*
Y00923*
X03346Y00924*
X03349Y00928*
X03354*
X03359Y0093*
X03362Y00934*
X03364Y00938*
Y00943*
X03362Y00948*
X03359Y00952*
X03354Y00954*
G37*
G36*
X02984Y00948D02*
X02974D01*
X02965Y00946*
X02957Y00941*
X0295Y00934*
X02946Y00926*
X02943Y00917*
Y00908*
X02946Y00899*
X0295Y00891*
X02957Y00884*
X02965Y00879*
X02974Y00877*
X02984*
X02993Y00879*
X03001Y00884*
X03007Y00891*
X03012Y00899*
X03014Y00908*
Y00917*
X03012Y00926*
X03007Y00934*
X03001Y00941*
X02993Y00946*
X02984Y00948*
G37*
G36*
X03315Y00881D02*
X0331D01*
X03306Y00879*
X03302Y00875*
X033Y00871*
Y00865*
X03302Y00861*
X03306Y00857*
X0331Y00855*
X03315*
X0332Y00857*
X03324Y00861*
X03326Y00865*
Y00871*
X03324Y00875*
X0332Y00879*
X03315Y00881*
G37*
G36*
X02821Y00912D02*
X02812D01*
X02804Y0091*
X02796Y00905*
X02789Y00899*
X02785Y00891*
X02782Y00882*
Y00873*
X02785Y00864*
X02789Y00857*
X02796Y0085*
X02804Y00846*
X02812Y00843*
X02821*
X0283Y00846*
X02838Y0085*
X02844Y00857*
X02849Y00864*
X02851Y00873*
Y00882*
X02849Y00891*
X02844Y00899*
X02838Y00905*
X0283Y0091*
X02821Y00912*
G37*
G36*
X03827Y00899D02*
X03818D01*
X03809Y00896*
X038Y00892*
X03794Y00885*
X03789Y00877*
X03787Y00868*
Y00859*
X03789Y0085*
X03794Y00841*
X038Y00835*
X03809Y0083*
X03818Y00828*
X03827*
X03836Y0083*
X03844Y00835*
X03851Y00841*
X03856Y0085*
X03858Y00859*
Y00868*
X03856Y00877*
X03851Y00885*
X03844Y00892*
X03836Y00896*
X03827Y00899*
G37*
G36*
X01454Y00897D02*
X0144D01*
X01426Y00894*
X01414Y00887*
X01404Y00877*
X01397Y00865*
X01394Y00851*
Y00837*
X01397Y00823*
X01404Y00811*
X01414Y00801*
X01426Y00794*
X0144Y00791*
X01454*
X01467Y00794*
X01479Y00801*
X01489Y00811*
X01496Y00823*
X015Y00837*
Y00851*
X01496Y00865*
X01489Y00877*
X01479Y00887*
X01467Y00894*
X01454Y00897*
G37*
G36*
X01063D02*
X01049D01*
X01036Y00894*
X01024Y00887*
X01014Y00877*
X01007Y00865*
X01003Y00851*
Y00837*
X01007Y00823*
X01014Y00811*
X01024Y00801*
X01036Y00794*
X01049Y00791*
X01063*
X01077Y00794*
X01089Y00801*
X01099Y00811*
X01106Y00823*
X01109Y00837*
Y00851*
X01106Y00865*
X01099Y00877*
X01089Y00887*
X01077Y00894*
X01063Y00897*
G37*
G36*
X03344Y00809D02*
X03339D01*
X03334Y00807*
X0333Y00803*
X03328Y00799*
Y00793*
X0333Y00789*
X03334Y00785*
X03339Y00783*
X03344*
X03348Y00785*
X03352Y00789*
X03354Y00793*
Y00799*
X03352Y00803*
X03348Y00807*
X03344Y00809*
G37*
G36*
X02984Y0085D02*
X02974D01*
X02965Y00847*
X02957Y00843*
X0295Y00836*
X02946Y00828*
X02943Y00819*
Y00809*
X02946Y008*
X0295Y00792*
X02957Y00786*
X02965Y00781*
X02974Y00779*
X02984*
X02993Y00781*
X03001Y00786*
X03007Y00792*
X03012Y008*
X03014Y00809*
Y00819*
X03012Y00828*
X03007Y00836*
X03001Y00843*
X02993Y00847*
X02984Y0085*
G37*
G36*
X0282Y00812D02*
X02811D01*
X02803Y0081*
X02795Y00805*
X02788Y00799*
X02784Y00791*
X02781Y00782*
Y00773*
X02784Y00764*
X02788Y00757*
X02795Y0075*
X02803Y00746*
X02811Y00743*
X0282*
X02829Y00746*
X02837Y0075*
X02843Y00757*
X02848Y00764*
X0285Y00773*
Y00782*
X02848Y00791*
X02843Y00799*
X02837Y00805*
X02829Y0081*
X0282Y00812*
G37*
G36*
X0222D02*
X02211D01*
X02203Y0081*
X02195Y00805*
X02188Y00799*
X02184Y00791*
X02181Y00782*
Y00773*
X02184Y00764*
X02188Y00757*
X02195Y0075*
X02203Y00746*
X02211Y00743*
X0222*
X02229Y00746*
X02237Y0075*
X02243Y00757*
X02248Y00764*
X0225Y00773*
Y00782*
X02248Y00791*
X02243Y00799*
X02237Y00805*
X02229Y0081*
X0222Y00812*
G37*
G36*
X01894Y00864D02*
X01883D01*
X01871Y00862*
X0186Y00857*
X0185Y00851*
X01841Y00842*
X01835Y00833*
X0183Y00821*
X01828Y0081*
Y00798*
X0183Y00786*
X01835Y00775*
X01841Y00765*
X0185Y00757*
X0186Y0075*
X01871Y00746*
X01883Y00743*
X01894*
X01906Y00746*
X01917Y0075*
X01927Y00757*
X01935Y00765*
X01942Y00775*
X01947Y00786*
X01949Y00798*
Y0081*
X01947Y00821*
X01942Y00833*
X01935Y00842*
X01927Y00851*
X01917Y00857*
X01906Y00862*
X01894Y00864*
G37*
G36*
X00662Y00891D02*
X00646D01*
X00631Y00888*
X00617Y00882*
X00604Y00873*
X00593Y00862*
X00584Y00849*
X00578Y00835*
X00575Y00819*
Y00804*
X00578Y00789*
X00584Y00774*
X00593Y00761*
X00604Y0075*
X00617Y00742*
X00631Y00736*
X00646Y00733*
X00662*
X00677Y00736*
X00691Y00742*
X00704Y0075*
X00715Y00761*
X00724Y00774*
X0073Y00789*
X00733Y00804*
Y00819*
X0073Y00835*
X00724Y00849*
X00715Y00862*
X00704Y00873*
X00691Y00882*
X00677Y00888*
X00662Y00891*
G37*
G36*
X03827Y008D02*
X03818D01*
X03809Y00798*
X038Y00793*
X03794Y00787*
X03789Y00779*
X03787Y0077*
Y0076*
X03789Y00751*
X03794Y00743*
X038Y00736*
X03809Y00732*
X03818Y00729*
X03827*
X03836Y00732*
X03844Y00736*
X03851Y00743*
X03856Y00751*
X03858Y0076*
Y0077*
X03856Y00779*
X03851Y00787*
X03844Y00793*
X03836Y00798*
X03827Y008*
G37*
G36*
X01454Y00763D02*
X0144D01*
X01426Y0076*
X01414Y00753*
X01404Y00743*
X01397Y00731*
X01394Y00717*
Y00703*
X01397Y0069*
X01404Y00677*
X01414Y00668*
X01426Y00661*
X0144Y00657*
X01454*
X01467Y00661*
X01479Y00668*
X01489Y00677*
X01496Y0069*
X015Y00703*
Y00717*
X01496Y00731*
X01489Y00743*
X01479Y00753*
X01467Y0076*
X01454Y00763*
G37*
G36*
X01063D02*
X01049D01*
X01036Y0076*
X01024Y00753*
X01014Y00743*
X01007Y00731*
X01003Y00717*
Y00703*
X01007Y0069*
X01014Y00677*
X01024Y00668*
X01036Y00661*
X01049Y00657*
X01063*
X01077Y00661*
X01089Y00668*
X01099Y00677*
X01106Y0069*
X01109Y00703*
Y00717*
X01106Y00731*
X01099Y00743*
X01089Y00753*
X01077Y0076*
X01063Y00763*
G37*
G36*
X03062Y00588D02*
X03055D01*
X03049Y00586*
X03045Y00583*
X03043Y00581*
X03039Y00583*
X03037Y00585*
X03031Y00587*
X03024*
X03017Y00585*
X03012Y0058*
X03009Y00573*
Y00566*
X03012Y0056*
X03017Y00555*
X03024Y00552*
X03031*
X03037Y00555*
X0304Y00558*
X03042Y00559*
X03047Y00558*
X03049Y00556*
X03055Y00553*
X03062*
X03069Y00556*
X03072Y00559*
X03076Y0056*
X03078Y00559*
X03082Y00555*
X03088Y00553*
X03096*
X03102Y00555*
X03106Y0056*
X0311Y0056*
X03112Y00559*
X03117Y00555*
X03123Y00552*
X0313*
X03137Y00555*
X03142Y0056*
X03142Y0056*
X03147*
X03147Y0056*
X03151Y00556*
X03152Y00554*
X03152Y0055*
X03148Y00546*
X03146Y0054*
Y00533*
X03148Y00526*
X03153Y00521*
X03154Y00521*
Y00515*
X03153Y00515*
X03148Y0051*
X03146Y00504*
Y00497*
X03148Y0049*
X03153Y00486*
X03153Y0048*
X03152Y0048*
X03147Y00475*
X03145Y00469*
Y00462*
X03147Y00455*
X03152Y0045*
X03159Y00448*
X03166*
X03173Y0045*
X03178Y00455*
X0318Y00462*
Y00469*
X03178Y00475*
X03173Y0048*
X03173Y00485*
X03173Y00485*
X03178Y0049*
X03181Y00497*
Y00504*
X03178Y0051*
X03173Y00515*
X03173Y00515*
Y00521*
X03173Y00521*
X03178Y00526*
X03181Y00533*
Y0054*
X03178Y00546*
X03174Y0055*
X03173Y00552*
X03174Y00556*
X03177Y0056*
X0318Y00566*
Y00573*
X03177Y0058*
X03172Y00585*
X03166Y00588*
X03159*
X03152Y00585*
X03147Y0058*
X03147Y0058*
X03142*
X03142Y0058*
X03137Y00585*
X0313Y00588*
X03123*
X03117Y00585*
X03112Y00581*
X03109Y0058*
X03107Y00581*
X03102Y00585*
X03096Y00588*
X03088*
X03082Y00585*
X03079Y00582*
X03075Y00581*
X03072Y00582*
X03069Y00586*
X03062Y00588*
G37*
G36*
X03826Y00483D02*
X03817D01*
X03808Y00481*
X038Y00476*
X03793Y00469*
X03788Y00461*
X03786Y00452*
Y00443*
X03788Y00434*
X03793Y00426*
X038Y00419*
X03808Y00414*
X03817Y00412*
X03826*
X03835Y00414*
X03843Y00419*
X0385Y00426*
X03855Y00434*
X03857Y00443*
Y00452*
X03855Y00461*
X0385Y00469*
X03843Y00476*
X03835Y00481*
X03826Y00483*
G37*
G36*
X03388Y00436D02*
X03382D01*
X03377Y00434*
X03372Y0043*
X0337Y00424*
Y00418*
X03372Y00413*
X03377Y00409*
X03382Y00406*
X03388*
X03393Y00409*
X03397Y00413*
X034Y00418*
Y00424*
X03397Y0043*
X03393Y00434*
X03388Y00436*
G37*
G36*
X03433Y00436D02*
X03427D01*
X03422Y00433*
X03418Y00429*
X03415Y00424*
Y00418*
X03418Y00412*
X03422Y00408*
X03427Y00406*
X03433*
X03439Y00408*
X03443Y00412*
X03445Y00418*
Y00424*
X03443Y00429*
X03439Y00433*
X03433Y00436*
G37*
G36*
X01894Y00523D02*
X01883D01*
X01871Y00521*
X0186Y00516*
X0185Y0051*
X01841Y00501*
X01835Y00491*
X0183Y0048*
X01828Y00468*
Y00457*
X0183Y00445*
X01835Y00434*
X01841Y00424*
X0185Y00415*
X0186Y00409*
X01871Y00404*
X01883Y00402*
X01894*
X01906Y00404*
X01917Y00409*
X01927Y00415*
X01935Y00424*
X01942Y00434*
X01947Y00445*
X01949Y00457*
Y00468*
X01947Y0048*
X01942Y00491*
X01935Y00501*
X01927Y0051*
X01917Y00516*
X01906Y00521*
X01894Y00523*
G37*
G36*
X03423Y00361D02*
X03417D01*
X03411Y00359*
X03407Y00355*
X03403Y00359*
X03398Y00361*
X03392*
X03386Y00359*
X03382Y00355*
X0338Y00349*
Y00343*
X03382Y00338*
X03386Y00334*
X03392Y00332*
X03398*
X03403Y00334*
X03407Y00338*
X03411Y00334*
X03417Y00332*
X03423*
X03428Y00334*
X03432Y00338*
X03434Y00343*
Y00349*
X03432Y00355*
X03428Y00359*
X03423Y00361*
G37*
G36*
X01456Y00459D02*
X01442D01*
X01429Y00455*
X01416Y00448*
X01407Y00438*
X014Y00426*
X01396Y00413*
Y00399*
X014Y00385*
X01407Y00373*
X01416Y00363*
X01429Y00356*
X01442Y00353*
X01456*
X0147Y00356*
X01482Y00363*
X01492Y00373*
X01499Y00385*
X01502Y00399*
Y00413*
X01499Y00426*
X01492Y00438*
X01482Y00448*
X0147Y00455*
X01456Y00459*
G37*
G36*
X01066D02*
X01052D01*
X01038Y00455*
X01026Y00448*
X01016Y00438*
X01009Y00426*
X01005Y00413*
Y00399*
X01009Y00385*
X01016Y00373*
X01026Y00363*
X01038Y00356*
X01052Y00353*
X01066*
X01079Y00356*
X01091Y00363*
X01101Y00373*
X01108Y00385*
X01112Y00399*
Y00413*
X01108Y00426*
X01101Y00438*
X01091Y00448*
X01079Y00455*
X01066Y00459*
G37*
G36*
X03826Y00385D02*
X03817D01*
X03808Y00382*
X038Y00378*
X03793Y00371*
X03788Y00363*
X03786Y00354*
Y00344*
X03788Y00335*
X03793Y00327*
X038Y00321*
X03808Y00316*
X03817Y00314*
X03826*
X03835Y00316*
X03843Y00321*
X0385Y00327*
X03855Y00335*
X03857Y00344*
Y00354*
X03855Y00363*
X0385Y00371*
X03843Y00378*
X03835Y00382*
X03826Y00385*
G37*
G36*
X03449Y00259D02*
X03443D01*
X03438Y00256*
X03436Y00255*
X03433Y00252*
X0343Y00255*
X03429Y00256*
X03423Y00258*
X03417*
X03412Y00256*
X0341Y00254*
X03404Y00254*
X03403Y00255*
X03398Y00257*
X03392*
X03386Y00255*
X03385Y00254*
X03382Y00251*
X03379Y00254*
X03378Y00255*
X03372Y00257*
X03366*
X03361Y00255*
X03357Y00251*
X03354Y00245*
Y0024*
X03357Y00234*
X03361Y0023*
X03366Y00228*
X03372*
X03378Y0023*
X03378Y00231*
X03382Y00234*
X03385Y00231*
X03386Y0023*
X03392Y00227*
X03398*
X03403Y0023*
X03405Y00231*
X03411Y00231*
X03412Y00231*
X03417Y00229*
X03423*
X03429Y00231*
X0343Y00232*
X03433Y00235*
X03437Y00232*
X03438Y00231*
X03443Y00229*
X03449*
X03454Y00231*
X03458Y00235*
X03461Y00241*
Y00247*
X03458Y00252*
X03454Y00256*
X03449Y00259*
G37*
G36*
X03525Y00276D02*
X03518D01*
X03511Y00273*
X03506Y00268*
X03503Y00261*
Y00254*
X03506Y00247*
X03511Y00242*
X03518Y00239*
X03525*
X03532Y00242*
X03537Y00247*
X0354Y00254*
Y00261*
X03537Y00268*
X03532Y00273*
X03525Y00276*
G37*
G36*
X03298D02*
X0329D01*
X03283Y00273*
X03278Y00268*
X03275Y00261*
Y00254*
X03278Y00247*
X03283Y00242*
X0329Y00239*
X03298*
X03305Y00242*
X0331Y00247*
X03313Y00254*
Y00261*
X0331Y00268*
X03305Y00273*
X03298Y00276*
G37*
G36*
X01456Y00325D02*
X01442D01*
X01429Y00321*
X01416Y00314*
X01407Y00305*
X014Y00292*
X01396Y00279*
Y00265*
X014Y00251*
X01407Y00239*
X01416Y00229*
X01429Y00222*
X01442Y00219*
X01456*
X0147Y00222*
X01482Y00229*
X01492Y00239*
X01499Y00251*
X01502Y00265*
Y00279*
X01499Y00292*
X01492Y00305*
X01482Y00314*
X0147Y00321*
X01456Y00325*
G37*
G36*
X01066D02*
X01052D01*
X01038Y00321*
X01026Y00314*
X01016Y00305*
X01009Y00292*
X01005Y00279*
Y00265*
X01009Y00251*
X01016Y00239*
X01026Y00229*
X01038Y00222*
X01052Y00219*
X01066*
X01079Y00222*
X01091Y00229*
X01101Y00239*
X01108Y00251*
X01112Y00265*
Y00279*
X01108Y00292*
X01101Y00305*
X01091Y00314*
X01079Y00321*
X01066Y00325*
G37*
G36*
X01894Y00338D02*
X01883D01*
X01871Y00336*
X0186Y00331*
X0185Y00324*
X01841Y00316*
X01835Y00306*
X0183Y00295*
X01828Y00283*
Y00271*
X0183Y0026*
X01835Y00249*
X01841Y00239*
X0185Y0023*
X0186Y00224*
X01871Y00219*
X01883Y00217*
X01894*
X01906Y00219*
X01917Y00224*
X01927Y0023*
X01935Y00239*
X01942Y00249*
X01947Y0026*
X01949Y00271*
Y00283*
X01947Y00295*
X01942Y00306*
X01935Y00316*
X01927Y00324*
X01917Y00331*
X01906Y00336*
X01894Y00338*
G37*
G36*
X0236Y00079D02*
X02353D01*
X02347Y00076*
X02342Y00071*
X02338Y00075*
X02331Y00078*
X02324*
X02318Y00075*
X02313Y0007*
X0231Y00064*
Y00057*
X02313Y0005*
X02318Y00045*
X02324Y00042*
X02331*
X02338Y00045*
X02343Y0005*
X02347Y00046*
X02353Y00043*
X0236*
X02367Y00046*
X02372Y00051*
X02374Y00057*
Y00064*
X02372Y00071*
X02367Y00076*
X0236Y00079*
G37*
G36*
X0384Y00147D02*
X03828D01*
X03817Y00144*
X03806Y00138*
X03798Y0013*
X03792Y00119*
X03789Y00108*
Y00096*
X03792Y00084*
X03798Y00074*
X03806Y00066*
X03817Y0006*
X03828Y00057*
X0384*
X03852Y0006*
X03862Y00066*
X0387Y00074*
X03876Y00084*
X03879Y00096*
Y00108*
X03876Y00119*
X0387Y0013*
X03862Y00138*
X03852Y00144*
X0384Y00147*
G37*
G36*
X00108D02*
X00096D01*
X00084Y00144*
X00074Y00138*
X00066Y0013*
X0006Y00119*
X00057Y00108*
Y00096*
X0006Y00084*
X00066Y00074*
X00074Y00066*
X00084Y0006*
X00096Y00057*
X00108*
X00119Y0006*
X0013Y00066*
X00138Y00074*
X00144Y00084*
X00147Y00096*
Y00108*
X00144Y00119*
X00138Y0013*
X0013Y00138*
X00119Y00144*
X00108Y00147*
G37*
G36*
X01894Y00153D02*
X01883D01*
X01871Y00151*
X0186Y00146*
X0185Y00139*
X01841Y00131*
X01835Y00121*
X0183Y0011*
X01828Y00098*
Y00086*
X0183Y00075*
X01835Y00064*
X01841Y00054*
X0185Y00045*
X0186Y00039*
X01871Y00034*
X01883Y00032*
X01894*
X01906Y00034*
X01917Y00039*
X01927Y00045*
X01935Y00054*
X01942Y00064*
X01947Y00075*
X01949Y00086*
Y00098*
X01947Y0011*
X01942Y00121*
X01935Y00131*
X01927Y00139*
X01917Y00146*
X01906Y00151*
X01894Y00153*
G37*
%LNmcu-3*%
%LPD*%
G54D144*
X01629Y02825D03*
G54D145*
X01629Y02923D03*
G54D169*
X03094Y0187D03*
X03589Y01609D03*
X02573Y02865D03*
X02658Y02491D03*
X02546Y02858D03*
X02518Y02869D03*
X02659Y02432D03*
X02658Y0246D03*
X03246Y00903D03*
X03273D03*
X03182Y00892D03*
X01971Y02516D03*
X02291Y02162D03*
X0197Y02572D03*
X02003Y02467D03*
X02422Y02364D03*
X02483Y02857D03*
X02435Y02821D03*
X02559Y02736D03*
X01983Y02614D03*
X03138Y01007D03*
X02319Y02347D03*
X02106Y02222D03*
X03291Y0241D03*
X02658Y02707D03*
X03401Y02455D03*
X02662Y02405D03*
X03824Y01275D03*
X03504Y00992D03*
X03503Y00905D03*
X01954Y02598D03*
X01949Y0376D03*
X01981Y03764D03*
X01924Y03779D03*
X0195Y03689D03*
X01919Y0369D03*
X0206Y03527D03*
X02036Y03548D03*
X02009Y03527D03*
X03248Y02357D03*
X0329Y02294D03*
X02082Y02339D03*
X02003Y02331D03*
X02255Y02168D03*
X03281Y02256D03*
X02632Y03191D03*
X02099Y0288D03*
X02458Y02541D03*
X02548Y02504D03*
X03424Y0306D03*
X03408Y03044D03*
X03391Y03026D03*
X02067Y03121D03*
X02066Y03097D03*
X01806Y02059D03*
X01781Y02035D03*
X03289Y0237D03*
X02206Y03044D03*
X034Y02195D03*
Y02152D03*
X025Y01882D03*
X02668Y01881D03*
X03541Y01311D03*
X03744Y01753D03*
X03743Y01925D03*
X03746Y01399D03*
X03746Y01603D03*
X03523Y01403D03*
X02505Y01599D03*
X02415Y01787D03*
X02668Y01601D03*
X02032Y02933D03*
X03146Y00797D03*
X0339Y00888D03*
X02503Y02693D03*
X036Y02818D03*
X03601Y03105D03*
X0254Y0311D03*
X02407Y03164D03*
X02607Y03176D03*
X02797Y03138D03*
X01653Y0224D03*
X01654Y0236D03*
X0158Y02238D03*
X01581Y02358D03*
X02407Y02098D03*
X02553Y02553D03*
X02659Y02921D03*
X0207Y02978D03*
X02104Y03037D03*
X01788Y02346D03*
X02244Y03036D03*
X03205Y02652D03*
X03612Y01733D03*
X02656Y02251D03*
X01981Y03682D03*
X0214Y0257D03*
X02303Y02433D03*
X03527Y01746D03*
X03525Y01931D03*
X0239Y01509D03*
X02361D03*
X02138Y02472D03*
X02138Y02448D03*
X02142Y02391D03*
X02137Y02414D03*
X0253Y03033D03*
X01512Y02984D03*
X02486Y03033D03*
X02336Y0217D03*
X01429Y02194D03*
X01432Y02316D03*
X01654Y02336D03*
X01653Y02214D03*
X03172Y01666D03*
X03203D03*
X03296Y01666D03*
X03264D03*
X03233Y01666D03*
X0314Y01045D03*
X03238Y01865D03*
X03097Y01709D03*
X0266Y02566D03*
X0222Y02169D03*
X02181Y0217D03*
X03601Y02953D03*
Y02977D03*
X03532Y02941D03*
X03532Y02983D03*
X03704Y02977D03*
Y0293D03*
Y02953D03*
X03705Y03002D03*
X03385Y00421D03*
X0342Y00346D03*
X03395D03*
X0343Y00421D03*
X0342Y00243D03*
X03395Y00242D03*
X03446Y00244D03*
X03369Y00242D03*
G54D183*
X01888Y00619D03*
Y00804D03*
Y00989D03*
Y00462D03*
Y00277D03*
Y00092D03*
G54D185*
X01447Y0071D03*
Y00844D03*
X01056Y0071D03*
Y00844D03*
X01059Y00406D03*
Y00272D03*
X01449Y00406D03*
Y00272D03*
G54D186*
X03691Y02851D03*
Y03079D03*
X03522Y00258D03*
X03294D03*
G54D187*
X03671Y03135D03*
Y02795D03*
G54D188*
X03836Y03135D03*
Y02795D03*
G54D189*
X03238Y00113D03*
X03578D03*
G54D190*
X03238Y00277D03*
X03578D03*
G54D191*
X03777Y02173D03*
Y02488D03*
G54D192*
X03639Y03718D03*
X03139D03*
X02868Y03725D03*
X02368D03*
X02074Y0372D03*
X01574D03*
X00225Y02812D03*
Y02312D03*
Y03585D03*
Y03085D03*
X0131Y03721D03*
X0081D03*
G54D193*
X03529Y03548D03*
X03489Y03618D03*
X03449Y03548D03*
X03409Y03618D03*
X03369Y03548D03*
X03329Y03618D03*
X03289Y03548D03*
X03249Y03618D03*
X02758Y03555D03*
X02718Y03625D03*
X02678Y03555D03*
X02638Y03625D03*
X02598Y03555D03*
X02558Y03625D03*
X02518Y03555D03*
X02478Y03625D03*
X01964Y0355D03*
X01924Y0362D03*
X01884Y0355D03*
X01844Y0362D03*
X01804Y0355D03*
X01764Y0362D03*
X01724Y0355D03*
X01684Y0362D03*
X00395Y02702D03*
X00325Y02662D03*
X00395Y02622D03*
X00325Y02582D03*
X00395Y02542D03*
X00325Y02502D03*
X00395Y02462D03*
X00325Y02422D03*
X00395Y03475D03*
X00325Y03435D03*
X00395Y03395D03*
X00325Y03355D03*
X00395Y03315D03*
X00325Y03275D03*
X00395Y03235D03*
X00325Y03195D03*
X012Y03551D03*
X0116Y03621D03*
X0112Y03551D03*
X0108Y03621D03*
X0104Y03551D03*
X01Y03621D03*
X0096Y03551D03*
X0092Y03621D03*
G54D195*
X03709Y03583D03*
X03069D03*
X02938Y0359D03*
X02298D03*
X02144Y03585D03*
X01503D03*
X0036Y02882D03*
Y02242D03*
Y03656D03*
Y03015D03*
X0138Y03586D03*
X0074D03*
G54D197*
X01011Y02556D03*
Y02855D03*
X01071Y02267D03*
X00972D03*
X01169D03*
X01268D03*
X00874D03*
X00775D03*
X00421Y01162D03*
X00322D03*
X00519D03*
X00618D03*
X00224D03*
X00125D03*
X02979Y01011D03*
Y01109D03*
Y00913D03*
Y00814D03*
Y01208D03*
Y01306D03*
X01029Y03186D03*
X01127D03*
X0093D03*
X00832D03*
X01225D03*
X0165Y03187D03*
X01749D03*
X01552D03*
X01453D03*
X01847D03*
X01633Y02579D03*
X01731D03*
X01534D03*
X01436D03*
X01829D03*
X03822Y00251D03*
Y00349D03*
Y00448D03*
X03828Y01114D03*
X0373D03*
X03631D03*
X03822Y00666D03*
Y00765D03*
Y00863D03*
G54D198*
X00418Y00936D03*
Y00404D03*
G54D200*
X00654Y00812D03*
Y00528D03*
G54D203*
X03282Y03233D03*
X03482D03*
X03382D03*
X03182D03*
X03082D03*
G54D204*
X00102Y00102D03*
Y03834D03*
X03834D03*
Y00102D03*
G54D205*
X01224Y01472D03*
X01124D03*
X01024D03*
X01428Y01471D03*
X01528D03*
X01324D03*
X01628Y0147D03*
Y0207D03*
X01324Y02071D03*
X01528D03*
X01428D03*
X00924Y02072D03*
X01024D03*
X01124D03*
X01224D03*
X00924Y01472D03*
X00381Y0147D03*
X00281D03*
X00181D03*
X00586Y01469D03*
X00686D03*
X00482D03*
X00786Y01468D03*
Y02068D03*
X00482Y02069D03*
X00686D03*
X00586D03*
X00081Y0207D03*
X00181D03*
X00281D03*
X00381D03*
X00081Y0147D03*
X02218Y01183D03*
Y01283D03*
Y01383D03*
X02217Y00978D03*
Y00878D03*
Y01082D03*
X02216Y00778D03*
X02816D03*
X02817Y01082D03*
Y00878D03*
Y00978D03*
X02818Y01483D03*
Y01383D03*
Y01283D03*
Y01183D03*
X02218Y01483D03*
G54D208*
X01389Y0119D03*
X01918Y0147D03*
X00866Y0119D03*
G54D209*
X01586Y0119D03*
X01063D03*
G54D210*
X01918Y01273D03*
G54D211*
X03543Y01181D03*
X02755Y00393D03*
X02559Y00787D03*
X00984Y02362D03*
X0059D03*
X00393Y01968D03*
G54D212*
X02476Y02339D03*
X02508Y02341D03*
X02035Y02748D03*
X02605Y02342D03*
X03041Y02131D03*
X03042Y02162D03*
X03041Y02191D03*
X03048Y0222D03*
X03122Y02367D03*
X03073Y02368D03*
X03116Y02512D03*
X03079Y02511D03*
X02283Y02257D03*
X02485Y02263D03*
X02514Y0218D03*
X02445Y02847D03*
X02433Y0287D03*
X02277Y02786D03*
X02046Y02772D03*
X03333Y0092D03*
X03351Y00941D03*
X02668Y03002D03*
X02951Y02318D03*
X02765Y01814D03*
X02633Y02177D03*
X03256Y0035D03*
X03551Y00346D03*
X03243Y02257D03*
X028Y02941D03*
X02719Y02944D03*
X02754Y02884D03*
X02259Y02263D03*
X02288Y02871D03*
X0244Y02628D03*
X02491Y02616D03*
X02416Y02626D03*
X02328Y02593D03*
X02518Y0256D03*
X02797Y03112D03*
X03754Y01663D03*
X03555Y01662D03*
X02614Y02874D03*
X02546Y03198D03*
X03106Y0031D03*
X02564Y02967D03*
X03209Y02372D03*
X03203Y02233D03*
X03218Y02505D03*
X02329Y02619D03*
X02498Y02553D03*
X02468Y02622D03*
X02047Y02722D03*
X02592Y03245D03*
X03055Y02267D03*
X0302Y02268D03*
X01931Y01781D03*
X01919Y01705D03*
X03313Y00868D03*
X03226Y00743D03*
X03341Y00796D03*
X02618Y02098D03*
X02668Y02124D03*
X02272Y0187D03*
X02233Y01852D03*
X02229Y01829D03*
X02189Y01803D03*
X02253Y01773D03*
X02228Y01804D03*
X02483Y0217D03*
X02844Y03171D03*
X02662Y02803D03*
X02577Y01814D03*
X02737Y02867D03*
X02948Y02879D03*
X03003Y0288D03*
X02903Y02877D03*
X0205Y0316D03*
X0218Y02872D03*
X01484Y02874D03*
X01825Y02818D03*
X02837Y03095D03*
X02659Y02543D03*
X02547Y02597D03*
X02504Y02635D03*
X02894Y03037D03*
X02278Y03283D03*
X02452Y03287D03*
X02373Y03286D03*
X02312Y03284D03*
X02131Y02754D03*
X02293Y02761D03*
X03746Y032D03*
X03387Y01689D03*
X02227Y01761D03*
X03762Y02018D03*
X02958Y02411D03*
X02992Y02476D03*
X02991Y02557D03*
X02912Y02411D03*
X02328Y02555D03*
X02362Y01578D03*
X02389Y01579D03*
X02875Y02854D03*
X02814Y02794D03*
X02846Y02825D03*
X02783Y02763D03*
X02328Y02529D03*
X02657Y02626D03*
X03164Y02247D03*
X03221Y02108D03*
X02868Y02411D03*
X02823Y02411D03*
X02778Y02412D03*
X03468Y0047D03*
X0317Y0265D03*
X03482Y02907D03*
X0324Y02645D03*
X03526Y02903D03*
X03163Y02368D03*
X03348Y00432D03*
X03348Y0047D03*
X02804Y02613D03*
X03093Y02753D03*
X02473Y0026D03*
X02778Y00348D03*
X02725Y00348D03*
X02671Y00348D03*
X03061Y00302D03*
X03007Y00301D03*
X02952Y00301D03*
X02898Y00302D03*
X02843Y00301D03*
X02783Y00057D03*
X02728Y00058D03*
X02674D03*
X02781Y00114D03*
X02728Y00113D03*
X02674Y00113D03*
X02671Y00292D03*
X02724D03*
X02779Y00292D03*
X0267Y00238D03*
X02725Y00238D03*
X02781D03*
X02674Y00164D03*
X02728Y00164D03*
X0278Y00165D03*
X02194Y00126D03*
X02142Y00125D03*
X02087Y00126D03*
X02194Y00181D03*
X02142D03*
X02087Y00183D03*
X02194Y00235D03*
X02141D03*
X02087Y00236D03*
X0309Y0006D03*
X02988Y00101D03*
X02187Y00312D03*
X02105D03*
X02325Y00217D03*
X02998Y01781D03*
X03482Y03019D03*
X03524Y03034D03*
X03468Y00433D03*
X03385Y02017D03*
X03762Y02718D03*
X03387Y02695D03*
X03065Y02691D03*
X02793Y02697D03*
X03034Y02661D03*
X03048Y02751D03*
X02768Y02727D03*
X02895Y02493D03*
Y02537D03*
X02992Y02437D03*
X0276Y02477D03*
X02991Y02514D03*
X03066Y02816D03*
X03034Y02848D03*
X03006Y02631D03*
X02888Y02612D03*
X02847Y02613D03*
X0293Y02613D03*
X02973Y02599D03*
X03093Y0272D03*
X03094Y02786D03*
G54D213*
X02357Y00061D03*
X02328Y0006D03*
X03166Y02912D03*
X02878Y01922D03*
X02845Y01922D03*
X032Y029D03*
X03238Y02901D03*
X03162Y00465D03*
X03163Y005D03*
Y00536D03*
X03162Y0057D03*
X03127D03*
X03092Y0057D03*
X03027Y0057D03*
X03059Y00571D03*
X02811Y01886D03*
X02811Y01922D03*
M02*