%FSTAX23Y23*%
%MOIN*%
%SFA1B1*%

%IPPOS*%
%AMD17*
4,1,8,-0.004900,0.009400,-0.004900,-0.009400,-0.002500,-0.011800,0.002500,-0.011800,0.004900,-0.009400,0.004900,0.009400,0.002500,0.011800,-0.002500,0.011800,-0.004900,0.009400,0.0*
1,1,0.004921,-0.002500,0.009400*
1,1,0.004921,-0.002500,-0.009400*
1,1,0.004921,0.002500,-0.009400*
1,1,0.004921,0.002500,0.009400*
%
%AMD18*
4,1,8,-0.011800,0.002500,-0.011800,-0.002500,-0.009400,-0.004900,0.009400,-0.004900,0.011800,-0.002500,0.011800,0.002500,0.009400,0.004900,-0.009400,0.004900,-0.011800,0.002500,0.0*
1,1,0.004921,-0.009400,0.002500*
1,1,0.004921,-0.009400,-0.002500*
1,1,0.004921,0.009400,-0.002500*
1,1,0.004921,0.009400,0.002500*
%
%AMD20*
4,1,8,-0.005100,0.015300,-0.005100,-0.015300,-0.003800,-0.016500,0.003800,-0.016500,0.005100,-0.015300,0.005100,0.015300,0.003800,0.016500,-0.003800,0.016500,-0.005100,0.015300,0.0*
1,1,0.002559,-0.003800,0.015300*
1,1,0.002559,-0.003800,-0.015300*
1,1,0.002559,0.003800,-0.015300*
1,1,0.002559,0.003800,0.015300*
%
%AMD21*
4,1,8,-0.015300,-0.005100,0.015300,-0.005100,0.016500,-0.003800,0.016500,0.003800,0.015300,0.005100,-0.015300,0.005100,-0.016500,0.003800,-0.016500,-0.003800,-0.015300,-0.005100,0.0*
1,1,0.002559,-0.015300,-0.003800*
1,1,0.002559,0.015300,-0.003800*
1,1,0.002559,0.015300,0.003800*
1,1,0.002559,-0.015300,0.003800*
%
%AMD28*
4,1,8,0.012500,-0.006200,0.012500,0.006200,0.006200,0.012500,-0.006200,0.012500,-0.012500,0.006200,-0.012500,-0.006200,-0.006200,-0.012500,0.006200,-0.012500,0.012500,-0.006200,0.0*
1,1,0.012504,0.006200,-0.006200*
1,1,0.012504,0.006200,0.006200*
1,1,0.012504,-0.006200,0.006200*
1,1,0.012504,-0.006200,-0.006200*
%
%AMD29*
4,1,8,-0.006200,-0.012500,0.006200,-0.012500,0.012500,-0.006200,0.012500,0.006200,0.006200,0.012500,-0.006200,0.012500,-0.012500,0.006200,-0.012500,-0.006200,-0.006200,-0.012500,0.0*
1,1,0.012504,-0.006200,-0.006200*
1,1,0.012504,0.006200,-0.006200*
1,1,0.012504,0.006200,0.006200*
1,1,0.012504,-0.006200,0.006200*
%
%AMD30*
4,1,8,0.013200,0.004500,0.004500,0.013200,-0.004500,0.013200,-0.013200,0.004500,-0.013200,-0.004500,-0.004500,-0.013200,0.004500,-0.013200,0.013200,-0.004500,0.013200,0.004500,0.0*
1,1,0.012504,0.008800,0.000000*
1,1,0.012504,0.000000,0.008800*
1,1,0.012504,-0.008800,0.000000*
1,1,0.012504,0.000000,-0.008800*
%
%AMD35*
4,1,4,-0.028600,0.013800,0.013800,-0.028600,0.028600,-0.013800,-0.013800,0.028600,-0.028600,0.013800,0.0*
%
%AMD40*
4,1,4,0.036100,0.002800,0.002800,0.036100,-0.036100,-0.002800,-0.002800,-0.036100,0.036100,0.002800,0.0*
%
%AMD57*
4,1,4,-0.028600,0.000300,0.000300,-0.028600,0.028600,-0.000300,-0.000300,0.028600,-0.028600,0.000300,0.0*
%
%AMD63*
4,1,8,0.027200,-0.015500,0.027200,0.015500,0.022000,0.020700,-0.022000,0.020700,-0.027200,0.015500,-0.027200,-0.015500,-0.022000,-0.020700,0.022000,-0.020700,0.027200,-0.015500,0.0*
1,1,0.010339,0.022000,-0.015500*
1,1,0.010339,0.022000,0.015500*
1,1,0.010339,-0.022000,0.015500*
1,1,0.010339,-0.022000,-0.015500*
%
%AMD64*
4,1,8,0.008000,0.011800,-0.008000,0.011800,-0.010600,0.009200,-0.010600,-0.009200,-0.008000,-0.011800,0.008000,-0.011800,0.010600,-0.009200,0.010600,0.009200,0.008000,0.011800,0.0*
1,1,0.005315,0.008000,0.009200*
1,1,0.005315,-0.008000,0.009200*
1,1,0.005315,-0.008000,-0.009200*
1,1,0.005315,0.008000,-0.009200*
%
%AMD65*
4,1,8,0.011800,-0.008000,0.011800,0.008000,0.009200,0.010600,-0.009200,0.010600,-0.011800,0.008000,-0.011800,-0.008000,-0.009200,-0.010600,0.009200,-0.010600,0.011800,-0.008000,0.0*
1,1,0.005315,0.009200,-0.008000*
1,1,0.005315,0.009200,0.008000*
1,1,0.005315,-0.009200,0.008000*
1,1,0.005315,-0.009200,-0.008000*
%
%AMD66*
4,1,8,0.014000,0.002700,0.002700,0.014000,-0.001000,0.014000,-0.014000,0.001000,-0.014000,-0.002700,-0.002700,-0.014000,0.001000,-0.014000,0.014000,-0.001000,0.014000,0.002700,0.0*
1,1,0.005315,0.012200,0.000800*
1,1,0.005315,0.000800,0.012200*
1,1,0.005315,-0.012200,-0.000800*
1,1,0.005315,-0.000800,-0.012200*
%
%AMD67*
4,1,8,-0.002700,0.014000,-0.014000,0.002700,-0.014000,-0.001000,-0.001000,-0.014000,0.002700,-0.014000,0.014000,-0.002700,0.014000,0.001000,0.001000,0.014000,-0.002700,0.014000,0.0*
1,1,0.005315,-0.000800,0.012200*
1,1,0.005315,-0.012200,0.000800*
1,1,0.005315,0.000800,-0.012200*
1,1,0.005315,0.012200,-0.000800*
%
%AMD176*
4,1,8,-0.033500,0.002500,-0.033500,-0.002500,-0.031000,-0.004900,0.031000,-0.004900,0.033500,-0.002500,0.033500,0.002500,0.031000,0.004900,-0.031000,0.004900,-0.033500,0.002500,0.0*
1,1,0.004921,-0.031000,0.002500*
1,1,0.004921,-0.031000,-0.002500*
1,1,0.004921,0.031000,-0.002500*
1,1,0.004921,0.031000,0.002500*
%
%AMD177*
4,1,8,-0.041300,0.003900,-0.041300,-0.003900,-0.037400,-0.007900,0.037400,-0.007900,0.041300,-0.003900,0.041300,0.003900,0.037400,0.007900,-0.037400,0.007900,-0.041300,0.003900,0.0*
1,1,0.007874,-0.037400,0.003900*
1,1,0.007874,-0.037400,-0.003900*
1,1,0.007874,0.037400,-0.003900*
1,1,0.007874,0.037400,0.003900*
%
G04‾CAMADD=17‾8‾0.0‾0.0‾236.2‾98.4‾24.6‾0.0‾15‾0.0‾0.0‾0.0‾0.0‾0‾0.0‾0.0‾0.0‾0.0‾0‾0.0‾0.0‾0.0‾90.0‾98.0‾236.0*
%ADD17D17*%
G04‾CAMADD=18‾8‾0.0‾0.0‾98.4‾236.2‾24.6‾0.0‾15‾0.0‾0.0‾0.0‾0.0‾0‾0.0‾0.0‾0.0‾0.0‾0‾0.0‾0.0‾0.0‾90.0‾236.0‾98.0*
%ADD18D18*%
G04‾CAMADD=20‾8‾0.0‾0.0‾330.7‾102.4‾12.8‾0.0‾15‾0.0‾0.0‾0.0‾0.0‾0‾0.0‾0.0‾0.0‾0.0‾0‾0.0‾0.0‾0.0‾90.0‾102.0‾330.0*
%ADD20D20*%
G04‾CAMADD=21‾8‾0.0‾0.0‾330.7‾102.4‾12.8‾0.0‾15‾0.0‾0.0‾0.0‾0.0‾0‾0.0‾0.0‾0.0‾0.0‾0‾0.0‾0.0‾0.0‾180.0‾330.0‾102.0*
%ADD21D21*%
%ADD22R,0.023228X0.023622*%
%ADD23R,0.023622X0.023228*%
%ADD24R,0.045275X0.023622*%
%ADD25R,0.045275X0.011811*%
%ADD26R,0.023622X0.045275*%
%ADD27R,0.011811X0.045275*%
G04‾CAMADD=28‾8‾0.0‾0.0‾250.0‾250.0‾62.5‾0.0‾15‾0.0‾0.0‾0.0‾0.0‾0‾0.0‾0.0‾0.0‾0.0‾0‾0.0‾0.0‾0.0‾270.0‾250.0‾250.0*
%ADD28D28*%
G04‾CAMADD=29‾8‾0.0‾0.0‾250.0‾250.0‾62.5‾0.0‾15‾0.0‾0.0‾0.0‾0.0‾0‾0.0‾0.0‾0.0‾0.0‾0‾0.0‾0.0‾0.0‾180.0‾250.0‾250.0*
%ADD29D29*%
G04‾CAMADD=30‾8‾0.0‾0.0‾250.0‾250.0‾62.5‾0.0‾15‾0.0‾0.0‾0.0‾0.0‾0‾0.0‾0.0‾0.0‾0.0‾0‾0.0‾0.0‾0.0‾315.0‾302.0‾301.0*
%ADD30D30*%
%ADD31R,0.062992X0.027559*%
%ADD32R,0.059055X0.062992*%
%ADD33R,0.086614X0.047244*%
%ADD34R,0.059055X0.047244*%
G04‾CAMADD=35‾9‾0.0‾0.0‾600.0‾210.0‾0.0‾0.0‾0‾0.0‾0.0‾0.0‾0.0‾0‾0.0‾0.0‾0.0‾0.0‾0‾0.0‾0.0‾0.0‾135.0‾572.0‾571.0*
%ADD35D35*%
%ADD36R,0.062992X0.137795*%
%ADD37R,0.062992X0.137795*%
%ADD38R,0.057874X0.050590*%
%ADD39R,0.055000X0.024000*%
G04‾CAMADD=40‾9‾0.0‾0.0‾472.4‾551.2‾0.0‾0.0‾0‾0.0‾0.0‾0.0‾0.0‾0‾0.0‾0.0‾0.0‾0.0‾0‾0.0‾0.0‾0.0‾315.0‾722.0‾721.0*
%ADD40D40*%
%ADD41R,0.023622X0.049212*%
%ADD42R,0.049212X0.023622*%
%ADD43R,0.052000X0.022000*%
%ADD44R,0.011811X0.047244*%
%ADD45R,0.047244X0.011811*%
%ADD46R,0.039370X0.023622*%
%ADD47R,0.028740X0.038189*%
%ADD48R,0.038189X0.028740*%
%ADD49R,0.035000X0.032000*%
%ADD50R,0.107086X0.060236*%
%ADD51R,0.057874X0.045275*%
%ADD52R,0.045275X0.057874*%
%ADD53R,0.047638X0.028740*%
%ADD54R,0.028740X0.047638*%
%ADD55R,0.036614X0.034252*%
%ADD56R,0.034252X0.036614*%
G04‾CAMADD=57‾9‾0.0‾0.0‾409.4‾401.6‾0.0‾0.0‾0‾0.0‾0.0‾0.0‾0.0‾0‾0.0‾0.0‾0.0‾0.0‾0‾0.0‾0.0‾0.0‾135.0‾572.0‾571.0*
%ADD57D57*%
%ADD58R,0.038189X0.035433*%
%ADD59R,0.023622X0.021260*%
%ADD60R,0.021260X0.023622*%
%ADD61R,0.031496X0.015748*%
%ADD62R,0.068898X0.098425*%
G04‾CAMADD=63‾8‾0.0‾0.0‾413.4‾543.3‾51.7‾0.0‾15‾0.0‾0.0‾0.0‾0.0‾0‾0.0‾0.0‾0.0‾0.0‾0‾0.0‾0.0‾0.0‾270.0‾544.0‾414.0*
%ADD63D63*%
G04‾CAMADD=64‾8‾0.0‾0.0‾212.6‾236.2‾26.6‾0.0‾15‾0.0‾0.0‾0.0‾0.0‾0‾0.0‾0.0‾0.0‾0.0‾0‾0.0‾0.0‾0.0‾0.0‾212.6‾236.2*
%ADD64D64*%
G04‾CAMADD=65‾8‾0.0‾0.0‾212.6‾236.2‾26.6‾0.0‾15‾0.0‾0.0‾0.0‾0.0‾0‾0.0‾0.0‾0.0‾0.0‾0‾0.0‾0.0‾0.0‾270.0‾236.0‾212.0*
%ADD65D65*%
G04‾CAMADD=66‾8‾0.0‾0.0‾212.6‾236.2‾26.6‾0.0‾15‾0.0‾0.0‾0.0‾0.0‾0‾0.0‾0.0‾0.0‾0.0‾0‾0.0‾0.0‾0.0‾315.0‾296.0‾295.0*
%ADD66D66*%
G04‾CAMADD=67‾8‾0.0‾0.0‾212.6‾236.2‾26.6‾0.0‾15‾0.0‾0.0‾0.0‾0.0‾0‾0.0‾0.0‾0.0‾0.0‾0‾0.0‾0.0‾0.0‾45.0‾296.0‾295.0*
%ADD67D67*%
%ADD68R,0.022362X0.050559*%
%ADD69R,0.027559X0.027559*%
%ADD70R,0.043307X0.039370*%
%ADD71R,0.027559X0.035433*%
%ADD72R,0.035433X0.027559*%
%ADD73R,0.039370X0.043307*%
%ADD74R,0.012000X0.022000*%
%ADD75R,0.022000X0.012000*%
%ADD76R,0.041339X0.025591*%
%ADD77R,0.025591X0.041339*%
%ADD78R,0.031752X0.034016*%
%ADD144R,0.061024X0.061024*%
%ADD145C,0.061024*%
G04‾CAMADD=176‾8‾0.0‾0.0‾98.4‾669.3‾24.6‾0.0‾15‾0.0‾0.0‾0.0‾0.0‾0‾0.0‾0.0‾0.0‾0.0‾0‾0.0‾0.0‾0.0‾90.0‾670.0‾99.0*
%ADD176D176*%
G04‾CAMADD=177‾8‾0.0‾0.0‾157.5‾826.8‾39.4‾0.0‾15‾0.0‾0.0‾0.0‾0.0‾0‾0.0‾0.0‾0.0‾0.0‾0‾0.0‾0.0‾0.0‾90.0‾827.0‾157.0*
%ADD177D177*%
%ADD178R,0.096457X0.096457*%
%ADD183C,0.109252*%
%ADD184R,0.109252X0.109252*%
%ADD185C,0.094488*%
%ADD186C,0.025591*%
%ADD187O,0.082677X0.039370*%
%ADD188O,0.070866X0.039370*%
%ADD189O,0.039370X0.070866*%
%ADD190O,0.039370X0.082677*%
%ADD191C,0.019685*%
%ADD192C,0.129921*%
%ADD193C,0.057008*%
%ADD194R,0.057008X0.057008*%
%ADD195C,0.095669*%
%ADD196R,0.057008X0.057008*%
%ADD197C,0.059370*%
%ADD198O,0.094488X0.047244*%
%ADD199R,0.146299X0.146299*%
%ADD200C,0.146299*%
%ADD201R,0.059370X0.059370*%
%ADD202R,0.059370X0.059370*%
%ADD203C,0.064960*%
%ADD204C,0.039370*%
%ADD205C,0.057087*%
%ADD206R,0.057087X0.057087*%
%ADD207R,0.057087X0.057087*%
%ADD208C,0.055118*%
%ADD209R,0.055118X0.055118*%
%ADD210R,0.055118X0.055118*%
%LNmcu-1*%
%LPD*%
G54D17*
X02358Y0033D03*
X02377D03*
X02397D03*
X02417D03*
G54D18*
X02442Y00348D03*
Y00419D03*
X02332Y00348D03*
G54D20*
X0321Y0109D03*
X03229D03*
X03249D03*
X03269D03*
X03288D03*
X03308D03*
Y00938D03*
X03288D03*
X03269D03*
X03249D03*
X03229D03*
X0321D03*
G54D21*
X03183Y00965D03*
Y00984D03*
Y01004D03*
Y01024D03*
Y01043D03*
Y01063D03*
X03335D03*
Y01043D03*
Y01024D03*
Y01004D03*
Y00984D03*
Y00965D03*
G54D22*
X02453Y00109D03*
X0242D03*
X03592Y02903D03*
X03559D03*
X03557Y03034D03*
X0359D03*
G54D23*
X03348Y00364D03*
Y00398D03*
X03466Y00396D03*
Y00363D03*
G54D24*
X03649Y02839D03*
Y0287D03*
Y03059D03*
Y03091D03*
G54D25*
X03649Y02896D03*
Y02916D03*
Y02935D03*
Y02955D03*
Y02975D03*
Y02994D03*
Y03014D03*
Y03034D03*
G54D26*
X03534Y003D03*
X03502D03*
X03313D03*
X03282D03*
G54D27*
X03477Y003D03*
X03457D03*
X03437D03*
X03418D03*
X03398D03*
X03378D03*
X03359D03*
X03339D03*
G54D28*
X0204Y02429D03*
X02005D03*
X02003Y02536D03*
X02038D03*
X02003Y02573D03*
X02038D03*
G54D29*
X02531Y02966D03*
Y03001D03*
X02487Y03D03*
Y02965D03*
X02142Y02238D03*
Y02203D03*
X02336Y02238D03*
Y02203D03*
X02374Y02204D03*
Y02239D03*
X02181Y02203D03*
Y02238D03*
X0222Y02237D03*
Y02202D03*
X02299Y02195D03*
Y0223D03*
X02258Y02232D03*
Y02197D03*
X02449Y0224D03*
Y02205D03*
X02412Y02204D03*
Y02239D03*
X02249Y03D03*
Y02965D03*
X0221Y02965D03*
Y03D03*
G54D30*
X02144Y01743D03*
X02169Y01767D03*
G54D31*
X03344Y0211D03*
Y02153D03*
Y02196D03*
Y0224D03*
Y02283D03*
Y02326D03*
Y0237D03*
Y02413D03*
Y02456D03*
G54D32*
X03383Y02637D03*
G54D33*
X03761Y02673D03*
Y02062D03*
G54D34*
X03383Y02062D03*
G54D35*
X01856Y01953D03*
X01891Y01989D03*
X01927Y02024D03*
X01962Y0206D03*
X02165Y01857D03*
X0213Y01821D03*
X02094Y01786D03*
X02059Y01751D03*
G54D36*
X02733Y00558D03*
G54D37*
X02607Y00558D03*
G54D38*
X02633Y03126D03*
Y0305D03*
G54D39*
X0283Y02558D03*
Y02464D03*
G54D40*
X02921Y02793D03*
X02859Y02732D03*
X02907Y02684D03*
X02968Y02746D03*
G54D41*
X02842Y03234D03*
X02913D03*
G54D42*
X03351Y01775D03*
Y01846D03*
X03041Y00146D03*
Y00217D03*
X02933Y00129D03*
Y002D03*
G54D43*
X02778Y03224D03*
X02698Y03186D03*
Y03261D03*
G54D44*
X02634Y02301D03*
X02614D03*
X02595D03*
X02575D03*
X02555D03*
X02536D03*
X02516D03*
X02496D03*
X02477D03*
X02457D03*
X02437D03*
X02418D03*
X02398D03*
X02378D03*
X02359D03*
X02339D03*
X02319D03*
X023D03*
X0228D03*
X0226D03*
X0224D03*
X02221D03*
X02201D03*
X02181D03*
X02162D03*
Y02912D03*
X02181D03*
X02201D03*
X02221D03*
X0224D03*
X0226D03*
X0228D03*
X023D03*
X02319D03*
X02339D03*
X02359D03*
X02378D03*
X02398D03*
X02418D03*
X02437D03*
X02457D03*
X02477D03*
X02496D03*
X02516D03*
X02536D03*
X02555D03*
X02575D03*
X02595D03*
X02614D03*
X02634D03*
G54D45*
X02093Y0237D03*
Y0239D03*
Y0241D03*
Y02429D03*
Y02449D03*
Y02469D03*
Y02488D03*
Y02508D03*
Y02528D03*
Y02548D03*
Y02567D03*
Y02587D03*
Y02607D03*
Y02626D03*
Y02646D03*
Y02666D03*
Y02685D03*
Y02705D03*
Y02725D03*
Y02744D03*
Y02764D03*
Y02784D03*
Y02803D03*
Y02823D03*
Y02843D03*
X02703D03*
Y02823D03*
Y02803D03*
Y02784D03*
Y02764D03*
Y02744D03*
Y02725D03*
Y02705D03*
Y02685D03*
Y02666D03*
Y02646D03*
Y02626D03*
Y02607D03*
Y02587D03*
Y02567D03*
Y02548D03*
Y02528D03*
Y02508D03*
Y02488D03*
Y02469D03*
Y02449D03*
Y02429D03*
Y0241D03*
Y0239D03*
Y0237D03*
G54D46*
X01421Y02897D03*
Y02972D03*
X01326Y02934D03*
X01927Y02884D03*
Y02959D03*
X01832Y02922D03*
G54D47*
X00686Y02611D03*
Y02746D03*
G54D48*
X01825Y02736D03*
X01961D03*
G54D49*
X02003Y03107D03*
Y03158D03*
G54D50*
X02904Y00486D03*
Y00381D03*
X03046Y00486D03*
Y0038D03*
G54D51*
X02875Y0187D03*
Y018D03*
X03237Y01744D03*
Y01813D03*
X02103Y00428D03*
Y00359D03*
X02186Y00427D03*
Y00358D03*
G54D52*
X03294Y00797D03*
X03224D03*
G54D53*
X0322Y02967D03*
X03353D03*
G54D54*
X03405Y00689D03*
Y00557D03*
G54D55*
X02951Y02983D03*
Y03045D03*
X02279Y00215D03*
Y00276D03*
X03483Y00649D03*
Y00588D03*
G54D56*
X03258Y03048D03*
X0332D03*
G54D57*
X01998Y01697D03*
X01957Y01738D03*
G54D58*
X02278Y00091D03*
Y00151D03*
X03395Y01011D03*
Y0107D03*
G54D59*
X02959Y01823D03*
Y01857D03*
X02523Y00266D03*
Y003D03*
X01481Y02956D03*
Y02922D03*
X01994Y02934D03*
Y029D03*
X0365Y01281D03*
Y01315D03*
X03874Y01285D03*
Y01319D03*
X02516Y02212D03*
Y02246D03*
X03349Y01688D03*
Y01722D03*
X02341Y00134D03*
Y001D03*
X0304Y0006D03*
Y00094D03*
X0339Y00925D03*
Y00959D03*
G54D60*
X03155Y02567D03*
X03189D03*
X02512Y03161D03*
X02546D03*
X02542Y01814D03*
X02508D03*
X03889Y01668D03*
X03855D03*
X02912Y0317D03*
X02878D03*
X03448Y01031D03*
X03482D03*
G54D61*
X0304Y01818D03*
Y01781D03*
Y01743D03*
X03154D03*
Y01781D03*
Y01818D03*
G54D62*
X03097Y01781D03*
G54D63*
X02448Y00571D03*
Y00501D03*
X02267Y0036D03*
Y0043D03*
G54D64*
X02278Y03248D03*
X02312D03*
X0319Y02616D03*
X03156D03*
X02004Y02369D03*
X02038D03*
X02649Y0297D03*
X02615D03*
X02363Y00258D03*
X02397D03*
X03245Y00868D03*
X03279D03*
G54D65*
X0324Y02609D03*
Y02575D03*
X02937Y02458D03*
Y02492D03*
Y0257D03*
Y02536D03*
X02706Y03008D03*
Y02974D03*
X02896Y03006D03*
Y02972D03*
X02109Y02949D03*
Y02915D03*
X02633Y02209D03*
Y02243D03*
X02959Y01726D03*
Y0176D03*
X02984Y02281D03*
Y02315D03*
X03246Y02289D03*
Y02323D03*
G54D66*
X03Y02813D03*
X03025Y02789D03*
G54D67*
X03001Y02691D03*
X03026Y02715D03*
X01807Y02008D03*
X01831Y02032D03*
G54D68*
X02413Y03259D03*
X0245Y03178D03*
X02375D03*
G54D69*
X01473Y02358D03*
Y02315D03*
X01545D03*
Y02358D03*
X01619Y02358D03*
Y02314D03*
X01691D03*
Y02358D03*
X01473Y02238D03*
Y02195D03*
X01545D03*
Y02238D03*
X01618D03*
Y02195D03*
X0169D03*
Y02238D03*
G54D70*
X03098Y02466D03*
X03165D03*
X03098Y02409D03*
X03165D03*
X03042Y02308D03*
X03109D03*
X03164Y022D03*
X03098D03*
X03164Y02141D03*
X03098D03*
G54D71*
X01432Y02835D03*
X01483D03*
X0195Y02818D03*
X02001D03*
X02452Y03106D03*
X02503D03*
G54D72*
X02588Y00256D03*
Y00307D03*
G54D73*
X02163Y02972D03*
Y03038D03*
X02764Y02985D03*
Y03052D03*
X02836Y02984D03*
Y03051D03*
X03459Y00971D03*
Y00904D03*
G54D74*
X02667Y02096D03*
X02642D03*
X03588Y01665D03*
X03613D03*
X03786D03*
X03811D03*
X03576Y01312D03*
X03601D03*
X03824Y01316D03*
X03799D03*
X03219Y02465D03*
X03244D03*
X03219Y02411D03*
X03244D03*
X03164Y02335D03*
X03189D03*
X03245Y02146D03*
X0322D03*
X03189Y02282D03*
X03164D03*
X03245Y022D03*
X0322D03*
X03508Y02983D03*
X03483D03*
X03507Y02942D03*
X03482D03*
G54D75*
X02414Y01752D03*
Y01727D03*
X0343Y00445D03*
Y0047D03*
X03386Y00445D03*
Y0047D03*
G54D76*
X02503Y02007D03*
X02666D03*
X02503Y01922D03*
X02666D03*
X02504Y01724D03*
X02668D03*
X02504Y01639D03*
X02668D03*
G54D77*
X03649Y01923D03*
Y01759D03*
X03564Y01923D03*
Y01759D03*
X03868Y01921D03*
Y01758D03*
X03783Y01921D03*
Y01758D03*
X03646Y01569D03*
Y01405D03*
X03562Y01569D03*
Y01405D03*
X03868Y01571D03*
Y01407D03*
X03784Y01571D03*
Y01407D03*
G54D78*
X02517Y00196D03*
X02457D03*
G54D144*
X01629Y02825D03*
G54D145*
X01629Y02923D03*
G54D176*
X02421Y004D03*
G54D177*
X02362Y00377D03*
Y00422D03*
G54D178*
X03259Y01014D03*
G54D183*
X01888Y00619D03*
Y00804D03*
Y00277D03*
Y00092D03*
G54D184*
X01888Y00989D03*
Y00462D03*
G54D185*
X01447Y0071D03*
Y00844D03*
X01056Y0071D03*
Y00844D03*
X01059Y00406D03*
Y00272D03*
X01449Y00406D03*
Y00272D03*
G54D186*
X03691Y02851D03*
Y03079D03*
X03522Y00258D03*
X03294D03*
G54D187*
X03671Y03135D03*
Y02795D03*
G54D188*
X03836Y03135D03*
Y02795D03*
G54D189*
X03238Y00113D03*
X03578D03*
G54D190*
X03238Y00277D03*
X03578D03*
G54D191*
X03777Y02173D03*
Y02488D03*
G54D192*
X03639Y03718D03*
X03139D03*
X02868Y03725D03*
X02368D03*
X02074Y0372D03*
X01574D03*
X00225Y02812D03*
Y02312D03*
Y03585D03*
Y03085D03*
X0131Y03721D03*
X0081D03*
G54D193*
X03529Y03548D03*
X03489Y03618D03*
X03449Y03548D03*
X03409Y03618D03*
X03369Y03548D03*
X03329Y03618D03*
X03289Y03548D03*
X02758Y03555D03*
X02718Y03625D03*
X02678Y03555D03*
X02638Y03625D03*
X02598Y03555D03*
X02558Y03625D03*
X02518Y03555D03*
X01964Y0355D03*
X01924Y0362D03*
X01884Y0355D03*
X01844Y0362D03*
X01804Y0355D03*
X01764Y0362D03*
X01724Y0355D03*
X00395Y02702D03*
X00325Y02662D03*
X00395Y02622D03*
X00325Y02582D03*
X00395Y02542D03*
X00325Y02502D03*
X00395Y02462D03*
Y03475D03*
X00325Y03435D03*
X00395Y03395D03*
X00325Y03355D03*
X00395Y03315D03*
X00325Y03275D03*
X00395Y03235D03*
X012Y03551D03*
X0116Y03621D03*
X0112Y03551D03*
X0108Y03621D03*
X0104Y03551D03*
X01Y03621D03*
X0096Y03551D03*
G54D194*
X03249Y03618D03*
X02478Y03625D03*
X01684Y0362D03*
X0092Y03621D03*
G54D195*
X03709Y03583D03*
X03069D03*
X02938Y0359D03*
X02298D03*
X02144Y03585D03*
X01503D03*
X0036Y02882D03*
Y02242D03*
Y03656D03*
Y03015D03*
X0138Y03586D03*
X0074D03*
G54D196*
X00325Y02422D03*
Y03195D03*
G54D197*
X01011Y02556D03*
Y02855D03*
X01071Y02267D03*
X00972D03*
X01169D03*
X00874D03*
X00775D03*
X00421Y01162D03*
X00322D03*
X00519D03*
X00224D03*
X00125D03*
X02979Y01011D03*
Y01109D03*
Y00913D03*
Y01208D03*
Y01306D03*
X01029Y03186D03*
X01127D03*
X0093D03*
X01225D03*
X0165Y03187D03*
X01749D03*
X01552D03*
X01847D03*
X01633Y02579D03*
X01731D03*
X01534D03*
X01829D03*
X03822Y00251D03*
Y00349D03*
X03828Y01114D03*
X0373D03*
X03822Y00666D03*
Y00765D03*
G54D198*
X00418Y00936D03*
Y00404D03*
G54D199*
X00654Y00812D03*
G54D200*
X00654Y00528D03*
G54D201*
X01268Y02267D03*
X00618Y01162D03*
X00832Y03186D03*
X01453Y03187D03*
X01436Y02579D03*
X03631Y01114D03*
G54D202*
X02979Y00814D03*
X03822Y00448D03*
X03822Y00863D03*
G54D203*
X03282Y03233D03*
X03482D03*
X03382D03*
X03182D03*
X03082D03*
G54D204*
X00102Y00102D03*
Y03834D03*
X03834D03*
Y00102D03*
G54D205*
X01224Y01472D03*
X01124D03*
X01024D03*
X01428Y01471D03*
X01528D03*
X01324D03*
X01628Y0147D03*
Y0207D03*
X01324Y02071D03*
X01528D03*
X01428D03*
X01024Y02072D03*
X01124D03*
X01224D03*
X00924Y01472D03*
X00381Y0147D03*
X00281D03*
X00181D03*
X00586Y01469D03*
X00686D03*
X00482D03*
X00786Y01468D03*
Y02068D03*
X00482Y02069D03*
X00686D03*
X00586D03*
X00181Y0207D03*
X00281D03*
X00381D03*
X00081Y0147D03*
X02218Y01183D03*
Y01283D03*
Y01383D03*
X02217Y00978D03*
Y00878D03*
Y01082D03*
X02216Y00778D03*
X02816D03*
X02817Y01082D03*
Y00878D03*
Y00978D03*
X02818Y01383D03*
Y01283D03*
Y01183D03*
X02218Y01483D03*
G54D206*
X00924Y02072D03*
X00081Y0207D03*
G54D207*
X02818Y01483D03*
G54D208*
X01389Y0119D03*
X01918Y0147D03*
X00866Y0119D03*
G54D209*
X01586Y0119D03*
X01063D03*
G54D210*
X01918Y01273D03*
M02*