%FSTAX23Y23*%
%MOIN*%
%SFA1B1*%

%IPPOS*%
%ADD11C,0.003937*%
%LNmcu-1*%
%LPD*%
G54D11*
X02409Y02384D02*
Y02368D01*
X02417*
X02419Y02371*
Y02376*
X02417Y02379*
X02409*
X02414D02*
X02419Y02384D01*
X02425D02*
X0243D01*
X02427*
Y02368*
X02425Y02371*
X02438D02*
X0244Y02368D01*
X02446*
X02448Y02371*
Y02374*
X02446Y02376*
X02448Y02379*
Y02382*
X02446Y02384*
X0244*
X02438Y02382*
Y02379*
X0244Y02376*
X02438Y02374*
Y02371*
X0244Y02376D02*
X02446D01*
X02562Y02616D02*
Y02631D01*
X02554*
X02552Y02629*
Y02624*
X02554Y02621*
X02562*
X02557D02*
X02552Y02616D01*
X02547D02*
X02541D01*
X02544*
Y02631*
X02547Y02629*
X02533Y02631D02*
X02523D01*
Y02629*
X02533Y02618*
Y02616*
X02563Y02462D02*
Y02478D01*
X02555*
X02552Y02475*
Y0247*
X02555Y02467*
X02563*
X02558D02*
X02552Y02462D01*
X02547D02*
X02542D01*
X02545*
Y02478*
X02547Y02475*
X02524Y02478D02*
X02529Y02475D01*
X02534Y0247*
Y02465*
X02531Y02462*
X02526*
X02524Y02465*
Y02467*
X02526Y0247*
X02534*
X02562Y02429D02*
Y02444D01*
X02554*
X02552Y02442*
Y02436*
X02554Y02434*
X02562*
X02557D02*
X02552Y02429D01*
X02547D02*
X02541D01*
X02544*
Y02444*
X02547Y02442*
X02523Y02444D02*
X02533D01*
Y02436*
X02528Y02439*
X02526*
X02523Y02436*
Y02431*
X02526Y02429*
X02531*
X02533Y02431*
X0256Y02394D02*
Y0241D01*
X02552*
X02549Y02407*
Y02402*
X02552Y02399*
X0256*
X02554D02*
X02549Y02394D01*
X02544D02*
X02539D01*
X02541*
Y0241*
X02544Y02407*
X02523Y02394D02*
Y0241D01*
X02531Y02402*
X0252*
X02555Y027D02*
Y02716D01*
X02548*
X02545Y02713*
Y02708*
X02548Y02705*
X02555*
X0255D02*
X02545Y027D01*
X0254D02*
X02534D01*
X02537*
Y02716*
X0254Y02713*
X02527D02*
X02524Y02716D01*
X02519*
X02516Y02713*
Y02703*
X02519Y027*
X02524*
X02527Y02703*
Y02713*
X02551Y02585D02*
X02554Y02587D01*
X02559*
X02562Y02585*
Y02574*
X02559Y02572*
X02554*
X02551Y02574*
X02535Y02572D02*
X02546D01*
X02535Y02582*
Y02585*
X02538Y02587*
X02543*
X02546Y02585*
X0253Y02572D02*
X02525D01*
X02527*
Y02587*
X0253Y02585*
X02273Y02459D02*
X02275Y02462D01*
X02281*
X02283Y02459*
Y02449*
X02281Y02446*
X02275*
X02273Y02449*
X02268Y02446D02*
X02262D01*
X02265*
Y02462*
X02268Y02459*
X02244Y02446D02*
X02254D01*
X02244Y02457*
Y02459*
X02247Y02462*
X02252*
X02254Y02459*
X02551Y02533D02*
X02554Y02536D01*
X02559*
X02562Y02533*
Y02523*
X02559Y0252*
X02554*
X02551Y02523*
X02546Y0252D02*
X02541D01*
X02543*
Y02536*
X02546Y02533*
X02533Y0252D02*
X02528D01*
X0253*
Y02536*
X02533Y02533*
M02*