%FSTAX23Y23*%
%MOIN*%
%SFA1B1*%

%IPPOS*%
%AMD35*
4,1,4,-0.028600,0.013800,0.013800,-0.028600,0.028600,-0.013800,-0.013800,0.028600,-0.028600,0.013800,0.0*
%
%AMD79*
4,1,8,-0.008900,0.009400,-0.008900,-0.009400,-0.002500,-0.015800,0.002500,-0.015800,0.008900,-0.009400,0.008900,0.009400,0.002500,0.015800,-0.002500,0.015800,-0.008900,0.009400,0.0*
1,1,0.012921,-0.002500,0.009400*
1,1,0.012921,-0.002500,-0.009400*
1,1,0.012921,0.002500,-0.009400*
1,1,0.012921,0.002500,0.009400*
%
%AMD80*
4,1,8,-0.015800,0.002500,-0.015800,-0.002500,-0.009400,-0.008900,0.009400,-0.008900,0.015800,-0.002500,0.015800,0.002500,0.009400,0.008900,-0.009400,0.008900,-0.015800,0.002500,0.0*
1,1,0.012921,-0.009400,0.002500*
1,1,0.012921,-0.009400,-0.002500*
1,1,0.012921,0.009400,-0.002500*
1,1,0.012921,0.009400,0.002500*
%
%AMD81*
4,1,8,-0.037500,0.002500,-0.037500,-0.002500,-0.031000,-0.008900,0.031000,-0.008900,0.037500,-0.002500,0.037500,0.002500,0.031000,0.008900,-0.031000,0.008900,-0.037500,0.002500,0.0*
1,1,0.012921,-0.031000,0.002500*
1,1,0.012921,-0.031000,-0.002500*
1,1,0.012921,0.031000,-0.002500*
1,1,0.012921,0.031000,0.002500*
%
%AMD82*
4,1,8,-0.045300,0.003900,-0.045300,-0.003900,-0.037400,-0.011900,0.037400,-0.011900,0.045300,-0.003900,0.045300,0.003900,0.037400,0.011900,-0.037400,0.011900,-0.045300,0.003900,0.0*
1,1,0.015874,-0.037400,0.003900*
1,1,0.015874,-0.037400,-0.003900*
1,1,0.015874,0.037400,-0.003900*
1,1,0.015874,0.037400,0.003900*
%
%AMD84*
4,1,8,-0.007100,0.015300,-0.007100,-0.015300,-0.003800,-0.018500,0.003800,-0.018500,0.007100,-0.015300,0.007100,0.015300,0.003800,0.018500,-0.003800,0.018500,-0.007100,0.015300,0.0*
1,1,0.006496,-0.003800,0.015300*
1,1,0.006496,-0.003800,-0.015300*
1,1,0.006496,0.003800,-0.015300*
1,1,0.006496,0.003800,0.015300*
%
%AMD85*
4,1,8,-0.015300,-0.007100,0.015300,-0.007100,0.018500,-0.003800,0.018500,0.003800,0.015300,0.007100,-0.015300,0.007100,-0.018500,0.003800,-0.018500,-0.003800,-0.015300,-0.007100,0.0*
1,1,0.006496,-0.015300,-0.003800*
1,1,0.006496,0.015300,-0.003800*
1,1,0.006496,0.015300,0.003800*
1,1,0.006496,-0.015300,0.003800*
%
%AMD94*
4,1,8,0.015500,-0.006200,0.015500,0.006200,0.006200,0.015500,-0.006200,0.015500,-0.015500,0.006200,-0.015500,-0.006200,-0.006200,-0.015500,0.006200,-0.015500,0.015500,-0.006200,0.0*
1,1,0.018409,0.006200,-0.006200*
1,1,0.018409,0.006200,0.006200*
1,1,0.018409,-0.006200,0.006200*
1,1,0.018409,-0.006200,-0.006200*
%
%AMD95*
4,1,8,-0.006200,-0.015500,0.006200,-0.015500,0.015500,-0.006200,0.015500,0.006200,0.006200,0.015500,-0.006200,0.015500,-0.015500,0.006200,-0.015500,-0.006200,-0.006200,-0.015500,0.0*
1,1,0.018409,-0.006200,-0.006200*
1,1,0.018409,0.006200,-0.006200*
1,1,0.018409,0.006200,0.006200*
1,1,0.018409,-0.006200,0.006200*
%
%AMD96*
4,1,8,0.015300,0.006600,0.006600,0.015300,-0.006600,0.015300,-0.015300,0.006600,-0.015300,-0.006600,-0.006600,-0.015300,0.006600,-0.015300,0.015300,-0.006600,0.015300,0.006600,0.0*
1,1,0.018409,0.008800,0.000000*
1,1,0.018409,0.000000,0.008800*
1,1,0.018409,-0.008800,0.000000*
1,1,0.018409,0.000000,-0.008800*
%
%AMD105*
4,1,4,0.041800,0.002800,0.002800,0.041800,-0.041800,-0.002800,-0.002800,-0.041800,0.041800,0.002800,0.0*
%
%AMD116*
4,1,4,-0.034200,0.000300,0.000300,-0.034200,0.034200,-0.000300,-0.000300,0.034200,-0.034200,0.000300,0.0*
%
%AMD120*
4,1,8,0.031200,-0.015500,0.031200,0.015500,0.022000,0.024700,-0.022000,0.024700,-0.031200,0.015500,-0.031200,-0.015500,-0.022000,-0.024700,0.022000,-0.024700,0.031200,-0.015500,0.0*
1,1,0.018339,0.022000,-0.015500*
1,1,0.018339,0.022000,0.015500*
1,1,0.018339,-0.022000,0.015500*
1,1,0.018339,-0.022000,-0.015500*
%
%AMD121*
4,1,8,0.008000,0.015800,-0.008000,0.015800,-0.014600,0.009200,-0.014600,-0.009200,-0.008000,-0.015800,0.008000,-0.015800,0.014600,-0.009200,0.014600,0.009200,0.008000,0.015800,0.0*
1,1,0.013315,0.008000,0.009200*
1,1,0.013315,-0.008000,0.009200*
1,1,0.013315,-0.008000,-0.009200*
1,1,0.013315,0.008000,-0.009200*
%
%AMD122*
4,1,8,0.015800,-0.008000,0.015800,0.008000,0.009200,0.014600,-0.009200,0.014600,-0.015800,0.008000,-0.015800,-0.008000,-0.009200,-0.014600,0.009200,-0.014600,0.015800,-0.008000,0.0*
1,1,0.013315,0.009200,-0.008000*
1,1,0.013315,0.009200,0.008000*
1,1,0.013315,-0.009200,0.008000*
1,1,0.013315,-0.009200,-0.008000*
%
%AMD123*
4,1,8,0.016800,0.005500,0.005500,0.016800,-0.003800,0.016800,-0.016800,0.003800,-0.016800,-0.005500,-0.005500,-0.016800,0.003800,-0.016800,0.016800,-0.003800,0.016800,0.005500,0.0*
1,1,0.013315,0.012200,0.000800*
1,1,0.013315,0.000800,0.012200*
1,1,0.013315,-0.012200,-0.000800*
1,1,0.013315,-0.000800,-0.012200*
%
%AMD124*
4,1,8,-0.005500,0.016800,-0.016800,0.005500,-0.016800,-0.003800,-0.003800,-0.016800,0.005500,-0.016800,0.016800,-0.005500,0.016800,0.003800,0.003800,0.016800,-0.005500,0.016800,0.0*
1,1,0.013315,-0.000800,0.012200*
1,1,0.013315,-0.012200,0.000800*
1,1,0.013315,0.000800,-0.012200*
1,1,0.013315,0.012200,-0.000800*
%
G04~CAMADD=35~9~0.0~0.0~600.0~210.0~0.0~0.0~0~0.0~0.0~0.0~0.0~0~0.0~0.0~0.0~0.0~0~0.0~0.0~0.0~135.0~572.0~571.0*
%ADD35D35*%
%ADD39R,0.055000X0.024000*%
%ADD41R,0.023622X0.049212*%
%ADD42R,0.049212X0.023622*%
%ADD43R,0.052000X0.022000*%
%ADD44R,0.011811X0.047244*%
%ADD45R,0.047244X0.011811*%
%ADD49R,0.035000X0.032000*%
%ADD61R,0.031496X0.015748*%
%ADD62R,0.068898X0.098425*%
%ADD68R,0.022362X0.050559*%
G04~CAMADD=79~8~0.0~0.0~316.2~178.4~64.6~0.0~15~0.0~0.0~0.0~0.0~0~0.0~0.0~0.0~0.0~0~0.0~0.0~0.0~90.0~178.0~316.0*
%ADD79D79*%
G04~CAMADD=80~8~0.0~0.0~178.4~316.2~64.6~0.0~15~0.0~0.0~0.0~0.0~0~0.0~0.0~0.0~0.0~0~0.0~0.0~0.0~90.0~316.0~178.0*
%ADD80D80*%
G04~CAMADD=81~8~0.0~0.0~178.4~749.3~64.6~0.0~15~0.0~0.0~0.0~0.0~0~0.0~0.0~0.0~0.0~0~0.0~0.0~0.0~90.0~750.0~179.0*
%ADD81D81*%
G04~CAMADD=82~8~0.0~0.0~237.5~906.8~79.4~0.0~15~0.0~0.0~0.0~0.0~0~0.0~0.0~0.0~0.0~0~0.0~0.0~0.0~90.0~907.0~237.0*
%ADD82D82*%
%ADD83R,0.102756X0.102756*%
G04~CAMADD=84~8~0.0~0.0~370.1~141.7~32.5~0.0~15~0.0~0.0~0.0~0.0~0~0.0~0.0~0.0~0.0~0~0.0~0.0~0.0~90.0~142.0~370.0*
%ADD84D84*%
G04~CAMADD=85~8~0.0~0.0~370.1~141.7~32.5~0.0~15~0.0~0.0~0.0~0.0~0~0.0~0.0~0.0~0.0~0~0.0~0.0~0.0~180.0~370.0~142.0*
%ADD85D85*%
%ADD86R,0.028740X0.029134*%
%ADD87R,0.029134X0.028740*%
%ADD88R,0.048425X0.026772*%
%ADD89R,0.049212X0.027559*%
%ADD90R,0.049212X0.015748*%
%ADD91R,0.026772X0.048425*%
%ADD92R,0.027559X0.049212*%
%ADD93R,0.015748X0.049212*%
G04~CAMADD=94~8~0.0~0.0~309.1~309.1~92.0~0.0~15~0.0~0.0~0.0~0.0~0~0.0~0.0~0.0~0.0~0~0.0~0.0~0.0~270.0~310.0~310.0*
%ADD94D94*%
G04~CAMADD=95~8~0.0~0.0~309.1~309.1~92.0~0.0~15~0.0~0.0~0.0~0.0~0~0.0~0.0~0.0~0.0~0~0.0~0.0~0.0~180.0~310.0~310.0*
%ADD95D95*%
G04~CAMADD=96~8~0.0~0.0~309.1~309.1~92.0~0.0~15~0.0~0.0~0.0~0.0~0~0.0~0.0~0.0~0.0~0~0.0~0.0~0.0~315.0~362.0~361.0*
%ADD96D96*%
%ADD97R,0.069291X0.033858*%
%ADD98R,0.067055X0.070992*%
%ADD99R,0.094614X0.055244*%
%ADD100R,0.062992X0.051181*%
%ADD101R,0.070992X0.035559*%
%ADD102R,0.070992X0.145795*%
%ADD103R,0.070992X0.145795*%
%ADD104R,0.065874X0.058590*%
G04~CAMADD=105~9~0.0~0.0~552.4~631.2~0.0~0.0~0~0.0~0.0~0.0~0.0~0~0.0~0.0~0.0~0.0~0~0.0~0.0~0.0~315.0~836.0~835.0*
%ADD105D105*%
%ADD106R,0.047370X0.031622*%
%ADD107R,0.036772X0.046220*%
%ADD108R,0.046220X0.036772*%
%ADD109R,0.115086X0.068236*%
%ADD110R,0.065874X0.053275*%
%ADD111R,0.053275X0.065874*%
%ADD112R,0.055638X0.036740*%
%ADD113R,0.036740X0.055638*%
%ADD114R,0.044614X0.042252*%
%ADD115R,0.042252X0.044614*%
G04~CAMADD=116~9~0.0~0.0~489.4~481.6~0.0~0.0~0~0.0~0.0~0.0~0.0~0~0.0~0.0~0.0~0.0~0~0.0~0.0~0.0~135.0~684.0~683.0*
%ADD116D116*%
%ADD117R,0.046189X0.043433*%
%ADD118R,0.031622X0.029260*%
%ADD119R,0.029260X0.031622*%
G04~CAMADD=120~8~0.0~0.0~493.4~623.3~91.7~0.0~15~0.0~0.0~0.0~0.0~0~0.0~0.0~0.0~0.0~0~0.0~0.0~0.0~270.0~624.0~494.0*
%ADD120D120*%
G04~CAMADD=121~8~0.0~0.0~292.6~316.2~66.6~0.0~15~0.0~0.0~0.0~0.0~0~0.0~0.0~0.0~0.0~0~0.0~0.0~0.0~0.0~292.6~316.2*
%ADD121D121*%
G04~CAMADD=122~8~0.0~0.0~292.6~316.2~66.6~0.0~15~0.0~0.0~0.0~0.0~0~0.0~0.0~0.0~0.0~0~0.0~0.0~0.0~270.0~316.0~292.0*
%ADD122D122*%
G04~CAMADD=123~8~0.0~0.0~292.6~316.2~66.6~0.0~15~0.0~0.0~0.0~0.0~0~0.0~0.0~0.0~0.0~0~0.0~0.0~0.0~315.0~376.0~375.0*
%ADD123D123*%
G04~CAMADD=124~8~0.0~0.0~292.6~316.2~66.6~0.0~15~0.0~0.0~0.0~0.0~0~0.0~0.0~0.0~0.0~0~0.0~0.0~0.0~45.0~376.0~375.0*
%ADD124D124*%
%ADD125R,0.035559X0.035559*%
%ADD126R,0.051307X0.047370*%
%ADD127R,0.035559X0.043433*%
%ADD128R,0.043433X0.035559*%
%ADD129R,0.047370X0.051307*%
%ADD130R,0.010000X0.020000*%
%ADD131R,0.020000X0.010000*%
%ADD132R,0.049338X0.033590*%
%ADD133R,0.033590X0.049338*%
%ADD134R,0.039752X0.042016*%
%ADD135C,0.117283*%
%ADD136R,0.117283X0.117283*%
%ADD137C,0.102488*%
%ADD138C,0.027953*%
%ADD139O,0.090677X0.047370*%
%ADD140O,0.078866X0.047370*%
%ADD141O,0.047370X0.078866*%
%ADD142O,0.047370X0.090677*%
%ADD143C,0.027685*%
%ADD144R,0.061024X0.061024*%
%ADD145C,0.061024*%
%ADD146C,0.137921*%
%ADD147C,0.065008*%
%ADD148R,0.065008X0.065008*%
%ADD149C,0.103669*%
%ADD150R,0.065008X0.065008*%
%ADD151C,0.067370*%
%ADD152O,0.102519X0.055275*%
%ADD153R,0.154330X0.154330*%
%ADD154C,0.154330*%
%ADD155R,0.067370X0.067370*%
%ADD156R,0.067370X0.067370*%
%ADD157C,0.067401*%
%ADD158R,0.067401X0.067401*%
%ADD159R,0.067401X0.067401*%
%ADD160C,0.072960*%
%ADD161C,0.047370*%
%ADD162C,0.065086*%
%ADD163R,0.065086X0.065086*%
%ADD164R,0.065086X0.065086*%
%ADD165C,0.063118*%
%ADD166R,0.063118X0.063118*%
%ADD167R,0.063118X0.063118*%
%ADD168C,0.058000*%
%ADD169C,0.017716*%
%ADD170C,0.025716*%
%ADD171C,0.021654*%
%ADD172C,0.021779*%
%ADD173C,0.031622*%
%ADD174C,0.027559*%
%LNmcu-1*%
%LPD*%
G36*
X02316Y00429D02*
X02317Y00429D01*
X02317Y00429*
X02317Y0043*
X02317Y0043*
X02317Y0043*
X02317Y00431*
X02317Y00431*
X02317Y00431*
X02317Y00431*
X02318Y00432*
X02318Y00432*
X02318Y00432*
X02318Y00432*
X02318Y00433*
X02319Y00433*
X02319Y00433*
X02319Y00433*
X02319Y00433*
X0232Y00434*
X0232Y00434*
X0232Y00434*
X02321Y00434*
X02321Y00434*
X02321Y00434*
X02321Y00434*
X02322Y00434*
X02322Y00434*
X02322*
X02349*
Y00451*
X02349Y00451*
X02349Y00451*
X02349Y00452*
X02349Y00452*
X02349Y00452*
X02349Y00452*
X02349Y00453*
X0235Y00453*
X0235Y00453*
X0235Y00454*
X0235Y00454*
X0235Y00454*
X0235Y00454*
X02351Y00454*
X02351Y00455*
X02351Y00455*
X02351Y00455*
X02352Y00455*
X02352Y00455*
X02352Y00456*
X02352Y00456*
X02353Y00456*
X02353Y00456*
X02353Y00456*
X02354Y00456*
X02354Y00456*
X02354Y00456*
X02355Y00456*
X02355*
X02361*
X02361*
X02361Y00456*
X02362Y00456*
X02362Y00456*
X02362Y00456*
X02363Y00456*
X02363Y00456*
X02363Y00456*
X02363Y00456*
X02364Y00455*
X02364Y00455*
X02364Y00455*
X02364Y00455*
X02365Y00455*
X02365Y00454*
X02365Y00454*
X02365Y00454*
X02365Y00454*
X02366Y00454*
X02366Y00453*
X02366Y00453*
X02366Y00453*
X02366Y00452*
X02366Y00452*
X02366Y00452*
X02367Y00452*
X02367Y00451*
X02367Y00451*
X02367Y00451*
Y00434*
X02369*
Y00451*
X02369Y00451*
X02369Y00451*
X02369Y00452*
X02369Y00452*
X02369Y00452*
X02369Y00452*
X02369Y00453*
X02369Y00453*
X02369Y00453*
X0237Y00454*
X0237Y00454*
X0237Y00454*
X0237Y00454*
X0237Y00454*
X02371Y00455*
X02371Y00455*
X02371Y00455*
X02371Y00455*
X02372Y00455*
X02372Y00456*
X02372Y00456*
X02372Y00456*
X02373Y00456*
X02373Y00456*
X02373Y00456*
X02374Y00456*
X02374Y00456*
X02374Y00456*
X02375*
X0238*
X02381*
X02381Y00456*
X02381Y00456*
X02382Y00456*
X02382Y00456*
X02382Y00456*
X02383Y00456*
X02383Y00456*
X02383Y00456*
X02383Y00455*
X02384Y00455*
X02384Y00455*
X02384Y00455*
X02384Y00455*
X02385Y00454*
X02385Y00454*
X02385Y00454*
X02385Y00454*
X02385Y00454*
X02386Y00453*
X02386Y00453*
X02386Y00453*
X02386Y00452*
X02386Y00452*
X02386Y00452*
X02386Y00452*
X02386Y00451*
X02386Y00451*
X02386Y00451*
Y00434*
X02388*
Y0045*
X02388Y00451*
X02388Y00451*
X02388Y00451*
X02389Y00452*
X02389Y00452*
X02389Y00452*
X02389Y00452*
X02389Y00453*
X02389Y00453*
X02389Y00453*
X0239Y00454*
X0239Y00454*
X0239Y00454*
X0239Y00454*
X0239Y00455*
X02391Y00455*
X02391Y00455*
X02391Y00455*
X02392Y00455*
X02392Y00456*
X02392Y00456*
X02392Y00456*
X02393Y00456*
X02393Y00456*
X02393Y00456*
X02394Y00456*
X02394Y00456*
X02394*
X02395*
X02395*
X02399*
X024*
X024*
X024*
X024Y00456*
X02401Y00456*
X02401Y00456*
X02401Y00456*
X02402Y00456*
X02402Y00456*
X02402Y00456*
X02403Y00455*
X02403Y00455*
X02403Y00455*
X02404Y00455*
X02404Y00455*
X02404Y00454*
X02404Y00454*
X02405Y00454*
X02405Y00454*
X02405Y00453*
X02405Y00453*
X02405Y00453*
X02405Y00452*
X02406Y00452*
X02406Y00452*
X02406Y00452*
X02406Y00451*
X02406Y00451*
X02406Y00451*
X02406Y0045*
Y00434*
X02407*
Y00416*
X02407Y00416*
X02407Y00416*
X02407Y00415*
X02407Y00415*
X02407Y00415*
X02407Y00414*
X02406Y00414*
X02406Y00414*
X02406Y00413*
X02406Y00413*
X02406Y00413*
X02406Y00413*
X02405Y00412*
X02405Y00412*
X02405Y00412*
X02405Y00412*
X02405Y00412*
X02404Y00411*
X02404Y00411*
X02404Y00411*
X02403Y00411*
X02403Y00411*
X02403Y00411*
X02403Y00411*
X02402Y00411*
X02402Y00411*
X02402Y00411*
X02401Y00411*
X02401*
X02322*
X02322*
X02322Y00411*
X02321Y00411*
X02321Y00411*
X02321Y00411*
X02321Y00411*
X0232Y00411*
X0232Y00411*
X0232Y00411*
X02319Y00411*
X02319Y00411*
X02319Y00412*
X02319Y00412*
X02318Y00412*
X02318Y00412*
X02318Y00412*
X02318Y00413*
X02318Y00413*
X02317Y00413*
X02317Y00413*
X02317Y00414*
X02317Y00414*
X02317Y00414*
X02317Y00415*
X02317Y00415*
X02317Y00415*
X02317Y00416*
X02316Y00416*
X02316Y00416*
Y00429*
X02316Y00429*
G37*
G54D35*
X01856Y01953D03*
X01891Y01989D03*
X01927Y02024D03*
X01962Y0206D03*
X02165Y01857D03*
X0213Y01821D03*
X02094Y01786D03*
X02059Y01751D03*
G54D39*
X0283Y02558D03*
Y02464D03*
G54D41*
X02842Y03234D03*
X02913D03*
G54D42*
X03351Y01775D03*
Y01846D03*
X03041Y00146D03*
Y00217D03*
X02933Y00129D03*
Y002D03*
G54D43*
X02778Y03224D03*
X02698Y03186D03*
Y03261D03*
G54D44*
X02634Y02301D03*
X02614D03*
X02595D03*
X02575D03*
X02555D03*
X02536D03*
X02516D03*
X02496D03*
X02477D03*
X02457D03*
X02437D03*
X02418D03*
X02398D03*
X02378D03*
X02359D03*
X02339D03*
X02319D03*
X023D03*
X0228D03*
X0226D03*
X0224D03*
X02221D03*
X02201D03*
X02181D03*
X02162D03*
Y02912D03*
X02181D03*
X02201D03*
X02221D03*
X0224D03*
X0226D03*
X0228D03*
X023D03*
X02319D03*
X02339D03*
X02359D03*
X02378D03*
X02398D03*
X02418D03*
X02437D03*
X02457D03*
X02477D03*
X02496D03*
X02516D03*
X02536D03*
X02555D03*
X02575D03*
X02595D03*
X02614D03*
X02634D03*
G54D45*
X02093Y0237D03*
Y0239D03*
Y0241D03*
Y02429D03*
Y02449D03*
Y02469D03*
Y02488D03*
Y02508D03*
Y02528D03*
Y02548D03*
Y02567D03*
Y02587D03*
Y02607D03*
Y02626D03*
Y02646D03*
Y02666D03*
Y02685D03*
Y02705D03*
Y02725D03*
Y02744D03*
Y02764D03*
Y02784D03*
Y02803D03*
Y02823D03*
Y02843D03*
X02703D03*
Y02823D03*
Y02803D03*
Y02784D03*
Y02764D03*
Y02744D03*
Y02725D03*
Y02705D03*
Y02685D03*
Y02666D03*
Y02646D03*
Y02626D03*
Y02607D03*
Y02587D03*
Y02567D03*
Y02548D03*
Y02528D03*
Y02508D03*
Y02488D03*
Y02469D03*
Y02449D03*
Y02429D03*
Y0241D03*
Y0239D03*
Y0237D03*
G54D49*
X02003Y03107D03*
Y03158D03*
G54D61*
X0304Y01818D03*
Y01781D03*
Y01743D03*
X03154D03*
Y01781D03*
Y01818D03*
G54D62*
X03097Y01781D03*
G54D68*
X02413Y03259D03*
X0245Y03178D03*
X02375D03*
G54D79*
X02358Y0033D03*
X02377D03*
X02397D03*
X02417D03*
G54D80*
X02442Y00348D03*
Y00419D03*
X02332Y00348D03*
G54D81*
X02421Y004D03*
G54D82*
X02362Y00377D03*
G54D83*
X03259Y01014D03*
G54D84*
X0321Y0109D03*
X03229D03*
X03249D03*
X03269D03*
X03288D03*
X03308D03*
Y00938D03*
X03288D03*
X03269D03*
X03249D03*
X03229D03*
X0321D03*
G54D85*
X03183Y00965D03*
Y00984D03*
Y01004D03*
Y01024D03*
Y01043D03*
Y01063D03*
X03335D03*
Y01043D03*
Y01024D03*
Y01004D03*
Y00984D03*
Y00965D03*
G54D86*
X02453Y00109D03*
X0242D03*
X03592Y02903D03*
X03559D03*
X03557Y03034D03*
X0359D03*
G54D87*
X03348Y00364D03*
Y00398D03*
X03466Y00396D03*
Y00363D03*
G54D88*
X03649Y02839D03*
Y03091D03*
G54D89*
X03649Y0287D03*
Y03059D03*
G54D90*
X03649Y02896D03*
Y02916D03*
Y02935D03*
Y02955D03*
Y02975D03*
Y02994D03*
Y03014D03*
Y03034D03*
G54D91*
X03534Y003D03*
X03282D03*
G54D92*
X03502Y003D03*
X03313D03*
G54D93*
X03477Y003D03*
X03457D03*
X03437D03*
X03418D03*
X03398D03*
X03378D03*
X03359D03*
X03339D03*
G54D94*
X0204Y02429D03*
X02005D03*
X02003Y02536D03*
X02038D03*
X02003Y02573D03*
X02038D03*
G54D95*
X02531Y02966D03*
Y03001D03*
X02487Y03D03*
Y02965D03*
X02142Y02238D03*
Y02203D03*
X02336Y02238D03*
Y02203D03*
X02374Y02204D03*
Y02239D03*
X02181Y02203D03*
Y02238D03*
X0222Y02237D03*
Y02202D03*
X02299Y02195D03*
Y0223D03*
X02258Y02232D03*
Y02197D03*
X02449Y0224D03*
Y02205D03*
X02412Y02204D03*
Y02239D03*
X02249Y03D03*
Y02965D03*
X0221Y02965D03*
Y03D03*
G54D96*
X02144Y01743D03*
X02169Y01767D03*
G54D97*
X03344Y0211D03*
G54D98*
X03383Y02637D03*
G54D99*
X03761Y02673D03*
Y02062D03*
G54D100*
X03383Y02062D03*
G54D101*
X03344Y02153D03*
Y02196D03*
Y0224D03*
Y02283D03*
Y02326D03*
Y0237D03*
Y02413D03*
Y02456D03*
G54D102*
X02733Y00558D03*
G54D103*
X02607Y00558D03*
G54D104*
X02633Y03126D03*
Y0305D03*
G54D105*
X02921Y02793D03*
X02859Y02732D03*
X02907Y02684D03*
X02968Y02746D03*
G54D106*
X01421Y02897D03*
Y02972D03*
X01326Y02934D03*
X01927Y02884D03*
Y02959D03*
X01832Y02922D03*
G54D107*
X00686Y02611D03*
Y02746D03*
G54D108*
X01825Y02736D03*
X01961D03*
G54D109*
X02904Y00486D03*
Y00381D03*
X03046Y00486D03*
Y0038D03*
G54D110*
X02875Y0187D03*
Y018D03*
X03237Y01744D03*
Y01813D03*
X02103Y00428D03*
Y00359D03*
X02186Y00427D03*
Y00358D03*
G54D111*
X03294Y00797D03*
X03224D03*
G54D112*
X0322Y02967D03*
X03353D03*
G54D113*
X03405Y00689D03*
Y00557D03*
G54D114*
X02951Y02983D03*
Y03045D03*
X02279Y00215D03*
Y00276D03*
X03483Y00649D03*
Y00588D03*
G54D115*
X03258Y03048D03*
X0332D03*
G54D116*
X01998Y01697D03*
X01957Y01738D03*
G54D117*
X02278Y00091D03*
Y00151D03*
X03395Y01011D03*
Y0107D03*
G54D118*
X02959Y01823D03*
Y01857D03*
X02523Y00266D03*
Y003D03*
X01481Y02956D03*
Y02922D03*
X01994Y02934D03*
Y029D03*
X0365Y01281D03*
Y01315D03*
X03874Y01285D03*
Y01319D03*
X02516Y02212D03*
Y02246D03*
X03349Y01688D03*
Y01722D03*
X02341Y00134D03*
Y001D03*
X0304Y0006D03*
Y00094D03*
X0339Y00925D03*
Y00959D03*
G54D119*
X03155Y02567D03*
X03189D03*
X02512Y03161D03*
X02546D03*
X02542Y01814D03*
X02508D03*
X03889Y01668D03*
X03855D03*
X02912Y0317D03*
X02878D03*
X03448Y01031D03*
X03482D03*
G54D120*
X02448Y00571D03*
Y00501D03*
X02267Y0036D03*
Y0043D03*
G54D121*
X02278Y03248D03*
X02312D03*
X0319Y02616D03*
X03156D03*
X02004Y02369D03*
X02038D03*
X02649Y0297D03*
X02615D03*
X02363Y00258D03*
X02397D03*
X03245Y00868D03*
X03279D03*
G54D122*
X0324Y02609D03*
Y02575D03*
X02937Y02458D03*
Y02492D03*
Y0257D03*
Y02536D03*
X02706Y03008D03*
Y02974D03*
X02896Y03006D03*
Y02972D03*
X02109Y02949D03*
Y02915D03*
X02633Y02209D03*
Y02243D03*
X02959Y01726D03*
Y0176D03*
X02984Y02281D03*
Y02315D03*
X03246Y02289D03*
Y02323D03*
G54D123*
X03Y02813D03*
X03025Y02789D03*
G54D124*
X03001Y02691D03*
X03026Y02715D03*
X01807Y02008D03*
X01831Y02032D03*
G54D125*
X01473Y02358D03*
Y02315D03*
X01545D03*
Y02358D03*
X01619Y02358D03*
Y02314D03*
X01691D03*
Y02358D03*
X01473Y02238D03*
Y02195D03*
X01545D03*
Y02238D03*
X01618D03*
Y02195D03*
X0169D03*
Y02238D03*
G54D126*
X03098Y02466D03*
X03165D03*
X03098Y02409D03*
X03165D03*
X03042Y02308D03*
X03109D03*
X03164Y022D03*
X03098D03*
X03164Y02141D03*
X03098D03*
G54D127*
X01432Y02835D03*
X01483D03*
X0195Y02818D03*
X02001D03*
X02452Y03106D03*
X02503D03*
G54D128*
X02588Y00256D03*
Y00307D03*
G54D129*
X02163Y02972D03*
Y03038D03*
X02764Y02985D03*
Y03052D03*
X02836Y02984D03*
Y03051D03*
X03459Y00971D03*
Y00904D03*
G54D130*
X02667Y02096D03*
X02642D03*
X03588Y01665D03*
X03613D03*
X03786D03*
X03811D03*
X03576Y01312D03*
X03601D03*
X03824Y01316D03*
X03799D03*
X03219Y02465D03*
X03244D03*
X03219Y02411D03*
X03244D03*
X03164Y02335D03*
X03189D03*
X03245Y02146D03*
X0322D03*
X03189Y02282D03*
X03164D03*
X03245Y022D03*
X0322D03*
X03508Y02983D03*
X03483D03*
X03507Y02942D03*
X03482D03*
G54D131*
X02414Y01752D03*
Y01727D03*
X0343Y00445D03*
Y0047D03*
X03386Y00445D03*
Y0047D03*
G54D132*
X02503Y02007D03*
X02666D03*
X02503Y01922D03*
X02666D03*
X02504Y01724D03*
X02668D03*
X02504Y01639D03*
X02668D03*
G54D133*
X03649Y01923D03*
Y01759D03*
X03564Y01923D03*
Y01759D03*
X03868Y01921D03*
Y01758D03*
X03783Y01921D03*
Y01758D03*
X03646Y01569D03*
Y01405D03*
X03562Y01569D03*
Y01405D03*
X03868Y01571D03*
Y01407D03*
X03784Y01571D03*
Y01407D03*
G54D134*
X02517Y00196D03*
X02457D03*
G54D135*
X01888Y00619D03*
Y00804D03*
Y00277D03*
Y00092D03*
G54D136*
X01888Y00989D03*
Y00462D03*
G54D137*
X01447Y0071D03*
Y00844D03*
X01056Y0071D03*
Y00844D03*
X01059Y00406D03*
Y00272D03*
X01449Y00406D03*
Y00272D03*
G54D138*
X03691Y02851D03*
Y03079D03*
X03522Y00258D03*
X03294D03*
G54D139*
X03671Y03135D03*
Y02795D03*
G54D140*
X03836Y03135D03*
Y02795D03*
G54D141*
X03238Y00113D03*
X03578D03*
G54D142*
X03238Y00277D03*
X03578D03*
G54D143*
X03777Y02173D03*
Y02488D03*
G54D144*
X01629Y02825D03*
G54D145*
X01629Y02923D03*
G54D146*
X03639Y03718D03*
X03139D03*
X02868Y03725D03*
X02368D03*
X02074Y0372D03*
X01574D03*
X00225Y02812D03*
Y02312D03*
Y03585D03*
Y03085D03*
X0131Y03721D03*
X0081D03*
G54D147*
X03529Y03548D03*
X03489Y03618D03*
X03449Y03548D03*
X03409Y03618D03*
X03369Y03548D03*
X03329Y03618D03*
X03289Y03548D03*
X02758Y03555D03*
X02718Y03625D03*
X02678Y03555D03*
X02638Y03625D03*
X02598Y03555D03*
X02558Y03625D03*
X02518Y03555D03*
X01964Y0355D03*
X01924Y0362D03*
X01884Y0355D03*
X01844Y0362D03*
X01804Y0355D03*
X01764Y0362D03*
X01724Y0355D03*
X00395Y02702D03*
X00325Y02662D03*
X00395Y02622D03*
X00325Y02582D03*
X00395Y02542D03*
X00325Y02502D03*
X00395Y02462D03*
Y03475D03*
X00325Y03435D03*
X00395Y03395D03*
X00325Y03355D03*
X00395Y03315D03*
X00325Y03275D03*
X00395Y03235D03*
X012Y03551D03*
X0116Y03621D03*
X0112Y03551D03*
X0108Y03621D03*
X0104Y03551D03*
X01Y03621D03*
X0096Y03551D03*
G54D148*
X03249Y03618D03*
X02478Y03625D03*
X01684Y0362D03*
X0092Y03621D03*
G54D149*
X03709Y03583D03*
X03069D03*
X02938Y0359D03*
X02298D03*
X02144Y03585D03*
X01503D03*
X0036Y02882D03*
Y02242D03*
Y03656D03*
Y03015D03*
X0138Y03586D03*
X0074D03*
G54D150*
X00325Y02422D03*
Y03195D03*
G54D151*
X01011Y02556D03*
Y02855D03*
X01071Y02267D03*
X00972D03*
X01169D03*
X00874D03*
X00775D03*
X00421Y01162D03*
X00322D03*
X00519D03*
X00224D03*
X00125D03*
X02979Y01011D03*
Y01109D03*
Y00913D03*
Y01208D03*
Y01306D03*
X01029Y03186D03*
X01127D03*
X0093D03*
X01225D03*
X0165Y03187D03*
X01749D03*
X01552D03*
X01847D03*
X01633Y02579D03*
X01731D03*
X01534D03*
X01829D03*
G54D152*
X00418Y00936D03*
Y00404D03*
G54D153*
X00654Y00812D03*
G54D154*
X00654Y00528D03*
G54D155*
X01268Y02267D03*
X00618Y01162D03*
X00832Y03186D03*
X01453Y03187D03*
X01436Y02579D03*
G54D156*
X02979Y00814D03*
G54D157*
X03822Y00251D03*
Y00349D03*
X03828Y01114D03*
X0373D03*
X03822Y00666D03*
Y00765D03*
G54D158*
X03822Y00448D03*
X03822Y00863D03*
G54D159*
X03631Y01114D03*
G54D160*
X03282Y03233D03*
X03482D03*
X03382D03*
X03182D03*
X03082D03*
G54D161*
X00102Y00102D03*
Y03834D03*
X03834D03*
Y00102D03*
G54D162*
X01224Y01472D03*
X01124D03*
X01024D03*
X01428Y01471D03*
X01528D03*
X01324D03*
X01628Y0147D03*
Y0207D03*
X01324Y02071D03*
X01528D03*
X01428D03*
X01024Y02072D03*
X01124D03*
X01224D03*
X00924Y01472D03*
X00381Y0147D03*
X00281D03*
X00181D03*
X00586Y01469D03*
X00686D03*
X00482D03*
X00786Y01468D03*
Y02068D03*
X00482Y02069D03*
X00686D03*
X00586D03*
X00181Y0207D03*
X00281D03*
X00381D03*
X00081Y0147D03*
X02218Y01183D03*
Y01283D03*
Y01383D03*
X02217Y00978D03*
Y00878D03*
Y01082D03*
X02216Y00778D03*
X02816D03*
X02817Y01082D03*
Y00878D03*
Y00978D03*
X02818Y01383D03*
Y01283D03*
Y01183D03*
X02218Y01483D03*
G54D163*
X00924Y02072D03*
X00081Y0207D03*
G54D164*
X02818Y01483D03*
G54D165*
X01389Y0119D03*
X01918Y0147D03*
X00866Y0119D03*
G54D166*
X01586Y0119D03*
X01063D03*
G54D167*
X01918Y01273D03*
G54D168*
X03543Y01181D03*
X02755Y00393D03*
X02559Y00787D03*
X00984Y02362D03*
X0059D03*
X00393Y01968D03*
G54D169*
X02476Y02339D03*
X02508Y02341D03*
X02035Y02748D03*
X02605Y02342D03*
X02283Y02257D03*
X02445Y02847D03*
X02433Y0287D03*
X02046Y02772D03*
X02754Y02884D03*
X02259Y02263D03*
X0244Y02628D03*
X02491Y02616D03*
X02416Y02626D03*
X02328Y02593D03*
X02518Y0256D03*
X02797Y03112D03*
X02614Y02874D03*
X02329Y02619D03*
X02498Y02553D03*
X02468Y02622D03*
X02047Y02722D03*
X02233Y01852D03*
X02229Y01829D03*
X02253Y01773D03*
X02228Y01804D03*
X02737Y02867D03*
X02504Y02635D03*
X02227Y01761D03*
X02328Y02555D03*
X02362Y01578D03*
X02389Y01579D03*
X02328Y02529D03*
G54D170*
X03094Y0187D03*
X03589Y01609D03*
X02518Y02869D03*
X03182Y00892D03*
X01971Y02516D03*
X02291Y02162D03*
X0197Y02572D03*
X02003Y02467D03*
X02422Y02364D03*
X02483Y02857D03*
X02435Y02821D03*
X02559Y02736D03*
X01983Y02614D03*
X03138Y01007D03*
X02319Y02347D03*
X02106Y02222D03*
X03291Y0241D03*
X02658Y02707D03*
X03401Y02455D03*
X03824Y01275D03*
X03504Y00992D03*
X03503Y00905D03*
X01954Y02598D03*
X01949Y0376D03*
X01981Y03764D03*
X01924Y03779D03*
X0195Y03689D03*
X01919Y0369D03*
X0206Y03527D03*
X02036Y03548D03*
X02009Y03527D03*
X03248Y02357D03*
X0329Y02294D03*
X02082Y02339D03*
X02003Y02331D03*
X02255Y02168D03*
X03281Y02256D03*
X02099Y0288D03*
X02458Y02541D03*
X02548Y02504D03*
X03424Y0306D03*
X03408Y03044D03*
X03391Y03026D03*
X02067Y03121D03*
X02066Y03097D03*
X01806Y02059D03*
X01781Y02035D03*
X03289Y0237D03*
X02206Y03044D03*
X034Y02195D03*
Y02152D03*
X025Y01882D03*
X02668Y01881D03*
X03541Y01311D03*
X03744Y01753D03*
X03743Y01925D03*
X03746Y01399D03*
X03746Y01603D03*
X03523Y01403D03*
X02505Y01599D03*
X02415Y01787D03*
X02668Y01601D03*
X02032Y02933D03*
X03146Y00797D03*
X0339Y00888D03*
X02503Y02693D03*
X036Y02818D03*
X03601Y03105D03*
X0254Y0311D03*
X02407Y03164D03*
X01653Y0224D03*
X01654Y0236D03*
X0158Y02238D03*
X01581Y02358D03*
X02407Y02098D03*
X02553Y02553D03*
X02659Y02921D03*
X0207Y02978D03*
X02104Y03037D03*
X01788Y02346D03*
X02244Y03036D03*
X03205Y02652D03*
X03612Y01733D03*
X02656Y02251D03*
X01981Y03682D03*
X0214Y0257D03*
X02303Y02433D03*
X03527Y01746D03*
X03525Y01931D03*
X0239Y01509D03*
X02361D03*
X02138Y02472D03*
X02138Y02448D03*
X02142Y02391D03*
X02137Y02414D03*
X0253Y03033D03*
X01512Y02984D03*
X02486Y03033D03*
X02336Y0217D03*
X01429Y02194D03*
X01432Y02316D03*
X01654Y02336D03*
X01653Y02214D03*
X03172Y01666D03*
X03203D03*
X03296Y01666D03*
X03264D03*
X03233Y01666D03*
X0314Y01045D03*
X03238Y01865D03*
X03097Y01709D03*
X0266Y02566D03*
X0222Y02169D03*
X02181Y0217D03*
X03601Y02953D03*
Y02977D03*
X03532Y02941D03*
X03532Y02983D03*
X03704Y02977D03*
Y0293D03*
Y02953D03*
X03705Y03002D03*
X03385Y00421D03*
X0342Y00346D03*
X03395D03*
X0343Y00421D03*
X0342Y00243D03*
X03395Y00242D03*
X03446Y00244D03*
X03369Y00242D03*
G54D171*
X02573Y02865D03*
X02658Y02491D03*
X02546Y02858D03*
X02659Y02432D03*
X02658Y0246D03*
X03246Y00903D03*
X03273D03*
X02662Y02405D03*
X02632Y03191D03*
X02607Y03176D03*
X02797Y03138D03*
G54D172*
X03041Y02131D03*
X03042Y02162D03*
X03041Y02191D03*
X03048Y0222D03*
X03122Y02367D03*
X03073Y02368D03*
X03116Y02512D03*
X03079Y02511D03*
X02485Y02263D03*
X02514Y0218D03*
X02277Y02786D03*
X03333Y0092D03*
X03351Y00941D03*
X02668Y03002D03*
X02951Y02318D03*
X02765Y01814D03*
X02633Y02177D03*
X03256Y0035D03*
X03551Y00346D03*
X03243Y02257D03*
X028Y02941D03*
X02719Y02944D03*
X02288Y02871D03*
X03754Y01663D03*
X03555Y01662D03*
X02546Y03198D03*
X03106Y0031D03*
X02564Y02967D03*
X03209Y02372D03*
X03203Y02233D03*
X03218Y02505D03*
X02592Y03245D03*
X03055Y02267D03*
X0302Y02268D03*
X01931Y01781D03*
X01919Y01705D03*
X03313Y00868D03*
X03226Y00743D03*
X03341Y00796D03*
X02618Y02098D03*
X02668Y02124D03*
X02272Y0187D03*
X02189Y01803D03*
X02483Y0217D03*
X02844Y03171D03*
X02662Y02803D03*
X02577Y01814D03*
X02948Y02879D03*
X03003Y0288D03*
X02903Y02877D03*
X0205Y0316D03*
X0218Y02872D03*
X01484Y02874D03*
X01825Y02818D03*
X02837Y03095D03*
X02659Y02543D03*
X02547Y02597D03*
X02894Y03037D03*
X02278Y03283D03*
X02452Y03287D03*
X02373Y03286D03*
X02312Y03284D03*
X02131Y02754D03*
X02293Y02761D03*
X03746Y032D03*
X03387Y01689D03*
X03762Y02018D03*
X02958Y02411D03*
X02992Y02476D03*
X02991Y02557D03*
X02912Y02411D03*
X02875Y02854D03*
X02814Y02794D03*
X02846Y02825D03*
X02783Y02763D03*
X02657Y02626D03*
X03164Y02247D03*
X03221Y02108D03*
X02868Y02411D03*
X02823Y02411D03*
X02778Y02412D03*
X03468Y0047D03*
X0317Y0265D03*
X03482Y02907D03*
X0324Y02645D03*
X03526Y02903D03*
X03163Y02368D03*
X03348Y00432D03*
X03348Y0047D03*
X02804Y02613D03*
X03093Y02753D03*
X02473Y0026D03*
X02778Y00348D03*
X02725Y00348D03*
X02671Y00348D03*
X03061Y00302D03*
X03007Y00301D03*
X02952Y00301D03*
X02898Y00302D03*
X02843Y00301D03*
X02783Y00057D03*
X02728Y00058D03*
X02674D03*
X02781Y00114D03*
X02728Y00113D03*
X02674Y00113D03*
X02671Y00292D03*
X02724D03*
X02779Y00292D03*
X0267Y00238D03*
X02725Y00238D03*
X02781D03*
X02674Y00164D03*
X02728Y00164D03*
X0278Y00165D03*
X02194Y00126D03*
X02142Y00125D03*
X02087Y00126D03*
X02194Y00181D03*
X02142D03*
X02087Y00183D03*
X02194Y00235D03*
X02141D03*
X02087Y00236D03*
X0309Y0006D03*
X02988Y00101D03*
X02187Y00312D03*
X02105D03*
X02325Y00217D03*
X02998Y01781D03*
X03482Y03019D03*
X03524Y03034D03*
X03468Y00433D03*
X03385Y02017D03*
X03762Y02718D03*
X03387Y02695D03*
X03065Y02691D03*
X02793Y02697D03*
X03034Y02661D03*
X03048Y02751D03*
X02768Y02727D03*
X02895Y02493D03*
Y02537D03*
X02992Y02437D03*
X0276Y02477D03*
X02991Y02514D03*
X03066Y02816D03*
X03034Y02848D03*
X03006Y02631D03*
X02888Y02612D03*
X02847Y02613D03*
X0293Y02613D03*
X02973Y02599D03*
X03093Y0272D03*
X03094Y02786D03*
G54D173*
X02357Y00061D03*
X02328Y0006D03*
X03166Y02912D03*
X032Y029D03*
X03238Y02901D03*
G54D174*
X02878Y01922D03*
X02845Y01922D03*
X03162Y00465D03*
X03163Y005D03*
Y00536D03*
X03162Y0057D03*
X03127D03*
X03092Y0057D03*
X03027Y0057D03*
X03059Y00571D03*
X02811Y01886D03*
X02811Y01922D03*
M02*