%FSTAX23Y23*%
%MOIN*%
%SFA1B1*%

%IPPOS*%
%ADD10C,0.005000*%
%LNnema23-1*%
%LPD*%
G54D10*
X0033Y01423D02*
X00394D01*
X00362Y01391D02*
Y01455D01*
X0033Y00783D02*
X00394D01*
X00362Y00751D02*
Y00815D01*
X00308Y01243D02*
X00345D01*
X00327Y01225D02*
Y01262D01*
X00378Y01203D02*
X00415D01*
X00397Y01185D02*
Y01222D01*
X00308Y01163D02*
X00345D01*
X00327Y01145D02*
Y01182D01*
X00378Y01123D02*
X00415D01*
X00397Y01105D02*
Y01142D01*
X00308Y01083D02*
X00345D01*
X00327Y01065D02*
Y01102D01*
X00378Y01043D02*
X00415D01*
X00397Y01025D02*
Y01062D01*
X00308Y01003D02*
X00345D01*
X00327Y00985D02*
Y01022D01*
X00378Y00963D02*
X00415D01*
X00397Y00945D02*
Y00982D01*
X00162Y01353D02*
X00292D01*
X00227Y01288D02*
Y01418D01*
X00162Y00853D02*
X00292D01*
X00227Y00788D02*
Y00918D01*
X02042Y01174D02*
X02083D01*
X02062Y01153D02*
Y01195D01*
X02042Y01075D02*
X02083D01*
X02062Y01055D02*
Y01096D01*
X01654Y00138D02*
X01776D01*
X01715Y00077D02*
Y00199D01*
X01654Y02067D02*
X01776D01*
X01715Y02006D02*
Y02128D01*
X00428Y00137D02*
X0055D01*
X00489Y00076D02*
Y00198D01*
X00428Y02067D02*
X0055D01*
X00489Y02006D02*
Y02128D01*
X0156Y01968D02*
X01588D01*
X01574Y01954D02*
Y01982D01*
X01757Y01574D02*
X01785D01*
X01771Y0156D02*
Y01588D01*
X01757Y00787D02*
X01785D01*
X01771Y00773D02*
Y00801D01*
X0156Y00393D02*
X01588D01*
X01574Y00379D02*
Y00407D01*
X01167Y01968D02*
X01195D01*
X01181Y01954D02*
Y01982D01*
X01363Y01574D02*
X01391D01*
X01377Y0156D02*
Y01588D01*
X01363Y00787D02*
X01391D01*
X01377Y00773D02*
Y00801D01*
X01167Y00393D02*
X01195D01*
X01181Y00379D02*
Y00407D01*
X00773Y01968D02*
X00801D01*
X00787Y01954D02*
Y01982D01*
X0097Y01574D02*
X00998D01*
X00984Y0156D02*
Y01588D01*
X0097Y00787D02*
X00998D01*
X00984Y00773D02*
Y00801D01*
X00773Y00393D02*
X00801D01*
X00787Y00379D02*
Y00407D01*
X00576Y01574D02*
X00604D01*
X0059Y0156D02*
Y01588D01*
X00576Y00787D02*
X00604D01*
X0059Y00773D02*
Y00801D01*
X01352Y00938D02*
X01364D01*
X01358Y00932D02*
Y00944D01*
X01316Y00938D02*
X01327D01*
X01322Y00933D02*
Y00944D01*
X0128Y00939D02*
X01292D01*
X01286Y00933D02*
Y00945D01*
X00512Y01121D02*
X00524D01*
X00518Y01115D02*
Y01127D01*
X00201Y01003D02*
X00212D01*
X00207Y00997D02*
Y01009D01*
X00201Y01164D02*
X00212D01*
X00207Y01158D02*
Y0117D01*
X002Y0124D02*
X00212D01*
X00206Y01235D02*
Y01246D01*
X00926Y01076D02*
X00938D01*
X00932Y0107D02*
Y01082D01*
X01266Y01164D02*
X01277D01*
X01272Y01158D02*
Y0117D01*
X01383Y01158D02*
X01394D01*
X01388Y01152D02*
Y01164D01*
X01383Y0113D02*
X01395D01*
X01389Y01124D02*
Y01136D01*
X01383Y01101D02*
X01395D01*
X01389Y01096D02*
Y01107D01*
M02*