%FSTAX23Y23*%
%MOIN*%
%SFA1B1*%

%IPPOS*%
%AMD13*
4,1,8,0.026900,0.008100,-0.026900,0.008100,-0.028900,0.006100,-0.028900,-0.006100,-0.026900,-0.008100,0.026900,-0.008100,0.028900,-0.006100,0.028900,0.006100,0.026900,0.008100,0.0*
1,1,0.004039,0.026900,0.006100*
1,1,0.004039,-0.026900,0.006100*
1,1,0.004039,-0.026900,-0.006100*
1,1,0.004039,0.026900,-0.006100*
%
%AMD14*
4,1,8,-0.012500,0.006200,-0.012500,-0.006200,-0.006200,-0.012500,0.006200,-0.012500,0.012500,-0.006200,0.012500,0.006200,0.006200,0.012500,-0.006200,0.012500,-0.012500,0.006200,0.0*
1,1,0.012504,-0.006200,0.006200*
1,1,0.012504,-0.006200,-0.006200*
1,1,0.012504,0.006200,-0.006200*
1,1,0.012504,0.006200,0.006200*
%
%ADD11R,0.061268X0.059236*%
%ADD12R,0.012000X0.022000*%
G04~CAMADD=13~8~0.0~0.0~578.7~161.4~20.2~0.0~15~0.0~0.0~0.0~0.0~0~0.0~0.0~0.0~0.0~0~0.0~0.0~0.0~0.0~578.7~161.4*
%ADD13D13*%
G04~CAMADD=14~8~0.0~0.0~250.0~250.0~62.5~0.0~15~0.0~0.0~0.0~0.0~0~0.0~0.0~0.0~0.0~0~0.0~0.0~0.0~90.0~250.0~250.0*
%ADD14D14*%
%ADD29C,0.095669*%
%ADD30R,0.057008X0.057008*%
%ADD31C,0.057008*%
%ADD32C,0.129921*%
%ADD33R,0.062008X0.062008*%
%ADD34C,0.062008*%
%ADD35C,0.039370*%
%LNnema23-1*%
%LPD*%
G54D11*
X01315Y01017D03*
Y01088D03*
G54D12*
X00268Y01242D03*
X00243D03*
X00269Y01164D03*
X00244D03*
X00455Y01122D03*
X0048D03*
X00268Y01003D03*
X00243D03*
G54D13*
X00989Y01179D03*
Y01153D03*
Y01127D03*
Y01102D03*
Y01076D03*
Y01051D03*
Y01025D03*
X01215D03*
Y01051D03*
Y01076D03*
Y01102D03*
Y01127D03*
Y01153D03*
Y01179D03*
G54D14*
X00897Y01126D03*
X00932D03*
G54D29*
X00362Y01423D03*
Y00783D03*
G54D30*
X00327Y01243D03*
G54D31*
X00397Y01203D03*
X00327Y01163D03*
X00397Y01123D03*
X00327Y01083D03*
X00397Y01043D03*
X00327Y01003D03*
X00397Y00963D03*
G54D32*
X00227Y01353D03*
Y00853D03*
G54D33*
X02062Y01174D03*
G54D34*
X02062Y01075D03*
G54D35*
X01715Y00138D03*
X01715Y02067D03*
X00489Y00137D03*
X00489Y02067D03*
M02*