%FSTAX23Y23*%
%MOIN*%
%SFA1B1*%

%IPPOS*%
%AMD16*
4,1,8,0.026900,0.012100,-0.026900,0.012100,-0.033000,0.006100,-0.033000,-0.006100,-0.026900,-0.012100,0.026900,-0.012100,0.033000,-0.006100,0.033000,0.006100,0.026900,0.012100,0.0*
1,1,0.012071,0.026900,0.006100*
1,1,0.012071,-0.026900,0.006100*
1,1,0.012071,-0.026900,-0.006100*
1,1,0.012071,0.026900,-0.006100*
%
%AMD17*
4,1,8,-0.015500,0.006200,-0.015500,-0.006200,-0.006200,-0.015500,0.006200,-0.015500,0.015500,-0.006200,0.015500,0.006200,0.006200,0.015500,-0.006200,0.015500,-0.015500,0.006200,0.0*
1,1,0.018409,-0.006200,0.006200*
1,1,0.018409,-0.006200,-0.006200*
1,1,0.018409,0.006200,-0.006200*
1,1,0.018409,0.006200,0.006200*
%
%ADD11R,0.061268X0.059236*%
%ADD15R,0.010000X0.020000*%
G04~CAMADD=16~8~0.0~0.0~659.1~241.7~60.4~0.0~15~0.0~0.0~0.0~0.0~0~0.0~0.0~0.0~0.0~0~0.0~0.0~0.0~0.0~659.1~241.7*
%ADD16D16*%
G04~CAMADD=17~8~0.0~0.0~309.1~309.1~92.0~0.0~15~0.0~0.0~0.0~0.0~0~0.0~0.0~0.0~0.0~0~0.0~0.0~0.0~90.0~310.0~310.0*
%ADD17D17*%
%ADD18C,0.099606*%
%ADD19R,0.060945X0.060945*%
%ADD20C,0.060945*%
%ADD21C,0.133858*%
%ADD22R,0.065945X0.065945*%
%ADD23C,0.065945*%
%ADD24C,0.043307*%
%ADD25C,0.053937*%
%ADD26C,0.021654*%
%LNnema23-1*%
%LPD*%
G54D11*
X01315Y01017D03*
Y01088D03*
G54D15*
X00268Y01242D03*
X00243D03*
X00269Y01164D03*
X00244D03*
X00455Y01122D03*
X0048D03*
X00268Y01003D03*
X00243D03*
G54D16*
X00989Y01179D03*
Y01153D03*
Y01127D03*
Y01102D03*
Y01076D03*
Y01051D03*
Y01025D03*
X01215D03*
Y01051D03*
Y01076D03*
Y01102D03*
Y01127D03*
Y01153D03*
Y01179D03*
G54D17*
X00897Y01126D03*
X00932D03*
G54D18*
X00362Y01423D03*
Y00783D03*
G54D19*
X00327Y01243D03*
G54D20*
X00397Y01203D03*
X00327Y01163D03*
X00397Y01123D03*
X00327Y01083D03*
X00397Y01043D03*
X00327Y01003D03*
X00397Y00963D03*
G54D21*
X00227Y01353D03*
Y00853D03*
G54D22*
X02062Y01174D03*
G54D23*
X02062Y01075D03*
G54D24*
X01715Y00138D03*
X01715Y02067D03*
X00489Y00137D03*
X00489Y02067D03*
G54D25*
X01574Y01968D03*
X01771Y01574D03*
Y00787D03*
X01574Y00393D03*
X01181Y01968D03*
X01377Y01574D03*
Y00787D03*
X01181Y00393D03*
X00787Y01968D03*
X00984Y01574D03*
Y00787D03*
X00787Y00393D03*
X0059Y01574D03*
Y00787D03*
G54D26*
X01358Y00938D03*
X01322Y00938D03*
X01286Y00939D03*
X00518Y01121D03*
X00207Y01003D03*
Y01164D03*
X00206Y0124D03*
X00932Y01076D03*
X01272Y01164D03*
X01388Y01158D03*
X01389Y0113D03*
Y01101D03*
M02*