%FSTAX23Y23*%
%MOIN*%
%SFA1B1*%

%IPPOS*%
%ADD47C,0.000500*%
%LNnema23-1*%
%LPD*%
G54D47*
X01776Y00138D02*
D01*
X01776Y00142*
X01776Y00146*
X01775Y0015*
X01774Y00154*
X01772Y00158*
X01771Y00162*
X01769Y00166*
X01767Y0017*
X01764Y00173*
X01762Y00177*
X01759Y0018*
X01756Y00183*
X01753Y00186*
X01749Y00188*
X01746Y0019*
X01742Y00192*
X01738Y00194*
X01734Y00196*
X0173Y00197*
X01726Y00198*
X01721Y00198*
X01717Y00199*
X01713*
X01709Y00198*
X01705Y00198*
X017Y00197*
X01696Y00196*
X01692Y00194*
X01688Y00192*
X01685Y0019*
X01681Y00188*
X01678Y00186*
X01674Y00183*
X01671Y0018*
X01668Y00177*
X01666Y00173*
X01663Y0017*
X01661Y00166*
X01659Y00162*
X01658Y00158*
X01656Y00154*
X01655Y0015*
X01655Y00146*
X01654Y00142*
X01654Y00138*
X01654Y00133*
X01655Y00129*
X01655Y00125*
X01656Y00121*
X01658Y00117*
X01659Y00113*
X01661Y00109*
X01663Y00105*
X01666Y00102*
X01668Y00098*
X01671Y00095*
X01674Y00092*
X01678Y00089*
X01681Y00087*
X01685Y00085*
X01688Y00083*
X01692Y00081*
X01696Y0008*
X017Y00078*
X01705Y00077*
X01709Y00077*
X01713Y00077*
X01717*
X01721Y00077*
X01726Y00077*
X0173Y00078*
X01734Y0008*
X01738Y00081*
X01742Y00083*
X01746Y00085*
X01749Y00087*
X01753Y00089*
X01756Y00092*
X01759Y00095*
X01762Y00098*
X01764Y00102*
X01767Y00105*
X01769Y00109*
X01771Y00113*
X01772Y00117*
X01774Y00121*
X01775Y00125*
X01776Y00129*
X01776Y00133*
X01776Y00138*
X0055D02*
D01*
X0055Y00142*
X0055Y00146*
X00549Y0015*
X00548Y00154*
X00546Y00158*
X00545Y00162*
X00543Y00166*
X00541Y0017*
X00538Y00173*
X00536Y00177*
X00533Y0018*
X0053Y00183*
X00527Y00186*
X00523Y00188*
X0052Y0019*
X00516Y00192*
X00512Y00194*
X00508Y00196*
X00504Y00197*
X005Y00198*
X00496Y00198*
X00491Y00199*
X00487*
X00483Y00198*
X00479Y00198*
X00474Y00197*
X0047Y00196*
X00466Y00194*
X00462Y00192*
X00459Y0019*
X00455Y00188*
X00452Y00186*
X00448Y00183*
X00445Y0018*
X00442Y00177*
X0044Y00173*
X00437Y0017*
X00435Y00166*
X00433Y00162*
X00432Y00158*
X0043Y00154*
X00429Y0015*
X00429Y00146*
X00428Y00142*
X00428Y00138*
X00428Y00133*
X00429Y00129*
X00429Y00125*
X0043Y00121*
X00432Y00117*
X00433Y00113*
X00435Y00109*
X00437Y00105*
X0044Y00102*
X00442Y00098*
X00445Y00095*
X00448Y00092*
X00452Y00089*
X00455Y00087*
X00459Y00085*
X00462Y00083*
X00466Y00081*
X0047Y0008*
X00474Y00078*
X00479Y00077*
X00483Y00077*
X00487Y00077*
X00491*
X00496Y00077*
X005Y00077*
X00504Y00078*
X00508Y0008*
X00512Y00081*
X00516Y00083*
X0052Y00085*
X00523Y00087*
X00527Y00089*
X0053Y00092*
X00533Y00095*
X00536Y00098*
X00538Y00102*
X00541Y00105*
X00543Y00109*
X00545Y00113*
X00546Y00117*
X00548Y00121*
X00549Y00125*
X0055Y00129*
X0055Y00133*
X0055Y00138*
Y02067D02*
D01*
X0055Y02071*
X0055Y02075*
X00549Y02079*
X00548Y02084*
X00546Y02088*
X00545Y02092*
X00543Y02095*
X00541Y02099*
X00538Y02103*
X00536Y02106*
X00533Y02109*
X0053Y02112*
X00527Y02115*
X00523Y02117*
X0052Y0212*
X00516Y02122*
X00512Y02123*
X00508Y02125*
X00504Y02126*
X005Y02127*
X00496Y02127*
X00491Y02128*
X00487*
X00483Y02127*
X00479Y02127*
X00474Y02126*
X0047Y02125*
X00466Y02123*
X00462Y02122*
X00459Y0212*
X00455Y02117*
X00452Y02115*
X00448Y02112*
X00445Y02109*
X00442Y02106*
X0044Y02103*
X00437Y02099*
X00435Y02095*
X00433Y02092*
X00432Y02088*
X0043Y02084*
X00429Y02079*
X00429Y02075*
X00428Y02071*
X00428Y02067*
X00428Y02062*
X00429Y02058*
X00429Y02054*
X0043Y0205*
X00432Y02046*
X00433Y02042*
X00435Y02038*
X00437Y02034*
X0044Y02031*
X00442Y02027*
X00445Y02024*
X00448Y02021*
X00452Y02019*
X00455Y02016*
X00459Y02014*
X00462Y02012*
X00466Y0201*
X0047Y02009*
X00474Y02007*
X00479Y02007*
X00483Y02006*
X00487Y02006*
X00491*
X00496Y02006*
X005Y02007*
X00504Y02007*
X00508Y02009*
X00512Y0201*
X00516Y02012*
X0052Y02014*
X00523Y02016*
X00527Y02019*
X0053Y02021*
X00533Y02024*
X00536Y02027*
X00538Y02031*
X00541Y02034*
X00543Y02038*
X00545Y02042*
X00546Y02046*
X00548Y0205*
X00549Y02054*
X0055Y02058*
X0055Y02062*
X0055Y02067*
X01776D02*
D01*
X01776Y02071*
X01776Y02075*
X01775Y02079*
X01774Y02084*
X01772Y02088*
X01771Y02092*
X01769Y02095*
X01767Y02099*
X01764Y02103*
X01762Y02106*
X01759Y02109*
X01756Y02112*
X01753Y02115*
X01749Y02117*
X01746Y0212*
X01742Y02122*
X01738Y02123*
X01734Y02125*
X0173Y02126*
X01726Y02127*
X01721Y02127*
X01717Y02128*
X01713*
X01709Y02127*
X01705Y02127*
X017Y02126*
X01696Y02125*
X01692Y02123*
X01688Y02122*
X01685Y0212*
X01681Y02117*
X01678Y02115*
X01674Y02112*
X01671Y02109*
X01668Y02106*
X01666Y02103*
X01663Y02099*
X01661Y02095*
X01659Y02092*
X01658Y02088*
X01656Y02084*
X01655Y02079*
X01655Y02075*
X01654Y02071*
X01654Y02067*
X01654Y02062*
X01655Y02058*
X01655Y02054*
X01656Y0205*
X01658Y02046*
X01659Y02042*
X01661Y02038*
X01663Y02034*
X01666Y02031*
X01668Y02027*
X01671Y02024*
X01674Y02021*
X01678Y02019*
X01681Y02016*
X01685Y02014*
X01688Y02012*
X01692Y0201*
X01696Y02009*
X017Y02007*
X01705Y02007*
X01709Y02006*
X01713Y02006*
X01717*
X01721Y02006*
X01726Y02007*
X0173Y02007*
X01734Y02009*
X01738Y0201*
X01742Y02012*
X01746Y02014*
X01749Y02016*
X01753Y02019*
X01756Y02021*
X01759Y02024*
X01762Y02027*
X01764Y02031*
X01767Y02034*
X01769Y02038*
X01771Y02042*
X01772Y02046*
X01774Y0205*
X01775Y02054*
X01776Y02058*
X01776Y02062*
X01776Y02067*
X0Y00489D02*
D01*
X0Y0048*
X00001Y0047*
X00003Y0046*
X00005Y00451*
X00008Y00442*
X00012Y00433*
X00016Y00424*
X00021Y00416*
X00026Y00408*
X00032Y00401*
X00038Y00393*
X00045Y00387*
X00053Y00381*
X0006Y00375*
X00069Y0037*
X00077Y00365*
X00086Y00361*
X00095Y00358*
X00104Y00355*
X00114Y00353*
X00123Y00352*
X00133Y00351*
X00138Y00351*
X00351Y00174D02*
D01*
X00351Y00187*
X0035Y00199*
X00347Y00211*
X00344Y00223*
X00341Y00235*
X00336Y00246*
X00331Y00257*
X00324Y00268*
X00317Y00278*
X0031Y00288*
X00302Y00297*
X00293Y00306*
X00283Y00314*
X00273Y00321*
X00263Y00328*
X00252Y00333*
X00241Y00338*
X00229Y00343*
X00217Y00346*
X00205Y00349*
X00193Y0035*
X0018Y00351*
X00174Y00351*
X00351Y00138D02*
D01*
X00352Y00128*
X00353Y00118*
X00354Y00109*
X00357Y001*
X0036Y0009*
X00363Y00082*
X00367Y00073*
X00372Y00065*
X00378Y00057*
X00384Y00049*
X0039Y00042*
X00397Y00035*
X00404Y00029*
X00412Y00023*
X0042Y00018*
X00429Y00014*
X00437Y0001*
X00447Y00006*
X00456Y00004*
X00465Y00002*
X00475Y00001*
X00484Y0*
X00489Y0*
X01715D02*
D01*
X01725Y0*
X01734Y00001*
X01744Y00003*
X01753Y00005*
X01762Y00008*
X01771Y00012*
X0178Y00016*
X01788Y00021*
X01796Y00026*
X01804Y00032*
X01811Y00038*
X01818Y00045*
X01824Y00053*
X01829Y0006*
X01834Y00069*
X01839Y00077*
X01843Y00086*
X01846Y00095*
X01849Y00104*
X01851Y00114*
X01852Y00123*
X01853Y00133*
X01853Y00138*
X0203Y00351D02*
D01*
X02018Y00351*
X02005Y0035*
X01993Y00347*
X01981Y00344*
X01969Y00341*
X01958Y00336*
X01947Y00331*
X01936Y00324*
X01926Y00317*
X01916Y0031*
X01907Y00302*
X01898Y00293*
X0189Y00283*
X01883Y00273*
X01877Y00263*
X01871Y00252*
X01866Y00241*
X01862Y00229*
X01858Y00217*
X01856Y00205*
X01854Y00193*
X01853Y0018*
X01853Y00174*
X02067Y00351D02*
D01*
X02076Y00352*
X02086Y00353*
X02095Y00354*
X02105Y00357*
X02114Y0036*
X02123Y00363*
X02131Y00367*
X0214Y00372*
X02148Y00378*
X02155Y00384*
X02162Y0039*
X02169Y00397*
X02175Y00404*
X02181Y00412*
X02186Y0042*
X02191Y00429*
X02194Y00437*
X02198Y00447*
X022Y00456*
X02202Y00465*
X02204Y00475*
X02204Y00484*
X02204Y00489*
Y01715D02*
D01*
X02204Y01725*
X02203Y01734*
X02201Y01744*
X02199Y01753*
X02196Y01762*
X02193Y01771*
X02188Y0178*
X02184Y01788*
X02178Y01796*
X02172Y01804*
X02166Y01811*
X02159Y01818*
X02152Y01824*
X02144Y01829*
X02136Y01834*
X02127Y01839*
X02118Y01843*
X02109Y01846*
X021Y01849*
X02091Y01851*
X02081Y01852*
X02071Y01853*
X02067Y01853*
X01853Y0203D02*
D01*
X01853Y02018*
X01855Y02005*
X01857Y01993*
X0186Y01981*
X01864Y01969*
X01868Y01958*
X01874Y01947*
X0188Y01936*
X01887Y01926*
X01894Y01916*
X01903Y01907*
X01912Y01898*
X01921Y0189*
X01931Y01883*
X01941Y01877*
X01952Y01871*
X01964Y01866*
X01975Y01862*
X01987Y01858*
X01999Y01856*
X02012Y01854*
X02024Y01853*
X0203Y01853*
X01853Y02067D02*
D01*
X01853Y02076*
X01852Y02086*
X0185Y02095*
X01848Y02105*
X01845Y02114*
X01841Y02123*
X01837Y02131*
X01832Y0214*
X01827Y02148*
X01821Y02155*
X01814Y02162*
X01807Y02169*
X018Y02175*
X01792Y02181*
X01784Y02186*
X01776Y02191*
X01767Y02194*
X01758Y02198*
X01748Y022*
X01739Y02202*
X0173Y02204*
X0172Y02204*
X01715Y02204*
X00489D02*
D01*
X0048Y02204*
X0047Y02203*
X0046Y02201*
X00451Y02199*
X00442Y02196*
X00433Y02193*
X00424Y02188*
X00416Y02184*
X00408Y02178*
X00401Y02172*
X00393Y02166*
X00387Y02159*
X00381Y02152*
X00375Y02144*
X0037Y02136*
X00365Y02127*
X00361Y02118*
X00358Y02109*
X00355Y021*
X00353Y02091*
X00352Y02081*
X00351Y02071*
X00351Y02067*
X00174Y01853D02*
D01*
X00187Y01853*
X00199Y01855*
X00211Y01857*
X00223Y0186*
X00235Y01864*
X00246Y01868*
X00257Y01874*
X00268Y0188*
X00278Y01887*
X00288Y01894*
X00297Y01903*
X00306Y01912*
X00314Y01921*
X00321Y01931*
X00328Y01941*
X00333Y01952*
X00338Y01964*
X00343Y01975*
X00346Y01987*
X00349Y01999*
X0035Y02012*
X00351Y02024*
X00351Y0203*
X00138Y01853D02*
D01*
X00128Y01853*
X00118Y01852*
X00109Y0185*
X001Y01848*
X0009Y01845*
X00082Y01841*
X00073Y01837*
X00065Y01832*
X00057Y01827*
X00049Y01821*
X00042Y01814*
X00035Y01807*
X00029Y018*
X00023Y01792*
X00018Y01784*
X00014Y01776*
X0001Y01767*
X00006Y01758*
X00004Y01748*
X00002Y01739*
X00001Y0173*
X0Y0172*
X0Y01715*
X02204Y00489D02*
Y01715D01*
X00138Y00351D02*
X00174D01*
X00351Y00138D02*
Y00174D01*
X00489Y0D02*
X01715D01*
X01853Y00138D02*
Y00174D01*
X0203Y00351D02*
X02067D01*
X0203Y01853D02*
X02067D01*
X01853Y0203D02*
Y02067D01*
X00489Y02204D02*
X01715D01*
X00351Y0203D02*
Y02067D01*
X00138Y01853D02*
X00174D01*
X0Y00489D02*
Y01715D01*
M02*