%FSTAX23Y23*%
%MOIN*%
%SFA1B1*%

%IPPOS*%
%AMD13*
4,1,8,0.026900,0.008100,-0.026900,0.008100,-0.028900,0.006100,-0.028900,-0.006100,-0.026900,-0.008100,0.026900,-0.008100,0.028900,-0.006100,0.028900,0.006100,0.026900,0.008100,0.0*
1,1,0.004039,0.026900,0.006100*
1,1,0.004039,-0.026900,0.006100*
1,1,0.004039,-0.026900,-0.006100*
1,1,0.004039,0.026900,-0.006100*
%
%AMD14*
4,1,8,-0.012500,0.006200,-0.012500,-0.006200,-0.006200,-0.012500,0.006200,-0.012500,0.012500,-0.006200,0.012500,0.006200,0.006200,0.012500,-0.006200,0.012500,-0.012500,0.006200,0.0*
1,1,0.012504,-0.006200,0.006200*
1,1,0.012504,-0.006200,-0.006200*
1,1,0.012504,0.006200,-0.006200*
1,1,0.012504,0.006200,0.006200*
%
%ADD11R,0.061268X0.059236*%
%ADD12R,0.012000X0.022000*%
G04~CAMADD=13~8~0.0~0.0~578.7~161.4~20.2~0.0~15~0.0~0.0~0.0~0.0~0~0.0~0.0~0.0~0.0~0~0.0~0.0~0.0~0.0~578.7~161.4*
%ADD13D13*%
G04~CAMADD=14~8~0.0~0.0~250.0~250.0~62.5~0.0~15~0.0~0.0~0.0~0.0~0~0.0~0.0~0.0~0.0~0~0.0~0.0~0.0~90.0~250.0~250.0*
%ADD14D14*%
%ADD27C,0.007874*%
%ADD28C,0.010000*%
%ADD29C,0.095669*%
%ADD30R,0.057008X0.057008*%
%ADD31C,0.057008*%
%ADD32C,0.129921*%
%ADD33R,0.062008X0.062008*%
%ADD34C,0.062008*%
%ADD35C,0.039370*%
%ADD36C,0.050000*%
%ADD37C,0.017716*%
%LNnema23-1*%
%LPD*%
G36*
X01612Y02176D02*
Y02022D01*
X01626*
X0181Y01838*
X01812Y0184*
X0209*
Y01838*
X0219Y01738*
X02187Y01735*
Y00446*
X02122Y00381*
X01777*
X01595Y00199*
Y00049*
X00606*
X00596Y00059*
Y0021*
X00382Y00425*
X0003*
Y01742*
X00027Y01744*
Y01749*
X00098Y0182*
X00393*
X00595Y02022*
X00591Y02026*
Y02179*
X01608*
X01612Y02176*
G37*
%LNnema23-2*%
%LPC*%
G36*
X01242Y01193D02*
X01188D01*
X01185Y01192*
X01182Y0119*
X0118Y01188*
X0118Y01185*
Y01173*
X0118Y01169*
X01182Y01167*
X01185Y01165*
X01188Y01165*
X01242*
X01245Y01165*
X01247Y01167*
X01249Y01169*
X0125Y01173*
Y01185*
X01249Y01188*
X01247Y0119*
X01245Y01192*
X01242Y01193*
G37*
G36*
X01404Y01181D02*
X01372D01*
X01367Y0118*
X0133Y01142*
X01181*
X01181Y01142*
X01181Y01142*
X01178Y01141*
X01176Y0114*
X01176Y0114*
X01176Y0114*
X01173Y01136*
X01173Y01136*
X01173Y01136*
X01172Y01134*
X01171Y01132*
X01171Y01132*
X01171Y01132*
X01171Y01095*
X01172Y01093*
X01173Y01091*
X01173Y01091*
X01173Y01091*
X01175Y0109*
X01177Y01089*
X01178Y01088*
X0118Y01084*
X0118Y01082*
Y0107*
X0118Y01067*
X01182Y01063*
X0118Y0106*
X0118Y01057*
Y01045*
X0118Y01042*
X01182Y01038*
X0118Y01034*
X0118Y01031*
Y01019*
X0118Y01016*
X01182Y01013*
X01185Y01012*
X01188Y01011*
X01242*
X01245Y01012*
X01247Y01013*
X01249Y01016*
X0125Y01019*
Y01031*
X01249Y01034*
X01248Y01038*
X01249Y01042*
X0125Y01045*
Y01057*
X01249Y0106*
X01248Y01063*
X01249Y01067*
X0125Y0107*
Y01072*
X01254Y01074*
X01278Y01051*
X01282Y01049*
X01344*
X01345Y01049*
X01349Y0105*
X01351Y01052*
X01352*
Y01053*
X01375Y01076*
X01407*
X01411Y01078*
X01413Y01082*
Y01171*
X01412Y01173*
X01412Y01175*
X01409Y01179*
X01409Y01179*
X01408Y0118*
X01407Y0118*
X01405Y01181*
X01404Y01181*
X01404Y01181*
G37*
G36*
X02099Y01211D02*
X02026D01*
Y01137*
X02099*
Y01211*
G37*
G36*
X00234Y01424D02*
X0022D01*
X00206Y01421*
X00193Y01416*
X00181Y01408*
X00172Y01398*
X00164Y01387*
X00159Y01374*
X00156Y0136*
Y01346*
X00159Y01332*
X00164Y01319*
X00172Y01308*
X00181Y01298*
X00193Y0129*
X00195Y0129*
X00195Y01284*
X0018Y01269*
X00178Y01266*
X00177Y01262*
Y01156*
X00178Y01152*
X0018Y01149*
X00258Y01072*
Y0102*
X00256*
Y00987*
X0028*
Y00993*
X00294*
X00295Y0099*
X00299Y00982*
X00306Y00976*
X00313Y00971*
X00322Y00969*
X00331*
X0034Y00971*
X00348Y00976*
X00354Y00982*
X00359Y0099*
X00361Y00999*
Y01008*
X00359Y01016*
X00354Y01024*
X00348Y01031*
X0034Y01035*
X00331Y01037*
X00322*
X00313Y01035*
X00306Y01031*
X00299Y01024*
X00295Y01016*
X00294Y01013*
X0028*
Y0102*
X00278*
Y01076*
X00277Y0108*
X00275Y01083*
X00198Y0116*
Y01258*
X00208Y01268*
X00258*
X00258Y01268*
Y01259*
X00256*
Y01225*
X0028*
Y01232*
X00292*
Y01209*
X00361*
Y01277*
X00365Y0128*
X00556*
X00679Y01157*
X00677Y01153*
X0047*
X00466Y01152*
X00463Y0115*
X00457Y01144*
X00455Y01141*
X00453Y01139*
X00443*
Y01133*
X0043*
X00429Y01136*
X00424Y01144*
X00418Y01151*
X0041Y01155*
X00401Y01157*
X00392*
X00383Y01155*
X00376Y01151*
X00369Y01144*
X00365Y01136*
X00362Y01128*
Y01124*
X00357Y01122*
X00351Y01128*
X00349Y0113*
X00348Y01134*
X00348Y01136*
X00354Y01142*
X00359Y0115*
X00361Y01159*
Y01168*
X00359Y01176*
X00354Y01184*
X00348Y01191*
X0034Y01195*
X00331Y01197*
X00322*
X00313Y01195*
X00306Y01191*
X00299Y01184*
X00295Y01176*
X00294Y01173*
X00281*
Y01181*
X00257*
Y01147*
X00267*
X00299Y01114*
X00303Y01112*
X00306Y01111*
X0034*
X00377Y01074*
X0038Y01072*
X00384Y01071*
X00425*
X00429Y01072*
X00432Y01074*
X00449Y01091*
X00956*
X00956Y0109*
X00959Y01088*
X00962Y01088*
X01016*
X01019Y01088*
X01022Y0109*
X01023Y01093*
X01024Y01096*
Y01108*
X01023Y01111*
X01022Y01114*
Y01116*
X01023Y01118*
X01024Y01121*
Y01134*
X01023Y01137*
X01022Y0114*
X01023Y01144*
X01024Y01147*
Y01159*
X01023Y01162*
X01022Y01166*
X01023Y01169*
X01024Y01173*
Y01185*
X01023Y01188*
X01022Y0119*
X01019Y01192*
X01016Y01193*
X00962*
X00959Y01192*
X00956Y0119*
X00955Y01189*
X0071*
X00588Y01311*
X00585Y01313*
X00581Y01313*
X00291*
X00288Y01318*
X00289Y01319*
X00295Y01332*
X00298Y01346*
Y0136*
X00295Y01374*
X00289Y01387*
X00282Y01398*
X00272Y01408*
X0026Y01416*
X00247Y01421*
X00234Y01424*
G37*
G36*
X01016Y01065D02*
X00962D01*
X00959Y01064*
X00956Y01062*
X00954Y0106*
X00954Y01057*
Y01045*
X00954Y01042*
X00956Y01038*
X00954Y01034*
X00954Y01031*
Y01019*
X00954Y01016*
X00956Y01013*
X00959Y01012*
X00962Y01011*
X01016*
X01019Y01012*
X01022Y01013*
X01023Y01016*
X01024Y01019*
Y01031*
X01023Y01034*
X01022Y01038*
X01023Y01042*
X01024Y01045*
Y01057*
X01023Y0106*
X01022Y01062*
X01019Y01064*
X01016Y01065*
G37*
G36*
X00234Y00924D02*
X0022D01*
X00206Y00921*
X00193Y00916*
X00181Y00908*
X00172Y00898*
X00164Y00887*
X00159Y00874*
X00156Y0086*
Y00846*
X00159Y00832*
X00164Y00819*
X00172Y00808*
X00181Y00798*
X00193Y0079*
X00206Y00785*
X0022Y00782*
X00234*
X00247Y00785*
X0026Y0079*
X00272Y00798*
X00282Y00808*
X00289Y00819*
X00295Y00832*
X00298Y00846*
Y0086*
X00295Y00874*
X00289Y00887*
X00282Y00898*
X00272Y00908*
X0026Y00916*
X00247Y00921*
X00234Y00924*
G37*
%LNnema23-3*%
%LPD*%
G36*
X01407Y01171D02*
Y01082D01*
X01372*
X01345Y01055*
X01344Y01055*
X01282*
X01242Y01095*
X01177*
X01177Y01132*
X01181Y01135*
X0133*
X01331Y01134*
X01372Y01175*
X01404*
X01407Y01171*
G37*
G36*
X00878Y01131D02*
Y0112D01*
X00879Y01116*
X00877Y01113*
X00876Y01111*
X00467*
Y01125*
X00471Y01129*
X00473Y01132*
X00474Y01133*
X00876*
X00878Y01131*
G37*
G54D11*
X01315Y01017D03*
Y01088D03*
G54D12*
X00268Y01242D03*
X00243D03*
X00269Y01164D03*
X00244D03*
X00455Y01122D03*
X0048D03*
X00268Y01003D03*
X00243D03*
G54D13*
X00989Y01179D03*
Y01153D03*
Y01127D03*
Y01102D03*
Y01076D03*
Y01051D03*
Y01025D03*
X01215D03*
Y01051D03*
Y01076D03*
Y01102D03*
Y01127D03*
Y01153D03*
Y01179D03*
G54D14*
X00897Y01126D03*
X00932D03*
G54D27*
X00706Y01179D02*
X00989D01*
X00581Y01303D02*
X00706Y01179D01*
X00283Y01303D02*
X00581D01*
X00258Y01278D02*
X00283Y01303D01*
X00204Y01278D02*
X00258D01*
X00187Y01262D02*
X00204Y01278D01*
X00187Y01156D02*
Y01262D01*
Y01156D02*
X00268Y01076D01*
Y01003D02*
Y01076D01*
X00561Y0129D02*
X00694Y01157D01*
X00985*
X00289Y0129D02*
X00561D01*
X00268Y01242D02*
Y0127D01*
X00289Y0129*
X00425Y01081D02*
X00445Y01101D01*
X00344Y01121D02*
X00384Y01081D01*
X00425*
X00269Y01159D02*
Y01164D01*
X00306Y01121D02*
X00344D01*
X00269Y01159D02*
X00306Y01121D01*
X00988Y01101D02*
X00989Y01102D01*
X00445Y01101D02*
X00988D01*
X00985Y01157D02*
X00989Y01153D01*
X00897Y01126D02*
D01*
X0088Y01143D02*
X00897Y01126D01*
X0047Y01143D02*
X0088D01*
X00464Y01137D02*
X0047Y01143D01*
X00464Y01136D02*
Y01137D01*
X00455Y01127D02*
X00464Y01136D01*
X00455Y01122D02*
Y01127D01*
X00988Y01127D02*
X00989Y01127D01*
X00932Y01127D02*
X00988D01*
X00932Y01126D02*
X00932Y01127D01*
X00455Y01122D02*
X00455Y01122D01*
X00397Y01122D02*
X00455D01*
X00397Y01123D02*
X00397Y01122D01*
X00268Y01003D02*
X00268Y01003D01*
X00326*
X00327Y01003*
X00269Y01164D02*
X0027Y01163D01*
X00326*
X00327Y01163*
X00268Y01242D02*
X00325D01*
X00327Y01243*
G54D28*
X0127Y01164D02*
X01272D01*
X01259Y01153D02*
X0127Y01164D01*
X01215Y01153D02*
X01259D01*
X00207Y01003D02*
X00207Y01003D01*
X00243*
X00243Y01003*
X00206Y0124D02*
X00207Y01241D01*
X00243*
X00243Y01242*
X00207Y01164D02*
X00244D01*
X00517Y01121D02*
X00518Y01121D01*
X00481Y01121D02*
X00517D01*
X0048Y01122D02*
X00481Y01121D01*
G54D29*
X00362Y01423D03*
Y00783D03*
G54D30*
X00327Y01243D03*
G54D31*
X00397Y01203D03*
X00327Y01163D03*
X00397Y01123D03*
X00327Y01083D03*
X00397Y01043D03*
X00327Y01003D03*
X00397Y00963D03*
G54D32*
X00227Y01353D03*
Y00853D03*
G54D33*
X02062Y01174D03*
G54D34*
X02062Y01075D03*
G54D35*
X01715Y00138D03*
X01715Y02067D03*
X00489Y00137D03*
X00489Y02067D03*
G54D36*
X01574Y01968D03*
X01771Y01574D03*
Y00787D03*
X01574Y00393D03*
X01181Y01968D03*
X01377Y01574D03*
Y00787D03*
X01181Y00393D03*
X00787Y01968D03*
X00984Y01574D03*
Y00787D03*
X00787Y00393D03*
X0059Y01574D03*
Y00787D03*
G54D37*
X01358Y00938D03*
X01322Y00938D03*
X01286Y00939D03*
X00518Y01121D03*
X00207Y01003D03*
Y01164D03*
X00206Y0124D03*
X00932Y01076D03*
X01272Y01164D03*
X01388Y01158D03*
X01389Y0113D03*
Y01101D03*
M02*