%FSTAX23Y23*%
%MOIN*%
%SFA1B1*%

%IPPOS*%
%ADD27C,0.007874*%
%ADD49C,0.006000*%
%LNnema23-1*%
%LPD*%
G36*
X00286Y01263D02*
Y01221D01*
Y01219*
X00225*
Y01221*
Y01263*
Y01265*
X00286*
Y01263*
G37*
G36*
X00287Y01185D02*
Y01143D01*
Y01141*
X00226*
Y01143*
Y01185*
Y01187*
X00287*
Y01185*
G37*
G36*
X00498Y01143D02*
Y01101D01*
Y01099*
X00437*
Y01101*
Y01143*
Y01145*
X00498*
Y01143*
G37*
G36*
X00286Y01024D02*
Y00982D01*
Y0098*
X00225*
Y00982*
Y01024*
Y01026*
X00286*
Y01024*
G37*
G54D27*
X01265Y01137D02*
X01366D01*
X01265Y00967D02*
Y01137D01*
Y00967D02*
X01366D01*
Y01137*
G54D49*
X00286Y01221D02*
Y01263D01*
X00225Y01221D02*
Y01263D01*
X00286D02*
Y01265D01*
Y01219D02*
Y01221D01*
X00225Y01219D02*
X00286D01*
X00225D02*
Y01221D01*
Y01263D02*
Y01265D01*
X00286*
X00287Y01143D02*
Y01185D01*
X00226Y01143D02*
Y01185D01*
X00287D02*
Y01187D01*
Y01141D02*
Y01143D01*
X00226Y01141D02*
X00287D01*
X00226D02*
Y01143D01*
Y01185D02*
Y01187D01*
X00287*
X00437Y01101D02*
Y01143D01*
X00498Y01101D02*
Y01143D01*
X00437Y01099D02*
Y01101D01*
Y01143D02*
Y01145D01*
X00498*
Y01143D02*
Y01145D01*
Y01099D02*
Y01101D01*
X00437Y01099D02*
X00498D01*
X00286Y00982D02*
Y01024D01*
X00225Y00982D02*
Y01024D01*
X00286D02*
Y01026D01*
Y0098D02*
Y00982D01*
X00225Y0098D02*
X00286D01*
X00225D02*
Y00982D01*
Y01024D02*
Y01026D01*
X00286*
M02*