%FSTAX23Y23*%
%MOIN*%
%SFA1B1*%

%IPPOS*%
%LNnema24-1*%
%LPD*%
G36*
X00727Y00269D02*
X00728D01*
Y00266*
X00729*
Y00264*
X00728*
Y00263*
X00725*
Y00262*
X00723*
Y00261*
X00722*
Y0026*
X0072*
Y00259*
X00718*
Y00257*
X00717*
Y00256*
X00716*
Y00255*
X00715*
Y00253*
X00714*
Y00251*
X00713*
Y00246*
X00712*
Y00243*
X00703*
Y00246*
X00704*
Y00252*
X00706*
Y00253*
Y00255*
X00707*
Y00257*
X00708*
Y00259*
X00709*
Y0026*
X0071*
Y00261*
X00711*
Y00262*
X00712*
Y00264*
X00714*
Y00266*
X00715*
Y00267*
X00716*
Y00268*
X00718*
Y00269*
X00719*
Y0027*
X00722*
Y00271*
X00725*
Y00272*
X00727*
Y00269*
G37*
G36*
X00724Y00278D02*
X00725D01*
Y00275*
X00724*
Y00274*
X0072*
Y00273*
X00718*
Y00272*
X00716*
Y00271*
X00715*
Y0027*
X00713*
Y00269*
X00712*
Y00268*
X00711*
Y00267*
X0071*
Y00266*
X00709*
Y00264*
X00708*
Y00263*
X00707*
Y00262*
X00706*
Y0026*
X00704*
Y00259*
X00703*
Y00257*
X00702*
Y00254*
X00701*
Y00251*
X007*
Y00243*
X00695*
Y00251*
Y00252*
X00696*
Y00255*
X00697*
Y00258*
X00698*
Y0026*
X00699*
Y00262*
X007*
Y00263*
X00701*
Y00266*
X00702*
Y00267*
X00703*
Y00268*
X00704*
Y00269*
X00706*
Y0027*
X00707*
Y00271*
X00708*
Y00272*
X00709*
Y00273*
X0071*
Y00274*
X00712*
Y00275*
X00713*
Y00276*
X00715*
Y00277*
X00718*
Y00278*
X0072*
Y00279*
X00724*
Y00278*
G37*
G36*
X00972Y00259D02*
X00978D01*
Y00258*
X0098*
Y00257*
X00982*
Y00256*
X00983*
Y00255*
X00984*
Y00254*
X00985*
Y00253*
X00986*
Y00251*
X00987*
Y00245*
X00988*
Y0021*
X00987*
Y00205*
X00986*
Y00203*
X00985*
Y002*
X00984*
Y00199*
X00983*
Y00198*
X00981*
Y00197*
X00979*
Y00196*
X00974*
Y00195*
X00894*
Y00211*
X00895*
Y0021*
X00969*
Y00211*
X00971*
Y00244*
X00894*
Y0026*
X00972*
Y00259*
G37*
G36*
X00878Y00258D02*
X00879D01*
Y00227*
X00888*
Y0024*
X00889*
Y00227*
X0089*
Y00228*
X00892*
Y00229*
X00894*
Y0023*
X00896*
Y00231*
X00899*
Y00232*
X009*
Y00234*
X00903*
Y00235*
X00905*
Y00236*
X00906*
Y00237*
X00909*
Y00238*
X0091*
Y00239*
X00912*
Y0024*
X00915*
Y00227*
X00924*
Y00228*
X00925*
Y00232*
X00967*
Y00222*
X00925*
Y00226*
X00915*
Y00214*
X00912*
Y00215*
X0091*
Y00216*
X00908*
Y00218*
X00906*
Y00219*
X00904*
Y0022*
X00902*
Y00221*
X009*
Y00222*
X00898*
Y00223*
X00895*
Y00224*
X00893*
Y00225*
X00891*
Y00226*
X00889*
Y00213*
X00888*
Y00226*
X00879*
Y00194*
X00863*
Y00243*
X00859*
Y00242*
X00857*
Y00241*
X00856*
Y0024*
X00855*
Y00239*
X00854*
Y00238*
X00853*
Y00237*
X00852*
Y00236*
X00851*
Y00235*
X0085*
Y00234*
X00848*
Y00231*
X00847*
Y0023*
X00846*
Y00229*
X00845*
Y00228*
X00844*
Y00227*
X00843*
Y00226*
X00842*
Y00224*
X00841*
Y00223*
X0084*
Y00222*
X00839*
Y00221*
X00838*
Y0022*
X00837*
Y00219*
X00836*
Y00216*
X00835*
Y00215*
X00834*
Y00214*
X00832*
Y00213*
X00831*
Y00212*
X0083*
Y00211*
X00829*
Y00209*
X00828*
Y00208*
X00827*
Y00207*
X00826*
Y00206*
X00825*
Y00205*
X00824*
Y00204*
X00823*
Y00202*
X00822*
Y002*
X0082*
Y00199*
X00819*
Y00198*
X00818*
Y00197*
X00815*
Y00196*
X00813*
Y00195*
X0081*
Y00194*
X00787*
Y00259*
X00803*
Y00209*
X00805*
Y0021*
X00808*
Y00211*
X00809*
Y00212*
X00811*
Y00213*
X00812*
Y00214*
X00813*
Y00216*
X00814*
Y00218*
X00815*
Y00219*
X00816*
Y0022*
X00818*
Y00221*
X00819*
Y00222*
X0082*
Y00223*
X00821*
Y00225*
X00822*
Y00226*
X00823*
Y00227*
X00824*
Y00228*
X00825*
Y00229*
X00826*
Y0023*
X00827*
Y00231*
X00828*
Y00234*
X00829*
Y00235*
X0083*
Y00236*
X00831*
Y00237*
X00832*
Y00238*
X00834*
Y00239*
X00835*
Y0024*
X00836*
Y00242*
X00837*
Y00243*
X00838*
Y00244*
X00839*
Y00245*
X0084*
Y00246*
X00841*
Y00247*
X00842*
Y0025*
X00843*
Y00251*
X00844*
Y00252*
X00845*
Y00253*
X00846*
Y00254*
X00848*
Y00255*
X0085*
Y00256*
X00852*
Y00257*
X00855*
Y00258*
X0086*
Y00259*
X00878*
Y00258*
G37*
G36*
X00663D02*
X0067D01*
Y00257*
X00672*
Y00256*
X00675*
Y00255*
X00676*
Y00254*
X00677*
Y00253*
X00678*
Y00252*
X00679*
Y0025*
X0068*
Y00244*
X00681*
Y00208*
X0068*
Y00204*
X00679*
Y00202*
X00678*
Y00199*
X00677*
Y00198*
X00676*
Y00197*
X00674*
Y00196*
X00671*
Y00195*
X00668*
Y00194*
X00587*
Y00209*
X00663*
Y0021*
X00664*
Y00242*
X00663*
Y00243*
X00587*
Y00259*
X00663*
Y00258*
G37*
G36*
X0073Y0026D02*
X00731D01*
Y00257*
X00775*
Y00241*
X00738*
Y00192*
X00722*
Y00213*
Y00214*
Y00243*
X00716*
Y0025*
X00717*
Y00252*
X00718*
Y00254*
X00719*
Y00255*
X0072*
Y00256*
X00722*
Y00257*
X00723*
Y00258*
X00724*
Y00259*
X00726*
Y0026*
X00728*
Y00261*
X0073*
Y0026*
G37*
G36*
X00915Y00178D02*
X00911D01*
Y00179*
X00915*
Y00178*
G37*
G36*
X00749D02*
X00746D01*
Y00179*
X00749*
Y00178*
G37*
G36*
X0072D02*
X00718D01*
Y00179*
X0072*
Y00178*
G37*
G36*
X00653D02*
X0065D01*
Y00179*
X00653*
Y00178*
G37*
G36*
X00611D02*
X00607D01*
Y00179*
X00611*
Y00178*
G37*
G36*
X00948Y00177D02*
X00957D01*
Y00175*
X00958*
Y00176*
X00959*
Y00177*
X00967*
Y00176*
X00968*
Y00171*
X00967*
Y0017*
X00959*
Y00172*
X00966*
Y00173*
X00959*
Y00174*
X00958*
Y00172*
X00957*
Y0017*
X00949*
Y00172*
X00955*
Y00175*
X00948*
Y0017*
X00946*
Y00171*
X00944*
Y00174*
X00946*
Y00175*
X00943*
Y0017*
X0094*
Y00175*
X00937*
Y00177*
X00942*
Y00176*
X00943*
Y00177*
X00944*
Y00178*
X00946*
Y00179*
X00948*
Y00177*
G37*
G36*
X00611Y0017D02*
X00608D01*
Y00171*
X00607*
Y0017*
X00604*
Y00175*
X006*
Y0017*
X00597*
Y00175*
X00598*
Y00177*
X00607*
Y00176*
X00608*
Y00177*
X00611*
Y0017*
G37*
G36*
X00828Y00176D02*
X00829D01*
Y00171*
X00828*
Y0017*
X00821*
Y00172*
X00827*
Y00173*
X00821*
Y00174*
X0082*
Y00172*
X00819*
Y0017*
X0081*
Y00172*
X00809*
Y0017*
X008*
Y00171*
X00799*
Y00176*
X008*
Y00177*
X00809*
Y00175*
X0081*
Y00172*
X00816*
Y00175*
X0081*
Y00177*
X00819*
Y00175*
X0082*
Y00176*
X00821*
Y00177*
X00828*
Y00176*
G37*
G36*
X00716D02*
X00717D01*
Y00171*
X00716*
Y0017*
X00709*
Y00171*
X00708*
Y00172*
X00707*
Y0017*
X00703*
Y00175*
X00699*
Y0017*
X00696*
Y00176*
X00697*
Y00177*
X00707*
Y00175*
X00708*
Y00177*
X00716*
Y00176*
G37*
G36*
X00675Y0017D02*
X00671D01*
Y00175*
X00667*
Y0017*
X00665*
Y00171*
X00664*
Y00172*
X00663*
Y00171*
X00656*
Y0017*
X00663*
Y00167*
X00654*
Y0017*
X00653*
Y00171*
X00652*
Y0017*
X0065*
Y00177*
X00652*
Y00176*
X00654*
Y00177*
X00663*
Y00176*
X00664*
Y00175*
X00665*
Y00177*
X00675*
Y0017*
G37*
G36*
X00771Y00176D02*
Y00175D01*
Y00171*
X0077*
Y0017*
X00762*
Y00171*
X00761*
Y00177*
X00764*
Y00172*
X00768*
Y00177*
X00771*
Y00176*
G37*
G36*
X00986Y00178D02*
X00987D01*
Y00172*
X00986*
Y0017*
X00969*
Y00179*
X00986*
Y00178*
G37*
G36*
X00935Y00176D02*
X00936D01*
Y00171*
X00935*
Y0017*
X00927*
Y00171*
X00926*
Y00172*
Y00173*
Y00176*
X00927*
Y00177*
X00935*
Y00176*
G37*
G36*
X00925Y0017D02*
X00923D01*
Y00175*
X00919*
Y00171*
X00918*
Y0017*
X00916*
Y00176*
X00917*
Y00177*
X00925*
Y0017*
G37*
G36*
X00915D02*
X00911D01*
Y00177*
X00915*
Y0017*
G37*
G36*
X0091Y00176D02*
Y00175D01*
Y00171*
X00909*
Y0017*
X00902*
Y00172*
X00908*
Y00175*
X00902*
Y00177*
X0091*
Y00176*
G37*
G36*
X00895Y00175D02*
X00889D01*
Y00174*
X00895*
Y00171*
X00894*
Y0017*
X00887*
Y00171*
X00886*
Y00174*
Y00175*
Y00176*
X00887*
Y00177*
X00895*
Y00175*
G37*
G36*
X00885Y0017D02*
X00883D01*
Y00175*
X00878*
Y00174*
Y0017*
X00875*
Y00176*
X00876*
Y00177*
X00885*
Y0017*
G37*
G36*
X00867Y00177D02*
X00873D01*
Y00176*
X00874*
Y00171*
X00873*
Y0017*
X00866*
Y00171*
X00864*
Y00179*
X00867*
Y00177*
G37*
G36*
X00857D02*
X00852D01*
Y0017*
X0085*
Y00171*
X00848*
Y00177*
X00843*
Y00179*
X00857*
Y00177*
G37*
G36*
X00834Y00175D02*
X00835D01*
Y00177*
X00842*
Y00176*
X00843*
Y00171*
X00842*
Y0017*
X00835*
Y00172*
X00841*
Y00173*
X00835*
Y00174*
X00834*
Y00171*
X00832*
Y0017*
X0083*
Y00172*
Y00173*
Y00179*
X00834*
Y00175*
G37*
G36*
X00798Y0017D02*
X00796D01*
Y00175*
X00794*
Y0017*
X00791*
Y00175*
X00789*
Y0017*
X00786*
Y00176*
X00787*
Y00177*
X00798*
Y0017*
G37*
G36*
X00784D02*
X00782D01*
Y00171*
Y00175*
X00779*
Y0017*
X00777*
Y00175*
X00775*
Y0017*
X00772*
Y00176*
X00773*
Y00177*
X00784*
Y0017*
G37*
G36*
X0076D02*
X00758D01*
Y00175*
X00752*
Y0017*
X0075*
Y00173*
Y00174*
Y00176*
X00751*
Y00177*
X0076*
Y0017*
G37*
G36*
X00725Y00177D02*
X00727D01*
Y00176*
X00728*
Y00177*
X00745*
Y00175*
X00746*
Y00172*
X00747*
Y00175*
X00746*
Y00176*
X00747*
Y00177*
X00749*
Y0017*
X00747*
Y00171*
X00746*
Y00172*
X00745*
Y0017*
X00736*
Y00171*
X00735*
Y0017*
X00728*
Y00171*
X00727*
Y00175*
X00725*
Y0017*
X00723*
Y00175*
X00722*
Y00177*
X00723*
Y00179*
X00725*
Y00177*
G37*
G36*
X0072Y0017D02*
X00718D01*
Y00171*
Y00172*
Y00177*
X0072*
Y0017*
G37*
G36*
X00688Y00178D02*
X0069D01*
Y00171*
X00688*
Y0017*
X00676*
Y00172*
X00686*
Y00173*
X00676*
Y00176*
X00686*
Y00177*
X00676*
Y00179*
X00688*
Y00178*
G37*
G36*
X00649Y0017D02*
X00647D01*
Y00175*
X00642*
Y0017*
X00639*
Y00173*
Y00174*
Y00176*
X0064*
Y00177*
X00649*
Y0017*
G37*
G36*
X00637Y00176D02*
X00638D01*
Y00171*
X00637*
Y0017*
X00629*
Y00172*
X00635*
Y00173*
X00629*
Y00176*
X0063*
Y00177*
X00637*
Y00176*
G37*
G36*
X00627D02*
X00628D01*
Y00171*
X00627*
Y0017*
X00619*
Y00172*
X00626*
Y00173*
X00619*
Y00174*
X00618*
Y00176*
X00619*
Y00177*
X00627*
Y00176*
G37*
G36*
X00617Y0017D02*
X00615D01*
Y00175*
X00612*
Y00176*
Y00177*
X00617*
Y0017*
G37*
G36*
X00596Y00171D02*
X00589D01*
Y0017*
X00596*
Y00167*
X00587*
Y00168*
X00586*
Y00176*
X00587*
Y00177*
X00596*
Y00171*
G37*
G36*
X00819Y0014D02*
X00819Y0014D01*
X0082Y0014*
X00821Y00139*
X00821Y00139*
X00822Y00139*
X00822Y00139*
X00823Y00139*
X00823Y00139*
X00823Y00139*
X00823Y00138*
X00824Y00138*
X00824Y00138*
X00824Y00138*
X00824Y00138*
X00825Y00137*
X00826Y00137*
X00826Y00136*
X00827Y00135*
X00827Y00135*
X00827Y00134*
X00827Y00134*
X00827Y00134*
X00827Y00134*
X00827Y00134*
Y00134*
X00822Y00133*
X00821Y00134*
X00821Y00134*
X00821Y00134*
X00821Y00134*
X00821Y00135*
X00821Y00135*
X0082Y00135*
X0082Y00135*
X0082Y00135*
X0082Y00135*
X00819Y00135*
X00819Y00135*
X00818Y00136*
X00818Y00136*
X00818*
X00817Y00136*
X00817Y00135*
X00816Y00135*
X00816Y00135*
X00816Y00135*
X00816Y00135*
X00816Y00135*
X00816Y00135*
X00815Y00135*
X00815Y00134*
X00815Y00134*
X00815Y00134*
X00815Y00134*
X00815Y00133*
Y00133*
Y00133*
Y00133*
X00815Y00133*
X00815Y00132*
X00815Y00132*
X00815Y00132*
X00815Y00131*
Y00131*
X00815Y00131*
X00816Y00131*
X00816Y00131*
X00817Y00131*
X00818Y00131*
X00819Y00131*
X00819Y00131*
X0082Y00131*
X0082Y00131*
X0082Y00131*
X00821Y00131*
X00821*
X00822Y0013*
X00823Y0013*
X00823Y0013*
X00824Y0013*
X00825Y0013*
X00825Y0013*
X00826Y00129*
X00826Y00129*
X00827Y00129*
X00827Y00129*
X00827Y00129*
X00827Y00129*
X00828Y00128*
X00828Y00128*
X00828Y00128*
X00828Y00128*
X00828Y00128*
X00828Y00127*
X00829Y00127*
X00829Y00127*
X00829Y00126*
X00829Y00125*
X0083Y00124*
X0083Y00124*
X0083Y00124*
X0083Y00124*
Y00123*
Y00123*
Y00123*
X0083Y00123*
X0083Y00122*
X00829Y00121*
X00829Y00121*
X00829Y0012*
X00828Y00119*
X00828Y00119*
X00828Y00119*
X00828Y00119*
X00828Y00119*
Y00119*
X00828Y00118*
X00827Y00118*
X00826Y00118*
X00826Y00117*
X00825Y00117*
X00824Y00117*
X00824Y00117*
X00824*
X00824Y00117*
X00823*
X00823Y00117*
X00822Y00117*
X00822Y00117*
X00821Y00117*
X00821Y00117*
X0082Y00117*
X0082Y00118*
X0082Y00118*
X00819Y00118*
X00819Y00118*
X00818Y00119*
X00818Y00119*
X00818Y00119*
X00817Y0012*
X00817Y0012*
X00817Y0012*
X00817Y00119*
X00817Y00118*
X00817Y00118*
X00817Y00118*
X00817Y00118*
X00817Y00117*
Y00117*
X00811*
X00811Y00118*
X00811Y00119*
X00811Y00119*
X00811Y0012*
X00811Y0012*
X00811Y0012*
Y0012*
Y0012*
Y00121*
X00811Y00121*
X00811Y00122*
X00811Y00123*
X00811Y00124*
X00811Y00125*
X00811Y00125*
X00811Y00125*
X00811Y00126*
X00811Y00126*
X0081Y00126*
Y00126*
X0081Y00127*
X0081Y00128*
X0081Y00128*
X0081Y00129*
X0081Y00129*
X0081Y0013*
X0081Y0013*
X00809Y00131*
X00809Y00131*
X00809Y00131*
X00809Y00131*
X00809Y00132*
Y00132*
X00809Y00132*
Y00132*
X00809Y00133*
X00809Y00133*
Y00133*
X00809Y00134*
Y00134*
Y00134*
Y00134*
X00809Y00134*
X00809Y00135*
X00809Y00136*
X0081Y00136*
X0081Y00137*
X0081Y00137*
X00811Y00138*
X00811Y00138*
X00811Y00138*
X00811*
X00812Y00138*
X00812Y00139*
X00813Y00139*
X00814Y00139*
X00815Y0014*
X00815Y0014*
X00816Y0014*
X00816Y0014*
X00817*
X00817Y0014*
X00818*
X00819Y0014*
G37*
G36*
X00722Y00129D02*
X00732Y00117D01*
X00724*
X00719Y00123*
X00716Y00117*
X0071*
X00715Y00128*
X00705Y00139*
X00712*
X00718Y00133*
X00721Y00139*
X00727*
X00722Y00129*
G37*
G36*
X00926Y00117D02*
X0092D01*
X00916Y00138*
X00908Y00117*
X00902*
X00896Y00148*
X00901*
X00906Y00127*
X00914Y00148*
X0092*
X00926Y00117*
G37*
G36*
X00783D02*
X00777D01*
X00773Y00138*
X00765Y00117*
X00759*
X00752Y00148*
X00758*
X00763Y00127*
X00771Y00148*
X00777*
X00783Y00117*
G37*
G36*
X00884Y0014D02*
X00885Y0014D01*
X00886Y00139*
X00887Y00139*
X00888Y00139*
X00889Y00138*
X00889Y00138*
X0089Y00137*
X0089Y00137*
X00891Y00137*
X00891Y00136*
X00892Y00136*
X00892Y00135*
X00892Y00135*
X00892Y00135*
X00892Y00135*
X00893Y00134*
X00893Y00134*
X00893Y00133*
X00894Y00132*
X00894Y00132*
X00894Y00131*
X00894Y0013*
X00895Y0013*
X00895Y00129*
X00895Y00129*
X00895Y00128*
X00895Y00128*
X00895Y00127*
Y00127*
Y00127*
Y00127*
X00895Y00126*
X00895Y00125*
X00895Y00125*
X00894Y00124*
X00894Y00123*
X00894Y00123*
X00894Y00122*
X00893Y00122*
X00893Y00121*
X00893Y00121*
X00893Y0012*
X00893Y0012*
X00892Y0012*
X00892Y0012*
X00892Y0012*
X00892Y0012*
X00892Y00119*
X00891Y00119*
X0089Y00118*
X0089Y00118*
X00889Y00118*
X00889Y00117*
X00888Y00117*
X00887Y00117*
X00887Y00117*
X00886Y00117*
X00886Y00117*
X00886Y00117*
X00885Y00117*
X00885*
X00884Y00117*
X00883Y00117*
X00882Y00117*
X00881Y00118*
X0088Y00118*
X0088Y00118*
X0088Y00118*
X0088Y00118*
X00879Y00118*
X00879Y00118*
X00879Y00118*
X00879*
X00878Y00119*
X00877Y0012*
X00877Y00121*
X00876Y00121*
X00876Y00122*
X00875Y00122*
X00875Y00123*
X00875Y00123*
X00875Y00123*
X00875Y00123*
Y00123*
X0088Y00124*
X00881Y00124*
X00881Y00123*
X00881Y00123*
X00882Y00122*
X00882Y00122*
X00882Y00122*
X00883Y00122*
X00883Y00121*
X00884Y00121*
X00884Y00121*
X00884Y00121*
X00885*
X00885Y00121*
X00885*
X00886Y00121*
X00886Y00121*
X00887Y00122*
X00887Y00122*
X00887Y00122*
X00888Y00122*
X00888Y00122*
X00888Y00122*
X00888Y00123*
X00889Y00124*
X00889Y00124*
X00889Y00125*
X00889Y00125*
X00889Y00126*
X00889Y00126*
Y00126*
Y00126*
Y00126*
Y00126*
X00889Y00126*
Y00126*
Y00126*
X00874*
X00874Y00127*
X00874Y00128*
X00874Y00128*
X00874Y00129*
Y0013*
X00874Y0013*
Y0013*
Y0013*
Y0013*
Y0013*
X00874Y00131*
X00874Y00132*
X00874Y00133*
X00874Y00133*
X00874Y00134*
X00875Y00135*
X00875Y00135*
X00875Y00135*
X00875Y00136*
X00876Y00136*
X00876Y00137*
X00876Y00137*
X00876Y00137*
X00876Y00137*
X00876Y00137*
X00876Y00137*
X00877Y00138*
X00877Y00138*
X00878Y00138*
X00878Y00139*
X00879Y00139*
X00879Y00139*
X0088Y0014*
X00881Y0014*
X00881Y0014*
X00882Y0014*
X00882Y0014*
X00882Y0014*
X00883*
X00884Y0014*
G37*
G36*
X0087Y00127D02*
X0087Y00126D01*
X0087Y00126*
X0087Y00125*
X00871Y00125*
X00871Y00124*
X00871Y00124*
X00871Y00124*
X00871Y00124*
Y00123*
X00871Y00123*
X00871Y00123*
Y00123*
Y00123*
X00871Y00122*
X00871Y00121*
X0087Y0012*
X0087Y00119*
X0087Y00119*
X0087Y00119*
X0087Y00118*
X00869Y00118*
X00869Y00118*
X00868Y00117*
X00868Y00117*
X00867Y00117*
X00866Y00117*
X00866Y00117*
X00866Y00117*
X00866*
X00865Y00117*
X00864Y00117*
X00863Y00117*
X00863Y00117*
X00862Y00118*
X00861Y00118*
X00861Y00118*
X0086Y00119*
X0086Y00119*
X0086Y00119*
X00859Y00119*
X00859Y0012*
X00859Y0012*
X00858Y0012*
X00858Y0012*
X00858Y0012*
X00859Y00117*
X00853*
X00848Y00139*
X00854*
X00857Y00129*
X00857Y00128*
X00857Y00128*
X00857Y00127*
X00857Y00127*
X00857Y00126*
X00857Y00126*
X00857Y00126*
Y00126*
X00858Y00125*
X00858Y00125*
X00858Y00125*
X00858Y00124*
X00858Y00124*
X00858Y00124*
X00859Y00124*
X00859Y00124*
X00859Y00123*
X00859Y00123*
X0086Y00123*
X0086Y00122*
X0086Y00122*
X0086Y00122*
X0086Y00122*
X00861Y00122*
X00861Y00121*
X00861Y00121*
X00861Y00121*
X00861*
X00862Y00121*
X00862Y00121*
X00862Y00121*
X00863*
X00863Y00121*
X00863Y00121*
X00864Y00121*
X00864Y00121*
X00864Y00122*
X00864Y00122*
X00864Y00122*
X00864Y00122*
X00864Y00122*
X00865Y00122*
X00865Y00123*
X00865Y00123*
X00865Y00123*
X00865Y00123*
Y00123*
Y00123*
Y00123*
X00865Y00124*
X00865Y00124*
X00865Y00125*
X00865Y00125*
X00865Y00126*
X00864Y00126*
X00864Y00126*
Y00126*
X00864Y00126*
Y00126*
X00861Y00139*
X00867*
X0087Y00127*
G37*
G36*
X00741Y0014D02*
X00742Y0014D01*
X00743Y00139*
X00744Y00139*
X00745Y00139*
X00745Y00138*
X00746Y00138*
X00747Y00137*
X00747Y00137*
X00748Y00137*
X00748Y00136*
X00749Y00136*
X00749Y00135*
X00749Y00135*
X00749Y00135*
X00749Y00135*
X0075Y00134*
X0075Y00134*
X0075Y00133*
X00751Y00132*
X00751Y00132*
X00751Y00131*
X00751Y0013*
X00751Y0013*
X00752Y00129*
X00752Y00129*
X00752Y00128*
X00752Y00128*
X00752Y00127*
Y00127*
Y00127*
Y00127*
X00752Y00126*
X00752Y00125*
X00752Y00125*
X00751Y00124*
X00751Y00123*
X00751Y00123*
X00751Y00122*
X0075Y00122*
X0075Y00121*
X0075Y00121*
X0075Y0012*
X00749Y0012*
X00749Y0012*
X00749Y0012*
X00749Y0012*
X00749Y0012*
X00748Y00119*
X00748Y00119*
X00747Y00118*
X00747Y00118*
X00746Y00118*
X00746Y00117*
X00745Y00117*
X00744Y00117*
X00744Y00117*
X00743Y00117*
X00743Y00117*
X00743Y00117*
X00742Y00117*
X00742*
X00741Y00117*
X0074Y00117*
X00739Y00117*
X00738Y00118*
X00737Y00118*
X00737Y00118*
X00737Y00118*
X00737Y00118*
X00736Y00118*
X00736Y00118*
X00736Y00118*
X00736*
X00735Y00119*
X00734Y0012*
X00734Y00121*
X00733Y00121*
X00733Y00122*
X00732Y00122*
X00732Y00123*
X00732Y00123*
X00732Y00123*
X00732Y00123*
Y00123*
X00737Y00124*
X00738Y00124*
X00738Y00123*
X00738Y00123*
X00739Y00122*
X00739Y00122*
X00739Y00122*
X0074Y00122*
X0074Y00121*
X00741Y00121*
X00741Y00121*
X00741Y00121*
X00742*
X00742Y00121*
X00742*
X00742Y00121*
X00743Y00121*
X00744Y00122*
X00744Y00122*
X00744Y00122*
X00745Y00122*
X00745Y00122*
X00745Y00122*
X00745Y00123*
X00746Y00124*
X00746Y00124*
X00746Y00125*
X00746Y00125*
X00746Y00126*
X00746Y00126*
Y00126*
Y00126*
Y00126*
Y00126*
X00746Y00126*
Y00126*
Y00126*
X00731*
X00731Y00127*
X00731Y00128*
X00731Y00128*
X00731Y00129*
Y0013*
X00731Y0013*
Y0013*
Y0013*
Y0013*
Y0013*
X00731Y00131*
X00731Y00132*
X00731Y00133*
X00731Y00133*
X00731Y00134*
X00732Y00135*
X00732Y00135*
X00732Y00135*
X00732Y00136*
X00732Y00136*
X00733Y00137*
X00733Y00137*
X00733Y00137*
X00733Y00137*
X00733Y00137*
X00733Y00137*
X00734Y00138*
X00734Y00138*
X00735Y00138*
X00735Y00139*
X00736Y00139*
X00736Y00139*
X00737Y0014*
X00738Y0014*
X00738Y0014*
X00739Y0014*
X00739Y0014*
X00739Y0014*
X0074*
X00741Y0014*
G37*
G36*
X00704Y00127D02*
X00704Y00126D01*
X00704Y00126*
X00704Y00125*
X00704Y00125*
X00704Y00124*
X00704Y00124*
X00704Y00124*
X00704Y00124*
Y00123*
X00704Y00123*
X00704Y00123*
Y00123*
Y00123*
X00704Y00122*
X00704Y00121*
X00704Y0012*
X00704Y00119*
X00703Y00119*
X00703Y00119*
X00703Y00118*
X00703Y00118*
X00702Y00118*
X00702Y00117*
X00701Y00117*
X007Y00117*
X007Y00117*
X00699Y00117*
X00699Y00117*
X00699*
X00698Y00117*
X00698Y00117*
X00697Y00117*
X00696Y00117*
X00696Y00118*
X00695Y00118*
X00694Y00118*
X00694Y00119*
X00693Y00119*
X00693Y00119*
X00693Y00119*
X00692Y0012*
X00692Y0012*
X00692Y0012*
X00692Y0012*
X00692Y0012*
X00692Y00117*
X00687*
X00682Y00139*
X00688*
X0069Y00129*
X0069Y00128*
X0069Y00128*
X00691Y00127*
X00691Y00127*
X00691Y00126*
X00691Y00126*
X00691Y00126*
Y00126*
X00691Y00125*
X00691Y00125*
X00692Y00125*
X00692Y00124*
X00692Y00124*
X00692Y00124*
X00692Y00124*
X00692Y00124*
X00692Y00123*
X00693Y00123*
X00693Y00123*
X00693Y00122*
X00693Y00122*
X00693Y00122*
X00694Y00122*
X00694Y00122*
X00694Y00121*
X00695Y00121*
X00695Y00121*
X00695*
X00695Y00121*
X00696Y00121*
X00696Y00121*
X00696*
X00696Y00121*
X00697Y00121*
X00697Y00121*
X00697Y00121*
X00698Y00122*
X00698Y00122*
X00698Y00122*
X00698Y00122*
X00698Y00122*
X00698Y00122*
X00698Y00123*
X00698Y00123*
X00698Y00123*
X00698Y00123*
Y00123*
Y00123*
Y00123*
X00698Y00124*
X00698Y00124*
X00698Y00125*
X00698Y00125*
X00698Y00126*
X00698Y00126*
X00698Y00126*
Y00126*
X00698Y00126*
Y00126*
X00695Y00139*
X00701*
X00704Y00127*
G37*
G36*
X00831Y0014D02*
X00832Y0014D01*
X00833Y00139*
X00833Y00139*
X00834Y00139*
X00834Y00138*
X00835Y00138*
X00835Y00137*
X00836Y00137*
X00836Y00137*
X00837Y00136*
X00837Y00136*
X00837Y00135*
X00837Y00135*
X00837Y00135*
X00837Y00135*
X00837Y00139*
X00842*
X00847Y00117*
X00841*
X00839Y00124*
X00839Y00125*
X00839Y00126*
X00839Y00126*
X00839Y00127*
X00839Y00128*
X00838Y00128*
X00838Y00128*
X00838Y00129*
X00838Y00129*
X00838Y0013*
X00838Y0013*
X00838Y0013*
X00838Y0013*
X00838Y0013*
X00838Y0013*
Y0013*
X00837Y00131*
X00837Y00132*
X00836Y00132*
X00836Y00133*
X00836Y00133*
X00835Y00133*
X00835Y00133*
X00835Y00133*
X00835Y00134*
X00834Y00134*
X00833Y00134*
X00833Y00134*
X00833Y00135*
X00832Y00135*
X00832*
X00831Y00135*
X00831Y00135*
X00831Y00134*
X00831Y00134*
X0083Y00134*
X0083Y00134*
X0083*
X00828Y00139*
X00829Y00139*
X00829Y0014*
X0083Y0014*
X0083Y0014*
X0083Y0014*
X0083Y0014*
X00831*
X00831Y0014*
G37*
G36*
X00806Y00117D02*
X00801D01*
X00794Y00148*
X008*
X00806Y00117*
G37*
G36*
X00668Y0014D02*
X00669Y0014D01*
X0067Y0014*
X00671Y00139*
X00672Y00139*
X00672Y00139*
X00673Y00139*
X00673Y00139*
X00674Y00138*
X00674Y00138*
X00675Y00138*
X00675Y00138*
X00675Y00137*
X00675Y00137*
X00675Y00137*
X00675Y00137*
X00676Y00137*
X00676Y00136*
X00676Y00136*
X00676Y00136*
X00677Y00135*
X00677Y00134*
X00677Y00134*
X00677Y00133*
X00677Y00133*
X00677Y00133*
Y00133*
Y00133*
Y00133*
X00677Y00132*
X00677Y00132*
X00677Y00131*
X00677Y0013*
X00676Y0013*
X00676Y00129*
X00676Y00129*
X00675Y00129*
X00675Y00128*
X00675Y00128*
X00675Y00128*
X00675Y00128*
X00674Y00128*
X00674Y00128*
X00673Y00127*
X00673Y00127*
X00672Y00127*
X00671Y00126*
X0067Y00126*
X0067Y00126*
X0067Y00126*
X00669Y00126*
X00669Y00126*
X00669Y00126*
X00669Y00126*
X00668Y00125*
X00668Y00125*
X00667Y00125*
X00667Y00125*
X00666Y00125*
X00666Y00125*
X00666Y00125*
X00666Y00125*
X00666Y00124*
X00666Y00124*
X00666Y00124*
X00666Y00124*
Y00124*
Y00123*
X00666Y00123*
X00666Y00123*
X00666Y00123*
X00666Y00122*
X00666Y00122*
X00667Y00122*
X00667Y00122*
X00667Y00122*
X00667Y00122*
X00668Y00121*
X00668Y00121*
X00669Y00121*
X00669Y00121*
X0067Y00121*
X0067*
X00671Y00121*
X00671Y00121*
X00672Y00121*
X00672Y00121*
X00673Y00122*
X00673Y00122*
X00673Y00122*
X00673Y00122*
X00673Y00122*
X00674Y00123*
X00674Y00123*
X00674Y00123*
X00675Y00124*
X00675Y00124*
X00675Y00124*
X00675Y00124*
X00681Y00123*
X0068Y00122*
X0068Y00121*
X00679Y00121*
X00678Y0012*
X00678Y00119*
X00678Y00119*
X00677Y00119*
X00677Y00119*
X00677Y00119*
X00677Y00119*
X00677Y00118*
X00676Y00118*
X00675Y00118*
X00674Y00117*
X00672Y00117*
X00672Y00117*
X00671Y00117*
X00671Y00117*
X00671*
X0067Y00117*
X0067*
X00669Y00117*
X00668Y00117*
X00667Y00117*
X00667Y00117*
X00666Y00117*
X00665Y00118*
X00665Y00118*
X00664Y00118*
X00664Y00118*
X00663Y00118*
X00663Y00119*
X00663Y00119*
X00663Y00119*
X00663Y00119*
X00662Y00119*
X00662Y00119*
X00662Y0012*
X00662Y0012*
X00661Y0012*
X00661Y00121*
X00661Y00121*
X0066Y00122*
X0066Y00123*
X0066Y00123*
X0066Y00124*
X0066Y00124*
X0066Y00124*
Y00124*
Y00124*
Y00125*
X0066Y00125*
X0066Y00125*
X0066Y00126*
X0066Y00127*
X00661Y00127*
X00661Y00128*
X00662Y00128*
X00662Y00129*
X00662Y00129*
X00662*
X00662Y00129*
X00663Y00129*
X00663Y00129*
X00663Y0013*
X00664Y0013*
X00665Y0013*
X00666Y00131*
X00667Y00131*
X00667Y00131*
X00667Y00131*
X00667Y00131*
X00668Y00131*
X00668*
X00668Y00131*
X00669Y00131*
X00669Y00132*
X00669Y00132*
X0067Y00132*
X0067Y00132*
X0067Y00132*
X00671Y00132*
X00671Y00132*
X00671Y00132*
X00671*
X00671Y00133*
X00671Y00133*
X00672Y00133*
X00672Y00133*
X00672Y00133*
X00672Y00134*
Y00134*
Y00134*
X00672Y00134*
X00672Y00134*
X00671Y00135*
X00671Y00135*
X00671Y00135*
X00671Y00135*
X00671Y00135*
X00671Y00135*
X0067Y00135*
X0067Y00136*
X00669Y00136*
X00669Y00136*
X00669Y00136*
X00668*
X00668Y00136*
X00667Y00136*
X00666Y00135*
X00666Y00135*
X00666Y00135*
X00665Y00135*
X00665Y00135*
X00665Y00135*
X00665Y00135*
X00664Y00134*
X00664Y00134*
X00664Y00134*
X00664Y00134*
X00664Y00133*
X00664Y00133*
Y00133*
X00658Y00134*
X00659Y00135*
X00659Y00136*
X00659Y00137*
X0066Y00137*
X0066Y00138*
X00661Y00138*
X00661Y00138*
X00661Y00138*
X00661Y00138*
X00661*
X00661Y00139*
X00662Y00139*
X00663Y00139*
X00664Y00139*
X00665Y0014*
X00665Y0014*
X00666Y0014*
X00666Y0014*
X00667*
X00667Y0014*
X00667*
X00668Y0014*
G37*
%LNnema24-2*%
%LPC*%
G36*
X00966Y00175D02*
X00962D01*
Y00174*
X00966*
Y00175*
G37*
G36*
X00827D02*
X00823D01*
Y00174*
X00827*
Y00175*
G37*
G36*
X00807D02*
X00803D01*
Y00172*
X00807*
Y00174*
Y00175*
G37*
G36*
X00714D02*
X0071D01*
Y00172*
X00714*
Y00175*
G37*
G36*
X00661D02*
X00656D01*
Y00174*
Y00173*
X00661*
Y00175*
G37*
G36*
X00984Y00177D02*
X00972D01*
Y00172*
X00984*
Y00173*
X00973*
Y00176*
X00984*
Y00177*
G37*
G36*
X00934Y00175D02*
X0093D01*
Y00172*
X00934*
Y00175*
G37*
G36*
X00892Y00173D02*
X00889D01*
Y00172*
X00892*
Y00173*
G37*
G36*
X00871Y00175D02*
X00867D01*
Y00172*
X00871*
Y00175*
G37*
G36*
X00841D02*
X00837D01*
Y00174*
X00841*
Y00175*
G37*
G36*
X00743D02*
X00729D01*
Y00174*
X00735*
Y00173*
X00736*
Y00172*
X00743*
Y00175*
G37*
G36*
X00733Y00173D02*
X00729D01*
Y00172*
X00733*
Y00173*
G37*
G36*
X00635Y00175D02*
X00632D01*
Y00174*
X00635*
Y00175*
G37*
G36*
X00626D02*
X00621D01*
Y00174*
X00626*
Y00175*
G37*
G36*
X00594D02*
X00589D01*
Y00174*
Y00173*
X00594*
Y00175*
G37*
G36*
X00816Y00128D02*
X00816D01*
X00816Y00127*
X00816Y00126*
X00816Y00125*
X00817Y00125*
X00817Y00124*
X00817Y00124*
X00817Y00124*
X00817Y00124*
X00817Y00124*
X00817Y00123*
X00818Y00123*
X00818Y00123*
X00818Y00122*
X00819Y00122*
X00819Y00122*
X00819Y00122*
X00819Y00122*
X00819Y00122*
X0082Y00122*
X0082Y00121*
X00821Y00121*
X00821Y00121*
X00821Y00121*
X00821*
X00822Y00121*
X00822Y00121*
X00823Y00122*
X00823Y00122*
X00823Y00122*
X00823Y00122*
X00823Y00122*
X00823Y00122*
X00824Y00122*
X00824Y00123*
X00824Y00123*
X00824Y00123*
X00824Y00123*
X00824Y00124*
Y00124*
Y00124*
X00824Y00124*
X00824Y00125*
X00824Y00125*
X00824Y00125*
X00824Y00125*
X00823Y00126*
X00823Y00126*
X00823Y00126*
X00823Y00126*
X00823Y00126*
X00822Y00126*
X00822Y00126*
X00821Y00127*
X0082Y00127*
X00819Y00127*
X00818Y00127*
X00818Y00127*
X00818Y00127*
X00818*
X00817Y00127*
X00817*
X00817Y00127*
X00817Y00128*
X00816Y00128*
X00816Y00128*
X00816*
X00816Y00128*
G37*
G36*
X00883Y00136D02*
X00883D01*
X00883Y00136*
X00882Y00135*
X00882Y00135*
X00881Y00135*
X00881Y00135*
X00881Y00135*
X0088Y00134*
X0088Y00134*
X0088Y00134*
X0088Y00133*
X0088Y00133*
X00879Y00132*
X00879Y00132*
X00879Y00131*
Y00131*
Y00131*
Y00131*
Y00131*
Y00131*
Y0013*
Y0013*
Y0013*
X00889*
X00888Y00131*
X00888Y00132*
X00888Y00133*
X00887Y00133*
X00887Y00134*
X00887Y00134*
X00887Y00134*
X00887Y00134*
X00886Y00135*
X00885Y00135*
X00885Y00135*
X00884Y00135*
X00884Y00135*
X00884Y00136*
X00883Y00136*
G37*
G36*
X0074D02*
X0074D01*
X0074Y00136*
X00739Y00135*
X00738Y00135*
X00738Y00135*
X00738Y00135*
X00738Y00135*
X00737Y00134*
X00737Y00134*
X00737Y00134*
X00737Y00133*
X00736Y00133*
X00736Y00132*
X00736Y00132*
X00736Y00131*
Y00131*
Y00131*
Y00131*
Y00131*
Y00131*
Y0013*
Y0013*
Y0013*
X00745*
X00745Y00131*
X00745Y00132*
X00745Y00133*
X00744Y00133*
X00744Y00134*
X00744Y00134*
X00744Y00134*
X00744Y00134*
X00743Y00135*
X00742Y00135*
X00742Y00135*
X00741Y00135*
X00741Y00135*
X00741Y00136*
X0074Y00136*
G37*
M02*