%FSTAX23Y23*%
%MOIN*%
%SFA1B1*%

%IPPOS*%
%ADD11C,0.005000*%
%ADD52C,0.006665*%
%LNnema24-1*%
%LPD*%
G54D11*
X02067Y01087D02*
Y01127D01*
X02107*
Y01087*
X02067*
Y00446D02*
Y00486D01*
X02107*
Y00446*
X02067*
X02122Y00907D02*
X02102Y00947D01*
X02142*
X02122Y00907*
X02051Y00867D02*
X02031Y00907D01*
X02071*
X02051Y00867*
X02122Y00827D02*
X02102Y00867D01*
X02142*
X02122Y00827*
X02051Y00787D02*
X02031Y00827D01*
X02071*
X02051Y00787*
X02122Y00747D02*
X02102Y00787D01*
X02142*
X02122Y00747*
X02051Y00707D02*
X02031Y00747D01*
X02071*
X02051Y00707*
X02122Y00667D02*
X02102Y00707D01*
X02142*
X02122Y00667*
X02051Y00627D02*
X02031Y00667D01*
X02071*
X02051Y00627*
X02222Y01017D02*
X02232Y01027D01*
X02242*
X02232Y01037*
X02242Y01047*
X02232*
X02222Y01057*
X02212Y01047*
X02202*
X02212Y01037*
X02202Y01027*
X02212*
X02222Y01017*
Y00517D02*
X02232Y00527D01*
X02242*
X02232Y00537*
X02242Y00547*
X02232*
X02222Y00557*
X02212Y00547*
X02202*
X02212Y00537*
X02202Y00527*
X02212*
X02222Y00517*
X0168Y00813D02*
X0169Y00833D01*
X0168Y00853*
X017Y00843*
X0172Y00853*
X0171Y00833*
X0172Y00813*
X017Y00823*
X0168Y00813*
Y00714D02*
X0169Y00734D01*
X0168Y00754*
X017Y00744*
X0172Y00754*
X0171Y00734*
X0172Y00714*
X017Y00724*
X0168Y00714*
X01161Y01161D02*
X01171D01*
X01181Y01171*
X01191Y01161*
X01201*
Y01171*
X01191Y01181*
X01201Y01191*
Y01201*
X01191*
X01181Y01191*
X01171Y01201*
X01161*
Y01191*
X01171Y01181*
X01161Y01171*
Y01161*
X00767D02*
X00777D01*
X00787Y01171*
X00797Y01161*
X00807*
Y01171*
X00797Y01181*
X00807Y01191*
Y01201*
X00797*
X00787Y01191*
X00777Y01201*
X00767*
Y01191*
X00777Y01181*
X00767Y01171*
Y01161*
Y00373D02*
X00777D01*
X00787Y00383*
X00797Y00373*
X00807*
Y00383*
X00797Y00393*
X00807Y00403*
Y00413*
X00797*
X00787Y00403*
X00777Y00413*
X00767*
Y00403*
X00777Y00393*
X00767Y00383*
Y00373*
X00373Y01161D02*
X00383D01*
X00393Y01171*
X00403Y01161*
X00413*
Y01171*
X00403Y01181*
X00413Y01191*
Y01201*
X00403*
X00393Y01191*
X00383Y01201*
X00373*
Y01191*
X00383Y01181*
X00373Y01171*
Y01161*
Y00373D02*
X00383D01*
X00393Y00383*
X00403Y00373*
X00413*
Y00383*
X00403Y00393*
X00413Y00403*
Y00413*
X00403*
X00393Y00403*
X00383Y00413*
X00373*
Y00403*
X00383Y00393*
X00373Y00383*
Y00373*
X01017Y00749D02*
Y00739D01*
X01037*
Y00749*
X01047*
Y00769*
X01037*
Y00779*
X01017*
Y00769*
X01007*
Y00749*
X01017*
X00947Y00719D02*
Y00709D01*
X00967*
Y00719*
X00977*
Y00739*
X00967*
Y00749*
X00947*
Y00739*
X00937*
Y00719*
X00947*
X00947Y0069D02*
Y0068D01*
X00967*
Y0069*
X00977*
Y0071*
X00967*
Y0072*
X00947*
Y0071*
X00937*
Y0069*
X00947*
X0061Y00724D02*
Y00714D01*
X0063*
Y00724*
X0064*
Y00744*
X0063*
Y00754*
X0061*
Y00744*
X006*
Y00724*
X0061*
X00602Y00936D02*
Y00926D01*
X00622*
Y00936*
X00632*
Y00956*
X00622*
Y00966*
X00602*
Y00956*
X00592*
Y00936*
X00602*
X00567Y00936D02*
Y00926D01*
X00587*
Y00936*
X00597*
Y00956*
X00587*
Y00966*
X00567*
Y00956*
X00557*
Y00936*
X00567*
X00534Y00936D02*
Y00926D01*
X00554*
Y00936*
X00564*
Y00956*
X00554*
Y00966*
X00534*
Y00956*
X00524*
Y00936*
X00534*
X01517Y00727D02*
Y00717D01*
X01537*
Y00727*
X01547*
Y00747*
X01537*
Y00757*
X01517*
Y00747*
X01507*
Y00727*
X01517*
X01211Y0086D02*
Y0085D01*
X01231*
Y0086*
X01241*
Y0088*
X01231*
Y0089*
X01211*
Y0088*
X01201*
Y0086*
X01211*
X01205Y00355D02*
Y00345D01*
X01225*
Y00355*
X01235*
Y00375*
X01225*
Y00385*
X01205*
Y00375*
X01195*
Y00355*
X01205*
X00942Y00781D02*
Y00771D01*
X00962*
Y00781*
X00972*
Y00801*
X00962*
Y00811*
X00942*
Y00801*
X00932*
Y00781*
X00942*
X02229Y00836D02*
Y00826D01*
X02249*
Y00836*
X02259*
Y00856*
X02249*
Y00866*
X02229*
Y00856*
X02219*
Y00836*
X02229*
X01925Y00797D02*
Y00787D01*
X01945*
Y00797*
X01955*
Y00817*
X01945*
Y00827*
X01925*
Y00817*
X01915*
Y00797*
X01925*
X02228Y00675D02*
Y00665D01*
X02248*
Y00675*
X02258*
Y00695*
X02248*
Y00705*
X02228*
Y00695*
X02218*
Y00675*
X02228*
X0223Y00917D02*
Y00907D01*
X0225*
Y00917*
X0226*
Y00937*
X0225*
Y00947*
X0223*
Y00937*
X0222*
Y00917*
X0223*
G54D52*
X00315Y00295D02*
D01*
X00315Y00297*
X00315Y00298*
X00314Y00299*
X00314Y00301*
X00314Y00302*
X00313Y00303*
X00312Y00305*
X00312Y00306*
X00311Y00307*
X0031Y00308*
X00309Y00309*
X00308Y0031*
X00307Y00311*
X00306Y00312*
X00305Y00312*
X00304Y00313*
X00302Y00314*
X00301Y00314*
X003Y00315*
X00298Y00315*
X00297Y00315*
X00295Y00315*
X00294*
X00293Y00315*
X00291Y00315*
X0029Y00315*
X00289Y00314*
X00287Y00314*
X00286Y00313*
X00285Y00312*
X00284Y00312*
X00282Y00311*
X00281Y0031*
X0028Y00309*
X00279Y00308*
X00279Y00307*
X00278Y00306*
X00277Y00305*
X00277Y00303*
X00276Y00302*
X00276Y00301*
X00275Y00299*
X00275Y00298*
X00275Y00297*
X00275Y00295*
X00275Y00294*
X00275Y00292*
X00275Y00291*
X00276Y0029*
X00276Y00288*
X00277Y00287*
X00277Y00286*
X00278Y00285*
X00279Y00283*
X00279Y00282*
X0028Y00281*
X00281Y0028*
X00282Y00279*
X00284Y00279*
X00285Y00278*
X00286Y00277*
X00287Y00277*
X00289Y00276*
X0029Y00276*
X00291Y00275*
X00293Y00275*
X00294Y00275*
X00295*
X00297Y00275*
X00298Y00275*
X003Y00276*
X00301Y00276*
X00302Y00277*
X00304Y00277*
X00305Y00278*
X00306Y00279*
X00307Y00279*
X00308Y0028*
X00309Y00281*
X0031Y00282*
X00311Y00283*
X00312Y00285*
X00312Y00286*
X00313Y00287*
X00314Y00288*
X00314Y0029*
X00314Y00291*
X00315Y00292*
X00315Y00294*
X00315Y00295*
X01299D02*
D01*
X01299Y00297*
X01299Y00298*
X01299Y00299*
X01299Y00301*
X01298Y00302*
X01298Y00303*
X01297Y00305*
X01296Y00306*
X01296Y00307*
X01295Y00308*
X01294Y00309*
X01293Y0031*
X01292Y00311*
X01291Y00312*
X01289Y00312*
X01288Y00313*
X01287Y00314*
X01286Y00314*
X01284Y00315*
X01283Y00315*
X01282Y00315*
X0128Y00315*
X01279*
X01277Y00315*
X01276Y00315*
X01275Y00315*
X01273Y00314*
X01272Y00314*
X01271Y00313*
X01269Y00312*
X01268Y00312*
X01267Y00311*
X01266Y0031*
X01265Y00309*
X01264Y00308*
X01263Y00307*
X01262Y00306*
X01262Y00305*
X01261Y00303*
X01261Y00302*
X0126Y00301*
X0126Y00299*
X0126Y00298*
X01259Y00297*
X01259Y00295*
X01259Y00294*
X0126Y00292*
X0126Y00291*
X0126Y0029*
X01261Y00288*
X01261Y00287*
X01262Y00286*
X01262Y00285*
X01263Y00283*
X01264Y00282*
X01265Y00281*
X01266Y0028*
X01267Y00279*
X01268Y00279*
X01269Y00278*
X01271Y00277*
X01272Y00277*
X01273Y00276*
X01275Y00276*
X01276Y00275*
X01277Y00275*
X01279Y00275*
X0128*
X01282Y00275*
X01283Y00275*
X01284Y00276*
X01286Y00276*
X01287Y00277*
X01288Y00277*
X01289Y00278*
X01291Y00279*
X01292Y00279*
X01293Y0028*
X01294Y00281*
X01295Y00282*
X01296Y00283*
X01296Y00285*
X01297Y00286*
X01298Y00287*
X01298Y00288*
X01299Y0029*
X01299Y00291*
X01299Y00292*
X01299Y00294*
X01299Y00295*
X01299Y01279D02*
D01*
X01299Y01281*
X01299Y01282*
X01299Y01284*
X01298Y01285*
X01298Y01286*
X01297Y01288*
X01297Y01289*
X01296Y0129*
X01295Y01291*
X01294Y01292*
X01293Y01293*
X01292Y01294*
X01291Y01295*
X0129Y01296*
X01289Y01297*
X01288Y01297*
X01287Y01298*
X01285Y01298*
X01284Y01299*
X01283Y01299*
X01281Y01299*
X0128Y01299*
X01278*
X01277Y01299*
X01276Y01299*
X01274Y01299*
X01273Y01298*
X01272Y01298*
X0127Y01297*
X01269Y01297*
X01268Y01296*
X01267Y01295*
X01266Y01294*
X01265Y01293*
X01264Y01292*
X01263Y01291*
X01262Y0129*
X01261Y01289*
X01261Y01288*
X0126Y01286*
X0126Y01285*
X01259Y01284*
X01259Y01282*
X01259Y01281*
X01259Y01279*
X01259Y01278*
X01259Y01277*
X01259Y01275*
X0126Y01274*
X0126Y01273*
X01261Y01271*
X01261Y0127*
X01262Y01269*
X01263Y01268*
X01264Y01267*
X01265Y01266*
X01266Y01265*
X01267Y01264*
X01268Y01263*
X01269Y01262*
X0127Y01261*
X01272Y01261*
X01273Y0126*
X01274Y0126*
X01276Y0126*
X01277Y0126*
X01278Y01259*
X0128*
X01281Y0126*
X01283Y0126*
X01284Y0126*
X01285Y0126*
X01287Y01261*
X01288Y01261*
X01289Y01262*
X0129Y01263*
X01291Y01264*
X01292Y01265*
X01293Y01266*
X01294Y01267*
X01295Y01268*
X01296Y01269*
X01297Y0127*
X01297Y01271*
X01298Y01273*
X01298Y01274*
X01299Y01275*
X01299Y01277*
X01299Y01278*
X01299Y01279*
X00315D02*
D01*
X00315Y01281*
X00315Y01282*
X00315Y01284*
X00314Y01285*
X00314Y01286*
X00313Y01288*
X00313Y01289*
X00312Y0129*
X00311Y01291*
X0031Y01292*
X0031Y01293*
X00309Y01294*
X00307Y01295*
X00306Y01296*
X00305Y01297*
X00304Y01297*
X00303Y01298*
X00301Y01298*
X003Y01299*
X00299Y01299*
X00297Y01299*
X00296Y01299*
X00294*
X00293Y01299*
X00292Y01299*
X0029Y01299*
X00289Y01298*
X00288Y01298*
X00286Y01297*
X00285Y01297*
X00284Y01296*
X00283Y01295*
X00282Y01294*
X00281Y01293*
X0028Y01292*
X00279Y01291*
X00278Y0129*
X00278Y01289*
X00277Y01288*
X00276Y01286*
X00276Y01285*
X00276Y01284*
X00275Y01282*
X00275Y01281*
X00275Y01279*
X00275Y01278*
X00275Y01277*
X00276Y01275*
X00276Y01274*
X00276Y01273*
X00277Y01271*
X00278Y0127*
X00278Y01269*
X00279Y01268*
X0028Y01267*
X00281Y01266*
X00282Y01265*
X00283Y01264*
X00284Y01263*
X00285Y01262*
X00286Y01261*
X00288Y01261*
X00289Y0126*
X0029Y0126*
X00292Y0126*
X00293Y0126*
X00294Y01259*
X00296*
X00297Y0126*
X00299Y0126*
X003Y0126*
X00301Y0126*
X00303Y01261*
X00304Y01261*
X00305Y01262*
X00306Y01263*
X00307Y01264*
X00309Y01265*
X0031Y01266*
X0031Y01267*
X00311Y01268*
X00312Y01269*
X00313Y0127*
X00313Y01271*
X00314Y01273*
X00314Y01274*
X00315Y01275*
X00315Y01277*
X00315Y01278*
X00315Y01279*
M02*