%FSTAX23Y23*%
%MOIN*%
%SFA1B1*%

%IPPOS*%
%ADD10C,0.007874*%
%ADD34C,0.010000*%
%ADD36C,0.095669*%
%ADD37R,0.057008X0.057008*%
%ADD38C,0.057008*%
%ADD39C,0.129921*%
%ADD40R,0.062008X0.062008*%
%ADD41C,0.062008*%
%ADD42C,0.039370*%
%ADD43C,0.050000*%
%ADD44C,0.017716*%
%ADD45R,0.012000X0.022000*%
%LNnema24-1*%
%LPD*%
G36*
X00858Y01535D02*
X00906Y01529D01*
X00954Y01519*
X01001Y01507*
X01048Y01491*
X01093Y01472*
X01137Y01451*
X01179Y01426*
X01219Y01399*
X01258Y01369*
X01295Y01337*
X0131Y01322*
X01307Y01318*
X01297Y01323*
X01285Y01327*
X01273*
X01261Y01323*
X0125Y01317*
X01241Y01308*
X01235Y01298*
X01232Y01286*
Y01273*
X01235Y01261*
X01241Y0125*
X0125Y01242*
X01261Y01235*
X01273Y01232*
X01285*
X01297Y01235*
X01308Y01242*
X01317Y0125*
X01323Y01261*
X01326Y01273*
Y01286*
X01323Y01298*
X01317Y01308*
X01321Y01311*
X01329Y01303*
X01362Y01266*
X01391Y01227*
X01418Y01187*
X01438Y01152*
X0241*
Y0042*
X01431*
X01418Y00399*
X01391Y00358*
X01362Y0032*
X01331Y00284*
X01326Y00287*
X01327Y00289*
Y00301*
X01323Y00313*
X01317Y00324*
X01308Y00333*
X01298Y00339*
X01286Y00342*
X01273*
X01261Y00339*
X0125Y00333*
X01242Y00324*
X01235Y00313*
X01232Y00301*
Y00289*
X01235Y00277*
X01242Y00266*
X0125Y00257*
X01261Y00251*
X01273Y00248*
X01286*
X01287Y00248*
X0129Y00244*
X01258Y00216*
X01219Y00186*
X01179Y00159*
X01137Y00135*
X01093Y00113*
X01048Y00095*
X01001Y00079*
X00954Y00066*
X00906Y00057*
X00858Y0005*
X00809Y00047*
X00785Y00047*
X0076*
X00712Y0005*
X00663Y00057*
X00615Y00066*
X00568Y00079*
X00522Y00095*
X00477Y00113*
X00433Y00135*
X00391Y00159*
X0035Y00186*
X00312Y00216*
X00278Y00246*
X0028Y0025*
X00289Y00248*
X00301*
X00313Y00251*
X00324Y00257*
X00333Y00266*
X00339Y00277*
X00342Y00289*
Y00301*
X00339Y00313*
X00333Y00324*
X00324Y00333*
X00313Y00339*
X00301Y00342*
X00289*
X00277Y00339*
X00266Y00333*
X00257Y00324*
X00251Y00313*
X00248Y00301*
Y00289*
X0025Y0028*
X00245Y00278*
X0024Y00283*
X00208Y0032*
X00179Y00358*
X00151Y00399*
X00127Y00441*
X00105Y00485*
X00087Y0053*
X00071Y00576*
X00058Y00623*
X00049Y00671*
X00042Y0072*
X00039Y00768*
Y00817*
X00042Y00866*
X00049Y00914*
X00058Y00962*
X00071Y01009*
X00087Y01056*
X00105Y01101*
X00127Y01144*
X00151Y01187*
X00179Y01227*
X00208Y01266*
X0024Y01303*
X00275Y01337*
X00312Y01369*
X0035Y01399*
X00391Y01426*
X00433Y01451*
X00477Y01472*
X00522Y01491*
X00568Y01507*
X00615Y01519*
X00663Y01529*
X00712Y01535*
X0076Y01538*
X00809*
X00858Y01535*
G37*
%LNnema24-2*%
%LPC*%
G36*
X00301Y01327D02*
X00289D01*
X00277Y01323*
X00266Y01317*
X00257Y01308*
X00251Y01298*
X00248Y01286*
Y01273*
X00251Y01261*
X00257Y0125*
X00266Y01242*
X00277Y01235*
X00289Y01232*
X00301*
X00313Y01235*
X00324Y01242*
X00333Y0125*
X00339Y01261*
X00342Y01273*
Y01286*
X00339Y01298*
X00333Y01308*
X00324Y01317*
X00313Y01323*
X00301Y01327*
G37*
G36*
X02229Y01107D02*
X02215D01*
X02201Y01105*
X02188Y01099*
X02176Y01092*
X02167Y01082*
X02159Y0107*
X02153Y01057*
X02151Y01043*
Y0103*
X02153Y01016*
X02159Y01003*
X02167Y00991*
X02176Y00981*
X02188Y00974*
X02201Y00968*
X02215Y00966*
X02229*
X02242Y00968*
X02255Y00974*
X02267Y00981*
X02277Y00991*
X02284Y01003*
X0229Y01016*
X02292Y0103*
Y01043*
X0229Y01057*
X02284Y0107*
X02277Y01082*
X02267Y01092*
X02255Y01099*
X02242Y01105*
X02229Y01107*
G37*
G36*
X02156Y00961D02*
X02087D01*
Y00892*
X02156*
Y00917*
X02166*
Y0091*
X02176*
X02178Y00907*
X0218Y00904*
X02205Y0088*
X02208Y00878*
X02212Y00877*
X02243*
X02257Y00863*
Y00856*
X0225Y0085*
X02248Y00846*
X02248Y00843*
Y00842*
X02143Y00738*
X02108*
X02074Y00772*
X02073Y00773*
X02072Y00778*
X02072Y00779*
X02073Y00779*
X02079Y00785*
X02084Y00793*
X02086Y00802*
Y00804*
X0209Y00806*
X02098Y00799*
X02101Y00797*
X02105Y00796*
X02142*
X02146Y00797*
X02149Y00799*
X0218Y00829*
X02189*
Y00863*
X02166*
Y00856*
X02155*
X02154Y0086*
X02149Y00868*
X02143Y00874*
X02135Y00879*
X02126Y00881*
X02117*
X02108Y00879*
X021Y00874*
X02094Y00868*
X02089Y0086*
X02087Y00851*
Y00846*
X02082Y00844*
X02071Y00855*
X02068Y00857*
X02064Y00858*
X01791*
X01787Y00857*
X01784Y00855*
X01741Y00812*
X01736Y00814*
Y00869*
X01663*
Y00801*
X00963*
X0096Y00804*
X00955Y00806*
X00949*
X00944Y00804*
X00939Y008*
X00937Y00794*
Y00788*
X00939Y00783*
X00944Y00779*
X00949Y00776*
X00955*
X0096Y00779*
X00963Y00781*
X01028*
X0103Y00776*
X01028Y00774*
X01025*
X01019Y00771*
X01015Y00767*
X01013Y00762*
Y00756*
X01015Y00751*
X01019Y00746*
X01025Y00744*
X0103*
X01036Y00746*
X0104Y00751*
X01042Y00756*
Y00759*
X01049Y00766*
X01972*
X01975Y00767*
X01979Y00769*
X01994Y00784*
X01996Y00787*
X01998Y0079*
X02008*
Y00797*
X02019*
X02019Y00793*
X02024Y00785*
X02029Y0078*
X02028Y00775*
X02007*
X02004Y00774*
X02Y00772*
X01969Y00741*
X01754*
X0175Y0074*
X01747Y00738*
X01712Y00703*
X00995*
X00972Y00726*
Y00732*
X00969Y00737*
X00965Y00742*
X0096Y00744*
X00954*
X00949Y00742*
X00944Y00737*
X00942Y00732*
Y00726*
X00944Y00721*
X00948Y00717*
X00948Y00715*
X00948Y00711*
X00945Y00708*
X00943Y00703*
Y00697*
X00945Y00692*
X00949Y00687*
X00954Y00685*
X0096*
X00961Y00685*
X00965Y0068*
X00969Y00678*
X00972Y00678*
X00972*
X00978Y00672*
X00981Y0067*
X00985Y00669*
X01773*
X01777Y0067*
X01779Y00672*
X01865*
X01865Y00672*
X01866Y00672*
X02046Y00675*
X02051Y00675*
X02056Y00674*
X02059Y00674*
X02066Y00671*
X02071Y00666*
X02074Y00663*
X02075Y00663*
X02091Y00639*
X02092Y00639*
X02092Y00638*
X02097Y00633*
X02099Y00632*
X021Y00631*
X02101Y00631*
X02104Y0063*
X02106*
X02138*
X02142Y00631*
X02145Y00633*
X0218Y00668*
X02189*
Y00702*
X02166*
Y00696*
X02155*
X02154Y007*
X02149Y00708*
X02144Y00713*
X02145Y00718*
X02148*
X02151Y00719*
X02155Y00721*
X02265Y00831*
X02267Y00834*
X02268Y00838*
Y00838*
X02274Y00845*
X02276Y00848*
X02277Y00852*
Y00868*
X02276Y00871*
X02274Y00875*
X02254Y00894*
X02251Y00897*
X02247Y00897*
X02216*
X02196Y00917*
X02194Y0092*
X0219Y00924*
Y00944*
X02166*
Y00937*
X02156*
Y00961*
G37*
G36*
X02229Y00607D02*
X02215D01*
X02201Y00605*
X02188Y00599*
X02176Y00592*
X02167Y00582*
X02159Y0057*
X02153Y00557*
X02151Y00543*
Y0053*
X02153Y00516*
X02159Y00503*
X02167Y00491*
X02176Y00481*
X02188Y00474*
X02201Y00468*
X02215Y00466*
X02229*
X02242Y00468*
X02255Y00474*
X02267Y00481*
X02277Y00491*
X02284Y00503*
X0229Y00516*
X02292Y0053*
Y00543*
X0229Y00557*
X02284Y0057*
X02277Y00582*
X02267Y00592*
X02255Y00599*
X02242Y00605*
X02229Y00607*
G37*
%LNnema24-3*%
%LPD*%
G36*
X02029Y00833D02*
X02024Y00828D01*
X02019Y0082*
X02019Y00817*
X02008*
Y00823*
X01984*
Y00804*
X0198Y008*
X01978Y00797*
X01968Y00786*
X0175*
X01748Y00791*
X01795Y00838*
X02028*
X02029Y00833*
G37*
G36*
X02097Y00721D02*
X021Y00719D01*
X021Y00716*
X021Y00714*
X02094Y00708*
X02089Y007*
X02087Y00691*
Y00686*
X02082Y00684*
X02076Y00689*
X02064Y00693*
X02056Y00695*
X02056*
X02051Y00695*
X02051Y00695*
Y00695*
X01865Y00692*
X01775*
X01771Y00691*
X01769Y0069*
X01733*
X01731Y00694*
X01758Y00721*
X01974*
X01977Y00722*
X01981Y00724*
X02012Y00755*
X02063*
X02097Y00721*
G37*
G54D10*
X02083Y00669D02*
D01*
X02081Y00671*
X02079Y00673*
X02077Y00675*
X02075Y00676*
X02073Y00678*
X02071Y00679*
X02069Y00681*
X02066Y00682*
X02064Y00683*
X02061Y00684*
X02059Y00684*
X02056Y00685*
X02053Y00685*
X02051Y00685*
X01045Y00776D02*
X01972D01*
X01027Y00759D02*
X01028D01*
X01045Y00776*
X00957Y00727D02*
Y00729D01*
Y00727D02*
X0099Y00693D01*
X00957Y007D02*
X0096D01*
X00972Y00688D02*
X00977D01*
X0096Y007D02*
X00972Y00688D01*
X00985Y0068D02*
X01773D01*
X00977Y00688D02*
X00985Y0068D01*
X01773D02*
X01775Y00682D01*
X00952Y00791D02*
X01734D01*
X02007Y00765D02*
X02067D01*
X01974Y00731D02*
X02007Y00765D01*
X02104Y00728D02*
X02148D01*
X02067Y00765D02*
X02104Y00728D01*
X01775Y00682D02*
X01865D01*
X0099Y00693D02*
X01716D01*
X01754Y00731*
X01865Y00682D02*
X02051Y00685D01*
X01754Y00731D02*
X01974D01*
X02106Y0064D02*
X02138D01*
X021Y00645D02*
X02104Y0064D01*
X02106*
X02083Y00669D02*
X021Y00645D01*
X02148Y00728D02*
X02258Y00838D01*
Y00843*
X02267Y00852*
Y00868*
X02247Y00887D02*
X02267Y00868D01*
X02212Y00887D02*
X02247D01*
X02187Y00912D02*
X02212Y00887D01*
X02187Y00912D02*
Y00913D01*
X02178Y00922D02*
X02187Y00913D01*
X02178Y00922D02*
Y00927D01*
X01734Y00791D02*
X01791Y00848D01*
X02064*
X0209Y00822*
Y00821D02*
Y00822D01*
Y00821D02*
X02105Y00806D01*
X02142*
X02178Y00841*
Y00846*
X01972Y00776D02*
X01987Y00792D01*
Y00792*
X01996Y00802*
Y00807*
X02178Y0068D02*
Y00685D01*
X02138Y0064D02*
X02178Y0068D01*
X01996Y00807D02*
X01996Y00807D01*
X02051*
X02051Y00807*
X02177Y00686D02*
X02178Y00685D01*
X02122Y00686D02*
X02177D01*
X02122Y00687D02*
X02122Y00686D01*
X02177Y00846D02*
X02178Y00846D01*
X02122Y00846D02*
X02177D01*
X02122Y00847D02*
X02122Y00846D01*
X02122Y00927D02*
X02178D01*
X02122Y00927D02*
X02122Y00927D01*
G54D34*
X02238Y00685D02*
X02238Y00685D01*
X02203Y00685D02*
X02238D01*
X02203Y00685D02*
X02203Y00685D01*
X01971Y00807D02*
X01971Y00807D01*
X01935Y00807D02*
X01971D01*
X01935Y00807D02*
X01935Y00807D01*
X02203Y00846D02*
X02203Y00846D01*
X02239*
X02239Y00846*
X0224Y00927D02*
X0224Y00927D01*
X02203Y00927D02*
X0224D01*
X02203Y00927D02*
X02203Y00927D01*
G54D36*
X02087Y01107D03*
Y00466D03*
G54D37*
X02122Y00927D03*
G54D38*
X02051Y00887D03*
X02122Y00847D03*
X02051Y00807D03*
X02122Y00767D03*
X02051Y00727D03*
X02122Y00687D03*
X02051Y00647D03*
G54D39*
X02222Y01037D03*
Y00537D03*
G54D40*
X017Y00833D03*
G54D41*
X017Y00734D03*
G54D42*
X00295Y00295D03*
X01279D03*
X01279Y01279D03*
X00295D03*
G54D43*
X01181Y01181D03*
X00787D03*
Y00393D03*
X00393Y01181D03*
Y00393D03*
G54D44*
X01027Y00759D03*
X00957Y00729D03*
X00957Y007D03*
X0062Y00734D03*
X00612Y00946D03*
X00577Y00946D03*
X00544Y00946D03*
X01527Y00737D03*
X01221Y0087D03*
X01215Y00365D03*
X00952Y00791D03*
X02239Y00846D03*
X01935Y00807D03*
X02238Y00685D03*
X0224Y00927D03*
G54D45*
X02178Y00685D03*
X02203D03*
X01996Y00807D03*
X01971D03*
X02178Y00846D03*
X02203D03*
X02178Y00927D03*
X02203D03*
M02*