%FSTAX23Y23*%
%MOIN*%
%SFA1B1*%

%IPPOS*%
%AMD20*
4,1,8,-0.026900,-0.012100,0.026900,-0.012100,0.033000,-0.006100,0.033000,0.006100,0.026900,0.012100,-0.026900,0.012100,-0.033000,0.006100,-0.033000,-0.006100,-0.026900,-0.012100,0.0*
1,1,0.012071,-0.026900,-0.006100*
1,1,0.012071,0.026900,-0.006100*
1,1,0.012071,0.026900,0.006100*
1,1,0.012071,-0.026900,0.006100*
%
%AMD22*
4,1,8,0.015500,-0.006200,0.015500,0.006200,0.006200,0.015500,-0.006200,0.015500,-0.015500,0.006200,-0.015500,-0.006200,-0.006200,-0.015500,0.006200,-0.015500,0.015500,-0.006200,0.0*
1,1,0.018409,0.006200,-0.006200*
1,1,0.018409,0.006200,0.006200*
1,1,0.018409,-0.006200,0.006200*
1,1,0.018409,-0.006200,-0.006200*
%
%AMD23*
4,1,8,-0.018000,-0.013600,0.018000,-0.013600,0.025800,-0.005800,0.025800,0.005800,0.018000,0.013600,-0.018000,0.013600,-0.025800,0.005800,-0.025800,-0.005800,-0.018000,-0.013600,0.0*
1,1,0.015551,-0.018000,-0.005800*
1,1,0.015551,0.018000,-0.005800*
1,1,0.015551,0.018000,0.005800*
1,1,0.015551,-0.018000,0.005800*
%
%AMD24*
4,1,8,0.029100,-0.015500,0.029100,0.015500,0.022000,0.022600,-0.022000,0.022600,-0.029100,0.015500,-0.029100,-0.015500,-0.022000,-0.022600,0.022000,-0.022600,0.029100,-0.015500,0.0*
1,1,0.014276,0.022000,-0.015500*
1,1,0.014276,0.022000,0.015500*
1,1,0.014276,-0.022000,0.015500*
1,1,0.014276,-0.022000,-0.015500*
%
%ADD13R,0.061268X0.059236*%
%ADD18R,0.049212X0.023622*%
%ADD19R,0.057563X0.053331*%
G04~CAMADD=20~8~0.0~0.0~659.1~241.7~60.4~0.0~15~0.0~0.0~0.0~0.0~0~0.0~0.0~0.0~0.0~0~0.0~0.0~0.0~180.0~660.0~242.0*
%ADD20D20*%
%ADD21R,0.020000X0.010000*%
G04~CAMADD=22~8~0.0~0.0~309.1~309.1~92.0~0.0~15~0.0~0.0~0.0~0.0~0~0.0~0.0~0.0~0.0~0~0.0~0.0~0.0~270.0~310.0~310.0*
%ADD22D22*%
G04~CAMADD=23~8~0.0~0.0~515.7~271.7~77.8~0.0~15~0.0~0.0~0.0~0.0~0~0.0~0.0~0.0~0.0~0~0.0~0.0~0.0~180.0~516.0~272.0*
%ADD23D23*%
G04~CAMADD=24~8~0.0~0.0~452.8~582.7~71.4~0.0~15~0.0~0.0~0.0~0.0~0~0.0~0.0~0.0~0.0~0~0.0~0.0~0.0~270.0~582.0~452.0*
%ADD24D24*%
%ADD25C,0.099606*%
%ADD26R,0.060945X0.060945*%
%ADD27C,0.060945*%
%ADD28C,0.133858*%
%ADD29R,0.065945X0.065945*%
%ADD30C,0.065945*%
%ADD31C,0.043307*%
%ADD32C,0.053937*%
%ADD33C,0.021654*%
%LNnema24-1*%
%LPD*%
G54D13*
X00577Y00873D03*
Y00802D03*
G54D18*
X01217Y00661D03*
Y0059D03*
G54D19*
X01216Y00509D03*
Y00432D03*
G54D20*
X009Y0071D03*
Y00736D03*
Y00761D03*
Y00787D03*
Y00812D03*
Y00838D03*
Y00864D03*
X00674D03*
Y00838D03*
Y00812D03*
Y00787D03*
Y00761D03*
Y00736D03*
Y0071D03*
G54D21*
X01528Y00797D03*
Y00772D03*
G54D22*
X00993Y0076D03*
X00958D03*
G54D23*
X01292Y00748D03*
Y00823D03*
X01391D03*
Y00786D03*
Y00748D03*
G54D24*
X0122Y00751D03*
Y00821D03*
X01463Y0075D03*
Y0082D03*
G54D25*
X02087Y01107D03*
Y00466D03*
G54D26*
X02122Y00927D03*
G54D27*
X02051Y00887D03*
X02122Y00847D03*
X02051Y00807D03*
X02122Y00767D03*
X02051Y00727D03*
X02122Y00687D03*
X02051Y00647D03*
G54D28*
X02222Y01037D03*
Y00537D03*
G54D29*
X017Y00833D03*
G54D30*
X017Y00734D03*
G54D31*
X00295Y00295D03*
X01279D03*
X01279Y01279D03*
X00295D03*
G54D32*
X01181Y01181D03*
X00787D03*
Y00393D03*
X00393Y01181D03*
Y00393D03*
G54D33*
X01027Y00759D03*
X00957Y00729D03*
X00957Y007D03*
X0062Y00734D03*
X00612Y00946D03*
X00577Y00946D03*
X00544Y00946D03*
X01527Y00737D03*
X01221Y0087D03*
X01215Y00365D03*
X00952Y00791D03*
X02239Y00846D03*
X01935Y00807D03*
X02238Y00685D03*
X0224Y00927D03*
M02*