%FSTAX23Y23*%
%MOIN*%
%SFA1B1*%

%IPPOS*%
%ADD25C,0.099606*%
%ADD26R,0.060945X0.060945*%
%ADD27C,0.060945*%
%ADD28C,0.133858*%
%ADD29R,0.065945X0.065945*%
%ADD30C,0.065945*%
%ADD31C,0.043307*%
%ADD32C,0.053937*%
%ADD33C,0.021654*%
%ADD46R,0.010000X0.020000*%
%LNnema24-1*%
%LPD*%
G54D25*
X02087Y01107D03*
Y00466D03*
G54D26*
X02122Y00927D03*
G54D27*
X02051Y00887D03*
X02122Y00847D03*
X02051Y00807D03*
X02122Y00767D03*
X02051Y00727D03*
X02122Y00687D03*
X02051Y00647D03*
G54D28*
X02222Y01037D03*
Y00537D03*
G54D29*
X017Y00833D03*
G54D30*
X017Y00734D03*
G54D31*
X00295Y00295D03*
X01279D03*
X01279Y01279D03*
X00295D03*
G54D32*
X01181Y01181D03*
X00787D03*
Y00393D03*
X00393Y01181D03*
Y00393D03*
G54D33*
X01027Y00759D03*
X00957Y00729D03*
X00957Y007D03*
X0062Y00734D03*
X00612Y00946D03*
X00577Y00946D03*
X00544Y00946D03*
X01527Y00737D03*
X01221Y0087D03*
X01215Y00365D03*
X00952Y00791D03*
X02239Y00846D03*
X01935Y00807D03*
X02238Y00685D03*
X0224Y00927D03*
G54D46*
X02178Y00685D03*
X02203D03*
X01996Y00807D03*
X01971D03*
X02178Y00846D03*
X02203D03*
X02178Y00927D03*
X02203D03*
M02*