%FSTAX23Y23*%
%MOIN*%
%SFA1B1*%

%IPPOS*%
%ADD11C,0.005000*%
%LNnema24-1*%
%LPD*%
G54D11*
X02055Y01107D02*
X02118D01*
X02087Y01075D02*
Y01138D01*
X02055Y00466D02*
X02118D01*
X02087Y00435D02*
Y00498D01*
X02103Y00927D02*
X0214D01*
X02122Y00908D02*
Y00945D01*
X02033Y00887D02*
X0207D01*
X02051Y00868D02*
Y00905D01*
X02103Y00847D02*
X0214D01*
X02122Y00828D02*
Y00865D01*
X02033Y00807D02*
X0207D01*
X02051Y00788D02*
Y00825D01*
X02103Y00767D02*
X0214D01*
X02122Y00748D02*
Y00785D01*
X02033Y00727D02*
X0207D01*
X02051Y00708D02*
Y00745D01*
X02103Y00687D02*
X0214D01*
X02122Y00668D02*
Y00705D01*
X02033Y00647D02*
X0207D01*
X02051Y00628D02*
Y00665D01*
X02157Y01037D02*
X02287D01*
X02222Y00972D02*
Y01101D01*
X02157Y00537D02*
X02287D01*
X02222Y00472D02*
Y00601D01*
X01679Y00833D02*
X0172D01*
X017Y00812D02*
Y00853D01*
X01679Y00734D02*
X0172D01*
X017Y00713D02*
Y00755D01*
X00253Y00295D02*
X00336D01*
X00295Y00254D02*
Y00337D01*
X01238Y00295D02*
X01321D01*
X01279Y00254D02*
Y00337D01*
X01238Y01279D02*
X0132D01*
X01279Y01238D02*
Y01321D01*
X00254Y01279D02*
X00337D01*
X00295Y01238D02*
Y01321D01*
X01167Y01181D02*
X01195D01*
X01181Y01167D02*
Y01195D01*
X00773Y01181D02*
X00801D01*
X00787Y01167D02*
Y01195D01*
X00773Y00393D02*
X00801D01*
X00787Y00379D02*
Y00407D01*
X00379Y01181D02*
X00407D01*
X00393Y01167D02*
Y01195D01*
X00379Y00393D02*
X00407D01*
X00393Y00379D02*
Y00407D01*
X01022Y00759D02*
X01033D01*
X01027Y00753D02*
Y00765D01*
X00951Y00729D02*
X00963D01*
X00957Y00723D02*
Y00735D01*
X00951Y007D02*
X00963D01*
X00957Y00694D02*
Y00706D01*
X00614Y00734D02*
X00626D01*
X0062Y00728D02*
Y0074D01*
X00606Y00946D02*
X00618D01*
X00612Y0094D02*
Y00951D01*
X00572Y00946D02*
X00583D01*
X00577Y0094D02*
Y00952D01*
X00538Y00946D02*
X0055D01*
X00544Y0094D02*
Y00951D01*
X01521Y00737D02*
X01533D01*
X01527Y00731D02*
Y00743D01*
X01215Y0087D02*
X01227D01*
X01221Y00864D02*
Y00875D01*
X01209Y00365D02*
X01221D01*
X01215Y00359D02*
Y00371D01*
X00946Y00791D02*
X00958D01*
X00952Y00785D02*
Y00797D01*
X02233Y00846D02*
X02245D01*
X02239Y0084D02*
Y00852D01*
X01929Y00807D02*
X01941D01*
X01935Y00801D02*
Y00813D01*
X02233Y00685D02*
X02244D01*
X02238Y00679D02*
Y0069D01*
X02234Y00927D02*
X02246D01*
X0224Y00921D02*
Y00933D01*
M02*