%FSTAX23Y23*%
%MOIN*%
%SFA1B1*%

%IPPOS*%
%AMD12*
4,1,8,-0.026900,-0.008100,0.026900,-0.008100,0.028900,-0.006100,0.028900,0.006100,0.026900,0.008100,-0.026900,0.008100,-0.028900,0.006100,-0.028900,-0.006100,-0.026900,-0.008100,0.0*
1,1,0.004039,-0.026900,-0.006100*
1,1,0.004039,0.026900,-0.006100*
1,1,0.004039,0.026900,0.006100*
1,1,0.004039,-0.026900,0.006100*
%
%AMD15*
4,1,8,0.012500,-0.006200,0.012500,0.006200,0.006200,0.012500,-0.006200,0.012500,-0.012500,0.006200,-0.012500,-0.006200,-0.006200,-0.012500,0.006200,-0.012500,0.012500,-0.006200,0.0*
1,1,0.012504,0.006200,-0.006200*
1,1,0.012504,0.006200,0.006200*
1,1,0.012504,-0.006200,0.006200*
1,1,0.012504,-0.006200,-0.006200*
%
%AMD16*
4,1,8,-0.018000,-0.011600,0.018000,-0.011600,0.023800,-0.005800,0.023800,0.005800,0.018000,0.011600,-0.018000,0.011600,-0.023800,0.005800,-0.023800,-0.005800,-0.018000,-0.011600,0.0*
1,1,0.011614,-0.018000,-0.005800*
1,1,0.011614,0.018000,-0.005800*
1,1,0.011614,0.018000,0.005800*
1,1,0.011614,-0.018000,0.005800*
%
%AMD17*
4,1,8,0.027200,-0.015500,0.027200,0.015500,0.022000,0.020700,-0.022000,0.020700,-0.027200,0.015500,-0.027200,-0.015500,-0.022000,-0.020700,0.022000,-0.020700,0.027200,-0.015500,0.0*
1,1,0.010339,0.022000,-0.015500*
1,1,0.010339,0.022000,0.015500*
1,1,0.010339,-0.022000,0.015500*
1,1,0.010339,-0.022000,-0.015500*
%
%ADD10C,0.007874*%
G04~CAMADD=12~8~0.0~0.0~578.7~161.4~20.2~0.0~15~0.0~0.0~0.0~0.0~0~0.0~0.0~0.0~0.0~0~0.0~0.0~0.0~180.0~580.0~162.0*
%ADD12D12*%
%ADD13R,0.061268X0.059236*%
%ADD14R,0.022000X0.012000*%
G04~CAMADD=15~8~0.0~0.0~250.0~250.0~62.5~0.0~15~0.0~0.0~0.0~0.0~0~0.0~0.0~0.0~0.0~0~0.0~0.0~0.0~270.0~250.0~250.0*
%ADD15D15*%
G04~CAMADD=16~8~0.0~0.0~476.4~232.3~58.1~0.0~15~0.0~0.0~0.0~0.0~0~0.0~0.0~0.0~0.0~0~0.0~0.0~0.0~180.0~476.0~232.0*
%ADD16D16*%
G04~CAMADD=17~8~0.0~0.0~413.4~543.3~51.7~0.0~15~0.0~0.0~0.0~0.0~0~0.0~0.0~0.0~0.0~0~0.0~0.0~0.0~270.0~544.0~414.0*
%ADD17D17*%
%ADD18R,0.049212X0.023622*%
%ADD19R,0.057563X0.053331*%
%ADD34C,0.010000*%
%ADD35C,0.019685*%
%ADD36C,0.095669*%
%ADD37R,0.057008X0.057008*%
%ADD38C,0.057008*%
%ADD39C,0.129921*%
%ADD40R,0.062008X0.062008*%
%ADD41C,0.062008*%
%ADD42C,0.039370*%
%ADD43C,0.050000*%
%ADD44C,0.017716*%
%LNnema24-1*%
%LPD*%
G36*
X00861Y01547D02*
X00911Y0154D01*
X0096Y01531*
X01008Y01518*
X01055Y01502*
X01101Y01483*
X01145Y01461*
X01188Y01436*
X0123Y01408*
X01269Y01378*
X01307Y01345*
X01342Y0131*
X01375Y01273*
X01405Y01233*
X01432Y01192*
X01457Y01149*
X01458Y01148*
X02405*
X02406Y0115*
X0241Y01147*
Y00418*
X01449*
X01432Y00389*
X01405Y00348*
X01375Y00308*
X01342Y00271*
X01307Y00236*
X01269Y00203*
X0123Y00173*
X01188Y00145*
X01145Y0012*
X01101Y00098*
X01055Y00079*
X01008Y00063*
X0096Y0005*
X00911Y0004*
X00861Y00034*
X00812Y00031*
X00787*
X00762*
X00712Y00034*
X00663Y0004*
X00614Y0005*
X00566Y00063*
X00519Y00079*
X00473Y00098*
X00429Y0012*
X00385Y00145*
X00344Y00173*
X00305Y00203*
X00267Y00236*
X00232Y00271*
X00199Y00308*
X00169Y00348*
X00141Y00389*
X00116Y00432*
X00094Y00477*
X00075Y00523*
X00059Y0057*
X00047Y00618*
X00037Y00667*
X0003Y00716*
X00027Y00766*
Y0079*
Y00815*
X0003Y00865*
X00037Y00914*
X00047Y00963*
X00059Y01011*
X00075Y01058*
X00094Y01104*
X00116Y01149*
X00141Y01192*
X00169Y01233*
X00199Y01273*
X00232Y0131*
X00267Y01345*
X00305Y01378*
X00344Y01408*
X00385Y01436*
X00429Y01461*
X00473Y01483*
X00519Y01502*
X00566Y01518*
X00614Y01531*
X00663Y0154*
X00712Y01547*
X00762Y0155*
X00812*
X00861Y01547*
G37*
%LNnema24-2*%
%LPC*%
G36*
X01285Y01327D02*
X01273D01*
X01261Y01323*
X0125Y01317*
X01241Y01308*
X01235Y01298*
X01232Y01286*
Y01273*
X01235Y01261*
X01241Y0125*
X0125Y01242*
X01261Y01235*
X01273Y01232*
X01285*
X01297Y01235*
X01308Y01242*
X01317Y0125*
X01323Y01261*
X01326Y01273*
Y01286*
X01323Y01298*
X01317Y01308*
X01308Y01317*
X01297Y01323*
X01285Y01327*
G37*
G36*
X00301D02*
X00289D01*
X00277Y01323*
X00266Y01317*
X00257Y01308*
X00251Y01298*
X00248Y01286*
Y01273*
X00251Y01261*
X00257Y0125*
X00266Y01242*
X00277Y01235*
X00289Y01232*
X00301*
X00313Y01235*
X00324Y01242*
X00333Y0125*
X00339Y01261*
X00342Y01273*
Y01286*
X00339Y01298*
X00333Y01308*
X00324Y01317*
X00313Y01323*
X00301Y01327*
G37*
G36*
X02229Y01107D02*
X02215D01*
X02201Y01105*
X02188Y01099*
X02176Y01092*
X02167Y01082*
X02159Y0107*
X02153Y01057*
X02151Y01043*
Y0103*
X02153Y01016*
X02159Y01003*
X02167Y00991*
X02176Y00981*
X02188Y00974*
X02201Y00968*
X02215Y00966*
X02229*
X02242Y00968*
X02255Y00974*
X02267Y00981*
X02277Y00991*
X02284Y01003*
X0229Y01016*
X02292Y0103*
Y01043*
X0229Y01057*
X02284Y0107*
X02277Y01082*
X02267Y01092*
X02255Y01099*
X02242Y01105*
X02229Y01107*
G37*
G36*
X02156Y00961D02*
X02087D01*
Y00892*
X02145*
X02146Y00892*
X02147Y00892*
X02156*
Y00901*
X02156Y00902*
X02156Y00903*
Y00961*
G37*
G36*
X00927Y00878D02*
X00873D01*
X0087Y00877*
X00867Y00875*
X00866Y00873*
X00865Y0087*
Y00858*
X00866Y00855*
X00867Y00852*
Y0085*
X00866Y00847*
X00865Y00844*
Y00832*
X00866Y00829*
X00867Y00826*
X0087Y00825*
X00873Y00824*
X00927*
X0093Y00825*
X00933Y00826*
X00934Y00829*
X00935Y00832*
Y00844*
X00934Y00847*
X00933Y0085*
Y00852*
X00934Y00855*
X00935Y00858*
Y0087*
X00934Y00873*
X00933Y00875*
X0093Y00877*
X00927Y00878*
G37*
G36*
X02126Y00881D02*
X02117D01*
X02108Y00879*
X021Y00874*
X02094Y00868*
X02089Y0086*
X02087Y00851*
Y00842*
X02089Y00833*
X02094Y00825*
X021Y00819*
X02108Y00814*
X02117Y00812*
X02126*
X02135Y00814*
X02143Y00819*
X02149Y00825*
X02154Y00833*
X02156Y00842*
Y00851*
X02154Y0086*
X02149Y00868*
X02143Y00874*
X02135Y00879*
X02126Y00881*
G37*
G36*
X0131Y00841D02*
X01274D01*
X0127Y0084*
X01266Y00837*
X01263Y00834*
X01262Y00829*
Y00817*
X01263Y00813*
X01266Y00809*
X0127Y00806*
X01274Y00805*
X0131*
X01315Y00806*
X01319Y00809*
X01321Y00813*
X01322Y00817*
Y00829*
X01321Y00834*
X01319Y00837*
X01315Y0084*
X0131Y00841*
G37*
G36*
X00701Y00878D02*
X00647D01*
X00644Y00877*
X00641Y00875*
X0064Y00873*
X00639Y0087*
Y00858*
X0064Y00855*
X00641Y00852*
Y0085*
X0064Y00847*
X00639Y00844*
Y00832*
X0064Y00829*
X00641Y00825*
X0064Y00822*
X00639Y00819*
Y00807*
X00637Y00806*
X00634Y00805*
X00614Y00825*
Y00838*
X00541*
Y00837*
X00502*
X00498Y00835*
X00458Y00795*
X00456Y00791*
Y00577*
X00458Y00572*
X00462Y0057*
X01149*
X01153Y00572*
X01182Y00601*
X01187Y00599*
Y00572*
X01201*
Y00541*
X01181*
Y00476*
X01251*
Y00541*
X01233*
Y00572*
X01248*
Y00608*
X01195*
X01193Y00612*
X01213Y00632*
X01214Y00633*
X01263*
X01267Y00635*
X01269Y00639*
Y00678*
X01289Y00698*
X01333*
X01337Y007*
X01339Y00705*
Y00773*
X01339Y00773*
X01339Y00774*
X01339Y00781*
X01338Y00783*
X01337Y00785*
X01336Y00785*
X01336Y00785*
X01334Y00786*
X01332Y00787*
X01167*
X01162Y00785*
X0116Y0078*
Y00671*
X01134Y00644*
X00525*
Y00741*
X00531Y00747*
X00702*
X00703Y00748*
X00705*
X00706Y00748*
X00707Y00749*
X00708Y00749*
X00708Y00751*
X00709Y00751*
Y00753*
X0071Y00754*
Y00795*
X00708Y00799*
X00708Y00803*
X00709Y00806*
Y00819*
X00708Y00822*
X00707Y00825*
X00708Y00829*
X00709Y00832*
Y00844*
X00708Y00847*
X00707Y0085*
Y00852*
X00708Y00855*
X00709Y00858*
Y0087*
X00708Y00873*
X00707Y00875*
X00704Y00877*
X00701Y00878*
G37*
G36*
X00955Y00806D02*
X00949D01*
X00944Y00804*
X00939Y008*
X00938Y00797*
X00934*
X00933Y00799*
X0093Y008*
X00927Y00801*
X00873*
X0087Y008*
X00867Y00799*
X00866Y00796*
X00865Y00793*
Y00781*
X00866Y00778*
X00867Y00774*
X00866Y0077*
X00865Y00767*
Y00755*
X00866Y00752*
X00867Y00749*
X00866Y00745*
X00865Y00742*
Y0073*
X00866Y00727*
X00867Y00723*
X00866Y00719*
X00865Y00716*
Y00704*
X00866Y00701*
X00867Y00698*
X0087Y00697*
X00873Y00696*
X00927*
X0093Y00697*
X00933Y00698*
X00934Y007*
X0094*
X00943Y00698*
Y00697*
X00945Y00692*
X00949Y00687*
X00954Y00685*
X0096*
X00966Y00687*
X0097Y00692*
X00972Y00697*
Y00703*
X0097Y00708*
X00967Y00712*
X00966Y00714*
X00966Y00718*
X00969Y00721*
X00972Y00726*
Y00732*
X0097Y00737*
X0097Y00738*
X00971Y00743*
X00973Y00745*
X00978*
X00982Y00742*
X00987Y00741*
X00999*
X01004Y00742*
X01008Y00745*
X01011Y00749*
X01011Y00749*
X01016*
X01019Y00746*
X01025Y00744*
X0103*
X01036Y00746*
X0104Y00751*
X01042Y00756*
Y00762*
X0104Y00767*
X01036Y00771*
X0103Y00774*
X01025*
X01019Y00771*
X01017Y00769*
X01011*
X01011Y00771*
X01008Y00775*
X01004Y00777*
X00999Y00778*
X00987*
X00982Y00777*
X00978Y00775*
X00973*
X00969Y00777*
X00967Y00778*
X00965Y00782*
X00965Y00783*
X00965Y00783*
X00967Y00788*
Y00794*
X00964Y008*
X0096Y00804*
X00955Y00806*
G37*
G36*
X02056Y00841D02*
X02047D01*
X02038Y00839*
X0203Y00834*
X02024Y00828*
X02019Y0082*
X02017Y00811*
Y00802*
X02019Y00793*
X02024Y00785*
X0203Y00779*
X02038Y00774*
X02047Y00772*
X02056*
X02065Y00774*
X02073Y00779*
X02079Y00785*
X02084Y00793*
X02086Y00802*
Y00811*
X02084Y0082*
X02079Y00828*
X02073Y00834*
X02065Y00839*
X02056Y00841*
G37*
G36*
X00701Y00724D02*
X00647D01*
X00644Y00724*
X00641Y00722*
X0064Y00719*
X00639Y00716*
Y00704*
X0064Y00701*
X00641Y00698*
X00644Y00697*
X00647Y00696*
X00701*
X00704Y00697*
X00707Y00698*
X00708Y00701*
X00709Y00704*
Y00716*
X00708Y00719*
X00707Y00722*
X00704Y00724*
X00701Y00724*
G37*
G36*
X01792Y00891D02*
X01361D01*
X01356Y00889*
X01352Y00885*
X0135Y00881*
Y00809*
X01352Y00804*
X01356Y00802*
X01417*
X0143Y00789*
X01431Y00784*
X01432Y00782*
X01432Y0078*
X01433Y00779*
X01437Y00777*
X01511*
X01512Y00778*
X01544*
X01545Y00777*
X01723*
Y00764*
X01725Y0076*
X0174Y00744*
Y00687*
X01463*
X01424Y00726*
Y0076*
X01422Y00764*
X01417Y00766*
X01364*
X0136Y00764*
X01349Y00753*
X01347Y00748*
Y00655*
X01349Y0065*
X01353Y00649*
X01412*
X01441Y00619*
X01446Y00617*
X01793*
X01797Y00619*
X01799Y00624*
Y00884*
X01797Y00889*
X01797Y00889*
X01792Y00891*
G37*
G36*
X02126Y00721D02*
X02117D01*
X02108Y00719*
X021Y00714*
X02094Y00708*
X02089Y007*
X02087Y00691*
Y00682*
X02089Y00673*
X02094Y00665*
X021Y00659*
X02108Y00654*
X02117Y00652*
X02126*
X02135Y00654*
X02143Y00659*
X02149Y00665*
X02154Y00673*
X02156Y00682*
Y00691*
X02154Y007*
X02149Y00708*
X02143Y00714*
X02135Y00719*
X02126Y00721*
G37*
G36*
X02229Y00607D02*
X02215D01*
X02201Y00605*
X02188Y00599*
X02176Y00592*
X02167Y00582*
X02159Y0057*
X02153Y00557*
X02151Y00543*
Y0053*
X02153Y00516*
X02159Y00503*
X02167Y00491*
X02176Y00481*
X02188Y00474*
X02201Y00468*
X02215Y00466*
X02229*
X02242Y00468*
X02255Y00474*
X02267Y00481*
X02277Y00491*
X02284Y00503*
X0229Y00516*
X02292Y0053*
Y00543*
X0229Y00557*
X02284Y0057*
X02277Y00582*
X02267Y00592*
X02255Y00599*
X02242Y00605*
X02229Y00607*
G37*
G36*
X01286Y00342D02*
X01273D01*
X01261Y00339*
X0125Y00333*
X01242Y00324*
X01235Y00313*
X01232Y00301*
Y00289*
X01235Y00277*
X01242Y00266*
X0125Y00257*
X01261Y00251*
X01273Y00248*
X01286*
X01298Y00251*
X01308Y00257*
X01317Y00266*
X01323Y00277*
X01327Y00289*
Y00301*
X01323Y00313*
X01317Y00324*
X01308Y00333*
X01298Y00339*
X01286Y00342*
G37*
G36*
X00301D02*
X00289D01*
X00277Y00339*
X00266Y00333*
X00257Y00324*
X00251Y00313*
X00248Y00301*
Y00289*
X00251Y00277*
X00257Y00266*
X00266Y00257*
X00277Y00251*
X00289Y00248*
X00301*
X00313Y00251*
X00324Y00257*
X00333Y00266*
X00339Y00277*
X00342Y00289*
Y00301*
X00339Y00313*
X00333Y00324*
X00324Y00333*
X00313Y00339*
X00301Y00342*
G37*
%LNnema24-3*%
%LPD*%
G36*
X006Y00831D02*
X00636Y00794D01*
X00637Y00795*
X00703*
Y00754*
X00702Y00753*
X00531*
X00529Y00755*
X00518Y00744*
Y00638*
X01137*
X01167Y00668*
Y0078*
X01332*
X01333Y00773*
Y00705*
X01287*
X01263Y00681*
Y00639*
X01209*
Y00637*
X01149Y00577*
X00462*
Y00791*
X00502Y00831*
X006*
G37*
G36*
X01793Y00884D02*
Y00624D01*
X01446*
X01414Y00655*
X01353*
Y00748*
X01364Y0076*
X01417*
Y00724*
X01461Y0068*
X01747*
Y00747*
X0173Y00764*
Y00784*
X01545*
Y00784*
X01511*
Y00784*
X01437*
X01437Y00784*
X01437Y00792*
X0142Y00809*
X01356*
Y00881*
X01361Y00885*
X01757*
X01792*
X01793Y00884*
G37*
G54D10*
X00993Y00759D02*
X01027D01*
X01027Y00759*
X00993Y0076D02*
X00993Y00759D01*
X009Y00736D02*
X00948D01*
X00954Y00729D02*
X00957D01*
X00948Y00736D02*
X00954Y00729D01*
X00944Y0071D02*
X00955Y007D01*
X009Y0071D02*
X00944D01*
X00955Y007D02*
X00957D01*
X00948Y00787D02*
X00952Y00791D01*
X009Y00787D02*
X00948D01*
X00957Y00761D02*
X00958Y0076D01*
X00901Y00761D02*
X00957D01*
X009Y00761D02*
X00901Y00761D01*
X02122Y00927D02*
X02146Y00902D01*
G54D12*
X009Y0071D03*
Y00736D03*
Y00761D03*
Y00787D03*
Y00812D03*
Y00838D03*
Y00864D03*
X00674D03*
Y00838D03*
Y00812D03*
Y00787D03*
Y00761D03*
Y00736D03*
Y0071D03*
G54D13*
X00577Y00873D03*
Y00802D03*
G54D14*
X01528Y00797D03*
Y00772D03*
G54D15*
X00993Y0076D03*
X00958D03*
G54D16*
X01292Y00748D03*
Y00823D03*
X01391D03*
Y00786D03*
Y00748D03*
G54D17*
X0122Y00751D03*
Y00821D03*
X01463Y0075D03*
Y0082D03*
G54D18*
X01217Y00661D03*
Y0059D03*
G54D19*
X01216Y00509D03*
Y00432D03*
G54D34*
X00673Y00735D02*
X00674Y00736D01*
X00621Y00735D02*
X00673D01*
X0062Y00734D02*
X00621Y00735D01*
G54D35*
X01216Y00509D02*
X01217Y00509D01*
Y00589*
X01217Y0059*
G54D36*
X02087Y01107D03*
Y00466D03*
G54D37*
X02122Y00927D03*
G54D38*
X02051Y00887D03*
X02122Y00847D03*
X02051Y00807D03*
X02122Y00767D03*
X02051Y00727D03*
X02122Y00687D03*
X02051Y00647D03*
G54D39*
X02222Y01037D03*
Y00537D03*
G54D40*
X017Y00833D03*
G54D41*
X017Y00734D03*
G54D42*
X00295Y00295D03*
X01279D03*
X01279Y01279D03*
X00295D03*
G54D43*
X01181Y01181D03*
X00787D03*
Y00393D03*
X00393Y01181D03*
Y00393D03*
G54D44*
X01027Y00759D03*
X00957Y00729D03*
X00957Y007D03*
X0062Y00734D03*
X00612Y00946D03*
X00577Y00946D03*
X00544Y00946D03*
X01527Y00737D03*
X01221Y0087D03*
X01215Y00365D03*
X00952Y00791D03*
X02239Y00846D03*
X01935Y00807D03*
X02238Y00685D03*
X0224Y00927D03*
M02*